<svg width="300" height="300" viewBox="0 0 300 300" fill="none" xmlns="http://www.w3.org/2000/svg">
<path d="M208.255 68.6749L53.846 84.9312L74.5657 281.735L228.974 265.479L208.255 68.6749Z" fill="#E0E0E0"/>
<path d="M214.145 72.8849L61.2769 95.813L88.2722 275.798L241.14 252.87L214.145 72.8849Z" fill="#EBEBEB"/>
<path d="M274.272 89.1362C274.272 89.1362 268.2 85.1342 260.844 99.6002C253.488 114.066 250.674 122.4 250.674 122.4C250.674 122.4 248.724 125.4 246.642 123.45C244.56 121.5 241.704 115.842 238.164 116.85C234.492 117.9 233.28 121.998 233.964 128.022C234.648 134.046 235.716 147.294 235.806 148.494C235.896 149.694 235.206 151.404 233.586 150.294C231.966 149.184 222.54 138.696 217.836 143.46C213.132 148.224 217.836 164.676 218.322 166.488C218.808 168.3 218.448 169.068 217.584 169.488C216.72 169.908 213.894 166.116 211.098 163.248C208.302 160.38 204.552 157.542 202.068 160.512C199.584 163.482 198.792 175.836 210.54 195.912L216.6 204.87L227.4 204.27C250.488 201.576 259.872 193.506 260.748 189.726C261.624 185.946 257.106 184.674 253.128 184.164C249.15 183.654 244.398 183.702 244.236 182.748C244.074 181.794 244.482 181.044 246.216 180.348C247.95 179.652 263.922 173.49 264.888 166.866C265.854 160.242 251.826 159.066 249.942 158.412C248.058 157.758 249.042 156.204 250.032 155.562C251.022 154.92 262.254 147.762 267.486 144.702C272.718 141.642 275.256 138.204 273.888 134.64C272.562 131.202 266.352 132.312 263.514 131.844C260.676 131.376 261.924 127.992 261.924 127.992C261.924 127.992 266.91 120.732 274.02 106.128C281.13 91.5242 274.11 89.0702 274.11 89.0702" fill="#E0E0E0"/>
<path d="M267.648 102.084C267.648 102.084 267.606 102.192 267.51 102.396L267.09 103.302L265.434 106.8C263.994 109.8 261.876 114.15 259.242 119.502C253.974 130.2 246.6 144.906 238.356 161.142C230.112 177.378 222.696 192.102 217.356 202.776L211.068 215.43L209.4 218.868L208.944 219.762C208.842 219.96 208.782 220.056 208.782 220.056C208.782 220.056 208.824 219.948 208.914 219.744L209.34 218.838L210.996 215.376C212.436 212.376 214.548 208.026 217.182 202.674C222.45 191.97 229.848 177.24 238.074 160.992C246.3 144.744 253.728 130.044 259.074 119.364C261.72 114.03 263.874 109.716 265.356 106.71C266.094 105.228 266.67 104.07 267.072 103.272L267.522 102.384C267.6 102.186 267.648 102.084 267.648 102.084Z" fill="#EBEBEB"/>
<path d="M241.836 124.914C241.957 125.146 242.049 125.392 242.112 125.646C242.268 126.12 242.472 126.846 242.712 127.68C243.204 129.408 243.816 131.808 244.446 134.466C245.076 137.124 245.61 139.47 246.036 141.288C246.234 142.104 246.396 142.794 246.528 143.352C246.605 143.6 246.657 143.856 246.684 144.114C246.562 143.882 246.468 143.636 246.402 143.382C246.246 142.908 246.042 142.212 245.802 141.348C245.328 139.614 244.746 137.208 244.116 134.544C243.486 131.88 242.916 129.552 242.478 127.74C242.28 126.924 242.112 126.234 241.974 125.682C241.905 125.431 241.859 125.174 241.836 124.914Z" fill="#EBEBEB"/>
<path d="M247.68 144.306C247.68 144.216 252.546 142.734 258.606 140.988C264.666 139.242 269.604 137.91 269.628 137.988C269.652 138.066 264.762 139.566 258.702 141.306C252.642 143.046 247.704 144.396 247.68 144.306Z" fill="#EBEBEB"/>
<path d="M233.922 168.678C234.186 168.636 234.453 168.624 234.72 168.642H236.886C238.716 168.642 241.242 168.642 244.026 168.534C246.81 168.426 249.336 168.252 251.154 168.108L253.314 167.94C253.579 167.907 253.847 167.907 254.112 167.94C253.857 168.014 253.596 168.064 253.332 168.09C252.822 168.168 252.09 168.264 251.178 168.366C249.378 168.576 246.834 168.792 244.038 168.894C241.242 168.996 238.716 168.972 236.88 168.894C235.968 168.858 235.23 168.822 234.714 168.78C234.447 168.774 234.182 168.74 233.922 168.678Z" fill="#EBEBEB"/>
<path d="M224.784 152.298C224.946 152.481 225.087 152.683 225.204 152.898C225.486 153.36 225.834 153.936 226.248 154.608C227.118 156.06 227.826 158.55 229.584 160.308C230.868 162.546 232.02 164.58 232.836 166.062C233.208 166.752 233.526 167.346 233.79 167.82C233.921 168.03 234.023 168.256 234.096 168.492C233.934 168.309 233.793 168.107 233.676 167.892C233.388 167.432 233.04 166.862 232.632 166.182C231.762 164.736 230.58 162.72 229.296 160.482C228.012 158.244 226.86 156.21 226.044 154.734L225.09 153C224.957 152.781 224.854 152.545 224.784 152.298Z" fill="#EBEBEB"/>
<path d="M209.904 172.272C210.107 172.514 210.286 172.775 210.438 173.052L211.782 175.236C212.91 177.09 214.44 179.664 216.12 182.514C217.8 185.364 219.294 187.956 220.368 189.834C220.872 190.74 221.298 191.49 221.622 192.078C221.787 192.345 221.927 192.626 222.042 192.918C221.841 192.677 221.662 192.418 221.508 192.144L220.164 189.954C219.036 188.106 217.506 185.532 215.832 182.682C214.158 179.832 212.652 177.24 211.578 175.356C211.074 174.456 210.654 173.7 210.324 173.118C210.16 172.849 210.019 172.566 209.904 172.272Z" fill="#EBEBEB"/>
<path d="M221.892 192.342C222.226 192.292 222.563 192.268 222.9 192.27L225.648 192.186C227.964 192.102 231.168 191.982 234.696 191.754C238.224 191.526 241.422 191.238 243.732 191.01L246.468 190.746C246.802 190.697 247.139 190.677 247.476 190.686C247.151 190.771 246.82 190.833 246.486 190.872C245.844 190.974 244.908 191.106 243.756 191.244C241.452 191.532 238.26 191.844 234.72 192.084C231.18 192.324 227.976 192.402 225.648 192.42C224.49 192.42 223.548 192.42 222.9 192.42C222.562 192.427 222.225 192.401 221.892 192.342Z" fill="#EBEBEB"/>
<path d="M42.552 187.848C43.6208 187.305 44.7882 186.984 45.9842 186.903C47.1802 186.823 48.3802 186.985 49.512 187.38C51.7789 188.182 53.8316 189.494 55.512 191.214C58.836 194.43 60.912 199.332 62.112 203.814C57.072 204.822 51.858 201.93 49.308 200.298C45.27 197.718 39.54 190.608 42.558 187.86" fill="#23662A"/>
<path d="M70.866 204.858C69.6694 204.263 68.6509 203.362 67.9135 202.248C67.1761 201.133 66.7458 199.844 66.666 198.51C66.6073 197.172 66.8152 195.836 67.2777 194.579C67.7402 193.322 68.448 192.17 69.36 191.19C70.188 190.272 71.286 189.432 72.516 189.492C73.0919 189.556 73.6403 189.772 74.1052 190.118C74.5702 190.464 74.9349 190.927 75.162 191.46C75.5994 192.537 75.7423 193.711 75.576 194.862C75.198 198.804 74.112 202.548 70.896 204.858" fill="#23662A"/>
<path d="M79.008 217.392C78.7659 217.186 78.5448 216.957 78.348 216.708L76.608 214.782C75.18 213.138 73.092 210.84 71.748 207.72C70.5576 205.077 70.0897 202.166 70.392 199.284C70.4892 198.419 70.6907 197.569 70.992 196.752C71.0747 196.529 71.1688 196.311 71.274 196.098C71.34 195.954 71.382 195.876 71.394 195.882C71.017 196.997 70.7537 198.146 70.608 199.314C70.383 202.154 70.8826 205.005 72.06 207.6C73.368 210.66 75.402 212.964 76.788 214.644C77.49 215.484 78.066 216.162 78.444 216.642C78.6553 216.873 78.8442 217.125 79.008 217.392Z" fill="#263238"/>
<path d="M47.4 192.876C47.5263 192.937 47.6468 193.009 47.76 193.092L48.738 193.758C49.59 194.358 50.808 195.204 52.302 196.278C55.302 198.432 59.388 201.462 63.828 204.912C68.268 208.362 72.228 211.578 75.054 213.942C76.464 215.142 77.598 216.09 78.378 216.768L79.266 217.554C79.47 217.74 79.572 217.836 79.56 217.848C79.4407 217.779 79.3282 217.698 79.224 217.608L78.294 216.87L74.904 214.128C72 211.8 68.052 208.626 63.6 205.2C59.148 201.774 55.092 198.696 52.14 196.494L48.642 193.89L47.694 193.17C47.585 193.084 47.4863 192.985 47.4 192.876Z" fill="#263238"/>
<path d="M69 211.878C66.5061 210.549 63.7318 209.834 60.9064 209.79C58.0811 209.746 55.2859 210.375 52.752 211.626C51.474 212.274 50.124 213.366 50.238 214.794C50.352 216.222 51.87 217.092 53.238 217.5C56.1318 218.292 59.1954 218.209 62.0423 217.262C64.8892 216.315 67.3917 214.546 69.234 212.178" fill="#23662A"/>
<path d="M56.592 213.792C56.8378 213.62 57.1013 213.475 57.378 213.36C57.6885 213.194 58.0091 213.048 58.338 212.922C58.7646 212.737 59.2013 212.577 59.646 212.442C60.1792 212.26 60.722 212.108 61.272 211.986C61.9036 211.838 62.5425 211.724 63.186 211.644C64.6654 211.478 66.1586 211.478 67.638 211.644C69.116 211.828 70.5677 212.182 71.964 212.7C72.5788 212.929 73.1799 213.193 73.764 213.492C74.2702 213.746 74.7629 214.027 75.24 214.332C75.69 214.59 76.044 214.896 76.38 215.13C76.6656 215.335 76.9381 215.557 77.196 215.796C77.4303 215.975 77.6473 216.176 77.844 216.396C77.79 216.456 76.86 215.574 75.114 214.512C74.6384 214.222 74.1477 213.958 73.644 213.72C73.0704 213.435 72.4815 213.183 71.88 212.964C70.5036 212.472 69.0769 212.134 67.626 211.956C66.1702 211.8 64.7018 211.8 63.246 211.956C62.6111 212.027 61.9802 212.131 61.356 212.268C60.756 212.37 60.228 212.538 59.736 212.67C57.756 213.258 56.622 213.858 56.592 213.792Z" fill="#263238"/>
<path d="M224.76 235.41C220.56 232.71 219.048 229.248 218.388 224.298C218.076 221.815 218.299 219.293 219.043 216.903C219.788 214.514 221.035 212.311 222.702 210.444C225.498 207.36 229.422 205.254 231.456 201.618C233.616 197.742 233.34 192.618 236.424 189.408C238.548 187.218 241.746 186.534 244.362 184.974C246.504 183.702 248.232 181.86 250.17 180.306C252.108 178.752 254.436 177.432 256.92 177.522C260.67 177.66 263.724 181.218 264.042 184.956C264.36 188.694 262.416 192.354 259.65 194.892C257.646 196.728 255.144 198.174 253.878 200.586C251.478 205.104 254.4 211.152 251.826 215.586C249.948 218.808 245.472 220.488 244.986 224.19C244.806 225.552 245.244 226.914 245.286 228.288C245.418 232.578 241.542 236.184 237.348 237.108C233.154 238.032 228.798 236.874 224.748 235.428" fill="#455A64"/>
<path d="M249.402 192.906C249.281 193.087 249.142 193.256 248.988 193.41L247.722 194.772C247.164 195.372 246.48 196.074 245.742 196.95C245.004 197.826 244.092 198.75 243.216 199.914C242.34 201.078 241.308 202.26 240.336 203.652C239.85 204.348 239.304 205.032 238.812 205.794L237.282 208.122C235.075 211.618 233.134 215.274 231.474 219.06C229.859 222.865 228.545 226.791 227.544 230.802C227.118 232.662 226.704 234.402 226.464 236.106C226.224 237.81 225.984 239.34 225.822 240.774C225.66 242.208 225.606 243.51 225.51 244.656C225.414 245.802 225.408 246.786 225.396 247.596C225.384 248.406 225.366 248.976 225.354 249.456C225.359 249.673 225.341 249.891 225.3 250.104C225.259 249.891 225.243 249.673 225.252 249.456C225.252 248.976 225.222 248.358 225.198 247.59C225.174 246.822 225.156 245.79 225.198 244.644C225.24 243.498 225.258 242.178 225.432 240.738C225.606 239.298 225.714 237.738 226.032 236.034C226.35 234.33 226.632 232.566 227.07 230.694C228.059 226.649 229.373 222.69 231 218.856C232.672 215.044 234.64 211.369 236.886 207.864L238.44 205.536C238.944 204.78 239.496 204.09 239.994 203.4C240.99 202.014 242.016 200.802 242.94 199.686C243.864 198.57 244.74 197.616 245.526 196.758C246.312 195.9 246.996 195.198 247.578 194.634C248.16 194.07 248.568 193.668 248.916 193.338C249.063 193.178 249.226 193.033 249.402 192.906Z" fill="#263238"/>
<path d="M228.504 83.49H73.926V265.488H228.504V83.49Z" fill="#FAFAFA"/>
<path d="M228.51 265.488C228.51 264.288 228.45 191.934 228.366 83.4899L228.51 83.6279H73.944L74.1 83.4719C74.1 150.672 74.1 213.258 74.1 265.47L73.968 265.338L228.552 265.47L73.968 265.602H73.8V265.47C73.8 213.27 73.8 150.666 73.8 83.4719V83.3159H73.974H228.54H228.678V83.4599C228.564 191.934 228.51 264.282 228.51 265.488Z" fill="#263238"/>
<path d="M159.942 113.232H156.942L156.294 114.678H155.694L158.166 109.278H158.73L161.202 114.678H160.602L159.942 113.232ZM159.738 112.77L158.436 109.866L157.14 112.8L159.738 112.77Z" fill="black"/>
<path d="M165.648 108.942V114.678H165.12V113.874C164.957 114.14 164.726 114.359 164.451 114.506C164.176 114.654 163.866 114.726 163.554 114.714C163.025 114.685 162.527 114.455 162.163 114.071C161.798 113.686 161.595 113.177 161.595 112.647C161.595 112.117 161.798 111.608 162.163 111.223C162.527 110.839 163.025 110.608 163.554 110.58C163.858 110.573 164.159 110.643 164.429 110.783C164.698 110.924 164.928 111.131 165.096 111.384V108.942H165.648ZM165.102 112.644C165.088 112.348 164.987 112.063 164.812 111.824C164.638 111.585 164.397 111.402 164.119 111.299C163.841 111.196 163.54 111.176 163.251 111.243C162.963 111.309 162.7 111.459 162.496 111.674C162.292 111.889 162.155 112.159 162.103 112.45C162.051 112.742 162.086 113.042 162.203 113.314C162.32 113.586 162.515 113.818 162.762 113.98C163.01 114.143 163.3 114.229 163.596 114.228C163.801 114.231 164.005 114.191 164.194 114.112C164.383 114.032 164.554 113.914 164.695 113.765C164.837 113.617 164.946 113.44 165.016 113.247C165.086 113.054 165.115 112.849 165.102 112.644Z" fill="black"/>
<path d="M170.886 108.942V114.678H170.358V113.874C170.195 114.14 169.964 114.359 169.689 114.506C169.414 114.654 169.104 114.726 168.792 114.714C168.263 114.685 167.765 114.455 167.401 114.071C167.036 113.686 166.833 113.177 166.833 112.647C166.833 112.117 167.036 111.608 167.401 111.223C167.765 110.839 168.263 110.608 168.792 110.58C169.096 110.573 169.397 110.643 169.667 110.783C169.936 110.924 170.166 111.131 170.334 111.384V108.942H170.886ZM170.34 112.644C170.326 112.348 170.225 112.063 170.05 111.824C169.876 111.585 169.635 111.402 169.357 111.299C169.079 111.196 168.778 111.176 168.489 111.243C168.201 111.309 167.938 111.459 167.734 111.674C167.53 111.889 167.393 112.159 167.341 112.45C167.289 112.742 167.324 113.042 167.441 113.314C167.558 113.586 167.753 113.818 168 113.98C168.248 114.143 168.538 114.229 168.834 114.228C169.039 114.231 169.243 114.191 169.432 114.112C169.621 114.032 169.792 113.914 169.933 113.765C170.075 113.617 170.184 113.44 170.254 113.247C170.324 113.054 170.353 112.849 170.34 112.644Z" fill="black"/>
<path d="M178.098 110.61V114.678H177.6V113.934C177.451 114.184 177.236 114.389 176.979 114.527C176.723 114.664 176.433 114.729 176.142 114.714C175.908 114.737 175.672 114.707 175.452 114.627C175.231 114.547 175.031 114.419 174.866 114.251C174.702 114.084 174.577 113.882 174.501 113.66C174.424 113.437 174.399 113.201 174.426 112.968V110.61H174.978V112.914C174.978 113.778 175.422 114.222 176.178 114.222C176.37 114.232 176.563 114.2 176.742 114.128C176.92 114.056 177.081 113.946 177.213 113.805C177.345 113.665 177.445 113.497 177.506 113.314C177.566 113.131 177.586 112.937 177.564 112.746V110.61H178.098Z" fill="black"/>
<path d="M179.07 114.216L179.316 113.778C179.737 114.079 180.244 114.239 180.762 114.234C181.536 114.234 181.854 113.976 181.854 113.574C181.854 112.512 179.214 113.346 179.214 111.774C179.214 111.108 179.814 110.61 180.822 110.61C181.327 110.604 181.825 110.734 182.262 110.988L182.022 111.432C181.667 111.196 181.248 111.075 180.822 111.084C180.09 111.084 179.766 111.372 179.766 111.756C179.766 112.854 182.4 112.026 182.4 113.556C182.4 114.258 181.8 114.714 180.726 114.714C180.135 114.731 179.554 114.556 179.07 114.216Z" fill="black"/>
<path d="M186.954 112.8H183.552C183.563 112.998 183.614 113.192 183.701 113.37C183.788 113.549 183.909 113.708 184.058 113.839C184.207 113.971 184.381 114.071 184.569 114.134C184.757 114.198 184.956 114.224 185.154 114.21C185.388 114.218 185.62 114.174 185.835 114.081C186.049 113.989 186.241 113.851 186.396 113.676L186.702 114.036C186.506 114.255 186.264 114.428 185.993 114.542C185.722 114.656 185.43 114.709 185.136 114.696C184.857 114.713 184.578 114.671 184.315 114.574C184.053 114.477 183.815 114.326 183.614 114.131C183.414 113.936 183.256 113.702 183.151 113.442C183.047 113.183 182.997 112.905 183.006 112.626C182.991 112.357 183.031 112.088 183.124 111.835C183.217 111.583 183.36 111.351 183.545 111.156C183.73 110.96 183.953 110.805 184.2 110.698C184.447 110.592 184.714 110.537 184.983 110.537C185.252 110.537 185.519 110.592 185.766 110.698C186.013 110.805 186.236 110.96 186.421 111.156C186.606 111.351 186.749 111.583 186.842 111.835C186.935 112.088 186.975 112.357 186.96 112.626C186.96 112.692 186.954 112.752 186.954 112.8ZM183.552 112.386H186.432C186.399 112.027 186.233 111.693 185.967 111.449C185.7 111.206 185.353 111.071 184.992 111.071C184.631 111.071 184.284 111.206 184.017 111.449C183.751 111.693 183.585 112.027 183.552 112.386Z" fill="black"/>
<path d="M190.128 110.58V111.114H189.996C189.802 111.104 189.608 111.137 189.429 111.211C189.249 111.285 189.088 111.397 188.958 111.541C188.827 111.684 188.729 111.855 188.672 112.04C188.615 112.226 188.6 112.422 188.628 112.614V114.684H188.076V110.616H188.604V111.414C188.745 111.138 188.966 110.911 189.237 110.762C189.509 110.613 189.82 110.55 190.128 110.58Z" fill="black"/>
<path d="M148.698 167.574C148.698 167.574 148.698 167.454 148.698 167.238C148.698 167.022 148.698 166.686 148.698 166.266C148.698 165.402 148.698 164.142 148.698 162.51C148.698 159.24 148.662 154.488 148.638 148.512L148.74 148.608L88.086 148.668L88.242 148.512C88.242 155.112 88.242 161.532 88.242 167.574L88.092 167.424L131.442 167.49L144.138 167.532H147.552H148.44H148.746H148.458H147.54H144.162L131.502 167.58L88.044 167.646H87.888V148.356H88.044L148.698 148.41H148.8V148.512C148.8 154.512 148.758 159.312 148.746 162.57C148.746 164.19 148.746 165.444 148.746 166.302C148.746 166.716 148.746 167.034 148.746 167.256C148.746 167.478 148.698 167.574 148.698 167.574Z" fill="#263238"/>
<path d="M215.838 193.392C215.838 193.392 215.838 192.966 215.838 192.138C215.838 191.31 215.838 190.086 215.838 188.472C215.838 185.25 215.838 180.492 215.796 174.33L215.874 174.408L88.074 174.486L88.23 174.33V193.392L88.074 193.242L178.998 193.308L205.998 193.35H213.3H215.196H215.85C215.85 193.35 215.64 193.35 215.22 193.35H213.342H206.076L179.076 193.398L88.044 193.464H87.888V174.174H88.05L215.85 174.252H215.928V174.33C215.928 180.516 215.892 185.286 215.88 188.52C215.88 190.12 215.88 191.336 215.88 192.168C215.85 192.984 215.838 193.392 215.838 193.392Z" fill="#263238"/>
<path d="M215.838 219.036C215.838 219.036 215.838 218.604 215.838 217.782C215.838 216.96 215.838 215.724 215.838 214.116C215.838 210.888 215.838 206.136 215.796 199.974L215.874 200.046L88.074 200.13L88.23 199.974V219.036L88.074 218.88L178.998 218.946L205.998 218.994H213.3H215.196H215.85H215.22H213.342H206.076L179.076 219.036L88.044 219.108H87.888V199.8H88.05L215.85 199.884H215.928V199.962C215.928 206.142 215.892 210.912 215.88 214.146C215.88 215.746 215.88 216.962 215.88 217.794C215.85 218.628 215.838 219.036 215.838 219.036Z" fill="#263238"/>
<path d="M215.838 167.574C215.838 167.574 215.838 167.454 215.838 167.238C215.838 167.022 215.838 166.686 215.838 166.266C215.838 165.402 215.838 164.142 215.838 162.51C215.838 159.24 215.838 154.488 215.784 148.512L215.886 148.608L155.232 148.668L155.388 148.512V167.574L155.232 167.424L198.588 167.49L211.284 167.532H214.698H215.586H215.892H215.604H214.68H211.302L198.642 167.58L155.178 167.646H155.028V167.496C155.028 161.454 155.028 155.04 155.028 148.434V148.278H155.19L215.844 148.332H215.946V148.434C215.946 154.434 215.904 159.234 215.886 162.492C215.886 164.112 215.886 165.366 215.886 166.224C215.886 166.638 215.886 166.956 215.886 167.178C215.886 167.4 215.838 167.574 215.838 167.574Z" fill="#263238"/>
<path d="M100.746 160.8C100.593 160.82 100.438 160.83 100.284 160.83L98.916 160.872C97.716 160.908 96 160.956 93.936 160.98H93.744L93.804 160.8C93.9783 160.19 94.3093 159.635 94.764 159.192C95.2768 158.731 95.9165 158.434 96.6 158.34L96.564 158.634C96.1797 158.466 95.8486 158.196 95.6065 157.853C95.3643 157.511 95.2203 157.108 95.19 156.69C95.1485 156.22 95.2493 155.748 95.4794 155.336C95.7094 154.924 96.0581 154.591 96.48 154.38C96.8826 154.196 97.3343 154.147 97.767 154.241C98.1998 154.335 98.5903 154.567 98.88 154.902C99.1374 155.198 99.3184 155.552 99.4073 155.934C99.4962 156.315 99.4903 156.713 99.39 157.092C99.3077 157.421 99.1507 157.728 98.9311 157.987C98.7116 158.246 98.4354 158.451 98.124 158.586V158.376C98.6588 158.455 99.167 158.661 99.606 158.976C99.9282 159.218 100.201 159.519 100.41 159.864C100.598 160.15 100.723 160.474 100.776 160.812C100.776 160.812 100.728 160.722 100.662 160.578C100.561 160.353 100.443 160.136 100.308 159.93C100.058 159.559 99.7297 159.247 99.3461 159.017C98.9625 158.787 98.533 158.644 98.088 158.598L97.686 158.55L98.064 158.388C98.3379 158.26 98.5791 158.072 98.7693 157.837C98.9596 157.602 99.0939 157.327 99.162 157.032C99.247 156.696 99.2487 156.345 99.1672 156.008C99.0856 155.671 98.9232 155.36 98.694 155.1C98.4402 154.82 98.105 154.628 97.7357 154.549C97.3663 154.47 96.9816 154.51 96.636 154.662C96.2727 154.847 95.9734 155.137 95.7766 155.495C95.5798 155.852 95.4946 156.26 95.532 156.666C95.558 157.031 95.6836 157.382 95.8952 157.68C96.1068 157.978 96.3962 158.213 96.732 158.358L97.242 158.562L96.696 158.652C96.0705 158.734 95.4847 159.004 95.016 159.426C94.5922 159.83 94.28 160.336 94.11 160.896L93.978 160.722C95.976 160.722 97.656 160.722 98.862 160.764H100.266C100.427 160.765 100.587 160.777 100.746 160.8Z" fill="#23662A"/>
<path d="M171.852 160.8C171.701 160.821 171.548 160.831 171.396 160.83L170.022 160.872C168.822 160.908 167.112 160.956 165.042 160.98H164.856L164.91 160.8C165.084 160.189 165.415 159.635 165.87 159.192C166.381 158.726 167.021 158.425 167.706 158.328L167.67 158.622C167.286 158.453 166.956 158.183 166.715 157.841C166.474 157.498 166.331 157.096 166.302 156.678C166.257 156.208 166.356 155.736 166.586 155.324C166.815 154.911 167.164 154.578 167.586 154.368C167.989 154.184 168.44 154.136 168.873 154.23C169.305 154.324 169.696 154.556 169.986 154.89C170.242 155.186 170.422 155.541 170.51 155.922C170.598 156.304 170.591 156.702 170.49 157.08C170.408 157.409 170.251 157.715 170.031 157.975C169.812 158.234 169.535 158.439 169.224 158.574V158.364C169.759 158.443 170.267 158.648 170.706 158.964C171.03 159.204 171.303 159.506 171.51 159.852C171.698 160.138 171.823 160.461 171.876 160.8C171.876 160.8 171.828 160.71 171.762 160.566C171.666 160.339 171.547 160.122 171.408 159.918C171.159 159.547 170.832 159.235 170.449 159.005C170.067 158.775 169.638 158.632 169.194 158.586L168.792 158.538L169.164 158.376C169.438 158.247 169.68 158.059 169.871 157.824C170.062 157.589 170.198 157.314 170.268 157.02C170.352 156.684 170.352 156.332 170.27 155.995C170.187 155.659 170.024 155.347 169.794 155.088C169.544 154.804 169.21 154.608 168.84 154.529C168.471 154.45 168.086 154.493 167.742 154.65C167.377 154.834 167.076 155.123 166.878 155.481C166.68 155.838 166.594 156.247 166.632 156.654C166.658 157.019 166.784 157.37 166.995 157.668C167.207 157.966 167.496 158.201 167.832 158.346L168.342 158.55L167.796 158.64C167.171 158.722 166.585 158.992 166.116 159.414C165.694 159.818 165.384 160.324 165.216 160.884L165.084 160.71C167.082 160.71 168.762 160.71 169.962 160.752H171.372C171.533 160.757 171.693 160.773 171.852 160.8Z" fill="#23662A"/>
<path d="M107.856 156.6V158.208H109.968V158.58H107.856V160.314H107.4V156.228H110.202V156.6H107.856Z" fill="#263238"/>
<path d="M110.874 156.27C110.876 156.191 110.908 156.117 110.964 156.062C111.02 156.007 111.095 155.976 111.174 155.976C111.213 155.974 111.252 155.98 111.289 155.994C111.325 156.008 111.359 156.029 111.388 156.056C111.416 156.082 111.439 156.115 111.455 156.15C111.471 156.186 111.479 156.225 111.48 156.264C111.489 156.308 111.488 156.354 111.477 156.398C111.466 156.442 111.445 156.483 111.417 156.518C111.388 156.553 111.352 156.581 111.311 156.601C111.27 156.62 111.225 156.63 111.18 156.63C111.135 156.63 111.09 156.62 111.049 156.601C111.008 156.581 110.972 156.553 110.943 156.518C110.915 156.483 110.894 156.442 110.883 156.398C110.872 156.354 110.871 156.308 110.88 156.264L110.874 156.27ZM110.964 157.236H111.378V160.308H110.964V157.236Z" fill="#263238"/>
<path d="M114.078 157.2V157.608H114C113.854 157.6 113.708 157.625 113.573 157.68C113.438 157.736 113.316 157.82 113.218 157.928C113.119 158.036 113.045 158.164 113.002 158.304C112.959 158.444 112.947 158.591 112.968 158.736V160.302H112.554V157.23H112.95V157.83C113.053 157.624 113.216 157.454 113.417 157.342C113.618 157.229 113.849 157.18 114.078 157.2Z" fill="#263238"/>
<path d="M114.42 159.954L114.606 159.63C114.925 159.856 115.307 159.975 115.698 159.972C116.298 159.972 116.52 159.774 116.52 159.474C116.52 158.67 114.534 159.3 114.534 158.088C114.534 157.59 114.966 157.212 115.734 157.212C116.115 157.207 116.491 157.307 116.82 157.5L116.64 157.836C116.373 157.656 116.056 157.563 115.734 157.572C115.182 157.572 114.936 157.788 114.936 158.076C114.936 158.904 116.922 158.28 116.922 159.462C116.922 159.99 116.46 160.332 115.656 160.332C115.214 160.342 114.781 160.209 114.42 159.954Z" fill="#263238"/>
<path d="M119.316 160.116C119.133 160.263 118.903 160.34 118.668 160.332C118.547 160.346 118.425 160.333 118.31 160.293C118.196 160.254 118.091 160.189 118.005 160.104C117.918 160.019 117.852 159.915 117.811 159.801C117.77 159.687 117.755 159.565 117.768 159.444V157.59H117.222V157.236H117.768V156.6H118.2V157.266H119.13V157.62H118.2V159.45C118.19 159.523 118.196 159.597 118.219 159.668C118.241 159.738 118.279 159.802 118.33 159.856C118.381 159.909 118.443 159.951 118.512 159.977C118.581 160.003 118.654 160.014 118.728 160.008C118.894 160.012 119.056 159.957 119.184 159.852L119.316 160.116Z" fill="#263238"/>
<path d="M124.41 158.526V160.326H123.996V158.586C124.016 158.458 124.006 158.328 123.968 158.204C123.929 158.081 123.864 157.968 123.775 157.873C123.687 157.779 123.578 157.706 123.457 157.66C123.336 157.614 123.207 157.596 123.078 157.608C122.931 157.596 122.784 157.618 122.647 157.669C122.509 157.721 122.385 157.803 122.282 157.908C122.18 158.014 122.102 158.14 122.054 158.279C122.006 158.418 121.989 158.566 122.004 158.712V160.326H121.59V157.254H121.986V157.8C122.109 157.604 122.282 157.444 122.488 157.339C122.694 157.233 122.925 157.185 123.156 157.2C123.329 157.191 123.502 157.22 123.663 157.285C123.824 157.349 123.969 157.448 124.089 157.574C124.208 157.7 124.298 157.85 124.354 158.015C124.409 158.179 124.428 158.353 124.41 158.526Z" fill="#263238"/>
<path d="M127.848 158.4V160.302H127.452V159.822C127.337 159.993 127.178 160.129 126.993 160.218C126.807 160.307 126.601 160.344 126.396 160.326C125.706 160.326 125.28 159.966 125.28 159.438C125.28 158.91 125.58 158.568 126.48 158.568H127.452V158.4C127.452 157.872 127.158 157.59 126.588 157.59C126.216 157.583 125.854 157.711 125.568 157.95L125.376 157.644C125.721 157.36 126.153 157.204 126.6 157.2C126.765 157.175 126.934 157.188 127.094 157.239C127.253 157.29 127.399 157.377 127.52 157.493C127.64 157.609 127.732 157.751 127.789 157.908C127.846 158.065 127.866 158.234 127.848 158.4ZM127.434 159.378V158.874H126.474C125.874 158.874 125.688 159.108 125.688 159.426C125.688 159.744 125.97 160.026 126.462 160.026C126.671 160.037 126.879 159.981 127.054 159.865C127.229 159.75 127.362 159.581 127.434 159.384V159.378Z" fill="#263238"/>
<path d="M134.034 158.526V160.326H133.62V158.586C133.62 157.938 133.296 157.608 132.738 157.608C132.595 157.601 132.451 157.625 132.318 157.679C132.185 157.733 132.065 157.816 131.968 157.921C131.87 158.026 131.796 158.151 131.752 158.288C131.708 158.425 131.694 158.569 131.712 158.712V160.326H131.298V158.586C131.298 157.938 130.974 157.608 130.416 157.608C130.273 157.601 130.129 157.625 129.996 157.679C129.863 157.733 129.743 157.816 129.646 157.921C129.548 158.026 129.474 158.151 129.43 158.288C129.386 158.425 129.372 158.569 129.39 158.712V160.326H129V157.254H129.396V157.8C129.511 157.607 129.676 157.449 129.873 157.344C130.071 157.238 130.294 157.188 130.518 157.2C130.745 157.181 130.972 157.234 131.167 157.35C131.363 157.466 131.517 157.64 131.61 157.848C131.734 157.642 131.91 157.474 132.121 157.36C132.332 157.246 132.57 157.19 132.81 157.2C132.983 157.188 133.156 157.215 133.317 157.279C133.478 157.343 133.622 157.443 133.74 157.57C133.857 157.697 133.944 157.849 133.995 158.014C134.046 158.18 134.059 158.355 134.034 158.526Z" fill="#263238"/>
<path d="M137.838 158.898H135.276C135.284 159.047 135.322 159.193 135.387 159.327C135.452 159.462 135.543 159.582 135.654 159.681C135.766 159.78 135.896 159.857 136.037 159.905C136.178 159.954 136.327 159.975 136.476 159.966C136.652 159.972 136.827 159.939 136.989 159.869C137.151 159.8 137.295 159.696 137.412 159.564L137.646 159.834C137.426 160.064 137.143 160.225 136.832 160.295C136.521 160.365 136.196 160.342 135.899 160.229C135.601 160.115 135.343 159.917 135.158 159.658C134.972 159.398 134.867 159.09 134.856 158.772C134.856 158.374 135.014 157.993 135.295 157.711C135.577 157.43 135.958 157.272 136.356 157.272C136.754 157.272 137.135 157.43 137.417 157.711C137.698 157.993 137.856 158.374 137.856 158.772C137.844 158.808 137.838 158.856 137.838 158.898ZM135.276 158.592H137.448C137.436 158.313 137.314 158.05 137.11 157.859C136.906 157.669 136.635 157.565 136.356 157.572C136.078 157.565 135.809 157.669 135.606 157.86C135.404 158.051 135.285 158.314 135.276 158.592Z" fill="#263238"/>
<path d="M110.898 186.6V186.972H108V182.892H110.802V183.264H108.402V184.716H110.514V185.082H108.402V186.6H110.898Z" fill="#263238"/>
<path d="M116.88 185.214V187.014H116.466V185.274C116.466 184.626 116.142 184.296 115.584 184.296C115.44 184.289 115.296 184.313 115.163 184.367C115.029 184.422 114.909 184.505 114.811 184.611C114.713 184.717 114.64 184.843 114.596 184.98C114.552 185.118 114.539 185.263 114.558 185.406V187.014H114.144V185.274C114.144 184.626 113.82 184.296 113.262 184.296C113.118 184.29 112.975 184.315 112.842 184.37C112.709 184.424 112.589 184.507 112.492 184.613C112.394 184.719 112.32 184.844 112.276 184.981C112.232 185.118 112.218 185.263 112.236 185.406V187.014H111.822V183.948H112.2V184.506C112.316 184.314 112.481 184.157 112.678 184.051C112.876 183.946 113.098 183.896 113.322 183.906C113.549 183.888 113.776 183.94 113.971 184.056C114.167 184.172 114.322 184.346 114.414 184.554C114.538 184.348 114.714 184.18 114.925 184.066C115.136 183.952 115.374 183.897 115.614 183.906C115.789 183.887 115.965 183.908 116.131 183.968C116.296 184.027 116.445 184.124 116.567 184.25C116.69 184.376 116.781 184.529 116.835 184.696C116.89 184.863 116.905 185.04 116.88 185.214Z" fill="#263238"/>
<path d="M120.318 185.094V186.996H119.922V186.516C119.808 186.688 119.649 186.826 119.464 186.915C119.278 187.005 119.072 187.043 118.866 187.026C118.17 187.026 117.744 186.666 117.744 186.132C117.744 185.598 118.05 185.262 118.944 185.262H119.916V185.076C119.916 184.554 119.616 184.266 119.046 184.266C118.674 184.26 118.312 184.388 118.026 184.626L117.84 184.32C118.195 184.04 118.636 183.893 119.088 183.906C119.251 183.884 119.417 183.9 119.573 183.951C119.729 184.003 119.871 184.089 119.99 184.203C120.108 184.317 120.199 184.457 120.256 184.611C120.313 184.765 120.334 184.93 120.318 185.094ZM119.904 186.072V185.574H118.944C118.344 185.574 118.152 185.808 118.152 186.12C118.152 186.432 118.44 186.72 118.932 186.72C119.142 186.73 119.35 186.672 119.525 186.556C119.699 186.439 119.832 186.27 119.904 186.072Z" fill="#263238"/>
<path d="M121.35 182.958C121.364 182.889 121.401 182.826 121.456 182.781C121.511 182.737 121.579 182.712 121.65 182.712C121.721 182.712 121.789 182.737 121.844 182.781C121.899 182.826 121.936 182.889 121.95 182.958C121.959 183.002 121.958 183.048 121.947 183.092C121.936 183.136 121.915 183.177 121.887 183.212C121.858 183.247 121.822 183.275 121.781 183.295C121.74 183.314 121.695 183.324 121.65 183.324C121.605 183.324 121.56 183.314 121.519 183.295C121.478 183.275 121.442 183.247 121.413 183.212C121.385 183.177 121.364 183.136 121.353 183.092C121.342 183.048 121.341 183.002 121.35 182.958ZM121.44 183.93H121.854V186.996H121.44V183.93Z" fill="#263238"/>
<path d="M123 182.67H123.414V186.996H123V182.67Z" fill="#263238"/>
<path d="M109.2 209.838C109.2 210.708 108.6 211.23 107.532 211.23H106.434V212.52H106.002V208.44H107.532C108.558 208.44 109.2 208.962 109.2 209.838ZM108.768 209.838C108.768 209.184 108.336 208.812 107.52 208.812H106.434V210.852H107.52C108.324 210.852 108.756 210.48 108.756 209.838H108.768Z" fill="#263238"/>
<path d="M112.32 210.6V212.502H111.918V212.022C111.805 212.194 111.648 212.332 111.463 212.421C111.278 212.511 111.073 212.549 110.868 212.532C110.172 212.532 109.746 212.172 109.746 211.638C109.746 211.104 110.046 210.768 110.946 210.768H111.924V210.6C111.924 210.078 111.624 209.79 111.054 209.79C110.681 209.785 110.319 209.915 110.034 210.156L109.848 209.844C110.203 209.564 110.644 209.417 111.096 209.43C111.257 209.41 111.42 209.426 111.574 209.477C111.728 209.527 111.869 209.612 111.986 209.724C112.103 209.836 112.194 209.973 112.252 210.124C112.309 210.276 112.333 210.438 112.32 210.6ZM111.906 211.584V211.08H110.94C110.34 211.08 110.154 211.314 110.154 211.626C110.154 211.938 110.442 212.226 110.928 212.226C111.136 212.238 111.342 212.184 111.518 212.072C111.694 211.96 111.829 211.795 111.906 211.602V211.584Z" fill="#263238"/>
<path d="M113.016 212.172L113.202 211.842C113.52 212.07 113.903 212.191 114.294 212.19C114.894 212.19 115.116 211.992 115.116 211.686C115.116 210.888 113.124 211.518 113.124 210.306C113.124 209.802 113.556 209.43 114.324 209.43C114.706 209.422 115.082 209.522 115.41 209.718L115.23 210.048C114.962 209.87 114.646 209.778 114.324 209.784C113.772 209.784 113.526 210 113.526 210.294C113.526 211.122 115.518 210.498 115.518 211.674C115.518 212.208 115.05 212.55 114.252 212.55C113.81 212.561 113.376 212.428 113.016 212.172Z" fill="#263238"/>
<path d="M115.866 212.172L116.052 211.842C116.37 212.07 116.752 212.191 117.144 212.19C117.744 212.19 117.966 211.992 117.966 211.686C117.966 210.888 115.974 211.518 115.974 210.306C115.974 209.802 116.406 209.43 117.174 209.43C117.556 209.422 117.932 209.522 118.26 209.718L118.08 210.048C117.812 209.87 117.496 209.778 117.174 209.784C116.622 209.784 116.376 210 116.376 210.294C116.376 211.122 118.368 210.498 118.368 211.674C118.368 212.208 117.9 212.55 117.102 212.55C116.66 212.561 116.226 212.428 115.866 212.172Z" fill="#263238"/>
<path d="M123.6 209.454L122.4 212.52H122.01L121.062 210L120.096 212.514H119.706L118.548 209.448H118.95L119.91 212.052L120.894 209.448H121.254L122.232 212.052L123.204 209.448L123.6 209.454Z" fill="#263238"/>
<path d="M123.81 210.984C123.811 210.676 123.904 210.375 124.076 210.119C124.248 209.863 124.492 209.664 124.777 209.547C125.062 209.43 125.376 209.4 125.678 209.461C125.98 209.522 126.258 209.671 126.475 209.889C126.693 210.107 126.841 210.385 126.9 210.688C126.96 210.99 126.929 211.304 126.811 211.588C126.692 211.873 126.492 212.116 126.236 212.287C125.98 212.459 125.678 212.55 125.37 212.55C125.163 212.558 124.956 212.522 124.763 212.446C124.57 212.37 124.394 212.255 124.248 212.108C124.101 211.961 123.987 211.785 123.911 211.592C123.836 211.398 123.802 211.191 123.81 210.984ZM126.51 210.984C126.498 210.761 126.422 210.547 126.289 210.368C126.157 210.188 125.975 210.052 125.766 209.974C125.557 209.897 125.33 209.883 125.113 209.934C124.896 209.984 124.699 210.097 124.545 210.259C124.392 210.42 124.289 210.623 124.249 210.843C124.21 211.062 124.236 211.288 124.324 211.493C124.411 211.698 124.557 211.872 124.743 211.995C124.929 212.118 125.147 212.184 125.37 212.184C125.526 212.187 125.68 212.157 125.824 212.097C125.967 212.037 126.097 211.948 126.204 211.835C126.311 211.722 126.394 211.588 126.447 211.442C126.499 211.295 126.521 211.139 126.51 210.984Z" fill="#263238"/>
<path d="M129.318 209.43V209.832H129.216C129.069 209.824 128.923 209.849 128.787 209.905C128.651 209.961 128.53 210.046 128.431 210.154C128.332 210.263 128.259 210.392 128.216 210.532C128.173 210.673 128.162 210.821 128.184 210.966V212.526H127.8V209.46H128.196V210.06C128.3 209.856 128.462 209.687 128.661 209.575C128.861 209.463 129.09 209.412 129.318 209.43Z" fill="#263238"/>
<path d="M132.828 208.2V212.526H132.432V211.926C132.308 212.131 132.131 212.298 131.92 212.41C131.709 212.522 131.471 212.575 131.232 212.562C130.818 212.562 130.421 212.398 130.129 212.105C129.836 211.812 129.672 211.416 129.672 211.002C129.672 210.588 129.836 210.191 130.129 209.899C130.421 209.606 130.818 209.442 131.232 209.442C131.461 209.433 131.689 209.483 131.893 209.588C132.097 209.693 132.27 209.85 132.396 210.042V208.2H132.828ZM132.42 210.99C132.408 210.767 132.331 210.553 132.199 210.373C132.066 210.194 131.884 210.057 131.675 209.98C131.465 209.903 131.238 209.889 131.021 209.94C130.804 209.991 130.606 210.105 130.453 210.267C130.3 210.429 130.197 210.633 130.159 210.852C130.12 211.072 130.147 211.298 130.235 211.503C130.324 211.708 130.471 211.882 130.658 212.004C130.844 212.126 131.063 212.191 131.286 212.19C131.442 212.192 131.596 212.162 131.739 212.101C131.883 212.04 132.012 211.95 132.119 211.837C132.225 211.723 132.307 211.589 132.359 211.442C132.411 211.295 132.432 211.139 132.42 210.984V210.99Z" fill="#263238"/>
<path d="M176.4 156.798H176.826V160.512H179.118V160.884H176.4V156.798Z" fill="#263238"/>
<path d="M182.04 159V160.902H181.644V160.422C181.53 160.594 181.371 160.732 181.186 160.821C181 160.911 180.794 160.949 180.588 160.932C179.892 160.932 179.466 160.566 179.466 160.038C179.466 159.51 179.772 159.168 180.666 159.168H181.638V158.982C181.638 158.46 181.338 158.172 180.768 158.172C180.396 158.166 180.034 158.294 179.748 158.532L179.562 158.226C179.917 157.946 180.358 157.799 180.81 157.812C180.973 157.79 181.139 157.806 181.295 157.857C181.451 157.909 181.593 157.995 181.712 158.109C181.83 158.223 181.921 158.363 181.978 158.517C182.035 158.671 182.056 158.836 182.04 159ZM181.626 159.978V159.48H180.666C180.066 159.48 179.874 159.714 179.874 160.026C179.874 160.338 180.162 160.626 180.654 160.626C180.866 160.635 181.075 160.575 181.251 160.454C181.426 160.334 181.558 160.161 181.626 159.96V159.978Z" fill="#263238"/>
<path d="M182.736 160.536L182.922 160.206C183.241 160.432 183.623 160.551 184.014 160.548C184.614 160.548 184.836 160.35 184.836 160.05C184.836 159.252 182.85 159.882 182.85 158.664C182.85 158.166 183.276 157.794 184.05 157.794C184.429 157.787 184.803 157.884 185.13 158.076L184.95 158.412C184.684 158.234 184.37 158.142 184.05 158.148C183.492 158.148 183.252 158.364 183.252 158.658C183.252 159.486 185.238 158.856 185.238 160.038C185.238 160.566 184.77 160.914 183.972 160.914C183.53 160.921 183.098 160.789 182.736 160.536Z" fill="#263238"/>
<path d="M187.626 160.698C187.442 160.844 187.213 160.921 186.978 160.914C186.857 160.927 186.735 160.913 186.621 160.873C186.506 160.833 186.402 160.767 186.316 160.682C186.231 160.596 186.165 160.492 186.125 160.377C186.085 160.263 186.071 160.141 186.084 160.02V158.166H185.532V157.8H186.084V157.128H186.498V157.8H187.428V158.148H186.498V159.978C186.488 160.051 186.494 160.125 186.517 160.196C186.539 160.266 186.577 160.33 186.628 160.384C186.679 160.437 186.741 160.479 186.81 160.505C186.879 160.532 186.952 160.542 187.026 160.536C187.192 160.542 187.354 160.486 187.482 160.38L187.626 160.698Z" fill="#263238"/>
<path d="M192.726 159.102V160.902H192.312V159.162C192.332 159.034 192.322 158.903 192.283 158.779C192.245 158.655 192.178 158.541 192.089 158.447C192 158.352 191.891 158.28 191.769 158.234C191.648 158.189 191.517 158.171 191.388 158.184C191.241 158.173 191.094 158.195 190.957 158.248C190.82 158.3 190.696 158.383 190.594 158.489C190.492 158.595 190.415 158.722 190.367 158.861C190.32 159 190.304 159.148 190.32 159.294V160.902H189.906V157.8H190.302V158.4C190.425 158.205 190.597 158.047 190.802 157.941C191.007 157.836 191.236 157.787 191.466 157.8C191.637 157.791 191.809 157.818 191.969 157.881C192.129 157.944 192.273 158.04 192.393 158.164C192.512 158.287 192.604 158.435 192.661 158.597C192.719 158.758 192.741 158.931 192.726 159.102Z" fill="#263238"/>
<path d="M196.164 159V160.902H195.768V160.422C195.654 160.594 195.496 160.732 195.31 160.822C195.124 160.912 194.918 160.95 194.712 160.932C194.016 160.932 193.59 160.566 193.59 160.038C193.59 159.51 193.896 159.168 194.79 159.168H195.762V158.982C195.762 158.46 195.462 158.172 194.892 158.172C194.52 158.166 194.158 158.294 193.872 158.532L193.686 158.226C194.041 157.947 194.482 157.8 194.934 157.812C195.097 157.79 195.263 157.806 195.419 157.857C195.575 157.909 195.717 157.995 195.836 158.109C195.954 158.223 196.045 158.363 196.102 158.517C196.159 158.671 196.18 158.836 196.164 159ZM195.75 159.978V159.48H194.79C194.19 159.48 193.998 159.714 193.998 160.026C193.998 160.338 194.286 160.626 194.778 160.626C194.99 160.635 195.199 160.575 195.375 160.454C195.55 160.334 195.682 160.161 195.75 159.96V159.978Z" fill="#263238"/>
<path d="M202.35 159.102V160.902H201.936V159.162C201.936 158.514 201.612 158.184 201.054 158.184C200.91 158.177 200.766 158.201 200.633 158.255C200.499 158.31 200.379 158.393 200.281 158.499C200.183 158.605 200.11 158.731 200.066 158.868C200.022 159.006 200.009 159.151 200.028 159.294V160.902H199.614V159.162C199.614 158.514 199.29 158.184 198.726 158.184C198.582 158.178 198.439 158.203 198.306 158.257C198.173 158.312 198.053 158.395 197.956 158.501C197.858 158.607 197.784 158.732 197.74 158.869C197.696 159.006 197.682 159.151 197.7 159.294V160.902H197.286V157.8H197.682V158.4C197.798 158.207 197.964 158.049 198.163 157.944C198.362 157.838 198.585 157.788 198.81 157.8C199.037 157.782 199.263 157.835 199.458 157.951C199.654 158.067 199.809 158.241 199.902 158.448C200.025 158.241 200.201 158.072 200.412 157.958C200.624 157.844 200.862 157.789 201.102 157.8C201.274 157.785 201.448 157.809 201.61 157.87C201.772 157.931 201.918 158.027 202.037 158.152C202.157 158.277 202.247 158.427 202.301 158.592C202.356 158.756 202.372 158.93 202.35 159.102Z" fill="#263238"/>
<path d="M206.154 159.48H203.586C203.606 159.779 203.743 160.059 203.968 160.257C204.193 160.456 204.486 160.558 204.786 160.542C204.963 160.549 205.139 160.516 205.302 160.447C205.465 160.377 205.61 160.272 205.728 160.14L205.962 160.41C205.742 160.642 205.459 160.804 205.147 160.876C204.835 160.947 204.509 160.925 204.21 160.811C203.911 160.697 203.652 160.498 203.466 160.238C203.281 159.977 203.176 159.668 203.166 159.348C203.155 159.146 203.186 158.943 203.257 158.753C203.328 158.564 203.437 158.39 203.578 158.245C203.719 158.099 203.888 157.984 204.075 157.906C204.262 157.829 204.463 157.79 204.666 157.794C204.868 157.79 205.069 157.828 205.255 157.906C205.442 157.984 205.61 158.099 205.75 158.245C205.89 158.391 205.998 158.565 206.068 158.754C206.137 158.944 206.166 159.146 206.154 159.348C206.16 159.384 206.154 159.432 206.154 159.48ZM203.586 159.168H205.764C205.744 158.893 205.62 158.636 205.418 158.449C205.216 158.261 204.951 158.157 204.675 158.157C204.399 158.157 204.134 158.261 203.932 158.449C203.73 158.636 203.606 158.893 203.586 159.168Z" fill="#263238"/>
<path d="M99.6 207.852C99.5713 207.724 99.5533 207.593 99.546 207.462C99.5497 207.145 99.4755 206.832 99.33 206.55C99.2156 206.348 99.0567 206.175 98.8654 206.044C98.6741 205.913 98.4554 205.828 98.226 205.794C97.949 205.757 97.6672 205.799 97.4133 205.916C97.1595 206.033 96.944 206.219 96.792 206.454C96.6597 206.655 96.5812 206.886 96.564 207.126C96.564 207.378 96.564 207.618 96.564 207.858L96.42 207.708C97.4897 207.702 98.5591 207.75 99.624 207.852C98.5602 207.969 97.4901 208.019 96.42 208.002H96.27V207.852C96.27 207.612 96.27 207.378 96.27 207.102C96.2863 206.811 96.3795 206.529 96.54 206.286C96.7229 206.001 96.985 205.776 97.2942 205.639C97.6034 205.501 97.9461 205.457 98.28 205.512C98.5489 205.555 98.8034 205.663 99.0217 205.826C99.24 205.989 99.4158 206.202 99.534 206.448C99.6884 206.775 99.7366 207.142 99.672 207.498C99.648 207.756 99.6 207.87 99.6 207.852Z" fill="#23662A"/>
<path d="M98.562 211.752C98.4494 211.525 98.3531 211.29 98.274 211.05V210.984L98.34 210.936C98.4355 210.861 98.5004 210.754 98.5225 210.635C98.5446 210.515 98.5224 210.392 98.46 210.288C98.4286 210.223 98.3824 210.166 98.3251 210.122C98.2678 210.078 98.2009 210.048 98.1299 210.034C98.0588 210.021 97.9856 210.024 97.9161 210.044C97.8467 210.064 97.7828 210.1 97.7298 210.149C97.6767 210.198 97.6359 210.259 97.6107 210.327C97.5855 210.395 97.5765 210.467 97.5845 210.539C97.5925 210.611 97.6172 210.68 97.6567 210.741C97.6963 210.801 97.7494 210.852 97.812 210.888L97.908 210.942L97.878 211.044L97.698 211.758L97.584 211.614C97.9182 211.63 98.2509 211.668 98.58 211.728C98.2564 211.82 97.9202 211.861 97.584 211.848H97.44V211.692C97.488 211.452 97.53 211.212 97.572 210.966L97.638 211.122C97.5425 211.064 97.4611 210.985 97.3997 210.891C97.3383 210.798 97.2985 210.692 97.283 210.581C97.2675 210.47 97.2767 210.358 97.3101 210.251C97.3435 210.144 97.4001 210.046 97.476 209.964C97.5592 209.871 97.6644 209.801 97.7819 209.761C97.8994 209.72 98.0253 209.709 98.148 209.73C98.2607 209.748 98.3678 209.791 98.4614 209.857C98.5549 209.922 98.6324 210.008 98.688 210.108C98.7785 210.271 98.8021 210.463 98.754 210.643C98.7059 210.823 98.5897 210.978 98.43 211.074L98.478 210.96C98.5551 211.216 98.5836 211.485 98.562 211.752Z" fill="#23662A"/>
<path d="M100.05 207.858C100.137 207.841 100.227 207.841 100.314 207.858C100.532 207.924 100.726 208.05 100.875 208.222C101.024 208.394 101.12 208.605 101.154 208.83C101.154 209.04 101.154 209.244 101.154 209.478C101.154 209.952 101.154 210.474 101.154 211.05C101.154 211.344 101.154 211.65 101.154 211.962C101.177 212.304 101.165 212.648 101.118 212.988C101.065 213.178 100.969 213.354 100.837 213.501C100.705 213.648 100.54 213.762 100.356 213.834C100.166 213.91 99.9607 213.943 99.756 213.93H99.156H96.756H96.12C95.9357 213.939 95.7515 213.909 95.5797 213.841C95.408 213.773 95.2526 213.67 95.1238 213.538C94.995 213.406 94.8957 213.248 94.8327 213.074C94.7696 212.901 94.7442 212.716 94.758 212.532C94.758 211.608 94.758 210.732 94.758 209.832V209.19C94.7394 208.96 94.768 208.73 94.842 208.512C94.9231 208.296 95.0605 208.106 95.2399 207.962C95.4193 207.817 95.6341 207.723 95.862 207.69L95.742 207.828C95.742 207.54 95.742 207.282 95.742 206.988C95.7698 206.706 95.8534 206.433 95.988 206.184C96.2709 205.706 96.726 205.354 97.26 205.2C97.6624 205.054 98.0994 205.034 98.5138 205.141C98.9281 205.248 99.3005 205.478 99.582 205.8C99.7644 206.001 99.9046 206.237 99.9943 206.494C100.084 206.751 100.121 207.023 100.104 207.294C100.098 207.483 100.08 207.671 100.05 207.858C100.02 207.673 100.008 207.487 100.014 207.3C100.011 206.784 99.8116 206.288 99.456 205.914C99.2438 205.69 98.9815 205.521 98.6908 205.418C98.4001 205.316 98.0892 205.285 97.7839 205.326C97.4786 205.368 97.1875 205.482 96.9347 205.658C96.682 205.834 96.4747 206.068 96.33 206.34C96.2144 206.56 96.1431 206.8 96.12 207.048C96.12 207.294 96.12 207.594 96.12 207.87V207.99H96C95.8239 208.018 95.6584 208.092 95.5203 208.205C95.3822 208.318 95.2765 208.465 95.214 208.632C95.1556 208.826 95.1352 209.03 95.154 209.232V209.874C95.154 210.744 95.154 211.674 95.154 212.574C95.1372 212.767 95.1764 212.961 95.2668 213.132C95.3572 213.303 95.4952 213.445 95.664 213.54C95.8304 213.627 96.0162 213.67 96.204 213.666H99.252C99.609 213.7 99.969 213.679 100.32 213.606C100.465 213.549 100.594 213.459 100.699 213.344C100.803 213.228 100.879 213.09 100.92 212.94C100.964 212.624 100.98 212.305 100.968 211.986C100.968 211.674 100.968 211.386 100.968 211.074C100.968 210.474 100.968 209.976 100.968 209.502C100.968 209.274 100.968 209.046 100.968 208.866C100.953 208.697 100.897 208.535 100.806 208.392C100.624 208.131 100.357 207.942 100.05 207.858Z" fill="#23662A"/>
<path d="M102.672 187.902C102.654 187.748 102.644 187.594 102.642 187.44C102.642 187.116 102.642 186.696 102.6 186.186C102.57 185.082 102.534 183.564 102.486 181.734L102.612 181.86L93.468 181.98L93.6 181.8V182.604C93.6 182.874 93.6 183.144 93.6 183.414C93.6 183.948 93.6 184.476 93.6 184.992C93.6 186.018 93.6 187.014 93.6 187.95L93.456 187.812C96.12 187.812 98.388 187.812 100.002 187.812H101.898C102.132 187.806 102.367 187.816 102.6 187.842C102.389 187.871 102.177 187.883 101.964 187.878L100.098 187.938C98.49 187.98 96.186 188.034 93.456 188.07H93.318V187.926C93.318 186.984 93.318 185.994 93.282 184.962C93.282 184.446 93.282 183.918 93.282 183.384C93.282 183.12 93.282 182.85 93.282 182.58V181.77L93.438 181.608L102.582 181.548H102.708V181.674C102.708 183.534 102.708 185.076 102.708 186.204C102.708 186.702 102.708 187.11 102.708 187.404C102.718 187.571 102.706 187.738 102.672 187.902Z" fill="#23662A"/>
<path d="M102.6 181.734C102.216 182.129 101.792 182.483 101.334 182.79C100.53 183.39 99.408 184.248 98.154 185.154H97.944L97.884 185.112L97.764 185.028L97.53 184.866L97.074 184.548L96.216 183.948L94.77 182.904C94.3104 182.601 93.8805 182.256 93.486 181.872C93.9822 182.11 94.4544 182.395 94.896 182.724L96.378 183.714L97.248 184.314L97.71 184.632L97.944 184.794L98.058 184.872L98.118 184.914H98.148H97.98C99.234 184.008 100.38 183.198 101.22 182.622C101.652 182.285 102.114 181.988 102.6 181.734Z" fill="#23662A"/>
<path d="M93.708 187.986C94.085 187.253 94.5548 186.571 95.106 185.958C95.5768 185.277 96.1312 184.659 96.756 184.116C96.3788 184.852 95.9068 185.536 95.352 186.15C94.8831 186.828 94.3308 187.445 93.708 187.986Z" fill="#23662A"/>
<path d="M99.738 184.116C100.343 184.645 100.878 185.25 101.328 185.916C101.861 186.519 102.313 187.188 102.672 187.908C102.066 187.38 101.532 186.774 101.082 186.108C100.548 185.506 100.096 184.836 99.738 184.116Z" fill="#23662A"/>
<path d="M214.242 228.894H89.64C88.7585 228.894 88.044 229.608 88.044 230.49V246.78C88.044 247.661 88.7585 248.376 89.64 248.376H214.242C215.123 248.376 215.838 247.661 215.838 246.78V230.49C215.838 229.608 215.123 228.894 214.242 228.894Z" fill="#23662A"/>
<g opacity="0.3">
<path d="M214.242 228.894H89.64C88.7585 228.894 88.044 229.608 88.044 230.49V246.78C88.044 247.661 88.7585 248.376 89.64 248.376H214.242C215.123 248.376 215.838 247.661 215.838 246.78V230.49C215.838 229.608 215.123 228.894 214.242 228.894Z" fill="black"/>
</g>
<path d="M214.242 226.182H89.64C88.7585 226.182 88.044 226.896 88.044 227.778V244.068C88.044 244.949 88.7585 245.664 89.64 245.664H214.242C215.123 245.664 215.838 244.949 215.838 244.068V227.778C215.838 226.896 215.123 226.182 214.242 226.182Z" fill="#23662A"/>
<path d="M141.15 236.34C141.146 236.059 141.2 235.78 141.309 235.52C141.417 235.26 141.577 235.025 141.779 234.83C141.982 234.634 142.222 234.482 142.485 234.383C142.748 234.283 143.029 234.239 143.31 234.252C143.599 234.24 143.888 234.291 144.156 234.401C144.424 234.511 144.666 234.677 144.864 234.888L144.486 235.254C144.269 235.024 143.988 234.865 143.68 234.796C143.371 234.728 143.049 234.754 142.756 234.871C142.462 234.987 142.21 235.189 142.033 235.451C141.855 235.712 141.76 236.021 141.76 236.337C141.76 236.653 141.855 236.962 142.033 237.223C142.21 237.485 142.462 237.687 142.756 237.803C143.049 237.92 143.371 237.946 143.68 237.878C143.988 237.809 144.269 237.65 144.486 237.42L144.864 237.786C144.665 237.999 144.423 238.166 144.154 238.277C143.885 238.388 143.595 238.439 143.304 238.428C143.023 238.44 142.743 238.395 142.481 238.295C142.218 238.196 141.979 238.043 141.777 237.848C141.576 237.652 141.416 237.418 141.308 237.159C141.2 236.899 141.146 236.621 141.15 236.34Z" fill="white"/>
<path d="M148.422 238.38L147.54 237.126H147.288H146.274V238.368H145.674V234.288H147.27C148.326 234.288 148.968 234.822 148.968 235.71C148.982 235.993 148.901 236.273 148.74 236.506C148.578 236.74 148.344 236.913 148.074 237L149.04 238.368L148.422 238.38ZM148.422 235.722C148.422 235.122 148.032 234.81 147.288 234.81H146.292V236.646H147.288C148.014 236.646 148.404 236.304 148.404 235.722H148.422Z" fill="white"/>
<path d="M152.892 237.876V238.38H149.928V234.3H152.808V234.81H150.51V236.064H152.562V236.556H150.51V237.876H152.892Z" fill="white"/>
<path d="M156.438 237.36H154.266L153.816 238.38H153.216L155.064 234.3H155.664L157.518 238.38H156.918L156.438 237.36ZM156.234 236.898L155.352 234.894L154.47 236.898H156.234Z" fill="white"/>
<path d="M158.706 234.81H157.308V234.3H160.686V234.81H159.282V238.38H158.682L158.706 234.81Z" fill="white"/>
<path d="M164.28 237.876V238.38H161.316V234.3H164.196V234.81H161.898V236.064H163.944V236.556H161.898V237.876H164.28Z" fill="white"/>
<path d="M133.614 114.325C150.098 97.841 150.098 71.1151 133.614 54.6311C117.13 38.147 90.4039 38.147 73.9199 54.6311C57.4359 71.1151 57.4359 97.841 73.9199 114.325C90.4039 130.809 117.13 130.809 133.614 114.325Z" fill="#E0E0E0"/>
<path d="M127.95 27.4262C127.212 28.3524 126.762 29.4747 126.655 30.6542C126.548 31.8337 126.79 33.0186 127.35 34.0622C127.878 35.0102 128.682 35.8622 128.802 36.9362C129 38.6822 127.308 40.2542 127.602 41.9942C127.788 43.1942 128.802 44.0162 129.354 45.0782C129.695 45.7689 129.833 46.5423 129.751 47.3083C129.669 48.0742 129.371 48.8011 128.892 49.4042C128.124 50.3402 126.918 50.9342 126.42 52.0442C126.048 52.8602 126.138 53.8442 125.82 54.6662C125.537 55.3098 125.092 55.869 124.528 56.2896C123.964 56.7102 123.302 56.9777 122.604 57.0662C121.201 57.2347 119.78 57.1555 118.404 56.8322L118.71 55.3142C118.45 55.7173 118.095 56.0509 117.677 56.2862C117.259 56.5214 116.79 56.6512 116.31 56.6642C115.349 56.6833 114.392 56.5414 113.478 56.2442C112.908 53.6702 112.35 50.9522 113.154 48.4442C113.886 46.1882 115.614 44.4242 117.054 42.5402C118.653 40.4485 119.933 38.1313 120.852 35.6642C121.512 33.8942 121.986 32.0642 122.91 30.3842C123.834 28.7042 125.31 27.2522 127.158 26.8982" fill="#263238"/>
<path d="M155.4 62.8801L147.048 63.4801L146.964 61.3321C146.853 60.2677 147.106 59.1971 147.684 58.2961C147.776 58.1375 147.843 57.9654 147.882 57.7861C147.942 57.1501 147.006 53.9581 146.682 52.7881C146.274 51.3841 147.072 50.6401 147.384 51.2161C147.948 52.2661 149.442 56.7721 149.91 57.2161C150.378 57.6601 150.108 55.3021 150.108 55.3021C149.376 50.3401 149.058 49.6201 149.94 49.4341C150.954 49.2181 152.07 56.6041 152.07 56.6041C152.07 56.6041 151.92 55.5721 152.712 55.3621C153.504 55.1521 153.87 56.1661 153.87 56.1661C153.768 55.6441 154.518 55.5661 154.518 55.5661C156.39 55.8241 155.418 62.9461 155.418 62.9461L147.066 63.5461L143.064 91.4761L138.792 84.9301L127.644 92.8861L137.694 104.886C138.567 105.925 139.665 106.751 140.906 107.301C142.146 107.851 143.496 108.111 144.852 108.06C147.069 107.98 149.176 107.073 150.759 105.519C152.342 103.965 153.287 101.875 153.408 99.6601L155.4 62.8801Z" fill="#EB996E"/>
<path d="M148.866 62.958C148.83 62.916 149.274 62.526 149.868 61.794C150.213 61.3656 150.526 60.9124 150.804 60.438C150.97 60.1578 151.123 59.8694 151.26 59.574C151.429 59.2979 151.527 58.9849 151.548 58.662C151.546 58.587 151.522 58.5144 151.479 58.4526C151.437 58.3909 151.377 58.3428 151.308 58.314C151.144 58.2864 150.975 58.3138 150.828 58.392C150.5 58.5463 150.188 58.7332 149.898 58.95C149.429 59.3049 149.023 59.7371 148.698 60.228L148.602 60.366L148.53 60.222C148.358 59.9126 148.135 59.6346 147.87 59.4C147.87 59.4 148.326 59.508 148.716 60.156H148.548C148.855 59.6195 149.263 59.147 149.748 58.764C150.051 58.5287 150.379 58.3275 150.726 58.164C150.939 58.0511 151.186 58.0171 151.422 58.068C151.549 58.1127 151.66 58.1932 151.742 58.2996C151.824 58.4061 151.873 58.534 151.884 58.668C151.873 59.054 151.761 59.4305 151.56 59.76C151.414 60.0586 151.252 60.349 151.074 60.63C150.778 61.1117 150.438 61.5655 150.06 61.986C149.718 62.3728 149.314 62.7011 148.866 62.958Z" fill="#D1734A"/>
<path d="M152.172 57.0001C152.223 57.5108 152.223 58.0253 152.172 58.5361C152.172 59.0401 152.118 59.5981 152.082 60.1921C152.058 60.5076 152.058 60.8245 152.082 61.1401C152.082 61.4341 152.364 61.6861 152.574 61.5661C152.784 61.4461 152.904 61.0861 152.994 60.7681C153.084 60.4501 153.156 60.1321 153.222 59.8261C153.354 59.2261 153.45 58.6621 153.54 58.2001C153.599 57.6899 153.718 57.1885 153.894 56.7061C153.893 57.2191 153.847 57.7311 153.756 58.2361C153.696 58.7041 153.624 59.2621 153.504 59.8861C153.45 60.1921 153.378 60.5161 153.288 60.8521C153.259 61.0496 153.191 61.2395 153.088 61.4106C152.985 61.5816 152.849 61.7303 152.688 61.8481C152.578 61.8981 152.456 61.9141 152.337 61.8937C152.219 61.8734 152.109 61.8177 152.022 61.7341C151.869 61.5891 151.775 61.3924 151.758 61.1821C151.739 60.8457 151.751 60.5082 151.794 60.1741C151.854 59.5821 151.908 59.0301 151.956 58.5181C151.975 58.0059 152.048 57.4972 152.172 57.0001Z" fill="#D1734A"/>
<path d="M153.6 59.1302C153.648 59.1302 153.528 59.4782 153.564 60.0182C153.575 60.316 153.664 60.6057 153.822 60.8582C153.924 60.9602 153.996 60.9662 154.092 60.8582C154.2 60.6952 154.292 60.5224 154.368 60.3422C154.749 59.3955 155.048 58.4179 155.262 57.4202C155.356 58.4745 155.148 59.5337 154.662 60.4742C154.576 60.684 154.469 60.885 154.344 61.0742C154.3 61.1311 154.244 61.1774 154.179 61.2096C154.115 61.2417 154.044 61.259 153.972 61.2602C153.903 61.2576 153.836 61.2401 153.775 61.209C153.714 61.178 153.66 61.134 153.618 61.0802C153.498 60.9204 153.422 60.7323 153.396 60.5342C153.365 60.3761 153.351 60.2152 153.354 60.0542C153.336 59.4302 153.546 59.1122 153.6 59.1302Z" fill="#D1734A"/>
<path d="M118.428 111.636L119.208 123.78C95.454 132.882 77.808 117.78 77.808 117.78L81.36 106.914L81.96 87.9421L77.4 93.0001L75.246 91.2001L64.38 82.1521L62.046 80.2021L73.344 68.2801C87.63 52.9021 98.748 57.6001 98.748 57.6001L115.452 59.1661C115.452 59.1661 127.008 60.8041 132.6 70.9321C137.154 79.1761 142.11 87.9061 142.11 87.9061L127.794 98.1061L123.24 89.7421L118.428 111.636Z" fill="#455A64"/>
<path d="M61.56 84.318C61.56 85.032 61.56 85.74 61.602 86.46C61.7006 89.2772 62.0825 92.0773 62.742 94.818V94.896C62.826 95.238 62.922 95.574 63.018 95.91C63.39 97.23 63.882 98.394 64.35 99.672C64.41 99.834 64.47 99.99 64.536 100.152C66.048 99.756 70.062 95.952 74.964 90.99L64.086 81.918C62.688 83.442 62.028 84.138 61.56 84.318Z" fill="#EB996E"/>
<path d="M113.934 60.7442C114.534 56.6042 115.212 52.2602 115.212 52.2602C115.212 52.2602 120.666 52.1102 122.73 45.3062C124.698 38.8142 125.73 23.3402 125.73 23.3402C122.155 21.2979 118.041 20.3976 113.94 20.76C109.839 21.1225 105.947 22.7305 102.786 25.3682L98.586 59.0582C98.1 62.9642 101.076 66.4982 105.27 66.9902C109.5 67.4822 113.4 64.6862 113.934 60.7442Z" fill="#EB996E"/>
<path d="M122.094 35.034C122.064 35.267 121.944 35.4792 121.761 35.6259C121.577 35.7725 121.344 35.8421 121.11 35.82C120.995 35.8132 120.882 35.7834 120.779 35.7324C120.675 35.6813 120.583 35.6101 120.508 35.5228C120.432 35.4356 120.375 35.3341 120.339 35.2244C120.304 35.1147 120.29 34.9989 120.3 34.884C120.331 34.652 120.452 34.4413 120.635 34.2959C120.818 34.1505 121.051 34.0817 121.284 34.104C121.399 34.1108 121.511 34.1404 121.614 34.1911C121.717 34.2417 121.809 34.3124 121.884 34.399C121.96 34.4856 122.017 34.5863 122.053 34.6954C122.089 34.8044 122.103 34.9195 122.094 35.034Z" fill="#263238"/>
<path d="M123.678 34.2361C123.552 34.3381 122.946 33.7441 121.986 33.6361C121.026 33.5281 120.252 33.8941 120.186 33.7621C120.12 33.6301 120.282 33.5041 120.618 33.3241C121.074 33.0947 121.589 33.0109 122.094 33.084C122.595 33.1525 123.061 33.3772 123.426 33.726C123.672 33.966 123.738 34.2001 123.678 34.2361Z" fill="#263238"/>
<path d="M112.242 33.8521C112.212 34.0847 112.092 34.2964 111.909 34.4421C111.725 34.5878 111.491 34.656 111.258 34.6322C111.143 34.6261 111.031 34.5971 110.927 34.5467C110.824 34.4963 110.731 34.4256 110.656 34.3388C110.58 34.2521 110.523 34.151 110.487 34.0416C110.452 33.9322 110.438 33.8168 110.448 33.7021C110.478 33.4691 110.598 33.2569 110.781 33.1102C110.965 32.9636 111.198 32.894 111.432 32.9162C111.547 32.9237 111.659 32.9541 111.762 33.0054C111.865 33.0566 111.957 33.1279 112.033 33.215C112.108 33.302 112.165 33.4032 112.201 33.5126C112.237 33.6219 112.251 33.7374 112.242 33.8521Z" fill="#263238"/>
<path d="M113.61 33.2041C113.484 33.3061 112.878 32.7121 111.918 32.6041C110.958 32.4961 110.184 32.8561 110.118 32.7241C110.052 32.5921 110.214 32.4721 110.55 32.2921C111.006 32.0631 111.521 31.9794 112.026 32.0521C112.528 32.1161 112.995 32.3414 113.358 32.6941C113.598 32.9341 113.67 33.1621 113.61 33.2041Z" fill="#263238"/>
<path d="M116.112 40.8001C116.641 40.7113 117.179 40.6891 117.714 40.7341C117.96 40.7341 118.2 40.7341 118.266 40.5661C118.318 40.315 118.295 40.0543 118.2 39.8161C118.05 39.2161 117.894 38.5321 117.732 37.8481C117.09 35.0521 116.664 32.7661 116.778 32.7361C116.892 32.7061 117.504 34.9621 118.14 37.7581C118.296 38.4481 118.44 39.1021 118.578 39.7321C118.692 40.0482 118.692 40.3941 118.578 40.7101C118.531 40.7915 118.466 40.8613 118.388 40.9142C118.31 40.9672 118.221 41.002 118.128 41.0161C117.987 41.0343 117.843 41.0343 117.702 41.0161C117.165 41.0097 116.631 40.9371 116.112 40.8001Z" fill="#263238"/>
<path d="M115.2 52.2602C111.908 51.8638 108.792 50.5591 106.2 48.4922C106.2 48.4922 107.802 53.5802 114.852 53.8922L115.2 52.2602Z" fill="#D1734A"/>
<path d="M118.518 21.1921C118.968 22.2901 118.26 23.5921 117.258 24.1921C116.201 24.7399 115.043 25.0666 113.856 25.1521C112.667 25.2455 111.53 25.6787 110.58 26.4001C108.948 27.8821 109.38 30.0001 107.73 31.9261C107.346 32.4673 106.818 32.8902 106.207 33.1468C105.595 33.4034 104.923 33.4836 104.268 33.3781C102.948 33.1921 101.238 33.4981 100.572 35.0221C99.906 36.5461 100.71 37.6681 101.448 39.0661C102.186 40.4641 101.988 41.8981 101.568 43.4281C101.268 44.5321 100.32 45.3961 100.11 46.5241C99.774 48.3241 101.31 50.3281 100.272 51.8041C99.234 53.2801 96.6 52.6261 95.442 54.0001C95.022 54.4861 94.782 55.2001 94.164 55.3921C93.7797 55.4461 93.3883 55.3746 93.048 55.1881L87.648 52.9021C87.786 52.3441 87.93 51.7801 88.074 51.2221C87.6749 51.6315 87.184 51.9399 86.642 52.1218C86.1 52.3038 85.5225 52.3541 84.9572 52.2685C84.3919 52.1828 83.8551 51.9638 83.3913 51.6295C82.9275 51.2952 82.55 50.8553 82.29 50.3461C83.4214 49.6889 84.4691 48.8972 85.41 47.9881C86.3389 47.0627 86.9034 45.8337 87 44.5261C87.054 42.9421 86.196 41.3401 86.676 39.8341C87.366 37.6801 90.276 37.1401 91.56 35.2921C92.76 33.5641 92.358 31.0561 93.6 29.3461C95.046 27.3661 98.1 27.2761 99.756 25.4641C100.878 24.2641 101.136 22.4641 101.952 21.0061C103.009 19.2922 104.66 18.0277 106.59 17.4541C108.507 16.8946 110.505 16.6613 112.5 16.7641C113.997 16.6936 115.489 16.9924 116.844 17.6341C118.146 18.3601 119.13 19.8481 118.824 21.3121" fill="#263238"/>
<path d="M104.268 33.3961C103.546 33.1335 102.764 33.0774 102.012 33.2341C101.636 33.3116 101.279 33.4628 100.962 33.6791C100.645 33.8953 100.373 34.1724 100.164 34.4941C99.78 35.1668 99.6643 35.9597 99.84 36.7141C100.02 37.4624 100.364 38.1613 100.848 38.7601C101.158 39.2092 101.569 39.5792 102.048 39.8401C102.291 39.9714 102.564 40.0401 102.84 40.0401C103.117 40.0401 103.389 39.9714 103.632 39.8401" fill="#EB996E"/>
<path d="M103.236 37.848C103.32 37.89 102.93 38.298 102.276 38.016C101.935 37.8483 101.671 37.5563 101.538 37.2C101.387 36.7874 101.32 36.3489 101.34 35.91C101.348 35.4429 101.523 34.994 101.832 34.644C101.963 34.4951 102.126 34.3782 102.309 34.3023C102.492 34.2263 102.69 34.1934 102.888 34.206C103.59 34.284 103.74 34.806 103.662 34.806C103.584 34.806 103.362 34.572 102.888 34.614C102.594 34.6844 102.335 34.8571 102.157 35.1012C101.979 35.3452 101.893 35.6447 101.916 35.946C101.916 36.726 102.09 37.464 102.474 37.698C102.858 37.932 103.2 37.8 103.236 37.848Z" fill="#D1734A"/>
<path d="M118.542 21.6C118.269 22.3503 118.263 23.1721 118.525 23.9263C118.787 24.6806 119.302 25.3212 119.982 25.74C120.762 26.19 121.722 26.34 122.382 26.94C122.996 27.6067 123.354 28.4701 123.39 29.376C123.421 30.2723 123.589 31.1585 123.888 32.004C124.052 32.4211 124.346 32.7745 124.726 33.0121C125.107 33.2497 125.553 33.359 126 33.324L127.506 28.878C128.058 27.246 128.616 25.5 128.22 23.814C127.656 21.414 125.28 19.842 122.904 19.188C121.816 18.8013 120.625 18.8119 119.544 19.218C118.512 19.704 117.81 21.018 118.344 22.038" fill="#263238"/>
<path d="M89.58 53.6221C89.58 53.6221 89.724 53.5141 89.934 53.2441C90.2195 52.8413 90.3896 52.3683 90.426 51.8761C90.4524 51.0897 90.4083 50.3025 90.294 49.5241C90.2426 49.0195 90.2916 48.5097 90.438 48.0241C90.6097 47.4801 90.8985 46.9804 91.284 46.5601C92.07 45.6661 93.168 44.9701 94.116 44.0161C94.6177 43.5431 94.9913 42.9506 95.202 42.2941C95.3788 41.5849 95.3993 40.8459 95.262 40.1281C95.148 39.3721 94.956 38.6041 94.86 37.7941C94.7396 36.9529 94.8219 36.095 95.1 35.2921C95.401 34.4495 95.9114 33.6974 96.5832 33.1065C97.2549 32.5155 98.066 32.1052 98.94 31.9141C100.704 31.5241 102.54 31.7641 103.98 31.0201C104.681 30.6405 105.236 30.039 105.558 29.3101C105.867 28.5943 106.122 27.8562 106.32 27.1021C106.515 26.3627 106.812 25.6539 107.202 24.9961C107.605 24.3759 108.187 23.8926 108.87 23.6101C110.093 23.1981 111.392 23.0608 112.674 23.2081C113.709 23.3095 114.754 23.2488 115.77 23.0281C116.529 22.848 117.23 22.4762 117.804 21.9481C118.129 21.5765 118.338 21.1174 118.404 20.6281C118.464 20.2981 118.464 20.1121 118.482 20.1181C118.501 20.2916 118.501 20.4666 118.482 20.6401C118.431 21.155 118.221 21.6415 117.882 22.0321C117.303 22.597 116.585 22.9986 115.8 23.1961C114.769 23.4391 113.705 23.5161 112.65 23.4241C111.402 23.2936 110.14 23.4391 108.954 23.8501C108.322 24.1162 107.787 24.5682 107.418 25.1461C107.046 25.7843 106.763 26.4707 106.578 27.1861C106.379 27.9562 106.122 28.7103 105.81 29.4421C105.634 29.8249 105.403 30.1805 105.126 30.4981C104.834 30.8189 104.489 31.0868 104.106 31.2901C102.51 32.0881 100.68 31.8361 98.988 32.2201C98.1711 32.4064 97.4143 32.7954 96.7873 33.3511C96.1602 33.9069 95.6832 34.6115 95.4 35.4001C95.135 36.1582 95.0548 36.9687 95.166 37.7641C95.256 38.5501 95.442 39.3181 95.556 40.0921C95.6987 40.8505 95.6721 41.6311 95.478 42.3781C95.2465 43.0659 94.8463 43.6847 94.314 44.1781C93.324 45.1561 92.226 45.8341 91.458 46.6861C91.1044 47.0574 90.8342 47.5001 90.6656 47.9844C90.4969 48.4686 90.4336 48.9834 90.48 49.4941C90.5848 50.2896 90.6109 51.0934 90.558 51.8941C90.5067 52.4031 90.3133 52.8876 90 53.2921C89.8821 53.4276 89.7396 53.5396 89.58 53.6221Z" fill="#455A64"/>
<path d="M121.74 57.1141C121.84 57.0139 121.935 56.9077 122.022 56.7961C122.244 56.456 122.368 56.0618 122.382 55.6561C122.43 55.1281 122.292 54.4561 122.328 53.7001C122.433 52.8128 122.801 51.9771 123.384 51.3001C123.942 50.5261 124.686 49.7221 124.884 48.6421C125.082 47.5621 124.62 46.4041 124.392 45.1441C124.259 44.4813 124.286 43.7965 124.47 43.1461C124.693 42.4975 125.006 41.8835 125.4 41.3221C125.784 40.7221 126.21 40.1821 126.54 39.5701C126.9 38.9694 127.106 38.2893 127.14 37.5901C127.112 36.8911 126.88 36.2156 126.474 35.6461C126.063 35.0597 125.73 34.4223 125.484 33.7501C125.076 32.3521 125.394 30.9841 125.484 29.7421C125.55 29.143 125.537 28.538 125.448 27.9421C125.36 27.3832 125.138 26.854 124.8 26.4001C124.123 25.6232 123.291 24.9958 122.358 24.5581C121.572 24.1833 120.825 23.7332 120.126 23.2141C119.589 22.8193 119.137 22.3191 118.8 21.7441C118.592 21.3765 118.47 20.9659 118.446 20.5441C118.435 20.3994 118.445 20.2538 118.476 20.1121C118.476 20.1121 118.476 20.2621 118.512 20.5381C118.559 20.9426 118.694 21.3318 118.908 21.6781C119.25 22.2222 119.694 22.6949 120.216 23.0701C120.917 23.5679 121.662 23.9997 122.442 24.3601C123.416 24.7971 124.286 25.4374 124.992 26.2381C125.365 26.7163 125.614 27.2788 125.718 27.8761C125.817 28.4991 125.835 29.1324 125.772 29.7601C125.688 31.0261 125.394 32.3701 125.772 33.6541C126.014 34.2927 126.336 34.8977 126.732 35.4541C127.173 36.0703 127.421 36.803 127.446 37.5601C127.412 38.3123 127.191 39.0443 126.804 39.6901C126.456 40.3261 126.03 40.8901 125.652 41.4901C125.265 42.0314 124.958 42.6255 124.74 43.2541C124.563 43.8583 124.534 44.4963 124.656 45.1141C124.86 46.3141 125.346 47.5141 125.118 48.7141C125.002 49.2639 124.775 49.7844 124.452 50.2441C124.152 50.6881 123.852 51.0781 123.546 51.4441C122.98 52.0789 122.611 52.8649 122.484 53.7061C122.43 54.4501 122.55 55.1161 122.484 55.6621C122.455 56.0836 122.305 56.4879 122.052 56.8261C121.972 56.9453 121.865 57.0439 121.74 57.1141Z" fill="#455A64"/>
<path d="M83.454 50.8081C83.454 50.8081 83.652 50.8081 84.024 50.8501C84.5677 50.8616 85.1077 50.7573 85.608 50.5441C86.4096 50.217 87.1008 49.6674 87.6 48.9601C88.2363 48.0154 88.6072 46.9171 88.674 45.7801C88.818 44.5201 88.5 43.1521 88.464 41.6221C88.4223 40.8202 88.5985 40.0219 88.974 39.3121C89.4727 38.627 90.1211 38.0647 90.87 37.6681C91.6164 37.2797 92.2242 36.6698 92.61 35.9221C92.8853 35.0802 93.0151 34.1976 92.994 33.3121C93.0037 32.3571 93.1866 31.4117 93.534 30.5221C93.7226 30.0604 93.9975 29.6389 94.344 29.2801C94.732 28.9367 95.2115 28.7137 95.724 28.6381C96.72 28.4641 97.686 28.5661 98.616 28.4641C99.5185 28.3991 100.369 28.0164 101.016 27.3841C101.637 26.7536 102.148 26.0235 102.528 25.2241C102.93 24.4441 103.242 23.6401 103.626 22.8721C103.982 22.1158 104.436 21.4098 104.976 20.7721C105.49 20.1535 106.168 19.6919 106.932 19.4401C107.655 19.2329 108.423 19.2329 109.146 19.4401C109.794 19.6237 110.427 19.8605 111.036 20.1481C112.041 20.6882 113.138 21.0361 114.27 21.1741C115.13 21.216 115.989 21.0834 116.796 20.7841C117.485 20.526 118.131 20.1638 118.71 19.7101C118.582 19.8531 118.439 19.9819 118.284 20.0941C117.841 20.4276 117.355 20.6982 116.838 20.8981C116.02 21.2245 115.144 21.3777 114.264 21.3481C113.107 21.2268 111.984 20.8889 110.952 20.3521C110.351 20.0716 109.727 19.8447 109.086 19.6741C108.408 19.4791 107.688 19.4791 107.01 19.6741C106.295 19.9187 105.661 20.3569 105.18 20.9401C104.662 21.5656 104.226 22.2553 103.884 22.9921C103.158 24.4801 102.594 26.2561 101.226 27.5941C100.875 27.9319 100.469 28.2078 100.026 28.4101C99.5778 28.6021 99.1018 28.7216 98.616 28.7641C97.65 28.8661 96.678 28.7641 95.748 28.9321C95.3024 29.0018 94.886 29.1975 94.548 29.4961C94.2319 29.827 93.9797 30.2135 93.804 30.6361C93.4768 31.4931 93.3022 32.4008 93.288 33.3181C93.3066 34.2391 93.1666 35.1565 92.874 36.0301C92.4628 36.8301 91.8127 37.4823 91.014 37.8961C90.3065 38.2694 89.6915 38.7963 89.214 39.4381C88.8596 40.1052 88.6917 40.8556 88.728 41.6101C88.728 43.0861 89.058 44.4961 88.902 45.8101C88.8162 46.9796 88.4184 48.1046 87.75 49.0681C87.2261 49.7864 86.5079 50.3401 85.68 50.6641C85.1625 50.8721 84.6045 50.9604 84.048 50.9221C83.8459 50.91 83.6462 50.8716 83.454 50.8081Z" fill="#455A64"/>
<path d="M127.548 27.936C127.499 27.3326 127.329 26.7451 127.05 26.208C126.721 25.643 126.287 25.1461 125.772 24.744C125.129 24.2617 124.43 23.8588 123.69 23.544C122.904 23.178 122.13 22.854 121.464 22.482C120.863 22.1573 120.308 21.7537 119.814 21.282C119.482 20.9635 119.204 20.5925 118.992 20.184C118.898 20.0422 118.84 19.8794 118.824 19.71C119.138 20.2295 119.522 20.7039 119.964 21.12C120.465 21.5444 121.015 21.9071 121.602 22.2C122.256 22.548 123.024 22.86 123.822 23.226C124.584 23.5615 125.302 23.9908 125.958 24.504C126.492 24.9364 126.929 25.476 127.242 26.088C127.457 26.5006 127.58 26.9551 127.602 27.42C127.622 27.5938 127.603 27.77 127.548 27.936Z" fill="#455A64"/>
<path d="M114 30.816C113.94 30.888 113.73 30.816 113.4 30.714C112.957 30.6118 112.504 30.5595 112.05 30.558C111.594 30.5529 111.139 30.6013 110.694 30.702C110.352 30.78 110.142 30.87 110.094 30.804C110.046 30.738 110.172 30.504 110.538 30.294C111.01 30.0532 111.532 29.9277 112.062 29.9277C112.592 29.9277 113.114 30.0532 113.586 30.294C113.898 30.522 114.03 30.762 114 30.816Z" fill="#263238"/>
<path d="M122.736 31.9981C122.706 32.1661 122.082 32.2201 121.332 32.1121C120.582 32.0041 120 31.8001 120 31.6021C120 31.4041 120.654 31.3861 121.404 31.4941C122.154 31.6021 122.76 31.8301 122.736 31.9981Z" fill="#263238"/>
<path d="M101.736 39.6479C101.736 39.6479 101.796 39.6899 101.886 39.7979C102.015 39.9557 102.124 40.129 102.21 40.3139C102.52 41.0017 102.613 41.7682 102.474 42.5099C102.279 43.5896 101.917 44.6322 101.4 45.5999C101.113 46.1536 101.02 46.7873 101.136 47.3999C101.348 48.0432 101.638 48.6578 102 49.2299C102.363 49.8309 102.522 50.5332 102.452 51.2318C102.383 51.9304 102.09 52.5879 101.616 53.1059C101.212 53.5677 100.676 53.8944 100.08 54.0419C99.5765 54.1464 99.0642 54.2027 98.55 54.2099C97.8282 54.1902 97.1152 54.3731 96.492 54.7379C96.2783 54.8939 96.09 55.0822 95.934 55.2959C95.934 55.2959 95.934 55.2179 96.012 55.0979C96.1163 54.9203 96.255 54.7653 96.42 54.6419C97.0375 54.222 97.7673 53.9982 98.514 53.9999C99.0129 53.9781 99.5089 53.9119 99.996 53.8019C100.543 53.6577 101.033 53.35 101.4 52.9199C101.802 52.4512 102.061 51.8761 102.144 51.2639C102.21 50.6033 102.063 49.939 101.724 49.3679C101.353 48.7698 101.061 48.1265 100.854 47.4539C100.735 46.7867 100.841 46.0989 101.154 45.4979C101.412 44.8979 101.694 44.4239 101.868 43.9139C102.047 43.447 102.183 42.9651 102.276 42.4739C102.425 41.7689 102.369 41.036 102.114 40.3619C101.904 39.8879 101.712 39.6659 101.736 39.6479Z" fill="#263238"/>
<path d="M129.6 55.8C129.48 55.8552 129.348 55.8799 129.216 55.872C129.025 55.8602 128.838 55.8101 128.667 55.7245C128.496 55.6389 128.344 55.5197 128.22 55.374C128.014 55.1497 127.862 54.8809 127.777 54.5885C127.692 54.2961 127.675 53.9879 127.728 53.688C127.915 52.9132 128.319 52.2078 128.892 51.6539C129.577 51.0295 130.182 50.3221 130.692 49.548C130.936 49.1085 131.054 48.6103 131.034 48.108C130.999 47.5726 130.873 47.0472 130.662 46.5539C130.123 45.4868 129.642 44.3912 129.222 43.272C129.036 42.6374 129.036 41.9626 129.222 41.3279C129.459 40.7149 129.759 40.1278 130.116 39.576C130.458 39.0602 130.595 38.4354 130.5 37.824C130.338 37.2424 130.018 36.717 129.576 36.306C129.162 35.862 128.706 35.448 128.322 34.974C127.935 34.5089 127.657 33.9638 127.506 33.378C127.272 32.3006 127.288 31.1839 127.554 30.114C127.764 29.118 128.052 28.218 128.232 27.384C128.61 26.0712 128.543 24.6702 128.04 23.4C127.831 22.9548 127.547 22.5489 127.2 22.2C127.2 22.2 127.2 22.2 127.284 22.254C127.362 22.309 127.434 22.3713 127.5 22.44C127.774 22.7171 127.993 23.0426 128.148 23.4C128.406 23.9367 128.562 24.5164 128.61 25.11C128.664 25.8926 128.603 26.6789 128.43 27.444C128.256 28.29 127.986 29.196 127.788 30.18C127.551 31.2125 127.551 32.2854 127.788 33.318C127.922 33.8625 128.179 34.3693 128.538 34.8C128.904 35.25 129.354 35.652 129.786 36.108C130.267 36.5517 130.617 37.118 130.8 37.746C130.905 38.4285 130.758 39.1259 130.386 39.708C130.034 40.2406 129.736 40.8075 129.498 41.4C129.325 41.9875 129.325 42.6124 129.498 43.2C129.909 44.3077 130.377 45.3932 130.902 46.452C131.124 46.9776 131.252 47.5381 131.28 48.108C131.298 48.6572 131.166 49.201 130.896 49.68C130.366 50.4658 129.739 51.1815 129.03 51.81C128.474 52.3271 128.075 52.9904 127.878 53.724C127.819 54.0001 127.826 54.2863 127.897 54.5593C127.969 54.8324 128.105 55.0848 128.292 55.296C128.515 55.5806 128.84 55.7677 129.198 55.818C129.468 55.8 129.6 55.764 129.6 55.8Z" fill="#263238"/>
<path d="M153.144 63.8881C152.753 63.3816 152.318 62.9117 151.842 62.4841C151.306 62.1383 150.742 61.8373 150.156 61.5841C150.497 61.5634 150.838 61.6106 151.161 61.7229C151.483 61.8351 151.78 62.0102 152.034 62.2381C152.321 62.4234 152.568 62.6653 152.759 62.9489C152.949 63.2326 153.081 63.5521 153.144 63.8881Z" fill="#D1734A"/>
<path d="M144.198 96.7682C143.767 95.9136 143.473 94.9963 143.328 94.0502C143.086 93.1208 142.999 92.1579 143.07 91.2002C143.309 92.1171 143.498 93.0465 143.634 93.9842C143.877 94.9002 144.066 95.8298 144.198 96.7682Z" fill="#D1734A"/>
<path d="M105.936 90.0422C106.988 89.6914 107.915 89.0403 108.601 88.1693C109.288 87.2982 109.705 86.2452 109.8 85.1402C110.124 82.0142 108 79.2362 105.126 78.9302C102.252 78.6242 99.606 80.9222 99.282 84.0482C99.1486 85.1591 99.3463 86.2847 99.8501 87.2838C100.354 88.2828 101.141 89.1109 102.114 89.6642C97.614 89.8982 95.436 92.6642 94.374 95.1362C96.0379 97.4787 98.4893 99.1442 101.28 99.8282L104.52 100.164C107.431 100.064 110.205 98.9032 112.32 96.9002C111.786 94.2662 110.22 91.1402 105.936 90.0422Z" fill="white"/>
<g opacity="0.3">
<path d="M82.008 87.9421L84.672 85.1941C84.672 85.1941 83.52 105.054 82.734 107.442C81.948 109.83 77.832 117.78 77.832 117.78L81.384 106.914L82.008 87.9421Z" fill="black"/>
</g>
<path d="M87.906 81.828C87.966 81.888 85.626 84.426 82.674 87.498C79.722 90.57 77.274 93.018 77.208 92.958C77.142 92.898 79.494 90.36 82.446 87.282C85.398 84.204 87.846 81.768 87.906 81.828Z" fill="#263238"/>
<path d="M125.148 80.2742C125.159 80.4747 125.149 80.6758 125.118 80.8742C125.082 81.2702 125.016 81.8462 124.92 82.5602C124.728 83.9762 124.404 85.9322 123.96 88.0682C123.516 90.2042 123.03 92.1302 122.64 93.5102C122.442 94.2002 122.274 94.7522 122.148 95.1362C122.101 95.346 122.024 95.5481 121.92 95.7362C121.936 95.533 121.972 95.332 122.028 95.1362C122.142 94.6802 122.268 94.1342 122.424 93.4922C122.76 92.1002 123.21 90.1802 123.654 88.0442C124.098 85.9082 124.452 83.9702 124.704 82.5602C124.818 81.9122 124.914 81.3602 124.998 80.8922C125.019 80.6801 125.069 80.4721 125.148 80.2742Z" fill="#263238"/>
<path d="M113.07 42.42C113.205 42.3048 113.363 42.2192 113.534 42.1685C113.704 42.1179 113.883 42.1033 114.059 42.1257C114.236 42.1481 114.405 42.2071 114.558 42.2988C114.71 42.3905 114.841 42.513 114.943 42.6584C115.046 42.8038 115.116 42.9689 115.151 43.1431C115.186 43.3174 115.184 43.4971 115.146 43.6706C115.107 43.8441 115.033 44.0076 114.927 44.1508C114.822 44.2939 114.688 44.4136 114.534 44.502C114.377 44.5861 114.204 44.6367 114.026 44.6507C113.849 44.6646 113.67 44.6416 113.502 44.5831C113.333 44.5246 113.179 44.4319 113.048 44.3108C112.918 44.1896 112.814 44.0427 112.742 43.8793C112.671 43.7159 112.635 43.5396 112.635 43.3614C112.636 43.1832 112.673 43.007 112.745 42.8439C112.817 42.6809 112.922 42.5345 113.053 42.4141C113.185 42.2936 113.339 42.2016 113.508 42.144" fill="#23662A"/>
<path d="M113.196 41.082C113.352 41.082 113.196 42.138 114 42.996C114.804 43.854 115.92 43.902 115.908 44.046C115.896 44.19 115.632 44.214 115.158 44.16C114.546 44.0865 113.98 43.7971 113.562 43.344C113.163 42.91 112.947 42.3377 112.962 41.748C112.974 41.304 113.124 41.064 113.196 41.082Z" fill="#263238"/>
<path d="M99.882 25.542C100.569 24.6927 101.011 23.672 101.16 22.59C101.164 21.816 100.886 21.0669 100.378 20.4828C99.8703 19.8987 99.1671 19.5195 98.4 19.416C97.6252 19.3616 96.8554 19.5768 96.2211 20.0251C95.5869 20.4735 95.1272 21.1274 94.92 21.876C94.757 22.6359 94.8441 23.4281 95.1686 24.1343C95.493 24.8405 96.0373 25.4227 96.72 25.794C97.4172 26.1367 98.2026 26.2577 98.9706 26.1408C99.7386 26.0239 100.452 25.6746 101.016 25.14" fill="#263238"/>
<path d="M101.256 22.428C101.338 23.2111 101.124 23.9965 100.656 24.63C100.271 25.3181 99.6413 25.8363 98.892 26.082C99.4461 25.5924 99.9487 25.0476 100.392 24.456C100.749 23.8113 101.038 23.1318 101.256 22.428Z" fill="#455A64"/>
<path d="M99.408 25.8001C99.4319 24.6751 99.2986 23.5523 99.012 22.4641C98.63 21.3948 98.0987 20.3848 97.434 19.4641C97.434 19.4641 97.77 19.6741 98.166 20.1661C98.6805 20.812 99.0693 21.5488 99.312 22.3381C99.5601 23.125 99.6617 23.9506 99.612 24.7741C99.6203 25.127 99.5506 25.4773 99.408 25.8001Z" fill="#455A64"/>
<path d="M120.564 135.546C128.978 135.546 135.798 128.725 135.798 120.312C135.798 111.898 128.978 105.078 120.564 105.078C112.151 105.078 105.33 111.898 105.33 120.312C105.33 128.725 112.151 135.546 120.564 135.546Z" fill="#23662A"/>
<g opacity="0.3">
<path d="M120.564 135.546C128.978 135.546 135.798 128.725 135.798 120.312C135.798 111.898 128.978 105.078 120.564 105.078C112.151 105.078 105.33 111.898 105.33 120.312C105.33 128.725 112.151 135.546 120.564 135.546Z" fill="black"/>
</g>
<path d="M120.564 132.72C128.978 132.72 135.798 125.899 135.798 117.486C135.798 109.072 128.978 102.252 120.564 102.252C112.151 102.252 105.33 109.072 105.33 117.486C105.33 125.899 112.151 132.72 120.564 132.72Z" fill="#23662A"/>
<path d="M120.564 126.498C120.132 126.498 119.778 122.46 119.778 117.498C119.778 112.536 120.132 108.498 120.564 108.498C120.996 108.498 121.344 112.536 121.344 117.498C121.344 122.46 120.99 126.498 120.564 126.498Z" fill="white"/>
<path d="M129.6 117.486C129.6 117.918 125.568 118.266 120.6 118.266C115.632 118.266 111.6 117.918 111.6 117.486C111.6 117.054 115.632 116.706 120.6 116.706C125.568 116.706 129.6 117.054 129.6 117.486Z" fill="white"/>
</svg>
