<svg width="201" height="200" viewBox="0 0 201 200" fill="none" xmlns="http://www.w3.org/2000/svg">
<path d="M139.336 45.7831L36.3973 56.6206L50.2105 187.823L153.15 176.986L139.336 45.7831Z" fill="#E0E0E0"/>
<path d="M143.263 48.5898L41.3513 63.8752L59.3481 183.865L161.26 168.58L143.263 48.5898Z" fill="#EBEBEB"/>
<path d="M183.348 59.424C183.348 59.424 179.3 56.756 174.396 66.4C169.492 76.044 167.616 81.6 167.616 81.6C167.616 81.6 166.316 83.6 164.928 82.3C163.54 81 161.636 77.228 159.276 77.9C156.828 78.6 156.02 81.332 156.476 85.348C156.932 89.364 157.644 98.196 157.704 98.996C157.764 99.796 157.304 100.936 156.224 100.196C155.144 99.456 148.86 92.464 145.724 95.64C142.588 98.816 145.724 109.784 146.048 110.992C146.372 112.2 146.132 112.712 145.556 112.992C144.98 113.272 143.096 110.744 141.232 108.832C139.368 106.92 136.868 105.028 135.212 107.008C133.556 108.988 133.028 117.224 140.86 130.608L144.9 136.58L152.1 136.18C167.492 134.384 173.748 129.004 174.332 126.484C174.916 123.964 171.904 123.116 169.252 122.776C166.6 122.436 163.432 122.468 163.324 121.832C163.216 121.196 163.488 120.696 164.644 120.232C165.8 119.768 176.448 115.66 177.092 111.244C177.736 106.828 168.384 106.044 167.128 105.608C165.872 105.172 166.528 104.136 167.188 103.708C167.848 103.28 175.336 98.508 178.824 96.468C182.312 94.428 184.004 92.136 183.092 89.76C182.208 87.468 178.068 88.208 176.176 87.896C174.284 87.584 175.116 85.328 175.116 85.328C175.116 85.328 178.44 80.488 183.18 70.752C187.92 61.016 183.24 59.38 183.24 59.38" fill="#E0E0E0"/>
<path d="M178.932 68.0562C178.932 68.0562 178.904 68.1282 178.84 68.2642L178.56 68.8682L177.456 71.2002C176.496 73.2002 175.084 76.1002 173.328 79.6682C169.816 86.8002 164.9 96.6042 159.404 107.428C153.908 118.252 148.964 128.068 145.404 135.184L141.212 143.62L140.1 145.912L139.796 146.508C139.728 146.64 139.688 146.704 139.688 146.704C139.688 146.704 139.716 146.632 139.776 146.496L140.06 145.892L141.164 143.584C142.124 141.584 143.532 138.684 145.288 135.116C148.8 127.98 153.732 118.16 159.216 107.328C164.7 96.4962 169.652 86.6962 173.216 79.5762C174.98 76.0202 176.416 73.1442 177.404 71.1402C177.896 70.1522 178.28 69.3802 178.548 68.8482L178.848 68.2562C178.9 68.1242 178.932 68.0562 178.932 68.0562Z" fill="#EBEBEB"/>
<path d="M161.724 83.2761C161.805 83.4309 161.866 83.5947 161.908 83.7641C162.012 84.0801 162.148 84.5641 162.308 85.1201C162.636 86.2721 163.044 87.8721 163.464 89.6441C163.884 91.4161 164.24 92.9801 164.524 94.1921C164.656 94.7361 164.764 95.1961 164.852 95.5681C164.903 95.7337 164.938 95.9038 164.956 96.0761C164.875 95.9211 164.812 95.7574 164.768 95.5881C164.664 95.2721 164.528 94.8081 164.368 94.2321C164.052 93.0761 163.664 91.4721 163.244 89.6961C162.824 87.9201 162.444 86.3681 162.152 85.1601C162.02 84.6161 161.908 84.1561 161.816 83.7881C161.77 83.6206 161.739 83.4492 161.724 83.2761Z" fill="#EBEBEB"/>
<path d="M165.62 96.2042C165.62 96.1442 168.864 95.1562 172.904 93.9922C176.944 92.8282 180.236 91.9402 180.252 91.9922C180.268 92.0442 177.008 93.0442 172.968 94.2042C168.928 95.3642 165.636 96.2642 165.62 96.2042Z" fill="#EBEBEB"/>
<path d="M156.448 112.452C156.624 112.424 156.802 112.416 156.98 112.428H158.424C159.644 112.428 161.328 112.428 163.184 112.356C165.04 112.284 166.724 112.168 167.936 112.072L169.376 111.96C169.553 111.938 169.731 111.938 169.908 111.96C169.738 112.009 169.564 112.043 169.388 112.06C169.048 112.112 168.56 112.176 167.952 112.244C166.752 112.384 165.056 112.528 163.192 112.596C161.328 112.664 159.644 112.648 158.42 112.596C157.812 112.572 157.32 112.548 156.976 112.52C156.798 112.516 156.621 112.493 156.448 112.452Z" fill="#EBEBEB"/>
<path d="M150.356 101.532C150.464 101.654 150.558 101.788 150.636 101.932C150.824 102.24 151.056 102.624 151.332 103.072C151.912 104.04 152.384 105.7 153.556 106.872C154.412 108.364 155.18 109.72 155.724 110.708C155.972 111.168 156.184 111.564 156.36 111.88C156.447 112.02 156.516 112.17 156.564 112.328C156.456 112.206 156.362 112.072 156.284 111.928C156.092 111.621 155.86 111.241 155.588 110.788C155.008 109.824 154.22 108.48 153.364 106.988C152.508 105.496 151.74 104.14 151.196 103.156L150.56 102C150.471 101.854 150.403 101.696 150.356 101.532Z" fill="#EBEBEB"/>
<path d="M140.436 114.848C140.571 115.01 140.69 115.184 140.792 115.368L141.688 116.824C142.44 118.06 143.46 119.776 144.58 121.676C145.7 123.576 146.696 125.304 147.412 126.556C147.748 127.16 148.032 127.66 148.248 128.052C148.358 128.23 148.451 128.418 148.528 128.612C148.394 128.451 148.274 128.279 148.172 128.096L147.276 126.636C146.524 125.404 145.504 123.688 144.388 121.788C143.272 119.888 142.268 118.16 141.552 116.904C141.216 116.304 140.936 115.8 140.716 115.412C140.607 115.233 140.513 115.044 140.436 114.848Z" fill="#EBEBEB"/>
<path d="M148.428 128.228C148.65 128.195 148.875 128.179 149.1 128.18L150.932 128.124C152.476 128.068 154.612 127.988 156.964 127.836C159.316 127.684 161.448 127.492 162.988 127.34L164.812 127.164C165.034 127.131 165.259 127.118 165.484 127.124C165.267 127.181 165.047 127.222 164.824 127.248C164.396 127.316 163.772 127.404 163.004 127.496C161.468 127.688 159.34 127.896 156.98 128.056C154.62 128.216 152.484 128.268 150.932 128.28C150.16 128.28 149.532 128.28 149.1 128.28C148.875 128.285 148.65 128.267 148.428 128.228Z" fill="#EBEBEB"/>
<path d="M28.868 125.232C29.5805 124.87 30.3588 124.656 31.1562 124.602C31.9535 124.549 32.7534 124.657 33.508 124.92C35.0193 125.455 36.3877 126.329 37.508 127.476C39.724 129.62 41.108 132.888 41.908 135.876C38.548 136.548 35.072 134.62 33.372 133.532C30.68 131.812 26.86 127.072 28.872 125.24" fill="#23662A"/>
<path d="M47.744 136.572C46.9462 136.175 46.2673 135.575 45.7757 134.832C45.2841 134.089 44.9972 133.23 44.944 132.34C44.9048 131.448 45.0435 130.558 45.3518 129.72C45.6601 128.882 46.132 128.114 46.74 127.46C47.292 126.848 48.024 126.288 48.844 126.328C49.2279 126.371 49.5935 126.515 49.9035 126.746C50.2134 126.976 50.4566 127.285 50.608 127.64C50.8996 128.358 50.9948 129.141 50.884 129.908C50.632 132.536 49.908 135.032 47.764 136.572" fill="#23662A"/>
<path d="M53.172 144.928C53.0106 144.791 52.8632 144.638 52.732 144.472L51.572 143.188C50.62 142.092 49.228 140.56 48.332 138.48C47.5384 136.718 47.2265 134.778 47.428 132.856C47.4928 132.279 47.6271 131.713 47.828 131.168C47.8831 131.02 47.9459 130.874 48.016 130.732C48.06 130.636 48.088 130.584 48.096 130.588C47.8447 131.331 47.6691 132.098 47.572 132.876C47.422 134.77 47.7551 136.67 48.54 138.4C49.412 140.44 50.768 141.976 51.692 143.096C52.16 143.656 52.544 144.108 52.796 144.428C52.9369 144.582 53.0628 144.75 53.172 144.928Z" fill="#263238"/>
<path d="M32.1 128.584C32.1842 128.625 32.2645 128.673 32.34 128.728L32.992 129.172C33.56 129.572 34.372 130.136 35.368 130.852C37.368 132.288 40.092 134.308 43.052 136.608C46.012 138.908 48.652 141.052 50.536 142.628C51.476 143.428 52.232 144.06 52.752 144.512L53.344 145.036C53.48 145.16 53.548 145.224 53.54 145.232C53.4605 145.186 53.3855 145.132 53.316 145.072L52.696 144.58L50.436 142.752C48.5 141.2 45.868 139.084 42.9 136.8C39.932 134.516 37.228 132.464 35.26 130.996L32.928 129.26L32.296 128.78C32.2233 128.722 32.1575 128.657 32.1 128.584Z" fill="#263238"/>
<path d="M46.5 141.252C44.8374 140.366 42.9878 139.889 41.1043 139.86C39.2207 139.831 37.3573 140.25 35.668 141.084C34.816 141.516 33.916 142.244 33.992 143.196C34.068 144.148 35.08 144.728 35.992 145C37.9212 145.528 39.9636 145.473 41.8615 144.842C43.7594 144.21 45.4278 143.031 46.656 141.452" fill="#23662A"/>
<path d="M38.228 142.528C38.3919 142.414 38.5676 142.317 38.752 142.24C38.959 142.129 39.1728 142.032 39.392 141.948C39.6764 141.825 39.9675 141.718 40.264 141.628C40.6195 141.507 40.9813 141.405 41.348 141.324C41.7691 141.226 42.195 141.15 42.624 141.096C43.6102 140.986 44.6058 140.986 45.592 141.096C46.5773 141.219 47.5451 141.455 48.476 141.8C48.8859 141.953 49.2866 142.129 49.676 142.328C50.0135 142.498 50.3419 142.685 50.66 142.888C50.96 143.06 51.196 143.264 51.42 143.42C51.6104 143.557 51.792 143.705 51.964 143.864C52.1202 143.984 52.2649 144.117 52.396 144.264C52.36 144.304 51.74 143.716 50.576 143.008C50.2589 142.815 49.9318 142.639 49.596 142.48C49.2136 142.29 48.821 142.122 48.42 141.976C47.5024 141.648 46.5512 141.423 45.584 141.304C44.6134 141.2 43.6346 141.2 42.664 141.304C42.2407 141.352 41.8201 141.421 41.404 141.512C41.004 141.58 40.652 141.692 40.324 141.78C39.004 142.172 38.248 142.572 38.228 142.528Z" fill="#263238"/>
<path d="M150.34 156.94C147.54 155.14 146.532 152.832 146.092 149.532C145.884 147.877 146.033 146.196 146.529 144.602C147.025 143.009 147.857 141.541 148.968 140.296C150.832 138.24 153.448 136.836 154.804 134.412C156.244 131.828 156.06 128.412 158.116 126.272C159.532 124.812 161.664 124.356 163.408 123.316C164.836 122.468 165.988 121.24 167.28 120.204C168.572 119.168 170.124 118.288 171.78 118.348C174.28 118.44 176.316 120.812 176.528 123.304C176.74 125.796 175.444 128.236 173.6 129.928C172.264 131.152 170.596 132.116 169.752 133.724C168.152 136.736 170.1 140.768 168.384 143.724C167.132 145.872 164.148 146.992 163.824 149.46C163.704 150.368 163.996 151.276 164.024 152.192C164.112 155.052 161.528 157.456 158.732 158.072C155.936 158.688 153.032 157.916 150.332 156.952" fill="#455A64"/>
<path d="M166.768 128.604C166.687 128.725 166.595 128.837 166.492 128.94L165.648 129.848C165.276 130.248 164.82 130.716 164.328 131.3C163.836 131.884 163.228 132.5 162.644 133.276C162.06 134.052 161.372 134.84 160.724 135.768C160.4 136.232 160.036 136.688 159.708 137.196L158.688 138.748C157.217 141.078 155.923 143.516 154.816 146.04C153.739 148.577 152.863 151.194 152.196 153.868C151.912 155.108 151.636 156.268 151.476 157.404C151.316 158.54 151.156 159.56 151.048 160.516C150.94 161.472 150.904 162.34 150.84 163.104C150.776 163.868 150.772 164.524 150.764 165.064C150.756 165.604 150.744 165.984 150.736 166.304C150.739 166.449 150.727 166.594 150.7 166.736C150.673 166.594 150.662 166.449 150.668 166.304C150.668 165.984 150.648 165.572 150.632 165.06C150.616 164.548 150.604 163.86 150.632 163.096C150.66 162.332 150.672 161.452 150.788 160.492C150.904 159.532 150.976 158.492 151.188 157.356C151.4 156.22 151.588 155.044 151.88 153.796C152.539 151.099 153.415 148.46 154.5 145.904C155.615 143.363 156.927 140.913 158.424 138.576L159.46 137.024C159.796 136.52 160.164 136.06 160.496 135.6C161.16 134.676 161.844 133.868 162.46 133.124C163.076 132.38 163.66 131.744 164.184 131.172C164.708 130.6 165.164 130.132 165.552 129.756C165.94 129.38 166.212 129.112 166.444 128.892C166.542 128.785 166.651 128.689 166.768 128.604Z" fill="#263238"/>
<path d="M152.836 55.6599H49.784V176.992H152.836V55.6599Z" fill="#FAFAFA"/>
<path d="M152.84 176.992C152.84 176.192 152.8 127.956 152.744 55.6599L152.84 55.7519H49.796L49.9 55.6479C49.9 100.448 49.9 142.172 49.9 176.98L49.812 176.892L152.868 176.98L49.812 177.068H49.7V176.98C49.7 142.18 49.7 100.444 49.7 55.6479V55.5439H49.816H152.86H152.952V55.6399C152.876 127.956 152.84 176.188 152.84 176.992Z" fill="#263238"/>
<path d="M107.128 75.488H105.128L104.696 76.4521H104.296L105.944 72.8521H106.32L107.968 76.4521H107.568L107.128 75.488ZM106.992 75.18L106.124 73.244L105.26 75.2L106.992 75.18Z" fill="black"/>
<path d="M110.932 72.6279V76.4519H110.58V75.9159C110.471 76.0936 110.317 76.2391 110.134 76.3376C109.95 76.436 109.744 76.4837 109.536 76.4759C109.183 76.4569 108.851 76.3035 108.609 76.0471C108.366 75.7908 108.23 75.4511 108.23 75.0979C108.23 74.7448 108.366 74.4051 108.609 74.1487C108.851 73.8924 109.183 73.7389 109.536 73.7199C109.739 73.7152 109.939 73.7618 110.119 73.8555C110.299 73.9493 110.452 74.087 110.564 74.2559V72.6279H110.932ZM110.568 75.0959C110.559 74.8987 110.491 74.7086 110.375 74.5492C110.258 74.3898 110.098 74.2681 109.913 74.1992C109.728 74.1304 109.526 74.1174 109.334 74.1618C109.142 74.2063 108.967 74.3063 108.831 74.4494C108.695 74.5925 108.604 74.7724 108.569 74.9667C108.534 75.1611 108.557 75.3614 108.635 75.5427C108.713 75.724 108.843 75.8784 109.008 75.9867C109.173 76.095 109.367 76.1525 109.564 76.1519C109.701 76.1539 109.837 76.1275 109.963 76.0744C110.089 76.0213 110.203 75.9427 110.297 75.8436C110.391 75.7444 110.464 75.6267 110.511 75.4981C110.557 75.3694 110.577 75.2325 110.568 75.0959Z" fill="black"/>
<path d="M114.424 72.6279V76.4519H114.072V75.9159C113.963 76.0936 113.809 76.2391 113.626 76.3376C113.442 76.436 113.236 76.4837 113.028 76.4759C112.675 76.4569 112.343 76.3035 112.101 76.0471C111.858 75.7908 111.722 75.4511 111.722 75.0979C111.722 74.7448 111.858 74.4051 112.101 74.1487C112.343 73.8924 112.675 73.7389 113.028 73.7199C113.231 73.7152 113.431 73.7618 113.611 73.8555C113.791 73.9493 113.944 74.087 114.056 74.2559V72.6279H114.424ZM114.06 75.0959C114.051 74.8987 113.983 74.7086 113.867 74.5492C113.75 74.3898 113.59 74.2681 113.405 74.1992C113.22 74.1304 113.018 74.1174 112.826 74.1618C112.634 74.2063 112.459 74.3063 112.323 74.4494C112.187 74.5925 112.096 74.7724 112.061 74.9667C112.026 75.1611 112.049 75.3614 112.127 75.5427C112.205 75.724 112.335 75.8784 112.5 75.9867C112.665 76.095 112.859 76.1525 113.056 76.1519C113.193 76.1539 113.329 76.1275 113.455 76.0744C113.581 76.0213 113.695 75.9427 113.789 75.8436C113.883 75.7444 113.956 75.6267 114.003 75.4981C114.049 75.3694 114.069 75.2325 114.06 75.0959Z" fill="black"/>
<path d="M119.232 73.74V76.452H118.9V75.956C118.801 76.1229 118.658 76.2595 118.486 76.3511C118.315 76.4427 118.122 76.4859 117.928 76.476C117.772 76.4914 117.615 76.4717 117.468 76.4183C117.321 76.365 117.187 76.2793 117.078 76.1677C116.968 76.056 116.884 75.9212 116.834 75.7731C116.783 75.6251 116.766 75.4675 116.784 75.312V73.74H117.152V75.276C117.152 75.852 117.448 76.148 117.952 76.148C118.08 76.1546 118.209 76.1333 118.328 76.0853C118.447 76.0373 118.554 75.964 118.642 75.8703C118.73 75.7766 118.797 75.6649 118.837 75.5429C118.877 75.421 118.891 75.2916 118.876 75.164V73.74H119.232Z" fill="black"/>
<path d="M119.88 76.1439L120.044 75.8519C120.325 76.0529 120.663 76.1594 121.008 76.1559C121.524 76.1559 121.736 75.9839 121.736 75.7159C121.736 75.0079 119.976 75.5639 119.976 74.5159C119.976 74.0719 120.376 73.7399 121.048 73.7399C121.385 73.7358 121.717 73.8228 122.008 73.9919L121.848 74.2879C121.611 74.1309 121.332 74.05 121.048 74.0559C120.56 74.0559 120.344 74.2479 120.344 74.5039C120.344 75.2359 122.1 74.6839 122.1 75.7039C122.1 76.1719 121.7 76.4759 120.984 76.4759C120.59 76.4872 120.203 76.3707 119.88 76.1439Z" fill="black"/>
<path d="M125.136 75.2H122.868C122.876 75.3322 122.909 75.4615 122.967 75.5804C123.025 75.6994 123.106 75.8057 123.206 75.8931C123.305 75.9806 123.421 76.0474 123.546 76.0898C123.671 76.1322 123.804 76.1493 123.936 76.14C124.092 76.1452 124.247 76.116 124.39 76.0544C124.533 75.9929 124.661 75.9006 124.764 75.784L124.968 76.024C124.837 76.1701 124.676 76.2853 124.495 76.3614C124.315 76.4374 124.12 76.4725 123.924 76.464C123.738 76.4753 123.552 76.4476 123.377 76.3827C123.202 76.3179 123.043 76.2173 122.909 76.0874C122.776 75.9576 122.671 75.8013 122.601 75.6285C122.531 75.4557 122.498 75.2703 122.504 75.084C122.494 74.9049 122.521 74.7255 122.583 74.557C122.644 74.3885 122.74 74.2344 122.863 74.1041C122.987 73.9737 123.135 73.8699 123.3 73.799C123.465 73.728 123.643 73.6914 123.822 73.6914C124.001 73.6914 124.179 73.728 124.344 73.799C124.509 73.8699 124.657 73.9737 124.781 74.1041C124.904 74.2344 125 74.3885 125.061 74.557C125.123 74.7255 125.15 74.9049 125.14 75.084C125.14 75.128 125.136 75.168 125.136 75.2ZM122.868 74.924H124.788C124.766 74.6846 124.656 74.4619 124.478 74.2998C124.3 74.1377 124.068 74.0478 123.828 74.0478C123.588 74.0478 123.356 74.1377 123.178 74.2998C123 74.4619 122.89 74.6846 122.868 74.924Z" fill="black"/>
<path d="M127.252 73.72V74.076H127.164C127.035 74.0693 126.906 74.0914 126.786 74.1406C126.666 74.1898 126.559 74.2649 126.472 74.3605C126.385 74.4562 126.32 74.5699 126.282 74.6936C126.244 74.8173 126.234 74.9479 126.252 75.076V76.456H125.884V73.744H126.236V74.276C126.33 74.092 126.477 73.9405 126.658 73.8413C126.839 73.7421 127.046 73.6998 127.252 73.72Z" fill="black"/>
<path d="M99.632 111.716C99.632 111.716 99.632 111.636 99.632 111.492C99.632 111.348 99.632 111.124 99.632 110.844C99.632 110.268 99.632 109.428 99.632 108.34C99.632 106.16 99.608 102.992 99.592 99.0081L99.66 99.0721L59.224 99.1121L59.328 99.0081C59.328 103.408 59.328 107.688 59.328 111.716L59.228 111.616L88.128 111.66L96.592 111.688H98.868H99.46H99.664H99.472H98.86H96.608L88.168 111.72L59.196 111.764H59.092V98.9041H59.196L99.632 98.9401H99.7V99.0081C99.7 103.008 99.672 106.208 99.664 108.38C99.664 109.46 99.664 110.296 99.664 110.868C99.664 111.144 99.664 111.356 99.664 111.504C99.664 111.652 99.632 111.716 99.632 111.716Z" fill="#263238"/>
<path d="M144.392 128.928C144.392 128.928 144.392 128.644 144.392 128.092C144.392 127.54 144.392 126.724 144.392 125.648C144.392 123.5 144.392 120.328 144.364 116.22L144.416 116.272L59.216 116.324L59.32 116.22V128.928L59.216 128.828L119.832 128.872L137.832 128.9H142.7H143.964H144.4C144.4 128.9 144.26 128.9 143.98 128.9H142.728H137.884L119.884 128.932L59.196 128.976H59.092V116.116H59.2L144.4 116.168H144.452V116.22C144.452 120.344 144.428 123.524 144.42 125.68C144.42 126.747 144.42 127.557 144.42 128.112C144.4 128.656 144.392 128.928 144.392 128.928Z" fill="#263238"/>
<path d="M144.392 146.024C144.392 146.024 144.392 145.736 144.392 145.188C144.392 144.64 144.392 143.816 144.392 142.744C144.392 140.592 144.392 137.424 144.364 133.316L144.416 133.364L59.216 133.42L59.32 133.316V146.024L59.216 145.92L119.832 145.964L137.832 145.996H142.7H143.964H144.4H143.98H142.728H137.884L119.884 146.024L59.196 146.072H59.092V133.2H59.2L144.4 133.256H144.452V133.308C144.452 137.428 144.428 140.608 144.42 142.764C144.42 143.831 144.42 144.641 144.42 145.196C144.4 145.752 144.392 146.024 144.392 146.024Z" fill="#263238"/>
<path d="M144.392 111.716C144.392 111.716 144.392 111.636 144.392 111.492C144.392 111.348 144.392 111.124 144.392 110.844C144.392 110.268 144.392 109.428 144.392 108.34C144.392 106.16 144.392 102.992 144.356 99.0081L144.424 99.072L103.988 99.112L104.092 99.0081V111.716L103.988 111.616L132.892 111.66L141.356 111.688H143.632H144.224H144.428H144.236H143.62H141.368L132.928 111.72L103.952 111.764H103.852V111.664C103.852 107.636 103.852 103.36 103.852 98.956V98.8521H103.96L144.396 98.888H144.464V98.956C144.464 102.956 144.436 106.156 144.424 108.328C144.424 109.408 144.424 110.244 144.424 110.816C144.424 111.092 144.424 111.304 144.424 111.452C144.424 111.6 144.392 111.716 144.392 111.716Z" fill="#263238"/>
<path d="M67.664 107.2C67.5619 107.213 67.459 107.22 67.356 107.22L66.444 107.248C65.644 107.272 64.5 107.304 63.124 107.32H62.996L63.036 107.2C63.1522 106.793 63.3729 106.423 63.676 106.128C64.0179 105.82 64.4443 105.622 64.9 105.56L64.876 105.756C64.6198 105.644 64.3991 105.464 64.2377 105.235C64.0762 105.007 63.9802 104.739 63.96 104.46C63.9323 104.147 63.9996 103.832 64.1529 103.557C64.3063 103.283 64.5387 103.061 64.82 102.92C65.0884 102.797 65.3895 102.764 65.678 102.827C65.9665 102.89 66.2269 103.044 66.42 103.268C66.5916 103.465 66.7123 103.701 66.7716 103.956C66.8308 104.21 66.8269 104.475 66.76 104.728C66.7051 104.947 66.6005 105.152 66.4541 105.324C66.3078 105.497 66.1236 105.634 65.916 105.724V105.584C66.2726 105.636 66.6113 105.774 66.904 105.984C67.1188 106.145 67.3008 106.346 67.44 106.576C67.5655 106.767 67.6487 106.982 67.684 107.208C67.684 107.208 67.652 107.148 67.608 107.052C67.5407 106.902 67.4618 106.757 67.372 106.62C67.2054 106.372 66.9865 106.165 66.7307 106.011C66.475 105.858 66.1887 105.762 65.892 105.732L65.624 105.7L65.876 105.592C66.0586 105.507 66.2194 105.381 66.3462 105.224C66.4731 105.068 66.5626 104.884 66.608 104.688C66.6646 104.464 66.6658 104.23 66.6115 104.005C66.5571 103.781 66.4488 103.573 66.296 103.4C66.1268 103.213 65.9033 103.085 65.6571 103.033C65.4109 102.98 65.1544 103.006 64.924 103.108C64.6818 103.231 64.4823 103.425 64.3511 103.663C64.2199 103.901 64.1631 104.173 64.188 104.444C64.2053 104.687 64.2891 104.921 64.4301 105.12C64.5712 105.319 64.7642 105.475 64.988 105.572L65.328 105.708L64.964 105.768C64.547 105.822 64.1565 106.002 63.844 106.284C63.5615 106.553 63.3534 106.891 63.24 107.264L63.152 107.148C64.484 107.148 65.604 107.148 66.408 107.176H67.344C67.4511 107.177 67.558 107.185 67.664 107.2Z" fill="#23662A"/>
<path d="M115.068 107.2C114.967 107.214 114.866 107.22 114.764 107.22L113.848 107.248C113.048 107.272 111.908 107.304 110.528 107.32H110.404L110.44 107.2C110.556 106.793 110.777 106.423 111.08 106.128C111.421 105.817 111.847 105.617 112.304 105.552L112.28 105.748C112.024 105.636 111.804 105.455 111.643 105.227C111.483 104.999 111.387 104.731 111.368 104.452C111.338 104.139 111.404 103.824 111.557 103.549C111.71 103.274 111.942 103.052 112.224 102.912C112.493 102.79 112.793 102.757 113.082 102.82C113.37 102.883 113.631 103.037 113.824 103.26C113.995 103.457 114.115 103.694 114.173 103.948C114.232 104.203 114.227 104.468 114.16 104.72C114.105 104.94 114 105.144 113.854 105.316C113.708 105.489 113.524 105.626 113.316 105.716V105.576C113.673 105.628 114.011 105.766 114.304 105.976C114.52 106.136 114.702 106.337 114.84 106.568C114.966 106.759 115.049 106.974 115.084 107.2C115.084 107.2 115.052 107.14 115.008 107.044C114.944 106.892 114.865 106.748 114.772 106.612C114.606 106.365 114.388 106.157 114.133 106.003C113.878 105.85 113.592 105.754 113.296 105.724L113.028 105.692L113.276 105.584C113.459 105.498 113.62 105.372 113.747 105.216C113.875 105.059 113.965 104.876 114.012 104.68C114.068 104.456 114.068 104.221 114.013 103.997C113.958 103.772 113.849 103.565 113.696 103.392C113.53 103.203 113.307 103.072 113.06 103.019C112.814 102.967 112.557 102.995 112.328 103.1C112.085 103.222 111.884 103.416 111.752 103.654C111.62 103.892 111.563 104.165 111.588 104.436C111.605 104.679 111.689 104.913 111.83 105.112C111.971 105.311 112.164 105.467 112.388 105.564L112.728 105.7L112.364 105.76C111.947 105.814 111.556 105.994 111.244 106.276C110.963 106.545 110.756 106.883 110.644 107.256L110.556 107.14C111.888 107.14 113.008 107.14 113.808 107.168H114.748C114.855 107.171 114.962 107.182 115.068 107.2Z" fill="#23662A"/>
<path d="M72.404 104.4V105.472H73.812V105.72H72.404V106.876H72.1V104.152H73.968V104.4H72.404Z" fill="#263238"/>
<path d="M74.416 104.18C74.417 104.128 74.4386 104.078 74.476 104.041C74.5134 104.005 74.5636 103.984 74.616 103.984C74.6421 103.983 74.6681 103.987 74.6925 103.996C74.717 104.005 74.7394 104.019 74.7584 104.037C74.7774 104.055 74.7926 104.077 74.8032 104.1C74.8138 104.124 74.8195 104.15 74.82 104.176C74.826 104.206 74.8253 104.236 74.818 104.266C74.8107 104.295 74.797 104.322 74.7778 104.346C74.7587 104.369 74.7346 104.388 74.7073 104.401C74.68 104.414 74.6502 104.42 74.62 104.42C74.5898 104.42 74.56 104.414 74.5327 104.401C74.5054 104.388 74.4813 104.369 74.4622 104.346C74.443 104.322 74.4293 104.295 74.422 104.266C74.4147 104.236 74.4141 104.206 74.42 104.176L74.416 104.18ZM74.476 104.824H74.752V106.872H74.476V104.824Z" fill="#263238"/>
<path d="M76.552 104.8V105.072H76.5C76.4027 105.067 76.3055 105.083 76.2153 105.12C76.1251 105.157 76.0442 105.214 75.9785 105.286C75.9127 105.357 75.8637 105.443 75.8349 105.536C75.8061 105.629 75.7983 105.727 75.812 105.824V106.868H75.536V104.82H75.8V105.22C75.869 105.083 75.9775 104.969 76.1116 104.895C76.2456 104.82 76.399 104.787 76.552 104.8Z" fill="#263238"/>
<path d="M76.78 106.636L76.904 106.42C77.1167 106.571 77.3714 106.65 77.632 106.648C78.032 106.648 78.18 106.516 78.18 106.316C78.18 105.78 76.856 106.2 76.856 105.392C76.856 105.06 77.144 104.808 77.656 104.808C77.9103 104.805 78.1606 104.871 78.38 105L78.26 105.224C78.0819 105.104 77.8707 105.042 77.656 105.048C77.288 105.048 77.124 105.192 77.124 105.384C77.124 105.936 78.448 105.52 78.448 106.308C78.448 106.66 78.14 106.888 77.604 106.888C77.3094 106.895 77.0205 106.806 76.78 106.636Z" fill="#263238"/>
<path d="M80.044 106.744C79.9218 106.842 79.7686 106.893 79.612 106.888C79.5316 106.897 79.4502 106.889 79.3736 106.862C79.2971 106.836 79.2275 106.793 79.1699 106.736C79.1123 106.679 79.0682 106.61 79.0408 106.534C79.0135 106.458 79.0037 106.376 79.012 106.296V105.06H78.648V104.824H79.012V104.4H79.3V104.844H79.92V105.08H79.3V106.3C79.2932 106.349 79.2975 106.398 79.3125 106.445C79.3275 106.492 79.3528 106.535 79.3866 106.57C79.4204 106.606 79.4618 106.634 79.5078 106.651C79.5537 106.669 79.603 106.676 79.652 106.672C79.7625 106.675 79.8705 106.638 79.956 106.568L80.044 106.744Z" fill="#263238"/>
<path d="M83.44 105.684V106.884H83.164V105.724C83.1771 105.639 83.1706 105.552 83.1451 105.469C83.1196 105.387 83.0757 105.312 83.0167 105.249C82.9578 105.186 82.8853 105.137 82.8048 105.107C82.7243 105.076 82.6378 105.064 82.552 105.072C82.4543 105.064 82.3561 105.078 82.2645 105.113C82.1728 105.147 82.0898 105.202 82.0215 105.272C81.9532 105.342 81.9011 105.427 81.8691 105.519C81.837 105.612 81.8257 105.71 81.836 105.808V106.884H81.56V104.836H81.824V105.2C81.9059 105.069 82.0216 104.963 82.1589 104.892C82.2962 104.822 82.45 104.79 82.604 104.8C82.7195 104.794 82.8349 104.813 82.9422 104.856C83.0496 104.899 83.1463 104.965 83.2258 105.049C83.3052 105.133 83.3655 105.233 83.4025 105.343C83.4395 105.453 83.4523 105.569 83.44 105.684Z" fill="#263238"/>
<path d="M85.732 105.6V106.868H85.468V106.548C85.3914 106.662 85.2856 106.753 85.1618 106.812C85.038 106.871 84.9007 106.896 84.764 106.884C84.304 106.884 84.02 106.644 84.02 106.292C84.02 105.94 84.22 105.712 84.82 105.712H85.468V105.6C85.468 105.248 85.272 105.06 84.892 105.06C84.6438 105.055 84.4024 105.141 84.212 105.3L84.084 105.096C84.3142 104.907 84.6022 104.802 84.9 104.8C85.0103 104.783 85.1229 104.792 85.2292 104.826C85.3355 104.86 85.4326 104.918 85.513 104.995C85.5934 105.072 85.655 105.167 85.6929 105.272C85.7309 105.377 85.7443 105.489 85.732 105.6ZM85.456 106.252V105.916H84.816C84.416 105.916 84.292 106.072 84.292 106.284C84.292 106.496 84.48 106.684 84.808 106.684C84.9476 106.691 85.086 106.654 85.2027 106.577C85.3194 106.5 85.4082 106.387 85.456 106.256V106.252Z" fill="#263238"/>
<path d="M89.856 105.684V106.884H89.58V105.724C89.58 105.292 89.364 105.072 88.992 105.072C88.8964 105.067 88.8008 105.083 88.7121 105.119C88.6234 105.155 88.5437 105.21 88.4785 105.281C88.4133 105.351 88.3642 105.434 88.3348 105.525C88.3053 105.617 88.2962 105.713 88.308 105.808V106.884H88.032V105.724C88.032 105.292 87.816 105.072 87.444 105.072C87.3484 105.067 87.2528 105.083 87.1641 105.119C87.0754 105.155 86.9957 105.21 86.9305 105.281C86.8653 105.351 86.8162 105.434 86.7868 105.525C86.7573 105.617 86.7482 105.713 86.76 105.808V106.884H86.5V104.836H86.764V105.2C86.8404 105.071 86.9504 104.966 87.0823 104.896C87.2141 104.825 87.3627 104.792 87.512 104.8C87.6631 104.788 87.8144 104.823 87.9448 104.9C88.0752 104.977 88.1783 105.093 88.24 105.232C88.3224 105.095 88.4401 104.982 88.5808 104.906C88.7216 104.83 88.8802 104.794 89.04 104.8C89.1552 104.792 89.2706 104.81 89.3778 104.853C89.4851 104.896 89.5814 104.962 89.6597 105.047C89.738 105.131 89.7963 105.233 89.8302 105.343C89.8642 105.453 89.873 105.57 89.856 105.684Z" fill="#263238"/>
<path d="M92.392 105.932H90.684C90.6896 106.031 90.7148 106.128 90.7581 106.218C90.8013 106.308 90.8619 106.388 90.9362 106.454C91.0105 106.52 91.0972 106.571 91.1912 106.604C91.2852 106.636 91.3847 106.65 91.484 106.644C91.6013 106.648 91.718 106.626 91.8258 106.579C91.9337 106.533 92.03 106.464 92.108 106.376L92.264 106.556C92.1172 106.709 91.9284 106.816 91.7212 106.863C91.514 106.91 91.2976 106.895 91.0991 106.819C90.9006 106.743 90.7288 106.611 90.6051 106.438C90.4815 106.266 90.4115 106.06 90.404 105.848C90.404 105.583 90.5094 105.328 90.6969 105.141C90.8844 104.953 91.1388 104.848 91.404 104.848C91.6692 104.848 91.9236 104.953 92.1111 105.141C92.2986 105.328 92.404 105.583 92.404 105.848C92.396 105.872 92.392 105.904 92.392 105.932ZM90.684 105.728H92.132C92.1237 105.542 92.0428 105.366 91.9067 105.239C91.7706 105.112 91.5902 105.044 91.404 105.048C91.2186 105.044 91.039 105.113 90.9042 105.24C90.7694 105.367 90.6903 105.543 90.684 105.728Z" fill="#263238"/>
<path d="M74.432 124.4V124.648H72.5V121.928H74.368V122.176H72.768V123.144H74.176V123.388H72.768V124.4H74.432Z" fill="#263238"/>
<path d="M78.42 123.476V124.676H78.144V123.516C78.144 123.084 77.928 122.864 77.556 122.864C77.46 122.859 77.3641 122.875 77.275 122.912C77.186 122.948 77.106 123.003 77.0408 123.074C76.9755 123.144 76.9266 123.228 76.8974 123.32C76.8682 123.412 76.8596 123.509 76.872 123.604V124.676H76.596V123.516C76.596 123.084 76.38 122.864 76.008 122.864C75.9122 122.86 75.8166 122.876 75.7279 122.913C75.6392 122.949 75.5595 123.005 75.4944 123.075C75.4293 123.146 75.3803 123.23 75.3509 123.321C75.3215 123.412 75.3123 123.509 75.324 123.604V124.676H75.048V122.632H75.3V123.004C75.377 122.876 75.4872 122.771 75.6189 122.701C75.7506 122.63 75.8988 122.597 76.048 122.604C76.1991 122.592 76.3504 122.627 76.4808 122.704C76.6112 122.781 76.7143 122.897 76.776 123.036C76.8584 122.899 76.9761 122.786 77.1168 122.71C77.2576 122.634 77.4162 122.598 77.576 122.604C77.6924 122.591 77.8102 122.605 77.9203 122.645C78.0305 122.685 78.1301 122.749 78.2116 122.833C78.293 122.917 78.3541 123.019 78.3903 123.13C78.4264 123.242 78.4366 123.36 78.42 123.476Z" fill="#263238"/>
<path d="M80.712 123.396V124.664H80.448V124.344C80.3718 124.458 80.2663 124.55 80.1425 124.61C80.0187 124.67 79.881 124.695 79.744 124.684C79.28 124.684 78.996 124.444 78.996 124.088C78.996 123.732 79.2 123.508 79.796 123.508H80.444V123.384C80.444 123.036 80.244 122.844 79.864 122.844C79.616 122.84 79.3748 122.925 79.184 123.084L79.06 122.88C79.2964 122.693 79.5909 122.595 79.892 122.604C80.0006 122.59 80.1111 122.6 80.2152 122.634C80.3193 122.669 80.4143 122.726 80.4932 122.802C80.572 122.878 80.6326 122.971 80.6705 123.074C80.7084 123.177 80.7226 123.287 80.712 123.396ZM80.436 124.048V123.716H79.796C79.396 123.716 79.268 123.872 79.268 124.08C79.268 124.288 79.46 124.48 79.788 124.48C79.928 124.487 80.0664 124.448 80.183 124.371C80.2997 124.293 80.3883 124.18 80.436 124.048Z" fill="#263238"/>
<path d="M81.4 121.972C81.4093 121.926 81.4343 121.884 81.4707 121.854C81.5072 121.824 81.5529 121.808 81.6 121.808C81.6471 121.808 81.6928 121.824 81.7293 121.854C81.7657 121.884 81.7907 121.926 81.8 121.972C81.806 122.002 81.8053 122.032 81.798 122.061C81.7907 122.091 81.777 122.118 81.7578 122.141C81.7387 122.165 81.7146 122.184 81.6873 122.196C81.66 122.209 81.6302 122.216 81.6 122.216C81.5698 122.216 81.54 122.209 81.5127 122.196C81.4854 122.184 81.4613 122.165 81.4422 122.141C81.423 122.118 81.4093 122.091 81.402 122.061C81.3947 122.032 81.3941 122.002 81.4 121.972ZM81.46 122.62H81.736V124.664H81.46V122.62Z" fill="#263238"/>
<path d="M82.5 121.78H82.776V124.664H82.5V121.78Z" fill="#263238"/>
<path d="M73.3 139.892C73.3 140.472 72.9 140.82 72.188 140.82H71.456V141.68H71.168V138.96H72.188C72.872 138.96 73.3 139.308 73.3 139.892ZM73.012 139.892C73.012 139.456 72.724 139.208 72.18 139.208H71.456V140.568H72.18C72.716 140.568 73.004 140.32 73.004 139.892H73.012Z" fill="#263238"/>
<path d="M75.38 140.4V141.668H75.112V141.348C75.0368 141.462 74.932 141.554 74.8088 141.614C74.6856 141.674 74.5485 141.7 74.412 141.688C73.948 141.688 73.664 141.448 73.664 141.092C73.664 140.736 73.864 140.512 74.464 140.512H75.116V140.4C75.116 140.052 74.916 139.86 74.536 139.86C74.2874 139.857 74.046 139.944 73.856 140.104L73.732 139.896C73.9684 139.709 74.2629 139.611 74.564 139.62C74.6713 139.606 74.7801 139.617 74.8828 139.651C74.9854 139.685 75.0792 139.741 75.1573 139.816C75.2355 139.891 75.296 139.982 75.3345 140.083C75.373 140.184 75.3886 140.292 75.38 140.4ZM75.104 141.056V140.72H74.46C74.06 140.72 73.936 140.876 73.936 141.084C73.936 141.292 74.128 141.484 74.452 141.484C74.5906 141.492 74.7283 141.456 74.8453 141.381C74.9624 141.307 75.0529 141.197 75.104 141.068V141.056Z" fill="#263238"/>
<path d="M75.844 141.448L75.968 141.228C76.1803 141.38 76.435 141.461 76.696 141.46C77.096 141.46 77.244 141.328 77.244 141.124C77.244 140.592 75.916 141.012 75.916 140.204C75.916 139.868 76.204 139.62 76.716 139.62C76.9706 139.614 77.2216 139.681 77.44 139.812L77.32 140.032C77.1412 139.913 76.9305 139.852 76.716 139.856C76.348 139.856 76.184 140 76.184 140.196C76.184 140.748 77.512 140.332 77.512 141.116C77.512 141.472 77.2 141.7 76.668 141.7C76.3733 141.707 76.0842 141.619 75.844 141.448Z" fill="#263238"/>
<path d="M77.744 141.448L77.868 141.228C78.0803 141.38 78.335 141.461 78.596 141.46C78.996 141.46 79.144 141.328 79.144 141.124C79.144 140.592 77.816 141.012 77.816 140.204C77.816 139.868 78.104 139.62 78.616 139.62C78.8705 139.615 79.1214 139.681 79.34 139.812L79.22 140.032C79.0412 139.913 78.8305 139.852 78.616 139.856C78.248 139.856 78.084 140 78.084 140.196C78.084 140.748 79.412 140.332 79.412 141.116C79.412 141.472 79.1 141.7 78.568 141.7C78.2733 141.707 77.9842 141.619 77.744 141.448Z" fill="#263238"/>
<path d="M82.9 139.636L82.1 141.68H81.84L81.208 140L80.564 141.676H80.304L79.532 139.632H79.8L80.44 141.368L81.096 139.632H81.336L81.988 141.368L82.636 139.632L82.9 139.636Z" fill="#263238"/>
<path d="M83.04 140.656C83.0408 140.45 83.1025 140.25 83.2172 140.079C83.332 139.909 83.4947 139.776 83.6848 139.698C83.8749 139.62 84.0839 139.6 84.2853 139.64C84.4868 139.681 84.6717 139.78 84.8168 139.926C84.9618 140.071 85.0605 140.257 85.1003 140.458C85.1401 140.66 85.1193 140.869 85.0404 141.059C84.9616 141.249 84.8283 141.411 84.6574 141.525C84.4864 141.639 84.2855 141.7 84.08 141.7C83.9417 141.705 83.8039 141.681 83.6751 141.631C83.5464 141.58 83.4295 141.503 83.3319 141.405C83.2342 141.307 83.1579 141.19 83.1077 141.061C83.0574 140.932 83.0344 140.794 83.04 140.656ZM84.84 140.656C84.8322 140.508 84.7811 140.365 84.6929 140.245C84.6048 140.125 84.4836 140.034 84.3442 139.983C84.2048 139.931 84.0534 139.922 83.9087 139.956C83.764 139.989 83.6324 140.065 83.5301 140.172C83.4277 140.28 83.3592 140.415 83.333 140.562C83.3068 140.708 83.324 140.859 83.3825 140.995C83.441 141.132 83.5382 141.248 83.6622 141.33C83.7862 141.412 83.9314 141.456 84.08 141.456C84.1838 141.458 84.2868 141.438 84.3825 141.398C84.4783 141.358 84.5646 141.298 84.6361 141.223C84.7076 141.148 84.7626 141.059 84.7977 140.961C84.8328 140.863 84.8472 140.759 84.84 140.656Z" fill="#263238"/>
<path d="M86.712 139.62V139.888H86.644C86.5463 139.883 86.4487 139.899 86.3582 139.937C86.2677 139.974 86.1866 140.03 86.1207 140.103C86.0549 140.175 86.0059 140.261 85.9774 140.355C85.949 140.448 85.9416 140.547 85.956 140.644V141.684H85.7V139.64H85.964V140.04C86.0332 139.904 86.1411 139.791 86.2743 139.717C86.4074 139.642 86.5598 139.608 86.712 139.62Z" fill="#263238"/>
<path d="M89.052 138.8V141.684H88.788V141.284C88.7056 141.421 88.5876 141.532 88.4467 141.607C88.3058 141.682 88.1472 141.716 87.988 141.708C87.7122 141.708 87.4476 141.598 87.2526 141.403C87.0576 141.208 86.948 140.944 86.948 140.668C86.948 140.392 87.0576 140.128 87.2526 139.933C87.4476 139.738 87.7122 139.628 87.988 139.628C88.1409 139.622 88.2928 139.655 88.4288 139.726C88.5648 139.796 88.6803 139.9 88.764 140.028V138.8H89.052ZM88.78 140.66C88.7722 140.512 88.7209 140.369 88.6326 140.249C88.5443 140.129 88.4229 140.038 88.2832 139.987C88.1436 139.935 87.992 139.926 87.8473 139.96C87.7025 139.994 87.5708 140.07 87.4687 140.178C87.3665 140.286 87.2983 140.422 87.2725 140.568C87.2468 140.715 87.2645 140.866 87.3237 141.002C87.3828 141.139 87.4807 141.255 87.6051 141.336C87.7296 141.418 87.8753 141.461 88.024 141.46C88.1278 141.461 88.2307 141.441 88.3263 141.401C88.4219 141.36 88.5079 141.3 88.579 141.225C88.6501 141.149 88.7047 141.059 88.7393 140.961C88.7739 140.864 88.7878 140.76 88.78 140.656V140.66Z" fill="#263238"/>
<path d="M118.1 104.532H118.384V107.008H119.912V107.256H118.1V104.532Z" fill="#263238"/>
<path d="M121.86 106V107.268H121.596V106.948C121.52 107.062 121.414 107.154 121.291 107.214C121.167 107.274 121.029 107.299 120.892 107.288C120.428 107.288 120.144 107.044 120.144 106.692C120.144 106.34 120.348 106.112 120.944 106.112H121.592V105.988C121.592 105.64 121.392 105.448 121.012 105.448C120.764 105.444 120.523 105.529 120.332 105.688L120.208 105.484C120.444 105.297 120.739 105.199 121.04 105.208C121.149 105.194 121.259 105.204 121.363 105.238C121.467 105.273 121.562 105.33 121.641 105.406C121.72 105.482 121.781 105.575 121.819 105.678C121.856 105.781 121.871 105.891 121.86 106ZM121.584 106.652V106.32H120.944C120.544 106.32 120.416 106.476 120.416 106.684C120.416 106.892 120.608 107.084 120.936 107.084C121.077 107.09 121.217 107.05 121.334 106.97C121.451 106.89 121.538 106.774 121.584 106.64V106.652Z" fill="#263238"/>
<path d="M122.324 107.024L122.448 106.804C122.661 106.955 122.915 107.034 123.176 107.032C123.576 107.032 123.724 106.9 123.724 106.7C123.724 106.168 122.4 106.588 122.4 105.776C122.4 105.444 122.684 105.196 123.2 105.196C123.453 105.191 123.702 105.256 123.92 105.384L123.8 105.608C123.623 105.489 123.413 105.428 123.2 105.432C122.828 105.432 122.668 105.576 122.668 105.772C122.668 106.324 123.992 105.904 123.992 106.692C123.992 107.044 123.68 107.276 123.148 107.276C122.854 107.281 122.565 107.193 122.324 107.024Z" fill="#263238"/>
<path d="M125.584 107.132C125.461 107.229 125.308 107.28 125.152 107.276C125.072 107.285 124.99 107.276 124.914 107.249C124.837 107.222 124.768 107.178 124.711 107.121C124.654 107.064 124.61 106.994 124.583 106.918C124.556 106.842 124.547 106.76 124.556 106.68V105.444H124.188V105.2H124.556V104.752H124.832V105.2H125.452V105.432H124.832V106.652C124.825 106.701 124.83 106.75 124.845 106.797C124.86 106.844 124.885 106.887 124.919 106.923C124.952 106.958 124.994 106.986 125.04 107.003C125.086 107.021 125.135 107.028 125.184 107.024C125.295 107.028 125.403 106.991 125.488 106.92L125.584 107.132Z" fill="#263238"/>
<path d="M128.984 106.068V107.268H128.708V106.108C128.721 106.022 128.715 105.935 128.689 105.852C128.663 105.77 128.619 105.694 128.56 105.631C128.5 105.568 128.427 105.52 128.346 105.489C128.265 105.459 128.178 105.448 128.092 105.456C127.994 105.449 127.896 105.463 127.805 105.498C127.713 105.534 127.63 105.588 127.563 105.659C127.495 105.73 127.443 105.814 127.411 105.907C127.38 106 127.369 106.098 127.38 106.196V107.268H127.104V105.2H127.368V105.6C127.45 105.47 127.565 105.364 127.701 105.294C127.838 105.224 127.991 105.191 128.144 105.2C128.258 105.194 128.373 105.212 128.479 105.254C128.586 105.296 128.682 105.36 128.762 105.442C128.842 105.525 128.903 105.623 128.941 105.731C128.979 105.839 128.994 105.954 128.984 106.068Z" fill="#263238"/>
<path d="M131.276 106V107.268H131.012V106.948C130.936 107.063 130.831 107.155 130.707 107.215C130.583 107.275 130.445 107.3 130.308 107.288C129.844 107.288 129.56 107.044 129.56 106.692C129.56 106.34 129.764 106.112 130.36 106.112H131.008V105.988C131.008 105.64 130.808 105.448 130.428 105.448C130.18 105.444 129.939 105.529 129.748 105.688L129.624 105.484C129.861 105.298 130.155 105.2 130.456 105.208C130.565 105.194 130.675 105.204 130.779 105.238C130.883 105.273 130.978 105.33 131.057 105.406C131.136 105.482 131.197 105.575 131.234 105.678C131.272 105.781 131.287 105.891 131.276 106ZM131 106.652V106.32H130.36C129.96 106.32 129.832 106.476 129.832 106.684C129.832 106.892 130.024 107.084 130.352 107.084C130.493 107.09 130.633 107.05 130.75 106.97C130.867 106.89 130.954 106.774 131 106.64V106.652Z" fill="#263238"/>
<path d="M135.4 106.068V107.268H135.124V106.108C135.124 105.676 134.908 105.456 134.536 105.456C134.44 105.451 134.344 105.467 134.255 105.503C134.166 105.54 134.086 105.595 134.021 105.666C133.955 105.736 133.907 105.82 133.877 105.912C133.848 106.004 133.84 106.101 133.852 106.196V107.268H133.576V106.108C133.576 105.676 133.36 105.456 132.984 105.456C132.888 105.452 132.793 105.468 132.704 105.505C132.615 105.541 132.535 105.597 132.47 105.667C132.405 105.738 132.356 105.821 132.327 105.913C132.297 106.004 132.288 106.101 132.3 106.196V107.268H132.024V105.2H132.288V105.6C132.365 105.471 132.476 105.366 132.609 105.296C132.741 105.225 132.89 105.192 133.04 105.2C133.191 105.188 133.342 105.223 133.472 105.301C133.603 105.378 133.706 105.494 133.768 105.632C133.85 105.494 133.967 105.381 134.108 105.305C134.249 105.229 134.408 105.193 134.568 105.2C134.683 105.19 134.799 105.206 134.906 105.247C135.014 105.287 135.112 105.352 135.192 105.435C135.271 105.518 135.332 105.618 135.368 105.728C135.404 105.837 135.415 105.954 135.4 106.068Z" fill="#263238"/>
<path d="M137.936 106.32H136.224C136.237 106.519 136.329 106.706 136.479 106.838C136.628 106.971 136.824 107.039 137.024 107.028C137.142 107.032 137.259 107.011 137.368 106.964C137.477 106.918 137.574 106.848 137.652 106.76L137.808 106.94C137.661 107.095 137.472 107.203 137.264 107.251C137.057 107.298 136.839 107.283 136.64 107.207C136.441 107.132 136.268 106.999 136.144 106.825C136.02 106.651 135.951 106.445 135.944 106.232C135.937 106.097 135.958 105.962 136.005 105.836C136.052 105.709 136.125 105.594 136.219 105.496C136.312 105.399 136.425 105.322 136.55 105.271C136.675 105.219 136.809 105.194 136.944 105.196C137.079 105.193 137.212 105.219 137.337 105.271C137.461 105.323 137.574 105.399 137.667 105.497C137.76 105.594 137.832 105.71 137.878 105.836C137.925 105.963 137.944 106.097 137.936 106.232C137.94 106.256 137.936 106.288 137.936 106.32ZM136.224 106.112H137.676C137.662 105.929 137.58 105.757 137.445 105.632C137.311 105.507 137.134 105.438 136.95 105.438C136.766 105.438 136.589 105.507 136.455 105.632C136.32 105.757 136.238 105.929 136.224 106.112Z" fill="#263238"/>
<path d="M66.9 138.568C66.8809 138.482 66.8689 138.395 66.864 138.308C66.8665 138.097 66.817 137.888 66.72 137.7C66.6437 137.565 66.5378 137.45 66.4103 137.363C66.2827 137.276 66.1369 137.218 65.984 137.196C65.7993 137.171 65.6115 137.2 65.4422 137.277C65.273 137.355 65.1294 137.48 65.028 137.636C64.9398 137.77 64.8875 137.924 64.876 138.084C64.876 138.252 64.876 138.412 64.876 138.572L64.78 138.472C65.4932 138.468 66.2061 138.5 66.916 138.568C66.2068 138.646 65.4934 138.68 64.78 138.668H64.68V138.568C64.68 138.408 64.68 138.252 64.68 138.068C64.6909 137.874 64.753 137.686 64.86 137.524C64.9819 137.334 65.1567 137.184 65.3628 137.092C65.5689 137.001 65.7974 136.971 66.02 137.008C66.1993 137.037 66.3689 137.109 66.5145 137.218C66.66 137.326 66.7772 137.468 66.856 137.632C66.9589 137.85 66.9911 138.095 66.948 138.332C66.932 138.504 66.9 138.58 66.9 138.568Z" fill="#23662A"/>
<path d="M66.208 141.168C66.1329 141.017 66.0688 140.86 66.016 140.7V140.656L66.06 140.624C66.1237 140.574 66.1669 140.503 66.1817 140.423C66.1964 140.343 66.1816 140.261 66.14 140.192C66.1191 140.148 66.0883 140.111 66.0501 140.081C66.0119 140.052 65.9673 140.032 65.9199 140.023C65.8726 140.014 65.8238 140.016 65.7774 140.029C65.7311 140.043 65.6886 140.067 65.6532 140.099C65.6178 140.132 65.5906 140.173 65.5738 140.218C65.557 140.263 65.551 140.312 65.5563 140.36C65.5617 140.407 65.5782 140.453 65.6045 140.494C65.6309 140.534 65.6663 140.568 65.708 140.592L65.772 140.628L65.752 140.696L65.632 141.172L65.556 141.076C65.7788 141.086 66.0006 141.112 66.22 141.152C66.0043 141.213 65.7802 141.24 65.556 141.232H65.46V141.128C65.492 140.968 65.52 140.808 65.548 140.644L65.592 140.748C65.5283 140.709 65.4741 140.657 65.4332 140.594C65.3922 140.532 65.3656 140.461 65.3553 140.387C65.345 140.314 65.3512 140.238 65.3734 140.167C65.3957 140.096 65.4334 140.031 65.484 139.976C65.5395 139.914 65.6096 139.868 65.688 139.84C65.7663 139.813 65.8502 139.806 65.932 139.82C66.0071 139.832 66.0786 139.861 66.1409 139.905C66.2033 139.948 66.2549 140.005 66.292 140.072C66.3523 140.181 66.3681 140.309 66.336 140.429C66.3039 140.549 66.2265 140.652 66.12 140.716L66.152 140.64C66.2034 140.811 66.2224 140.99 66.208 141.168Z" fill="#23662A"/>
<path d="M67.2 138.572C67.2581 138.561 67.3179 138.561 67.376 138.572C67.5212 138.616 67.6509 138.7 67.75 138.815C67.8492 138.929 67.9137 139.07 67.936 139.22C67.936 139.36 67.936 139.496 67.936 139.652C67.936 139.968 67.936 140.316 67.936 140.7C67.936 140.896 67.936 141.1 67.936 141.308C67.9512 141.536 67.9432 141.765 67.912 141.992C67.877 142.119 67.8128 142.236 67.7246 142.334C67.6364 142.432 67.5267 142.508 67.404 142.556C67.2771 142.607 67.1404 142.629 67.004 142.62H66.604H65.004H64.58C64.4571 142.626 64.3343 142.606 64.2198 142.561C64.1053 142.516 64.0017 142.447 63.9158 142.359C63.83 142.271 63.7638 142.165 63.7218 142.05C63.6798 141.934 63.6628 141.811 63.672 141.688C63.672 141.072 63.672 140.488 63.672 139.888V139.46C63.6596 139.307 63.6787 139.153 63.728 139.008C63.7821 138.864 63.8737 138.738 63.9933 138.641C64.1128 138.545 64.2561 138.482 64.408 138.46L64.328 138.552C64.328 138.36 64.328 138.188 64.328 137.992C64.3465 137.804 64.4023 137.622 64.492 137.456C64.6806 137.137 64.984 136.902 65.34 136.8C65.6083 136.703 65.8996 136.689 66.1759 136.761C66.4521 136.832 66.7003 136.985 66.888 137.2C67.0096 137.334 67.1031 137.492 67.1628 137.663C67.2226 137.834 67.2475 138.015 67.236 138.196C67.2323 138.322 67.2203 138.448 67.2 138.572C67.1802 138.449 67.1722 138.324 67.176 138.2C67.1741 137.856 67.0411 137.525 66.804 137.276C66.6625 137.127 66.4877 137.014 66.2939 136.946C66.1001 136.878 65.8928 136.857 65.6893 136.884C65.4857 136.912 65.2917 136.988 65.1232 137.105C64.9546 137.223 64.8165 137.379 64.72 137.56C64.6429 137.707 64.5954 137.867 64.58 138.032C64.58 138.196 64.58 138.396 64.58 138.58V138.66H64.5C64.3826 138.679 64.2723 138.728 64.1802 138.803C64.0882 138.878 64.0177 138.977 63.976 139.088C63.9371 139.218 63.9235 139.353 63.936 139.488V139.916C63.936 140.496 63.936 141.116 63.936 141.716C63.9248 141.845 63.9509 141.974 64.0112 142.088C64.0715 142.202 64.1634 142.297 64.276 142.36C64.3869 142.418 64.5108 142.447 64.636 142.444H66.668C66.906 142.467 67.146 142.453 67.38 142.404C67.4766 142.366 67.563 142.306 67.6324 142.229C67.7019 142.152 67.7524 142.06 67.78 141.96C67.8092 141.749 67.8199 141.537 67.812 141.324C67.812 141.116 67.812 140.924 67.812 140.716C67.812 140.316 67.812 139.984 67.812 139.668C67.812 139.516 67.812 139.364 67.812 139.244C67.8017 139.132 67.7647 139.023 67.704 138.928C67.583 138.754 67.4046 138.628 67.2 138.572Z" fill="#23662A"/>
<path d="M68.948 125.268C68.9362 125.166 68.9295 125.063 68.928 124.96C68.928 124.744 68.928 124.464 68.9 124.124C68.88 123.388 68.856 122.376 68.824 121.156L68.908 121.24L62.812 121.32L62.9 121.2V121.736C62.9 121.916 62.9 122.096 62.9 122.276C62.9 122.632 62.9 122.984 62.9 123.328C62.9 124.012 62.9 124.676 62.9 125.3L62.804 125.208C64.58 125.208 66.092 125.208 67.168 125.208H68.432C68.5883 125.204 68.7446 125.211 68.9 125.228C68.7595 125.247 68.6177 125.255 68.476 125.252L67.232 125.292C66.16 125.32 64.624 125.356 62.804 125.38H62.712V125.284C62.712 124.656 62.712 123.996 62.688 123.308C62.688 122.964 62.688 122.612 62.688 122.256C62.688 122.08 62.688 121.9 62.688 121.72V121.18L62.792 121.072L68.888 121.032H68.972V121.116C68.972 122.356 68.972 123.384 68.972 124.136C68.972 124.468 68.972 124.74 68.972 124.936C68.979 125.047 68.9709 125.159 68.948 125.268Z" fill="#23662A"/>
<path d="M68.9 121.156C68.6442 121.42 68.3613 121.656 68.056 121.86C67.52 122.26 66.772 122.832 65.936 123.436H65.796L65.756 123.408L65.676 123.352L65.52 123.244L65.216 123.032L64.644 122.632L63.68 121.936C63.3736 121.734 63.087 121.504 62.824 121.248C63.1548 121.407 63.4696 121.597 63.764 121.816L64.752 122.476L65.332 122.876L65.64 123.088L65.796 123.196L65.872 123.248L65.912 123.276H65.932H65.82C66.656 122.672 67.42 122.132 67.98 121.748C68.2682 121.523 68.5761 121.325 68.9 121.156Z" fill="#23662A"/>
<path d="M62.972 125.324C63.2233 124.835 63.5366 124.381 63.904 123.972C64.2179 123.518 64.5875 123.106 65.004 122.744C64.7525 123.235 64.4379 123.691 64.068 124.1C63.7554 124.552 63.3872 124.963 62.972 125.324Z" fill="#23662A"/>
<path d="M66.992 122.744C67.3956 123.097 67.7519 123.5 68.052 123.944C68.4073 124.346 68.7085 124.792 68.948 125.272C68.5441 124.92 68.1877 124.516 67.888 124.072C67.5321 123.671 67.2308 123.224 66.992 122.744Z" fill="#23662A"/>
<path d="M143.328 152.596H60.26C59.6724 152.596 59.196 153.072 59.196 153.66V164.52C59.196 165.108 59.6724 165.584 60.26 165.584H143.328C143.916 165.584 144.392 165.108 144.392 164.52V153.66C144.392 153.072 143.916 152.596 143.328 152.596Z" fill="#23662A"/>
<g opacity="0.3">
<path d="M143.328 152.596H60.26C59.6724 152.596 59.196 153.072 59.196 153.66V164.52C59.196 165.108 59.6724 165.584 60.26 165.584H143.328C143.916 165.584 144.392 165.108 144.392 164.52V153.66C144.392 153.072 143.916 152.596 143.328 152.596Z" fill="black"/>
</g>
<path d="M143.328 150.788H60.26C59.6724 150.788 59.196 151.264 59.196 151.852V162.712C59.196 163.299 59.6724 163.776 60.26 163.776H143.328C143.916 163.776 144.392 163.299 144.392 162.712V151.852C144.392 151.264 143.916 150.788 143.328 150.788Z" fill="#23662A"/>
<path d="M94.6 157.56C94.5976 157.372 94.6336 157.186 94.7058 157.013C94.7779 156.84 94.8847 156.684 95.0195 156.553C95.1544 156.423 95.3145 156.321 95.49 156.255C95.6655 156.189 95.8526 156.159 96.04 156.168C96.233 156.16 96.4254 156.194 96.6041 156.267C96.7828 156.341 96.9438 156.451 97.076 156.592L96.824 156.836C96.6794 156.683 96.4922 156.576 96.2865 156.531C96.0808 156.485 95.8662 156.503 95.6704 156.58C95.4746 156.658 95.3067 156.793 95.1884 156.967C95.0701 157.142 95.0069 157.347 95.0069 157.558C95.0069 157.769 95.0701 157.974 95.1884 158.149C95.3067 158.323 95.4746 158.458 95.6704 158.536C95.8662 158.613 96.0808 158.631 96.2865 158.585C96.4922 158.539 96.6794 158.433 96.824 158.28L97.076 158.524C96.9435 158.666 96.7821 158.777 96.6026 158.851C96.4232 158.925 96.2299 158.959 96.036 158.952C95.849 158.96 95.6622 158.93 95.4872 158.864C95.3122 158.797 95.1526 158.696 95.0182 158.565C94.8837 158.435 94.7773 158.279 94.7054 158.106C94.6335 157.933 94.5976 157.747 94.6 157.56Z" fill="white"/>
<path d="M99.448 158.92L98.86 158.084H98.692H98.016V158.912H97.616V156.192H98.68C99.384 156.192 99.812 156.548 99.812 157.14C99.8211 157.329 99.7676 157.515 99.6598 157.671C99.5521 157.826 99.3961 157.942 99.216 158L99.86 158.912L99.448 158.92ZM99.448 157.148C99.448 156.748 99.188 156.54 98.692 156.54H98.028V157.764H98.692C99.176 157.764 99.436 157.536 99.436 157.148H99.448Z" fill="white"/>
<path d="M102.428 158.584V158.92H100.452V156.2H102.372V156.54H100.84V157.376H102.208V157.704H100.84V158.584H102.428Z" fill="white"/>
<path d="M104.792 158.24H103.344L103.044 158.92H102.644L103.876 156.2H104.276L105.512 158.92H105.112L104.792 158.24ZM104.656 157.932L104.068 156.596L103.48 157.932H104.656Z" fill="white"/>
<path d="M106.304 156.54H105.372V156.2H107.624V156.54H106.688V158.92H106.288L106.304 156.54Z" fill="white"/>
<path d="M110.02 158.584V158.92H108.044V156.2H109.964V156.54H108.432V157.376H109.796V157.704H108.432V158.584H110.02Z" fill="white"/>
<path d="M89.5759 76.2166C100.565 65.2272 100.565 47.41 89.5759 36.4206C78.5865 25.4313 60.7693 25.4313 49.7799 36.4206C38.7906 47.41 38.7906 65.2272 49.7799 76.2166C60.7693 87.2059 78.5865 87.2059 89.5759 76.2166Z" fill="#E0E0E0"/>
<path d="M85.8 18.2839C85.3079 18.9013 85.0077 19.6496 84.9366 20.4359C84.8655 21.2223 85.0266 22.0122 85.4 22.7079C85.752 23.3399 86.288 23.9079 86.368 24.6239C86.5 25.7879 85.372 26.8359 85.568 27.9959C85.692 28.7959 86.368 29.3439 86.736 30.0519C86.9634 30.5123 87.0552 31.028 87.0007 31.5386C86.9461 32.0492 86.7475 32.5338 86.428 32.9359C85.916 33.5599 85.112 33.9559 84.78 34.6959C84.532 35.2399 84.592 35.8959 84.38 36.4439C84.1911 36.8729 83.8944 37.2458 83.5186 37.5262C83.1429 37.8065 82.7011 37.9849 82.236 38.0439C81.3007 38.1562 80.353 38.1034 79.436 37.8879L79.64 36.8759C79.4665 37.1446 79.2302 37.367 78.9514 37.5239C78.6726 37.6807 78.3598 37.7672 78.04 37.7759C77.3994 37.7886 76.7613 37.694 76.152 37.4959C75.772 35.7799 75.4 33.9679 75.936 32.2959C76.424 30.7919 77.576 29.6159 78.536 28.3599C79.6019 26.9654 80.4551 25.4206 81.068 23.7759C81.508 22.5959 81.824 21.3759 82.44 20.2559C83.056 19.1359 84.04 18.1679 85.272 17.9319" fill="#263238"/>
<path d="M104.1 41.92L98.532 42.32L98.476 40.888C98.4017 40.1784 98.571 39.4646 98.956 38.864C99.0175 38.7583 99.0621 38.6435 99.088 38.524C99.128 38.1 98.504 35.972 98.288 35.192C98.016 34.256 98.548 33.76 98.756 34.144C99.132 34.844 100.128 37.848 100.44 38.144C100.752 38.44 100.572 36.868 100.572 36.868C100.084 33.56 99.872 33.08 100.46 32.956C101.136 32.812 101.88 37.736 101.88 37.736C101.88 37.736 101.78 37.048 102.308 36.908C102.836 36.768 103.08 37.444 103.08 37.444C103.012 37.096 103.512 37.044 103.512 37.044C104.76 37.216 104.112 41.964 104.112 41.964L98.544 42.364L95.876 60.984L93.028 56.62L85.596 61.924L92.296 69.924C92.878 70.6166 93.6103 71.1672 94.4373 71.5339C95.2643 71.9006 96.164 72.0737 97.068 72.04C98.546 71.9863 99.9505 71.3821 101.006 70.346C102.061 69.3099 102.691 67.9167 102.772 66.44L104.1 41.92Z" fill="#EB996E"/>
<path d="M99.744 41.9719C99.72 41.9439 100.016 41.6839 100.412 41.1959C100.642 40.9103 100.85 40.6082 101.036 40.2919C101.147 40.1051 101.248 39.9129 101.34 39.7159C101.452 39.5318 101.518 39.3232 101.532 39.1079C101.53 39.0579 101.515 39.0095 101.486 38.9683C101.458 38.9272 101.418 38.8951 101.372 38.8759C101.263 38.8575 101.15 38.8758 101.052 38.9279C100.833 39.0308 100.626 39.1554 100.432 39.2999C100.119 39.5365 99.8485 39.8246 99.632 40.1519L99.568 40.2439L99.52 40.1479C99.4054 39.9416 99.2566 39.7563 99.08 39.5999C99.08 39.5999 99.384 39.6719 99.644 40.1039H99.532C99.7369 39.7463 100.008 39.4313 100.332 39.1759C100.534 39.0191 100.753 38.8849 100.984 38.7759C101.126 38.7006 101.291 38.678 101.448 38.7119C101.532 38.7417 101.607 38.7954 101.661 38.8664C101.716 38.9373 101.749 39.0226 101.756 39.1119C101.749 39.3693 101.674 39.6202 101.54 39.8399C101.443 40.039 101.334 40.2326 101.216 40.4199C101.018 40.741 100.792 41.0436 100.54 41.3239C100.312 41.5818 100.043 41.8007 99.744 41.9719Z" fill="#D1734A"/>
<path d="M101.948 38C101.982 38.3404 101.982 38.6835 101.948 39.024C101.948 39.36 101.912 39.732 101.888 40.128C101.872 40.3383 101.872 40.5496 101.888 40.76C101.888 40.956 102.076 41.124 102.216 41.044C102.356 40.964 102.436 40.724 102.496 40.512C102.556 40.3 102.604 40.088 102.648 39.884C102.736 39.484 102.8 39.108 102.86 38.8C102.899 38.4599 102.979 38.1256 103.096 37.804C103.095 38.146 103.065 38.4873 103.004 38.824C102.964 39.136 102.916 39.508 102.836 39.924C102.8 40.128 102.752 40.344 102.692 40.568C102.673 40.6997 102.628 40.8263 102.559 40.9403C102.49 41.0543 102.399 41.1535 102.292 41.232C102.219 41.2653 102.137 41.276 102.058 41.2624C101.979 41.2488 101.906 41.2117 101.848 41.156C101.746 41.0593 101.683 40.9282 101.672 40.788C101.659 40.5637 101.667 40.3387 101.696 40.116C101.736 39.7213 101.772 39.3533 101.804 39.012C101.817 38.6705 101.865 38.3314 101.948 38Z" fill="#D1734A"/>
<path d="M102.9 39.4198C102.932 39.4198 102.852 39.6518 102.876 40.0118C102.883 40.2103 102.943 40.4034 103.048 40.5718C103.116 40.6398 103.164 40.6438 103.228 40.5718C103.3 40.4631 103.362 40.348 103.412 40.2278C103.666 39.5966 103.865 38.9449 104.008 38.2798C104.07 38.9827 103.932 39.6888 103.608 40.3158C103.551 40.4557 103.48 40.5897 103.396 40.7158C103.367 40.7537 103.329 40.7846 103.286 40.806C103.243 40.8275 103.196 40.839 103.148 40.8398C103.102 40.838 103.058 40.8264 103.017 40.8057C102.976 40.785 102.94 40.7557 102.912 40.7198C102.832 40.6133 102.781 40.4879 102.764 40.3558C102.743 40.2504 102.734 40.1431 102.736 40.0358C102.724 39.6198 102.864 39.4078 102.9 39.4198Z" fill="#D1734A"/>
<path d="M79.452 74.424L79.972 82.52C64.136 88.588 52.372 78.52 52.372 78.52L54.74 71.276L55.14 58.628L52.1 62L50.664 60.8L43.42 54.768L41.864 53.468L49.396 45.52C58.92 35.268 66.332 38.4 66.332 38.4L77.468 39.444C77.468 39.444 85.172 40.536 88.9 47.288C91.936 52.784 95.24 58.604 95.24 58.604L85.696 65.404L82.66 59.828L79.452 74.424Z" fill="#455A64"/>
<path d="M41.54 56.2118C41.54 56.6878 41.54 57.1598 41.568 57.6398C41.6337 59.518 41.8883 61.3847 42.328 63.2118V63.2638C42.384 63.4918 42.448 63.7158 42.512 63.9398C42.76 64.8198 43.088 65.5958 43.4 66.4478C43.44 66.5558 43.48 66.6598 43.524 66.7678C44.532 66.5038 47.208 63.9678 50.476 60.6598L43.224 54.6118C42.292 55.6278 41.852 56.0918 41.54 56.2118Z" fill="#EB996E"/>
<path d="M76.456 40.496C76.856 37.736 77.308 34.84 77.308 34.84C77.308 34.84 80.944 34.74 82.32 30.204C83.632 25.876 84.32 15.56 84.32 15.56C81.9368 14.1984 79.1943 13.5982 76.4602 13.8399C73.7262 14.0815 71.1314 15.1535 69.024 16.912L66.224 39.372C65.9 41.976 67.884 44.332 70.68 44.66C73.5 44.988 76.1 43.124 76.456 40.496Z" fill="#EB996E"/>
<path d="M81.896 23.3559C81.876 23.5113 81.7963 23.6528 81.6739 23.7505C81.5515 23.8483 81.396 23.8947 81.24 23.8799C81.1632 23.8754 81.0881 23.8555 81.0191 23.8215C80.9502 23.7875 80.8887 23.74 80.8384 23.6818C80.788 23.6237 80.7499 23.556 80.7261 23.4829C80.7023 23.4097 80.6935 23.3325 80.7 23.2559C80.721 23.1013 80.801 22.9608 80.9233 22.8638C81.0456 22.7669 81.2007 22.721 81.356 22.7359C81.4324 22.7404 81.5072 22.7602 81.5759 22.794C81.6446 22.8277 81.7058 22.8748 81.7561 22.9326C81.8064 22.9903 81.8447 23.0575 81.8687 23.1302C81.8927 23.2028 81.902 23.2796 81.896 23.3559Z" fill="#263238"/>
<path d="M82.952 22.824C82.868 22.892 82.464 22.496 81.824 22.424C81.184 22.352 80.668 22.596 80.624 22.508C80.58 22.42 80.688 22.336 80.912 22.216C81.2159 22.0631 81.5594 22.0072 81.896 22.056C82.2297 22.1016 82.5404 22.2514 82.784 22.484C82.948 22.644 82.992 22.8 82.952 22.824Z" fill="#263238"/>
<path d="M75.328 22.5679C75.308 22.7229 75.2282 22.864 75.1057 22.9612C74.9831 23.0583 74.8275 23.1037 74.672 23.0879C74.5954 23.0838 74.5204 23.0645 74.4514 23.0309C74.3825 22.9973 74.321 22.9502 74.2706 22.8923C74.2202 22.8345 74.182 22.7671 74.1582 22.6942C74.1344 22.6212 74.1255 22.5443 74.132 22.4679C74.152 22.3125 74.2317 22.171 74.3541 22.0732C74.4765 21.9755 74.632 21.9291 74.788 21.9439C74.8646 21.9489 74.9394 21.9691 75.0081 22.0033C75.0769 22.0375 75.1381 22.085 75.1883 22.1431C75.2386 22.2011 75.2768 22.2685 75.3008 22.3415C75.3247 22.4144 75.334 22.4913 75.328 22.5679Z" fill="#263238"/>
<path d="M76.24 22.1358C76.156 22.2038 75.752 21.8078 75.112 21.7358C74.472 21.6638 73.956 21.9038 73.912 21.8158C73.868 21.7278 73.976 21.6478 74.2 21.5278C74.5039 21.3752 74.8474 21.3193 75.184 21.3678C75.5186 21.4105 75.8302 21.5607 76.072 21.7958C76.232 21.9558 76.28 22.1078 76.24 22.1358Z" fill="#263238"/>
<path d="M77.908 27.1999C78.2608 27.1407 78.6196 27.1259 78.976 27.1559C79.14 27.1559 79.3 27.1559 79.344 27.0439C79.3784 26.8765 79.3631 26.7027 79.3 26.5439C79.2 26.1439 79.096 25.6879 78.988 25.2319C78.56 23.3679 78.276 21.8439 78.352 21.8239C78.428 21.8039 78.836 23.3079 79.26 25.1719C79.364 25.6319 79.46 26.0679 79.552 26.4879C79.6281 26.6986 79.6281 26.9292 79.552 27.1399C79.5204 27.1942 79.4771 27.2407 79.4252 27.276C79.3733 27.3113 79.3141 27.3345 79.252 27.3439C79.1577 27.356 79.0623 27.356 78.968 27.3439C78.6101 27.3396 78.2541 27.2913 77.908 27.1999Z" fill="#263238"/>
<path d="M77.3 34.8399C75.1056 34.5756 73.0281 33.7058 71.3 32.3279C71.3 32.3279 72.368 35.7199 77.068 35.9279L77.3 34.8399Z" fill="#D1734A"/>
<path d="M79.512 14.1279C79.812 14.8599 79.34 15.7279 78.672 16.1279C77.9673 16.4931 77.1956 16.7109 76.404 16.7679C75.6113 16.8302 74.8532 17.119 74.22 17.5999C73.132 18.5879 73.42 19.9999 72.32 21.2839C72.0641 21.6447 71.7123 21.9266 71.3043 22.0977C70.8964 22.2688 70.4487 22.3222 70.012 22.2519C69.132 22.1279 67.992 22.3319 67.548 23.3479C67.104 24.3639 67.64 25.1119 68.132 26.0439C68.624 26.9759 68.492 27.9319 68.212 28.9519C68.012 29.6879 67.38 30.2639 67.24 31.0159C67.016 32.2159 68.04 33.5519 67.348 34.5359C66.656 35.5199 64.9 35.0839 64.128 35.9999C63.848 36.3239 63.688 36.7999 63.276 36.9279C63.0198 36.9639 62.7589 36.9162 62.532 36.7919L58.932 35.2679C59.024 34.8959 59.12 34.5199 59.216 34.1479C58.9499 34.4208 58.6227 34.6264 58.2613 34.7477C57.9 34.869 57.515 34.9025 57.1381 34.8455C56.7613 34.7884 56.4034 34.6424 56.0942 34.4195C55.785 34.1967 55.5333 33.9034 55.36 33.5639C56.1143 33.1258 56.8127 32.598 57.44 31.9919C58.0593 31.375 58.4356 30.5556 58.5 29.6839C58.536 28.6279 57.964 27.5599 58.284 26.5559C58.744 25.1199 60.684 24.7599 61.54 23.5279C62.34 22.3759 62.072 20.7039 62.9 19.5639C63.864 18.2439 65.9 18.1839 67.004 16.9759C67.752 16.1759 67.924 14.9759 68.468 14.0039C69.1725 12.8613 70.2733 12.0183 71.56 11.6359C72.8383 11.2629 74.1702 11.1074 75.5 11.1759C76.4983 11.1289 77.4928 11.3281 78.396 11.7559C79.264 12.2399 79.92 13.2319 79.716 14.2079" fill="#263238"/>
<path d="M70.012 22.2638C69.5305 22.0887 69.0096 22.0513 68.508 22.1558C68.2573 22.2075 68.0194 22.3083 67.8079 22.4525C67.5964 22.5967 67.4156 22.7813 67.276 22.9958C67.02 23.4443 66.9428 23.9729 67.06 24.4758C67.1801 24.9747 67.4096 25.4406 67.732 25.8398C67.9385 26.1392 68.2126 26.3859 68.532 26.5598C68.6942 26.6474 68.8757 26.6932 69.06 26.6932C69.2443 26.6932 69.4258 26.6474 69.588 26.5598" fill="#EB996E"/>
<path d="M69.324 25.232C69.38 25.26 69.12 25.532 68.684 25.344C68.4565 25.2322 68.2805 25.0375 68.192 24.8C68.0914 24.5249 68.0465 24.2326 68.06 23.94C68.0654 23.6286 68.1817 23.3293 68.388 23.096C68.4752 22.9967 68.584 22.9188 68.7061 22.8682C68.8281 22.8176 68.9601 22.7956 69.092 22.804C69.56 22.856 69.66 23.204 69.608 23.204C69.556 23.204 69.408 23.048 69.092 23.076C68.8961 23.1229 68.7234 23.2381 68.6046 23.4008C68.4859 23.5635 68.4289 23.7631 68.444 23.964C68.444 24.484 68.56 24.976 68.816 25.132C69.072 25.288 69.3 25.2 69.324 25.232Z" fill="#D1734A"/>
<path d="M79.528 14.3998C79.3458 14.9001 79.3418 15.4479 79.5167 15.9507C79.6916 16.4536 80.0347 16.8807 80.488 17.1598C81.008 17.4598 81.648 17.5598 82.088 17.9598C82.4975 18.4043 82.7357 18.9799 82.76 19.5838C82.7807 20.1813 82.8927 20.7722 83.092 21.3358C83.2016 21.6139 83.3975 21.8495 83.651 22.0079C83.9044 22.1663 84.202 22.2392 84.5 22.2158L85.504 19.2518C85.872 18.1638 86.244 16.9998 85.98 15.8758C85.604 14.2758 84.02 13.2278 82.436 12.7918C81.7104 12.534 80.9169 12.5411 80.196 12.8118C79.508 13.1358 79.04 14.0118 79.396 14.6918" fill="#263238"/>
<path d="M60.22 35.748C60.22 35.748 60.316 35.676 60.456 35.496C60.6463 35.2275 60.7597 34.9121 60.784 34.584C60.8016 34.0597 60.7722 33.5349 60.696 33.016C60.6617 32.6796 60.6944 32.3397 60.792 32.016C60.9065 31.6534 61.099 31.3202 61.356 31.04C61.88 30.444 62.612 29.98 63.244 29.344C63.5785 29.0286 63.8275 28.6337 63.968 28.196C64.0859 27.7232 64.0995 27.2305 64.008 26.752C63.932 26.248 63.804 25.736 63.74 25.196C63.6597 24.6352 63.7146 24.0633 63.9 23.528C64.1007 22.9663 64.4409 22.4648 64.8888 22.0709C65.3366 21.6769 65.8773 21.4034 66.46 21.276C67.636 21.016 68.86 21.176 69.82 20.68C70.2872 20.4269 70.6572 20.0259 70.872 19.54C71.0781 19.0628 71.2479 18.5707 71.38 18.068C71.5102 17.575 71.7081 17.1025 71.968 16.664C72.2366 16.2505 72.6244 15.9283 73.08 15.74C73.8954 15.4653 74.7612 15.3738 75.616 15.472C76.3061 15.5396 77.0024 15.4991 77.68 15.352C78.1862 15.2319 78.653 14.984 79.036 14.632C79.2529 14.3843 79.392 14.0782 79.436 13.752C79.476 13.532 79.476 13.408 79.488 13.412C79.5004 13.5276 79.5004 13.6443 79.488 13.76C79.4541 14.1033 79.3143 14.4276 79.088 14.688C78.7019 15.0646 78.223 15.3323 77.7 15.464C77.0125 15.626 76.3036 15.6773 75.6 15.616C74.7678 15.529 73.9266 15.626 73.136 15.9C72.7149 16.0774 72.3578 16.3787 72.112 16.764C71.8638 17.1895 71.6754 17.6471 71.552 18.124C71.4192 18.6374 71.248 19.1401 71.04 19.628C70.9223 19.8832 70.7688 20.1202 70.584 20.332C70.3895 20.5458 70.1594 20.7245 69.904 20.86C68.84 21.392 67.62 21.224 66.492 21.48C65.9474 21.6042 65.4429 21.8635 65.0248 22.234C64.6068 22.6045 64.2888 23.0742 64.1 23.6C63.9233 24.1054 63.8698 24.6457 63.944 25.176C64.004 25.7 64.128 26.212 64.204 26.728C64.2991 27.2336 64.2814 27.754 64.152 28.252C63.9976 28.7105 63.7308 29.1231 63.376 29.452C62.716 30.104 61.984 30.556 61.472 31.124C61.2363 31.3716 61.0561 31.6667 60.9437 31.9895C60.8313 32.3123 60.7891 32.6555 60.82 32.996C60.8899 33.5263 60.9073 34.0622 60.872 34.596C60.8378 34.9353 60.7089 35.2583 60.5 35.528C60.4214 35.6183 60.3264 35.693 60.22 35.748Z" fill="#455A64"/>
<path d="M81.66 38.076C81.7269 38.0092 81.7897 37.9384 81.848 37.864C81.9958 37.6372 82.0788 37.3744 82.088 37.104C82.12 36.752 82.028 36.304 82.052 35.8C82.1222 35.2084 82.3673 34.6513 82.756 34.2C83.128 33.684 83.624 33.148 83.756 32.428C83.888 31.708 83.58 30.936 83.428 30.096C83.3396 29.6541 83.3574 29.1976 83.48 28.764C83.6287 28.3316 83.8374 27.9223 84.1 27.548C84.356 27.148 84.64 26.788 84.86 26.38C85.0998 25.9795 85.2372 25.5261 85.26 25.06C85.2411 24.594 85.0868 24.1436 84.816 23.764C84.5421 23.373 84.3203 22.9481 84.156 22.5C83.884 21.568 84.096 20.656 84.156 19.828C84.1997 19.4286 84.1916 19.0253 84.132 18.628C84.0734 18.2554 83.9251 17.9026 83.7 17.6C83.2485 17.082 82.694 16.6638 82.072 16.372C81.5482 16.1221 81.0499 15.822 80.584 15.476C80.2258 15.2128 79.9249 14.8793 79.7 14.496C79.561 14.2509 79.4802 13.9772 79.464 13.696C79.4566 13.5995 79.4633 13.5025 79.484 13.408C79.484 13.408 79.484 13.508 79.508 13.692C79.539 13.9616 79.6291 14.2211 79.772 14.452C80 14.8147 80.2961 15.1299 80.644 15.38C81.111 15.7118 81.6078 15.9997 82.128 16.24C82.7774 16.5313 83.3571 16.9582 83.828 17.492C84.0765 17.8108 84.2427 18.1858 84.312 18.584C84.3781 18.9993 84.3902 19.4215 84.348 19.84C84.292 20.684 84.096 21.58 84.348 22.436C84.509 22.8617 84.7241 23.2651 84.988 23.636C85.2817 24.0468 85.4473 24.5353 85.464 25.04C85.4412 25.5415 85.2942 26.0294 85.036 26.46C84.804 26.884 84.52 27.26 84.268 27.66C84.0102 28.0209 83.8054 28.4169 83.66 28.836C83.5418 29.2388 83.5226 29.6641 83.604 30.076C83.74 30.876 84.064 31.676 83.912 32.476C83.8345 32.8425 83.6835 33.1895 83.468 33.496C83.268 33.792 83.068 34.052 82.864 34.296C82.4866 34.7192 82.2406 35.2432 82.156 35.804C82.12 36.3 82.2 36.744 82.156 37.108C82.1369 37.389 82.0368 37.6585 81.868 37.884C81.8147 37.9634 81.7435 38.0292 81.66 38.076Z" fill="#455A64"/>
<path d="M56.136 33.8718C56.136 33.8718 56.268 33.8718 56.516 33.8998C56.8785 33.9075 57.2385 33.8379 57.572 33.6958C58.1064 33.4778 58.5672 33.1113 58.9 32.6398C59.3242 32.01 59.5715 31.2778 59.616 30.5198C59.712 29.6798 59.5 28.7678 59.476 27.7478C59.4482 27.2132 59.5657 26.681 59.816 26.2078C60.1484 25.7511 60.5808 25.3762 61.08 25.1118C61.5776 24.8529 61.9828 24.4463 62.24 23.9478C62.4235 23.3866 62.5101 22.7981 62.496 22.2078C62.5024 21.5711 62.6244 20.9409 62.856 20.3478C62.9817 20.04 63.165 19.759 63.396 19.5198C63.6547 19.2909 63.9743 19.1422 64.316 19.0918C64.98 18.9758 65.624 19.0438 66.244 18.9758C66.8457 18.9325 67.4125 18.6774 67.844 18.2558C68.258 17.8355 68.5988 17.3487 68.852 16.8158C69.12 16.2958 69.328 15.7598 69.584 15.2478C69.8212 14.7437 70.1238 14.2729 70.484 13.8478C70.8268 13.4354 71.2787 13.1277 71.788 12.9598C72.2703 12.8217 72.7817 12.8217 73.264 12.9598C73.6963 13.0822 74.1177 13.2401 74.524 13.4318C75.1939 13.7919 75.9251 14.0238 76.68 14.1158C77.2531 14.1438 77.826 14.0553 78.364 13.8558C78.8234 13.6838 79.2538 13.4423 79.64 13.1398C79.5549 13.2352 79.4596 13.321 79.356 13.3958C79.061 13.6181 78.7365 13.7985 78.392 13.9318C77.8469 14.1494 77.2626 14.2515 76.676 14.2318C75.9049 14.151 75.1558 13.9257 74.468 13.5678C74.0674 13.3808 73.6512 13.2296 73.224 13.1158C72.7718 12.9858 72.2922 12.9858 71.84 13.1158C71.3631 13.2789 70.9408 13.571 70.62 13.9598C70.2745 14.3768 69.9841 14.8366 69.756 15.3278C69.272 16.3198 68.896 17.5038 67.984 18.3958C67.75 18.621 67.4795 18.805 67.184 18.9398C66.8852 19.0679 66.5679 19.1475 66.244 19.1758C65.6 19.2438 64.952 19.1758 64.332 19.2878C64.0349 19.3343 63.7573 19.4647 63.532 19.6638C63.3213 19.8844 63.1531 20.1421 63.036 20.4238C62.8179 20.9952 62.7014 21.6003 62.692 22.2118C62.7044 22.8259 62.6111 23.4374 62.416 24.0198C62.1418 24.5532 61.7085 24.9879 61.176 25.2638C60.7044 25.5127 60.2943 25.864 59.976 26.2918C59.7398 26.7366 59.6278 27.2368 59.652 27.7398C59.652 28.7238 59.872 29.6638 59.768 30.5398C59.7108 31.3195 59.4456 32.0695 59 32.7118C58.6507 33.1907 58.1719 33.5598 57.62 33.7758C57.275 33.9145 56.903 33.9733 56.532 33.9478C56.3973 33.9397 56.2642 33.9142 56.136 33.8718Z" fill="#455A64"/>
<path d="M85.532 18.6239C85.4991 18.2216 85.3862 17.83 85.2 17.4719C84.9808 17.0952 84.6916 16.764 84.348 16.4959C83.9192 16.1744 83.4531 15.9058 82.96 15.6959C82.436 15.4519 81.92 15.2359 81.476 14.9879C81.0753 14.7715 80.7054 14.5024 80.376 14.1879C80.1545 13.9756 79.9693 13.7283 79.828 13.4559C79.7652 13.3614 79.7267 13.2528 79.716 13.1399C79.9255 13.4863 80.1812 13.8025 80.476 14.0799C80.8098 14.3629 81.1764 14.6046 81.568 14.7999C82.004 15.0319 82.516 15.2399 83.048 15.4839C83.5562 15.7076 84.0346 15.9938 84.472 16.3359C84.828 16.6242 85.1196 16.9839 85.328 17.3919C85.4714 17.667 85.5533 17.97 85.568 18.2799C85.5812 18.3958 85.5689 18.5132 85.532 18.6239Z" fill="#455A64"/>
<path d="M76.5 20.5438C76.46 20.5918 76.32 20.5438 76.1 20.4758C75.8048 20.4077 75.5029 20.3728 75.2 20.3718C74.896 20.3685 74.5926 20.4007 74.296 20.4678C74.068 20.5198 73.928 20.5798 73.896 20.5358C73.864 20.4918 73.948 20.3358 74.192 20.1958C74.5066 20.0353 74.8548 19.9517 75.208 19.9517C75.5612 19.9517 75.9094 20.0353 76.224 20.1958C76.432 20.3478 76.52 20.5078 76.5 20.5438Z" fill="#263238"/>
<path d="M82.324 21.3319C82.304 21.4439 81.888 21.4799 81.388 21.4079C80.888 21.3359 80.5 21.1999 80.5 21.0679C80.5 20.9359 80.936 20.9239 81.436 20.9959C81.936 21.0679 82.34 21.2199 82.324 21.3319Z" fill="#263238"/>
<path d="M68.324 26.4319C68.324 26.4319 68.364 26.4599 68.424 26.5319C68.5101 26.637 68.5827 26.7526 68.64 26.8759C68.847 27.3344 68.9084 27.8454 68.816 28.3399C68.6862 29.0597 68.4446 29.7547 68.1 30.3999C67.9089 30.769 67.8469 31.1915 67.924 31.5999C68.0651 32.0287 68.2585 32.4385 68.5 32.8199C68.742 33.2205 68.8478 33.6887 68.8016 34.1544C68.7555 34.6202 68.5599 35.0585 68.244 35.4039C67.9745 35.7117 67.6171 35.9295 67.22 36.0279C66.8843 36.0975 66.5428 36.135 66.2 36.1399C65.7188 36.1267 65.2435 36.2487 64.828 36.4919C64.6855 36.5959 64.56 36.7214 64.456 36.8639C64.456 36.8639 64.456 36.8119 64.508 36.7319C64.5775 36.6135 64.67 36.5101 64.78 36.4279C65.1916 36.1479 65.6782 35.9987 66.176 35.9999C66.5086 35.9853 66.8392 35.9412 67.164 35.8679C67.5286 35.7717 67.8551 35.5666 68.1 35.2799C68.3683 34.9674 68.5406 34.584 68.596 34.1759C68.6398 33.7355 68.5417 33.2926 68.316 32.9119C68.0689 32.5131 67.874 32.0843 67.736 31.6359C67.6567 31.1911 67.727 30.7325 67.936 30.3319C68.108 29.9319 68.296 29.6159 68.412 29.2759C68.5311 28.9646 68.6221 28.6433 68.684 28.3159C68.7834 27.8459 68.7459 27.3572 68.576 26.9079C68.436 26.5919 68.308 26.4439 68.324 26.4319Z" fill="#263238"/>
<path d="M86.9 37.1998C86.8199 37.2366 86.732 37.2531 86.644 37.2478C86.5167 37.24 86.3922 37.2066 86.2781 37.1495C86.1641 37.0925 86.0626 37.013 85.98 36.9158C85.8425 36.7663 85.7414 36.5871 85.6845 36.3922C85.6277 36.1972 85.6165 35.9918 85.652 35.7918C85.7768 35.2753 86.0459 34.805 86.428 34.4358C86.8848 34.0195 87.2879 33.5479 87.628 33.0318C87.7908 32.7388 87.8696 32.4067 87.856 32.0718C87.8326 31.7149 87.7487 31.3646 87.608 31.0358C87.2486 30.3244 86.9281 29.594 86.648 28.8478C86.5238 28.4247 86.5238 27.9749 86.648 27.5518C86.8061 27.1431 87.0059 26.7517 87.244 26.3838C87.4718 26.0399 87.5631 25.6234 87.5 25.2158C87.392 24.8281 87.1788 24.4778 86.884 24.2038C86.608 23.9078 86.304 23.6318 86.048 23.3158C85.7901 23.0058 85.6043 22.6424 85.504 22.2518C85.3479 21.5336 85.3589 20.7891 85.536 20.0758C85.676 19.4118 85.868 18.8118 85.988 18.2558C86.2401 17.3807 86.195 16.4467 85.86 15.5998C85.7205 15.303 85.5311 15.0324 85.3 14.7998C85.3 14.7998 85.3 14.7998 85.356 14.8358C85.4078 14.8725 85.456 14.914 85.5 14.9598C85.6824 15.1445 85.8289 15.3616 85.932 15.5998C86.1039 15.9576 86.2083 16.3441 86.24 16.7398C86.276 17.2615 86.2356 17.7858 86.12 18.2958C86.004 18.8598 85.824 19.4638 85.692 20.1198C85.5337 20.8082 85.5337 21.5235 85.692 22.2118C85.7815 22.5748 85.9525 22.9127 86.192 23.1998C86.436 23.4998 86.736 23.7678 87.024 24.0718C87.3443 24.3676 87.578 24.7452 87.7 25.1638C87.7698 25.6189 87.6717 26.0838 87.424 26.4718C87.1892 26.8269 86.9908 27.2048 86.832 27.5998C86.7169 27.9915 86.7169 28.4081 86.832 28.7998C87.1059 29.5383 87.4183 30.262 87.768 30.9678C87.9158 31.3183 88.0011 31.6919 88.02 32.0718C88.0323 32.438 87.9437 32.8005 87.764 33.1198C87.4109 33.6437 86.9929 34.1208 86.52 34.5398C86.1493 34.8846 85.8831 35.3268 85.752 35.8158C85.7126 35.9999 85.717 36.1907 85.7649 36.3727C85.8129 36.5548 85.903 36.723 86.028 36.8638C86.1767 37.0536 86.3932 37.1783 86.632 37.2118C86.812 37.1998 86.9 37.1758 86.9 37.1998Z" fill="#263238"/>
<path d="M102.596 42.5919C102.336 42.2542 102.045 41.9409 101.728 41.6559C101.37 41.4254 100.994 41.2247 100.604 41.0559C100.831 41.0421 101.059 41.0736 101.274 41.1484C101.489 41.2233 101.687 41.34 101.856 41.4919C102.048 41.6155 102.212 41.7767 102.339 41.9658C102.466 42.1549 102.554 42.3679 102.596 42.5919Z" fill="#D1734A"/>
<path d="M96.632 64.5118C96.3445 63.9421 96.1488 63.3306 96.052 62.6998C95.8908 62.0802 95.8327 61.4383 95.88 60.7998C96.0395 61.411 96.1651 62.0307 96.256 62.6558C96.4181 63.2664 96.5437 63.8862 96.632 64.5118Z" fill="#D1734A"/>
<path d="M71.124 60.0278C71.8255 59.7939 72.4432 59.3599 72.9009 58.7792C73.3587 58.1985 73.6364 57.4965 73.7 56.7598C73.916 54.6758 72.5 52.8238 70.584 52.6198C68.668 52.4158 66.904 53.9478 66.688 56.0318C66.5991 56.7724 66.7308 57.5228 67.0667 58.1889C67.4026 58.8549 67.9276 59.407 68.576 59.7758C65.576 59.9318 64.124 61.7758 63.416 63.4238C64.5253 64.9855 66.1595 66.0958 68.02 66.5518L70.18 66.7758C72.1207 66.709 73.9701 65.9351 75.38 64.5998C75.024 62.8438 73.98 60.7598 71.124 60.0278Z" fill="white"/>
<g opacity="0.3">
<path d="M55.172 58.6279L56.948 56.7959C56.948 56.7959 56.18 70.0359 55.656 71.6279C55.132 73.2199 52.388 78.5199 52.388 78.5199L54.756 71.2759L55.172 58.6279Z" fill="black"/>
</g>
<path d="M59.104 54.552C59.144 54.592 57.584 56.284 55.616 58.332C53.648 60.38 52.016 62.012 51.972 61.972C51.928 61.932 53.496 60.24 55.464 58.188C57.432 56.136 59.064 54.512 59.104 54.552Z" fill="#263238"/>
<path d="M83.932 53.5159C83.9393 53.6495 83.9326 53.7836 83.912 53.9159C83.888 54.1799 83.844 54.5639 83.78 55.0399C83.652 55.9839 83.436 57.2879 83.14 58.7119C82.844 60.1359 82.52 61.4199 82.26 62.3399C82.128 62.7999 82.016 63.1679 81.932 63.4239C81.9007 63.5638 81.8495 63.6985 81.78 63.8239C81.7904 63.6884 81.8145 63.5544 81.852 63.4239C81.928 63.1199 82.012 62.7559 82.116 62.3279C82.34 61.3999 82.64 60.1199 82.936 58.6959C83.232 57.2719 83.468 55.9799 83.636 55.0399C83.712 54.6079 83.776 54.2399 83.832 53.9279C83.8458 53.7865 83.8794 53.6478 83.932 53.5159Z" fill="#263238"/>
<path d="M75.88 28.2799C75.9703 28.2031 76.0755 28.1461 76.1891 28.1123C76.3027 28.0785 76.422 28.0688 76.5396 28.0837C76.6571 28.0987 76.7702 28.138 76.8717 28.1991C76.9732 28.2603 77.0608 28.3419 77.129 28.4388C77.1971 28.5358 77.2443 28.6458 77.2675 28.762C77.2907 28.8782 77.2894 28.998 77.2638 29.1136C77.2381 29.2293 77.1885 29.3383 77.1183 29.4338C77.0481 29.5292 76.9588 29.609 76.856 29.6679C76.7513 29.724 76.636 29.7577 76.5176 29.767C76.3992 29.7763 76.2801 29.761 76.1679 29.722C76.0557 29.683 75.9527 29.6212 75.8656 29.5404C75.7785 29.4597 75.709 29.3617 75.6616 29.2528C75.6142 29.1439 75.5899 29.0263 75.5902 28.9075C75.5905 28.7887 75.6154 28.6712 75.6634 28.5626C75.7113 28.4539 75.7813 28.3563 75.8688 28.276C75.9564 28.1957 76.0596 28.1343 76.172 28.0959" fill="#23662A"/>
<path d="M75.964 27.3878C76.068 27.3878 75.964 28.0918 76.5 28.6638C77.036 29.2358 77.78 29.2678 77.772 29.3638C77.764 29.4598 77.588 29.4758 77.272 29.4398C76.8639 29.3908 76.4867 29.1979 76.208 28.8958C75.9417 28.6065 75.7983 28.225 75.808 27.8318C75.816 27.5358 75.916 27.3758 75.964 27.3878Z" fill="#263238"/>
<path d="M67.088 17.028C67.5458 16.4618 67.8404 15.7813 67.94 15.06C67.9427 14.544 67.7574 14.0446 67.4188 13.6552C67.0802 13.2658 66.6114 13.013 66.1 12.944C65.5835 12.9077 65.0702 13.0512 64.6474 13.3501C64.2246 13.649 63.9181 14.0849 63.78 14.584C63.6713 15.0906 63.7294 15.6187 63.9457 16.0895C64.162 16.5603 64.5248 16.9485 64.98 17.196C65.4448 17.4245 65.9684 17.5051 66.4804 17.4272C66.9924 17.3493 67.4683 17.1164 67.844 16.76" fill="#263238"/>
<path d="M68.004 14.9519C68.0585 15.474 67.9158 15.9976 67.604 16.4199C67.3473 16.8786 66.9275 17.2241 66.428 17.3879C66.7974 17.0616 67.1324 16.6983 67.428 16.3039C67.6658 15.8741 67.8588 15.4211 68.004 14.9519Z" fill="#455A64"/>
<path d="M66.772 17.1998C66.7879 16.4498 66.6991 15.7013 66.508 14.9758C66.2533 14.2629 65.8991 13.5896 65.456 12.9758C65.456 12.9758 65.68 13.1158 65.944 13.4438C66.287 13.8745 66.5462 14.3656 66.708 14.8918C66.8734 15.4164 66.9411 15.9668 66.908 16.5158C66.9135 16.7511 66.8671 16.9846 66.772 17.1998Z" fill="#455A64"/>
<path d="M80.876 90.364C86.485 90.364 91.032 85.817 91.032 80.208C91.032 74.599 86.485 70.052 80.876 70.052C75.267 70.052 70.72 74.599 70.72 80.208C70.72 85.817 75.267 90.364 80.876 90.364Z" fill="#23662A"/>
<g opacity="0.3">
<path d="M80.876 90.364C86.485 90.364 91.032 85.817 91.032 80.208C91.032 74.599 86.485 70.052 80.876 70.052C75.267 70.052 70.72 74.599 70.72 80.208C70.72 85.817 75.267 90.364 80.876 90.364Z" fill="black"/>
</g>
<path d="M80.876 88.48C86.485 88.48 91.032 83.933 91.032 78.324C91.032 72.715 86.485 68.168 80.876 68.168C75.267 68.168 70.72 72.715 70.72 78.324C70.72 83.933 75.267 88.48 80.876 88.48Z" fill="#23662A"/>
<path d="M80.876 84.332C80.588 84.332 80.352 81.64 80.352 78.332C80.352 75.024 80.588 72.332 80.876 72.332C81.164 72.332 81.396 75.024 81.396 78.332C81.396 81.64 81.16 84.332 80.876 84.332Z" fill="white"/>
<path d="M86.9 78.324C86.9 78.612 84.212 78.844 80.9 78.844C77.588 78.844 74.9 78.612 74.9 78.324C74.9 78.036 77.588 77.804 80.9 77.804C84.212 77.804 86.9 78.036 86.9 78.324Z" fill="white"/>
</svg>
