<svg width="160" height="160" viewBox="0 0 160 160" fill="none" xmlns="http://www.w3.org/2000/svg">
<g clip-path="url(#clip0_247_7454)">
<g clip-path="url(#clip1_247_7454)">
<path d="M29.8055 129.947C29.8055 129.947 12.5952 129.813 8.66915 132.357C4.74307 134.901 15.0564 137.96 26.3232 141.46C37.5901 144.959 40.001 150.545 51.7712 150.831C63.5415 151.117 79.1476 150.831 98.0855 150.831C117.023 150.831 138.221 152.262 143.261 149.114C148.3 145.966 157.682 144.579 155.493 140.55C153.303 136.522 154.006 133.86 128.322 132.472C102.637 131.084 29.8055 129.947 29.8055 129.947Z" fill="#CED4DD"/>
<mask id="mask0_247_7454" style="mask-type:luminance" maskUnits="userSpaceOnUse" x="0" y="0" width="160" height="160">
<path d="M160 0H0V160H160V0Z" fill="white"/>
</mask>
<g mask="url(#mask0_247_7454)">
<path d="M26.8414 131.271H23.3866C21.7495 131.271 20.4225 129.944 20.4225 128.307V91.0401C20.4225 89.403 21.7495 88.0759 23.3866 88.0759H26.8414C28.4785 88.0759 29.8055 89.403 29.8055 91.0401V128.307C29.8055 129.944 28.4782 131.271 26.8414 131.271Z" fill="#EAEAEA"/>
<path d="M70.7665 131.271H67.3121C65.6749 131.271 64.3479 129.944 64.3479 128.307V91.0401C64.3479 89.403 65.6749 88.0759 67.3121 88.0759H70.7668C72.4039 88.0759 73.7309 89.403 73.7309 91.0401V128.307C73.7306 129.944 72.4036 131.271 70.7665 131.271Z" fill="#EAEAEA"/>
<path d="M61.3837 130.942H32.7693C31.1322 130.942 29.8052 129.615 29.8052 127.978V99.3633C29.8052 97.7262 31.1322 96.3992 32.7693 96.3992H61.3837C63.0209 96.3992 64.3479 97.7262 64.3479 99.3633V127.978C64.3479 129.615 63.0209 130.942 61.3837 130.942Z" fill="#EAEAEA"/>
<path d="M61.3837 100.43H32.7693C31.1322 100.43 29.8052 99.1028 29.8052 97.4657V72.2049C29.8052 70.5678 31.1322 69.2407 32.7693 69.2407H61.3837C63.0209 69.2407 64.3479 70.5678 64.3479 72.2049V97.466C64.3479 99.1028 63.0209 100.43 61.3837 100.43Z" fill="#EAEAEA"/>
<path d="M25.7396 131.271H24.1758V133.6H25.7396V131.271Z" fill="#EAEAEA"/>
<path d="M69.8212 131.271H68.2573V133.6H69.8212V131.271Z" fill="#EAEAEA"/>
<path d="M25.362 51.2231H-6.37146L-3.17146 29.313H22.162L25.362 51.2231Z" fill="#EAEAEA"/>
<path d="M8.66881 50.8934H8.02881V130.612H8.66881V50.8934Z" fill="#EAEAEA"/>
<path d="M20.3194 130.613H-3.4502V133.393H20.3194V130.613Z" fill="#EAEAEA"/>
</g>
<mask id="mask1_247_7454" style="mask-type:luminance" maskUnits="userSpaceOnUse" x="0" y="0" width="160" height="160">
<path d="M160 0H0V160H160V0Z" fill="white"/>
</mask>
<g mask="url(#mask1_247_7454)">
<path d="M86.1229 135.837C86.1229 135.837 80.5626 138.201 75.6976 134.447C70.8323 130.694 63.0483 104.562 66.8013 100.391C70.5543 96.2211 75.9671 108.732 75.9671 108.732C75.9671 108.732 70.6765 85.3789 75.9671 83.2938C81.2576 81.2087 83.3427 100.391 83.3427 100.391C83.3427 100.391 88.8995 71.2003 95.1565 73.8416C101.413 76.4829 93.6291 100.113 93.6291 100.113C93.6291 100.113 102.247 84.545 107.252 88.1591C112.256 91.7731 96.4093 112.485 96.4093 112.485C96.4093 112.485 107.669 99.5575 112.395 104.284C117.121 109.01 92.6563 132.084 86.1229 135.837Z" fill="#41A592"/>
</g>
<mask id="mask2_247_7454" style="mask-type:luminance" maskUnits="userSpaceOnUse" x="0" y="0" width="160" height="160">
<path d="M160 0H0V160H160V0Z" fill="white"/>
</mask>
<g mask="url(#mask2_247_7454)">
<path d="M148.689 132.138C148.292 131.176 147.974 130.177 147.67 129.182C146.892 126.638 146.296 124.036 145.867 121.411C144.571 113.487 144.903 105.347 147.317 97.6653C149.283 91.4128 151.28 85.1706 153.286 78.9309C155.169 73.0711 157.062 67.2144 158.962 61.3597C159.614 59.3495 160.267 57.3392 160.921 55.3296C161.23 54.3786 161.606 53.4253 161.856 52.4563C161.868 52.4125 161.885 52.3696 161.899 52.3267C161.59 52.3267 161.281 52.3267 160.973 52.3267C161.064 52.8656 161.143 53.4071 161.222 53.9479C161.264 54.2397 161.306 54.5315 161.346 54.8234C161.369 54.9879 161.391 55.1523 161.413 55.3168C161.42 55.3645 161.426 55.4122 161.433 55.4602C161.421 55.3747 161.429 55.4295 161.435 55.4787C161.449 55.5792 161.462 55.6797 161.475 55.7805C161.588 56.6397 161.695 57.4999 161.796 58.3607C162.061 60.6301 162.286 62.9043 162.475 65.1818C162.711 68.0346 162.889 70.8922 163.005 73.7523C163.136 76.9901 163.187 80.2314 163.143 83.4714C163.097 86.9402 162.943 90.4087 162.65 93.8656C162.355 97.3616 161.917 100.846 161.283 104.298C160.663 107.674 159.857 111.021 158.786 114.284C157.781 117.346 156.538 120.335 154.957 123.147C153.465 125.801 151.671 128.289 149.509 130.438C148.988 130.956 148.447 131.452 147.887 131.927C147.415 132.327 148.097 133.003 148.566 132.605C150.906 130.62 152.893 128.244 154.557 125.67C156.309 122.96 157.7 120.028 158.84 117.012C160.045 113.825 160.963 110.532 161.68 107.203C162.429 103.729 162.96 100.21 163.34 96.6768C163.716 93.1837 163.939 89.6749 164.045 86.1635C164.145 82.8247 164.14 79.4826 164.047 76.1437C163.963 73.1421 163.808 70.1424 163.589 67.1479C163.409 64.7011 163.187 62.2573 162.92 59.8186C162.729 58.0659 162.514 56.3155 162.271 54.5693C162.161 53.7744 162.079 52.961 161.915 52.1747C161.908 52.1411 161.904 52.1066 161.898 52.0727C161.814 51.5731 161.106 51.6615 160.972 52.0727C160.17 54.5312 159.371 56.9904 158.573 59.4499C156.729 65.129 154.892 70.8099 153.062 76.4938C151.017 82.848 148.98 89.2051 146.971 95.5715C146.399 97.3853 145.815 99.1933 145.387 101.048C144.902 103.142 144.569 105.272 144.37 107.412C144.007 111.3 144.103 115.225 144.575 119.099C145.116 123.532 146.057 128.029 147.687 132.202C147.712 132.267 147.737 132.331 147.764 132.395C147.996 132.956 148.925 132.709 148.689 132.138Z" fill="#41A592"/>
</g>
<mask id="mask3_247_7454" style="mask-type:luminance" maskUnits="userSpaceOnUse" x="0" y="0" width="160" height="160">
<path d="M160 0H0V160H160V0Z" fill="white"/>
</mask>
<g mask="url(#mask3_247_7454)">
<path d="M147.984 136.705C147.984 136.705 140.725 119.07 156.291 99.4521C171.856 79.8345 171.039 77.3574 171.039 77.3574C171.039 77.3574 172.824 130.018 147.984 136.705Z" fill="#41A592"/>
</g>
<path d="M147.419 136.918H94.7929C93.1705 136.918 91.8553 135.602 91.8553 133.98V29.9017C91.8553 28.2793 93.1705 26.9638 94.7929 26.9641H147.419C149.041 26.9641 150.356 28.2793 150.356 29.9017V133.98C150.356 135.602 149.041 136.918 147.419 136.918Z" fill="#404568"/>
<path d="M146.096 26.9639H144.227C147.612 26.9639 150.356 29.7082 150.356 33.0938V130.788C150.356 134.173 147.612 136.918 144.227 136.918H146.096C149.482 136.918 152.226 134.173 152.226 130.788V33.0938C152.227 29.7082 149.482 26.9639 146.096 26.9639Z" fill="#1C1F33"/>
<path d="M145.52 134.972H96.6922C95.1974 134.972 93.9856 133.76 93.9856 132.266V31.6615C93.9856 30.1668 95.1974 28.955 96.6922 28.955H145.52C147.015 28.955 148.227 30.1668 148.227 31.6615V132.266C148.227 133.76 147.015 134.972 145.52 134.972Z" fill="white"/>
<path d="M113.819 31.1537H124.73C125.555 31.1537 126.341 30.8074 126.899 30.1994L128.04 28.955H110.386L111.75 30.3038C112.301 30.8481 113.044 31.1537 113.819 31.1537Z" fill="#404568"/>
<path d="M102.084 51.5603H98.3527C97.8205 51.5603 97.3892 51.1289 97.3892 50.5968C97.3892 50.0646 97.8205 49.6329 98.3527 49.6329H102.084C102.616 49.6329 103.048 50.0643 103.048 50.5968C103.048 51.1286 102.617 51.5603 102.084 51.5603Z" fill="#C2CBDA"/>
<path d="M108.786 51.5603H105.055C104.523 51.5603 104.091 51.1289 104.091 50.5968C104.091 50.0646 104.522 49.6329 105.055 49.6329H108.786C109.318 49.6329 109.75 50.0643 109.75 50.5968C109.75 51.1286 109.319 51.5603 108.786 51.5603Z" fill="#C2CBDA"/>
<path d="M115.488 51.5603H111.757C111.225 51.5603 110.793 51.1289 110.793 50.5968C110.793 50.0646 111.224 49.6329 111.757 49.6329H115.488C116.02 49.6329 116.452 50.0643 116.452 50.5968C116.452 51.1286 116.021 51.5603 115.488 51.5603Z" fill="#C2CBDA"/>
<path d="M122.19 51.5603H118.459C117.927 51.5603 117.495 51.1289 117.495 50.5968C117.495 50.0646 117.926 49.6329 118.459 49.6329H122.19C122.723 49.6329 123.154 50.0643 123.154 50.5968C123.154 51.1286 122.723 51.5603 122.19 51.5603Z" fill="#C2CBDA"/>
<path d="M128.893 51.5603H125.161C124.629 51.5603 124.197 51.1289 124.197 50.5968C124.197 50.0646 124.629 49.6329 125.161 49.6329H128.893C129.425 49.6329 129.856 50.0643 129.856 50.5968C129.856 51.1286 129.425 51.5603 128.893 51.5603Z" fill="#C2CBDA"/>
<path d="M135.595 51.5603H131.863C131.331 51.5603 130.9 51.1289 130.9 50.5968C130.9 50.0646 131.331 49.6329 131.863 49.6329H135.595C136.127 49.6329 136.558 50.0643 136.558 50.5968C136.558 51.1286 136.127 51.5603 135.595 51.5603Z" fill="#C2CBDA"/>
<path d="M142.297 51.5603H138.565C138.033 51.5603 137.602 51.1289 137.602 50.5968C137.602 50.0646 138.033 49.6329 138.565 49.6329H142.297C142.829 49.6329 143.261 50.0643 143.261 50.5968C143.261 51.1286 142.829 51.5603 142.297 51.5603Z" fill="#C2CBDA"/>
<path d="M106.635 57.8317C107.35 57.8317 107.929 57.2521 107.929 56.537C107.929 55.822 107.35 55.2423 106.635 55.2423C105.92 55.2423 105.34 55.822 105.34 56.537C105.34 57.2521 105.92 57.8317 106.635 57.8317Z" fill="#DFE6EF"/>
<path d="M113.623 57.8317C114.338 57.8317 114.917 57.2521 114.917 56.537C114.917 55.822 114.338 55.2423 113.623 55.2423C112.908 55.2423 112.328 55.822 112.328 56.537C112.328 57.2521 112.908 57.8317 113.623 57.8317Z" fill="#DFE6EF"/>
<path d="M134.025 34.4445C134.025 35.665 133.036 36.6547 131.815 36.6547C130.594 36.6547 129.604 35.6653 129.604 34.4445C129.604 33.224 130.594 32.2343 131.815 32.2343C133.036 32.2346 134.025 33.224 134.025 34.4445Z" fill="#DFE6EF"/>
<path d="M120.325 57.8317C121.04 57.8317 121.619 57.2521 121.619 56.537C121.619 55.822 121.04 55.2423 120.325 55.2423C119.61 55.2423 119.03 55.822 119.03 56.537C119.03 57.2521 119.61 57.8317 120.325 57.8317Z" fill="#DFE6EF"/>
<path d="M128.322 56.537C128.322 57.2519 127.742 57.8317 127.027 57.8317C126.312 57.8317 125.732 57.2522 125.732 56.537C125.732 55.8221 126.312 55.2423 127.027 55.2423C127.742 55.2426 128.322 55.8221 128.322 56.537Z" fill="#DFE6EF"/>
<path d="M135.024 56.537C135.024 57.2519 134.444 57.8317 133.729 57.8317C133.014 57.8317 132.434 57.2522 132.434 56.537C132.434 55.8221 133.014 55.2423 133.729 55.2423C134.444 55.2426 135.024 55.8221 135.024 56.537Z" fill="#DFE6EF"/>
<path d="M140.431 57.8317C141.146 57.8317 141.726 57.2521 141.726 56.537C141.726 55.822 141.146 55.2423 140.431 55.2423C139.716 55.2423 139.136 55.822 139.136 56.537C139.136 57.2521 139.716 57.8317 140.431 57.8317Z" fill="#DFE6EF"/>
<path d="M107.929 64.1674C107.929 64.8823 107.35 65.4621 106.635 65.4621C105.92 65.4621 105.34 64.8826 105.34 64.1674C105.34 63.4525 105.919 62.8727 106.635 62.8727C107.349 62.8727 107.929 63.4522 107.929 64.1674Z" fill="#DFE6EF"/>
<path d="M114.917 64.1674C114.917 64.8823 114.338 65.4621 113.623 65.4621C112.908 65.4621 112.328 64.8826 112.328 64.1674C112.328 63.4525 112.908 62.8727 113.623 62.8727C114.338 62.8727 114.917 63.4522 114.917 64.1674Z" fill="#DFE6EF"/>
<path d="M121.619 64.1674C121.619 64.8823 121.04 65.4621 120.325 65.4621C119.61 65.4621 119.03 64.8826 119.03 64.1674C119.03 63.4525 119.61 62.8727 120.325 62.8727C121.04 62.8727 121.619 63.4522 121.619 64.1674Z" fill="#DFE6EF"/>
<path d="M128.322 64.1674C128.322 64.8823 127.742 65.4621 127.027 65.4621C126.312 65.4621 125.732 64.8826 125.732 64.1674C125.732 63.4525 126.312 62.8727 127.027 62.8727C127.742 62.8727 128.322 63.4522 128.322 64.1674Z" fill="#A0D0FC"/>
<path d="M135.024 64.1674C135.024 64.8823 134.444 65.4621 133.729 65.4621C133.014 65.4621 132.434 64.8826 132.434 64.1674C132.434 63.4525 133.014 62.8727 133.729 62.8727C134.444 62.8727 135.024 63.4522 135.024 64.1674Z" fill="#DFE6EF"/>
<path d="M141.726 64.1674C141.726 64.8823 141.146 65.4621 140.431 65.4621C139.716 65.4621 139.136 64.8826 139.136 64.1674C139.136 63.4525 139.716 62.8727 140.431 62.8727C141.146 62.8727 141.726 63.4522 141.726 64.1674Z" fill="#DFE6EF"/>
<path d="M106.635 73.0921C107.35 73.0921 107.929 72.5125 107.929 71.7974C107.929 71.0824 107.35 70.5027 106.635 70.5027C105.92 70.5027 105.34 71.0824 105.34 71.7974C105.34 72.5125 105.92 73.0921 106.635 73.0921Z" fill="#DFE6EF"/>
<path d="M113.623 73.0921C114.338 73.0921 114.917 72.5125 114.917 71.7974C114.917 71.0824 114.338 70.5027 113.623 70.5027C112.908 70.5027 112.328 71.0824 112.328 71.7974C112.328 72.5125 112.908 73.0921 113.623 73.0921Z" fill="#DFE6EF"/>
<path d="M120.325 73.0921C121.04 73.0921 121.619 72.5125 121.619 71.7974C121.619 71.0824 121.04 70.5027 120.325 70.5027C119.61 70.5027 119.03 71.0824 119.03 71.7974C119.03 72.5125 119.61 73.0921 120.325 73.0921Z" fill="#DFE6EF"/>
<path d="M128.322 71.7974C128.322 72.5123 127.742 73.0921 127.027 73.0921C126.312 73.0921 125.732 72.5126 125.732 71.7974C125.732 71.0825 126.312 70.5027 127.027 70.5027C127.742 70.5027 128.322 71.0822 128.322 71.7974Z" fill="#DFE6EF"/>
<path d="M135.024 71.7974C135.024 72.5123 134.444 73.0921 133.729 73.0921C133.014 73.0921 132.434 72.5126 132.434 71.7974C132.434 71.0825 133.014 70.5027 133.729 70.5027C134.444 70.5027 135.024 71.0822 135.024 71.7974Z" fill="#DFE6EF"/>
<path d="M140.431 73.0921C141.146 73.0921 141.726 72.5125 141.726 71.7974C141.726 71.0824 141.146 70.5027 140.431 70.5027C139.716 70.5027 139.136 71.0824 139.136 71.7974C139.136 72.5125 139.716 73.0921 140.431 73.0921Z" fill="#DFE6EF"/>
<path d="M107.929 80.7222C107.929 81.4371 107.35 82.0169 106.635 82.0169C105.92 82.0169 105.34 81.4374 105.34 80.7222C105.34 80.0073 105.919 79.4275 106.635 79.4275C107.349 79.4275 107.929 80.007 107.929 80.7222Z" fill="#DFE6EF"/>
<path d="M101.513 64.1674C101.513 64.8823 100.934 65.4621 100.219 65.4621C99.5037 65.4621 98.9238 64.8826 98.9238 64.1674C98.9238 63.4525 99.5034 62.8727 100.219 62.8727C100.933 62.8727 101.513 63.4522 101.513 64.1674Z" fill="#DFE6EF"/>
<path d="M101.513 71.7974C101.513 72.5123 100.934 73.0921 100.219 73.0921C99.5037 73.0921 98.9238 72.5126 98.9238 71.7974C98.9238 71.0825 99.5034 70.5027 100.219 70.5027C100.933 70.5027 101.513 71.0822 101.513 71.7974Z" fill="#DFE6EF"/>
<path d="M101.513 80.7222C101.513 81.4371 100.934 82.0169 100.219 82.0169C99.5037 82.0169 98.9238 81.4374 98.9238 80.7222C98.9238 80.0073 99.5034 79.4275 100.219 79.4275C100.933 79.4275 101.513 80.007 101.513 80.7222Z" fill="#DFE6EF"/>
<path d="M114.917 80.7222C114.917 81.4371 114.338 82.0169 113.623 82.0169C112.908 82.0169 112.328 81.4374 112.328 80.7222C112.328 80.0073 112.908 79.4275 113.623 79.4275C114.338 79.4275 114.917 80.007 114.917 80.7222Z" fill="#DFE6EF"/>
<path d="M121.619 80.7222C121.619 81.4371 121.04 82.0169 120.325 82.0169C119.61 82.0169 119.03 81.4374 119.03 80.7222C119.03 80.0073 119.61 79.4275 120.325 79.4275C121.04 79.4275 121.619 80.007 121.619 80.7222Z" fill="#DFE6EF"/>
<path d="M128.322 80.7222C128.322 81.4371 127.742 82.0169 127.027 82.0169C126.312 82.0169 125.732 81.4374 125.732 80.7222C125.732 80.0073 126.312 79.4275 127.027 79.4275C127.742 79.4275 128.322 80.007 128.322 80.7222Z" fill="#DFE6EF"/>
<path d="M135.024 80.7222C135.024 81.4371 134.444 82.0169 133.729 82.0169C133.014 82.0169 132.434 81.4374 132.434 80.7222C132.434 80.0073 133.014 79.4275 133.729 79.4275C134.444 79.4275 135.024 80.007 135.024 80.7222Z" fill="#DFE6EF"/>
<path d="M141.726 80.7222C141.726 81.4371 141.146 82.0169 140.431 82.0169C139.716 82.0169 139.136 81.4374 139.136 80.7222C139.136 80.0073 139.716 79.4275 140.431 79.4275C141.146 79.4275 141.726 80.007 141.726 80.7222Z" fill="#DFE6EF"/>
<path d="M97.998 41.2639C97.864 41.2639 97.74 41.2379 97.626 41.1859C97.514 41.1339 97.422 41.0589 97.35 40.9609L97.572 40.6939C97.63 40.7739 97.693 40.8339 97.761 40.8739C97.831 40.9139 97.907 40.9339 97.989 40.9339C98.207 40.9339 98.316 40.8049 98.316 40.5469V39.4609H97.569V39.1339H98.706V40.5259C98.706 40.7739 98.645 40.9589 98.523 41.0809C98.403 41.2029 98.228 41.2639 97.998 41.2639ZM98.9121 41.2339L99.8571 39.1339H100.241L101.189 41.2339H100.781L99.9681 39.3409H100.124L99.3141 41.2339H98.9121ZM99.3471 40.7479L99.4521 40.4419H100.586L100.691 40.7479H99.3471ZM101.456 41.2339V39.1339H101.777L103.094 40.7509H102.935V39.1339H103.322V41.2339H103.001L101.684 39.6169H101.843V41.2339H101.456Z" fill="#404568"/>
<path d="M103.448 91.802H98.3527C97.8205 91.802 97.3892 91.3706 97.3892 90.8381C97.3892 90.3059 97.8205 89.8743 98.3527 89.8743H103.448C103.98 89.8743 104.412 90.3056 104.412 90.8381C104.412 91.3706 103.98 91.802 103.448 91.802Z" fill="#C2CBDA"/>
<path d="M141.396 35.6166H136.3C135.768 35.6166 135.337 35.1853 135.337 34.6531C135.337 34.1209 135.768 33.6896 136.3 33.6896H141.396C141.928 33.6896 142.359 34.1209 142.359 34.6531C142.359 35.1853 141.928 35.6166 141.396 35.6166Z" fill="#C2CBDA"/>
<path d="M142.357 90.6785H106.634V90.9985H142.357V90.6785Z" fill="#C2CBDA"/>
<path d="M103.448 99.0397H98.3527C97.8205 99.0397 97.3892 98.6084 97.3892 98.0762C97.3892 97.544 97.8205 97.1127 98.3527 97.1127H103.448C103.98 97.1127 104.412 97.544 104.412 98.0762C104.412 98.6084 103.98 99.0397 103.448 99.0397Z" fill="#C2CBDA"/>
<path d="M142.357 97.9159H106.634V98.2359H142.357V97.9159Z" fill="#C2CBDA"/>
<path d="M103.448 126.578H98.3527C97.8205 126.578 97.3892 126.146 97.3892 125.614C97.3892 125.082 97.8205 124.65 98.3527 124.65H103.448C103.98 124.65 104.412 125.081 104.412 125.614C104.412 126.146 103.98 126.578 103.448 126.578Z" fill="#C2CBDA"/>
<path d="M142.357 125.454H106.634V125.774H142.357V125.454Z" fill="#C2CBDA"/>
<path d="M130.594 100.014H118.398C117.866 100.014 117.434 99.5827 117.434 99.0502V97.1014C117.434 96.5693 117.866 96.1376 118.398 96.1376H130.594C131.126 96.1376 131.557 96.5689 131.557 97.1014V99.0502C131.557 99.5827 131.126 100.014 130.594 100.014Z" fill="#A0D0FC"/>
<path d="M135.416 114.08H105.233C104.701 114.08 104.269 113.649 104.269 113.116V109.61C104.269 109.078 104.701 108.646 105.233 108.646H135.416C135.948 108.646 136.38 109.078 136.38 109.61V113.116C136.38 113.648 135.948 114.08 135.416 114.08Z" fill="#A0D0FC"/>
<path d="M102.142 36.3725H98.6822C98.1827 36.3725 97.7766 35.9664 97.7766 35.4669V33.7907C97.7766 33.2915 98.1827 32.8851 98.6822 32.8851H102.142C102.642 32.8851 103.048 33.2912 103.048 33.7907V35.4669C103.048 35.9661 102.642 36.3725 102.142 36.3725ZM98.6822 33.1498C98.3289 33.1498 98.0416 33.4371 98.0416 33.7904V35.4666C98.0416 35.8199 98.3289 36.1072 98.6822 36.1072H102.142C102.496 36.1072 102.783 35.8199 102.783 35.4666V33.7904C102.783 33.4371 102.496 33.1498 102.142 33.1498H98.6822Z" fill="#DFE6EF"/>
<path d="M100.408 34.7818L98.0854 33.3399L98.225 33.1146L100.417 34.4756L102.711 33.2298L102.837 33.4628L100.408 34.7818Z" fill="#DFE6EF"/>
<path d="M103.753 33.1498C103.753 33.6554 103.343 34.0653 102.837 34.0653C102.332 34.0653 101.922 33.6554 101.922 33.1498C101.922 32.6442 102.332 32.2343 102.837 32.2343C103.343 32.2343 103.753 32.6442 103.753 33.1498Z" fill="#A0D0FC"/>
<path d="M48.6422 21.4179C48.6422 21.4179 42.0397 21.5568 40.4409 28.0204C38.8425 34.4841 38.9814 35.6655 36.2707 39.5577C33.56 43.4499 33.2125 44.5619 33.143 49.0099C33.0736 53.4579 31.4749 55.126 34.1856 57.767C36.896 60.408 42.5257 62.0067 52.1865 60.2691C61.8473 58.5315 61.6387 50.5388 61.5693 47.0636C61.4998 43.5884 58.2333 40.3913 58.5808 37.3334C58.9283 34.2751 58.9283 28.6457 55.9398 24.6841C52.9513 20.7228 48.6422 21.4179 48.6422 21.4179Z" fill="#313440"/>
<path d="M51.8393 25.7271C51.8393 25.7271 50.7673 29.4105 47.0985 30.3836C47.0985 30.3836 48.0864 29.5498 47.8083 28.0554C47.8083 28.0554 46.2793 31.4957 42.5958 31.2176C42.5958 31.2176 42.1094 35.9437 44.3334 38.6544C46.5574 41.3651 47.7392 41.5573 49.4765 41.1833C51.2141 40.8092 53.2992 37.8205 54.0637 35.249C54.8281 32.6774 54.8281 31.7043 54.8281 31.7043C54.8281 31.7043 52.6736 30.5923 51.8393 25.7271Z" fill="#D2796F"/>
<path d="M50.8768 40.4099L50.8758 40.409C50.4054 40.8077 49.9293 41.0858 49.4765 41.1834C47.9561 41.5107 46.8614 41.4045 45.1216 39.5571C45.9385 44.3805 44.5763 45.2573 44.5763 45.2573C45.6537 50.3658 49.1635 51.6861 49.1635 51.6861C50.8662 49.6704 51.9782 44.8054 51.9782 44.8054C50.3104 42.199 50.8768 40.4099 50.8768 40.4099Z" fill="#D2796F"/>
<path d="M42.5567 32.7635C42.5532 32.7536 42.5506 32.7465 42.5506 32.7465C42.5506 32.7465 42.1788 32.3641 41.5532 32.5728C40.9276 32.7811 40.8236 33.9629 41.2751 35.1792C41.727 36.3955 42.5026 36.679 43.1225 36.3459C42.7094 35.0704 42.583 33.7472 42.5567 32.7635Z" fill="#D2796F"/>
<path d="M55.4242 32.5731C55.1286 32.4745 54.8918 32.5091 54.7218 32.5718C54.6233 33.1385 54.4332 34.0051 54.0636 35.2486C53.9714 35.5587 53.8591 35.8749 53.7314 36.192C53.7599 36.263 53.7999 36.3165 53.855 36.3459C54.4748 36.6787 55.2508 36.3952 55.7023 35.1792C56.1538 33.9629 56.0498 32.7814 55.4242 32.5731Z" fill="#D2796F"/>
<path d="M45.3265 43.3322C46.8619 43.2323 49.744 42.8247 50.7859 41.1831C50.7911 40.6896 50.8772 40.4099 50.8772 40.4099L50.8763 40.409C50.4059 40.8077 49.9296 41.0858 49.4768 41.1834C47.9565 41.5107 46.8618 41.4045 45.1219 39.5571C45.4112 41.2659 45.4264 42.4778 45.3265 43.3322Z" fill="#313440"/>
<path d="M42.5507 32.7468C42.6537 33.3615 42.7171 33.9593 42.8057 34.5555C42.8438 34.8543 42.8982 35.1491 42.9468 35.4467L43.1228 36.3462C42.7622 35.8319 42.5808 35.2134 42.4893 34.6009C42.4493 34.2924 42.4259 33.9817 42.4345 33.6713C42.4419 33.3612 42.4713 33.0502 42.5507 32.7468Z" fill="#313440"/>
<path d="M54.7218 32.5718C54.743 32.8921 54.7209 33.2095 54.6818 33.5238C54.6441 33.8383 54.5798 34.1487 54.5042 34.4569C54.3401 35.0668 54.1151 35.6761 53.7314 36.1923C53.8828 35.5718 54.0409 34.9801 54.1945 34.3766C54.3538 33.7753 54.5062 33.1737 54.7218 32.5718Z" fill="#313440"/>
<path d="M60.4924 48.8886C58.8764 47.6377 51.9785 44.8054 51.9785 44.8054C51.9785 44.8054 50.8665 49.6707 49.1638 51.6861C49.1638 51.6861 45.654 50.3654 44.5766 45.2573C44.5766 45.2573 38.8079 47.5334 37.4006 48.6803C35.9932 49.8272 32.6124 58.376 32.6124 58.376C32.6124 58.376 34.3251 62.7024 37.3484 64.2141L39.9548 60.9958C39.9548 60.9958 40.6844 66.1427 42.1964 67.8109C42.1964 67.8109 43.4995 68.1235 47.5654 68.28C51.6313 68.4365 53.8207 67.3417 53.8207 67.3417C53.8207 67.3417 55.911 63.7491 56.6355 60.9958L57.7823 62.911C57.7823 62.911 61.4835 60.8781 63.4121 57.9069C63.4121 57.9069 62.1084 50.1395 60.4924 48.8886Z" fill="#93B0F0"/>
<path d="M44.0726 47.2726C44.337 47.7494 44.6163 48.2118 44.8963 48.671C45.1817 49.1273 45.4742 49.5766 45.7891 50.0092C46.1043 50.4415 46.4432 50.8534 46.8013 51.2502C47.1721 51.6342 47.5629 51.9987 47.999 52.3289C47.5005 52.1068 47.0381 51.7951 46.6262 51.4284C46.2202 51.0559 45.8582 50.638 45.5302 50.1974C44.896 49.3027 44.3786 48.3222 44.0726 47.2726Z" fill="#313440"/>
<path d="M52.6214 46.0739C52.6592 46.5891 52.5811 47.1087 52.4614 47.6108C52.3418 48.1148 52.1635 48.6019 51.9613 49.0767C51.7558 49.5507 51.5098 50.0051 51.24 50.4435C51.1056 50.663 50.9552 50.8722 50.8099 51.0838C50.6496 51.2857 50.4966 51.4918 50.328 51.686L51.0221 50.3212C51.2435 49.8649 51.4726 49.414 51.6682 48.9487C51.8717 48.4873 52.0576 48.0182 52.2227 47.5414C52.3789 47.0623 52.5354 46.5798 52.6214 46.0739Z" fill="#313440"/>
<path d="M39.9545 60.9954C39.9545 60.9954 38.9641 57.5417 38.7555 55.2479L37.3481 64.2137L39.9545 60.9954Z" fill="#313440"/>
<path d="M56.6351 60.9954C56.6351 60.9954 57.8342 57.4895 58.4073 54.9874C58.4073 54.9874 58.2508 61.5033 57.7817 62.9106L56.6351 60.9954Z" fill="#313440"/>
<path d="M80.3151 49.1213L74.5155 50.0481L76.1167 60.0685L81.9163 59.1417L80.3151 49.1213Z" fill="white"/>
<path d="M80.2765 48.8787C78.3433 49.1878 76.4102 49.4966 74.4771 49.8058C74.4121 49.8163 74.3677 49.8483 74.336 49.888C74.3312 49.8931 74.3261 49.8973 74.3216 49.903C74.3181 49.9085 74.3158 49.9139 74.3129 49.9197C74.2845 49.9626 74.2678 50.015 74.2781 50.081C74.7459 53.0077 75.2137 55.9341 75.6816 58.8605C75.7475 59.2739 75.8137 59.6874 75.88 60.1008C75.9005 60.2288 76.0265 60.3203 76.1549 60.2998C78.088 59.9907 80.0211 59.6819 81.9542 59.3728C82.0822 59.3523 82.1737 59.2262 82.1533 59.0979C81.6854 56.1715 81.2176 53.2448 80.7497 50.3184C80.6835 49.905 80.6176 49.4915 80.5513 49.0781C80.5309 48.9498 80.4048 48.8582 80.2765 48.8787ZM81.6413 58.937C79.8662 59.2208 78.0912 59.5043 76.3158 59.7882C75.8608 56.9405 75.4054 54.0931 74.9504 51.2454C74.8969 50.911 74.8435 50.5763 74.7901 50.2419C76.5651 49.9581 78.3401 49.6746 80.1155 49.3907C80.5705 52.2384 81.0259 55.0858 81.4809 57.9334C81.5344 58.2678 81.5878 58.6022 81.6413 58.937Z" fill="#313440"/>
<path d="M80.1248 54.4249C80.2915 55.4672 79.5814 56.4473 78.5392 56.6141C77.497 56.7808 76.5168 56.0707 76.3501 55.0285C76.1834 53.9862 76.8934 53.006 77.9357 52.8393C78.9782 52.6726 79.9584 53.3827 80.1248 54.4249Z" fill="#A0D0FC"/>
<path d="M79.5033 53.7543C79.39 53.6724 79.2537 53.7101 79.1683 53.8077C78.735 54.3025 78.3014 54.7972 77.8681 55.2919C77.8659 55.2941 77.864 55.2967 77.8617 55.2989C77.6771 55.1169 77.4924 54.9348 77.3081 54.7527C77.216 54.6618 77.078 54.6311 76.9702 54.7194C76.878 54.7953 76.8441 54.9658 76.9369 55.0573C77.1875 55.3047 77.4384 55.5521 77.6889 55.7994C77.8057 55.9149 77.9593 55.913 78.0688 55.7879C78.502 55.2932 78.9356 54.7985 79.3689 54.3037C79.4316 54.2324 79.494 54.1607 79.5568 54.0893C79.6422 53.9917 79.6012 53.8253 79.5033 53.7543Z" fill="white"/>
<path d="M44.0727 68.0618C43.8771 67.9638 43.7136 67.8166 43.5738 67.6528C43.4314 67.4896 43.3203 67.3008 43.2307 67.1027C43.145 66.903 43.0832 66.6912 43.065 66.4736C43.0381 66.2582 43.0608 66.0368 43.1226 65.8301C43.1943 66.0374 43.2407 66.2326 43.3095 66.4218C43.3738 66.6106 43.4413 66.7955 43.5242 66.9747C43.6781 67.3395 43.8698 67.6826 44.0727 68.0618Z" fill="#313440"/>
<path d="M50.3276 68.1917C50.7232 67.9603 51.062 67.7162 51.3286 67.4003C51.463 67.2454 51.5849 67.0774 51.6854 66.8918C51.7942 66.7088 51.8739 66.5088 51.9782 66.2992C52.0057 66.5277 51.9904 66.7661 51.9152 66.9901C51.8518 67.2189 51.7225 67.4269 51.5699 67.6102C51.4121 67.7907 51.2198 67.9405 51.0057 68.0403C50.7942 68.1421 50.5609 68.2038 50.3276 68.1917Z" fill="#313440"/>
<path d="M65.9135 107.218C64.5583 97.8355 62.5775 88.3485 60.4924 80.8944C58.4073 73.4403 53.8201 67.3414 53.8201 67.3414C53.8201 67.3414 51.6307 68.4361 47.5647 68.2797C43.4988 68.1232 42.1958 67.8106 42.1958 67.8106C42.1958 67.8106 32.8652 77.6102 35.4713 90.9549C37.3478 100.442 37.3478 102.735 37.3478 103.987C37.3478 105.237 36.67 108.574 37.9471 116.497C39.2243 124.42 39.3155 129.946 39.3155 129.946C39.3155 129.946 42.039 131.301 44.0719 130.467C44.0719 130.467 45.4793 117.54 46.4175 109.512C47.3558 101.484 47.9814 90.5379 49.2323 86.6806C49.2323 86.6806 53.0895 98.4611 54.6534 102.423C56.2172 106.384 56.3215 109.199 56.8428 112.118C57.3641 115.037 64.6966 129.32 64.6966 129.32C64.6966 129.32 67.5811 129.32 69.2489 128.277C69.2489 128.277 67.2687 116.601 65.9135 107.218Z" fill="#4B6CD8"/>
<path d="M52.4153 67.8198C52.7033 67.4985 52.9762 67.2131 53.2054 66.8956C53.3234 66.7401 53.4175 66.5724 53.509 66.3996C53.5993 66.2243 53.6582 66.0374 53.7311 65.8297C53.7919 66.0364 53.8002 66.2672 53.7446 66.4828C53.6921 66.6992 53.5929 66.9043 53.4642 67.0835C53.3308 67.2595 53.1762 67.4169 52.9986 67.542C52.8223 67.6675 52.629 67.7708 52.4153 67.8198Z" fill="#313440"/>
<path d="M32.8669 58.9491C32.8669 58.9491 30.7801 63.6406 30.311 65.1001C29.8419 66.5597 31.4057 73.3881 31.8749 75.5776C32.344 77.767 33.1779 80.7904 34.4291 80.8422C35.68 80.8944 37.0877 80.0083 37.0877 80.0083C37.0877 80.0083 37.6611 82.0413 38.1302 81.9369C38.5993 81.8326 38.6515 80.8944 38.6515 80.8944C38.6515 80.8944 39.0425 81.2592 39.6941 80.7901C40.3456 80.3209 39.8505 78.7571 39.8505 78.7571C39.8505 78.7571 40.4761 78.9657 40.919 78.5225C41.3622 78.0793 41.0493 77.0368 41.0493 77.0368C41.0493 77.0368 42.0656 77.3757 42.3001 76.6198C42.5347 75.864 40.5798 74.2742 39.7981 73.831C39.0163 73.3878 36.272 75.5513 36.272 75.5513C36.272 75.5513 36.551 70.4995 36.272 68.295C35.9929 66.0905 35.9929 65.8297 35.9929 65.8297L37.3481 64.2137C37.3481 64.2137 35.1097 63.4841 32.8669 58.9491Z" fill="#D2796F"/>
<path d="M57.7817 62.9106C57.7817 62.9106 60.1795 69.4303 61.7955 70.4447C63.4115 71.4591 66.1741 69.966 68.4157 67.8197C70.6573 65.6732 75.7654 59.7308 75.7654 59.7308L75.3657 55.5433C75.3657 55.5433 76.4083 54.6745 76.6169 53.9794C76.6169 53.9794 78.2153 53.0412 78.2153 52.6937C78.2153 52.3461 78.2153 51.8943 76.1997 52.485C74.184 53.0757 73.9062 53.1106 73.6627 54.0834C73.4195 55.0565 72.7939 56.5497 72.7939 56.5497C72.7939 56.5497 70.6045 58.8095 68.7974 59.9564C66.9904 61.1033 65.6352 61.277 64.6969 61.9372L63.4112 57.9061C63.4112 57.9061 61.6393 60.7212 57.7817 62.9106Z" fill="#D2796F"/>
<path d="M38.6516 80.8943C38.6516 80.8943 38.5213 79.6431 37.9479 78.4966" stroke="#313440" stroke-miterlimit="10"/>
<path d="M39.8502 78.7571C39.8502 78.7571 39.4333 77.5059 38.7817 76.5417" stroke="#313440" stroke-miterlimit="10"/>
<path d="M41.0492 77.0371C41.0492 77.0371 40.5539 75.7859 39.1206 75.0563" stroke="#313440" stroke-miterlimit="10"/>
<path d="M63.4115 57.9065L62.9945 64.5788L64.6972 61.9375L63.4115 57.9065Z" fill="#313440"/>
<path d="M73.3687 62.4765L75.3661 55.5433L75.7655 59.7309L73.3687 62.4765Z" fill="#313440"/>
<path d="M38.2994 73.5052C38.6313 73.4921 38.9529 73.4159 39.2518 73.2883C39.4054 73.2377 39.5452 73.1507 39.6905 73.0841C39.8255 72.9942 39.9695 72.9225 40.0978 72.8246C40.6194 72.4483 41.0761 71.9817 41.4508 71.4524L41.5996 71.2601L41.7308 71.0547L41.9948 70.6441C42.1529 70.359 42.3126 70.0735 42.4642 69.7827C42.5986 69.4838 42.7526 69.1919 42.8844 68.8895C43.0162 68.5868 43.1385 68.2799 43.2806 67.9775C43.2076 68.3014 43.1145 68.6207 43.0313 68.9446C42.9334 69.263 42.8086 69.5734 42.6911 69.887C42.5638 70.1964 42.405 70.4931 42.2575 70.7948L41.9929 71.2252L41.8598 71.4403L41.7074 71.6431C41.3119 72.19 40.8166 72.6774 40.2338 73.0326C40.0905 73.1241 39.933 73.1935 39.7826 73.271C39.6207 73.326 39.4678 73.4015 39.3001 73.4361C38.9727 73.5187 38.6294 73.5644 38.2994 73.5052Z" fill="#313440"/>
<path d="M51.4745 80.0604C51.5388 79.0607 51.5491 78.0623 51.5241 77.0661C51.4921 76.0703 51.4451 75.0751 51.3376 74.0853C51.2393 73.0949 51.1081 72.1074 50.935 71.1263C50.7756 70.1417 50.544 69.1714 50.3276 68.1919C50.4944 68.6636 50.662 69.1375 50.8038 69.6191C50.9363 70.1029 51.072 70.5871 51.1763 71.0786C51.4083 72.0572 51.5494 73.0549 51.6556 74.0543C51.7558 75.0549 51.7955 76.0616 51.7689 77.0664C51.7561 77.5689 51.727 78.0703 51.6867 78.5708C51.631 79.0693 51.5782 79.5692 51.4745 80.0604Z" fill="#313440"/>
<path d="M53.8202 67.3414C53.9581 67.7507 54.0893 68.1603 54.2362 68.5648C54.3741 68.9718 54.5168 69.377 54.6698 69.7779C54.9741 70.5798 55.2864 71.3776 55.6455 72.1529C56.001 72.9289 56.3968 73.6867 56.8743 74.3881C57.1123 74.7389 57.377 75.0733 57.6871 75.361C57.9895 75.6566 58.3444 75.9014 58.752 76.047C58.3232 75.9718 57.9309 75.7449 57.5844 75.4797C57.241 75.2048 56.9456 74.8771 56.6759 74.5341C56.1354 73.8445 55.7223 73.0717 55.3549 72.2867C54.9975 71.4957 54.6893 70.6851 54.4378 69.8573C54.1837 69.0304 53.9652 68.1933 53.8202 67.3414Z" fill="#313440"/>
<path d="M48.7398 69.8313C48.7398 70.1702 48.4653 70.4448 48.1264 70.4448C47.7875 70.4448 47.5129 70.1702 47.5129 69.8313C47.5129 69.4925 47.7875 69.2179 48.1264 69.2179C48.4653 69.2179 48.7398 69.4928 48.7398 69.8313Z" fill="#313440"/>
<path d="M49.2333 86.6803C49.2333 86.6803 49.5981 84.1261 52.5171 83.0835C52.5171 83.0835 51.5363 87.4099 52.1309 90.9545C52.7254 94.4992 53.6557 99.7296 53.6557 99.7296L49.2333 86.6803Z" fill="#313440"/>
<path d="M37.0876 80.0083C36.6419 82.0675 36.4713 84.1763 36.4543 86.2758C36.4467 88.376 36.598 90.4803 36.9945 92.5408C37.19 93.5689 37.4355 94.5961 37.6406 95.6304C37.8531 96.663 38.0476 97.6998 38.2175 98.7417C38.5676 100.823 38.7647 102.938 38.7884 105.049C38.7958 106.102 38.8297 107.156 38.7884 108.215C38.7507 109.271 38.6825 110.321 38.6534 111.371C38.5875 113.469 38.694 115.569 38.9273 117.658C39.0364 118.703 39.1887 119.743 39.3526 120.782C39.5139 121.824 39.6415 122.873 39.7391 123.923C39.9228 126.023 40.0169 128.13 40.015 130.236C39.9647 128.131 39.8182 126.029 39.5833 123.939C39.4681 122.892 39.3292 121.852 39.1532 120.815C38.9747 119.777 38.8073 118.734 38.6828 117.686C38.4095 115.594 38.311 113.475 38.3622 111.363C38.3868 110.308 38.4502 109.255 38.4828 108.206C38.5193 107.16 38.4799 106.108 38.4691 105.055C38.455 102.953 38.2697 100.863 37.9308 98.7881C37.7667 97.7507 37.5775 96.7165 37.3702 95.6854C37.1667 94.6534 36.9363 93.6288 36.7535 92.5846C36.0463 88.4182 36.134 84.1123 37.0876 80.0083Z" fill="#313440"/>
<path d="M51.9449 88.0381C53.1741 91.4618 54.3449 94.9059 55.4525 98.3718C56.007 100.105 56.5385 101.845 56.9856 103.616C57.2099 104.509 57.3299 105.415 57.4729 106.311C57.6125 107.209 57.7609 108.103 57.9469 108.988C58.3085 110.763 58.8128 112.507 59.3859 114.228C59.9504 115.954 60.6016 117.647 61.2912 119.328C61.9814 121.008 62.7165 122.67 63.4745 124.322C64.2237 125.979 65.0077 127.619 65.8032 129.254C64.0947 126.043 62.5053 122.767 61.0643 119.423C60.3376 117.754 59.6902 116.047 59.1097 114.321C58.5257 112.596 58.007 110.842 57.6339 109.053C57.4509 108.158 57.3062 107.257 57.1715 106.357C57.0329 105.458 56.9181 104.556 56.703 103.684C56.2739 101.924 55.7357 100.186 55.2185 98.4445C54.6931 96.7047 54.1481 94.9699 53.5974 93.2371L51.9449 88.0381Z" fill="#313440"/>
<path d="M39.3162 129.946C39.3162 129.946 39.4855 133.021 38.9645 134.481C38.4432 135.94 35.3156 140.267 35.3156 140.267C35.3156 140.267 35.472 141.779 37.8176 140.996C40.1632 140.215 40.7367 139.224 42.144 138.234C43.5514 137.243 43.8121 136.67 43.8121 136.67C43.8121 136.67 43.6556 134.637 43.8121 132.969C43.9686 131.301 44.0727 130.467 44.0727 130.467C42.0397 131.301 39.3162 129.946 39.3162 129.946Z" fill="#D2796F"/>
<path d="M43.8119 136.67C43.8119 136.67 43.5514 137.243 42.1437 138.234C40.7363 139.224 40.1629 140.214 37.8173 140.996C35.4717 141.778 35.3152 140.267 35.3152 140.267C35.3152 140.267 33.8035 141.517 32.9175 142.352C32.0314 143.186 32.3962 144.176 32.9175 144.385C33.4387 144.593 37.1591 144.645 38.192 144.385C39.2247 144.124 41.1536 141.883 42.7693 140.632C44.3853 139.38 44.3853 139.016 44.3853 138.39C44.3853 137.764 44.2509 136.119 43.8119 136.67Z" fill="#313440"/>
<path d="M39.3162 129.946C39.3162 129.946 41.1232 132.368 43.7709 133.541L44.0726 130.467C44.0726 130.467 42.1699 131.301 39.3162 129.946Z" fill="#313440"/>
<path d="M42.7433 135.731C42.9071 135.51 42.9986 135.334 43.0495 135.14C43.0745 135.043 43.0882 134.94 43.1001 134.827C43.1106 134.714 43.1126 134.595 43.134 134.454C43.2374 134.547 43.3094 134.666 43.3481 134.798C43.39 134.931 43.3903 135.078 43.3586 135.221C43.2834 135.506 43.0265 135.741 42.7433 135.731Z" fill="#313440"/>
<path d="M64.6973 129.32C64.6973 129.32 65.9357 131.648 65.8029 134.602C65.8029 134.602 68.6589 135.992 71.1955 136.652C73.7325 137.313 75.1571 138.251 76.5123 138.286C77.8675 138.321 78.5974 138.181 78.7712 137.799C78.9449 137.417 78.111 136.896 76.4429 135.957C74.7747 135.019 72.5856 133.455 71.4736 132.204C70.3616 130.953 69.2496 128.277 69.2496 128.277C69.2496 128.277 68.0336 129.181 64.6973 129.32Z" fill="#D2796F"/>
<path d="M81.343 138.981C80.9606 138.147 78.0445 136.909 78.0445 136.909C78.6185 137.294 78.8749 137.572 78.7715 137.799C78.5977 138.182 77.8681 138.321 76.5126 138.286C75.1574 138.251 73.7325 137.313 71.1958 136.652C68.6589 135.992 65.8032 134.602 65.8032 134.602C65.4144 136.652 65.8032 138.077 65.8032 138.077C65.8032 138.077 66.0528 138.981 68.7286 139.016C71.4045 139.051 72.8291 139.989 76.6173 140.996C80.4051 142.004 81.3433 140.996 81.3433 140.996C81.3433 140.996 81.7254 139.815 81.343 138.981Z" fill="#313440"/>
<path d="M65.7401 132.934C65.7401 132.934 67.095 130.849 69.2496 128.277C69.2496 128.277 67.8249 129.146 64.6973 129.32C64.6973 129.32 65.5667 130.918 65.7401 132.934Z" fill="#313440"/>
<path d="M66.6435 132.448C66.5997 132.801 66.5555 133.12 66.6445 133.375C66.6851 133.502 66.7581 133.616 66.872 133.714C66.921 133.772 66.9933 133.808 67.055 133.863C67.1229 133.91 67.1965 133.951 67.2691 134.011C67.1798 134.02 67.089 134.019 66.9971 134.009C66.9104 133.983 66.8134 133.975 66.7315 133.921C66.5542 133.844 66.4077 133.671 66.3414 133.478C66.2784 133.281 66.2899 133.077 66.3494 132.901C66.408 132.725 66.5034 132.566 66.6435 132.448Z" fill="#313440"/>
<path d="M80.8867 51.176C80.8867 51.176 80.6915 51.7817 80.4829 52.9545C80.2742 54.1273 80.2352 54.7619 80.6848 54.7964C80.6848 54.7964 80.5574 55.8876 80.8867 56.0822C81.216 56.2768 81.4278 56.0822 81.4278 56.0822C81.4278 56.0822 80.8998 57.2812 81.3168 57.672C81.7337 58.063 81.9158 57.672 81.9158 57.672C81.9158 57.672 81.6816 58.1152 81.8121 58.4537C81.9424 58.7926 82.3856 58.3494 82.6723 57.8022C82.959 57.255 83.1673 56.447 82.8547 56.2124C82.8547 56.2124 83.063 55.0915 82.4637 54.7267C82.4637 54.7267 82.7968 53.2934 82.088 52.9545C82.088 52.9545 82.1046 51.9382 81.6717 51.2864C81.2387 50.6348 80.7939 50.5964 80.7939 50.5964L80.8867 51.176Z" fill="#D2796F"/>
<path d="M80.6848 54.7964C80.9171 54.4239 81.1671 54.0834 81.4051 53.734C81.6464 53.3852 81.8682 53.0367 82.0883 52.6569C82.0487 53.0991 81.8458 53.509 81.6029 53.8697C81.3507 54.2265 81.0541 54.5541 80.6848 54.7964Z" fill="#313440"/>
<path d="M81.4279 56.0822C81.5811 55.8233 81.7565 55.607 81.929 55.3872C82.1056 55.1689 82.2711 54.9577 82.4637 54.7267C82.4474 55.0316 82.2963 55.3062 82.1165 55.5366C81.929 55.7632 81.7072 55.9638 81.4279 56.0822Z" fill="#313440"/>
<path d="M81.9161 57.7001C82.0269 57.4169 82.1766 57.1744 82.3302 56.9334C82.4899 56.6953 82.6486 56.4646 82.8547 56.2406C82.8211 56.5449 82.6889 56.8179 82.5309 57.0649C82.3664 57.3084 82.1737 57.5353 81.9161 57.7001Z" fill="#313440"/>
</g>
</g>
<defs>
<clipPath id="clip0_247_7454">
<rect width="160" height="160" fill="white"/>
</clipPath>
<clipPath id="clip1_247_7454">
<rect width="160" height="160" fill="white"/>
</clipPath>
</defs>
</svg>
