<svg width="160" height="160" viewBox="0 0 160 160" fill="none" xmlns="http://www.w3.org/2000/svg">
<g clip-path="url(#clip0_247_7975)">
<path d="M25.4173 129.199C25.4173 129.199 8.20705 129.066 4.28097 131.61C0.354893 134.154 10.6682 137.212 21.9351 140.712C33.2019 144.212 35.6128 149.797 47.3831 150.083C59.1533 150.37 74.7594 150.083 93.6973 150.083C112.635 150.083 133.834 151.515 138.872 148.366C143.911 145.218 153.294 143.831 151.105 139.803C148.915 135.774 149.618 133.113 123.933 131.724C98.2486 130.337 25.4173 129.199 25.4173 129.199Z" fill="#CED4DD"/>
<path d="M39.9238 132.626H36.469C34.8319 132.626 33.5049 131.299 33.5049 129.662V92.3948C33.5049 90.7577 34.8319 89.4307 36.469 89.4307H39.9238C41.5609 89.4307 42.8879 90.7577 42.8879 92.3948V129.662C42.8879 131.299 41.5609 132.626 39.9238 132.626Z" fill="#EAEAEA"/>
<path d="M83.8492 132.626H80.3945C78.7573 132.626 77.4303 131.299 77.4303 129.662V92.3948C77.4303 90.7577 78.7573 89.4307 80.3945 89.4307H83.8492C85.4863 89.4307 86.8133 90.7577 86.8133 92.3948V129.662C86.8133 131.299 85.486 132.626 83.8492 132.626Z" fill="#EAEAEA"/>
<path d="M74.4665 132.297H45.8521C44.215 132.297 42.8879 130.97 42.8879 129.332V100.718C42.8879 99.0809 44.215 97.7539 45.8521 97.7539H74.4665C76.1036 97.7539 77.4307 99.0809 77.4307 100.718V129.332C77.4303 130.97 76.1033 132.297 74.4665 132.297Z" fill="#EAEAEA"/>
<path d="M74.4665 101.785H45.8521C44.215 101.785 42.8879 100.458 42.8879 98.8207V73.5596C42.8879 71.9225 44.215 70.5955 45.8521 70.5955H74.4665C76.1036 70.5955 77.4307 71.9225 77.4307 73.5596V98.8207C77.4303 100.458 76.1033 101.785 74.4665 101.785Z" fill="#EAEAEA"/>
<path d="M38.822 132.626H37.2582V134.955H38.822V132.626Z" fill="#EAEAEA"/>
<path d="M82.9036 132.626H81.3397V134.955H82.9036V132.626Z" fill="#EAEAEA"/>
<path d="M29.4016 105.519H2.79102V106.838H29.4016V105.519Z" fill="#EAEAEA"/>
<path d="M2.99072 134.955L6.32672 106.838H7.99488L4.65888 134.955H2.99072Z" fill="#EAEAEA"/>
<path d="M29.4678 134.955L26.1318 106.838H24.4636L27.7996 134.955H29.4678Z" fill="#EAEAEA"/>
<path d="M13.296 93.0713L19.1309 85.8064L15.0464 84.7267C15.0464 84.7267 13.296 83.0909 11.5453 83.2963C9.7949 83.5017 8.04418 86.279 10.4951 88.7417L13.296 93.0713Z" fill="#EAEAEA"/>
<path d="M13.6461 104.041H6.41089V105.519H13.6461V104.041Z" fill="#EAEAEA"/>
<path d="M9.85216 104.072L7.99744 93.5119L8.02272 93.4601L10.3341 88.6639L10.6566 88.8195L8.37024 93.5638L10.2048 104.01L9.85216 104.072Z" fill="#EAEAEA"/>
<mask id="mask0_247_7975" style="mask-type:luminance" maskUnits="userSpaceOnUse" x="0" y="0" width="160" height="160">
<path d="M160 0H0V160H160V0Z" fill="white"/>
</mask>
<g mask="url(#mask0_247_7975)">
<path d="M88.3098 133.458C88.3098 133.458 76.923 125.294 73.7953 113.529C70.6676 101.764 75.9847 79.9315 73.7953 71.7693C73.7953 71.7693 80.9697 84.8515 83.6183 94.8714C86.267 104.892 89.0628 121.992 88.3098 133.458Z" fill="#41A592"/>
<path d="M88.5521 133.044C88.0381 132.792 87.5469 132.485 87.0647 132.178C85.7159 131.319 84.5255 130.416 83.3277 129.399C81.4909 127.838 79.7921 126.116 78.234 124.278C76.2058 121.885 74.4257 119.285 72.8865 116.553C70.9837 113.175 69.4593 109.596 68.2823 105.903C66.8081 101.276 65.9668 96.4784 65.0282 91.7225C64.2487 87.7725 63.4932 83.8176 62.7825 79.8544C62.3162 77.2544 61.8679 74.6505 61.458 72.0409C61.3226 71.1782 61.1914 70.3149 61.0673 69.4505C61.0199 69.1197 60.9732 68.7885 60.9281 68.4573C60.922 68.4115 60.8973 68.2307 60.9047 68.2848C60.9121 68.3398 60.8871 68.1529 60.8813 68.1094C60.8647 67.9827 60.8481 67.8557 60.8317 67.7289C60.7636 67.1965 60.7655 66.6109 60.6436 66.0877C60.6394 66.0691 60.6401 66.048 60.6385 66.0291C60.3652 66.1424 60.0922 66.2553 59.8189 66.3686C60.0538 66.6406 60.2807 66.919 60.5073 67.1977C61.1757 68.0205 61.7437 68.7517 62.3444 69.5449C64.5505 72.4595 66.6205 75.4781 68.5767 78.5654C71.4199 83.0528 74.0189 87.6966 76.3447 92.4729C79.1229 98.1789 81.505 104.08 83.3892 110.142C85.4749 116.853 86.9517 123.766 87.6141 130.766C87.6989 131.662 87.77 132.56 87.8289 133.459C87.8692 134.072 88.8295 134.076 88.7889 133.459C88.3204 126.311 87.0186 119.232 85.0493 112.348C83.2577 106.086 80.921 99.9837 78.1703 94.0809C75.8493 89.1005 73.2276 84.2601 70.3444 79.583C68.2823 76.2384 66.0881 72.9725 63.7428 69.8195C63.0269 68.8573 62.2973 67.9049 61.5482 66.9683C61.2215 66.56 60.9057 66.1213 60.5434 65.743C60.5274 65.7261 60.513 65.7072 60.4977 65.6896C60.2337 65.384 59.6461 65.6214 59.6781 66.0291C59.7069 66.3952 59.7524 66.7603 59.7962 67.1245C59.9482 68.3897 60.1287 69.6518 60.3185 70.9123C60.6682 73.2345 61.0551 75.551 61.4586 77.8643C62.0961 81.52 62.778 85.1683 63.4829 88.8115C63.9412 91.1798 64.41 93.5462 64.8865 95.9107C65.3821 98.3702 65.8586 100.834 66.5073 103.259C67.5732 107.243 69.0177 111.131 70.8724 114.815C72.3777 117.805 74.1604 120.651 76.2106 123.298C77.8071 125.359 79.5674 127.295 81.4906 129.056C82.8455 130.297 84.2817 131.457 85.8001 132.493C86.4967 132.969 87.2132 133.441 87.9674 133.822C88.0004 133.839 88.033 133.857 88.0663 133.873C88.6202 134.144 89.1073 133.316 88.5521 133.044Z" fill="#41A592"/>
<path d="M125.759 135.096C125.759 135.096 120.874 136.257 119.18 128.5C117.486 120.743 125.591 119.651 127.762 123.41C127.762 123.41 122.074 109.735 130.385 107.269C138.695 104.803 140.626 112.898 140.626 112.898C140.626 112.898 143.279 101.153 151.199 102.594C159.119 104.035 154.532 115.595 154.532 115.595C154.532 115.595 163.52 110.215 165.919 116.237C168.318 122.258 161.91 127.152 161.91 127.152C161.91 127.152 168.222 125.177 168.769 131.223C169.317 137.268 134.037 137.583 125.759 135.096Z" fill="#41A592"/>
<path d="M140.35 133.808C140.268 133.651 140.192 133.49 140.118 133.33C139.872 132.803 139.754 132.52 139.552 132.013C138.877 130.316 138.332 128.566 137.886 126.795C136.376 120.791 136.058 114.507 136.816 108.368C137.333 104.183 138.374 100.062 139.832 96.1079C141.288 92.1575 142.972 88.274 144.667 84.4206C146.775 79.627 148.998 74.8654 151.557 70.2929C152.408 68.771 153.297 67.2679 154.305 65.8439C154.337 65.7994 154.409 65.7092 154.268 65.8906C154.001 65.8199 153.733 65.7495 153.466 65.6788C153.567 66.1566 153.656 66.6372 153.745 67.1175C153.989 68.4462 154.207 69.7799 154.408 71.1159C154.706 73.1066 154.953 75.0308 155.173 77.0593C155.444 79.5633 155.654 82.0743 155.796 84.5892C155.956 87.427 156.031 90.2705 156.002 93.1127C155.972 96.1335 155.824 99.1543 155.523 102.16C155.222 105.161 154.765 108.148 154.095 111.089C153.442 113.96 152.588 116.796 151.444 119.512C150.353 122.107 148.985 124.599 147.294 126.853C145.658 129.034 143.685 130.984 141.44 132.535C140.873 132.927 140.291 133.293 139.694 133.636C139.158 133.944 139.641 134.774 140.178 134.465C142.622 133.059 144.819 131.241 146.678 129.123C148.557 126.982 150.104 124.566 151.356 122.01C152.656 119.356 153.657 116.56 154.431 113.71C155.234 110.756 155.791 107.742 156.189 104.708C156.586 101.679 156.812 98.6289 156.91 95.5761C157.005 92.6356 156.981 89.6916 156.861 86.7524C156.754 84.1124 156.569 81.4756 156.316 78.8455C156.104 76.6462 155.843 74.4519 155.537 72.2638C155.322 70.7271 155.083 69.194 154.815 67.6657C154.689 66.9518 154.586 66.2206 154.411 65.5166C154.404 65.4858 154.398 65.4545 154.392 65.4234C154.323 65.0954 153.81 64.9281 153.59 65.2116C152.713 66.3409 151.991 67.6055 151.278 68.8404C148.862 73.0241 146.773 77.3985 144.789 81.7998C143.134 85.4705 141.568 89.1809 140.06 92.914C138.404 97.0145 137.042 101.184 136.276 105.548C135.127 112.087 135.183 118.83 136.562 125.329C136.996 127.373 137.559 129.393 138.278 131.355C138.626 132.304 138.986 133.279 139.461 134.174C139.482 134.213 139.501 134.253 139.522 134.292C139.81 134.839 140.638 134.354 140.35 133.808Z" fill="#41A592"/>
<path d="M139.936 128.362C139.936 131.208 137.629 133.515 134.782 133.515H92.8352C89.9892 133.515 87.6816 131.208 87.6816 128.362V28.0861C87.6816 25.2397 89.9888 22.9325 92.8352 22.9325H99.4765V24.1981C99.4765 26.0903 101.01 27.624 102.902 27.624H124.589C126.482 27.624 128.015 26.0903 128.015 24.1981V22.9325H134.782C137.629 22.9325 139.936 25.2397 139.936 28.0861V128.362Z" fill="white"/>
<path d="M143.308 46.9632H142.789V29.7792C142.789 24.3613 138.397 19.969 132.978 19.969H94.5805C89.1626 19.969 84.7703 24.3613 84.7703 29.7792V44.208C84.7261 44.2013 84.682 44.1946 84.6359 44.1946C84.1537 44.1946 83.7629 44.5853 83.7629 45.0676V51.5258C83.7629 52.008 84.1537 52.3988 84.6359 52.3988C84.682 52.3988 84.7261 52.392 84.7703 52.3853V54.7735C84.7261 54.7668 84.682 54.76 84.6359 54.76C84.1537 54.76 83.7629 55.1508 83.7629 55.633V62.0912C83.7629 62.5735 84.1537 62.9642 84.6359 62.9642C84.682 62.9642 84.7261 62.9575 84.7703 62.9508V127.136C84.7703 132.554 89.1623 136.946 94.5805 136.946H132.978C138.396 136.946 142.789 132.554 142.789 127.136V60.5725H143.308C143.614 60.5725 143.863 60.3242 143.863 60.018V47.5181C143.863 47.2116 143.614 46.9632 143.308 46.9632ZM139.936 128.362C139.936 131.208 137.629 133.515 134.782 133.515H92.8353C89.9892 133.515 87.6817 131.208 87.6817 128.362V28.0861C87.6817 25.2397 89.9889 22.9325 92.8353 22.9325H99.4765V24.1981C99.4765 26.0903 101.01 27.624 102.902 27.624H124.59C126.482 27.624 128.015 26.0903 128.015 24.1981V22.9325H134.782C137.629 22.9325 139.936 25.2397 139.936 28.0861V128.362Z" fill="#404568"/>
<path d="M95.8753 35.2939H96.6553V39.4939H95.8753V35.2939ZM93.7033 39.4939H92.9233V35.2939H93.7033V39.4939ZM95.9353 37.6939H93.6373V37.0279H95.9353V37.6939ZM99.1487 39.5359C98.8207 39.5359 98.5287 39.4659 98.2727 39.3259C98.0167 39.1819 97.8147 38.9859 97.6667 38.7379C97.5187 38.4899 97.4447 38.2079 97.4447 37.8919C97.4447 37.5719 97.5187 37.2899 97.6667 37.0459C97.8147 36.7979 98.0167 36.6039 98.2727 36.4639C98.5287 36.3239 98.8207 36.2539 99.1487 36.2539C99.4807 36.2539 99.7747 36.3239 100.031 36.4639C100.291 36.6039 100.493 36.7959 100.637 37.0399C100.785 37.2839 100.859 37.5679 100.859 37.8919C100.859 38.2079 100.785 38.4899 100.637 38.7379C100.493 38.9859 100.291 39.1819 100.031 39.3259C99.7747 39.4659 99.4807 39.5359 99.1487 39.5359ZM99.1487 38.8939C99.3327 38.8939 99.4967 38.8539 99.6407 38.7739C99.7847 38.6939 99.8967 38.5779 99.9767 38.4259C100.061 38.2739 100.103 38.0959 100.103 37.8919C100.103 37.6839 100.061 37.5059 99.9767 37.3579C99.8967 37.2059 99.7847 37.0899 99.6407 37.0099C99.4967 36.9299 99.3347 36.8899 99.1547 36.8899C98.9707 36.8899 98.8067 36.9299 98.6627 37.0099C98.5227 37.0899 98.4107 37.2059 98.3267 37.3579C98.2427 37.5059 98.2007 37.6839 98.2007 37.8919C98.2007 38.0959 98.2427 38.2739 98.3267 38.4259C98.4107 38.5779 98.5227 38.6939 98.6627 38.7739C98.8067 38.8539 98.9687 38.8939 99.1487 38.8939ZM102.932 39.5359C102.66 39.5359 102.42 39.4859 102.212 39.3859C102.004 39.2819 101.842 39.1259 101.726 38.9179C101.61 38.7059 101.552 38.4399 101.552 38.1199V36.2899H102.302V38.0179C102.302 38.3059 102.366 38.5219 102.494 38.6659C102.626 38.8059 102.812 38.8759 103.052 38.8759C103.228 38.8759 103.38 38.8399 103.508 38.7679C103.64 38.6959 103.742 38.5879 103.814 38.4439C103.89 38.2999 103.928 38.1219 103.928 37.9099V36.2899H104.678V39.4939H103.964V38.6299L104.09 38.8939C103.982 39.1019 103.824 39.2619 103.616 39.3739C103.408 39.4819 103.18 39.5359 102.932 39.5359ZM105.66 39.4939V36.2899H106.374V37.1719L106.29 36.9139C106.386 36.6979 106.536 36.5339 106.74 36.4219C106.948 36.3099 107.206 36.2539 107.514 36.2539V36.9679C107.482 36.9599 107.452 36.9559 107.424 36.9559C107.396 36.9519 107.368 36.9499 107.34 36.9499C107.056 36.9499 106.83 37.0339 106.662 37.2019C106.494 37.3659 106.41 37.6119 106.41 37.9399V39.4939H105.66Z" fill="#404568"/>
<path d="M93.7803 61.6694C93.4676 61.6694 93.1783 61.6087 92.9123 61.4874C92.6509 61.366 92.4363 61.191 92.2683 60.9624L92.7863 60.3394C92.9216 60.526 93.0686 60.666 93.2273 60.7594C93.3906 60.8527 93.5679 60.8994 93.7593 60.8994C94.2679 60.8994 94.5223 60.5984 94.5223 59.9964V57.4624H92.7793V56.6994H95.4323V59.9474C95.4323 60.526 95.2899 60.9577 95.0053 61.2424C94.7253 61.527 94.3169 61.6694 93.7803 61.6694ZM95.9131 61.5994L98.1181 56.6994H99.0141L101.226 61.5994H100.274L98.3771 57.1824H98.7411L96.8511 61.5994H95.9131ZM96.9281 60.4654L97.1731 59.7514H99.8191L100.064 60.4654H96.9281ZM101.849 61.5994V56.6994H102.598L105.671 60.4724H105.3V56.6994H106.203V61.5994H105.454L102.381 57.8264H102.752V61.5994H101.849Z" fill="#404568"/>
<path d="M102.151 49.9869H93.8875C93.0436 49.9869 92.3591 49.3027 92.3591 48.4589V45.9897C92.3591 45.1459 93.0433 44.4614 93.8875 44.4614H102.151C102.995 44.4614 103.679 45.1456 103.679 45.9897V48.4589C103.679 49.3027 102.995 49.9869 102.151 49.9869Z" fill="#A0D0FC"/>
<path d="M96.3773 68.0314H92.937C92.6179 68.0314 92.3594 67.7728 92.3594 67.4538V66.7856C92.3594 66.4666 92.6179 66.208 92.937 66.208H96.3773C96.6963 66.208 96.9549 66.4666 96.9549 66.7856V67.4538C96.9546 67.7728 96.696 68.0314 96.3773 68.0314Z" fill="#A0D0FC"/>
<path d="M102.677 68.0314H99.2369C98.9179 68.0314 98.6593 67.7728 98.6593 67.4538V66.7856C98.6593 66.4666 98.9179 66.208 99.2369 66.208H102.677C102.996 66.208 103.255 66.4666 103.255 66.7856V67.4538C103.255 67.7728 102.996 68.0314 102.677 68.0314Z" fill="#A0D0FC"/>
<path d="M108.977 68.0314H105.537C105.218 68.0314 104.959 67.7728 104.959 67.4538V66.7856C104.959 66.4666 105.218 66.208 105.537 66.208H108.977C109.296 66.208 109.555 66.4666 109.555 66.7856V67.4538C109.555 67.7728 109.296 68.0314 108.977 68.0314Z" fill="#A0D0FC"/>
<path d="M115.277 68.0314H111.837C111.517 68.0314 111.259 67.7728 111.259 67.4538V66.7856C111.259 66.4666 111.517 66.208 111.837 66.208H115.277C115.596 66.208 115.854 66.4666 115.854 66.7856V67.4538C115.854 67.7728 115.596 68.0314 115.277 68.0314Z" fill="#A0D0FC"/>
<path d="M121.577 68.0314H118.136C117.817 68.0314 117.559 67.7728 117.559 67.4538V66.7856C117.559 66.4666 117.817 66.208 118.136 66.208H121.577C121.896 66.208 122.154 66.4666 122.154 66.7856V67.4538C122.154 67.7728 121.896 68.0314 121.577 68.0314Z" fill="#A0D0FC"/>
<path d="M127.877 68.0314H124.436C124.117 68.0314 123.859 67.7728 123.859 67.4538V66.7856C123.859 66.4666 124.117 66.208 124.436 66.208H127.877C128.196 66.208 128.454 66.4666 128.454 66.7856V67.4538C128.454 67.7728 128.196 68.0314 127.877 68.0314Z" fill="#A0D0FC"/>
<path d="M134.176 68.0314H130.736C130.417 68.0314 130.158 67.7728 130.158 67.4538V66.7856C130.158 66.4666 130.417 66.208 130.736 66.208H134.176C134.495 66.208 134.754 66.4666 134.754 66.7856V67.4538C134.754 67.7728 134.495 68.0314 134.176 68.0314Z" fill="#A0D0FC"/>
<path d="M102.677 72.8961H99.2369C98.9179 72.8961 98.6593 72.6375 98.6593 72.3185V71.65C98.6593 71.331 98.9179 71.0724 99.2369 71.0724H102.677C102.996 71.0724 103.255 71.331 103.255 71.65V72.3185C103.255 72.6375 102.996 72.8961 102.677 72.8961Z" fill="#DFE6EF"/>
<path d="M108.977 72.8961H105.537C105.218 72.8961 104.959 72.6375 104.959 72.3185V71.65C104.959 71.331 105.218 71.0724 105.537 71.0724H108.977C109.296 71.0724 109.555 71.331 109.555 71.65V72.3185C109.555 72.6375 109.296 72.8961 108.977 72.8961Z" fill="#DFE6EF"/>
<path d="M115.277 72.8961H111.837C111.517 72.8961 111.259 72.6375 111.259 72.3185V71.65C111.259 71.331 111.517 71.0724 111.837 71.0724H115.277C115.596 71.0724 115.854 71.331 115.854 71.65V72.3185C115.854 72.6375 115.596 72.8961 115.277 72.8961Z" fill="#DFE6EF"/>
<path d="M121.577 72.8961H118.136C117.817 72.8961 117.559 72.6375 117.559 72.3185V71.65C117.559 71.331 117.817 71.0724 118.136 71.0724H121.577C121.896 71.0724 122.154 71.331 122.154 71.65V72.3185C122.154 72.6375 121.896 72.8961 121.577 72.8961Z" fill="#DFE6EF"/>
<path d="M127.877 72.8961H124.436C124.117 72.8961 123.859 72.6375 123.859 72.3185V71.65C123.859 71.331 124.117 71.0724 124.436 71.0724H127.877C128.196 71.0724 128.454 71.331 128.454 71.65V72.3185C128.454 72.6375 128.196 72.8961 127.877 72.8961Z" fill="#DFE6EF"/>
<path d="M134.176 72.8961H130.736C130.417 72.8961 130.158 72.6375 130.158 72.3185V71.65C130.158 71.331 130.417 71.0724 130.736 71.0724H134.176C134.495 71.0724 134.754 71.331 134.754 71.65V72.3185C134.754 72.6375 134.495 72.8961 134.176 72.8961Z" fill="#DFE6EF"/>
<path d="M102.677 77.7607H99.2369C98.9179 77.7607 98.6593 77.5021 98.6593 77.1831V76.5146C98.6593 76.1956 98.9179 75.937 99.2369 75.937H102.677C102.996 75.937 103.255 76.1956 103.255 76.5146V77.1831C103.255 77.5021 102.996 77.7607 102.677 77.7607Z" fill="#DFE6EF"/>
<path d="M96.3773 77.7607H92.937C92.6179 77.7607 92.3594 77.5021 92.3594 77.1831V76.5146C92.3594 76.1956 92.6179 75.937 92.937 75.937H96.3773C96.6963 75.937 96.9549 76.1956 96.9549 76.5146V77.1831C96.9546 77.5021 96.696 77.7607 96.3773 77.7607Z" fill="#DFE6EF"/>
<path d="M108.977 77.7607H105.537C105.218 77.7607 104.959 77.5021 104.959 77.1831V76.5146C104.959 76.1956 105.218 75.937 105.537 75.937H108.977C109.296 75.937 109.555 76.1956 109.555 76.5146V77.1831C109.555 77.5021 109.296 77.7607 108.977 77.7607Z" fill="#DFE6EF"/>
<path d="M115.277 77.7607H111.837C111.517 77.7607 111.259 77.5021 111.259 77.1831V76.5146C111.259 76.1956 111.517 75.937 111.837 75.937H115.277C115.596 75.937 115.854 76.1956 115.854 76.5146V77.1831C115.854 77.5021 115.596 77.7607 115.277 77.7607Z" fill="#DFE6EF"/>
<path d="M121.577 77.7607H118.136C117.817 77.7607 117.559 77.5021 117.559 77.1831V76.5146C117.559 76.1956 117.817 75.937 118.136 75.937H121.577C121.896 75.937 122.154 76.1956 122.154 76.5146V77.1831C122.154 77.5021 121.896 77.7607 121.577 77.7607Z" fill="#DFE6EF"/>
<path d="M127.877 77.7607H124.436C124.117 77.7607 123.859 77.5021 123.859 77.1831V76.5146C123.859 76.1956 124.117 75.937 124.436 75.937H127.877C128.196 75.937 128.454 76.1956 128.454 76.5146V77.1831C128.454 77.5021 128.196 77.7607 127.877 77.7607Z" fill="#DFE6EF"/>
<path d="M134.176 77.7607H130.736C130.417 77.7607 130.158 77.5021 130.158 77.1831V76.5146C130.158 76.1956 130.417 75.937 130.736 75.937H134.176C134.495 75.937 134.754 76.1956 134.754 76.5146V77.1831C134.754 77.5021 134.495 77.7607 134.176 77.7607Z" fill="#DFE6EF"/>
<path d="M102.677 82.6253H99.2369C98.9179 82.6253 98.6593 82.3667 98.6593 82.0477V81.3792C98.6593 81.0602 98.9179 80.8016 99.2369 80.8016H102.677C102.996 80.8016 103.255 81.0602 103.255 81.3792V82.0477C103.255 82.3667 102.996 82.6253 102.677 82.6253Z" fill="#DFE6EF"/>
<path d="M96.3773 82.6253H92.937C92.6179 82.6253 92.3594 82.3667 92.3594 82.0477V81.3792C92.3594 81.0602 92.6179 80.8016 92.937 80.8016H96.3773C96.6963 80.8016 96.9549 81.0602 96.9549 81.3792V82.0477C96.9546 82.3667 96.696 82.6253 96.3773 82.6253Z" fill="#DFE6EF"/>
<path d="M108.977 82.6253H105.537C105.218 82.6253 104.959 82.3667 104.959 82.0477V81.3792C104.959 81.0602 105.218 80.8016 105.537 80.8016H108.977C109.296 80.8016 109.555 81.0602 109.555 81.3792V82.0477C109.555 82.3667 109.296 82.6253 108.977 82.6253Z" fill="#DFE6EF"/>
<path d="M115.277 82.6253H111.837C111.517 82.6253 111.259 82.3667 111.259 82.0477V81.3792C111.259 81.0602 111.517 80.8016 111.837 80.8016H115.277C115.596 80.8016 115.854 81.0602 115.854 81.3792V82.0477C115.854 82.3667 115.596 82.6253 115.277 82.6253Z" fill="#A0D0FC"/>
<path d="M121.577 82.6253H118.136C117.817 82.6253 117.559 82.3667 117.559 82.0477V81.3792C117.559 81.0602 117.817 80.8016 118.136 80.8016H121.577C121.896 80.8016 122.154 81.0602 122.154 81.3792V82.0477C122.154 82.3667 121.896 82.6253 121.577 82.6253Z" fill="#DFE6EF"/>
<path d="M127.877 82.6253H124.436C124.117 82.6253 123.859 82.3667 123.859 82.0477V81.3792C123.859 81.0602 124.117 80.8016 124.436 80.8016H127.877C128.196 80.8016 128.454 81.0602 128.454 81.3792V82.0477C128.454 82.3667 128.196 82.6253 127.877 82.6253Z" fill="#DFE6EF"/>
<path d="M134.176 82.6253H130.736C130.417 82.6253 130.158 82.3667 130.158 82.0477V81.3792C130.158 81.0602 130.417 80.8016 130.736 80.8016H134.176C134.495 80.8016 134.754 81.0602 134.754 81.3792V82.0477C134.754 82.3667 134.495 82.6253 134.176 82.6253Z" fill="#DFE6EF"/>
<path d="M102.677 87.4897H99.2369C98.9179 87.4897 98.6593 87.2311 98.6593 86.9121V86.2436C98.6593 85.9246 98.9179 85.666 99.2369 85.666H102.677C102.996 85.666 103.255 85.9246 103.255 86.2436V86.9121C103.255 87.2311 102.996 87.4897 102.677 87.4897Z" fill="#DFE6EF"/>
<path d="M96.3773 87.4897H92.937C92.6179 87.4897 92.3594 87.2311 92.3594 86.9121V86.2436C92.3594 85.9246 92.6179 85.666 92.937 85.666H96.3773C96.6963 85.666 96.9549 85.9246 96.9549 86.2436V86.9121C96.9546 87.2311 96.696 87.4897 96.3773 87.4897Z" fill="#DFE6EF"/>
<path d="M108.977 87.4897H105.537C105.218 87.4897 104.959 87.2311 104.959 86.9121V86.2436C104.959 85.9246 105.218 85.666 105.537 85.666H108.977C109.296 85.666 109.555 85.9246 109.555 86.2436V86.9121C109.555 87.2311 109.296 87.4897 108.977 87.4897Z" fill="#DFE6EF"/>
<path d="M115.277 87.4897H111.837C111.517 87.4897 111.259 87.2311 111.259 86.9121V86.2436C111.259 85.9246 111.517 85.666 111.837 85.666H115.277C115.596 85.666 115.854 85.9246 115.854 86.2436V86.9121C115.854 87.2311 115.596 87.4897 115.277 87.4897Z" fill="#DFE6EF"/>
<path d="M121.577 87.4897H118.136C117.817 87.4897 117.559 87.2311 117.559 86.9121V86.2436C117.559 85.9246 117.817 85.666 118.136 85.666H121.577C121.896 85.666 122.154 85.9246 122.154 86.2436V86.9121C122.154 87.2311 121.896 87.4897 121.577 87.4897Z" fill="#DFE6EF"/>
<path d="M127.877 87.4897H124.436C124.117 87.4897 123.859 87.2311 123.859 86.9121V86.2436C123.859 85.9246 124.117 85.666 124.436 85.666H127.877C128.196 85.666 128.454 85.9246 128.454 86.2436V86.9121C128.454 87.2311 128.196 87.4897 127.877 87.4897Z" fill="#DFE6EF"/>
<path d="M134.176 87.4897H130.736C130.417 87.4897 130.158 87.2311 130.158 86.9121V86.2436C130.158 85.9246 130.417 85.666 130.736 85.666H134.176C134.495 85.666 134.754 85.9246 134.754 86.2436V86.9121C134.754 87.2311 134.495 87.4897 134.176 87.4897Z" fill="#DFE6EF"/>
<path d="M102.677 92.3543H99.2369C98.9179 92.3543 98.6593 92.0958 98.6593 91.7767V91.1082C98.6593 90.7892 98.9179 90.5306 99.2369 90.5306H102.677C102.996 90.5306 103.255 90.7892 103.255 91.1082V91.7767C103.255 92.0958 102.996 92.3543 102.677 92.3543Z" fill="#DFE6EF"/>
<path d="M96.3773 92.3543H92.937C92.6179 92.3543 92.3594 92.0958 92.3594 91.7767V91.1082C92.3594 90.7892 92.6179 90.5306 92.937 90.5306H96.3773C96.6963 90.5306 96.9549 90.7892 96.9549 91.1082V91.7767C96.9546 92.0958 96.696 92.3543 96.3773 92.3543Z" fill="#DFE6EF"/>
<path d="M108.977 92.3543H105.537C105.218 92.3543 104.959 92.0958 104.959 91.7767V91.1082C104.959 90.7892 105.218 90.5306 105.537 90.5306H108.977C109.296 90.5306 109.555 90.7892 109.555 91.1082V91.7767C109.555 92.0958 109.296 92.3543 108.977 92.3543Z" fill="#DFE6EF"/>
<path d="M115.277 92.3543H111.837C111.517 92.3543 111.259 92.0958 111.259 91.7767V91.1082C111.259 90.7892 111.517 90.5306 111.837 90.5306H115.277C115.596 90.5306 115.854 90.7892 115.854 91.1082V91.7767C115.854 92.0958 115.596 92.3543 115.277 92.3543Z" fill="#DFE6EF"/>
<path d="M121.577 92.3543H118.136C117.817 92.3543 117.559 92.0958 117.559 91.7767V91.1082C117.559 90.7892 117.817 90.5306 118.136 90.5306H121.577C121.896 90.5306 122.154 90.7892 122.154 91.1082V91.7767C122.154 92.0958 121.896 92.3543 121.577 92.3543Z" fill="#DFE6EF"/>
<path d="M127.877 92.3543H124.436C124.117 92.3543 123.859 92.0958 123.859 91.7767V91.1082C123.859 90.7892 124.117 90.5306 124.436 90.5306H127.877C128.196 90.5306 128.454 90.7892 128.454 91.1082V91.7767C128.454 92.0958 128.196 92.3543 127.877 92.3543Z" fill="#DFE6EF"/>
<path d="M134.176 92.3543H130.736C130.417 92.3543 130.158 92.0958 130.158 91.7767V91.1082C130.158 90.7892 130.417 90.5306 130.736 90.5306H134.176C134.495 90.5306 134.754 90.7892 134.754 91.1082V91.7767C134.754 92.0958 134.495 92.3543 134.176 92.3543Z" fill="#DFE6EF"/>
<path d="M115.217 49.9869H106.954C106.11 49.9869 105.426 49.3027 105.426 48.4589V45.9897C105.426 45.1459 106.11 44.4614 106.954 44.4614H115.217C116.061 44.4614 116.745 45.1456 116.745 45.9897V48.4589C116.745 49.3027 116.061 49.9869 115.217 49.9869Z" fill="#DFE6EF"/>
<path d="M128.979 49.9869H120.715C119.871 49.9869 119.187 49.3027 119.187 48.4589V45.9897C119.187 45.1459 119.871 44.4614 120.715 44.4614H128.979C129.823 44.4614 130.507 45.1456 130.507 45.9897V48.4589C130.507 49.3027 129.823 49.9869 128.979 49.9869Z" fill="#DFE6EF"/>
<path d="M92.9233 105.871V101.671H93.5653L96.1993 104.905H95.8813V101.671H96.6553V105.871H96.0133L93.3793 102.637H93.6973V105.871H92.9233ZM99.1487 105.913C98.8207 105.913 98.5287 105.843 98.2727 105.703C98.0167 105.559 97.8147 105.363 97.6667 105.115C97.5187 104.867 97.4447 104.585 97.4447 104.269C97.4447 103.949 97.5187 103.667 97.6667 103.423C97.8147 103.175 98.0167 102.981 98.2727 102.841C98.5287 102.701 98.8207 102.631 99.1487 102.631C99.4807 102.631 99.7747 102.701 100.031 102.841C100.291 102.981 100.493 103.173 100.637 103.417C100.785 103.661 100.859 103.945 100.859 104.269C100.859 104.585 100.785 104.867 100.637 105.115C100.493 105.363 100.291 105.559 100.031 105.703C99.7747 105.843 99.4807 105.913 99.1487 105.913ZM99.1487 105.271C99.3327 105.271 99.4967 105.231 99.6407 105.151C99.7847 105.071 99.8967 104.955 99.9767 104.803C100.061 104.651 100.103 104.473 100.103 104.269C100.103 104.061 100.061 103.883 99.9767 103.735C99.8967 103.583 99.7847 103.467 99.6407 103.387C99.4967 103.307 99.3347 103.267 99.1547 103.267C98.9707 103.267 98.8067 103.307 98.6627 103.387C98.5227 103.467 98.4107 103.583 98.3267 103.735C98.2427 103.883 98.2007 104.061 98.2007 104.269C98.2007 104.473 98.2427 104.651 98.3267 104.803C98.4107 104.955 98.5227 105.071 98.6627 105.151C98.8067 105.231 98.9687 105.271 99.1487 105.271ZM102.782 105.913C102.43 105.913 102.158 105.823 101.966 105.643C101.774 105.459 101.678 105.189 101.678 104.833V101.959H102.428V104.815C102.428 104.967 102.466 105.085 102.542 105.169C102.622 105.253 102.732 105.295 102.872 105.295C103.04 105.295 103.18 105.251 103.292 105.163L103.502 105.697C103.414 105.769 103.306 105.823 103.178 105.859C103.05 105.895 102.918 105.913 102.782 105.913ZM101.15 103.291V102.691H103.286V103.291H101.15ZM105.519 105.913C105.163 105.913 104.851 105.843 104.583 105.703C104.319 105.559 104.113 105.363 103.965 105.115C103.821 104.867 103.749 104.585 103.749 104.269C103.749 103.949 103.819 103.667 103.959 103.423C104.103 103.175 104.299 102.981 104.547 102.841C104.799 102.701 105.085 102.631 105.405 102.631C105.717 102.631 105.995 102.699 106.239 102.835C106.483 102.971 106.675 103.163 106.815 103.411C106.955 103.659 107.025 103.951 107.025 104.287C107.025 104.319 107.023 104.355 107.019 104.395C107.019 104.435 107.017 104.473 107.013 104.509H104.343V104.011H106.617L106.323 104.167C106.327 103.983 106.289 103.821 106.209 103.681C106.129 103.541 106.019 103.431 105.879 103.351C105.743 103.271 105.585 103.231 105.405 103.231C105.221 103.231 105.059 103.271 104.919 103.351C104.783 103.431 104.675 103.543 104.595 103.687C104.519 103.827 104.481 103.993 104.481 104.185V104.305C104.481 104.497 104.525 104.667 104.613 104.815C104.701 104.963 104.825 105.077 104.985 105.157C105.145 105.237 105.329 105.277 105.537 105.277C105.717 105.277 105.879 105.249 106.023 105.193C106.167 105.137 106.295 105.049 106.407 104.929L106.809 105.391C106.665 105.559 106.483 105.689 106.263 105.781C106.047 105.869 105.799 105.913 105.519 105.913Z" fill="#404568"/>
<path d="M133.226 112.364H93.8875C93.0436 112.364 92.3591 111.68 92.3591 110.835V108.366C92.3591 107.523 93.0433 106.838 93.8875 106.838H133.226C134.07 106.838 134.754 107.523 134.754 108.366V110.835C134.754 111.68 134.07 112.364 133.226 112.364Z" fill="#A0D0FC"/>
<path d="M92.3594 118.168H134.754" stroke="#DFE6EF" stroke-miterlimit="10"/>
<path d="M92.3594 122.756H134.754" stroke="#DFE6EF" stroke-miterlimit="10"/>
<path d="M92.3594 127.343H134.754" stroke="#DFE6EF" stroke-miterlimit="10"/>
</g>
<path d="M32.6825 39.3008C32.6825 39.3008 26.3232 40.1869 24.968 42.8976C23.6128 45.6083 22.6745 53.6355 21.9968 56.711C21.319 59.7865 20.7977 63.0704 20.7977 63.0704C20.7977 63.0704 20.0681 64.5299 19.703 68.8566C19.3382 73.183 19.0253 78.2915 19.0253 78.2915C19.0253 78.2915 20.8496 79.2297 22.7782 78.6041C22.7782 78.6041 24.2378 73.6521 25.176 70.0553C26.1142 66.4585 28.7728 57.5449 28.7728 57.5449L28.095 73.1309C28.095 73.1309 32.5257 76.2585 40.6576 75.3725C48.7894 74.4864 51.4998 71.9843 51.4998 71.9843C51.4998 71.9843 50.6138 66.0941 50.3008 60.4643C49.9881 54.8345 50.1965 52.1241 50.1965 52.1241C50.1965 52.1241 57.5462 56.7113 61.0387 58.0665C64.5312 59.4217 79.5437 57.7017 79.5437 57.7017V53.5837C79.5437 53.5837 73.5491 53.3232 69.7962 53.2189C66.0429 53.1145 65.0006 53.1667 65.0006 53.1667C65.0006 53.1667 57.2858 46.0774 53.5849 43.4451C49.8842 40.8128 49.519 40.135 43.5507 39.3533L32.6825 39.3008Z" fill="#93B0F0"/>
<path d="M31.3401 22.2035C31.3401 22.2035 31.2901 26.8429 31.3401 28.8759C31.39 30.9088 34.0329 34.5578 34.9801 35.6003C35.9276 36.6429 39.7173 36.2781 40.565 35.6003C41.4127 34.9226 43.0581 31.5325 43.5071 30.2563C43.9557 28.9802 43.5071 23.0378 43.5071 23.0378C43.5071 23.0378 41.2633 20.7443 37.2741 20.64C37.2741 20.64 35.1797 22.6727 31.3401 22.2035Z" fill="#D2796F"/>
<path d="M31.4316 28.8755C31.4146 28.216 31.4089 27.2823 31.4086 26.3216C31.3254 25.9824 30.9823 24.9056 29.9721 24.8618C28.773 24.8096 28.0956 31.0128 31.6402 30.1786C31.6674 30.1722 31.6902 30.1645 31.7164 30.1581C31.5458 29.6925 31.4412 29.2557 31.4316 28.8755Z" fill="#D2796F"/>
<path d="M45.7014 22.3078C45.5021 19.6493 44.5046 17.9814 42.4102 17.7728C40.3158 17.5641 39.169 16.0006 37.0246 16.0528C34.8803 16.1049 31.4397 16.7305 30.6918 20.0144C30.6918 20.0144 29.8442 19.5453 29.4451 20.64C29.167 21.4032 29.4464 23.6857 29.641 24.9987C29.7357 24.9069 29.8374 24.8576 29.9437 24.8624C30.9101 24.9062 31.2381 25.983 31.3177 26.3222C31.3177 26.3645 31.3177 26.4064 31.3177 26.4483C31.3161 24.4112 31.3398 22.2038 31.3398 22.2038C35.1795 22.6729 37.2739 20.64 37.2739 20.64C41.263 20.7443 43.5069 23.0377 43.5069 23.0377C43.5069 23.0377 43.6362 24.752 43.6864 26.5369L43.7062 26.5302C43.7069 26.5299 45.9008 24.9661 45.7014 22.3078Z" fill="#313440"/>
<path d="M40.6262 35.5427C40.6061 35.561 40.5843 35.5846 40.5651 35.6C39.7174 36.2778 35.9277 36.6426 34.9802 35.6C34.7424 35.3386 34.3981 34.9127 34.0144 34.3898C34.0144 34.3898 34.7152 37.0595 34.2982 38.415C34.2982 38.415 35.4973 39.8746 36.4355 39.8746C36.4355 39.8746 36.0186 40.7607 35.8621 41.3341C35.8621 41.3341 37.7962 42.6131 40.5066 41.3101C40.5066 41.3101 40.449 40.448 39.8758 39.8224C39.8758 39.8224 40.7619 39.0928 41.544 38.5194C41.544 38.5194 40.5891 37.3645 40.6262 35.5427Z" fill="#D2796F"/>
<path d="M34.2985 38.4147C34.2985 38.4147 33.334 38.4147 32.6825 39.3008C32.6825 39.3008 33.1516 42.272 35.2889 43.888C35.2889 43.888 35.2889 42.7932 35.8623 41.3337C36.0188 40.7603 36.4358 39.8742 36.4358 39.8742C35.4972 39.8742 34.2985 38.4147 34.2985 38.4147Z" fill="#C0D5FC"/>
<path d="M39.8761 39.8221C39.8761 39.8221 40.8665 41.1514 40.6579 43.4448C40.6579 43.4448 42.6908 42.7152 43.551 39.353C43.551 39.353 42.8732 38.4148 41.5443 38.5191L39.8761 39.8221Z" fill="#C0D5FC"/>
<path d="M19.2739 74.5216C19.5021 74.8611 19.8195 75.1053 20.1517 75.297C20.4896 75.4835 20.8618 75.5994 21.2432 75.6643C21.6234 75.7443 22.0182 75.7462 22.4144 75.7558L23.0131 75.7325C23.2141 75.7206 23.4144 75.6979 23.6208 75.695C23.4304 75.7686 23.2333 75.8227 23.0374 75.8874C22.8384 75.9354 22.6352 75.9699 22.4314 76.0048C22.2259 76.0237 22.0186 76.0403 21.8102 76.0394C21.6016 76.0288 21.3926 76.0214 21.1856 75.9789C20.7738 75.9024 20.3626 75.7584 20.0179 75.5069C19.6752 75.2608 19.3898 74.9178 19.2739 74.5216Z" fill="#313440"/>
<path d="M75.2874 58.1177C75.4202 57.7369 75.5043 57.3526 75.5773 56.9673C75.6451 56.5811 75.6938 56.1929 75.7235 55.8025C75.7574 55.4121 75.7658 55.0198 75.7731 54.6249L75.7747 54.03C75.7734 53.831 75.7658 53.6316 75.7754 53.4281C75.8986 53.8127 75.9808 54.2099 76.0227 54.6124C76.0666 55.015 76.072 55.422 76.0422 55.8275C76.0048 56.2323 75.9398 56.6361 75.8189 57.0259C75.6976 57.4134 75.5386 57.7974 75.2874 58.1177Z" fill="#313440"/>
<path d="M28.7731 57.5453C28.8742 56.6592 29.0694 55.7975 29.2873 54.9421C29.5145 54.089 29.7654 53.242 30.111 52.4196C30.0105 53.306 29.8153 54.1674 29.5968 55.0228C29.3686 55.8759 29.1177 56.7226 28.7731 57.5453Z" fill="#313440"/>
<path d="M50.197 52.1242C50.0489 51.3412 49.9836 50.5588 49.9263 49.7757C49.877 48.9914 49.8396 48.2119 49.8495 47.4154C50.0911 48.177 50.1868 48.9677 50.2453 49.7543C50.2921 50.5424 50.301 51.3332 50.197 52.1242Z" fill="#313440"/>
<path d="M22.7263 80.8112C22.1878 79.8208 22.4905 78.686 22.4905 78.686L22.4876 78.6848C21.2044 79.0025 20.0108 78.6774 19.4182 78.4569L19.4175 78.4572C19.4175 78.4572 19.3036 79.4208 19.0259 80.6371C18.7478 81.8534 18.3657 82.6179 18.7132 84.286C19.0607 85.9542 19.6863 88.3868 20.2422 89.047C20.798 89.7072 21.7017 90.35 22.1359 90.2633C22.5705 90.1766 22.3967 89.7248 22.3967 89.7248C22.3967 89.7248 22.8486 89.551 22.6748 88.8732C22.6748 88.8732 22.9455 88.3868 22.7145 87.9177C22.4838 87.4486 21.7884 87.1878 21.5107 86.5276C21.2326 85.8675 21.3718 84.5641 21.7539 84.5296C22.1359 84.4947 22.1708 85.2073 22.1881 86.0934C22.2054 86.9795 22.7267 87.2924 23.1263 87.1187C23.526 86.9449 23.3523 83.7132 23.2652 83.1744C23.1782 82.6355 23.2649 81.8016 22.7263 80.8112Z" fill="#D2796F"/>
<path d="M22.3961 89.7249C22.2121 89.4298 21.9692 89.1975 21.7158 88.985C21.6505 88.9284 21.5878 88.8919 21.517 88.8237L21.4063 88.7088L21.3279 88.5812C21.2367 88.4065 21.1916 88.2247 21.1606 88.0471C21.1078 87.6887 21.1135 87.3357 21.1532 86.9885C21.1922 86.6416 21.2623 86.2996 21.3804 85.97C21.3945 86.3188 21.3945 86.6608 21.4028 86.9997C21.414 87.3376 21.4236 87.6749 21.4764 87.9956C21.4978 88.1562 21.5378 88.3114 21.5977 88.4449L21.6447 88.5421L21.7065 88.6183C21.7545 88.674 21.8316 88.7389 21.887 88.8045C22.1254 89.065 22.3346 89.3754 22.3961 89.7249Z" fill="#313440"/>
<path d="M22.6742 88.8732C22.3276 88.6284 22.0281 88.3798 21.7171 88.1241C21.55 87.9772 21.4083 87.7942 21.3305 87.5856C21.2502 87.3804 21.2211 87.1523 21.2796 86.944C21.43 87.3395 21.6425 87.6409 21.9241 87.8803C22.0787 88.0144 22.2313 88.1619 22.3593 88.327C22.4883 88.4915 22.6041 88.6697 22.6742 88.8732Z" fill="#313440"/>
<path d="M51.5001 71.9843C51.5001 71.9843 48.7894 74.4863 40.6579 75.3724C32.526 76.2585 28.0953 73.1308 28.0953 73.1308C28.0953 73.1308 27.574 83.3475 29.2422 93.3558C30.9103 103.364 30.806 104.511 31.1187 109.723C31.4313 114.936 31.6399 132.138 31.6399 132.138C31.6399 132.138 36.3315 135.891 41.6483 132.138C41.6483 132.138 41.3356 122.13 40.6057 114.415C39.8758 106.7 42.0652 86.9436 42.0652 86.9436C42.0652 86.9436 46.9651 97.7343 45.8185 104.302C44.6716 110.87 46.5484 130.783 46.5484 130.783C46.5484 130.783 52.0739 133.597 56.2441 128.489C56.2441 128.489 55.4102 114.415 55.2015 100.237C54.9929 86.0585 51.5001 71.9843 51.5001 71.9843Z" fill="#4B6CD8"/>
<path d="M39.6291 133.239C37.4454 134.098 35.4745 133.844 34.0364 133.364C34.0364 133.364 33.1692 136.864 32.5436 139.227C31.918 141.591 32.5436 143.259 35.7408 143.328C38.9379 143.397 41.0924 143.05 41.6486 142.077C42.2048 141.104 40.5366 139.089 40.1196 136.378C39.8585 134.682 39.7062 133.721 39.6291 133.239Z" fill="#313440"/>
<path d="M63.4719 134.363C61.8771 133.469 57.3564 131.873 55.6031 129.198C53.335 131.491 50.7875 131.724 48.9727 131.477C48.9043 132.811 48.8547 135.715 49.7103 135.822C50.8223 135.961 53.1158 135.344 55.8265 136.799C58.5372 138.255 62.0819 138.88 63.4716 138.602C64.862 138.324 65.2095 135.335 63.4719 134.363Z" fill="#313440"/>
<path d="M30.5279 74.3126C30.598 75.1574 30.5916 76.0061 30.5519 76.8531C30.5145 77.7005 30.4198 78.5459 30.2764 79.3846C30.1254 80.2211 29.9257 81.0547 29.6108 81.8509C29.2934 82.6371 28.8838 83.4288 28.2217 83.9741C28.503 83.6569 28.7302 83.3027 28.91 82.9257C29.0985 82.5536 29.2505 82.1641 29.3791 81.7673C29.6319 80.9718 29.8194 80.1549 29.9612 79.3289C30.1106 78.504 30.2121 77.6697 30.3074 76.8336C30.3551 76.4153 30.3932 75.9958 30.4265 75.5757C30.4697 75.1558 30.4953 74.735 30.5279 74.3126Z" fill="#313440"/>
<path d="M42.8297 74.9943C43.0009 75.7939 43.1091 76.6042 43.1945 77.4167C43.2838 78.2291 43.3209 79.0471 43.3321 79.8656C43.3389 80.6839 43.3001 81.5059 43.1849 82.32C43.1315 82.7274 43.0429 83.1303 42.9481 83.5299L42.7507 84.1152C42.6685 84.3043 42.5737 84.4874 42.4825 84.6688L42.6701 84.089L42.7952 83.4957C42.8576 83.096 42.9174 82.6976 42.9405 82.2935C42.9965 81.4877 43.0262 80.6791 43.0125 79.8685C43.0093 79.0583 42.9808 78.2474 42.9504 77.4352L42.8297 74.9943Z" fill="#313440"/>
<path d="M49.9961 72.9366C50.0633 73.271 50.1254 73.6038 50.2124 73.9315C50.2867 74.2611 50.3724 74.5878 50.4668 74.9114C50.6579 75.5578 50.8694 76.1958 51.1238 76.8163C51.366 77.4426 51.6787 78.0358 52.0073 78.6202L52.2697 79.0502C52.3593 79.1926 52.4649 79.3232 52.5609 79.4618C52.7388 79.7517 52.9795 79.9888 53.1824 80.2662C52.6595 79.8304 52.1856 79.3232 51.8003 78.7526C51.4134 78.1846 51.0828 77.5754 50.8281 76.937C50.5747 76.2982 50.3667 75.6419 50.2297 74.9706C50.0908 74.3005 49.9942 73.6202 49.9961 72.9366Z" fill="#313440"/>
<path d="M28.183 71.1161C29.1103 71.4761 30.0588 71.775 31.0195 72.0233C31.9775 72.2803 32.9468 72.4934 33.9241 72.6566C35.8774 72.9852 37.8582 73.1529 39.8358 73.0966C40.8239 73.072 41.8115 73.0038 42.7919 72.8745C43.7708 72.7356 44.7439 72.5545 45.7036 72.3123C46.6623 72.0697 47.6118 71.7798 48.5334 71.4144C49.4681 71.079 50.3593 70.6393 51.2527 70.2009C49.5443 71.2204 47.6947 72.0198 45.7667 72.55C43.8396 73.0883 41.8422 73.3539 39.8435 73.416C37.8435 73.446 35.8406 73.2809 33.8803 72.8976C31.9238 72.5062 29.9926 71.9504 28.183 71.1161Z" fill="#313440"/>
<path d="M79.5443 53.9135C79.5443 53.9135 80.8128 53.4271 81.8205 52.9753C82.8281 52.5235 83.7318 52.0716 85.1913 51.6547C86.6509 51.2377 87.6934 51.0639 87.9715 51.4115C88.2496 51.759 87.1376 52.3379 86.1993 52.5695C85.2611 52.8015 85.0874 53.4281 85.0874 53.4281C85.0874 53.4281 86.5894 53.6355 87.5066 53.566C88.4237 53.4966 89.5008 53.0447 90.1264 52.7667C90.752 52.4886 91.4122 51.9327 91.7946 52.2105C91.7946 52.2105 92.2115 52.2454 92.3507 52.8012C92.4896 53.3574 90.9955 54.2607 90.9955 54.2607C90.9955 54.2607 90.8912 54.6431 89.8486 55.4076C88.8061 56.1721 87.9024 56.5545 87.9024 56.5545C87.9024 56.5545 86.5817 57.4582 83.8713 57.8751C81.1606 58.2921 80.6742 57.1452 79.545 57.1106V53.9135H79.5443Z" fill="#D2796F"/>
<path d="M86.3033 55.408C86.8093 55.2784 87.3152 55.1011 87.7005 54.8013C87.7936 54.7245 87.8758 54.6387 87.9385 54.5449C88.0073 54.4445 88.0819 54.3219 88.1609 54.2157C88.3232 53.9987 88.4982 53.7885 88.7401 53.6166C88.8633 53.5395 89.0115 53.4512 89.2141 53.4749C89.3145 53.4851 89.4041 53.5347 89.4758 53.6035C89.5606 53.6976 89.5805 53.7971 89.5862 53.8781C89.5933 54.199 89.4979 54.4467 89.4016 54.6998C89.2009 55.1961 88.9357 55.6614 88.5968 56.0681C88.8294 55.5968 89.0121 55.1062 89.1654 54.6179C89.232 54.3773 89.3069 54.1139 89.2845 53.9085C89.2941 53.7629 89.1062 53.7363 88.9187 53.8816C88.7283 54.0083 88.5581 54.2029 88.4009 54.3987C88.3181 54.4982 88.2509 54.5968 88.1657 54.7075C88.0768 54.8278 87.9648 54.9229 87.8477 55.0013C87.3731 55.3097 86.8278 55.3977 86.3033 55.408Z" fill="#313440"/>
<path d="M90.9949 54.2612C91.0118 53.9917 91.04 53.7268 91.0237 53.4848C91.0141 53.369 90.983 53.248 90.9411 53.2263C90.9129 53.2055 90.8339 53.1956 90.7334 53.2464C90.5312 53.3328 90.3235 53.5034 90.1123 53.6525C89.9011 53.8071 89.6832 53.9645 89.4403 54.0877C89.5955 53.8644 89.7622 53.6592 89.9475 53.465C90.1357 53.2724 90.3277 53.0832 90.6093 52.9517C90.6816 52.9223 90.7648 52.8986 90.8598 52.8964C90.9571 52.898 91.063 52.9236 91.1481 53.0061C91.2963 53.1776 91.2819 53.3482 91.2726 53.489C91.2397 53.7757 91.1379 54.0292 90.9949 54.2612Z" fill="#313440"/>
<path d="M34.4282 37.4275C35.7875 37.872 38.3056 38.2873 40.6995 36.5059C40.6483 36.2108 40.6192 35.8889 40.6262 35.5424C40.6061 35.5606 40.5843 35.5843 40.5651 35.5996C39.7174 36.2774 35.9277 36.6422 34.9802 35.5996C34.7424 35.3382 34.3981 34.9123 34.0144 34.3894C34.0144 34.3894 34.4512 36.0585 34.4282 37.4275Z" fill="#313440"/>
<path d="M31.3181 26.3215C31.3395 26.9811 31.3574 27.6169 31.423 28.2518C31.4489 28.5695 31.4937 28.8844 31.543 29.2003C31.5881 29.5183 31.6614 29.8294 31.7161 30.158C31.5382 29.8796 31.3933 29.5759 31.3002 29.2575C31.1984 28.9407 31.1376 28.6124 31.105 28.2822C31.0765 27.9516 31.0701 27.6188 31.1053 27.2892C31.1373 26.9603 31.1987 26.6319 31.3181 26.3215Z" fill="#313440"/>
<path d="M49.8495 47.4154L55.8309 55.4548L50.197 52.1242L49.8495 47.4154Z" fill="#313440"/>
<path d="M30.111 52.4196L28.3539 67.184L28.7731 57.5453L30.111 52.4196Z" fill="#313440"/>
<path d="M42.0652 86.944L42.7503 84.1149C42.7503 84.1149 44.9148 89.1859 46.3049 95.5801C47.6949 101.974 45.4716 108.647 45.4716 108.647C45.4716 108.647 46.0962 105.102 45.9573 101.905C45.8185 98.7078 43.8722 90.5401 42.0652 86.944Z" fill="#313440"/>
<path d="M35.2889 43.888C35.2889 43.888 35.8521 42.6422 37.1213 41.8185L35.8624 41.3337C35.8624 41.3337 35.3149 42.7411 35.2889 43.888Z" fill="#313440"/>
<path d="M40.5069 41.3097C40.5069 41.3097 39.8438 41.6297 39.3827 41.7324C39.3827 41.7324 40.5536 42.4806 40.6579 43.4451C40.6579 43.4451 40.9501 42.2742 40.5069 41.3097Z" fill="#313440"/>
</g>
<defs>
<clipPath id="clip0_247_7975">
<rect width="160" height="160" fill="white"/>
</clipPath>
</defs>
</svg>
