<svg width="160" height="160" viewBox="0 0 160 160" fill="none" xmlns="http://www.w3.org/2000/svg">
    <g clip-path="url(#5e0x86nv8a)">
        <path d="M29.805 129.947s-17.21-.134-21.136 2.41c-3.926 2.544 6.387 5.603 17.654 9.103 11.267 3.499 13.678 9.085 25.448 9.371 11.77.286 27.377 0 46.314 0 18.938 0 40.136 1.431 45.176-1.717 5.039-3.148 14.421-4.535 12.232-8.564-2.19-4.028-1.487-6.69-27.171-8.078-25.685-1.388-98.517-2.525-98.517-2.525z" fill="#CED4DD"/>
        <mask id="4c3yy9iy3b" style="mask-type:luminance" maskUnits="userSpaceOnUse" x="0" y="0" width="160" height="160">
            <path d="M160 0H0v160h160V0z" fill="#fff"/>
        </mask>
        <g mask="url(#4c3yy9iy3b)" fill="#EAEAEA">
            <path d="M26.841 131.271h-3.454a2.964 2.964 0 0 1-2.965-2.964V91.04a2.964 2.964 0 0 1 2.965-2.964h3.454a2.964 2.964 0 0 1 2.964 2.964v37.267a2.964 2.964 0 0 1-2.964 2.964zM70.766 131.271h-3.454a2.964 2.964 0 0 1-2.964-2.964V91.04a2.964 2.964 0 0 1 2.964-2.964h3.455a2.964 2.964 0 0 1 2.964 2.964v37.267a2.964 2.964 0 0 1-2.965 2.964z"/>
            <path d="M61.384 130.942H32.769a2.964 2.964 0 0 1-2.964-2.964V99.363A2.964 2.964 0 0 1 32.77 96.4h28.615a2.964 2.964 0 0 1 2.964 2.964v28.615a2.964 2.964 0 0 1-2.964 2.964z"/>
            <path d="M61.384 100.43H32.769a2.964 2.964 0 0 1-2.964-2.964V72.205a2.964 2.964 0 0 1 2.964-2.964h28.615a2.964 2.964 0 0 1 2.964 2.964v25.261a2.964 2.964 0 0 1-2.964 2.964zM25.74 131.271h-1.564v2.329h1.564v-2.329zM69.821 131.271h-1.564v2.329h1.564v-2.329zM25.362 51.223H-6.371l3.2-21.91h25.333l3.2 21.91z"/>
            <path d="M8.669 50.893h-.64v79.719h.64V50.893zM20.32 130.613H-3.45v2.78h23.77v-2.78z"/>
        </g>
        <mask id="o7tiohibqc" style="mask-type:luminance" maskUnits="userSpaceOnUse" x="0" y="0" width="160" height="160">
            <path d="M160 0H0v160h160V0z" fill="#fff"/>
        </mask>
        <g mask="url(#o7tiohibqc)">
            <path d="M86.123 135.837s-5.56 2.364-10.425-1.39c-4.866-3.753-12.65-29.885-8.897-34.056 3.753-4.17 9.166 8.341 9.166 8.341s-5.29-23.353 0-25.438c5.29-2.085 7.376 17.097 7.376 17.097s5.556-29.19 11.813-26.55c6.257 2.642-1.527 26.272-1.527 26.272s8.618-15.568 13.623-11.954c5.004 3.614-10.843 24.326-10.843 24.326s11.26-12.927 15.986-8.201c4.726 4.726-19.739 27.8-26.272 31.553z" fill="#41A592"/>
        </g>
        <mask id="hyzg2qm6td" style="mask-type:luminance" maskUnits="userSpaceOnUse" x="0" y="0" width="160" height="160">
            <path d="M160 0H0v160h160V0z" fill="#fff"/>
        </mask>
        <g mask="url(#hyzg2qm6td)">
            <path d="M148.689 132.138c-.397-.962-.715-1.961-1.019-2.956a59.276 59.276 0 0 1-1.803-7.771c-1.296-7.924-.964-16.064 1.45-23.746a3068.457 3068.457 0 0 1 5.969-18.734 6405.029 6405.029 0 0 1 7.635-23.601c.309-.951.685-1.905.935-2.874.012-.044.029-.086.043-.13h-.926c.091.54.17 1.081.249 1.622a130.688 130.688 0 0 1 .191 1.369l.02.143c-.012-.085-.004-.03.002.019l.04.302c.113.859.22 1.719.321 2.58a204.948 204.948 0 0 1 1.209 15.391c.131 3.238.182 6.48.138 9.72-.046 3.468-.2 6.937-.493 10.394-.295 3.496-.733 6.98-1.367 10.432-.62 3.376-1.426 6.723-2.497 9.986-1.005 3.062-2.248 6.051-3.829 8.863-1.492 2.654-3.286 5.142-5.448 7.291a27.849 27.849 0 0 1-1.622 1.489c-.472.4.21 1.076.679.678 2.34-1.985 4.327-4.361 5.991-6.935 1.752-2.71 3.143-5.642 4.283-8.658 1.205-3.187 2.123-6.48 2.84-9.809.749-3.474 1.28-6.993 1.66-10.526.376-3.493.599-7.002.705-10.514.1-3.338.095-6.68.002-10.02a200.08 200.08 0 0 0-.458-8.995c-.18-2.447-.402-4.89-.669-7.33a177.96 177.96 0 0 0-.649-5.249c-.11-.795-.192-1.608-.356-2.394-.007-.034-.011-.068-.017-.102-.084-.5-.792-.412-.926 0a7227.822 7227.822 0 0 0-7.91 24.421 3517.596 3517.596 0 0 0-6.091 19.078c-.572 1.813-1.156 3.621-1.584 5.476a47.849 47.849 0 0 0-1.017 6.364c-.363 3.888-.267 7.813.205 11.687.541 4.433 1.482 8.93 3.112 13.103.025.065.05.129.077.193.232.561 1.161.314.925-.257z" fill="#41A592"/>
        </g>
        <mask id="egdvsy13je" style="mask-type:luminance" maskUnits="userSpaceOnUse" x="0" y="0" width="160" height="160">
            <path d="M160 0H0v160h160V0z" fill="#fff"/>
        </mask>
        <g mask="url(#egdvsy13je)">
            <path d="M147.984 136.705s-7.259-17.635 8.307-37.253c15.565-19.617 14.748-22.095 14.748-22.095s1.785 52.661-23.055 59.348z" fill="#41A592"/>
        </g>
        <path d="M147.419 136.918H94.793a2.938 2.938 0 0 1-2.938-2.938V29.902a2.937 2.937 0 0 1 2.938-2.938h52.626a2.937 2.937 0 0 1 2.937 2.938V133.98a2.938 2.938 0 0 1-2.937 2.938z" fill="#404568"/>
        <path d="M146.096 26.964h-1.869a6.13 6.13 0 0 1 6.129 6.13v97.694a6.13 6.13 0 0 1-6.129 6.13h1.869a6.13 6.13 0 0 0 6.13-6.13V33.094a6.129 6.129 0 0 0-6.13-6.13z" fill="#1C1F33"/>
        <path d="M145.52 134.972H96.692a2.707 2.707 0 0 1-2.706-2.706V31.662a2.707 2.707 0 0 1 2.706-2.707h48.828a2.707 2.707 0 0 1 2.707 2.707v100.604a2.707 2.707 0 0 1-2.707 2.706z" fill="#fff"/>
        <path d="M113.819 31.154h10.911c.825 0 1.611-.347 2.169-.955l1.141-1.244h-17.654l1.364 1.349c.551.544 1.294.85 2.069.85z" fill="#404568"/>
        <path d="M102.084 51.56h-3.731a.963.963 0 1 1 0-1.927h3.731a.964.964 0 0 1 0 1.927zM108.786 51.56h-3.731a.964.964 0 0 1 0-1.927h3.731a.964.964 0 0 1 0 1.927zM115.488 51.56h-3.731a.964.964 0 0 1 0-1.927h3.731a.964.964 0 0 1 0 1.927zM122.19 51.56h-3.731a.964.964 0 0 1 0-1.927h3.731a.963.963 0 1 1 0 1.927zM128.893 51.56h-3.732a.964.964 0 0 1 0-1.927h3.732a.963.963 0 0 1 0 1.927zM135.595 51.56h-3.732a.963.963 0 0 1 0-1.927h3.732a.963.963 0 0 1 0 1.927zM142.297 51.56h-3.732a.963.963 0 0 1 0-1.927h3.732a.964.964 0 0 1 0 1.927z" fill="#C2CBDA"/>
        <path d="M106.635 57.832a1.294 1.294 0 1 0 0-2.588 1.294 1.294 0 0 0 0 2.588zM113.623 57.832a1.294 1.294 0 1 0 0-2.588 1.294 1.294 0 0 0 0 2.588zM134.025 34.444a2.21 2.21 0 1 1-4.42.001 2.21 2.21 0 0 1 4.42 0zM120.325 57.832a1.294 1.294 0 1 0 0-2.588 1.294 1.294 0 0 0 0 2.588zM128.322 56.537a1.295 1.295 0 1 1-2.59 0 1.295 1.295 0 0 1 2.59 0zM135.024 56.537a1.295 1.295 0 1 1-2.59 0 1.295 1.295 0 0 1 2.59 0zM140.431 57.832a1.295 1.295 0 1 0 0-2.59 1.295 1.295 0 0 0 0 2.59zM107.929 64.167a1.294 1.294 0 1 1-2.588.001 1.294 1.294 0 0 1 2.588 0zM114.917 64.167a1.294 1.294 0 1 1-2.588.001 1.294 1.294 0 0 1 2.588 0zM121.619 64.167a1.294 1.294 0 1 1-2.588.001 1.294 1.294 0 0 1 2.588 0z" fill="#DFE6EF"/>
        <path d="M128.322 64.167a1.295 1.295 0 1 1-2.59 0 1.295 1.295 0 0 1 2.59 0z" fill="#A0D0FC"/>
        <path d="M135.024 64.167a1.295 1.295 0 1 1-2.59 0 1.295 1.295 0 0 1 2.59 0zM141.726 64.167a1.295 1.295 0 1 1-2.59 0 1.295 1.295 0 0 1 2.59 0zM106.635 73.092a1.294 1.294 0 1 0 0-2.588 1.294 1.294 0 0 0 0 2.588zM113.623 73.092a1.294 1.294 0 1 0 0-2.588 1.294 1.294 0 0 0 0 2.588zM120.325 73.092a1.294 1.294 0 1 0 0-2.588 1.294 1.294 0 0 0 0 2.588zM128.322 71.797a1.295 1.295 0 1 1-2.59 0 1.295 1.295 0 0 1 2.59 0zM135.024 71.797a1.295 1.295 0 1 1-2.59 0 1.295 1.295 0 0 1 2.59 0zM140.431 73.092a1.295 1.295 0 1 0 0-2.59 1.295 1.295 0 0 0 0 2.59zM107.929 80.722a1.294 1.294 0 1 1-2.588.001 1.294 1.294 0 0 1 2.588 0zM101.513 64.167a1.294 1.294 0 1 1-2.588.001 1.294 1.294 0 0 1 2.588 0zM101.513 71.797a1.294 1.294 0 1 1-2.588.001 1.294 1.294 0 0 1 2.588 0zM101.513 80.722a1.294 1.294 0 1 1-2.588.001 1.294 1.294 0 0 1 2.588 0zM114.917 80.722a1.294 1.294 0 1 1-2.588.001 1.294 1.294 0 0 1 2.588 0zM121.619 80.722a1.294 1.294 0 1 1-2.588.001 1.294 1.294 0 0 1 2.588 0zM128.322 80.722a1.295 1.295 0 1 1-2.59 0 1.295 1.295 0 0 1 2.59 0zM135.024 80.722a1.295 1.295 0 1 1-2.59 0 1.295 1.295 0 0 1 2.59 0zM141.726 80.722a1.295 1.295 0 1 1-2.59 0 1.295 1.295 0 0 1 2.59 0z" fill="#DFE6EF"/>
        <path d="M97.998 41.264a.886.886 0 0 1-.372-.078.705.705 0 0 1-.276-.225l.222-.267c.058.08.121.14.189.18.07.04.146.06.228.06.218 0 .327-.13.327-.387V39.46h-.747v-.327h1.137v1.392c0 .248-.061.433-.183.555-.12.122-.295.183-.525.183zm.914-.03.945-2.1h.384l.948 2.1h-.408l-.813-1.893h.156l-.81 1.893h-.402zm.435-.486.105-.306h1.134l.105.306h-1.344zm2.109.486v-2.1h.321l1.317 1.617h-.159v-1.617h.387v2.1h-.321l-1.317-1.617h.159v1.617h-.387z" fill="#404568"/>
        <path d="M103.448 91.802h-5.095a.964.964 0 0 1 0-1.928h5.095a.964.964 0 0 1 0 1.928zM141.396 35.617H136.3a.963.963 0 0 1 0-1.927h5.096a.963.963 0 0 1 0 1.927zM142.357 90.678h-35.723v.32h35.723v-.32zM103.448 99.04h-5.095a.963.963 0 1 1 0-1.927h5.095a.964.964 0 1 1 0 1.927zM142.357 97.916h-35.723v.32h35.723v-.32zM103.448 126.578h-5.095a.964.964 0 0 1 0-1.928h5.095a.964.964 0 1 1 0 1.928zM142.357 125.454h-35.723v.32h35.723v-.32z" fill="#C2CBDA"/>
        <path d="M130.594 100.014h-12.196a.964.964 0 0 1-.964-.964v-1.949c0-.532.432-.963.964-.963h12.196c.532 0 .963.43.963.963v1.95a.963.963 0 0 1-.963.963zM135.416 114.08h-30.183a.964.964 0 0 1-.964-.964v-3.506c0-.532.432-.964.964-.964h30.183c.532 0 .964.432.964.964v3.506a.965.965 0 0 1-.964.964z" fill="#A0D0FC"/>
        <path d="M102.142 36.373h-3.46a.906.906 0 0 1-.905-.906V33.79c0-.5.406-.906.905-.906h3.46c.5 0 .906.406.906.906v1.676c0 .5-.406.906-.906.906zm-3.46-3.223a.641.641 0 0 0-.64.64v1.677c0 .353.287.64.64.64h3.46a.641.641 0 0 0 .641-.64V33.79a.641.641 0 0 0-.641-.64h-3.46z" fill="#DFE6EF"/>
        <path d="m100.408 34.782-2.323-1.442.14-.225 2.192 1.36 2.294-1.245.126.233-2.429 1.319z" fill="#DFE6EF"/>
        <path d="M103.753 33.15a.916.916 0 1 1-1.831 0 .916.916 0 0 1 1.831 0z" fill="#A0D0FC"/>
        <path d="M48.642 21.418s-6.602.139-8.201 6.602c-1.599 6.464-1.46 7.646-4.17 11.538-2.711 3.892-3.059 5.004-3.128 9.452-.07 4.448-1.668 6.116 1.043 8.757 2.71 2.641 8.34 4.24 18 2.502 9.661-1.737 9.453-9.73 9.383-13.205-.07-3.476-3.336-6.673-2.988-9.73.347-3.059.347-8.688-2.641-12.65-2.989-3.961-7.298-3.266-7.298-3.266z" fill="#313440"/>
        <path d="M51.84 25.727s-1.073 3.683-4.742 4.657c0 0 .988-.834.71-2.329 0 0-1.529 3.44-5.212 3.163 0 0-.487 4.726 1.737 7.436 2.224 2.711 3.406 2.903 5.144 2.53 1.737-.375 3.822-3.363 4.587-5.935.764-2.572.764-3.545.764-3.545s-2.154-1.112-2.989-5.977z" fill="#D2796F"/>
        <path d="m50.877 40.41-.001-.001c-.47.399-.947.677-1.4.774-1.52.328-2.615.221-4.354-1.626.816 4.823-.546 5.7-.546 5.7 1.078 5.109 4.587 6.43 4.587 6.43 1.703-2.017 2.815-6.882 2.815-6.882-1.668-2.606-1.101-4.395-1.101-4.395zM42.557 32.764l-.006-.018s-.372-.382-.998-.173c-.625.208-.73 1.39-.278 2.606.452 1.216 1.228 1.5 1.848 1.167-.414-1.276-.54-2.599-.566-3.582zM55.424 32.573a1.034 1.034 0 0 0-.702-.001c-.099.566-.289 1.433-.658 2.677-.093.31-.205.626-.333.943a.285.285 0 0 0 .124.154c.62.333 1.396.05 1.847-1.167.452-1.216.348-2.398-.278-2.606z" fill="#D2796F"/>
        <path d="M45.327 43.332c1.535-.1 4.417-.507 5.459-2.149.005-.493.091-.773.091-.773v-.001c-.471.399-.947.677-1.4.774-1.52.328-2.615.221-4.355-1.626.29 1.709.304 2.92.205 3.775zM42.55 32.747c.104.614.167 1.212.256 1.809.038.298.092.593.14.89l.177.9c-.36-.514-.542-1.133-.634-1.745a5.953 5.953 0 0 1-.054-.93c.007-.31.036-.62.116-.924zM54.722 32.572c.021.32-.001.637-.04.952a7.837 7.837 0 0 1-.178.933c-.164.61-.389 1.22-.773 1.735.152-.62.31-1.212.463-1.815.16-.602.312-1.203.528-1.805z" fill="#313440"/>
        <path d="M60.492 48.889c-1.616-1.251-8.514-4.084-8.514-4.084s-1.111 4.866-2.814 6.881c0 0-3.51-1.32-4.587-6.429 0 0-5.77 2.276-7.176 3.423-1.408 1.147-4.789 9.696-4.789 9.696s1.713 4.326 4.736 5.838l2.607-3.218s.73 5.147 2.241 6.815c0 0 1.303.313 5.37.469 4.065.156 6.255-.938 6.255-.938s2.09-3.593 2.815-6.346l1.146 1.915s3.702-2.033 5.63-5.004c0 0-1.304-7.767-2.92-9.018z" fill="#93B0F0"/>
        <path d="M44.073 47.273c.264.476.543.939.823 1.398.286.456.578.906.893 1.338.315.432.654.844 1.012 1.241.371.384.762.749 1.198 1.079a5.367 5.367 0 0 1-1.373-.9 8.765 8.765 0 0 1-1.096-1.232c-.634-.894-1.151-1.875-1.457-2.924zM52.621 46.074c.038.515-.04 1.035-.16 1.537-.12.504-.297.99-.5 1.466-.205.474-.451.928-.721 1.367-.134.219-.285.428-.43.64-.16.202-.313.408-.482.602l.694-1.365c.221-.456.45-.907.646-1.372.204-.462.39-.93.555-1.408.156-.479.312-.961.398-1.467zM39.955 60.995s-.99-3.453-1.2-5.747l-1.407 8.966 2.607-3.219zM56.635 60.995s1.2-3.505 1.772-6.008c0 0-.156 6.516-.625 7.924l-1.147-1.916z" fill="#313440"/>
        <path d="m80.315 49.121-5.8.927 1.602 10.02 5.8-.926-1.602-10.02z" fill="#fff"/>
        <path d="m80.276 48.879-5.799.927a.219.219 0 0 0-.141.082l-.014.015-.01.017a.22.22 0 0 0-.034.161 180350.657 180350.657 0 0 0 1.602 10.02c.02.128.147.22.275.199 1.933-.31 3.866-.618 5.8-.927a.244.244 0 0 0 .198-.275l-1.403-8.78-.199-1.24a.244.244 0 0 0-.275-.2zm1.365 10.058-5.325.851-1.366-8.543-.16-1.003 5.325-.851 1.366 8.542.16 1.004z" fill="#313440"/>
        <path d="M80.125 54.425a1.912 1.912 0 1 1-3.776.603 1.912 1.912 0 0 1 3.776-.603z" fill="#A0D0FC"/>
        <path d="M79.503 53.754c-.113-.082-.25-.044-.335.054l-1.3 1.484-.006.007-.554-.546c-.092-.091-.23-.122-.338-.034-.092.076-.126.247-.033.338l.752.742c.117.116.27.114.38-.011l1.3-1.484.188-.215c.085-.097.044-.264-.054-.335z" fill="#fff"/>
        <path d="M44.073 68.062a1.624 1.624 0 0 1-.5-.41 2.226 2.226 0 0 1-.342-.55 2.033 2.033 0 0 1-.166-.628 1.578 1.578 0 0 1 .058-.644c.071.207.118.403.187.592.064.189.131.374.214.553.154.365.346.708.549 1.087zM50.328 68.192c.395-.232.734-.476 1-.792.135-.155.257-.323.357-.508.11-.183.189-.383.293-.593.028.229.012.467-.063.691a1.697 1.697 0 0 1-.345.62c-.158.18-.35.33-.564.43a1.41 1.41 0 0 1-.678.152z" fill="#313440"/>
        <path d="M65.913 107.218c-1.355-9.383-3.335-18.87-5.42-26.324-2.086-7.454-6.673-13.553-6.673-13.553s-2.19 1.095-6.255.939c-4.066-.157-5.37-.47-5.37-.47s-9.33 9.8-6.724 23.145c1.877 9.487 1.877 11.78 1.877 13.032 0 1.25-.678 4.587.6 12.51 1.276 7.923 1.367 13.449 1.367 13.449s2.724 1.355 4.757.521c0 0 1.407-12.927 2.345-20.955.939-8.028 1.564-18.974 2.815-22.831 0 0 3.858 11.78 5.421 15.742 1.564 3.961 1.669 6.776 2.19 9.695.521 2.919 7.854 17.202 7.854 17.202s2.884 0 4.552-1.043c0 0-1.98-11.676-3.335-21.059z" fill="#4B6CD8"/>
        <path d="M52.415 67.82c.288-.321.561-.607.79-.924a3.57 3.57 0 0 0 .304-.496c.09-.176.15-.363.222-.57.06.206.07.437.014.653a1.744 1.744 0 0 1-.28.6 2.128 2.128 0 0 1-.466.459 1.65 1.65 0 0 1-.584.278z" fill="#313440"/>
        <path d="M32.867 58.95s-2.087 4.69-2.556 6.15c-.47 1.46 1.095 8.288 1.564 10.478.469 2.189 1.303 5.212 2.554 5.264 1.251.052 2.659-.834 2.659-.834s.573 2.033 1.042 1.929c.47-.104.521-1.043.521-1.043s.391.365 1.043-.104c.652-.47.156-2.033.156-2.033s.626.209 1.069-.235c.443-.443.13-1.485.13-1.485s1.017.339 1.251-.417c.235-.756-1.72-2.346-2.502-2.789-.782-.443-3.526 1.72-3.526 1.72s.279-5.052 0-7.256c-.28-2.204-.28-2.465-.28-2.465l1.356-1.616s-2.238-.73-4.481-5.265zM57.782 62.91s2.398 6.52 4.014 7.535c1.615 1.014 4.378-.479 6.62-2.625 2.241-2.147 7.35-8.09 7.35-8.09l-.4-4.187s1.042-.868 1.25-1.564c0 0 1.6-.938 1.6-1.285 0-.348 0-.8-2.016-.209-2.016.59-2.294.626-2.537 1.598-.243.974-.87 2.467-.87 2.467s-2.189 2.26-3.996 3.406c-1.807 1.147-3.162 1.321-4.1 1.981l-1.286-4.03s-1.772 2.814-5.63 5.004z" fill="#D2796F"/>
        <path d="M38.652 80.894s-.13-1.25-.704-2.397M39.85 78.757s-.417-1.251-1.068-2.215M41.05 77.037s-.496-1.251-1.93-1.98" stroke="#313440" stroke-miterlimit="10"/>
        <path d="m63.411 57.907-.416 6.672 1.702-2.641-1.286-4.032zM73.369 62.477l1.997-6.934.4 4.188-2.397 2.745zM38.3 73.505c.331-.013.653-.09.952-.217.153-.05.293-.137.438-.204.136-.09.28-.162.408-.26a5.878 5.878 0 0 0 1.353-1.372l.149-.192.13-.205.265-.41c.158-.286.318-.572.47-.862.134-.3.288-.591.42-.894.131-.302.254-.61.396-.911-.073.323-.166.643-.25.967-.098.318-.222.628-.34.942-.127.31-.286.606-.434.908l-.264.43-.133.215-.153.203a5.153 5.153 0 0 1-1.473 1.39c-.144.091-.301.16-.451.238-.162.055-.315.13-.483.165-.327.083-.67.128-1 .07zM51.474 80.06c.065-1 .075-1.998.05-2.994a39.278 39.278 0 0 0-.186-2.98c-.099-.991-.23-1.979-.403-2.96-.16-.984-.391-1.955-.607-2.934.166.472.334.946.476 1.427.132.484.268.968.372 1.46.232.978.373 1.976.48 2.975.1 1 .14 2.008.113 3.012a27.452 27.452 0 0 1-.082 1.505c-.056.498-.109.998-.212 1.49zM53.82 67.341c.138.41.27.82.416 1.224a34 34 0 0 0 .434 1.213c.304.802.616 1.6.975 2.375.356.776.752 1.534 1.23 2.235.237.35.502.685.812.973.303.296.657.54 1.065.686-.429-.075-.821-.302-1.168-.567a5.732 5.732 0 0 1-.908-.946c-.54-.69-.954-1.462-1.321-2.247a20.077 20.077 0 0 1-.917-2.43 20.01 20.01 0 0 1-.618-2.516zM48.74 69.831a.613.613 0 1 1-1.227 0 .613.613 0 0 1 1.227 0zM49.233 86.68s.365-2.554 3.284-3.597c0 0-.98 4.327-.386 7.871.594 3.545 1.525 8.776 1.525 8.776l-4.423-13.05zM37.088 80.008c-.446 2.06-.617 4.168-.634 6.268-.007 2.1.144 4.204.54 6.265.196 1.028.441 2.055.647 3.09.212 1.032.407 2.069.577 3.11.35 2.082.547 4.197.57 6.308.008 1.053.042 2.107 0 3.166-.037 1.056-.105 2.106-.135 3.156a44.16 44.16 0 0 0 .274 6.287c.11 1.045.262 2.085.426 3.124.16 1.042.288 2.091.386 3.141.184 2.1.278 4.207.276 6.313a71.74 71.74 0 0 0-.432-6.297 53.827 53.827 0 0 0-.43-3.124 60.814 60.814 0 0 1-.47-3.129 41.16 41.16 0 0 1-.32-6.323c.024-1.055.087-2.108.12-3.157.036-1.046-.003-2.098-.014-3.151a40.524 40.524 0 0 0-.538-6.267 75.954 75.954 0 0 0-.56-3.103c-.204-1.032-.435-2.056-.617-3.1-.708-4.167-.62-8.473.334-12.577z" fill="#313440"/>
        <path d="M51.945 88.038c1.23 3.424 2.4 6.868 3.508 10.334.554 1.733 1.085 3.473 1.533 5.244.224.893.344 1.799.487 2.695.14.898.288 1.792.474 2.677.361 1.775.866 3.519 1.439 5.24a74.346 74.346 0 0 0 1.905 5.1c.69 1.68 1.426 3.342 2.184 4.994.749 1.657 1.533 3.297 2.328 4.932a132.964 132.964 0 0 1-4.739-9.831 63.441 63.441 0 0 1-1.954-5.102c-.584-1.725-1.103-3.479-1.476-5.268a51.486 51.486 0 0 1-.462-2.696c-.14-.899-.254-1.801-.469-2.673-.43-1.76-.967-3.498-1.485-5.24-.525-1.74-1.07-3.474-1.62-5.207l-1.653-5.199z" fill="#313440"/>
        <path d="M39.316 129.946s.17 3.075-.352 4.535c-.52 1.459-3.648 5.786-3.648 5.786s.156 1.512 2.502.729c2.345-.781 2.919-1.772 4.326-2.762 1.407-.991 1.668-1.564 1.668-1.564s-.156-2.033 0-3.701c.157-1.668.26-2.502.26-2.502-2.032.834-4.756-.521-4.756-.521z" fill="#D2796F"/>
        <path d="M43.812 136.67s-.26.573-1.668 1.564c-1.408.99-1.981 1.98-4.327 2.762-2.345.782-2.502-.729-2.502-.729s-1.511 1.25-2.398 2.085c-.886.834-.52 1.824 0 2.033.522.208 4.242.26 5.275 0 1.033-.261 2.962-2.502 4.577-3.753 1.616-1.252 1.616-1.616 1.616-2.242 0-.626-.134-2.271-.573-1.72zM39.316 129.946s1.807 2.422 4.455 3.595l.302-3.074s-1.903.834-4.757-.521zM42.743 135.731c.164-.221.256-.397.306-.591.026-.097.04-.2.051-.313.01-.113.013-.232.034-.373a.739.739 0 0 1 .214.344c.042.133.042.28.01.423-.075.285-.331.52-.615.51z" fill="#313440"/>
        <path d="M64.697 129.32s1.239 2.328 1.106 5.282c0 0 2.856 1.39 5.392 2.05 2.538.661 3.962 1.599 5.317 1.634 1.356.035 2.085-.105 2.26-.487.173-.382-.661-.903-2.33-1.842-1.667-.938-3.856-2.502-4.968-3.753-1.112-1.251-2.224-3.927-2.224-3.927s-1.216.904-4.553 1.043z" fill="#D2796F"/>
        <path d="M81.343 138.981c-.382-.834-3.299-2.072-3.299-2.072.575.385.83.663.728.89-.174.383-.904.522-2.26.487-1.355-.035-2.78-.973-5.316-1.634-2.537-.66-5.393-2.05-5.393-2.05-.389 2.05 0 3.475 0 3.475s.25.904 2.926.939c2.675.035 4.1.973 7.888 1.98 3.788 1.008 4.726 0 4.726 0s.382-1.181 0-2.015zM65.74 132.934s1.355-2.085 3.51-4.657c0 0-1.425.869-4.553 1.043 0 0 .87 1.598 1.043 3.614zM66.644 132.448c-.044.353-.089.672 0 .927.041.127.114.241.228.339.049.058.121.094.183.149.068.047.141.088.214.148-.09.009-.18.008-.272-.002-.087-.026-.184-.034-.266-.088a.756.756 0 0 1-.39-.443.927.927 0 0 1 .008-.577.992.992 0 0 1 .294-.453z" fill="#313440"/>
        <path d="M80.887 51.176s-.195.606-.404 1.779c-.209 1.172-.248 1.807.202 1.841 0 0-.128 1.092.202 1.286.329.195.54 0 .54 0s-.527 1.2-.11 1.59c.417.391.599 0 .599 0s-.234.443-.104.782.574-.105.86-.652c.287-.547.495-1.355.183-1.59 0 0 .208-1.12-.391-1.485 0 0 .333-1.434-.376-1.772 0 0 .017-1.017-.416-1.669-.433-.651-.878-.69-.878-.69l.093.58z" fill="#D2796F"/>
        <path d="M80.685 54.796c.232-.372.482-.713.72-1.062.241-.349.463-.697.683-1.077-.04.442-.242.852-.485 1.213-.252.357-.549.684-.918.926zM81.428 56.082c.153-.259.329-.475.501-.695.177-.218.342-.43.535-.66-.017.305-.168.58-.347.81-.188.226-.41.427-.69.545zM81.916 57.7c.11-.283.26-.526.414-.767.16-.238.319-.468.525-.692-.034.304-.166.577-.324.824-.165.243-.357.47-.615.635z" fill="#313440"/>
    </g>
    <defs>
        <clipPath id="5e0x86nv8a">
            <path fill="#fff" d="M0 0h160v160H0z"/>
        </clipPath>
    </defs>
</svg>
