<svg width="20" height="20" viewBox="0 0 20 20" fill="none" xmlns="http://www.w3.org/2000/svg">
    <path d="M2.083 5.417c0-1.572 0-2.357.489-2.846.488-.488 1.273-.488 2.845-.488 1.571 0 2.357 0 2.845.488.488.489.488 1.274.488 2.846 0 1.57 0 2.357-.488 2.845s-1.274.488-2.845.488c-1.572 0-2.357 0-2.845-.488-.489-.488-.489-1.274-.489-2.845zM11.25 14.583c0-1.571 0-2.357.488-2.845s1.274-.488 2.845-.488c1.572 0 2.357 0 2.845.488.489.488.489 1.274.489 2.845 0 1.572 0 2.357-.489 2.845-.488.489-1.273.489-2.845.489-1.571 0-2.357 0-2.845-.489-.488-.488-.488-1.273-.488-2.845zM2.083 14.583c0-1.571 0-2.357.489-2.845.488-.488 1.273-.488 2.845-.488 1.571 0 2.357 0 2.845.488s.488 1.274.488 2.845c0 1.572 0 2.357-.488 2.845-.488.489-1.274.489-2.845.489-1.572 0-2.357 0-2.845-.489-.489-.488-.489-1.273-.489-2.845zM11.25 5.417c0-1.572 0-2.357.488-2.846.488-.488 1.274-.488 2.845-.488 1.572 0 2.357 0 2.845.488.489.489.489 1.274.489 2.846 0 1.57 0 2.357-.489 2.845-.488.488-1.273.488-2.845.488-1.571 0-2.357 0-2.845-.488s-.488-1.274-.488-2.845z" stroke="#BBBFD0" stroke-width="1.5"/>
</svg>
