<svg width="28" height="28" viewBox="0 0 28 28" fill="none" xmlns="http://www.w3.org/2000/svg">
    <path opacity=".5" d="M2.333 10.66c0 5.673 4.69 8.696 8.122 11.402 1.212.955 2.378 1.854 3.545 1.854 1.167 0 2.333-.899 3.545-1.854 3.432-2.706 8.122-5.729 8.122-11.402C25.667 4.986 19.25.963 14 6.417 8.75.963 2.333 4.987 2.333 10.66z" fill="#973936"/>
    <path d="M19.25 15.502c-2.887-3.169-6.417-.832-6.417 2.464 0 2.985 2.117 4.707 3.918 6.174l.051.04c.17.14.337.275.498.41.667.554 1.308 1.077 1.95 1.077.642 0 1.283-.523 1.95-1.077 1.887-1.572 4.467-3.328 4.467-6.624 0-1.083-.381-2.062-.995-2.776-1.255-1.461-3.483-1.816-5.422.312z" fill="#973936"/>
</svg>
