<svg width="28" height="28" viewBox="0 0 28 28" fill="none" xmlns="http://www.w3.org/2000/svg">
    <path opacity=".5" d="M2.333 14c0-5.5 0-8.25 1.709-9.958C5.75 2.333 8.5 2.333 14 2.333s8.25 0 9.958 1.709C25.667 5.75 25.667 8.5 25.667 14s0 8.25-1.709 9.958C22.25 25.666 19.5 25.666 14 25.666s-8.25 0-9.958-1.708C2.333 22.249 2.333 19.499 2.333 14z" fill="#973936"/>
    <path d="M17.616 14.11c-.216-.353-.426-.696-.632-.942-.218-.261-.6-.62-1.186-.597-.586.024-.938.412-1.135.69-.185.262-.367.62-.554.989l-2.32 4.573c-.087.173-.16.317-.226.44-.08-.115-.169-.249-.276-.41l-.207-.31c-.237-.355-.447-.67-.648-.92a2.595 2.595 0 0 0-.797-.687 2.594 2.594 0 0 0-1.014-.281c-.318-.03-.697-.03-1.125-.03H5.833a.875.875 0 0 0 0 1.75H7.46c.475 0 .771.001.999.022.21.02.295.052.35.082.056.03.13.083.263.246.144.178.31.424.572.819l.217.326c.22.33.436.654.645.885.226.249.61.58 1.178.546.569-.033.912-.408 1.106-.682.18-.254.356-.602.535-.955l2.32-4.572c.09-.18.167-.33.236-.46.078.123.166.267.272.44l.763 1.245c.233.381.44.719.64.985.218.288.466.547.808.738.342.192.692.268 1.052.303.331.032.727.032 1.174.032h1.577a.875.875 0 1 0 0-1.75h-1.54c-.495 0-.806 0-1.043-.024-.22-.02-.308-.056-.365-.087-.056-.032-.132-.09-.265-.265-.143-.191-.306-.455-.565-.878l-.773-1.262z" fill="#973936"/>
</svg>
