<svg width="56" height="56" viewBox="0 0 56 56" fill="none" xmlns="http://www.w3.org/2000/svg">
    <path opacity=".5" d="M28 51.333c-9.9 0-14.85 0-17.925-3.417C7 44.5 7 39 7 28s0-16.5 3.075-19.916C13.151 4.667 18.101 4.667 28 4.667c9.9 0 14.85 0 17.925 3.417C49 11.5 49 17 49 28c0 11 0 16.5-3.075 19.916C42.849 51.333 37.9 51.333 28 51.333z" fill="#8EEBF9"/>
    <path d="M35 14H21c-1.085 0-1.628 0-2.073.12a3.5 3.5 0 0 0-2.474 2.474c-.12.445-.12.988-.12 2.073s0 1.627.12 2.072a3.5 3.5 0 0 0 2.474 2.475c.445.12.988.12 2.073.12h14c1.085 0 1.627 0 2.072-.12a3.5 3.5 0 0 0 2.475-2.475c.12-.445.12-.987.12-2.072s0-1.628-.12-2.073a3.5 3.5 0 0 0-2.474-2.475C36.627 14 36.084 14 35 14zM18.667 32.667a2.333 2.333 0 1 0 0-4.667 2.333 2.333 0 0 0 0 4.667zM18.667 42a2.333 2.333 0 1 0 0-4.667 2.333 2.333 0 0 0 0 4.667zM28 32.667A2.333 2.333 0 1 0 28 28a2.333 2.333 0 0 0 0 4.667zM28 42a2.333 2.333 0 1 0 0-4.667A2.333 2.333 0 0 0 28 42zM37.333 32.667a2.333 2.333 0 1 0 0-4.667 2.333 2.333 0 0 0 0 4.667zM37.333 42a2.333 2.333 0 1 0 0-4.667 2.333 2.333 0 0 0 0 4.667z" fill="#8EEBF9"/>
</svg>
