<svg width="39" height="39" viewBox="0 0 39 39" fill="none" xmlns="http://www.w3.org/2000/svg">
<circle cx="19.5" cy="19.5" r="18.5" stroke="#86A7E7" stroke-linecap="round" stroke-dasharray="2 5"/>
<path fill-rule="evenodd" clip-rule="evenodd" d="M24.4186 10.603C24.3728 10.2625 24.0831 10 23.7326 10C23.3503 10 23.0403 10.3124 23.0403 10.6977V11.469H16.9681V10.6977L16.9618 10.603C16.916 10.2625 16.6263 10 16.2758 10C15.8935 10 15.5835 10.3124 15.5835 10.6977V11.4863C12.7465 11.6817 11 13.5199 11 16.4858V24.9041C11 28.0872 12.9583 30 16.0963 30H23.9036C27.0453 30 28.9999 28.1193 28.9999 24.9744V16.4858C29.009 13.5189 27.268 11.6812 24.4249 11.4863V10.6977L24.4186 10.603ZM23.0403 12.8644V13.7589L23.0466 13.8535C23.0925 14.1941 23.3821 14.4565 23.7326 14.4565C24.115 14.4565 24.4249 14.1442 24.4249 13.7589V12.885C26.4935 13.0571 27.622 14.3027 27.6153 16.4836V16.8877H12.3846V16.4858C12.3846 14.3063 13.5193 13.058 15.5835 12.8851V13.7589L15.5898 13.8535C15.6357 14.1941 15.9253 14.4565 16.2758 14.4565C16.6582 14.4565 16.9681 14.1442 16.9681 13.7589V12.8644H23.0403ZM12.3846 18.283V24.9041C12.3846 27.3067 13.7135 28.6047 16.0963 28.6047H23.9036C26.2946 28.6047 27.6153 27.3338 27.6153 24.9744L27.6153 18.283H12.3846ZM24.8012 21.2183C24.8012 20.833 24.4912 20.5206 24.1089 20.5206L24.0064 20.527C23.6685 20.5732 23.408 20.8651 23.408 21.2183C23.408 21.6036 23.718 21.916 24.1089 21.916L24.2028 21.9096C24.5407 21.8634 24.8012 21.5715 24.8012 21.2183ZM20.0128 20.5206C20.3951 20.5206 20.7051 20.833 20.7051 21.2183C20.7051 21.5715 20.4446 21.8634 20.1067 21.9096L20.0128 21.916C19.6219 21.916 19.3119 21.6036 19.3119 21.2183C19.3119 20.8651 19.5724 20.5732 19.9103 20.527L20.0128 20.5206ZM16.6004 21.2183C16.6004 20.833 16.2905 20.5206 15.9081 20.5206L15.8056 20.527C15.4677 20.5732 15.2073 20.8651 15.2073 21.2183C15.2073 21.6036 15.5172 21.916 15.8996 21.916L16.0021 21.9096C16.34 21.8634 16.6004 21.5715 16.6004 21.2183ZM24.1089 24.136C24.4912 24.136 24.8012 24.4484 24.8012 24.8337C24.8012 25.1869 24.5407 25.4788 24.2028 25.525L24.1089 25.5314C23.718 25.5314 23.408 25.219 23.408 24.8337C23.408 24.4805 23.6685 24.1886 24.0064 24.1424L24.1089 24.136ZM20.7051 24.8337C20.7051 24.4484 20.3951 24.136 20.0128 24.136L19.9103 24.1424C19.5724 24.1886 19.3119 24.4805 19.3119 24.8337C19.3119 25.219 19.6219 25.5314 20.0128 25.5314L20.1067 25.525C20.4446 25.4788 20.7051 25.1869 20.7051 24.8337ZM15.9081 24.136C16.2905 24.136 16.6004 24.4484 16.6004 24.8337C16.6004 25.1869 16.34 25.4788 16.0021 25.525L15.8996 25.5314C15.5172 25.5314 15.2073 25.219 15.2073 24.8337C15.2073 24.4805 15.4677 24.1886 15.8056 24.1424L15.9081 24.136Z" fill="#3D84D6"/>
</svg>
