<svg width="56" height="56" viewBox="0 0 56 56" fill="none" xmlns="http://www.w3.org/2000/svg">
    <path d="M16.194 4.667c.97 0 1.757.756 1.757 1.69v3.408c1.558-.03 3.305-.03 5.27-.03h9.371c1.966 0 3.713 0 5.271.03V6.356c0-.933.787-1.69 1.757-1.69.97 0 1.757.757 1.757 1.69v3.558c3.372.26 5.585.897 7.212 2.461 1.626 1.564 2.288 3.693 2.558 6.935l.186 1.69H4.667v-1.69c.27-3.242.932-5.37 2.559-6.935 1.626-1.564 3.84-2.201 7.211-2.46V6.355c0-.933.787-1.69 1.757-1.69z" fill="#90F3E0"/>
    <path opacity=".5" d="M51.333 32.667V28c0-1.958-.007-5.448-.037-7H4.689c-.03 1.552-.022 5.042-.022 7v4.667c0 8.8 0 13.199 2.733 15.933 2.734 2.733 7.134 2.733 15.933 2.733h9.334c8.8 0 13.199 0 15.933-2.733 2.733-2.734 2.733-7.134 2.733-15.933z" fill="#90F3E0"/>
    <path d="M42 39.667a2.333 2.333 0 1 1-4.667 0 2.333 2.333 0 0 1 4.667 0zM42 30.333a2.333 2.333 0 1 1-4.667 0 2.333 2.333 0 0 1 4.667 0zM30.333 39.667a2.333 2.333 0 1 1-4.666 0 2.333 2.333 0 0 1 4.666 0zM30.333 30.333a2.333 2.333 0 1 1-4.666 0 2.333 2.333 0 0 1 4.666 0zM18.667 39.667a2.333 2.333 0 1 1-4.667 0 2.333 2.333 0 0 1 4.667 0zM18.667 30.333a2.333 2.333 0 1 1-4.667 0 2.333 2.333 0 0 1 4.667 0z" fill="#90F3E0"/>
</svg>
