<svg width="150" height="150" viewBox="0 0 150 150" fill="none" xmlns="http://www.w3.org/2000/svg">
<path d="M135.582 86.9342C135.974 84.9815 136.617 83.0877 137.496 81.3002C139.896 76.3862 141.621 72.0872 140.094 66.6002C136.353 53.1992 121.137 51.6332 113.631 41.5262C102.027 25.9082 73.5149 24.5522 59.8949 38.0492C55.7189 42.1862 53.7629 48.0302 49.5419 52.1222C43.3229 58.1552 34.0889 58.9322 27.7019 64.9472C17.2889 74.7602 16.2779 91.3892 25.5209 102.423C35.2829 114.075 49.0619 112.164 62.4449 109.686C69.0299 108.468 75.8759 107.148 82.5869 108.084C96.8999 110.1 113.883 117.963 127.755 110.136C135.144 105.966 135.333 99.4622 135.162 91.8752C135.12 90.2178 135.261 88.5608 135.582 86.9342Z" fill="#4057A2"/>
<path opacity="0.6" d="M135.582 86.9342C135.974 84.9815 136.617 83.0877 137.496 81.3002C139.896 76.3862 141.621 72.0872 140.094 66.6002C136.353 53.1992 121.137 51.6332 113.631 41.5262C102.027 25.9082 73.5149 24.5522 59.8949 38.0492C55.7189 42.1862 53.7629 48.0302 49.5419 52.1222C43.3229 58.1552 34.0889 58.9322 27.7019 64.9472C17.2889 74.7602 16.2779 91.3892 25.5209 102.423C35.2829 114.075 49.0619 112.164 62.4449 109.686C69.0299 108.468 75.8759 107.148 82.5869 108.084C96.8999 110.1 113.883 117.963 127.755 110.136C135.144 105.966 135.333 99.4622 135.162 91.8752C135.12 90.2178 135.261 88.5608 135.582 86.9342Z" fill="white"/>
<path d="M77.25 127.8C108.979 127.8 134.7 122.36 134.7 115.65C134.7 108.94 108.979 103.5 77.25 103.5C45.5213 103.5 19.8 108.94 19.8 115.65C19.8 122.36 45.5213 127.8 77.25 127.8Z" fill="#4057A2"/>
<path opacity="0.3" d="M77.25 127.8C108.979 127.8 134.7 122.36 134.7 115.65C134.7 108.94 108.979 103.5 77.25 103.5C45.5213 103.5 19.8 108.94 19.8 115.65C19.8 122.36 45.5213 127.8 77.25 127.8Z" fill="white"/>
<path d="M11.7149 34.2419C11.6449 33.9888 11.629 33.7237 11.6681 33.4641C11.7072 33.2044 11.8006 32.9558 11.942 32.7346C12.0835 32.5133 12.27 32.3243 12.4893 32.1798C12.7085 32.0353 12.9558 31.9386 13.2149 31.8959C14.7839 31.6829 16.7099 33.7889 17.3219 35.0639C17.3729 35.1749 17.9999 36.9929 17.9699 36.9929C17.9399 36.9929 15.1889 37.0559 14.0699 36.5579C13.0889 36.1349 11.9759 35.3279 11.7149 34.2419ZM52.0109 29.3999C51.7799 30.4919 50.6879 31.3289 49.7339 31.7789C48.7799 32.2289 46.5149 32.3069 45.9599 32.3159C45.6599 32.6729 45.3389 33.0599 44.9939 33.4919C44.3939 34.2599 43.7279 35.1329 43.0679 36.1289C42.8909 36.3959 42.7109 36.6869 42.5309 36.9689C42.9329 36.5579 43.4879 36.0029 43.5479 35.9549C44.6549 35.0759 47.3069 34.0229 48.6239 34.8989C48.8388 35.0501 49.0195 35.2448 49.1542 35.4704C49.2889 35.696 49.3746 35.9474 49.4058 36.2083C49.4369 36.4692 49.4127 36.7337 49.3349 36.9847C49.257 37.2356 49.1272 37.4674 48.9539 37.6649C48.2429 38.5289 46.8899 38.7689 45.8339 38.7269C44.7779 38.6849 42.6689 37.6799 42.2189 37.4549C41.8319 38.0819 41.4479 38.7359 41.0879 39.4409C40.4176 40.7118 39.8624 42.04 39.4289 43.4099L39.5099 43.4489C39.8309 43.0259 40.5299 42.1529 40.5959 42.0899C41.5979 41.0909 44.1209 39.7559 45.5279 40.4789C45.7555 40.6064 45.954 40.7801 46.1106 40.9887C46.2673 41.1973 46.3787 41.4363 46.4377 41.6904C46.4967 41.9445 46.502 42.2082 46.4533 42.4645C46.4046 42.7208 46.303 42.9641 46.1549 43.1789C45.5549 44.1179 44.2259 44.5049 43.1729 44.5769C41.9729 44.6639 39.4499 43.7159 39.3539 43.6769C38.9646 45.0491 38.664 46.445 38.4539 47.8559C38.2919 48.8999 38.1689 49.9559 38.0549 51.0329C38.2739 50.7329 39.1919 49.5839 39.2549 49.5089C40.2569 48.5129 42.7799 47.1749 44.1839 47.9009C44.4143 48.0277 44.6154 48.2016 44.774 48.4112C44.9327 48.6209 45.0454 48.8616 45.1049 49.1178C45.1643 49.3739 45.1691 49.6397 45.119 49.8978C45.0689 50.156 44.9649 50.4006 44.8139 50.6159C44.2139 51.5519 42.8849 51.9389 41.8319 52.0109C40.6469 52.0949 38.2319 51.1979 38.0339 51.1109C37.9829 51.5969 37.9319 52.0799 37.8839 52.5689C37.7279 54.1559 37.5839 55.7519 37.3859 57.3209C37.3169 57.8639 37.2329 58.3979 37.1489 58.9319C37.4909 58.4879 38.1269 57.6929 38.1899 57.6299C39.1919 56.6339 41.7149 55.2959 43.1219 56.0219C43.3499 56.1491 43.5487 56.3226 43.7056 56.5311C43.8625 56.7397 43.9741 56.9788 44.0331 57.2331C44.0921 57.4873 44.0974 57.7511 44.0484 58.0075C43.9995 58.2639 43.8975 58.5073 43.7489 58.7219C43.1489 59.6579 41.8199 60.0449 40.7669 60.1199C39.7139 60.1949 37.6679 59.4839 37.0949 59.2739C36.9479 60.1739 36.7949 61.0409 36.5789 61.8959C36.4829 62.2649 36.4109 62.6459 36.2969 62.9939L35.9969 64.0409C35.7569 64.7489 35.5379 65.4059 35.2979 66.0599C35.1779 66.3899 35.0609 66.6989 34.9409 67.0199C35.2199 66.5159 35.6759 65.7299 35.7239 65.6609C36.5639 64.5239 38.8529 62.8229 40.3529 63.3269C40.5999 63.4169 40.8252 63.5579 41.0139 63.7408C41.2027 63.9238 41.3508 64.1445 41.4484 64.3885C41.5461 64.6326 41.5912 64.8945 41.5808 65.1572C41.5704 65.4198 41.5046 65.6773 41.3879 65.9129C40.9259 66.9329 39.6809 67.5149 38.6489 67.7459C37.5149 68.0039 35.0789 67.5089 34.7819 67.4459C34.4819 68.2289 34.1819 68.9849 33.8999 69.6899C32.9999 71.9189 32.1449 73.7429 31.5359 75.0119L31.4369 75.2159H35.8739L34.3409 105.096C34.2989 106.201 33.8298 107.246 33.0323 108.011C32.2349 108.777 31.1714 109.203 30.0659 109.2C28.9712 109.201 27.918 108.781 27.1241 108.027C26.3301 107.273 25.8561 106.243 25.7999 105.15L24.2669 75.2699H29.0309C29.0069 75.0629 28.9829 74.8439 28.9559 74.5979C28.7969 73.2179 28.5389 71.2439 28.1249 68.8979C28.0079 68.2199 27.8729 67.5029 27.7229 66.7679C27.4229 66.8069 24.9569 67.1189 23.8439 66.7679C22.8359 66.4679 21.6359 65.7839 21.2519 64.7339C21.1535 64.4903 21.1075 64.2287 21.1168 63.9662C21.1261 63.7036 21.1906 63.446 21.306 63.21C21.4215 62.974 21.5853 62.7649 21.7869 62.5964C21.9884 62.4279 22.2232 62.3037 22.4759 62.2319C24.0089 61.8389 26.1659 63.7109 26.9189 64.9049C26.9669 64.9829 27.4319 65.9519 27.6599 66.4529C27.5699 66.0089 27.4829 65.5679 27.3809 65.1059C27.2369 64.4429 27.0809 63.7469 26.9039 63.0689C26.8079 62.7209 26.7089 62.3699 26.6039 62.0159C26.4989 61.6619 26.3789 61.3259 26.2679 60.9719C26.0939 60.4619 25.8869 59.9429 25.6679 59.4239C25.0019 59.6099 23.0339 60.1169 22.0229 59.9699C21.0119 59.8229 19.6889 59.3339 19.1519 58.3559C19.0173 58.1299 18.9318 57.8781 18.9011 57.6169C18.8703 57.3557 18.8949 57.0909 18.9733 56.8399C19.0517 56.5888 19.1822 56.3571 19.3561 56.1598C19.5301 55.9625 19.7436 55.8041 19.9829 55.6949C21.4379 55.0739 23.8529 56.5949 24.7829 57.6659C24.8129 57.6989 24.9869 57.9449 25.1879 58.2389C24.9719 57.7409 24.7589 57.2399 24.5249 56.7389C23.8589 55.3229 23.1359 53.8979 22.4249 52.4699C22.2749 52.1699 22.1249 51.8699 21.9809 51.5699C21.4199 51.7289 19.2809 52.2989 18.2339 52.1459C17.1869 51.9929 15.8999 51.5099 15.3629 50.5289C15.2306 50.303 15.1471 50.0519 15.1178 49.7917C15.0885 49.5315 15.1142 49.2681 15.1931 49.0185C15.2719 48.7688 15.4023 48.5385 15.5757 48.3424C15.7492 48.1463 15.9618 47.9887 16.1999 47.8799C17.6549 47.2619 20.0699 48.7799 20.9999 49.8539C21.0329 49.8899 21.2399 50.1839 21.4649 50.5169C21.0869 49.7339 20.7179 48.9509 20.3759 48.1589C19.7853 46.8073 19.2842 45.4183 18.8759 44.0009C18.6809 44.0579 16.1999 44.7779 15.0209 44.6009C13.9769 44.4509 12.6899 43.9649 12.1529 42.9869C12.0182 42.7611 11.9326 42.5095 11.9016 42.2484C11.8706 41.9873 11.895 41.7227 11.9731 41.4716C12.0512 41.2206 12.1813 40.9888 12.355 40.7914C12.5286 40.594 12.7419 40.4354 12.9809 40.3259C14.4389 39.7079 16.8539 41.2259 17.7809 42.2969C17.8469 42.3749 18.5789 43.4429 18.8279 43.8359C18.8266 43.8189 18.8266 43.8019 18.8279 43.7849C18.461 42.3822 18.22 40.9495 18.1079 39.5039C17.9976 38.214 17.9616 36.9189 17.9999 35.6249C18.0299 34.4249 18.1289 33.3269 18.2249 32.3579C18.2819 31.8329 18.3419 31.3529 18.4049 30.9059L18.3779 30.9239C18.3509 30.9419 17.8229 29.0939 17.8019 28.9739C17.5679 27.5789 17.9399 24.7499 19.3439 24.0209C19.5809 23.9067 19.8392 23.8436 20.1021 23.8358C20.365 23.828 20.6266 23.8755 20.8699 23.9754C21.1133 24.0753 21.3328 24.2252 21.5144 24.4155C21.696 24.6058 21.8355 24.8322 21.9239 25.0799C22.3319 26.1209 21.8819 27.4199 21.3239 28.3229C20.7659 29.2259 18.9239 30.5369 18.4739 30.8519C18.4199 31.3169 18.3659 31.8149 18.3179 32.3519C18.2429 33.3209 18.1679 34.4159 18.1649 35.6129C18.1649 35.9339 18.1649 36.2759 18.1799 36.6089C18.2879 36.0449 18.4469 35.2769 18.4799 35.2019C18.9149 33.8579 20.5469 31.5179 22.1309 31.5209C22.3937 31.5285 22.6519 31.5914 22.8887 31.7055C23.1255 31.8195 23.3357 31.9822 23.5055 32.1828C23.6753 32.3834 23.8009 32.6176 23.8742 32.87C23.9475 33.1225 23.9668 33.3875 23.9309 33.6479C23.8169 34.7609 22.8179 35.7059 21.9149 36.2549C21.0119 36.8039 18.6869 37.1429 18.1889 37.1999C18.2129 37.9379 18.2519 38.6999 18.3419 39.4799C18.4842 40.9089 18.7533 42.3225 19.1459 43.7039H19.2359C19.2719 43.1729 19.3739 42.0599 19.3919 41.9669C19.6919 40.5839 21.0419 38.0669 22.6169 37.9079C22.8789 37.8867 23.1424 37.921 23.3903 38.0084C23.6382 38.0958 23.8648 38.2345 24.0556 38.4153C24.2463 38.5961 24.3968 38.8151 24.4973 39.058C24.5979 39.3008 24.6461 39.5621 24.6389 39.8249C24.6389 40.9409 23.7599 41.9939 22.9229 42.6359C21.9569 43.3769 19.3409 43.9709 19.2419 43.9919C19.6693 45.3542 20.1854 46.687 20.7869 47.9819C21.2279 48.9419 21.7109 49.8989 22.2059 50.8529C22.2239 50.4779 22.3559 49.0169 22.3769 48.9119C22.6769 47.5289 24.0269 45.0119 25.6019 44.8499C25.8638 44.8292 26.1271 44.8638 26.3748 44.9514C26.6224 45.039 26.8489 45.1776 27.0396 45.3584C27.2302 45.5391 27.3807 45.7579 27.4814 46.0005C27.5821 46.2432 27.6306 46.5043 27.6239 46.7669C27.6239 47.8859 26.7419 48.9359 25.9049 49.5779C24.9629 50.3009 22.4609 50.8829 22.2479 50.9309C22.4729 51.3629 22.6979 51.7979 22.9259 52.2299C23.6729 53.6429 24.4259 55.0529 25.1339 56.4689C25.3769 56.9609 25.5989 57.4529 25.8239 57.9449C25.8629 57.3839 25.9589 56.3699 25.9739 56.2829C26.2739 54.8999 27.6269 52.3829 29.1989 52.2209C29.4609 52.1997 29.7244 52.234 29.9723 52.3214C30.2202 52.4088 30.4468 52.5475 30.6376 52.7283C30.8283 52.9091 30.9788 53.1281 31.0793 53.371C31.1799 53.6138 31.2281 53.8751 31.2209 54.1379C31.2209 55.2569 30.3419 56.3069 29.5049 56.9489C28.6679 57.5909 26.5679 58.1279 25.9769 58.2719C26.3459 59.0999 26.6999 59.9099 26.9999 60.7379C27.1229 61.0979 27.2699 61.4549 27.3689 61.8059L27.6869 62.8529C27.8759 63.5759 28.0559 64.2449 28.2179 64.9229C28.3019 65.2649 28.3709 65.5889 28.4489 65.9189C28.4039 65.3489 28.3499 64.4399 28.3529 64.3559C28.4279 62.9459 29.3969 60.2609 30.9269 59.8559C31.1828 59.7953 31.4485 59.7893 31.7069 59.8382C31.9652 59.8872 32.2103 59.99 32.4263 60.14C32.6422 60.29 32.8241 60.4838 32.9602 60.7088C33.0963 60.9338 33.1834 61.185 33.2159 61.4459C33.2371 61.5828 33.2461 61.7214 33.2429 61.8599C33.859 62.9388 34.1884 64.1575 34.1999 65.3999C34.1999 65.4899 34.0529 66.5549 33.9659 67.0979C34.1369 66.6779 34.3049 66.2609 34.4729 65.8229C34.7219 65.1899 34.9619 64.5149 35.2019 63.8609L35.5379 62.8199C35.6579 62.4689 35.7299 62.1209 35.8379 61.7639C35.9759 61.2419 36.0899 60.6929 36.2039 60.1499C35.5469 59.9339 33.6239 59.2739 32.8619 58.5929C32.0999 57.9119 31.2689 56.7749 31.3619 55.6619C31.3748 55.3994 31.4427 55.1426 31.5612 54.9081C31.6797 54.6736 31.8462 54.4666 32.0499 54.3005C32.2535 54.1345 32.4898 54.0131 32.7434 53.9443C32.997 53.8754 33.2622 53.8606 33.5219 53.9009C35.0789 54.2009 36.2549 56.7899 36.4349 58.1909C36.4349 58.2359 36.4499 58.5359 36.4559 58.8929C36.5519 58.3589 36.6509 57.8219 36.7289 57.2759C36.9569 55.7279 37.1369 54.1409 37.3289 52.5539C37.3679 52.2209 37.4129 51.8909 37.4519 51.5609C36.8969 51.3839 34.8089 50.6879 34.0109 49.9739C33.2129 49.2599 32.4179 48.1559 32.5109 47.0429C32.5229 46.7801 32.5902 46.5228 32.7084 46.2878C32.8266 46.0528 32.9931 45.8454 33.197 45.6792C33.4009 45.513 33.6376 45.3917 33.8915 45.3232C34.1455 45.2547 34.4111 45.2407 34.6709 45.2819C36.2279 45.5819 37.4009 48.1709 37.5839 49.5719C37.5839 49.6199 37.5839 49.9799 37.6049 50.3819C37.7189 49.5179 37.8449 48.6629 37.9979 47.8139C38.2468 46.354 38.5946 44.9127 39.0389 43.4999C38.8409 43.4399 36.3779 42.6719 35.4899 41.8799C34.7009 41.1749 33.8939 40.0619 33.9899 38.9489C34.0019 38.6861 34.0692 38.4288 34.1874 38.1938C34.3056 37.9588 34.4721 37.7514 34.676 37.5852C34.8799 37.419 35.1166 37.2977 35.3705 37.2292C35.6245 37.1607 35.8901 37.1467 36.1499 37.1879C37.7039 37.4879 38.8799 40.0769 39.0629 41.4779C39.0629 41.5769 39.0959 42.8729 39.0869 43.3379C39.0869 43.3199 39.0869 43.3019 39.1019 43.2869C39.5707 41.9145 40.16 40.5863 40.8629 39.3179C41.4871 38.1792 42.1762 37.0774 42.9269 36.0179C43.6139 35.0309 44.3009 34.1729 44.9189 33.4169C45.2549 33.0089 45.5699 32.6429 45.8669 32.3039H45.8339C45.8039 32.3039 46.3829 30.4679 46.4339 30.3569C47.0099 29.0669 48.8789 26.9099 50.4509 27.0779C50.7127 27.1136 50.964 27.2043 51.1883 27.344C51.4125 27.4838 51.6047 27.6695 51.752 27.8888C51.8994 28.1081 51.9986 28.3562 52.0433 28.6166C52.0879 28.8771 52.0769 29.144 52.0109 29.3999ZM33.8639 67.3799C33.5939 67.2509 31.5209 66.2249 30.7109 65.3459C30.0098 65.7278 29.2865 66.0674 28.5449 66.3629C28.7279 67.1789 28.9019 67.9739 29.0489 68.7209C29.5169 71.0849 29.8199 73.0709 30.0119 74.4659C30.0509 74.7659 30.0869 75.0269 30.1169 75.2699H30.2219L30.5699 74.5949C31.1969 73.3559 32.0699 71.5679 33.0239 69.3779C33.2999 68.7479 33.5819 68.0759 33.8639 67.3799ZM42.1559 37.1699C42.1799 37.1699 42.6599 35.3249 42.6779 35.2019C42.8729 33.8039 42.4259 30.9839 41.0009 30.2939C40.7608 30.1863 40.5008 30.1304 40.2377 30.1299C39.9746 30.1293 39.7143 30.1842 39.4738 30.2909C39.2333 30.3976 39.0179 30.5536 38.8417 30.749C38.6654 30.9444 38.5323 31.1747 38.4509 31.4249C38.0699 32.4749 38.5559 33.7619 39.1289 34.6469C39.8009 35.6999 42.1529 37.1699 42.1559 37.1699Z" fill="#4057A2"/>
<path opacity="0.3" d="M11.7149 34.2419C11.6449 33.9888 11.629 33.7237 11.6681 33.4641C11.7072 33.2044 11.8006 32.9558 11.942 32.7346C12.0835 32.5133 12.27 32.3243 12.4893 32.1798C12.7085 32.0353 12.9558 31.9386 13.2149 31.8959C14.7839 31.6829 16.7099 33.7889 17.3219 35.0639C17.3729 35.1749 17.9999 36.9929 17.9699 36.9929C17.9399 36.9929 15.1889 37.0559 14.0699 36.5579C13.0889 36.1349 11.9759 35.3279 11.7149 34.2419ZM52.0109 29.3999C51.7799 30.4919 50.6879 31.3289 49.7339 31.7789C48.7799 32.2289 46.5149 32.3069 45.9599 32.3159C45.6599 32.6729 45.3389 33.0599 44.9939 33.4919C44.3939 34.2599 43.7279 35.1329 43.0679 36.1289C42.8909 36.3959 42.7109 36.6869 42.5309 36.9689C42.9329 36.5579 43.4879 36.0029 43.5479 35.9549C44.6549 35.0759 47.3069 34.0229 48.6239 34.8989C48.8388 35.0501 49.0195 35.2448 49.1542 35.4704C49.2889 35.696 49.3746 35.9474 49.4058 36.2083C49.4369 36.4692 49.4127 36.7337 49.3349 36.9847C49.257 37.2356 49.1272 37.4674 48.9539 37.6649C48.2429 38.5289 46.8899 38.7689 45.8339 38.7269C44.7779 38.6849 42.6689 37.6799 42.2189 37.4549C41.8319 38.0819 41.4479 38.7359 41.0879 39.4409C40.4176 40.7118 39.8624 42.04 39.4289 43.4099L39.5099 43.4489C39.8309 43.0259 40.5299 42.1529 40.5959 42.0899C41.5979 41.0909 44.1209 39.7559 45.5279 40.4789C45.7555 40.6064 45.954 40.7801 46.1106 40.9887C46.2673 41.1973 46.3787 41.4363 46.4377 41.6904C46.4967 41.9445 46.502 42.2082 46.4533 42.4645C46.4046 42.7208 46.303 42.9641 46.1549 43.1789C45.5549 44.1179 44.2259 44.5049 43.1729 44.5769C41.9729 44.6639 39.4499 43.7159 39.3539 43.6769C38.9646 45.0491 38.664 46.445 38.4539 47.8559C38.2919 48.8999 38.1689 49.9559 38.0549 51.0329C38.2739 50.7329 39.1919 49.5839 39.2549 49.5089C40.2569 48.5129 42.7799 47.1749 44.1839 47.9009C44.4143 48.0277 44.6154 48.2016 44.774 48.4112C44.9327 48.6209 45.0454 48.8616 45.1049 49.1178C45.1643 49.3739 45.1691 49.6397 45.119 49.8978C45.0689 50.156 44.9649 50.4006 44.8139 50.6159C44.2139 51.5519 42.8849 51.9389 41.8319 52.0109C40.6469 52.0949 38.2319 51.1979 38.0339 51.1109C37.9829 51.5969 37.9319 52.0799 37.8839 52.5689C37.7279 54.1559 37.5839 55.7519 37.3859 57.3209C37.3169 57.8639 37.2329 58.3979 37.1489 58.9319C37.4909 58.4879 38.1269 57.6929 38.1899 57.6299C39.1919 56.6339 41.7149 55.2959 43.1219 56.0219C43.3499 56.1491 43.5487 56.3226 43.7056 56.5311C43.8625 56.7397 43.9741 56.9788 44.0331 57.2331C44.0921 57.4873 44.0974 57.7511 44.0484 58.0075C43.9995 58.2639 43.8975 58.5073 43.7489 58.7219C43.1489 59.6579 41.8199 60.0449 40.7669 60.1199C39.7139 60.1949 37.6679 59.4839 37.0949 59.2739C36.9479 60.1739 36.7949 61.0409 36.5789 61.8959C36.4829 62.2649 36.4109 62.6459 36.2969 62.9939L35.9969 64.0409C35.7569 64.7489 35.5379 65.4059 35.2979 66.0599C35.1779 66.3899 35.0609 66.6989 34.9409 67.0199C35.2199 66.5159 35.6759 65.7299 35.7239 65.6609C36.5639 64.5239 38.8529 62.8229 40.3529 63.3269C40.5999 63.4169 40.8252 63.5579 41.0139 63.7408C41.2027 63.9238 41.3508 64.1445 41.4484 64.3885C41.5461 64.6326 41.5912 64.8945 41.5808 65.1572C41.5704 65.4198 41.5046 65.6773 41.3879 65.9129C40.9259 66.9329 39.6809 67.5149 38.6489 67.7459C37.5149 68.0039 35.0789 67.5089 34.7819 67.4459C34.4819 68.2289 34.1819 68.9849 33.8999 69.6899C32.9999 71.9189 32.1449 73.7429 31.5359 75.0119L31.4369 75.2159H35.8739L34.3409 105.096C34.2989 106.201 33.8298 107.246 33.0323 108.011C32.2349 108.777 31.1714 109.203 30.0659 109.2C28.9712 109.201 27.918 108.781 27.1241 108.027C26.3301 107.273 25.8561 106.243 25.7999 105.15L24.2669 75.2699H29.0309C29.0069 75.0629 28.9829 74.8439 28.9559 74.5979C28.7969 73.2179 28.5389 71.2439 28.1249 68.8979C28.0079 68.2199 27.8729 67.5029 27.7229 66.7679C27.4229 66.8069 24.9569 67.1189 23.8439 66.7679C22.8359 66.4679 21.6359 65.7839 21.2519 64.7339C21.1535 64.4903 21.1075 64.2287 21.1168 63.9662C21.1261 63.7036 21.1906 63.446 21.306 63.21C21.4215 62.974 21.5853 62.7649 21.7869 62.5964C21.9884 62.4279 22.2232 62.3037 22.4759 62.2319C24.0089 61.8389 26.1659 63.7109 26.9189 64.9049C26.9669 64.9829 27.4319 65.9519 27.6599 66.4529C27.5699 66.0089 27.4829 65.5679 27.3809 65.1059C27.2369 64.4429 27.0809 63.7469 26.9039 63.0689C26.8079 62.7209 26.7089 62.3699 26.6039 62.0159C26.4989 61.6619 26.3789 61.3259 26.2679 60.9719C26.0939 60.4619 25.8869 59.9429 25.6679 59.4239C25.0019 59.6099 23.0339 60.1169 22.0229 59.9699C21.0119 59.8229 19.6889 59.3339 19.1519 58.3559C19.0173 58.1299 18.9318 57.8781 18.9011 57.6169C18.8703 57.3557 18.8949 57.0909 18.9733 56.8399C19.0517 56.5888 19.1822 56.3571 19.3561 56.1598C19.5301 55.9625 19.7436 55.8041 19.9829 55.6949C21.4379 55.0739 23.8529 56.5949 24.7829 57.6659C24.8129 57.6989 24.9869 57.9449 25.1879 58.2389C24.9719 57.7409 24.7589 57.2399 24.5249 56.7389C23.8589 55.3229 23.1359 53.8979 22.4249 52.4699C22.2749 52.1699 22.1249 51.8699 21.9809 51.5699C21.4199 51.7289 19.2809 52.2989 18.2339 52.1459C17.1869 51.9929 15.8999 51.5099 15.3629 50.5289C15.2306 50.303 15.1471 50.0519 15.1178 49.7917C15.0885 49.5315 15.1142 49.2681 15.1931 49.0185C15.2719 48.7688 15.4023 48.5385 15.5757 48.3424C15.7492 48.1463 15.9618 47.9887 16.1999 47.8799C17.6549 47.2619 20.0699 48.7799 20.9999 49.8539C21.0329 49.8899 21.2399 50.1839 21.4649 50.5169C21.0869 49.7339 20.7179 48.9509 20.3759 48.1589C19.7853 46.8073 19.2842 45.4183 18.8759 44.0009C18.6809 44.0579 16.1999 44.7779 15.0209 44.6009C13.9769 44.4509 12.6899 43.9649 12.1529 42.9869C12.0182 42.7611 11.9326 42.5095 11.9016 42.2484C11.8706 41.9873 11.895 41.7227 11.9731 41.4716C12.0512 41.2206 12.1813 40.9888 12.355 40.7914C12.5286 40.594 12.7419 40.4354 12.9809 40.3259C14.4389 39.7079 16.8539 41.2259 17.7809 42.2969C17.8469 42.3749 18.5789 43.4429 18.8279 43.8359C18.8266 43.8189 18.8266 43.8019 18.8279 43.7849C18.461 42.3822 18.22 40.9495 18.1079 39.5039C17.9976 38.214 17.9616 36.9189 17.9999 35.6249C18.0299 34.4249 18.1289 33.3269 18.2249 32.3579C18.2819 31.8329 18.3419 31.3529 18.4049 30.9059L18.3779 30.9239C18.3509 30.9419 17.8229 29.0939 17.8019 28.9739C17.5679 27.5789 17.9399 24.7499 19.3439 24.0209C19.5809 23.9067 19.8392 23.8436 20.1021 23.8358C20.365 23.828 20.6266 23.8755 20.8699 23.9754C21.1133 24.0753 21.3328 24.2252 21.5144 24.4155C21.696 24.6058 21.8355 24.8322 21.9239 25.0799C22.3319 26.1209 21.8819 27.4199 21.3239 28.3229C20.7659 29.2259 18.9239 30.5369 18.4739 30.8519C18.4199 31.3169 18.3659 31.8149 18.3179 32.3519C18.2429 33.3209 18.1679 34.4159 18.1649 35.6129C18.1649 35.9339 18.1649 36.2759 18.1799 36.6089C18.2879 36.0449 18.4469 35.2769 18.4799 35.2019C18.9149 33.8579 20.5469 31.5179 22.1309 31.5209C22.3937 31.5285 22.6519 31.5914 22.8887 31.7055C23.1255 31.8195 23.3357 31.9822 23.5055 32.1828C23.6753 32.3834 23.8009 32.6176 23.8742 32.87C23.9475 33.1225 23.9668 33.3875 23.9309 33.6479C23.8169 34.7609 22.8179 35.7059 21.9149 36.2549C21.0119 36.8039 18.6869 37.1429 18.1889 37.1999C18.2129 37.9379 18.2519 38.6999 18.3419 39.4799C18.4842 40.9089 18.7533 42.3225 19.1459 43.7039H19.2359C19.2719 43.1729 19.3739 42.0599 19.3919 41.9669C19.6919 40.5839 21.0419 38.0669 22.6169 37.9079C22.8789 37.8867 23.1424 37.921 23.3903 38.0084C23.6382 38.0958 23.8648 38.2345 24.0556 38.4153C24.2463 38.5961 24.3968 38.8151 24.4973 39.058C24.5979 39.3008 24.6461 39.5621 24.6389 39.8249C24.6389 40.9409 23.7599 41.9939 22.9229 42.6359C21.9569 43.3769 19.3409 43.9709 19.2419 43.9919C19.6693 45.3542 20.1854 46.687 20.7869 47.9819C21.2279 48.9419 21.7109 49.8989 22.2059 50.8529C22.2239 50.4779 22.3559 49.0169 22.3769 48.9119C22.6769 47.5289 24.0269 45.0119 25.6019 44.8499C25.8638 44.8292 26.1271 44.8638 26.3748 44.9514C26.6224 45.039 26.8489 45.1776 27.0396 45.3584C27.2302 45.5391 27.3807 45.7579 27.4814 46.0005C27.5821 46.2432 27.6306 46.5043 27.6239 46.7669C27.6239 47.8859 26.7419 48.9359 25.9049 49.5779C24.9629 50.3009 22.4609 50.8829 22.2479 50.9309C22.4729 51.3629 22.6979 51.7979 22.9259 52.2299C23.6729 53.6429 24.4259 55.0529 25.1339 56.4689C25.3769 56.9609 25.5989 57.4529 25.8239 57.9449C25.8629 57.3839 25.9589 56.3699 25.9739 56.2829C26.2739 54.8999 27.6269 52.3829 29.1989 52.2209C29.4609 52.1997 29.7244 52.234 29.9723 52.3214C30.2202 52.4088 30.4468 52.5475 30.6376 52.7283C30.8283 52.9091 30.9788 53.1281 31.0793 53.371C31.1799 53.6138 31.2281 53.8751 31.2209 54.1379C31.2209 55.2569 30.3419 56.3069 29.5049 56.9489C28.6679 57.5909 26.5679 58.1279 25.9769 58.2719C26.3459 59.0999 26.6999 59.9099 26.9999 60.7379C27.1229 61.0979 27.2699 61.4549 27.3689 61.8059L27.6869 62.8529C27.8759 63.5759 28.0559 64.2449 28.2179 64.9229C28.3019 65.2649 28.3709 65.5889 28.4489 65.9189C28.4039 65.3489 28.3499 64.4399 28.3529 64.3559C28.4279 62.9459 29.3969 60.2609 30.9269 59.8559C31.1828 59.7953 31.4485 59.7893 31.7069 59.8382C31.9652 59.8872 32.2103 59.99 32.4263 60.14C32.6422 60.29 32.8241 60.4838 32.9602 60.7088C33.0963 60.9338 33.1834 61.185 33.2159 61.4459C33.2371 61.5828 33.2461 61.7214 33.2429 61.8599C33.859 62.9388 34.1884 64.1575 34.1999 65.3999C34.1999 65.4899 34.0529 66.5549 33.9659 67.0979C34.1369 66.6779 34.3049 66.2609 34.4729 65.8229C34.7219 65.1899 34.9619 64.5149 35.2019 63.8609L35.5379 62.8199C35.6579 62.4689 35.7299 62.1209 35.8379 61.7639C35.9759 61.2419 36.0899 60.6929 36.2039 60.1499C35.5469 59.9339 33.6239 59.2739 32.8619 58.5929C32.0999 57.9119 31.2689 56.7749 31.3619 55.6619C31.3748 55.3994 31.4427 55.1426 31.5612 54.9081C31.6797 54.6736 31.8462 54.4666 32.0499 54.3005C32.2535 54.1345 32.4898 54.0131 32.7434 53.9443C32.997 53.8754 33.2622 53.8606 33.5219 53.9009C35.0789 54.2009 36.2549 56.7899 36.4349 58.1909C36.4349 58.2359 36.4499 58.5359 36.4559 58.8929C36.5519 58.3589 36.6509 57.8219 36.7289 57.2759C36.9569 55.7279 37.1369 54.1409 37.3289 52.5539C37.3679 52.2209 37.4129 51.8909 37.4519 51.5609C36.8969 51.3839 34.8089 50.6879 34.0109 49.9739C33.2129 49.2599 32.4179 48.1559 32.5109 47.0429C32.5229 46.7801 32.5902 46.5228 32.7084 46.2878C32.8266 46.0528 32.9931 45.8454 33.197 45.6792C33.4009 45.513 33.6376 45.3917 33.8915 45.3232C34.1455 45.2547 34.4111 45.2407 34.6709 45.2819C36.2279 45.5819 37.4009 48.1709 37.5839 49.5719C37.5839 49.6199 37.5839 49.9799 37.6049 50.3819C37.7189 49.5179 37.8449 48.6629 37.9979 47.8139C38.2468 46.354 38.5946 44.9127 39.0389 43.4999C38.8409 43.4399 36.3779 42.6719 35.4899 41.8799C34.7009 41.1749 33.8939 40.0619 33.9899 38.9489C34.0019 38.6861 34.0692 38.4288 34.1874 38.1938C34.3056 37.9588 34.4721 37.7514 34.676 37.5852C34.8799 37.419 35.1166 37.2977 35.3705 37.2292C35.6245 37.1607 35.8901 37.1467 36.1499 37.1879C37.7039 37.4879 38.8799 40.0769 39.0629 41.4779C39.0629 41.5769 39.0959 42.8729 39.0869 43.3379C39.0869 43.3199 39.0869 43.3019 39.1019 43.2869C39.5707 41.9145 40.16 40.5863 40.8629 39.3179C41.4871 38.1792 42.1762 37.0774 42.9269 36.0179C43.6139 35.0309 44.3009 34.1729 44.9189 33.4169C45.2549 33.0089 45.5699 32.6429 45.8669 32.3039H45.8339C45.8039 32.3039 46.3829 30.4679 46.4339 30.3569C47.0099 29.0669 48.8789 26.9099 50.4509 27.0779C50.7127 27.1136 50.964 27.2043 51.1883 27.344C51.4125 27.4838 51.6047 27.6695 51.752 27.8888C51.8994 28.1081 51.9986 28.3562 52.0433 28.6166C52.0879 28.8771 52.0769 29.144 52.0109 29.3999ZM33.8639 67.3799C33.5939 67.2509 31.5209 66.2249 30.7109 65.3459C30.0098 65.7278 29.2865 66.0674 28.5449 66.3629C28.7279 67.1789 28.9019 67.9739 29.0489 68.7209C29.5169 71.0849 29.8199 73.0709 30.0119 74.4659C30.0509 74.7659 30.0869 75.0269 30.1169 75.2699H30.2219L30.5699 74.5949C31.1969 73.3559 32.0699 71.5679 33.0239 69.3779C33.2999 68.7479 33.5819 68.0759 33.8639 67.3799ZM42.1559 37.1699C42.1799 37.1699 42.6599 35.3249 42.6779 35.2019C42.8729 33.8039 42.4259 30.9839 41.0009 30.2939C40.7608 30.1863 40.5008 30.1304 40.2377 30.1299C39.9746 30.1293 39.7143 30.1842 39.4738 30.2909C39.2333 30.3976 39.0179 30.5536 38.8417 30.749C38.6654 30.9444 38.5323 31.1747 38.4509 31.4249C38.0699 32.4749 38.5559 33.7619 39.1289 34.6469C39.8009 35.6999 42.1529 37.1699 42.1559 37.1699Z" fill="white"/>
<path d="M127.083 47.7782C127.083 47.7782 124.149 50.0222 123.744 51.7502C123.339 53.4782 123.861 55.3172 124.206 56.4122C124.551 57.5072 124.608 62.8022 121.386 65.1602C118.164 67.5182 116.724 69.8792 117.069 72.8162C117.414 75.7532 121.788 78.9752 125.415 79.7162C129.042 80.4572 134.163 78.7952 136.176 74.4782C138.189 70.1612 135.486 65.4002 133.989 62.7002C132.492 60.0002 132.609 57.4622 134.289 57.3482C135.969 57.2342 136.821 57.6482 136.881 55.2752C136.941 52.9022 136.362 49.2332 133.311 47.3912C130.26 45.5492 127.083 47.7782 127.083 47.7782Z" fill="#2E353A" stroke="#2E353A" stroke-linecap="round" stroke-linejoin="round"/>
<path d="M119.859 76.728C120.159 76.929 122.859 78.03 124.857 74.928C126.855 71.826 124.134 68.967 124.659 66.228" stroke="white" stroke-width="0.5" stroke-miterlimit="10"/>
<path d="M130.365 51.3482C130.365 51.3482 129.429 48.3242 131.457 49.3052C133.632 50.3552 135.357 55.3052 134.607 56.4302" stroke="white" stroke-width="0.5" stroke-miterlimit="10"/>
<path d="M129.807 50.9549C129.807 50.9549 128.682 48.7799 129.432 47.8049C130.182 46.8299 131.907 47.9549 132.807 48.6299" stroke="white" stroke-width="0.5" stroke-miterlimit="10"/>
<path d="M132.357 56.8799C132.357 56.8799 132.657 58.2299 131.757 60.9299C130.857 63.6299 129.207 66.7049 130.857 69.5549C132.507 72.4049 133.782 74.3549 131.907 77.2049" stroke="white" stroke-width="0.5" stroke-miterlimit="10"/>
<path d="M132.357 58.4551C132.422 60.2135 132.297 61.9738 131.982 63.7051C131.457 66.7051 133.107 68.6551 134.832 70.5301C136.557 72.4051 136.107 73.9801 135.507 75.7051" stroke="white" stroke-width="0.5" stroke-miterlimit="10"/>
<path d="M129.732 51.4052C129.732 51.4052 126.207 51.7052 125.157 51.2552C124.107 50.8052 124.332 50.4302 124.332 50.4302" stroke="white" stroke-width="0.5" stroke-miterlimit="10"/>
<path d="M130.2 63.3872C130.2 63.3872 130.659 68.0492 131.247 70.7462C131.835 73.4432 132.771 76.8482 132.537 77.7872C132.303 78.7262 127.137 86.7032 127.137 86.7032L125.613 85.6472L128.781 76.1432L126.114 67.2332C126.114 67.2332 128.556 63.6542 130.2 63.3872Z" fill="white" stroke="#2E353A" stroke-linecap="round" stroke-linejoin="round"/>
<path d="M129.789 62.6281C129.039 61.7641 127.428 59.5201 127.428 59.5201L124.896 56.5201L121.386 51.6871C120.924 51.0541 119.37 51.2821 114.882 51.3421C110.394 51.4021 96.771 48.8101 96.771 48.8101L96.312 51.8101C96.312 51.8101 108.78 54.5101 111.945 54.8101C115.11 55.1101 118.047 55.5001 118.047 55.5001C117.615 56.3612 117.23 57.2456 116.895 58.1491C116.55 59.1841 112.521 64.7101 112.521 64.7101C112.521 64.7101 112.422 64.7701 112.251 64.8841C112.206 65.8861 112.302 68.0131 113.799 69.1351C114.957 70.0021 116.652 70.3681 117.876 70.5211C117.897 70.4521 117.915 70.3921 117.93 70.3501C118.104 69.8881 119.37 69.1981 120.06 69.1501C120.75 69.1021 122.88 69.2071 124.149 69.0931C125.418 68.9791 126.105 67.2511 126.105 67.2511C126.105 67.2511 128.901 64.5211 130.188 63.4051C130.108 63.122 129.973 62.8578 129.789 62.6281Z" fill="white" stroke="#2E353A" stroke-linecap="round" stroke-linejoin="round"/>
<path d="M119.64 56.1962L118.047 55.4912L119.205 57.3332" stroke="#2E353A" stroke-width="0.75" stroke-linecap="round" stroke-linejoin="round"/>
<path d="M115.623 66.6782C116.822 67.4221 118.241 67.7303 119.64 67.5512" stroke="#2E353A" stroke-width="0.75" stroke-linecap="round" stroke-linejoin="round"/>
<path d="M114.3 64.5811C114.3 64.5811 114.561 65.6311 116.223 66.3301" stroke="#2E353A" stroke-width="0.75" stroke-linecap="round" stroke-linejoin="round"/>
<path d="M128.772 76.1431C128.772 76.1431 129.861 75.6751 130.734 76.8991" stroke="#2E353A" stroke-width="0.75" stroke-linecap="round" stroke-linejoin="round"/>
<path d="M129.075 67.9889L126.105 67.2329L128.724 69.2999" stroke="#2E353A" stroke-width="0.75" stroke-linecap="round" stroke-linejoin="round"/>
<path d="M120.951 52.8002C120.951 52.8002 119.466 55.4192 117.72 55.3322C115.347 55.2122 108.633 53.2322 108.633 52.5362C108.633 51.8402 110.469 51.5762 110.469 51.5762" stroke="#2E353A" stroke-width="0.75" stroke-linecap="round" stroke-linejoin="round"/>
<path d="M126.105 54.9721C126.105 54.9721 124.905 54.6721 124.032 55.2031C123.159 55.7341 120.867 60.7291 120.867 60.7291C120.867 60.7291 121.038 60.9601 121.731 60.9601C122.424 60.9601 122.595 61.8811 122.595 62.7421C122.595 63.6031 122.535 64.0081 122.823 63.9421C123.111 63.8761 124.839 63.2521 125.184 63.4831C125.529 63.7141 124.722 64.8631 124.884 64.9831C125.046 65.1031 126.495 63.6571 126.957 62.1031C127.419 60.5491 127.878 58.2481 127.761 57.3271C127.644 56.4061 126.9 55.2001 126.105 54.9721Z" fill="#4057A2" stroke="#2E353A" stroke-linecap="round" stroke-linejoin="round"/>
<path d="M127.083 59.7509C126.449 60.458 125.777 61.13 125.07 61.7639C123.744 62.9639 122.652 63.8369 122.709 63.2639C122.766 62.6909 124.089 59.5799 124.434 57.8639C124.779 56.1479 125.415 54.9839 126.105 54.9839C126.795 54.9839 128.292 58.4999 127.083 59.7509Z" fill="white" stroke="#2E353A" stroke-linecap="round" stroke-linejoin="round"/>
<path d="M126.393 52.3261C126.439 52.4663 126.514 52.5951 126.613 52.7042C126.713 52.8133 126.834 52.9002 126.969 52.9591C127.371 53.0731 130.365 51.3481 130.365 51.3481C130.365 51.3481 132.495 55.8931 132.147 56.5831C131.799 57.2731 130.767 58.1401 129.615 58.9441C128.463 59.7481 126.336 60.3841 125.529 59.9221C124.722 59.4601 125.298 54.7441 125.298 54.7441C125.298 54.7441 124.665 53.9941 125.355 52.7851C126.045 51.5761 126.393 52.3261 126.393 52.3261Z" fill="white" stroke="#2E353A" stroke-linecap="round" stroke-linejoin="round"/>
<path d="M131.214 57.0211C131.214 57.0211 131.265 56.6641 130.599 56.6641C129.933 56.6641 128.763 57.8881 128.763 57.8881" stroke="#2E353A" stroke-width="0.75" stroke-linecap="round" stroke-linejoin="round"/>
<path d="M128.304 57.9898L127.947 57.6328" stroke="#2E353A" stroke-width="0.75" stroke-linecap="round" stroke-linejoin="round"/>
<path d="M127.8 58.6562C127.8 58.6562 126.882 58.5031 126.729 57.3271" stroke="#2E353A" stroke-width="0.75" stroke-linecap="round" stroke-linejoin="round"/>
<path d="M129.924 55.167C129.924 55.167 129.696 54.048 128.724 53.832" stroke="#2E353A" stroke-width="0.75" stroke-linecap="round" stroke-linejoin="round"/>
<path d="M128.769 55.767C128.535 55.95 128.277 56.01 128.19 55.899C128.103 55.788 128.22 55.551 128.451 55.368C128.682 55.185 128.943 55.125 129.03 55.236C129.117 55.347 129 55.584 128.769 55.767Z" fill="#2E353A"/>
<path d="M130.215 57.6572C130.023 57.8072 129.81 57.8582 129.738 57.7652C129.666 57.6722 129.762 57.4652 129.954 57.3242C130.146 57.1832 130.359 57.1262 130.431 57.2162C130.503 57.3062 130.407 57.5042 130.215 57.6572Z" fill="#2E353A"/>
<path d="M124.614 106.641L127.557 110.73C127.557 110.73 127.557 111.48 126.507 111.48C125.457 111.48 124.857 111.48 124.257 110.73C123.657 109.98 123.657 109.53 123.057 109.23C122.457 108.93 121.857 108.93 122.157 107.28C122.457 105.63 124.614 106.641 124.614 106.641Z" fill="white" stroke="#2E353A" stroke-linecap="round" stroke-linejoin="round"/>
<path d="M127.545 110.823C127.079 111.047 126.556 111.124 126.045 111.045C124.983 110.853 124.338 109.791 123.945 109.335C123.552 108.879 123.072 108.882 122.619 108.501C122.404 108.317 122.216 108.103 122.061 107.865C121.998 108.933 122.517 108.969 123.033 109.23C123.633 109.53 123.633 109.98 124.233 110.73C124.833 111.48 125.433 111.48 126.483 111.48C127.326 111.48 127.5 111.024 127.545 110.823Z" fill="white" stroke="#2E353A" stroke-linecap="round" stroke-linejoin="round"/>
<path d="M124.446 106.122C123.846 104.322 122.991 93.546 122.547 90.135C121.647 83.199 117.645 74.196 117.645 74.196L117.876 70.512C116.652 70.359 114.957 69.993 113.799 69.126C112.299 68.004 112.206 65.877 112.251 64.875C111.492 65.364 109.251 66.837 107.34 68.385C104.982 70.284 103.368 77.019 102.909 79.146C102.45 81.273 101.931 87.546 101.931 87.546C101.931 87.546 97.7851 89.157 96.1171 91.446C94.4491 93.735 89.3821 98.928 89.3821 98.928L89.8441 100.656C89.8441 100.656 91.3981 99.564 92.7211 98.526C94.0441 97.488 104.349 91.734 105.039 91.326C105.729 90.918 106.539 90.126 107.457 87.816C107.793 86.973 108.267 85.593 108.735 84.18L110.334 79.2L111.873 77.889C113.391 81.993 116.919 89.904 117.42 91.035C118.02 92.391 118.476 98.421 120.135 102.192C121.794 105.963 122.235 107.772 122.235 107.772C122.235 107.772 125.049 107.931 124.446 106.122Z" fill="#2E353A" stroke="#2E353A" stroke-linecap="round" stroke-linejoin="round"/>
<path d="M117.777 71.2231L118.35 74.5681" stroke="white" stroke-width="0.5" stroke-miterlimit="10"/>
<path d="M36.654 45.3872L27.99 118.977C27.9783 119.083 27.9965 119.19 28.0426 119.286C28.0887 119.383 28.1609 119.464 28.2509 119.521C28.3409 119.578 28.4451 119.609 28.5517 119.61C28.6583 119.611 28.7631 119.582 28.854 119.526L34.422 116.1C34.7525 115.895 35.1496 115.827 35.5296 115.909C35.9096 115.991 36.2429 116.218 36.459 116.541L43.455 126.942L46.374 83.1902L36.654 45.3872Z" fill="#4057A2" stroke="#2E353A" stroke-linecap="round" stroke-linejoin="round"/>
<path d="M36.6 47.2381L28.77 117.138C28.7531 117.289 28.7806 117.442 28.8491 117.577C28.9176 117.712 29.0241 117.825 29.1557 117.901C29.2872 117.977 29.438 118.012 29.5896 118.004C29.7412 117.995 29.8869 117.942 30.009 117.852L34.08 114.852C34.2917 114.696 34.5332 114.584 34.7896 114.524C35.046 114.464 35.3119 114.457 35.5711 114.503C35.8304 114.549 36.0774 114.648 36.2971 114.793C36.5169 114.938 36.7046 115.127 36.849 115.347L41.613 122.619C41.6646 122.7 41.7418 122.761 41.8323 122.793C41.9227 122.825 42.0212 122.825 42.112 122.794C42.2028 122.764 42.2807 122.703 42.3333 122.623C42.3859 122.543 42.41 122.448 42.402 122.352L36.84 47.2411C36.8342 47.2138 36.8193 47.1892 36.7977 47.1715C36.7761 47.1538 36.7491 47.1439 36.7212 47.1436C36.6933 47.1432 36.666 47.1524 36.644 47.1696C36.622 47.1868 36.6065 47.2109 36.6 47.2381Z" fill="#4057A2" stroke="#2E353A" stroke-linecap="round" stroke-linejoin="round"/>
<path opacity="0.6" d="M36.7081 46.2242L28.7641 117.132C28.7472 117.283 28.7747 117.436 28.8432 117.571C28.9117 117.707 29.0183 117.819 29.1498 117.895C29.2814 117.971 29.4322 118.007 29.5837 117.998C29.7353 117.989 29.8811 117.937 30.0031 117.846L34.0741 114.846C34.2859 114.69 34.5273 114.578 34.7837 114.518C35.0401 114.458 35.3061 114.451 35.5653 114.497C35.8245 114.543 36.0715 114.642 36.2913 114.787C36.511 114.933 36.6988 115.121 36.8431 115.341L41.6071 122.613C41.6588 122.694 41.7359 122.755 41.8264 122.787C41.9169 122.819 42.0154 122.819 42.1062 122.789C42.197 122.758 42.2749 122.698 42.3274 122.617C42.38 122.537 42.4042 122.442 42.3961 122.346L36.7651 46.2242C36.7632 46.2182 36.7593 46.213 36.7542 46.2093C36.7491 46.2056 36.743 46.2036 36.7366 46.2036C36.7303 46.2036 36.7242 46.2056 36.719 46.2093C36.7139 46.213 36.7101 46.2182 36.7081 46.2242Z" fill="black"/>
<path d="M35.259 114.462C35.5741 114.467 35.8832 114.55 36.1593 114.702C36.4353 114.854 36.67 115.071 36.843 115.335L41.607 122.607C41.6586 122.688 41.7358 122.749 41.8262 122.781C41.9167 122.812 42.0152 122.813 42.106 122.782C42.1968 122.752 42.2747 122.691 42.3273 122.611C42.3799 122.531 42.404 122.435 42.396 122.34L41.715 113.148L35.157 114.432C35.1918 114.439 35.226 114.449 35.259 114.462Z" fill="#4057A2" stroke="#2E353A" stroke-linecap="round" stroke-linejoin="round"/>
<path opacity="0.3" d="M35.259 114.462C35.5741 114.467 35.8832 114.55 36.1593 114.702C36.4353 114.854 36.67 115.071 36.843 115.335L41.607 122.607C41.6586 122.688 41.7358 122.749 41.8262 122.781C41.9167 122.812 42.0152 122.813 42.106 122.782C42.1968 122.752 42.2747 122.691 42.3273 122.611C42.3799 122.531 42.404 122.435 42.396 122.34L41.715 113.148L35.157 114.432C35.1918 114.439 35.226 114.449 35.259 114.462Z" fill="black"/>
<path d="M36.8311 45.3418L43.4521 126.942L120.657 112.23L102.513 48.5908L36.8311 45.3418Z" fill="#2E353A" stroke="#2E353A" stroke-linecap="round" stroke-linejoin="round"/>
<path d="M40.4102 47.103L44.9582 122.628L117.558 109.428L102.255 50.751L40.4102 47.103Z" fill="#4057A2" stroke="#2E353A" stroke-linecap="round" stroke-linejoin="round"/>
<path d="M44.8469 84.27L48.2999 120.069L114.264 108.075L108.135 81.168L44.8469 84.27Z" fill="white" stroke="#2E353A" stroke-linecap="round" stroke-linejoin="round"/>
<path d="M57.5791 118.287L56.4841 106.788" stroke="#2E353A" stroke-linecap="round" stroke-linejoin="round"/>
<path d="M67.6739 116.508L66.6179 106.923" stroke="#2E353A" stroke-linecap="round" stroke-linejoin="round"/>
<path d="M77.5711 114.591L76.3381 106.923" stroke="#2E353A" stroke-linecap="round" stroke-linejoin="round"/>
<path d="M87.768 112.842L86.301 103.701" stroke="#2E353A" stroke-linecap="round" stroke-linejoin="round"/>
<path d="M96.75 111.222L95.499 102.3" stroke="#2E353A" stroke-linecap="round" stroke-linejoin="round"/>
<path d="M105.363 109.629L103.5 98.9009" stroke="#2E353A" stroke-linecap="round" stroke-linejoin="round"/>
<path d="M125.604 85.647C125.604 85.647 124.686 86.571 124.626 87.051C124.566 87.531 125.046 88.977 125.046 88.977L126.492 89.217L127.128 86.703L125.604 85.647Z" fill="white" stroke="#2E353A" stroke-linecap="round" stroke-linejoin="round"/>
<g style="mix-blend-mode:multiply" opacity="0.49">
<path d="M40.7761 67.9683C40.7761 67.9683 42.3001 89.9013 43.7011 97.8993C45.1021 105.897 47.7001 117.867 47.7001 117.867C47.7001 117.867 92.7001 110.901 114.9 101.499L113.1 92.9013L40.7761 67.9683Z" fill="#4057A2"/>
</g>
<path d="M38.7419 46.2812L101.943 49.6862C101.943 49.6862 108.096 68.1212 114.219 78.5312C120.342 88.9412 130.44 88.2632 130.44 88.2632C130.44 88.2632 107.28 100.926 89.2409 107.667C70.4669 114.678 54.1859 115.938 54.1859 115.938C54.1859 115.938 39.3569 95.6823 38.7419 46.2812Z" fill="#4057A2" stroke="#2E353A" stroke-linecap="round" stroke-linejoin="round"/>
<path d="M45.978 42.999C44.805 42.999 43.956 44.04 43.689 45.672L44.889 45.738C45.075 44.796 45.444 44.199 45.975 44.199C46.593 44.199 47.28 45.192 47.28 46.62C47.28 48.048 46.593 49.044 45.975 49.044C45.8158 49.044 45.6632 49.1072 45.5507 49.2198C45.4382 49.3323 45.375 49.4849 45.375 49.644C45.375 49.8032 45.4382 49.9558 45.5507 50.0683C45.6632 50.1808 45.8158 50.244 45.975 50.244C47.379 50.244 48.48 48.651 48.48 46.62C48.48 44.589 47.382 42.999 45.978 42.999Z" fill="white" stroke="#2E353A" stroke-miterlimit="10"/>
<path d="M47.7 47.5918C47.6426 47.8034 47.5683 48.01 47.478 48.2098" stroke="#2E353A" stroke-width="0.75" stroke-linecap="round" stroke-linejoin="round"/>
<path d="M44.283 45.1319C44.283 45.1319 44.733 43.5059 46.062 43.5959C47.106 43.6679 47.967 45.2189 47.823 46.8779" stroke="#2E353A" stroke-width="0.75" stroke-linecap="round" stroke-linejoin="round"/>
<path d="M56.4001 43.5239C55.2271 43.5239 54.3781 44.5649 54.1111 46.1969L55.3111 46.2629C55.4971 45.3209 55.8661 44.7239 56.3971 44.7239C57.0151 44.7239 57.7021 45.7169 57.7021 47.1449C57.7021 48.5729 57.0151 49.5689 56.3971 49.5689C56.238 49.5689 56.0853 49.6321 55.9728 49.7447C55.8603 49.8572 55.7971 50.0098 55.7971 50.1689C55.7971 50.3281 55.8603 50.4807 55.9728 50.5932C56.0853 50.7057 56.238 50.7689 56.3971 50.7689C57.8011 50.7689 58.9021 49.1759 58.9021 47.1449C58.9021 45.1139 57.8071 43.5239 56.4001 43.5239Z" fill="white" stroke="#2E353A" stroke-miterlimit="10"/>
<path d="M58.1251 48.1172C58.0676 48.3288 57.9934 48.5354 57.9031 48.7352" stroke="#2E353A" stroke-width="0.75" stroke-linecap="round" stroke-linejoin="round"/>
<path d="M54.708 45.6568C54.708 45.6568 55.158 44.0308 56.487 44.1208C57.531 44.1928 58.392 45.7438 58.248 47.4028" stroke="#2E353A" stroke-width="0.75" stroke-linecap="round" stroke-linejoin="round"/>
<path d="M66.8281 44.0488C65.6551 44.0488 64.8061 45.0898 64.5391 46.7218L65.7391 46.7878C65.9251 45.8458 66.2941 45.2488 66.8251 45.2488C67.4431 45.2488 68.1301 46.2418 68.1301 47.6698C68.1301 49.0978 67.4431 50.0938 66.8251 50.0938C66.6659 50.0938 66.5133 50.157 66.4008 50.2696C66.2883 50.3821 66.2251 50.5347 66.2251 50.6938C66.2251 50.853 66.2883 51.0056 66.4008 51.1181C66.5133 51.2306 66.6659 51.2938 66.8251 51.2938C68.2291 51.2938 69.3301 49.7008 69.3301 47.6698C69.3301 45.6388 68.2321 44.0488 66.8281 44.0488Z" fill="white" stroke="#2E353A" stroke-miterlimit="10"/>
<path d="M68.5501 48.6421C68.4927 48.8537 68.4184 49.0603 68.3281 49.2601" stroke="#2E353A" stroke-width="0.75" stroke-linecap="round" stroke-linejoin="round"/>
<path d="M65.1331 46.1822C65.1331 46.1822 65.5831 44.5562 66.9121 44.6462C67.9561 44.7182 68.8171 46.2692 68.6731 47.9282" stroke="#2E353A" stroke-width="0.75" stroke-linecap="round" stroke-linejoin="round"/>
<path d="M77.2531 44.5742C76.0801 44.5742 75.2311 45.6152 74.9641 47.2472L76.1641 47.3132C76.3501 46.3712 76.7191 45.7742 77.2501 45.7742C77.8681 45.7742 78.5551 46.7672 78.5551 48.1952C78.5551 49.6232 77.8681 50.6192 77.2501 50.6192C77.091 50.6192 76.9384 50.6824 76.8258 50.795C76.7133 50.9075 76.6501 51.0601 76.6501 51.2192C76.6501 51.3783 76.7133 51.531 76.8258 51.6435C76.9384 51.756 77.091 51.8192 77.2501 51.8192C78.6541 51.8192 79.7551 50.2262 79.7551 48.1952C79.7551 46.1642 78.6571 44.5742 77.2531 44.5742Z" fill="white" stroke="#2E353A" stroke-miterlimit="10"/>
<path d="M78.9749 49.167C78.9175 49.3786 78.8432 49.5852 78.7529 49.785" stroke="#2E353A" stroke-width="0.75" stroke-linecap="round" stroke-linejoin="round"/>
<path d="M75.5581 46.7071C75.5581 46.7071 76.0081 45.0811 77.3371 45.1711C78.3811 45.2431 79.2421 46.7941 79.0981 48.4531" stroke="#2E353A" stroke-width="0.75" stroke-linecap="round" stroke-linejoin="round"/>
<path d="M87.8671 45.0391C86.6941 45.0391 85.8451 46.0801 85.5811 47.7151L86.7811 47.7811C86.9701 46.8391 87.3391 46.2391 87.8671 46.2391C88.4851 46.2391 89.1751 47.2351 89.1751 48.6631C89.1751 50.0911 88.4851 51.0841 87.8671 51.0841C87.7079 51.0841 87.5553 51.1473 87.4428 51.2598C87.3303 51.3723 87.2671 51.5249 87.2671 51.6841C87.2671 51.8432 87.3303 51.9958 87.4428 52.1083C87.5553 52.2208 87.7079 52.2841 87.8671 52.2841C89.2741 52.2841 90.3751 50.6941 90.3751 48.6631C90.3751 46.6321 89.2741 45.0391 87.8671 45.0391Z" fill="white" stroke="#2E353A" stroke-miterlimit="10"/>
<path d="M89.5889 49.6353C89.532 49.846 89.4577 50.0517 89.3669 50.2503" stroke="#2E353A" stroke-width="0.75" stroke-linecap="round" stroke-linejoin="round"/>
<path d="M86.1721 47.1749C86.1721 47.1749 86.6251 45.5459 87.9511 45.6359C88.9981 45.7079 89.8561 47.2619 89.7151 48.9209" stroke="#2E353A" stroke-width="0.75" stroke-linecap="round" stroke-linejoin="round"/>
<path d="M98.0641 45.6001C96.8911 45.6001 96.0421 46.6411 95.7781 48.2731L96.9781 48.3421C97.1671 47.4001 97.5361 46.8001 98.0641 46.8001C98.6821 46.8001 99.3721 47.7961 99.3721 49.2211C99.3721 50.6461 98.6821 51.6451 98.0641 51.6451C97.9049 51.6451 97.7523 51.7083 97.6398 51.8208C97.5273 51.9334 97.4641 52.086 97.4641 52.2451C97.4641 52.4042 97.5273 52.5568 97.6398 52.6694C97.7523 52.7819 97.9049 52.8451 98.0641 52.8451C99.4711 52.8451 100.572 51.2521 100.572 49.2211C100.572 47.1901 99.4711 45.6001 98.0641 45.6001Z" fill="white" stroke="#2E353A" stroke-miterlimit="10"/>
<path d="M99.786 50.1782C99.7295 50.3901 99.6552 50.5968 99.564 50.7962" stroke="#2E353A" stroke-width="0.75" stroke-linecap="round" stroke-linejoin="round"/>
<path d="M96.3691 47.7208C96.3691 47.7208 96.8221 46.0918 98.1481 46.1818C99.1951 46.2538 100.053 47.8048 99.9121 49.4638" stroke="#2E353A" stroke-width="0.75" stroke-linecap="round" stroke-linejoin="round"/>
<path d="M127.128 86.7001C127.128 86.7001 127.728 87.5221 127.728 87.8731C127.728 88.2241 126.906 88.8121 126.906 89.6311C126.906 90.4501 125.85 90.2311 125.733 89.6311C125.616 89.0311 125.967 88.2241 125.967 88.2241C125.967 88.2241 125.478 87.9241 125.367 86.8681C125.256 85.8121 126.207 86.1121 126.207 86.1121L127.128 86.7001Z" fill="white" stroke="#2E353A" stroke-linecap="round" stroke-linejoin="round"/>
<path d="M112.128 78.5792C107.781 71.1872 103.215 59.5142 101.592 55.2182L45.1109 52.9292C45.0749 94.6742 57.7109 111.921 57.7109 111.921C57.7109 111.921 72.0959 110.808 88.6859 104.61C104.628 98.6552 123.642 88.6592 123.642 88.6592C123.642 88.6592 117.537 87.7802 112.128 78.5792Z" fill="white" stroke="#2E353A" stroke-linecap="round" stroke-linejoin="round"/>
<path d="M101.592 55.2182L45.1111 52.9292C45.1111 57.0362 45.2281 60.9002 45.4441 64.5392L105.09 63.9812C103.545 60.3002 102.3 57.0752 101.592 55.2182Z" fill="#2E353A" stroke="#2E353A" stroke-linecap="round" stroke-linejoin="round"/>
<path d="M102.591 67.6618L105.261 67.5688" stroke="#2E353A" stroke-width="3" stroke-linecap="round" stroke-linejoin="round"/>
<path d="M94.7429 67.929L100.59 67.728" stroke="#2E353A" stroke-width="3" stroke-linecap="round" stroke-linejoin="round"/>
<path d="M85.2419 68.2501L92.7569 67.9951" stroke="#2E353A" stroke-width="3" stroke-linecap="round" stroke-linejoin="round"/>
<path d="M75.5759 68.5771L83.5829 68.3071" stroke="#2E353A" stroke-width="3" stroke-linecap="round" stroke-linejoin="round"/>
<path d="M66.231 68.895L73.572 68.646" stroke="#2E353A" stroke-width="3" stroke-linecap="round" stroke-linejoin="round"/>
<path d="M56.385 69.231L63.732 68.979" stroke="#2E353A" stroke-width="3" stroke-linecap="round" stroke-linejoin="round"/>
<path d="M47.718 69.525L54.555 69.291" stroke="#2E353A" stroke-width="3" stroke-linecap="round" stroke-linejoin="round"/>
<path d="M46.605 75.9598L108.744 72.1738" stroke="#2E353A" stroke-linecap="round" stroke-linejoin="round"/>
<path d="M56.4241 75.4258C56.4241 75.4258 57.4441 91.9498 68.3371 110.292" stroke="#2E353A" stroke-linecap="round" stroke-linejoin="round"/>
<path d="M66.45 74.7632C66.45 74.7632 67.599 93.6632 79.542 107.502" stroke="#2E353A" stroke-linecap="round" stroke-linejoin="round"/>
<path d="M75.5281 74.2051C75.5281 74.2051 76.1281 91.6051 89.5531 104.109" stroke="#2E353A" stroke-linecap="round" stroke-linejoin="round"/>
<path d="M84.939 73.7998C84.939 73.7998 86.421 93.1438 99.414 99.9568" stroke="#2E353A" stroke-linecap="round" stroke-linejoin="round"/>
<path d="M94.8 73.0229C94.8 73.0229 95.844 87.654 109.134 95.667" stroke="#2E353A" stroke-linecap="round" stroke-linejoin="round"/>
<path d="M102.564 72.5488C102.564 72.5488 106.14 87.5488 116.145 92.4058" stroke="#2E353A" stroke-linecap="round" stroke-linejoin="round"/>
<path d="M47.967 84.4829L111.435 77.502" stroke="#2E353A" stroke-linecap="round" stroke-linejoin="round"/>
<path d="M49.623 91.95C49.623 91.95 63.174 91.419 114.387 81.981" stroke="#2E353A" stroke-linecap="round" stroke-linejoin="round"/>
<path d="M52.0142 99.8552C52.0142 99.8552 65.2142 101.355 116.928 84.8882" stroke="#2E353A" stroke-linecap="round" stroke-linejoin="round"/>
<path d="M54.8701 106.752C54.8701 106.752 65.8741 110.397 119.928 87.252" stroke="#2E353A" stroke-linecap="round" stroke-linejoin="round"/>
<path d="M69.507 61.0951L49.161 60.8221C48.9962 60.8196 48.8378 60.7574 48.7154 60.6471C48.5929 60.5368 48.5146 60.3857 48.495 60.2221L48.321 58.5781C48.3108 58.4834 48.3208 58.3877 48.3504 58.2973C48.3799 58.2068 48.4283 58.1237 48.4924 58.0533C48.5565 57.983 48.6348 57.9271 48.7222 57.8893C48.8095 57.8515 48.9039 57.8327 48.999 57.8341L69.099 58.1821C69.2476 58.1847 69.3911 58.236 69.5077 58.3281C69.6242 58.4203 69.7072 58.5481 69.744 58.6921L70.152 60.2551C70.1775 60.3539 70.1802 60.4573 70.1598 60.5573C70.1394 60.6573 70.0965 60.7514 70.0344 60.8323C69.9722 60.9133 69.8924 60.9791 69.801 61.0246C69.7096 61.0701 69.6091 61.0942 69.507 61.0951Z" fill="white"/>
</svg>
