<svg width="39" height="39" viewBox="0 0 39 39" fill="none" xmlns="http://www.w3.org/2000/svg">
<path fill-rule="evenodd" clip-rule="evenodd" d="M14.4755 10.0036L14.447 10.0017C13.1302 9.94046 11.2719 11.5238 10.5853 12.6691C9.83186 13.6981 9.81737 15.0647 10.4753 16.6455L10.579 16.8842C12.3127 21.1537 18.818 27.6509 23.0709 29.4297C24.6981 30.191 26.1483 30.2049 27.291 29.3821C28.2956 28.8078 29.9431 26.8968 29.8955 25.5396C29.8503 24.9812 29.5907 24.5254 29.1875 24.1104L29.0891 24.0127L28.8152 23.7594C27.8234 22.8725 26.1062 21.6098 25.5751 21.4982C24.9515 21.3682 24.5286 21.4846 23.8616 21.8523L23.6132 21.9936C23.1389 22.2671 22.9693 22.3139 22.7446 22.2319C20.3717 21.2578 18.6985 19.5761 17.7179 17.1639C17.6542 16.9852 17.6857 16.8291 17.8919 16.4507L18.0006 16.2577C18.4502 15.4726 18.6009 15.0287 18.4593 14.3452L18.4343 14.2566C18.202 13.5804 16.7784 11.6725 15.988 10.842L15.8607 10.7131C15.4487 10.3086 14.9957 10.0484 14.4755 10.0036ZM14.365 11.464L14.4192 11.4744C14.5141 11.5012 14.626 11.5669 14.752 11.6752L14.8438 11.7591L15.0171 11.9415C15.6891 12.6835 16.9911 14.4334 17.0342 14.6426C17.0749 14.8391 17.0299 15.0032 16.8166 15.3901L16.7051 15.5874C16.2355 16.4097 16.0901 16.9399 16.36 17.6897C17.4991 20.4936 19.4597 22.464 22.2214 23.5971C22.9336 23.8575 23.4386 23.7534 24.1539 23.3657L24.399 23.2273C24.8844 22.9466 25.0621 22.8857 25.2784 22.9308C25.4898 22.9752 27.3814 24.3949 28.0749 25.0621L28.1559 25.1426C28.3347 25.3268 28.4325 25.4985 28.443 25.6259C28.4526 25.9236 28.1545 26.483 27.6281 27.0935C27.2534 27.5281 26.7668 27.9725 26.5559 28.1198L26.5055 28.1524C25.8239 28.6389 24.9821 28.6598 23.8691 28.1855L23.6572 28.0908C19.8121 26.4818 13.7651 20.488 12.0186 16.5481L11.9151 16.3046C11.3739 15.1076 11.329 14.2325 11.7176 13.5958L11.7955 13.4792C12.2459 12.7335 13.6032 11.5589 14.2789 11.4685L14.365 11.464ZM22.4217 10.2437L22.5206 10.248C26.4503 10.6867 29.5537 13.803 29.9954 17.7534C30.0403 18.155 29.7529 18.5171 29.3535 18.5622C28.9541 18.6074 28.5939 18.3184 28.549 17.9169C28.1833 14.6459 25.6138 12.0656 22.36 11.7024C21.9605 11.6578 21.6726 11.2961 21.717 10.8945C21.7539 10.5598 22.0099 10.3031 22.3254 10.2526L22.4217 10.2437ZM22.4813 13.701L22.5795 13.7134C24.5878 14.107 26.1572 15.6848 26.5487 17.704C26.6256 18.1006 26.3681 18.4848 25.9736 18.5621C25.5791 18.6394 25.197 18.3805 25.1201 17.9839C24.8421 16.5497 23.7276 15.4292 22.301 15.1497C21.9065 15.0724 21.6491 14.6882 21.726 14.2916C21.7901 13.961 22.0661 13.7262 22.3846 13.7018L22.4813 13.701Z" fill="#3D84D6"/>
<circle cx="19.5" cy="19.5" r="18.5" stroke="#3D84D6" stroke-linecap="round" stroke-dasharray="2 5"/>
</svg>
