<svg width="12" height="12" viewBox="0 0 12 12" fill="none" xmlns="http://www.w3.org/2000/svg">
    <path opacity=".5" d="m7.278 7.774-.228.24s-.54.57-2.018-.986c-1.478-1.556-.937-2.125-.937-2.125l.144-.151c.353-.372.386-.97.078-1.405l-.63-.892c-.382-.54-1.119-.611-1.556-.15l-.785.826c-.217.228-.362.524-.345.852.046.84.404 2.647 2.407 4.755 2.123 2.235 4.115 2.324 4.93 2.244.258-.026.482-.165.663-.355l.71-.748c.48-.505.344-1.37-.27-1.723l-.955-.55a.977.977 0 0 0-1.208.168z" fill="#41A592"/>
    <path fill-rule="evenodd" clip-rule="evenodd" d="M11 3.5a2.5 2.5 0 0 1-3.613 2.24.408.408 0 0 0-.287-.034l-.557.149a.325.325 0 0 1-.398-.398l.15-.557a.408.408 0 0 0-.034-.287A2.5 2.5 0 1 1 11 3.5zM8.5 2.406c.259 0 .469.21.469.469v.156h.156a.469.469 0 0 1 0 .938h-.156v.156a.469.469 0 0 1-.938 0v-.156h-.156a.469.469 0 0 1 0-.938h.156v-.156c0-.259.21-.469.469-.469z" fill="#41A592"/>
</svg>
