<svg width="150" height="150" viewBox="0 0 150 150" fill="none" xmlns="http://www.w3.org/2000/svg">
<path d="M25.2 120L22.011 117.804C22.011 117.804 20.169 120.483 17.355 118.617C16.8062 118.267 16.38 117.755 16.1354 117.152C15.8908 116.548 15.84 115.884 15.99 115.251C16.109 114.717 16.3525 114.219 16.7008 113.797C17.0491 113.375 17.4922 113.042 17.994 112.824C19.146 112.305 20.889 112.311 22.779 114.168L27.723 106.968L24.57 104.799L21.675 108.999C21.675 108.999 16.467 107.1 13.113 111.972C9.90601 116.634 13.341 120.594 15.132 121.824C16.5 122.787 21.375 125.664 25.2 120Z" fill="#EBEBEB"/>
<path d="M25.5365 103.303L28.7346 105.503L30.7905 102.515L27.5924 100.315L25.5365 103.303Z" fill="#EBEBEB"/>
<path d="M38.7781 128.817L40.4701 128.37C40.4198 128.177 40.4084 127.977 40.4363 127.78C40.4643 127.583 40.5312 127.394 40.6331 127.223C40.735 127.052 40.8699 126.903 41.0299 126.785C41.1899 126.666 41.3718 126.581 41.5651 126.534C41.8469 126.448 42.1486 126.453 42.4277 126.547C42.7069 126.641 42.9497 126.82 43.1221 127.059C43.2703 127.257 43.3695 127.487 43.4118 127.73C43.454 127.974 43.438 128.224 43.3651 128.46C43.2031 129.009 42.6871 129.606 41.4931 129.705L42.4981 133.524L44.1721 133.083L43.5721 130.845C44.205 130.461 44.6945 129.88 44.9655 129.192C45.2365 128.503 45.2739 127.744 45.0721 127.032C44.4181 124.557 42.0451 124.566 41.0971 124.818C40.3861 125.01 37.9591 125.838 38.7781 128.817Z" fill="#EBEBEB"/>
<path d="M44.4081 133.858L42.7083 134.307L43.1269 135.893L44.8267 135.445L44.4081 133.858Z" fill="#EBEBEB"/>
<path d="M66.8999 21.9209C67.7558 21.3994 68.6781 20.9958 69.6419 20.7209L70.2059 18.0209L74.7929 17.9399L75.4529 20.6399C76.4259 20.8783 77.3623 21.2466 78.2369 21.7349L80.5559 20.2139L83.8559 23.3999L82.4189 25.7699C82.9386 26.6278 83.3421 27.5509 83.6189 28.5149L86.3339 29.0789L86.4119 33.6659L83.7119 34.3259C83.4723 35.2985 83.104 36.2347 82.6169 37.1099L84.1349 39.4289L80.9489 42.7289L78.5789 41.2919C77.722 41.8135 76.7987 42.2171 75.8339 42.4919L75.2699 45.2099L70.6829 45.2879L70.0229 42.5879C69.0495 42.351 68.1129 41.9826 67.2389 41.4929L64.9199 43.0139L61.6199 39.8279L63.0569 37.4579C62.5354 36.601 62.1318 35.6777 61.8569 34.7129L59.1569 34.1489L59.0759 29.5619L61.7759 28.9019C62.0099 27.9232 62.3752 26.9807 62.8619 26.0999L61.3409 23.7809L64.5269 20.4809L66.8999 21.9209ZM69.3449 28.0319C68.6701 28.733 68.2183 29.6184 68.0466 30.5762C67.8749 31.534 67.9911 32.5212 68.3805 33.4129C68.7699 34.3047 69.415 35.0609 70.2342 35.5861C71.0533 36.1112 72.0099 36.3817 72.9828 36.3632C73.9556 36.3448 74.9012 36.0382 75.6999 35.4824C76.4986 34.9265 77.1145 34.1463 77.4698 33.2405C77.825 32.3346 77.9037 31.3437 77.6958 30.3931C77.488 29.4425 77.0029 28.5749 76.3019 27.8999C75.3615 26.9956 74.1006 26.5015 72.7961 26.5262C71.4916 26.551 70.2503 27.0926 69.3449 28.0319Z" fill="#F5F5F5"/>
<path d="M47.7 12.357C48.1944 12.0601 48.726 11.8301 49.281 11.673L49.605 10.107L52.248 10.062L52.629 11.613C53.1889 11.7499 53.7278 11.9618 54.231 12.243L55.566 11.367L57.456 13.2L56.628 14.565C56.9265 15.059 57.1576 15.5907 57.315 16.146L58.878 16.47L58.923 19.113L57.372 19.5C57.2356 20.0601 57.0236 20.599 56.742 21.102L57.618 22.437L55.782 24.339L54.417 23.511C53.923 23.8096 53.3913 24.0406 52.836 24.198L52.5 25.758L49.857 25.806L49.5 24.255C48.9403 24.1157 48.4017 23.9028 47.898 23.622L46.563 24.498L44.661 22.662L45.477 21.3C45.1779 20.8074 44.9468 20.2766 44.79 19.722L43.227 19.395L43.179 16.752L44.733 16.374C44.8693 15.813 45.0813 15.273 45.363 14.769L44.487 13.434L46.323 11.535L47.7 12.357ZM49.107 15.879C48.7155 16.2817 48.4524 16.7917 48.3512 17.3441C48.2499 17.8966 48.3151 18.4666 48.5383 18.982C48.7616 19.4974 49.1329 19.9348 49.6051 20.2389C50.0774 20.5429 50.6293 20.6998 51.1908 20.6897C51.7524 20.6795 52.2983 20.5028 52.7593 20.182C53.2203 19.8611 53.5756 19.4106 53.7801 18.8875C53.9846 18.3644 54.0292 17.7924 53.9081 17.2439C53.787 16.6955 53.5057 16.1954 53.1 15.807C52.559 15.2861 51.8334 15.0011 51.0826 15.0146C50.3317 15.0281 49.6168 15.339 49.095 15.879H49.107Z" fill="#EBEBEB"/>
<path d="M132.021 61.4132C132.514 61.1153 133.045 60.8843 133.599 60.7262L133.926 59.1632L136.566 59.1182L136.947 60.6692C137.508 60.8055 138.048 61.0175 138.552 61.2992L139.887 60.4232L141.786 62.2592L140.958 63.6242C141.257 64.1181 141.488 64.6499 141.645 65.2052L143.211 65.5292L143.256 68.1722L141.705 68.5532C141.565 69.1122 141.354 69.6508 141.075 70.1552L141.948 71.4902L140.115 73.3922L138.75 72.5642C138.256 72.8627 137.724 73.0938 137.169 73.2512L136.842 74.8142L134.202 74.8622L133.821 73.3082C133.261 73.1718 132.722 72.9598 132.219 72.6782L130.881 73.5542L128.982 71.7182L129.81 70.3532C129.511 69.8595 129.28 69.3277 129.123 68.7722L127.56 68.4482L127.512 65.8052L129.063 65.4242C129.203 64.8651 129.414 64.3266 129.693 63.8222L128.82 62.4872L130.653 60.5852L132.021 61.4132ZM133.428 64.9322C133.038 65.3354 132.777 65.8451 132.677 66.3969C132.577 66.9486 132.643 67.5177 132.866 68.032C133.09 68.5463 133.461 68.9828 133.932 69.2863C134.404 69.5898 134.955 69.7466 135.515 69.7369C136.076 69.7273 136.621 69.5516 137.082 69.232C137.543 68.9125 137.898 68.4635 138.104 67.9418C138.31 67.4201 138.356 66.8491 138.237 66.3011C138.118 65.7531 137.839 65.2527 137.436 64.8632C136.895 64.3417 136.169 64.0561 135.418 64.069C134.666 64.082 133.951 64.3924 133.428 64.9322Z" fill="#EBEBEB"/>
<path d="M139.134 139.593C139.134 139.638 110.685 139.671 75.6029 139.671C40.5209 139.671 12.0659 139.638 12.0659 139.593C12.0659 139.548 40.5059 139.515 75.6029 139.515C110.7 139.515 139.134 139.551 139.134 139.593Z" fill="#263238"/>
<path d="M125.298 139.374L82.6981 139.35C80.2374 139.348 77.878 138.37 76.1386 136.629C74.3992 134.888 73.4221 132.528 73.4221 130.068L73.4431 23.2678C73.4487 20.8049 74.431 18.4448 76.1744 16.7052C77.9179 14.9657 80.2802 13.9888 82.7431 13.9888L125.343 14.0158C127.804 14.0174 130.163 14.996 131.903 16.7365C133.642 18.4771 134.619 20.8371 134.619 23.2978L134.598 130.098C134.598 131.318 134.357 132.526 133.89 133.653C133.422 134.78 132.737 135.804 131.873 136.665C131.009 137.527 129.983 138.21 128.855 138.675C127.727 139.139 126.518 139.377 125.298 139.374Z" fill="#455A64"/>
<path d="M125.283 17.7808H117.024C116.479 17.7934 115.962 18.0216 115.586 18.4154C115.21 18.8091 115.005 19.3362 115.017 19.8808V21.3808C115.029 21.9253 114.824 22.4524 114.448 22.8461C114.072 23.2399 113.555 23.4682 113.01 23.4808H96.909C96.365 23.4674 95.8485 23.2388 95.4728 22.8451C95.0971 22.4514 94.8929 21.9248 94.905 21.3808V19.8808C94.9171 19.3362 94.7125 18.8091 94.3361 18.4154C93.9598 18.0216 93.4426 17.7934 92.898 17.7808H82.764C81.0437 17.7792 79.393 18.4598 78.1738 19.6734C76.9546 20.887 76.2664 22.5345 76.26 24.2548L76.239 128.511C76.2422 130.232 76.9281 131.882 78.1463 133.099C79.3645 134.315 81.0154 134.999 82.737 135L125.256 135.024C126.11 135.024 126.955 134.856 127.744 134.53C128.533 134.204 129.25 133.725 129.854 133.122C130.458 132.518 130.937 131.802 131.264 131.013C131.591 130.225 131.76 129.379 131.76 128.526L131.778 24.2698C131.776 22.5485 131.09 20.8984 129.873 19.6819C128.655 18.4653 127.004 17.7816 125.283 17.7808Z" fill="white"/>
<path d="M131.775 39.6928V24.1618C131.744 22.4598 131.047 20.8378 129.833 19.6445C128.619 18.4513 126.985 17.7821 125.283 17.7808H117.024C116.754 17.7866 116.488 17.8456 116.241 17.9543C115.994 18.0631 115.771 18.2195 115.585 18.4145C115.399 18.6096 115.252 18.8395 115.155 19.0911C115.058 19.3427 115.011 19.611 115.017 19.8808V21.3808C115.029 21.9253 114.824 22.4524 114.448 22.8461C114.072 23.2399 113.555 23.4682 113.01 23.4808H96.909C96.365 23.4674 95.8485 23.2388 95.4728 22.8451C95.0971 22.4514 94.8929 21.9248 94.905 21.3808V19.8808C94.9171 19.3362 94.7125 18.8091 94.3361 18.4154C93.9598 18.0216 93.4425 17.7934 92.898 17.7808H82.764C81.0437 17.7792 79.393 18.4598 78.1738 19.6734C76.9546 20.887 76.2664 22.5345 76.26 24.2548V39.7408H131.775V39.6928Z" fill="#EBEBEB"/>
<path d="M87.582 60.7586C91.2983 60.7586 94.311 57.7526 94.311 54.0446C94.311 50.3365 91.2983 47.3306 87.582 47.3306C83.8657 47.3306 80.853 50.3365 80.853 54.0446C80.853 57.7526 83.8657 60.7586 87.582 60.7586Z" fill="#E0E0E0"/>
<path d="M84.4382 55.7247L86.2022 55.5747L90.5042 56.3007L91.0112 59.5377L90.9392 59.9157C89.9701 60.4627 88.8811 60.7622 87.7686 60.7878C86.6562 60.8135 85.5545 60.5644 84.5612 60.0627L84.4382 55.7247Z" fill="#455A64"/>
<path d="M89.583 56.2497C90.0096 56.1874 90.4451 56.2463 90.8398 56.4198C91.2345 56.5933 91.5725 56.8743 91.815 57.2307C92.1065 57.6378 92.374 58.0615 92.616 58.4997C91.914 59.2617 91.344 59.8407 90.372 60.1797L89.583 56.2497Z" fill="#455A64"/>
<path d="M84.438 55.7249C84.438 55.7249 83.274 55.8689 82.824 56.8619C82.374 57.8549 82.269 58.1639 82.269 58.1639C82.869 58.8899 83.637 59.7479 84.576 60.0689C84.576 60.0689 84.789 57.5669 84.816 56.8619C84.849 56.0999 84.879 55.7039 84.438 55.7249Z" fill="#455A64"/>
<path d="M85.5002 49.3646C85.7934 48.989 86.1672 48.6841 86.594 48.4722C87.0208 48.2604 87.4898 48.1471 87.9662 48.1406C88.3759 48.1406 88.7823 48.2137 89.1662 48.3566C89.5704 48.4523 89.9276 48.6883 90.1742 49.0226C90.4801 49.4157 90.6804 49.8804 90.7562 50.3726C90.8266 50.8764 90.8507 51.3855 90.8282 51.8936C90.8036 52.4054 90.6386 52.9005 90.3512 53.3246L89.0582 53.5466C88.3453 53.6035 87.628 53.5652 86.9252 53.4326C86.2147 53.2962 85.587 52.8842 85.1792 52.2866C84.6602 51.4436 84.8762 50.1326 85.5002 49.3646Z" fill="#263238"/>
<path d="M84.2522 53.0999C84.2654 52.9536 84.3117 52.8122 84.3876 52.6864C84.4634 52.5606 84.5669 52.4538 84.6902 52.3739C84.8163 52.298 84.9633 52.2642 85.1099 52.2771C85.2565 52.29 85.3953 52.3491 85.5062 52.4459L85.7102 52.6859C85.8676 52.7586 85.9984 52.8786 86.0844 53.0292C86.1705 53.1797 86.2074 53.3533 86.1902 53.5259C86.1678 53.6986 86.0958 53.8611 85.9829 53.9936C85.87 54.1262 85.7211 54.2232 85.5542 54.2729C85.3873 54.3202 85.2111 54.3238 85.0425 54.2834C84.8738 54.2429 84.7184 54.1597 84.5912 54.0419C84.4664 53.9213 84.3709 53.7736 84.3121 53.6103C84.2533 53.447 84.2328 53.2724 84.2522 53.0999Z" fill="#263238"/>
<path d="M84.5071 53.9818C84.4585 53.9059 84.4345 53.8169 84.4381 53.7268C84.4813 53.5085 84.5852 53.3067 84.7381 53.1448C84.8829 52.9748 85.0591 52.8343 85.2571 52.7308C85.4071 52.6498 85.5121 52.6198 85.5091 52.6108C85.4133 52.6178 85.3202 52.6455 85.2361 52.6918C85.0246 52.7859 84.8377 52.9276 84.6901 53.1058C84.6073 53.1962 84.5367 53.2971 84.4801 53.4058C84.4309 53.4987 84.4023 53.601 84.3961 53.7058C84.3947 53.778 84.4145 53.8489 84.4531 53.9098C84.4801 53.9698 84.5071 53.9998 84.5071 53.9818Z" fill="#455A64"/>
<path d="M89.0461 56.0187V54.8187C89.0461 54.8187 90.0991 54.7017 90.3931 53.3517C90.5313 52.4587 90.5855 51.5548 90.5551 50.6517C90.5551 49.8327 89.8501 48.7167 88.8361 48.7137L88.3861 48.6597L86.6611 49.3437C86.5412 49.3503 86.4282 49.4012 86.3439 49.4866C86.2596 49.5721 86.2101 49.6858 86.2051 49.8057L86.1541 55.5687L86.9431 56.6757C87.0875 56.8712 87.2895 57.0166 87.5208 57.0914C87.7521 57.1663 88.001 57.1669 88.2326 57.0931C88.4642 57.0193 88.6669 56.8749 88.8123 56.68C88.9576 56.4852 89.0383 56.2497 89.0431 56.0067L89.0461 56.0187Z" fill="#FFBE9D"/>
<path d="M88.3592 53.04C88.3685 52.9706 88.4039 52.9073 88.4582 52.863C88.5075 52.8216 88.5689 52.7973 88.6332 52.7935C88.6975 52.7897 88.7613 52.8067 88.8152 52.842C88.8703 52.885 88.9132 52.9417 88.9395 53.0064C88.9658 53.0712 88.9747 53.1417 88.9652 53.211C88.9351 53.2527 88.8966 53.2876 88.8522 53.3135C88.8077 53.3393 88.7583 53.3555 88.7072 53.361H88.6592C88.6194 53.362 88.5798 53.3551 88.5427 53.3407C88.5057 53.3263 88.4718 53.3046 88.4432 53.277C88.4129 53.2459 88.3897 53.2086 88.3751 53.1677C88.3606 53.1268 88.3552 53.0832 88.3592 53.04Z" fill="#EB996E"/>
<path d="M89.9282 51.5997C89.9266 51.6453 89.9071 51.6885 89.874 51.7199C89.8409 51.7513 89.7968 51.7685 89.7512 51.7677C89.7287 51.7681 89.7064 51.764 89.6855 51.7558C89.6646 51.7476 89.6455 51.7353 89.6294 51.7197C89.6132 51.7041 89.6003 51.6855 89.5913 51.6649C89.5824 51.6443 89.5775 51.6221 89.5771 51.5997C89.5795 51.5538 89.5996 51.5106 89.6332 51.4792C89.6667 51.4479 89.7112 51.4308 89.7572 51.4317C89.7795 51.4313 89.8016 51.4353 89.8224 51.4436C89.8431 51.4518 89.862 51.4642 89.8779 51.4798C89.8938 51.4954 89.9064 51.5141 89.9151 51.5347C89.9237 51.5553 89.9282 51.5774 89.9282 51.5997Z" fill="#263238"/>
<path d="M90.2161 51.1676C90.1921 51.1886 90.0631 51.0836 89.8771 51.0746C89.6911 51.0656 89.5441 51.1526 89.5261 51.1286C89.5081 51.1046 89.5411 51.0776 89.6041 51.0356C89.6891 50.985 89.7873 50.9609 89.8861 50.9666C89.9839 50.9705 90.0777 51.0063 90.1531 51.0686C90.2071 51.1166 90.2251 51.1586 90.2161 51.1676Z" fill="#263238"/>
<path d="M89.0312 52.59C89.1296 52.5669 89.2302 52.5548 89.3312 52.554C89.3792 52.554 89.4272 52.554 89.4362 52.512C89.443 52.4627 89.4346 52.4125 89.4122 52.368L89.2892 51.996C89.1746 51.6786 89.0853 51.3525 89.0222 51.021C89.1625 51.3283 89.2778 51.6463 89.3672 51.972C89.4092 52.101 89.4452 52.227 89.4842 52.347C89.5095 52.4067 89.5148 52.473 89.4992 52.536C89.481 52.5682 89.4508 52.5919 89.4152 52.602C89.3883 52.6048 89.3611 52.6048 89.3342 52.602C89.2331 52.6117 89.1312 52.6077 89.0312 52.59Z" fill="#263238"/>
<path d="M89.04 54.8217C88.3959 54.7927 87.7726 54.585 87.24 54.2217C87.24 54.2217 87.675 55.1907 89.04 55.1397V54.8217Z" fill="#EB996E"/>
<path d="M88.4701 52.6915C88.5031 52.6915 88.4911 52.8955 88.6591 53.0485C88.8271 53.2015 89.0431 53.1925 89.0431 53.2195C89.0431 53.2465 88.9921 53.2585 88.9021 53.2555C88.7821 53.2501 88.6677 53.2035 88.5781 53.1235C88.4935 53.0456 88.442 52.9383 88.4341 52.8235C88.4311 52.7365 88.4581 52.6885 88.4701 52.6915Z" fill="#263238"/>
<path d="M90.1771 50.4597C90.1441 50.5047 90.0001 50.4597 89.8321 50.4597C89.6641 50.4597 89.5321 50.5017 89.4871 50.4597C89.4421 50.4177 89.4871 50.3937 89.5531 50.3517C89.6359 50.2997 89.7314 50.2716 89.8291 50.2707C89.9274 50.2681 90.0244 50.2942 90.1081 50.3457C90.1711 50.3997 90.1921 50.4387 90.1771 50.4597Z" fill="#263238"/>
<path d="M87.864 51.5998C87.8632 51.6458 87.8803 51.6902 87.9116 51.7238C87.943 51.7574 87.9862 51.7775 88.032 51.7798C88.0544 51.7819 88.0768 51.7794 88.0982 51.7727C88.1196 51.7659 88.1394 51.7549 88.1564 51.7404C88.1735 51.7258 88.1874 51.708 88.1975 51.688C88.2076 51.668 88.2135 51.6462 88.215 51.6238C88.2151 51.5784 88.1977 51.5347 88.1664 51.5017C88.1352 51.4688 88.0924 51.4491 88.047 51.4468C88.0249 51.4443 88.0025 51.4464 87.9811 51.4528C87.9598 51.4592 87.9399 51.4699 87.9228 51.4842C87.9057 51.4985 87.8917 51.5161 87.8816 51.536C87.8715 51.5559 87.8655 51.5776 87.864 51.5998Z" fill="#263238"/>
<path d="M87.636 51.1015C87.657 51.1255 87.792 51.0295 87.981 51.0325C88.17 51.0355 88.3051 51.1315 88.3261 51.1105C88.3471 51.0895 88.326 51.0595 88.254 51.0145C88.174 50.9559 88.0773 50.9243 87.9781 50.9245C87.8807 50.9215 87.785 50.9499 87.7051 51.0055C87.6451 51.0505 87.624 51.0895 87.636 51.1015Z" fill="#263238"/>
<path d="M87.5282 50.6998C87.5642 50.7448 87.7112 50.6998 87.8852 50.6998C88.0592 50.6998 88.2062 50.7358 88.2422 50.6998C88.2782 50.6638 88.2422 50.6338 88.1702 50.5918C88.0828 50.5406 87.9834 50.5137 87.8822 50.5137C87.7809 50.5137 87.6815 50.5406 87.5942 50.5918C87.5312 50.6338 87.5102 50.6758 87.5282 50.6998Z" fill="#263238"/>
<path d="M86.433 52.107C86.433 52.005 86.3371 51.759 86.2351 51.738C85.9711 51.681 85.4881 51.678 85.4461 52.356C85.3891 53.283 86.3461 53.148 86.3461 53.121C86.3461 53.094 86.415 52.455 86.433 52.107Z" fill="#FFBE9D"/>
<path d="M86.1002 52.7665C86.1002 52.7665 86.0852 52.7665 86.0552 52.7875C86.0363 52.7956 86.0159 52.7998 85.9952 52.7998C85.9746 52.7998 85.9542 52.7956 85.9352 52.7875C85.8771 52.7458 85.8312 52.6893 85.8022 52.624C85.7732 52.5586 85.7621 52.4866 85.7702 52.4155C85.7738 52.3361 85.7942 52.2584 85.8302 52.1875C85.841 52.1592 85.8583 52.1339 85.8807 52.1136C85.9031 52.0932 85.93 52.0785 85.9592 52.0705C85.9783 52.0664 85.9982 52.0693 86.0152 52.0787C86.0323 52.0881 86.0455 52.1033 86.0522 52.1215C86.0544 52.1365 86.0544 52.1516 86.0522 52.1665C86.0522 52.1665 86.0732 52.1665 86.0672 52.1155C86.0635 52.0923 86.0518 52.0711 86.0342 52.0555C86.0228 52.0444 86.0091 52.036 85.9941 52.0308C85.979 52.0256 85.963 52.0238 85.9472 52.0255C85.9089 52.0305 85.8724 52.0452 85.8414 52.0683C85.8104 52.0915 85.7859 52.1222 85.7702 52.1575C85.7258 52.2354 85.7011 52.3229 85.6982 52.4125C85.688 52.495 85.7026 52.5787 85.74 52.6529C85.7773 52.7271 85.8359 52.7886 85.9082 52.8295C85.9329 52.8378 85.959 52.8408 85.9848 52.8382C86.0107 52.8356 86.0357 52.8275 86.0582 52.8145C86.1002 52.7995 86.1002 52.7695 86.1002 52.7665Z" fill="#EB996E"/>
<path d="M86.1991 51.7407L86.4331 51.9837C87.4531 51.0117 89.4481 48.5727 89.3371 48.7167C88.8715 48.5449 88.3705 48.4913 87.8791 48.5607C87.1201 48.6897 85.6831 49.0677 85.7041 49.9587C85.7487 50.5798 85.917 51.1856 86.1991 51.7407Z" fill="#263238"/>
<path d="M84.8491 51.5369C84.8491 51.5369 84.8491 51.5159 84.8491 51.4829C84.8668 51.4325 84.8878 51.3834 84.9121 51.3359C85.0085 51.1639 85.1417 51.0154 85.3021 50.9009C85.5398 50.7314 85.8046 50.6036 86.0851 50.5229C86.3851 50.4239 86.7451 50.3459 87.0901 50.1989C87.6804 49.9496 88.2133 49.5821 88.6561 49.1189C88.7894 48.9781 88.9146 48.8299 89.0311 48.6749L89.1241 48.5459C89.1342 48.5304 89.1464 48.5163 89.1601 48.5039L89.1331 48.5519C89.1121 48.5819 89.0851 48.6299 89.0461 48.6869C88.9343 48.8468 88.812 48.9991 88.6801 49.1429C88.4829 49.3551 88.2659 49.5479 88.0321 49.7189C87.7461 49.9292 87.4358 50.1044 87.1081 50.2409C86.7774 50.3677 86.4399 50.4758 86.0971 50.5649C85.8207 50.642 85.5591 50.7647 85.3231 50.9279C85.164 51.0375 85.0301 51.1796 84.9301 51.3449C84.8984 51.4068 84.8713 51.471 84.8491 51.5369Z" fill="#455A64"/>
<path d="M85.1192 51.6809C85.1169 51.6122 85.1292 51.5437 85.1552 51.4799C85.2245 51.3023 85.3457 51.1496 85.5032 51.0419C85.7395 50.8911 86.0037 50.7891 86.2802 50.7419C86.6115 50.6787 86.9346 50.5781 87.2432 50.4419C87.5501 50.3024 87.8383 50.125 88.1012 49.9139C88.3192 49.7406 88.5201 49.5467 88.7012 49.3349C88.8203 49.1926 88.9296 49.0422 89.0282 48.8849C89.0612 48.8339 89.0882 48.7889 89.1062 48.7559C89.1155 48.7398 89.1265 48.7247 89.1392 48.7109C89.1328 48.7277 89.1247 48.7438 89.1152 48.7589L89.0432 48.8939C88.951 49.057 88.8446 49.2117 88.7252 49.3559C88.5479 49.5774 88.3467 49.7787 88.1252 49.9559C87.8598 50.1714 87.5686 50.3528 87.2582 50.4959C86.9458 50.6333 86.6187 50.7339 86.2832 50.7959C86.0115 50.8468 85.752 50.9486 85.5182 51.0959C85.3626 51.1973 85.2405 51.3424 85.1672 51.5129C85.1463 51.5674 85.1302 51.6236 85.1192 51.6809Z" fill="#455A64"/>
<path d="M84.5762 60.0626C84.5322 59.4714 84.5322 58.8778 84.5762 58.2866C84.6162 58.8779 84.6162 59.4713 84.5762 60.0626Z" fill="#263238"/>
<path d="M90.9421 59.9368C90.9342 59.8369 90.9342 59.7366 90.9421 59.6368C90.9601 59.3865 90.951 59.1351 90.9151 58.8868C90.8684 58.6389 90.796 58.3966 90.6991 58.1638C90.6536 58.0674 90.6175 57.967 90.5911 57.8638C90.6497 57.9513 90.699 58.0449 90.7381 58.1428C90.8492 58.3741 90.9289 58.6193 90.9751 58.8718C91.0108 59.1255 91.0108 59.383 90.9751 59.6368C90.9767 59.7378 90.9657 59.8386 90.9421 59.9368Z" fill="#263238"/>
<path d="M123.324 62.5708H100.389C99.8427 62.57 99.3189 62.3526 98.9326 61.9663C98.5463 61.5799 98.3289 61.0562 98.3281 60.5098V50.8798L95.7991 48.6358H123.324C123.596 48.6338 123.866 48.6858 124.118 48.7886C124.37 48.8915 124.599 49.0433 124.792 49.2352C124.985 49.4271 125.138 49.6553 125.243 49.9067C125.347 50.1581 125.4 50.4276 125.4 50.6998V60.5098C125.4 60.7816 125.346 61.0507 125.241 61.3015C125.136 61.5524 124.983 61.7801 124.79 61.9716C124.597 62.1631 124.369 62.3146 124.117 62.4174C123.865 62.5203 123.596 62.5724 123.324 62.5708Z" fill="#EBEBEB"/>
<path d="M121.752 64.1308C120.939 64.2081 120.121 64.2341 119.304 64.2088C118.488 64.2341 117.672 64.208 116.859 64.1308C117.672 64.0536 118.488 64.0276 119.304 64.0528C120.121 64.0275 120.939 64.0536 121.752 64.1308Z" fill="#E0E0E0"/>
<path d="M122.763 64.323C122.753 64.3228 122.743 64.3206 122.734 64.3165C122.724 64.3124 122.716 64.3064 122.709 64.299L122.235 63.8039C122.221 63.7899 122.214 63.7711 122.214 63.7515C122.214 63.7318 122.221 63.713 122.235 63.699C122.242 63.6918 122.25 63.6861 122.259 63.6821C122.268 63.6782 122.278 63.6762 122.288 63.6762C122.297 63.6762 122.307 63.6782 122.316 63.6821C122.325 63.6861 122.333 63.6918 122.34 63.699L122.76 64.1369L123.681 63.201C123.688 63.1938 123.696 63.1881 123.705 63.1842C123.714 63.1802 123.724 63.1782 123.734 63.1782C123.743 63.1782 123.753 63.1802 123.762 63.1842C123.771 63.1881 123.779 63.1938 123.786 63.201C123.8 63.215 123.808 63.2338 123.808 63.2535C123.808 63.2731 123.8 63.2919 123.786 63.306L122.811 64.299C122.798 64.3118 122.781 64.3202 122.763 64.323Z" fill="#4057A2"/>
<path d="M123.438 64.308H123.351C123.331 64.308 123.312 64.3001 123.298 64.286C123.284 64.2719 123.276 64.2529 123.276 64.233C123.278 64.2133 123.287 64.195 123.301 64.1812C123.316 64.1675 123.334 64.1593 123.354 64.158H123.408L124.359 63.189C124.366 63.1817 124.375 63.1759 124.384 63.172C124.393 63.168 124.403 63.166 124.413 63.166C124.423 63.166 124.433 63.168 124.442 63.172C124.452 63.1759 124.46 63.1817 124.467 63.189C124.481 63.203 124.489 63.2218 124.489 63.2415C124.489 63.2611 124.481 63.2799 124.467 63.294L123.492 64.284C123.485 64.2917 123.477 64.2979 123.468 64.302C123.458 64.3062 123.448 64.3082 123.438 64.308Z" fill="#4057A2"/>
<path d="M121.752 101.832C120.939 101.909 120.121 101.935 119.304 101.91C118.488 101.935 117.672 101.909 116.859 101.832C117.672 101.755 118.488 101.729 119.304 101.754C120.121 101.729 120.939 101.755 121.752 101.832Z" fill="#E0E0E0"/>
<path d="M122.763 102.024C122.751 102.025 122.74 102.023 122.729 102.019C122.718 102.015 122.708 102.008 122.7 102L122.226 101.505C122.218 101.498 122.211 101.489 122.206 101.48C122.201 101.47 122.198 101.46 122.198 101.449C122.198 101.438 122.199 101.428 122.204 101.418C122.208 101.408 122.214 101.399 122.222 101.391C122.229 101.384 122.239 101.379 122.249 101.375C122.259 101.372 122.27 101.37 122.28 101.371C122.291 101.372 122.301 101.376 122.311 101.381C122.32 101.387 122.328 101.394 122.334 101.403L122.754 101.841L123.675 100.905C123.682 100.897 123.69 100.892 123.699 100.888C123.708 100.884 123.718 100.882 123.728 100.882C123.737 100.882 123.747 100.884 123.756 100.888C123.765 100.892 123.773 100.897 123.78 100.905C123.794 100.919 123.802 100.937 123.802 100.957C123.802 100.977 123.794 100.996 123.78 101.01L122.817 102C122.802 102.014 122.783 102.022 122.763 102.024Z" fill="#4057A2"/>
<path d="M123.438 102H123.351C123.331 101.999 123.312 101.991 123.298 101.976C123.284 101.961 123.276 101.942 123.276 101.922C123.276 101.912 123.278 101.902 123.282 101.893C123.286 101.884 123.292 101.875 123.299 101.869C123.307 101.862 123.315 101.857 123.325 101.854C123.334 101.85 123.344 101.849 123.354 101.85H123.408L124.359 100.881C124.366 100.874 124.375 100.868 124.384 100.864C124.393 100.86 124.403 100.858 124.413 100.858C124.423 100.858 124.433 100.86 124.442 100.864C124.452 100.868 124.46 100.874 124.467 100.881C124.481 100.895 124.489 100.914 124.489 100.933C124.489 100.953 124.481 100.972 124.467 100.986L123.492 101.976C123.485 101.984 123.477 101.99 123.468 101.994C123.458 101.998 123.448 102 123.438 102Z" fill="#4057A2"/>
<path d="M123.03 51.3929C123.03 51.4349 118.023 51.4709 111.846 51.4709C105.669 51.4709 100.665 51.4349 100.665 51.3929C100.665 51.3509 105.669 51.3149 111.846 51.3149C118.023 51.3149 123.03 51.3479 123.03 51.3929Z" fill="white"/>
<path d="M123.03 53.0336C123.03 53.0786 118.023 53.1116 111.846 53.1116C105.669 53.1116 100.665 53.0786 100.665 53.0336C100.665 52.9886 105.669 52.9556 111.846 52.9556C118.023 52.9556 123.03 52.9916 123.03 53.0336Z" fill="white"/>
<path d="M123.03 54.6776C123.03 54.7196 118.023 54.7556 111.846 54.7556C105.669 54.7556 100.665 54.7196 100.665 54.6776C100.665 54.6356 105.669 54.5996 111.846 54.5996C118.023 54.5996 123.03 54.6356 123.03 54.6776Z" fill="white"/>
<path d="M87.582 102.63C91.2983 102.63 94.311 99.6237 94.311 95.9157C94.311 92.2076 91.2983 89.2017 87.582 89.2017C83.8657 89.2017 80.853 92.2076 80.853 95.9157C80.853 99.6237 83.8657 102.63 87.582 102.63Z" fill="#E0E0E0"/>
<path d="M84.4382 97.5958L86.2022 97.4458L90.5042 98.1718L91.0112 101.4L90.9392 101.775C89.9704 102.323 88.8813 102.623 87.7687 102.648C86.656 102.674 85.5543 102.424 84.5612 101.922L84.4382 97.5868" fill="#455A64"/>
<path d="M89.583 98.1179C90.0096 98.0563 90.4449 98.1156 90.8394 98.289C91.234 98.4624 91.572 98.743 91.815 99.0989C92.107 99.5066 92.3745 99.9314 92.616 100.371C91.914 101.133 91.344 101.712 90.372 102.048L89.583 98.1179Z" fill="#455A64"/>
<path d="M84.438 97.5958C84.438 97.5958 83.274 97.7368 82.824 98.7298C82.374 99.7228 82.269 100.035 82.269 100.035C82.869 100.758 83.637 101.616 84.576 101.937C84.576 101.937 84.789 99.4378 84.816 98.7298C84.849 97.9558 84.879 97.5718 84.438 97.5958Z" fill="#455A64"/>
<path d="M85.5002 91.2358C85.793 90.8597 86.1667 90.5544 86.5936 90.3425C87.0205 90.1306 87.4896 90.0176 87.9662 90.0118C88.3758 90.0094 88.7825 90.0815 89.1662 90.2248C89.5695 90.3226 89.926 90.5582 90.1742 90.8908C90.4795 91.2842 90.6798 91.7487 90.7562 92.2408C90.8266 92.7455 90.8507 93.2556 90.8282 93.7648C90.8042 94.2757 90.6391 94.77 90.3512 95.1928L89.0582 95.4178C88.3453 95.4732 87.6282 95.4348 86.9252 95.3038C86.2147 95.1674 85.587 94.7554 85.1792 94.1578C84.6602 93.2998 84.8762 92.0008 85.5002 91.2358Z" fill="#263238"/>
<path d="M84.2522 94.9827C84.2649 94.8362 84.3111 94.6947 84.387 94.5689C84.4629 94.443 84.5666 94.3362 84.6902 94.2567C84.8159 94.18 84.9627 94.1453 85.1095 94.1577C85.2562 94.1701 85.3951 94.229 85.5062 94.3257L85.7102 94.5687C85.8679 94.641 85.9989 94.761 86.085 94.9116C86.1711 95.0623 86.2079 95.2361 86.1902 95.4087C86.1657 95.5806 86.0929 95.742 85.9803 95.8743C85.8678 96.0065 85.72 96.104 85.5542 96.1557C85.3871 96.2023 85.2107 96.2053 85.0421 96.1643C84.8735 96.1233 84.7183 96.0398 84.5912 95.9217C84.4664 95.8017 84.3709 95.6545 84.3121 95.4917C84.2534 95.3289 84.2328 95.1547 84.2522 94.9827Z" fill="#263238"/>
<path d="M84.507 95.853C84.459 95.7757 84.4349 95.6859 84.438 95.595C84.4813 95.3775 84.5853 95.1768 84.738 95.016C84.882 94.8451 85.0584 94.7044 85.257 94.602C85.407 94.521 85.512 94.491 85.509 94.479C85.4136 94.4878 85.3208 94.5153 85.236 94.56C85.0256 94.6559 84.8392 94.7973 84.69 94.974C84.6068 95.0706 84.5362 95.1775 84.48 95.292C84.4306 95.3847 84.4019 95.4871 84.396 95.592C84.395 95.6641 84.4148 95.7349 84.453 95.796C84.48 95.841 84.507 95.856 84.507 95.853Z" fill="#455A64"/>
<path d="M89.0522 97.9975V96.7975C89.0522 96.7975 90.1051 96.6805 90.3991 95.3335C90.5372 94.4405 90.5914 93.5366 90.5612 92.6335C90.5612 91.8145 89.8562 90.6985 88.8422 90.6955L88.3922 90.6445L86.6672 91.3285C86.5471 91.3345 86.4336 91.3852 86.3492 91.4708C86.2648 91.5563 86.2155 91.6704 86.2112 91.7905L86.1602 97.5505L86.9491 98.6575C87.0936 98.853 87.2956 98.9984 87.5269 99.0733C87.7582 99.1482 88.0071 99.1487 88.2387 99.075C88.4703 99.0012 88.673 98.8567 88.8184 98.6619C88.9637 98.467 89.0444 98.2316 89.0491 97.9885L89.0522 97.9975Z" fill="#FFBE9D"/>
<path d="M88.359 94.9106C88.3684 94.8412 88.4038 94.7779 88.458 94.7336C88.5074 94.6922 88.5688 94.6679 88.6331 94.6641C88.6973 94.6603 88.7611 94.6773 88.815 94.7126C88.8702 94.7556 88.913 94.8123 88.9394 94.877C88.9657 94.9418 88.9745 95.0123 88.965 95.0816C88.9348 95.1229 88.8962 95.1573 88.8517 95.1827C88.8073 95.208 88.758 95.2237 88.707 95.2286H88.659C88.5788 95.2268 88.5021 95.1959 88.443 95.1416C88.4123 95.1121 88.3888 95.0759 88.3742 95.0359C88.3597 94.9958 88.3545 94.953 88.359 94.9106Z" fill="#EB996E"/>
<path d="M89.9282 93.5997C89.9226 93.6423 89.9017 93.6814 89.8694 93.7097C89.8371 93.7381 89.7956 93.7537 89.7526 93.7537C89.7097 93.7537 89.6682 93.7381 89.6359 93.7097C89.6036 93.6814 89.5827 93.6423 89.5771 93.5997C89.5795 93.5538 89.5996 93.5106 89.6332 93.4792C89.6667 93.4479 89.7112 93.4308 89.7572 93.4317C89.7795 93.4313 89.8016 93.4353 89.8224 93.4436C89.8431 93.4519 89.862 93.4642 89.8779 93.4798C89.8938 93.4954 89.9064 93.5141 89.9151 93.5347C89.9237 93.5553 89.9282 93.5774 89.9282 93.5997Z" fill="#263238"/>
<path d="M90.2161 93.1529C90.1921 93.1739 90.0631 93.0689 89.8771 93.0599C89.6911 93.0509 89.5441 93.1349 89.5261 93.1109C89.5081 93.0869 89.5411 93.0599 89.6041 93.0209C89.688 92.9676 89.7871 92.9433 89.8861 92.9519C89.9839 92.9557 90.0777 92.9916 90.1531 93.0539C90.2071 93.1019 90.2251 93.1439 90.2161 93.1529Z" fill="#263238"/>
<path d="M89.0312 94.5749C89.1296 94.5515 89.2301 94.5384 89.3312 94.5359C89.3792 94.5359 89.4272 94.5359 89.4362 94.4939C89.4428 94.4445 89.4344 94.3944 89.4122 94.3499C89.3732 94.2329 89.3312 94.1099 89.2892 93.9779C89.1752 93.6613 89.086 93.3363 89.0222 93.0059C89.1628 93.312 89.2782 93.629 89.3672 93.9539C89.4092 94.0859 89.4452 94.2089 89.4842 94.3289C89.5095 94.3886 89.5148 94.4549 89.4992 94.5179C89.4911 94.5345 89.4793 94.549 89.4648 94.5605C89.4502 94.5719 89.4333 94.5799 89.4152 94.5839C89.3884 94.588 89.3611 94.588 89.3342 94.5839C89.2333 94.5946 89.1313 94.5916 89.0312 94.5749Z" fill="#263238"/>
<path d="M89.04 96.8037C88.3975 96.7786 87.7745 96.5762 87.24 96.2188C87.24 96.2188 87.675 97.1877 89.04 97.1367V96.8037Z" fill="#EB996E"/>
<path d="M88.4701 94.6738C88.5031 94.6738 88.4911 94.8778 88.6591 95.0338C88.8271 95.1898 89.0431 95.1778 89.0431 95.2048C89.0431 95.2318 88.9921 95.2408 88.9021 95.2408C88.7815 95.2356 88.6667 95.1877 88.5781 95.1058C88.4925 95.0287 88.4407 94.9209 88.4341 94.8058C88.4311 94.7218 88.4581 94.6738 88.4701 94.6738Z" fill="#263238"/>
<path d="M90.1771 92.4448C90.1441 92.4898 90.0001 92.4448 89.8321 92.4448C89.6641 92.4448 89.5321 92.4868 89.4871 92.4448C89.4421 92.4028 89.4871 92.3788 89.5531 92.3368C89.6352 92.2834 89.7312 92.2552 89.8291 92.2558C89.9276 92.2517 90.025 92.2779 90.1081 92.3308C90.1711 92.3788 90.1921 92.4238 90.1771 92.4448Z" fill="#263238"/>
<path d="M87.864 93.5757C87.8632 93.6213 87.8804 93.6654 87.9118 93.6985C87.9432 93.7316 87.9864 93.7511 88.032 93.7527C88.0542 93.7551 88.0766 93.7531 88.098 93.7467C88.1193 93.7403 88.1391 93.7296 88.1562 93.7153C88.1733 93.701 88.1874 93.6833 88.1975 93.6635C88.2076 93.6436 88.2136 93.6219 88.215 93.5997C88.2159 93.5537 88.1988 93.5092 88.1675 93.4757C88.1361 93.4421 88.0929 93.422 88.047 93.4197C88.0247 93.4176 88.0022 93.42 87.9809 93.4268C87.9595 93.4336 87.9397 93.4446 87.9227 93.4591C87.9056 93.4736 87.8917 93.4914 87.8816 93.5115C87.8715 93.5315 87.8655 93.5533 87.864 93.5757Z" fill="#263238"/>
<path d="M87.636 93.0838C87.657 93.1078 87.792 93.0118 87.981 93.0178C88.17 93.0238 88.3051 93.1168 88.3261 93.0928C88.3471 93.0688 88.326 93.0417 88.254 92.9967C88.1734 92.9393 88.0771 92.9079 87.9781 92.9068C87.8806 92.906 87.7853 92.9353 87.7051 92.9908C87.6451 93.0328 87.624 93.0748 87.636 93.0838Z" fill="#263238"/>
<path d="M87.5282 92.6816C87.5642 92.7236 87.7112 92.6816 87.8852 92.6816C88.0592 92.6816 88.2062 92.7146 88.2422 92.6816C88.2782 92.6486 88.2422 92.6186 88.1702 92.5766C88.0828 92.5255 87.9834 92.4985 87.8822 92.4985C87.7809 92.4985 87.6815 92.5255 87.5942 92.5766C87.5312 92.6156 87.5102 92.6606 87.5282 92.6816Z" fill="#263238"/>
<path d="M86.433 93.975C86.433 93.873 86.3371 93.63 86.2351 93.609C85.9711 93.552 85.4881 93.546 85.4461 94.224C85.3891 95.151 86.3461 95.019 86.3461 94.992C86.3461 94.965 86.415 94.326 86.433 93.975Z" fill="#FFBE9D"/>
<path d="M86.1001 94.638C86.1001 94.638 86.0851 94.638 86.0551 94.659C86.0165 94.6738 85.9737 94.6738 85.9351 94.659C85.8772 94.6177 85.8314 94.5618 85.8024 94.4969C85.7734 94.4321 85.7623 94.3606 85.7701 94.29C85.7733 94.2105 85.7937 94.1327 85.8301 94.062C85.8409 94.0337 85.8582 94.0084 85.8806 93.988C85.903 93.9677 85.9299 93.9529 85.9591 93.945C85.9778 93.9413 85.9971 93.944 86.014 93.9527C86.0309 93.9614 86.0443 93.9756 86.0521 93.993C86.0546 94.0089 86.0546 94.0251 86.0521 94.041C86.0521 94.041 86.0731 94.026 86.0671 93.987C86.0627 93.964 86.0512 93.943 86.0341 93.927C86.0222 93.9169 86.0083 93.9093 85.9933 93.9047C85.9784 93.9 85.9627 93.8984 85.9471 93.9C85.9086 93.9043 85.8719 93.9189 85.8408 93.942C85.8097 93.9652 85.7853 93.9963 85.7701 94.032C85.7253 94.1097 85.7006 94.1973 85.6981 94.287C85.6881 94.369 85.7028 94.4522 85.7402 94.5259C85.7776 94.5996 85.836 94.6606 85.9081 94.701C85.9315 94.7124 85.9571 94.7183 85.9831 94.7183C86.0091 94.7183 86.0347 94.7124 86.0581 94.701C86.1001 94.659 86.1001 94.638 86.1001 94.638Z" fill="#EB996E"/>
<path d="M86.1991 93.5996L86.4331 93.8456C87.4531 92.8706 89.4481 90.4316 89.3371 90.5786C88.872 90.4045 88.3707 90.3498 87.8791 90.4196C87.1201 90.5486 85.6831 90.9266 85.7041 91.8206C85.7491 92.4406 85.9173 93.0454 86.1991 93.5996Z" fill="#263238"/>
<path d="M84.8491 93.4048C84.8491 93.4048 84.8491 93.3868 84.8491 93.3508C84.8674 93.3017 84.8885 93.2536 84.9121 93.2068C85.009 93.0344 85.1421 92.885 85.3021 92.7688C85.545 92.6009 85.8149 92.4761 86.1001 92.3998C86.4001 92.2978 86.7601 92.2198 87.1051 92.0728C87.43 91.938 87.738 91.7658 88.0231 91.5598C88.2558 91.3919 88.4727 91.2031 88.6711 90.9958C88.8391 90.8158 88.9711 90.6598 89.0461 90.5518C89.0821 90.4978 89.1151 90.4558 89.1391 90.4228C89.1631 90.3898 89.1721 90.3778 89.1751 90.3808L89.1481 90.4288L89.0611 90.5608C88.9508 90.7218 88.8284 90.8743 88.6951 91.0168C88.498 91.23 88.2811 91.4239 88.0471 91.5958C87.7592 91.8 87.448 91.9692 87.1201 92.0998C86.7721 92.2468 86.4181 92.3248 86.1091 92.4238C85.8329 92.5 85.5713 92.6217 85.3351 92.7838C85.1758 92.8944 85.0419 93.0375 84.9421 93.2038C84.907 93.2688 84.876 93.336 84.8491 93.4048Z" fill="#455A64"/>
<path d="M85.1192 93.5515C85.1169 93.4818 85.1292 93.4123 85.1552 93.3475C85.2238 93.1703 85.3453 93.0184 85.5032 92.9125C85.7395 92.7617 86.0037 92.6597 86.2802 92.6125C86.6111 92.5479 86.934 92.4473 87.2432 92.3125C87.5501 92.173 87.8383 91.9956 88.1012 91.7845C88.4625 91.4952 88.7728 91.1474 89.0192 90.7555C89.0522 90.7015 89.0792 90.6595 89.0972 90.6235C89.1069 90.6086 89.1179 90.5945 89.1302 90.5815C89.1238 90.5983 89.1157 90.6144 89.1062 90.6295L89.0342 90.7645C88.942 90.9276 88.8356 91.0823 88.7162 91.2265C88.5389 91.448 88.3377 91.6493 88.1162 91.8265C87.8515 92.0421 87.56 92.2226 87.2492 92.3635C86.9363 92.4994 86.6093 92.6 86.2742 92.6635C86.0017 92.7117 85.7417 92.8136 85.5092 92.9635C85.3519 93.0629 85.2292 93.2086 85.1582 93.3805C85.1398 93.4362 85.1268 93.4934 85.1192 93.5515Z" fill="#455A64"/>
<path d="M84.5762 101.931C84.5322 101.341 84.5322 100.748 84.5762 100.158C84.6162 100.748 84.6162 101.34 84.5762 101.931Z" fill="#263238"/>
<path d="M90.9421 101.808C90.9334 101.703 90.9334 101.598 90.9421 101.493C90.9601 101.241 90.951 100.989 90.9151 100.74C90.868 100.493 90.7956 100.252 90.6991 100.02C90.6543 99.9231 90.6181 99.8227 90.5911 99.7197C90.6497 99.8073 90.699 99.9008 90.7381 99.9987C90.8496 100.23 90.9293 100.475 90.9751 100.728C91.0108 100.981 91.0108 101.239 90.9751 101.493C90.9776 101.599 90.9665 101.705 90.9421 101.808Z" fill="#263238"/>
<path d="M123.324 99.8639H100.389C99.8422 99.8631 99.318 99.6453 98.9315 99.2583C98.5451 98.8713 98.3281 98.3468 98.3281 97.7999V92.7479L95.7991 90.5039H123.324C123.87 90.5047 124.394 90.7221 124.781 91.1084C125.167 91.4948 125.384 92.0185 125.385 92.5649V97.7999C125.385 98.3468 125.168 98.8713 124.782 99.2583C124.395 99.6453 123.871 99.8631 123.324 99.8639Z" fill="#EBEBEB"/>
<path d="M123.03 93.2606C123.03 93.3056 118.023 93.3386 111.846 93.3386C105.669 93.3386 100.665 93.3056 100.665 93.2606C100.665 93.2156 105.669 93.1826 111.846 93.1826C118.023 93.1826 123.03 93.2186 123.03 93.2606Z" fill="white"/>
<path d="M123.03 94.9047C123.03 94.9467 118.023 94.9827 111.846 94.9827C105.669 94.9827 100.665 94.9467 100.665 94.9047C100.665 94.8627 105.669 94.8267 111.846 94.8267C118.023 94.8267 123.03 94.8627 123.03 94.9047Z" fill="white"/>
<path d="M123.03 96.5487C123.03 96.5907 118.023 96.6267 111.846 96.6267C105.669 96.6267 100.665 96.5907 100.665 96.5487C100.665 96.5067 105.669 96.4707 111.846 96.4707C118.023 96.4707 123.03 96.5037 123.03 96.5487Z" fill="white"/>
<path d="M123.03 56.3217C123.03 56.3637 118.023 56.3997 111.846 56.3997C105.669 56.3997 100.665 56.3637 100.665 56.3217C100.665 56.2797 105.669 56.2437 111.846 56.2437C118.023 56.2437 123.03 56.2767 123.03 56.3217Z" fill="white"/>
<path d="M123.03 57.9628C123.03 58.0078 118.023 58.0408 111.846 58.0408C105.669 58.0408 100.665 58.0078 100.665 57.9628C100.665 57.9178 105.669 57.8848 111.846 57.8848C118.023 57.8848 123.03 57.9208 123.03 57.9628Z" fill="white"/>
<path d="M123.03 59.9369C123.03 59.9819 118.023 60.0149 111.846 60.0149C105.669 60.0149 100.665 59.9819 100.665 59.9369C100.665 59.8919 105.669 59.8589 111.846 59.8589C118.023 59.8589 123.03 59.8949 123.03 59.9369Z" fill="white"/>
<path d="M100.8 31.3887C100.816 31.1556 100.9 30.9322 101.041 30.746C101.182 30.5598 101.375 30.4189 101.595 30.3405C101.815 30.2621 102.053 30.2497 102.28 30.3048C102.507 30.3599 102.713 30.4801 102.873 30.6507L102.552 30.9507C102.486 30.8703 102.402 30.8057 102.308 30.7616C102.213 30.7175 102.11 30.695 102.006 30.6957C101.821 30.6957 101.644 30.769 101.514 30.8995C101.383 31.0301 101.31 31.2071 101.31 31.3917C101.31 31.5763 101.383 31.7533 101.514 31.8838C101.644 32.0143 101.821 32.0877 102.006 32.0877C102.111 32.0884 102.214 32.0656 102.308 32.021C102.403 31.9763 102.486 31.9109 102.552 31.8297L102.873 32.1297C102.714 32.3001 102.508 32.4203 102.281 32.4755C102.054 32.5307 101.816 32.5186 101.596 32.4406C101.376 32.3626 101.183 32.2221 101.042 32.0363C100.901 31.8505 100.817 31.6275 100.8 31.3947V31.3887Z" fill="#263238"/>
<path d="M104.868 31.5178V32.4748H104.4V31.5928C104.4 31.3228 104.274 31.1998 104.061 31.1998C103.848 31.1998 103.662 31.3438 103.662 31.6498V32.4748H103.176V30.1738H103.662V30.9808C103.732 30.9132 103.816 30.8606 103.907 30.826C103.998 30.7915 104.096 30.7758 104.193 30.7798C104.288 30.776 104.383 30.793 104.471 30.8296C104.559 30.8662 104.638 30.9216 104.702 30.9919C104.766 31.0622 104.815 31.1457 104.843 31.2365C104.872 31.3274 104.88 31.4234 104.868 31.5178Z" fill="#263238"/>
<path d="M106.782 31.5236V32.4746H106.329V32.2676C106.273 32.3486 106.196 32.4128 106.106 32.4535C106.016 32.4941 105.917 32.5097 105.819 32.4986C105.429 32.4986 105.198 32.2826 105.198 31.9946C105.198 31.7066 105.405 31.4936 105.915 31.4936H106.299C106.299 31.2866 106.173 31.1666 105.915 31.1666C105.742 31.1649 105.573 31.2185 105.432 31.3196L105.258 30.9836C105.472 30.845 105.723 30.7739 105.978 30.7796C106.5 30.7796 106.782 31.0166 106.782 31.5236ZM106.299 31.9466V31.7756H105.966C105.741 31.7756 105.666 31.8596 105.666 31.9736C105.666 32.0876 105.768 32.1746 105.939 32.1746C106.016 32.1804 106.092 32.1613 106.157 32.1202C106.222 32.0792 106.271 32.0183 106.299 31.9466Z" fill="#263238"/>
<path d="M108.3 32.4C108.182 32.4743 108.044 32.5109 107.904 32.505C107.822 32.5163 107.738 32.5088 107.659 32.483C107.58 32.4572 107.508 32.4137 107.448 32.3559C107.388 32.2982 107.342 32.2275 107.314 32.1494C107.285 32.0713 107.275 31.9877 107.283 31.905V31.218H107.025V30.846H107.283V30.438H107.766V30.846H108.183V31.218H107.766V31.899C107.763 31.9276 107.765 31.9566 107.774 31.984C107.783 32.0114 107.798 32.0365 107.818 32.0574C107.838 32.0783 107.862 32.0946 107.889 32.1051C107.916 32.1156 107.944 32.12 107.973 32.118C108.044 32.1205 108.113 32.0982 108.168 32.055L108.3 32.4Z" fill="#263238"/>
<path d="M116.859 34.7368C116.859 34.7788 111.759 34.8148 105.438 34.8148C99.117 34.8148 94.02 34.7788 94.02 34.7368C94.02 34.6948 99.12 34.6558 105.438 34.6558C111.756 34.6558 116.859 34.6918 116.859 34.7368Z" fill="#263238"/>
<path d="M126.978 31.3887C127.271 31.3887 127.509 31.1509 127.509 30.8577C127.509 30.5644 127.271 30.3267 126.978 30.3267C126.685 30.3267 126.447 30.5644 126.447 30.8577C126.447 31.1509 126.685 31.3887 126.978 31.3887Z" fill="#263238"/>
<path d="M127.5 32.3997C127.501 32.5055 127.47 32.6092 127.411 32.6975C127.353 32.7857 127.27 32.8546 127.172 32.8954C127.074 32.9362 126.967 32.947 126.863 32.9265C126.759 32.906 126.663 32.8551 126.589 32.7802C126.514 32.7054 126.463 32.61 126.442 32.5061C126.422 32.4022 126.433 32.2946 126.473 32.1969C126.514 32.0992 126.583 32.0159 126.671 31.9574C126.76 31.899 126.863 31.8681 126.969 31.8687C127.11 31.8694 127.244 31.9256 127.344 32.0251C127.443 32.1245 127.499 32.2591 127.5 32.3997Z" fill="#263238"/>
<path d="M127.5 33.9568C127.501 34.0627 127.47 34.1663 127.411 34.2546C127.353 34.3429 127.27 34.4118 127.172 34.4526C127.074 34.4933 126.967 34.5042 126.863 34.4837C126.759 34.4632 126.663 34.4122 126.589 34.3374C126.514 34.2625 126.463 34.1671 126.442 34.0632C126.422 33.9594 126.433 33.8517 126.473 33.754C126.514 33.6564 126.583 33.573 126.671 33.5145C126.76 33.4561 126.863 33.4252 126.969 33.4258C127.11 33.4258 127.245 33.4817 127.345 33.5813C127.444 33.6809 127.5 33.816 127.5 33.9568Z" fill="#263238"/>
<path d="M83.7961 32.658C83.7635 32.6587 83.7317 32.6481 83.7061 32.628L82.2991 31.596C82.2798 31.5817 82.2641 31.5631 82.2532 31.5418C82.2423 31.5205 82.2364 31.4969 82.2361 31.473C82.2362 31.4494 82.242 31.4261 82.2529 31.4053C82.2639 31.3844 82.2797 31.3664 82.2991 31.353L83.7061 30.339C83.7222 30.3274 83.7404 30.3192 83.7598 30.3148C83.7791 30.3104 83.7991 30.3098 83.8186 30.3132C83.8381 30.3165 83.8568 30.3237 83.8735 30.3343C83.8902 30.3449 83.9047 30.3587 83.9161 30.375C83.9387 30.4069 83.9479 30.4465 83.9417 30.4852C83.9356 30.5239 83.9145 30.5586 83.8831 30.582L82.6411 31.482L83.8831 32.382C83.9147 32.4059 83.9359 32.4411 83.942 32.4803C83.9482 32.5195 83.9389 32.5595 83.9161 32.592C83.9029 32.6119 83.8851 32.6283 83.8642 32.6398C83.8433 32.6513 83.8199 32.6575 83.7961 32.658Z" fill="#263238"/>
<path d="M120.513 83.0999C124.23 83.0999 127.242 80.0939 127.242 76.3859C127.242 72.6778 124.23 69.6719 120.513 69.6719C116.797 69.6719 113.784 72.6778 113.784 76.3859C113.784 80.0939 116.797 83.0999 120.513 83.0999Z" fill="#E0E0E0"/>
<path d="M122.355 80.3549H118.815C118.694 80.3549 118.578 80.3069 118.493 80.2214C118.407 80.1359 118.359 80.0199 118.359 79.8989C118.359 79.7777 118.407 79.6614 118.493 79.5754C118.578 79.4894 118.694 79.4407 118.815 79.4399H122.355C122.476 79.4407 122.592 79.4894 122.678 79.5754C122.763 79.6614 122.811 79.7777 122.811 79.8989C122.811 80.0199 122.763 80.1359 122.678 80.2214C122.592 80.3069 122.476 80.3549 122.355 80.3549Z" fill="#263238"/>
<path d="M120.786 72.021H120.474V73.593H120.786V72.021Z" fill="#263238"/>
<path d="M116.043 78.3059C116.547 78.3059 116.955 77.8976 116.955 77.3939C116.955 76.8903 116.547 76.4819 116.043 76.4819C115.539 76.4819 115.131 76.8903 115.131 77.3939C115.131 77.8976 115.539 78.3059 116.043 78.3059Z" fill="#4057A2"/>
<path d="M125.265 78.2459C125.769 78.2459 126.177 77.8376 126.177 77.3339C126.177 76.8302 125.769 76.4219 125.265 76.4219C124.761 76.4219 124.353 76.8302 124.353 77.3339C124.353 77.8376 124.761 78.2459 125.265 78.2459Z" fill="#4057A2"/>
<path d="M120.765 73.2629C120.765 73.2629 124.479 73.2179 125.067 76.4369C125.655 79.6559 122.514 79.7129 121.611 79.7729C121.203 79.7999 120.327 79.8029 119.553 79.7909C117.84 79.7609 116.631 79.4309 116.22 77.8409C116.171 77.6544 116.14 77.4635 116.127 77.2709C116.019 75.5309 117.195 73.1789 120.765 73.2629Z" fill="#4057A2"/>
<path d="M118.071 78.1619L123.471 78.2459C123.743 78.2499 124.005 78.146 124.2 77.9571C124.395 77.7681 124.507 77.5095 124.512 77.2379C124.515 76.9663 124.411 76.7045 124.221 76.5099C124.032 76.3153 123.773 76.2038 123.501 76.1999L118.101 76.1159C117.967 76.1135 117.833 76.1377 117.708 76.1871C117.582 76.2365 117.468 76.3102 117.371 76.4038C117.275 76.4974 117.197 76.6093 117.144 76.7328C117.091 76.8564 117.062 76.9893 117.06 77.1239C117.058 77.2585 117.083 77.3921 117.133 77.5172C117.182 77.6423 117.256 77.7563 117.35 77.8527C117.444 77.9492 117.556 78.0261 117.68 78.0792C117.804 78.1322 117.937 78.1603 118.071 78.1619Z" fill="#263238"/>
<path d="M122.349 77.1268C122.357 77.1693 122.373 77.2097 122.397 77.2458C122.421 77.2819 122.451 77.313 122.487 77.3373C122.522 77.3616 122.563 77.3785 122.605 77.3872C122.647 77.3959 122.691 77.3961 122.733 77.3878C122.779 77.3832 122.823 77.3691 122.863 77.3465C122.903 77.3238 122.938 77.2931 122.965 77.2562C122.992 77.2193 123.012 77.1772 123.022 77.1324C123.032 77.0877 123.033 77.0413 123.024 76.9962C123.015 76.9512 122.997 76.9085 122.971 76.8708C122.944 76.8331 122.911 76.8014 122.871 76.7775C122.832 76.7537 122.788 76.7383 122.743 76.7323C122.697 76.7263 122.651 76.7299 122.607 76.7428C122.565 76.7511 122.525 76.7676 122.489 76.7913C122.453 76.8151 122.423 76.8457 122.399 76.8814C122.375 76.917 122.358 76.9571 122.349 76.9992C122.341 77.0413 122.341 77.0847 122.349 77.1268Z" fill="white"/>
<path d="M118.578 77.0668C118.583 77.1124 118.597 77.1566 118.619 77.1966C118.642 77.2365 118.673 77.2712 118.71 77.2986C118.747 77.3259 118.789 77.3453 118.833 77.3555C118.878 77.3656 118.925 77.3663 118.97 77.3575C119.015 77.3487 119.057 77.3306 119.095 77.3043C119.133 77.2781 119.165 77.2443 119.188 77.2051C119.212 77.1659 119.228 77.1221 119.234 77.0766C119.24 77.0311 119.236 76.9848 119.223 76.9408C119.2 76.8618 119.148 76.7944 119.078 76.7517C119.008 76.7089 118.924 76.694 118.843 76.7097C118.762 76.7255 118.69 76.7709 118.641 76.8369C118.592 76.9029 118.57 76.9849 118.578 77.0668Z" fill="white"/>
<path d="M121.143 71.9997C121.144 72.1013 121.114 72.2008 121.058 72.2856C121.002 72.3703 120.922 72.4365 120.829 72.4758C120.735 72.5151 120.632 72.5257 120.532 72.5063C120.432 72.4868 120.341 72.4382 120.269 72.3666C120.196 72.2949 120.147 72.2035 120.127 72.1039C120.107 72.0043 120.117 71.901 120.156 71.8071C120.195 71.7132 120.26 71.6329 120.345 71.5764C120.429 71.5199 120.529 71.4897 120.63 71.4897C120.766 71.4897 120.896 71.5434 120.992 71.6389C121.088 71.7345 121.142 71.8642 121.143 71.9997Z" fill="#4057A2"/>
<path d="M121.404 76.9766C121.404 76.9766 121.425 77.0006 121.437 77.0546C121.446 77.1312 121.439 77.2089 121.416 77.2826C121.383 77.3965 121.321 77.4999 121.236 77.5826C121.132 77.6864 120.995 77.7511 120.849 77.7656C120.703 77.7777 120.557 77.7396 120.435 77.6576C120.339 77.5923 120.259 77.5048 120.204 77.4026C120.169 77.3337 120.148 77.258 120.144 77.1806C120.144 77.1266 120.144 77.0966 120.162 77.0966C120.18 77.0966 120.192 77.2106 120.291 77.3516C120.349 77.4297 120.421 77.4959 120.504 77.5466C120.604 77.6062 120.721 77.6335 120.837 77.6246C120.949 77.6103 121.053 77.5621 121.137 77.4866C121.213 77.4238 121.273 77.3449 121.314 77.2556C121.392 77.0996 121.38 76.9766 121.404 76.9766Z" fill="white"/>
<path d="M125.061 76.3315C125.072 76.3567 125.081 76.3828 125.088 76.4095C125.1 76.441 125.11 76.473 125.118 76.5055C125.118 76.5415 125.139 76.5835 125.148 76.6345C125.171 76.7465 125.187 76.8597 125.196 76.9735C125.206 77.1133 125.206 77.2537 125.196 77.3935C125.184 77.5331 125.161 77.6715 125.127 77.8075C125.099 77.918 125.063 78.0262 125.019 78.1315C125.004 78.1734 124.987 78.2145 124.968 78.2545C124.955 78.2845 124.94 78.3135 124.923 78.3415L124.881 78.4165C124.888 78.3889 124.899 78.3625 124.914 78.3385L124.953 78.2455C124.968 78.2095 124.986 78.1705 125.001 78.1255C125.041 78.0199 125.075 77.9117 125.1 77.8015C125.132 77.6662 125.155 77.5289 125.169 77.3905C125.178 77.2517 125.178 77.1124 125.169 76.9735C125.162 76.8608 125.148 76.7486 125.127 76.6375C125.121 76.5911 125.112 76.545 125.1 76.4995C125.1 76.4605 125.085 76.4305 125.079 76.4035C125.07 76.3805 125.064 76.3563 125.061 76.3315Z" fill="#263238"/>
<path d="M116.262 76.3496C116.249 76.3755 116.239 76.4026 116.232 76.4306C116.232 76.4546 116.214 76.4876 116.202 76.5236C116.19 76.5596 116.181 76.6046 116.172 76.6526C116.149 76.7644 116.134 76.8777 116.127 76.9916C116.117 77.1314 116.117 77.2718 116.127 77.4116C116.139 77.5512 116.162 77.6897 116.196 77.8256C116.224 77.9371 116.26 78.0464 116.304 78.1526C116.319 78.1976 116.34 78.2366 116.355 78.2726C116.37 78.3086 116.388 78.3386 116.4 78.3626L116.442 78.4346C116.434 78.4074 116.423 78.3812 116.409 78.3566C116.409 78.3326 116.385 78.3026 116.37 78.2666C116.355 78.2306 116.337 78.1916 116.322 78.1466C116.282 78.04 116.249 77.9307 116.223 77.8196C116.191 77.6843 116.168 77.547 116.154 77.4086C116.145 77.2708 116.145 77.1325 116.154 76.9946C116.162 76.8809 116.176 76.7677 116.196 76.6556C116.203 76.6131 116.212 76.571 116.223 76.5296C116.223 76.4906 116.238 76.4576 116.244 76.4336C116.25 76.4096 116.262 76.3496 116.262 76.3496Z" fill="#263238"/>
<path d="M117.063 82.1517C117.063 82.1517 118.167 81.0747 120.474 81.0747C122.781 81.0747 123.963 82.1517 123.963 82.1517C122.922 82.7799 121.729 83.1119 120.513 83.1119C119.297 83.1119 118.104 82.7799 117.063 82.1517Z" fill="#4057A2"/>
<path d="M83.7002 83.2319H106.632C106.903 83.2323 107.171 83.1793 107.421 83.0759C107.672 82.9724 107.899 82.8206 108.09 82.6292C108.282 82.4377 108.434 82.2104 108.537 81.9601C108.641 81.7099 108.694 81.4417 108.693 81.1709V74.5169L111.222 72.2729H83.7002C83.4295 72.2729 83.1615 72.3263 82.9115 72.4298C82.6614 72.5334 82.4342 72.6852 82.2428 72.8766C82.0514 73.068 81.8996 73.2952 81.796 73.5452C81.6925 73.7953 81.6392 74.0633 81.6392 74.3339V81.1709C81.6388 81.4417 81.6918 81.7099 81.7952 81.9601C81.8987 82.2104 82.0505 82.4377 82.2419 82.6292C82.4334 82.8206 82.6608 82.9724 82.911 83.0759C83.1612 83.1793 83.4294 83.2323 83.7002 83.2319Z" fill="#EBEBEB"/>
<path d="M105.6 75.5248C105.6 75.5698 100.878 75.6028 95.0522 75.6028C89.2262 75.6028 84.5042 75.5698 84.5042 75.5248C84.5042 75.4798 89.2262 75.4468 95.0522 75.4468C100.878 75.4468 105.6 75.4828 105.6 75.5248Z" fill="white"/>
<path d="M105.6 77.307C105.6 77.352 100.878 77.385 95.0522 77.385C89.2262 77.385 84.5042 77.352 84.5042 77.307C84.5042 77.262 89.2262 77.229 95.0522 77.229C100.878 77.229 105.6 77.265 105.6 77.307Z" fill="white"/>
<path d="M105.6 79.0887C105.6 79.1307 100.878 79.1667 95.0522 79.1667C89.2262 79.1667 84.5042 79.1307 84.5042 79.0887C84.5042 79.0467 89.2262 79.0107 95.0522 79.0107C100.878 79.0107 105.6 79.0467 105.6 79.0887Z" fill="white"/>
<path d="M105.6 80.871C105.6 80.913 100.878 80.949 95.0522 80.949C89.2262 80.949 84.5042 80.913 84.5042 80.871C84.5042 80.829 89.2262 80.793 95.0522 80.793C100.878 80.793 105.6 80.826 105.6 80.871Z" fill="white"/>
<path d="M120.513 120.384C124.23 120.384 127.242 117.378 127.242 113.67C127.242 109.962 124.23 106.956 120.513 106.956C116.797 106.956 113.784 109.962 113.784 113.67C113.784 117.378 116.797 120.384 120.513 120.384Z" fill="#E0E0E0"/>
<path d="M122.355 117.639H118.815C118.755 117.639 118.695 117.627 118.64 117.604C118.584 117.581 118.534 117.547 118.492 117.504C118.449 117.461 118.416 117.411 118.393 117.355C118.37 117.299 118.359 117.24 118.359 117.18C118.359 117.059 118.407 116.943 118.493 116.857C118.578 116.772 118.694 116.724 118.815 116.724H122.355C122.476 116.724 122.592 116.772 122.678 116.857C122.763 116.943 122.811 117.059 122.811 117.18C122.812 117.24 122.8 117.299 122.777 117.355C122.755 117.411 122.721 117.461 122.679 117.504C122.636 117.547 122.586 117.581 122.53 117.604C122.475 117.627 122.415 117.639 122.355 117.639Z" fill="#263238"/>
<path d="M120.786 109.305H120.474V110.877H120.786V109.305Z" fill="#263238"/>
<path d="M116.043 115.59C116.547 115.59 116.955 115.181 116.955 114.678C116.955 114.174 116.547 113.766 116.043 113.766C115.539 113.766 115.131 114.174 115.131 114.678C115.131 115.181 115.539 115.59 116.043 115.59Z" fill="#4057A2"/>
<path d="M125.265 115.527C125.769 115.527 126.177 115.118 126.177 114.615C126.177 114.111 125.769 113.703 125.265 113.703C124.761 113.703 124.353 114.111 124.353 114.615C124.353 115.118 124.761 115.527 125.265 115.527Z" fill="#4057A2"/>
<path d="M120.765 110.547C120.765 110.547 124.479 110.502 125.067 113.718C125.655 116.934 122.514 116.997 121.611 117.057C121.203 117.084 120.327 117.087 119.553 117.075C117.84 117.045 116.631 116.712 116.22 115.125C116.171 114.938 116.14 114.747 116.127 114.555C116.019 112.815 117.195 110.46 120.765 110.547Z" fill="#4057A2"/>
<path d="M118.071 115.446L123.471 115.53C123.743 115.534 124.005 115.43 124.2 115.241C124.395 115.052 124.507 114.793 124.512 114.522C124.515 114.25 124.411 113.988 124.221 113.794C124.032 113.599 123.773 113.488 123.501 113.484L118.101 113.397C117.83 113.393 117.567 113.496 117.372 113.685C117.177 113.874 117.065 114.133 117.06 114.405C117.058 114.539 117.083 114.673 117.132 114.798C117.182 114.924 117.256 115.038 117.35 115.135C117.444 115.231 117.556 115.308 117.68 115.362C117.803 115.415 117.936 115.444 118.071 115.446Z" fill="#263238"/>
<path d="M122.349 114.411C122.356 114.454 122.372 114.494 122.395 114.531C122.418 114.568 122.448 114.6 122.484 114.625C122.519 114.65 122.559 114.668 122.601 114.677C122.644 114.687 122.687 114.688 122.73 114.681C122.773 114.673 122.814 114.658 122.85 114.635C122.887 114.612 122.919 114.582 122.944 114.546C122.969 114.511 122.987 114.471 122.997 114.429C123.006 114.386 123.007 114.343 123 114.3C122.996 114.254 122.981 114.21 122.959 114.17C122.936 114.13 122.905 114.095 122.868 114.068C122.832 114.041 122.789 114.021 122.745 114.011C122.7 114.001 122.654 114 122.609 114.009C122.563 114.018 122.521 114.036 122.483 114.062C122.445 114.088 122.414 114.122 122.39 114.161C122.366 114.201 122.351 114.244 122.345 114.29C122.339 114.335 122.342 114.382 122.355 114.426L122.349 114.411Z" fill="white"/>
<path d="M118.578 114.351C118.591 114.415 118.622 114.474 118.668 114.52C118.714 114.566 118.772 114.598 118.836 114.611C118.9 114.624 118.967 114.618 119.027 114.593C119.087 114.568 119.139 114.526 119.176 114.472C119.212 114.418 119.232 114.354 119.232 114.289C119.232 114.224 119.213 114.16 119.177 114.105C119.141 114.051 119.09 114.008 119.03 113.983C118.969 113.958 118.903 113.951 118.839 113.964C118.797 113.972 118.756 113.988 118.72 114.012C118.684 114.036 118.653 114.067 118.628 114.103C118.604 114.139 118.587 114.179 118.579 114.222C118.57 114.264 118.57 114.308 118.578 114.351Z" fill="white"/>
<path d="M121.143 109.272C121.143 109.373 121.113 109.472 121.057 109.557C121 109.641 120.92 109.707 120.827 109.746C120.733 109.785 120.63 109.795 120.53 109.775C120.431 109.755 120.339 109.706 120.267 109.635C120.196 109.563 120.147 109.471 120.127 109.372C120.107 109.272 120.117 109.169 120.156 109.075C120.195 108.982 120.261 108.902 120.345 108.845C120.43 108.789 120.529 108.759 120.63 108.759C120.766 108.759 120.897 108.813 120.993 108.909C121.089 109.005 121.143 109.136 121.143 109.272Z" fill="#4057A2"/>
<path d="M121.404 114.258C121.404 114.258 121.425 114.285 121.437 114.339C121.446 114.415 121.439 114.493 121.416 114.567C121.382 114.68 121.32 114.784 121.236 114.867C121.132 114.971 120.995 115.035 120.849 115.05C120.703 115.062 120.557 115.024 120.435 114.942C120.339 114.877 120.259 114.789 120.204 114.687C120.169 114.618 120.148 114.542 120.144 114.465C120.144 114.411 120.144 114.381 120.162 114.381C120.18 114.381 120.192 114.495 120.291 114.633C120.348 114.713 120.42 114.78 120.504 114.831C120.605 114.889 120.721 114.916 120.837 114.909C120.949 114.895 121.053 114.846 121.137 114.771C121.211 114.707 121.272 114.628 121.314 114.54C121.392 114.378 121.38 114.261 121.404 114.258Z" fill="white"/>
<path d="M125.061 113.613C125.061 113.613 125.061 113.643 125.088 113.694C125.1 113.725 125.11 113.757 125.118 113.79C125.118 113.826 125.139 113.868 125.148 113.916C125.171 114.028 125.187 114.141 125.196 114.255C125.206 114.395 125.206 114.535 125.196 114.675C125.184 114.814 125.161 114.953 125.127 115.089C125.099 115.2 125.063 115.31 125.019 115.416C125.004 115.457 124.987 115.497 124.968 115.536C124.956 115.567 124.94 115.597 124.923 115.626L124.881 115.698C124.889 115.671 124.9 115.644 124.914 115.62C124.914 115.596 124.938 115.566 124.953 115.53C124.968 115.494 124.986 115.455 125.001 115.41C125.042 115.303 125.075 115.194 125.1 115.083C125.132 114.949 125.155 114.812 125.169 114.675C125.178 114.536 125.178 114.397 125.169 114.258C125.162 114.145 125.148 114.033 125.127 113.922C125.121 113.878 125.112 113.835 125.1 113.793C125.1 113.754 125.085 113.724 125.079 113.697C125.069 113.67 125.063 113.642 125.061 113.613Z" fill="#263238"/>
<path d="M116.262 113.634C116.249 113.66 116.239 113.687 116.232 113.715C116.232 113.739 116.214 113.772 116.202 113.808C116.19 113.844 116.181 113.889 116.172 113.937C116.149 114.049 116.134 114.162 116.127 114.276C116.117 114.416 116.117 114.556 116.127 114.696C116.139 114.835 116.163 114.974 116.196 115.11C116.224 115.221 116.26 115.331 116.304 115.437C116.319 115.482 116.34 115.521 116.355 115.557C116.37 115.593 116.388 115.623 116.4 115.647L116.442 115.719C116.435 115.691 116.424 115.665 116.409 115.641C116.409 115.617 116.385 115.587 116.37 115.551C116.355 115.515 116.337 115.476 116.322 115.428C116.282 115.322 116.249 115.214 116.223 115.104C116.191 114.968 116.168 114.831 116.154 114.693C116.145 114.555 116.145 114.417 116.154 114.279C116.162 114.165 116.176 114.052 116.196 113.94C116.203 113.897 116.212 113.855 116.223 113.814C116.223 113.775 116.238 113.742 116.244 113.718C116.25 113.694 116.262 113.634 116.262 113.634Z" fill="#263238"/>
<path d="M117.063 119.436C117.063 119.436 118.167 118.359 120.474 118.359C122.781 118.359 123.963 119.436 123.963 119.436C122.922 120.064 121.729 120.396 120.513 120.396C119.297 120.396 118.104 120.064 117.063 119.436Z" fill="#4057A2"/>
<path d="M83.7002 120.516H106.632C106.903 120.516 107.171 120.463 107.421 120.36C107.672 120.256 107.899 120.104 108.09 119.913C108.282 119.721 108.434 119.494 108.537 119.244C108.641 118.994 108.694 118.725 108.693 118.455V111.801L111.222 109.557H83.7002C83.4295 109.557 83.1615 109.61 82.9115 109.714C82.6614 109.817 82.4342 109.969 82.2428 110.16C82.0514 110.352 81.8996 110.579 81.796 110.829C81.6925 111.079 81.6392 111.347 81.6392 111.618V118.455C81.6388 118.725 81.6918 118.994 81.7952 119.244C81.8987 119.494 82.0505 119.721 82.2419 119.913C82.4334 120.104 82.6608 120.256 82.911 120.36C83.1612 120.463 83.4294 120.516 83.7002 120.516Z" fill="#EBEBEB"/>
<path d="M83.7002 130.923H106.632C106.903 130.923 107.171 130.869 107.422 130.765C107.672 130.662 107.899 130.51 108.091 130.318C108.282 130.126 108.434 129.899 108.537 129.648C108.641 129.398 108.694 129.13 108.693 128.859V126.654L111.222 124.41H83.7002C83.4295 124.41 83.1615 124.463 82.9115 124.567C82.6614 124.67 82.4342 124.822 82.2428 125.013C82.0514 125.205 81.8996 125.432 81.796 125.682C81.6925 125.932 81.6392 126.2 81.6392 126.471V128.871C81.6415 129.416 81.8597 129.938 82.246 130.322C82.6322 130.707 83.1551 130.923 83.7002 130.923Z" fill="#EBEBEB"/>
<path d="M105.6 112.8C105.6 112.845 100.878 112.878 95.0522 112.878C89.2262 112.878 84.5042 112.845 84.5042 112.8C84.5042 112.755 89.2262 112.722 95.0522 112.722C100.878 112.722 105.6 112.767 105.6 112.8Z" fill="white"/>
<path d="M105.6 114.6C105.6 114.642 100.878 114.678 95.0522 114.678C89.2262 114.678 84.5042 114.642 84.5042 114.6C84.5042 114.558 89.2262 114.522 95.0522 114.522C100.878 114.522 105.6 114.549 105.6 114.6Z" fill="white"/>
<path d="M105.6 116.373C105.6 116.415 100.878 116.451 95.0522 116.451C89.2262 116.451 84.5042 116.415 84.5042 116.373C84.5042 116.331 89.2262 116.295 95.0522 116.295C100.878 116.295 105.6 116.328 105.6 116.373Z" fill="white"/>
<path d="M105.6 118.155C105.6 118.197 100.878 118.233 95.0522 118.233C89.2262 118.233 84.5042 118.197 84.5042 118.155C84.5042 118.113 89.2262 118.077 95.0522 118.077C100.878 118.077 105.6 118.11 105.6 118.155Z" fill="white"/>
<path d="M105.672 127.761C105.672 127.803 100.998 127.839 95.2352 127.839C89.4722 127.839 84.7952 127.803 84.7952 127.761C84.7952 127.719 89.4692 127.683 95.2352 127.683C101.001 127.683 105.672 127.716 105.672 127.761Z" fill="white"/>
<path d="M28.932 123.417C29.336 123.514 29.7163 123.692 30.0498 123.94C30.3834 124.188 30.6634 124.501 30.873 124.86C31.2876 125.583 31.5328 126.39 31.59 127.221C31.743 128.817 31.188 130.578 30.498 132.021C28.941 131.151 28.218 129.216 27.912 128.211C27.429 126.624 27.519 123.459 28.932 123.411" fill="#455A64"/>
<path d="M32.5681 134.277C32.3822 133.852 32.312 133.385 32.3647 132.924C32.4174 132.463 32.591 132.024 32.8681 131.652C33.1532 131.285 33.5087 130.98 33.9136 130.752C34.3185 130.525 34.7647 130.381 35.2261 130.329C35.4331 130.284 35.6474 130.284 35.8544 130.329C36.0614 130.374 36.2563 130.463 36.4261 130.59C36.564 130.736 36.6602 130.917 36.7045 131.113C36.7489 131.31 36.7397 131.514 36.6781 131.706C36.5506 132.088 36.3251 132.429 36.0241 132.696C35.0371 133.65 33.9061 134.391 32.5381 134.277" fill="#455A64"/>
<path d="M31.896 139.416C31.8783 139.307 31.8713 139.197 31.875 139.086C31.875 138.852 31.875 138.549 31.851 138.186C31.7899 137.191 31.8912 136.193 32.151 135.231C32.4299 134.266 32.9612 133.393 33.69 132.702C33.9132 132.497 34.1599 132.319 34.425 132.171C34.4958 132.131 34.5689 132.095 34.644 132.063C34.6688 132.048 34.6963 132.038 34.725 132.033C34.3756 132.243 34.048 132.487 33.747 132.762C33.0428 133.455 32.5266 134.316 32.247 135.264C31.9889 136.216 31.8746 137.201 31.908 138.186C31.908 138.567 31.908 138.873 31.908 139.086C31.9121 139.196 31.9081 139.307 31.896 139.416Z" fill="#263238"/>
<path d="M29.0761 125.835C29.0953 125.878 29.1103 125.924 29.1211 125.97C29.1511 126.072 29.1871 126.204 29.2291 126.366C29.3221 126.711 29.4511 127.212 29.6011 127.833C29.9011 129.075 30.3031 130.797 30.6991 132.705C31.0951 134.613 31.4131 136.353 31.6261 137.613C31.7311 138.243 31.8121 138.753 31.8661 139.113C31.8901 139.281 31.9081 139.413 31.9231 139.521C31.9278 139.569 31.9278 139.617 31.9231 139.665C31.9076 139.619 31.8955 139.572 31.8871 139.524C31.8661 139.419 31.8421 139.287 31.8091 139.119C31.7401 138.756 31.6471 138.249 31.5331 137.634C31.2991 136.377 30.9691 134.634 30.5731 132.735C30.1771 130.836 29.7931 129.105 29.5111 127.86C29.3701 127.26 29.2561 126.747 29.1751 126.384C29.1391 126.219 29.1091 126.084 29.0881 125.982C29.0784 125.934 29.0744 125.884 29.0761 125.835Z" fill="#263238"/>
<path d="M30.4981 135.708C30.1373 134.799 29.5656 133.989 28.8301 133.344C28.0947 132.7 27.2165 132.239 26.2681 132C25.7851 131.883 25.1851 131.868 24.8911 132.27C24.5971 132.672 24.8041 133.242 25.0771 133.659C25.6607 134.517 26.4845 135.183 27.4451 135.574C28.4057 135.965 29.4605 136.064 30.4771 135.858" fill="#455A64"/>
<path d="M26.796 133.419C26.8976 133.432 26.998 133.453 27.096 133.482C27.2148 133.51 27.3319 133.544 27.447 133.584C27.579 133.632 27.747 133.674 27.9 133.749C28.053 133.824 28.248 133.896 28.431 133.998C28.6319 134.1 28.8263 134.214 29.013 134.34C29.4432 134.625 29.8388 134.96 30.192 135.336C30.5384 135.718 30.8404 136.137 31.092 136.587C31.2029 136.781 31.3031 136.982 31.392 137.187C31.4689 137.367 31.536 137.551 31.593 137.739C31.653 137.907 31.677 138.069 31.713 138.207C31.7418 138.326 31.7638 138.446 31.779 138.567C31.7974 138.666 31.8074 138.766 31.809 138.867C31.782 138.867 31.734 138.429 31.509 137.754C31.4496 137.571 31.3805 137.392 31.302 137.217C31.2131 137.012 31.1129 136.811 31.002 136.617C30.7476 136.177 30.4458 135.767 30.102 135.393C29.7534 135.025 29.3673 134.694 28.95 134.406C28.752 134.28 28.566 134.157 28.38 134.064C28.212 133.968 28.0387 133.882 27.861 133.806C27.222 133.542 26.787 133.443 26.796 133.419Z" fill="#263238"/>
<path d="M36.33 45.5099L35.22 42.0448C36.7988 39.4829 37.3622 36.4231 36.7994 33.4668C36.2366 30.5106 34.5884 27.8717 32.1787 26.069C29.7691 24.2664 26.7723 23.4302 23.7774 23.725C20.7825 24.0197 18.0062 25.4241 15.9942 27.6619C13.9822 29.8998 12.8801 32.8093 12.9044 35.8186C12.9288 38.8278 14.0779 41.7191 16.1258 43.9241C18.1738 46.1291 20.9725 47.4884 23.9717 47.7346C26.971 47.9808 29.9539 47.0963 32.334 45.2549L36.33 45.5099Z" fill="#FAFAFA"/>
<path d="M36.3301 45.51H36.0781L35.3161 45.471L32.3161 45.306C32.3115 45.306 32.307 45.305 32.3028 45.3032C32.2985 45.3014 32.2948 45.2987 32.2916 45.2953C32.2885 45.2919 32.2862 45.2879 32.2847 45.2835C32.2832 45.2792 32.2827 45.2745 32.2831 45.27C32.2818 45.264 32.2818 45.2579 32.2831 45.252L32.3311 45.3C30.2465 46.9282 27.6831 47.8235 25.0381 47.847C24.3701 47.8434 23.7033 47.7903 23.0431 47.688C19.9757 47.2079 17.213 45.5599 15.3331 43.089C14.2861 41.698 13.5487 40.0993 13.1701 38.4C12.7587 36.5932 12.7752 34.7153 13.2181 32.916C13.2751 32.688 13.3351 32.457 13.3951 32.229C13.4551 32.001 13.5541 31.779 13.6321 31.554C13.7081 31.3264 13.7963 31.1031 13.8961 30.885C13.9981 30.669 14.1031 30.453 14.1961 30.234C14.2993 30.015 14.4176 29.8035 14.5501 29.601L14.9311 28.977L15.3691 28.377L15.5911 28.077C15.6661 27.981 15.7531 27.894 15.8341 27.801C17.1315 26.3093 18.7772 25.1613 20.6251 24.459C22.3843 23.7887 24.2733 23.5291 26.1481 23.7C27.9097 23.8751 29.6111 24.4364 31.1311 25.344C33.8324 26.9483 35.8026 29.5415 36.6241 32.574C36.7977 33.2237 36.922 33.8856 36.9961 34.554C37.0442 35.1788 37.0552 35.8059 37.0291 36.432C36.9142 38.4273 36.3015 40.3621 35.2471 42.06V42.033C35.6011 43.161 35.8711 44.031 36.0571 44.625C36.1471 44.925 36.2131 45.132 36.2611 45.285L36.3271 45.507C36.3271 45.507 36.2971 45.426 36.2461 45.276L36.0271 44.613C35.8351 44.013 35.5501 43.167 35.1841 42.054C35.1809 42.0453 35.1809 42.0357 35.1841 42.027C36.2187 40.3329 36.8156 38.4081 36.9211 36.426C36.9441 35.8057 36.9301 35.1846 36.8791 34.566C36.8042 33.9034 36.6788 33.2475 36.5041 32.604C35.8606 30.2696 34.526 28.1844 32.6756 26.6226C30.8251 25.0607 28.5454 24.0952 26.1361 23.853C24.285 23.6836 22.4195 23.939 20.6821 24.6C18.8623 25.2963 17.2417 26.4296 15.9631 27.9C15.8851 27.993 15.7981 28.077 15.7231 28.173L15.5041 28.473L15.0721 29.052L14.7001 29.67C14.5681 29.8718 14.4499 30.0823 14.3461 30.3C14.2441 30.513 14.1421 30.729 14.0461 30.942C13.9482 31.1571 13.8621 31.3775 13.7881 31.602C13.7101 31.824 13.6171 32.043 13.5511 32.268C13.4851 32.493 13.4341 32.721 13.3771 32.946C12.9421 34.7176 12.9236 36.566 13.3231 38.346C13.8429 40.6834 15.0529 42.8109 16.7962 44.4525C18.5395 46.0942 20.7357 47.1743 23.1001 47.553C23.7543 47.6557 24.415 47.7108 25.0771 47.718C25.6952 47.7153 26.3121 47.6642 26.9221 47.565C28.8877 47.2447 30.7432 46.4417 32.3221 45.228C32.3252 45.2247 32.3289 45.2221 32.333 45.2203C32.3372 45.2185 32.3416 45.2176 32.3461 45.2176C32.3506 45.2176 32.3551 45.2185 32.3592 45.2203C32.3633 45.2221 32.367 45.2247 32.3701 45.228C32.3745 45.2341 32.3769 45.2414 32.3769 45.249C32.3769 45.2565 32.3745 45.2638 32.3701 45.27L32.3461 45.216L35.3101 45.42L36.0781 45.474L36.3301 45.51Z" fill="#263238"/>
<path d="M21.5821 35.742C21.5821 35.9835 21.5105 36.2196 21.3764 36.4203C21.2422 36.6211 21.0515 36.7776 20.8284 36.8701C20.6053 36.9625 20.3598 36.9866 20.1229 36.9395C19.8861 36.8924 19.6685 36.7761 19.4978 36.6054C19.327 36.4346 19.2107 36.2171 19.1636 35.9802C19.1165 35.7434 19.1407 35.4978 19.2331 35.2747C19.3255 35.0516 19.482 34.8609 19.6828 34.7268C19.8836 34.5926 20.1196 34.521 20.3611 34.521C20.6847 34.5218 20.9948 34.6507 21.2236 34.8795C21.4525 35.1083 21.5813 35.4184 21.5821 35.742Z" fill="#263238"/>
<path d="M26.472 35.742C26.472 35.9835 26.4004 36.2196 26.2663 36.4203C26.1321 36.6211 25.9414 36.7776 25.7183 36.8701C25.4952 36.9625 25.2497 36.9866 25.0128 36.9395C24.776 36.8924 24.5584 36.7761 24.3877 36.6054C24.2169 36.4346 24.1006 36.2171 24.0535 35.9802C24.0064 35.7434 24.0306 35.4978 24.123 35.2747C24.2154 35.0516 24.3719 34.8609 24.5727 34.7268C24.7735 34.5926 25.0095 34.521 25.251 34.521C25.5746 34.5218 25.8847 34.6507 26.1135 34.8795C26.3423 35.1083 26.4712 35.4184 26.472 35.742Z" fill="#263238"/>
<path d="M31.35 35.1329C31.4704 35.342 31.5261 35.5822 31.5101 35.8229C31.4941 36.0637 31.4071 36.2944 31.2601 36.4857C31.1132 36.6771 30.9128 36.8206 30.6843 36.8982C30.4558 36.9758 30.2094 36.9839 29.9763 36.9215C29.7432 36.8592 29.5338 36.7291 29.3745 36.5478C29.2152 36.3665 29.1133 36.1421 29.0815 35.9029C29.0496 35.6637 29.0894 35.4205 29.1958 35.2038C29.3022 34.9872 29.4703 34.807 29.679 34.6859C29.818 34.6052 29.9716 34.5528 30.1309 34.5316C30.2902 34.5105 30.4521 34.5209 30.6073 34.5625C30.7626 34.604 30.9081 34.6758 31.0355 34.7737C31.163 34.8715 31.2699 34.9936 31.35 35.1329Z" fill="#263238"/>
<path d="M31.8362 89.6996L19.2002 88.3916L13.8482 76.2446L9.69019 77.3276C9.69019 77.3276 12.7622 90.1646 16.2002 92.1536C19.6382 94.1426 31.3832 94.4996 31.3832 94.4996L31.8362 89.6996Z" fill="#4057A2"/>
<path d="M38.5536 95.8781C40.6097 93.5647 40.4011 90.0226 38.0878 87.9665C35.7744 85.9104 32.2323 86.119 30.1762 88.4324C28.1201 90.7457 28.3287 94.2879 30.6421 96.3439C32.9554 98.4 36.4976 98.1914 38.5536 95.8781Z" fill="#263238"/>
<path d="M34.3652 97.7641C33.0666 97.7641 31.8082 97.3138 30.8043 96.49C29.8005 95.6662 29.1134 94.5198 28.8601 93.2461C28.6067 91.9725 28.8028 90.6504 29.415 89.5051C30.0271 88.3599 31.0175 87.4623 32.2172 86.9653C33.417 86.4684 34.7519 86.4028 35.9946 86.7798C37.2373 87.1568 38.3108 87.9529 39.0323 89.0327C39.7537 90.1124 40.0785 91.4089 39.9512 92.7013C39.8239 93.9936 39.2524 95.2018 38.3342 96.1201C37.8142 96.6429 37.1956 97.0574 36.5143 97.3396C35.8331 97.6218 35.1026 97.7661 34.3652 97.7641ZM34.3652 86.5561C33.0701 86.5548 31.8146 87.0025 30.8126 87.8231C29.8106 88.6437 29.1241 89.7863 28.8701 91.0562C28.6161 92.3262 28.8103 93.6449 29.4196 94.7877C30.0289 95.9306 31.0156 96.8268 32.2116 97.3237C33.4076 97.8206 34.7389 97.8874 35.9787 97.5128C37.2184 97.1382 38.2899 96.3453 39.0106 95.2692C39.7313 94.1932 40.0566 92.9005 39.9311 91.6115C39.8055 90.3225 39.237 89.1169 38.3222 88.2001C37.8041 87.678 37.1876 87.2639 36.5084 86.9817C35.8291 86.6995 35.1007 86.5549 34.3652 86.5561Z" fill="#263238"/>
<path d="M18.0673 93.1135C20.3244 92.5716 21.7149 90.3025 21.173 88.0454C20.6311 85.7883 18.3621 84.3978 16.1049 84.9397C13.8478 85.4816 12.4574 87.7507 12.9992 90.0078C13.5411 92.2649 15.8102 93.6554 18.0673 93.1135Z" fill="#263238"/>
<path d="M13.8946 77.2268C15.2361 75.8853 15.2361 73.7104 13.8946 72.3689C12.5532 71.0275 10.3783 71.0275 9.03682 72.3689C7.69537 73.7104 7.69537 75.8853 9.03682 77.2268C10.3783 78.5682 12.5532 78.5682 13.8946 77.2268Z" fill="#263238"/>
<path d="M16.8195 72.9391L13.9911 75.3276L12.9711 74.1196L15.7995 71.7311C15.9484 71.6054 16.1412 71.5439 16.3355 71.5603C16.5297 71.5767 16.7095 71.6696 16.8353 71.8185L16.9049 71.901C16.9677 71.9747 17.0153 72.06 17.0449 72.1521C17.0746 72.2443 17.0858 72.3413 17.0779 72.4378C17.0699 72.5342 17.043 72.6282 16.9987 72.7142C16.9544 72.8002 16.8935 72.8766 16.8195 72.9391Z" fill="#263238"/>
<path d="M13.2271 68.5651V72.1651C13.2271 72.1929 13.216 72.2196 13.1963 72.2393C13.1766 72.259 13.1499 72.2701 13.1221 72.2701H11.7541C11.7262 72.2701 11.6995 72.259 11.6798 72.2393C11.6601 72.2196 11.6491 72.1929 11.6491 72.1651V68.5651C11.6491 68.3701 11.7265 68.1832 11.8643 68.0454C12.0022 67.9075 12.1891 67.8301 12.3841 67.8301H12.4921C12.687 67.8301 12.8739 67.9075 13.0118 68.0454C13.1496 68.1832 13.2271 68.3701 13.2271 68.5651Z" fill="#263238"/>
<path d="M10.6797 68.5786L11.4657 72.0918C11.4718 72.1189 11.4668 72.1474 11.4519 72.1709C11.437 72.1944 11.4133 72.2111 11.3861 72.2172L10.0511 72.5158C10.024 72.5219 9.99548 72.5169 9.97196 72.502C9.94845 72.4871 9.93182 72.4634 9.92574 72.4363L9.13981 68.9231C9.09726 68.7329 9.13201 68.5335 9.23643 68.3689C9.34086 68.2043 9.50639 68.0879 9.69662 68.0454L9.80202 68.0218C9.99225 67.9792 10.1916 68.014 10.3562 68.1184C10.5208 68.2228 10.6372 68.3884 10.6797 68.5786Z" fill="#263238"/>
<path d="M7.93952 69.4588L9.73952 72.5765C9.75345 72.6006 9.75722 72.6293 9.75001 72.6562C9.7428 72.6831 9.7252 72.706 9.70109 72.7199L8.51636 73.4039C8.49225 73.4178 8.46359 73.4216 8.43669 73.4144C8.40979 73.4072 8.38685 73.3896 8.37293 73.3655L6.57293 70.2478C6.47546 70.079 6.44905 69.8784 6.4995 69.6901C6.54996 69.5018 6.67314 69.3412 6.84196 69.2438L6.93549 69.1898C7.10431 69.0923 7.30493 69.0659 7.49322 69.1163C7.68152 69.1668 7.84205 69.29 7.93952 69.4588Z" fill="#263238"/>
<path d="M86.7537 121.167L90.5359 119.559L79.6224 93.8979L75.8403 95.5065L86.7537 121.167Z" fill="#4057A2"/>
<path d="M80.1644 96.3497C82.165 93.9882 81.8724 90.452 79.5109 88.4514C77.1494 86.4509 73.6132 86.7435 71.6126 89.105C69.612 91.4665 69.9046 95.0026 72.2661 97.0032C74.6276 99.0038 78.1638 98.7112 80.1644 96.3497Z" fill="#263238"/>
<path d="M75.9 98.3518C75.0208 98.3523 74.1538 98.1463 73.3688 97.7504C72.5837 97.3546 71.9026 96.78 71.3802 96.0728C70.8578 95.3657 70.5087 94.5457 70.361 93.679C70.2134 92.8123 70.2713 91.9231 70.53 91.0828C70.8368 90.0918 71.4125 89.2052 72.1929 88.5216C72.9734 87.8381 73.9281 87.3843 74.9509 87.2108C75.9738 87.0373 77.0247 87.1509 77.9869 87.5388C78.9491 87.9268 79.7849 88.5739 80.4014 89.4084C81.0178 90.2429 81.3908 91.2319 81.4789 92.2656C81.5669 93.2994 81.3666 94.3373 80.9002 95.264C80.4338 96.1907 79.7195 96.9699 78.8368 97.515C77.9541 98.0601 76.9375 98.3498 75.9 98.3518ZM75.9 87.1378C74.8643 87.1389 73.8492 87.4272 72.9676 87.9708C72.086 88.5144 71.3725 89.2919 70.9065 90.2169C70.4404 91.1418 70.2401 92.1779 70.3278 93.2099C70.4155 94.2419 70.7878 95.2293 71.4033 96.0623C72.0187 96.8953 72.8532 97.5413 73.8139 97.9283C74.7746 98.3153 75.8238 98.4282 76.8449 98.2545C77.8659 98.0807 78.8187 97.6271 79.5973 96.9441C80.3759 96.2611 80.9498 95.3755 81.255 94.3858C81.6908 92.9676 81.5461 91.4344 80.8526 90.1227C80.1591 88.8111 78.9735 87.8282 77.556 87.3898C77.0139 87.2219 76.4495 87.137 75.882 87.1378H75.9Z" fill="#263238"/>
<path d="M87.2352 109.483C87.8567 107.246 86.5474 104.929 84.3109 104.308C82.0744 103.686 79.7576 104.996 79.1361 107.232C78.5146 109.469 79.8238 111.786 82.0603 112.407C84.2968 113.029 86.6137 111.719 87.2352 109.483Z" fill="#263238"/>
<path d="M89.5231 124.875C91.4202 124.875 92.9581 123.337 92.9581 121.44C92.9581 119.543 91.4202 118.005 89.5231 118.005C87.626 118.005 86.0881 119.543 86.0881 121.44C86.0881 123.337 87.626 124.875 89.5231 124.875Z" fill="#263238"/>
<path d="M85.0305 124.899L86.9539 121.743L88.3039 122.566L86.3805 125.722C86.279 125.888 86.1156 126.008 85.9262 126.054C85.7368 126.1 85.5368 126.069 85.3704 125.967L85.2781 125.911C85.1953 125.861 85.1232 125.795 85.0658 125.717C85.0085 125.639 84.9672 125.551 84.9442 125.457C84.9211 125.363 84.9169 125.265 84.9317 125.169C84.9465 125.074 84.9801 124.982 85.0305 124.899Z" fill="#263238"/>
<path d="M89.8194 127.909L88.6795 124.495C88.6707 124.468 88.6727 124.439 88.6852 124.415C88.6976 124.39 88.7194 124.371 88.7459 124.362L90.0435 123.929C90.0699 123.92 90.0987 123.922 90.1236 123.934C90.1485 123.947 90.1675 123.969 90.1763 123.995L91.3162 127.41C91.3457 127.502 91.3567 127.599 91.3487 127.695C91.3408 127.791 91.3139 127.885 91.2697 127.97C91.2255 128.056 91.1649 128.133 91.0912 128.195C91.0176 128.257 90.9323 128.305 90.8404 128.334L90.7379 128.368C90.5553 128.427 90.3569 128.412 90.1853 128.326C90.0137 128.24 89.8824 128.091 89.8194 127.909Z" fill="#263238"/>
<path d="M92.234 127.091L90.3761 124.007C90.3689 123.995 90.3642 123.982 90.3622 123.969C90.3601 123.955 90.3608 123.941 90.3641 123.928C90.3674 123.914 90.3733 123.902 90.3815 123.891C90.3897 123.879 90.4 123.87 90.4118 123.863L91.5835 123.157C91.5953 123.15 91.6084 123.145 91.6221 123.143C91.6357 123.141 91.6496 123.142 91.663 123.145C91.6764 123.148 91.689 123.154 91.7001 123.162C91.7112 123.171 91.7205 123.181 91.7277 123.193L93.5856 126.276C93.6862 126.443 93.7163 126.643 93.6694 126.833C93.6225 127.022 93.5023 127.185 93.3353 127.285L93.2428 127.341C93.0759 127.441 92.8758 127.472 92.6866 127.425C92.4974 127.378 92.3346 127.258 92.234 127.091Z" fill="#263238"/>
<path d="M94.5531 125.391L91.8586 123.003C91.8377 122.985 91.8251 122.959 91.8234 122.931C91.8217 122.903 91.8311 122.876 91.8496 122.855L92.7548 121.833C92.7732 121.812 92.7992 121.8 92.827 121.798C92.8548 121.796 92.8822 121.806 92.903 121.824L95.5976 124.212C95.7435 124.341 95.8321 124.523 95.8438 124.717C95.8556 124.912 95.7896 125.103 95.6603 125.249L95.5887 125.33C95.4592 125.475 95.2775 125.563 95.0834 125.574C94.8893 125.585 94.6986 125.519 94.5531 125.391Z" fill="#263238"/>
<path d="M32.7002 86.3217C32.7002 86.3217 33.1052 125.664 55.1822 126.432C77.2592 127.2 78.1862 86.6037 78.1862 86.3217C78.1862 86.3217 75.5792 80.4567 55.4432 80.6847C35.3072 80.9127 32.7002 86.3217 32.7002 86.3217Z" fill="#4057A2"/>
<path d="M45.0962 79.3979H63.7562C64.974 79.3979 65.9612 78.4107 65.9612 77.1929V76.872C65.9612 75.6542 64.974 74.667 63.7562 74.667H45.0962C43.8784 74.667 42.8912 75.6542 42.8912 76.872V77.1929C42.8912 78.4107 43.8784 79.3979 45.0962 79.3979Z" fill="#263238"/>
<path d="M53.6222 44.415H55.2332V36.27H53.6222V44.415Z" fill="#263238"/>
<path d="M79.0604 68.6631C81.6041 68.0585 83.176 65.5064 82.5715 62.9627C81.9669 60.4191 79.4147 58.8471 76.8711 59.4517C74.3274 60.0563 72.7555 62.6084 73.3601 65.1521C73.9646 67.6957 76.5168 69.2677 79.0604 68.6631Z" fill="#4057A2"/>
<path d="M31.226 68.3557C33.7758 67.7773 35.3739 65.2415 34.7955 62.6918C34.2172 60.142 31.6814 58.5439 29.1316 59.1222C26.5819 59.7006 24.9837 62.2364 25.5621 64.7862C26.1404 67.3359 28.6763 68.934 31.226 68.3557Z" fill="#4057A2"/>
<path d="M53.49 42.648C53.49 42.648 34.242 42.417 31.2 59.1C28.158 75.783 44.43 76.083 49.113 76.398C51.234 76.542 55.776 76.557 59.784 76.485C68.658 76.332 74.928 74.616 77.061 66.384C77.3151 65.4188 77.4748 64.4311 77.538 63.435C78.099 54.399 72 42.204 53.49 42.648Z" fill="#4057A2"/>
<path d="M67.4522 68.0399L39.4892 68.4749C38.7915 68.4872 38.0982 68.3618 37.449 68.1059C36.7998 67.8499 36.2075 67.4685 35.7059 66.9833C35.2043 66.4982 34.8034 65.9189 34.5259 65.2786C34.2485 64.6383 34.1001 63.9496 34.0892 63.2519C34.0772 62.5541 34.203 61.8607 34.4593 61.2115C34.7156 60.5623 35.0973 59.97 35.5827 59.4685C36.068 58.967 36.6475 58.566 37.288 58.2886C37.9284 58.0112 38.6173 57.8628 39.3152 57.8519L67.2782 57.4169C67.976 57.4042 68.6694 57.5293 69.3188 57.7851C69.9681 58.0409 70.5606 58.4223 71.0623 58.9076C71.5639 59.3928 71.9649 59.9722 72.2422 60.6127C72.5194 61.2532 72.6676 61.9421 72.6782 62.6399C72.6905 63.3378 72.565 64.0314 72.3088 64.6807C72.0527 65.3301 71.671 65.9226 71.1855 66.4242C70.7001 66.9258 70.1204 67.3267 69.4798 67.604C68.8392 67.8812 68.1501 68.0294 67.4522 68.0399Z" fill="#263238"/>
<path d="M45.3 62.673C45.235 63.0036 45.0734 63.3076 44.8356 63.5464C44.5979 63.7852 44.2947 63.9481 43.9643 64.0146C43.6339 64.0811 43.2913 64.0482 42.9797 63.9199C42.668 63.7917 42.4014 63.574 42.2135 63.2942C42.0256 63.0145 41.9249 62.6853 41.9241 62.3484C41.9232 62.0114 42.0223 61.6817 42.2088 61.401C42.3954 61.1204 42.6609 60.9013 42.9719 60.7716C43.2829 60.6418 43.6254 60.6071 43.956 60.672C44.1757 60.7151 44.3847 60.801 44.5712 60.9249C44.7576 61.0488 44.9178 61.2082 45.0426 61.394C45.1674 61.5799 45.2544 61.7885 45.2986 62.0079C45.3427 62.2274 45.3432 62.4534 45.3 62.673Z" fill="white"/>
<path d="M64.8272 62.361C64.7627 62.6919 64.6015 62.9963 64.364 63.2355C64.1265 63.4748 63.8234 63.6382 63.4929 63.7051C63.1625 63.7721 62.8197 63.7395 62.5078 63.6115C62.1959 63.4835 61.929 63.2659 61.7408 62.9861C61.5526 62.7064 61.4517 62.3771 61.4507 62.04C61.4497 61.7029 61.5488 61.373 61.7353 61.0922C61.9218 60.8114 62.1875 60.5922 62.4986 60.4624C62.8098 60.3326 63.1524 60.298 63.4832 60.363C63.9262 60.4501 64.3166 60.7094 64.5686 61.084C64.8206 61.4586 64.9136 61.9179 64.8272 62.361Z" fill="white"/>
<path d="M62.016 101.946C61.9064 103.447 61.3541 104.882 60.429 106.07C59.5038 107.257 58.2474 108.143 56.8185 108.617C55.3896 109.09 53.8524 109.129 52.4013 108.729C50.9503 108.328 49.6505 107.507 48.6663 106.368C47.6822 105.229 47.0578 103.824 46.8723 102.33C46.6867 100.836 46.9483 99.321 47.6238 97.9758C48.2994 96.6307 49.3587 95.5161 50.6677 94.773C51.9767 94.0298 53.4767 93.6915 54.978 93.8009C56.9912 93.9483 58.8634 94.889 60.1832 96.4164C61.5029 97.9437 62.1622 99.9326 62.016 101.946Z" fill="#263238"/>
<path d="M59.9552 101.796C59.8751 102.89 59.4724 103.936 58.7979 104.801C58.1234 105.667 57.2075 106.313 56.166 106.657C55.1244 107.002 54.004 107.03 52.9465 106.738C51.889 106.446 50.9418 105.847 50.2247 105.017C49.5077 104.186 49.053 103.162 48.9181 102.073C48.7832 100.984 48.9742 99.8801 49.4669 98.8999C49.9597 97.9197 50.732 97.1076 51.6863 96.5663C52.6406 96.025 53.734 95.7789 54.8282 95.8591C55.5548 95.9119 56.2639 96.1074 56.9149 96.4344C57.5658 96.7615 58.146 97.2136 58.6222 97.765C59.0983 98.3163 59.4611 98.9562 59.6899 99.6479C59.9186 100.34 60.0088 101.07 59.9552 101.796Z" fill="white"/>
<path d="M57.2822 102.804C57.2398 102.501 57.2228 102.195 57.2312 101.889C57.2162 101.316 57.2042 100.497 57.2042 99.4889L57.2642 99.5999L54.4112 97.9349H54.5702L51.6902 99.5519C51.6122 99.6839 51.7952 99.3749 51.7772 99.4079V99.8339V100.263C51.7772 100.545 51.7772 100.827 51.7622 101.103C51.7622 101.655 51.7412 102.189 51.7322 102.705L51.6542 102.567L54.4742 104.289H54.3482C55.2272 103.815 55.9532 103.437 56.4482 103.179C56.7145 103.027 56.9924 102.897 57.2792 102.789C57.0554 102.971 56.8143 103.131 56.5592 103.266C56.0732 103.566 55.3592 103.989 54.4592 104.508L54.3962 104.544L54.3332 104.508L51.4772 102.843L51.3992 102.798V102.702C51.3992 102.186 51.4052 101.652 51.4172 101.1C51.4172 100.824 51.4172 100.545 51.4172 100.26V99.8339V99.4199C51.3992 99.4529 51.5822 99.1469 51.5042 99.2759L54.3932 97.6739L54.4772 97.6289L54.5552 97.6769L57.3722 99.3989L57.4352 99.4379V99.5099C57.4022 100.548 57.3692 101.382 57.3392 101.949C57.3468 102.235 57.3278 102.521 57.2822 102.804Z" fill="#4057A2"/>
<path d="M56.3067 37.9824C57.3435 36.9455 57.3435 35.2645 56.3067 34.2276C55.2698 33.1908 53.5888 33.1908 52.5519 34.2276C51.5151 35.2645 51.5151 36.9455 52.5519 37.9823C53.5888 39.0192 55.2698 39.0192 56.3067 37.9824Z" fill="#4057A2"/>
<path d="M50.1872 61.8866C50.3132 61.9016 50.2502 62.4866 50.6222 63.2876C50.8329 63.7474 51.1398 64.1566 51.5222 64.4876C51.9703 64.8819 52.5282 65.13 53.1212 65.1986C53.7173 65.2371 54.3111 65.0949 54.8252 64.7906C55.2602 64.5376 55.6365 64.1951 55.9292 63.7856C56.4392 63.0746 56.4842 62.4776 56.6102 62.4866C56.6612 62.4866 56.7122 62.6366 56.7122 62.9186C56.7008 63.3204 56.5982 63.7143 56.4122 64.0706C56.1327 64.6092 55.7195 65.0668 55.2122 65.3996C54.585 65.8416 53.8211 66.0459 53.0571 65.9761C52.2931 65.9063 51.5788 65.5669 51.0422 65.0186C50.6041 64.5997 50.2817 64.0748 50.1062 63.4946C49.9811 63.1076 49.9482 62.6967 50.0102 62.2946C50.0612 62.0156 50.1392 61.8776 50.1872 61.8866Z" fill="white"/>
<path d="M75.816 69.6599C75.786 69.6599 76.131 69.1199 76.464 68.1749C76.8782 66.9373 77.1401 65.6539 77.244 64.3529C77.3642 63.0566 77.3942 61.7535 77.334 60.4529C77.313 59.9519 77.289 59.5529 77.265 59.2529C77.2448 59.1079 77.2397 58.9611 77.25 58.8149C77.2885 58.9563 77.3136 59.1009 77.325 59.2469C77.367 59.5259 77.409 59.9309 77.445 60.4469C77.5391 61.7579 77.5241 63.0745 77.4 64.3829C77.2945 65.6961 77.015 66.9894 76.569 68.2289C76.4278 68.6028 76.2573 68.9649 76.059 69.3119C75.9881 69.4347 75.9069 69.5511 75.816 69.6599Z" fill="#263238"/>
<path d="M31.2361 58.542C31.2191 58.6877 31.1879 58.8314 31.1431 58.971C31.1041 59.106 31.0621 59.271 31.0231 59.469C30.9841 59.667 30.9241 59.883 30.8881 60.132C30.7829 60.7102 30.7128 61.2943 30.6781 61.881C30.6377 62.5988 30.6477 63.3186 30.7081 64.035C30.7751 64.7502 30.8914 65.4598 31.0561 66.159C31.1938 66.7309 31.3661 67.2939 31.5721 67.845C31.6531 68.082 31.7461 68.289 31.8211 68.475C31.8961 68.661 31.9681 68.817 32.0281 68.943C32.0965 69.0725 32.1527 69.2081 32.1961 69.348C32.1107 69.229 32.0364 69.1025 31.9741 68.97C31.8893 68.82 31.8122 68.6658 31.7431 68.508C31.6591 68.328 31.5571 68.121 31.4701 67.884C31.2473 67.3344 31.0629 66.77 30.9181 66.195C30.7425 65.4892 30.6202 64.7711 30.5521 64.047C30.4909 63.3235 30.4849 62.5964 30.5341 61.872C30.5759 61.2801 30.6581 60.6917 30.7801 60.111C30.8251 59.862 30.8881 59.643 30.9391 59.448C30.9901 59.253 31.0381 59.088 31.0831 58.953C31.1228 58.8121 31.174 58.6746 31.2361 58.542Z" fill="#263238"/>
<path d="M32.5981 86.2891L32.7121 86.3221L33.0481 86.4361L34.3261 86.8861L35.2501 87.2161C35.5891 87.3301 35.9641 87.4381 36.3631 87.5611C37.1641 87.7981 38.0671 88.1071 39.0931 88.3471L40.6921 88.7581C41.2501 88.8991 41.8381 89.0041 42.4441 89.1361C43.6441 89.4121 44.9611 89.6011 46.3441 89.8231C49.335 90.2334 52.3493 90.4488 55.3681 90.4681C58.387 90.4503 61.4015 90.2349 64.3921 89.8231C65.7661 89.6011 67.0741 89.4151 68.2921 89.1361C68.8921 89.0071 69.4921 88.9021 70.0441 88.7611L71.6461 88.3501C72.6691 88.1101 73.5721 87.8011 74.3731 87.5641C74.7721 87.4411 75.1471 87.3331 75.4861 87.2191L76.4101 86.8891L77.6881 86.4391L78.0241 86.3251C78.0619 86.3101 78.1011 86.2991 78.1411 86.2921L78.0301 86.3401L77.7001 86.4691L76.4311 86.9461L75.4861 87.3001C75.1501 87.4171 74.7751 87.5281 74.3761 87.6571C73.5751 87.9031 72.6751 88.2181 71.6491 88.4671L70.0471 88.8871C69.4921 89.0311 68.9011 89.1391 68.2951 89.2741C67.0951 89.5561 65.7751 89.7481 64.3951 89.9761C61.3982 90.3966 58.3764 90.6161 55.3501 90.6331C52.3248 90.6139 49.3042 90.3934 46.3081 89.9731C44.9311 89.7481 43.6081 89.5531 42.4081 89.2711C41.8081 89.1361 41.2081 89.0281 40.6561 88.8841L39.0541 88.4641C38.0281 88.2151 37.1281 87.9001 36.3271 87.6541C35.9281 87.5251 35.5561 87.4141 35.2171 87.2971L34.2961 86.9521L33.0271 86.4751L32.6971 86.3461C32.6624 86.3303 32.6293 86.3112 32.5981 86.2891Z" fill="#263238"/>
<g opacity="0.3">
<path d="M32.7002 86.3217C32.7002 86.3217 35.3072 80.9217 55.4432 80.6847C75.5792 80.4477 78.1862 86.3217 78.1862 86.3217C78.1862 86.3217 57.8642 96.3387 32.7002 86.3217Z" fill="black"/>
</g>
<path d="M51.051 43.8958C51.0281 43.898 51.005 43.898 50.982 43.8958L50.781 43.9168C50.601 43.9348 50.337 43.9408 49.998 43.9798C49.0415 44.0726 48.0923 44.23 47.157 44.4508C42.3194 45.5587 38.0524 48.3941 35.157 52.4248C33.7581 54.3617 32.699 56.5226 32.025 58.8148C31.92 59.1388 31.863 59.3968 31.812 59.5678L31.755 59.7658C31.7496 59.7887 31.7416 59.8108 31.731 59.8318C31.727 59.809 31.727 59.7856 31.731 59.7628C31.731 59.7088 31.755 59.6428 31.773 59.5618C31.815 59.3878 31.86 59.1268 31.956 58.7968C32.2064 57.8648 32.5273 56.9531 32.916 56.0698C34.1983 53.1343 36.1505 50.54 38.616 48.4948C41.092 46.465 44.0089 45.0431 47.133 44.3428C48.0738 44.129 49.0296 43.9876 49.992 43.9198C50.334 43.8898 50.592 43.8928 50.778 43.8838H50.982C51.03 43.8898 51.051 43.8928 51.051 43.8958Z" fill="white"/>
<path d="M32.2202 66.9899C32.1 66.8041 32.007 66.602 31.9442 66.3899C31.5884 65.3873 31.4225 64.3272 31.4552 63.2639C31.4467 63.0431 31.473 62.8224 31.5332 62.6099C31.5812 62.6099 31.5152 63.6119 31.7072 64.8239C31.8992 66.0359 32.2652 66.9719 32.2202 66.9899Z" fill="white"/>
<path d="M27.1711 65.4387C27.1711 65.4387 27.1021 65.3907 27.0091 65.2767C26.8766 65.1151 26.7628 64.939 26.6701 64.7517C26.3498 64.1315 26.2272 63.4281 26.3189 62.7361C26.4106 62.0441 26.7123 61.3969 27.1831 60.8817C27.3211 60.7238 27.4771 60.5829 27.6481 60.4617C27.7069 60.4122 27.7739 60.3736 27.8461 60.3477C27.8641 60.3717 27.5941 60.5547 27.2671 60.9477C26.838 61.4616 26.5634 62.0868 26.4752 62.7506C26.3871 63.4143 26.489 64.0895 26.7691 64.6977C26.9791 65.1747 27.1921 65.4207 27.1711 65.4387Z" fill="white"/>
<path d="M54.6 34.254C54.3659 34.2282 54.13 34.2232 53.895 34.239C53.6152 34.2635 53.3448 34.3518 53.1044 34.4971C52.864 34.6424 52.6601 34.8409 52.5084 35.0772C52.3566 35.3136 52.261 35.5815 52.2288 35.8606C52.1967 36.1396 52.2289 36.4223 52.323 36.687C52.404 36.9064 52.5044 37.1183 52.623 37.32C52.623 37.32 52.563 37.284 52.479 37.188C52.3638 37.0491 52.2725 36.8919 52.209 36.723C52.0946 36.4428 52.0493 36.1392 52.077 35.8379C52.1047 35.5365 52.2046 35.2463 52.3682 34.9917C52.5319 34.7372 52.7544 34.5258 53.0171 34.3754C53.2797 34.225 53.5747 34.1402 53.877 34.128C54.0566 34.1155 54.237 34.1327 54.411 34.179C54.546 34.2 54.6 34.245 54.6 34.254Z" fill="white"/>
<path d="M80.7482 61.7997C80.7152 61.8357 80.2502 61.3887 79.5482 61.0527C78.8462 60.7167 78.2072 60.6177 78.2132 60.5697C78.7022 60.5575 79.1857 60.6756 79.6142 60.9117C80.0652 61.1003 80.4569 61.4071 80.7482 61.7997Z" fill="white"/>
<path d="M39.6 114.321C39.5863 114.303 39.5743 114.284 39.564 114.264L39.465 114.087C39.375 113.916 39.255 113.688 39.099 113.397C39.021 113.247 38.937 113.079 38.841 112.899L38.559 112.299C38.355 111.864 38.127 111.369 37.902 110.799C37.788 110.52 37.668 110.226 37.542 109.923C37.416 109.62 37.308 109.29 37.185 108.957C36.927 108.294 36.708 107.565 36.453 106.809C35.982 105.279 35.52 103.584 35.115 101.784C34.71 99.9839 34.416 98.2469 34.176 96.6659C33.936 95.0849 33.78 93.6659 33.684 92.4479C33.627 91.8479 33.591 91.3019 33.561 90.8219C33.531 90.3419 33.504 89.9219 33.495 89.5919C33.486 89.2619 33.477 89.0069 33.468 88.8149V88.6139C33.4648 88.591 33.4648 88.5678 33.468 88.5449C33.4715 88.5678 33.4715 88.5911 33.468 88.6139L33.486 88.8149C33.486 89.0039 33.519 89.2649 33.54 89.5889C33.561 89.9129 33.591 90.3389 33.633 90.8159C33.675 91.2929 33.714 91.8389 33.78 92.4389C33.888 93.6389 34.08 95.0669 34.305 96.6389C34.53 98.2109 34.857 99.9389 35.253 101.739C35.649 103.539 36.114 105.231 36.573 106.758C36.828 107.514 37.041 108.24 37.293 108.903C37.413 109.239 37.527 109.56 37.641 109.869L37.989 110.751C38.205 111.312 38.427 111.81 38.625 112.251L38.895 112.851C38.982 113.034 39.066 113.202 39.141 113.355L39.477 114.057L39.561 114.24C39.5792 114.264 39.5924 114.292 39.6 114.321Z" fill="white"/>
<path d="M27.8611 89.8617C27.1291 89.8894 26.3962 89.8633 25.6681 89.7837C24.9365 89.7581 24.2077 89.6809 23.4871 89.5527C24.219 89.525 24.952 89.5511 25.6801 89.6307C26.4116 89.6561 27.1404 89.7333 27.8611 89.8617Z" fill="white"/>
<path d="M16.5752 83.457C16.1497 82.8372 15.7678 82.1887 15.4322 81.516C15.0518 80.868 14.717 80.1944 14.4302 79.5C14.8544 80.1211 15.2353 80.7706 15.5702 81.444C15.9525 82.0903 16.2883 82.763 16.5752 83.457Z" fill="white"/>
<path d="M50.25 123.78C50.1319 123.778 50.0143 123.764 49.899 123.738C49.5816 123.681 49.268 123.605 48.96 123.51C48.5025 123.37 48.0554 123.199 47.622 122.997C47.0941 122.742 46.5866 122.447 46.104 122.115C45.6269 121.774 45.1775 121.396 44.76 120.984C44.422 120.645 44.1091 120.282 43.824 119.898C43.6287 119.641 43.4513 119.372 43.293 119.091C43.2283 118.992 43.1749 118.886 43.134 118.776C43.158 118.761 43.41 119.196 43.911 119.832C44.2055 120.202 44.5232 120.552 44.862 120.882C45.6924 121.688 46.6452 122.359 47.685 122.868C48.1098 123.073 48.5466 123.252 48.993 123.405C49.761 123.663 50.256 123.75 50.25 123.78Z" fill="white"/>
<path d="M54.8522 109.902C54.7828 109.914 54.7126 109.921 54.6422 109.923C54.4426 109.94 54.2423 109.946 54.0422 109.941C53.2962 109.925 52.5561 109.804 51.8432 109.584C51.3506 109.431 50.871 109.238 50.4092 109.008C49.8796 108.736 49.3773 108.413 48.9092 108.045C47.8248 107.212 46.97 106.117 46.4253 104.863C45.8805 103.608 45.6637 102.236 45.7952 100.875C45.8441 100.284 45.9495 99.6996 46.1102 99.1291C46.2539 98.6342 46.4396 98.1524 46.6652 97.6891C46.9906 97.017 47.4086 96.3939 47.9072 95.8381C48.0409 95.6861 48.1831 95.5419 48.3332 95.4061C48.3828 95.3563 48.4359 95.3102 48.4922 95.2681C48.4922 95.2681 48.2942 95.4811 47.9522 95.8681C47.4721 96.4326 47.0686 97.058 46.7522 97.7281C46.2803 98.7155 45.9994 99.7833 45.9242 100.875C45.8026 102.212 46.0191 103.558 46.5538 104.79C47.0885 106.021 47.9242 107.098 48.9842 107.922C49.4385 108.288 49.9267 108.609 50.4422 108.882C50.8939 109.12 51.3645 109.321 51.8492 109.482C52.5515 109.71 53.2808 109.844 54.0182 109.881C54.5612 109.902 54.8522 109.884 54.8522 109.902Z" fill="white"/>
<path d="M18.5312 86.277C18.5312 86.301 18.3002 86.19 17.9312 86.103C17.4374 85.9949 16.9256 86 16.4341 86.118C15.9426 86.2359 15.4841 86.4636 15.0932 86.784C14.7932 87.033 14.6492 87.231 14.6282 87.216C14.7105 87.0175 14.8378 86.8408 15.0002 86.7C15.3895 86.3427 15.8636 86.0907 16.3776 85.9679C16.8915 85.845 17.4283 85.8554 17.9372 85.998C18.154 86.044 18.3573 86.1395 18.5312 86.277Z" fill="white"/>
<path d="M62.8322 56.4476C62.8322 56.4896 59.1482 56.5256 54.6062 56.5256C50.0642 56.5256 46.3772 56.4896 46.3772 56.4476C46.3772 56.4056 50.0612 56.3696 54.6062 56.3696C59.1512 56.3696 62.8322 56.3996 62.8322 56.4476Z" fill="white"/>
<path d="M48.7922 75.2068C48.7472 75.2195 48.7008 75.2265 48.6542 75.2278L48.2522 75.2638C48.0782 75.2788 47.8652 75.2908 47.6162 75.2968C47.3672 75.3028 47.0852 75.3148 46.7732 75.2968C46.1462 75.2968 45.4022 75.2518 44.5772 75.1648C43.6844 75.0609 42.798 74.9077 41.9222 74.7058C41.0484 74.4962 40.187 74.2378 39.3422 73.9318C38.6538 73.6797 37.9789 73.3923 37.3202 73.0708C37.0202 72.9388 36.7892 72.8008 36.5702 72.6838C36.3512 72.5668 36.1652 72.4618 36.0152 72.3838L35.6702 72.1738C35.6293 72.1511 35.591 72.1239 35.5562 72.0928C35.5562 72.0928 35.6042 72.0928 35.6852 72.1468L36.0452 72.3298C36.1982 72.4138 36.3872 72.5128 36.6092 72.6298C36.8312 72.7468 37.0832 72.8668 37.3682 72.9928C37.9322 73.2568 38.6192 73.5388 39.3932 73.8178C41.0754 74.4209 42.8205 74.8315 44.5952 75.0418C45.4112 75.1378 46.1522 75.1918 46.7732 75.2068C47.0732 75.2248 47.3732 75.2068 47.6162 75.2068C47.8592 75.2068 48.0752 75.2068 48.2492 75.2068H48.6512C48.6978 75.199 48.7455 75.199 48.7922 75.2068Z" fill="white"/>
<path d="M72.741 88.7251C72.7189 88.7397 72.6946 88.7509 72.669 88.7581L72.453 88.8391L71.619 89.1391C71.256 89.2711 70.812 89.4241 70.287 89.5771C69.762 89.7301 69.171 89.9281 68.502 90.0961L67.458 90.3721C67.095 90.4651 66.711 90.5431 66.318 90.6361C65.532 90.8251 64.68 90.9751 63.786 91.1461C59.8921 91.8243 55.9347 92.0668 51.987 91.8691C51.087 91.8121 50.214 91.7671 49.41 91.6741C49.008 91.6321 48.618 91.6021 48.246 91.5511L47.175 91.4041C46.491 91.3231 45.879 91.2001 45.342 91.1041C44.805 91.0081 44.34 90.9181 43.965 90.8311L43.101 90.6391L42.876 90.5851C42.85 90.5808 42.8247 90.5727 42.801 90.5611C42.828 90.5588 42.8551 90.5588 42.882 90.5611L43.107 90.6001L43.977 90.7651C44.355 90.8401 44.817 90.9271 45.357 91.0081C45.897 91.0891 46.506 91.2061 47.19 91.2811L48.258 91.4161C48.63 91.4641 49.02 91.4911 49.422 91.5301C50.223 91.6171 51.087 91.6561 51.993 91.7101C53.808 91.7851 55.803 91.7881 57.897 91.6651C59.991 91.5421 61.968 91.2811 63.759 90.9871C64.659 90.8221 65.505 90.6871 66.291 90.4951C66.684 90.4051 67.068 90.3301 67.431 90.2401L68.475 89.9731C69.144 89.8141 69.735 89.6281 70.26 89.4781C70.785 89.3281 71.235 89.1781 71.598 89.0671L72.441 88.7971L72.663 88.7311L72.741 88.7251Z" fill="white"/>
</svg>
