<svg width="320" height="320" viewBox="0 0 320 320" fill="none" xmlns="http://www.w3.org/2000/svg">
<path d="M271.181 102.707C271.181 102.707 260.384 59.4047 195.021 32.0959C129.658 4.78708 71.1807 30.0799 57.8495 62.0799C44.5183 94.0799 58.4895 111.36 49.5935 138.688C40.6975 166.016 -5.00488 200.627 13.4399 242.598C31.8847 284.569 118.195 296.557 188.038 287.897C257.882 279.238 312.448 183.309 271.181 102.707Z" fill="#4057A2"/>
<path opacity="0.7" d="M271.181 102.707C271.181 102.707 260.384 59.4047 195.021 32.0959C129.658 4.78708 71.1807 30.0799 57.8495 62.0799C44.5183 94.0799 58.4895 111.36 49.5935 138.688C40.6975 166.016 -5.00488 200.627 13.4399 242.598C31.8847 284.569 118.195 296.557 188.038 287.897C257.882 279.238 312.448 183.309 271.181 102.707Z" fill="white"/>
<path d="M101.12 68.2112H48.0001C46.3027 68.2112 44.6748 68.8855 43.4746 70.0857C42.2744 71.2859 41.6001 72.9138 41.6001 74.6112V94.4512C41.6001 96.1486 42.2744 97.7764 43.4746 98.9767C44.6748 100.177 46.3027 100.851 48.0001 100.851H100.8L107.52 109.811V74.6112C107.52 72.9138 106.846 71.2859 105.646 70.0857C104.445 68.8855 102.817 68.2112 101.12 68.2112Z" fill="#263238"/>
<path d="M53.1649 90.0543H51.2449V77.8943H53.1649V83.0975H55.3281V77.8943H57.2481V90.0543H55.3281V84.8511H53.1649V90.0543Z" fill="#4057A2"/>
<path d="M58.6626 77.9136H60.5826V90.0736H58.6626V77.9136Z" fill="#4057A2"/>
<path d="M64.0897 77.9136H69.9841V79.648H67.9873V90.0544H66.0673V79.648H64.0769L64.0897 77.9136Z" fill="#4057A2"/>
<path d="M72.7232 90.0543H70.8032V77.8943H72.7232V83.0975H74.88V77.8943H76.8V90.0543H74.88V84.8511H72.7104L72.7232 90.0543Z" fill="#4057A2"/>
<path d="M80.1281 83.0271H82.7457V84.7615H80.1281V88.3199H83.4242V90.0543H78.2209V77.8943H83.4242V79.6287H80.1281V83.0271Z" fill="#4057A2"/>
<path d="M88.589 90.0544C88.4325 89.5738 88.3737 89.0668 88.4162 88.5632V86.6432C88.4162 85.5168 88.0386 85.1008 87.1362 85.1008H86.4962V90.0416H84.5762V77.8816H87.4562C89.4338 77.8816 90.285 78.8032 90.285 80.672V81.6256C90.285 82.8736 89.8818 83.6928 89.005 84.0896C89.9586 84.4928 90.285 85.408 90.285 86.6496V88.5248C90.2503 89.0249 90.3223 89.5266 90.4962 89.9968L88.589 90.0544ZM86.509 79.648V83.3792H87.2578C87.9682 83.3792 88.4034 83.0656 88.4034 82.0992V80.896C88.4034 80.032 88.109 79.616 87.4306 79.616L86.509 79.648Z" fill="#4057A2"/>
<path d="M93.4849 83.0271H96.1025V84.7615H93.4849V88.3199H96.7745V90.0543H91.5713V77.8943H96.7745V79.6287H93.4849V83.0271Z" fill="#4057A2"/>
<path d="M98.2017 87.3664L97.9585 82.976V77.9136H99.8785V82.976L99.6353 87.3664H98.2017ZM99.8273 88.2176V90.0544H97.9905V88.2176H99.8273Z" fill="#4057A2"/>
<path d="M190.72 68.8514C190.72 68.8514 188.352 68.013 187.814 70.1314C187.277 72.2498 190.413 73.037 190.797 73.037C191.181 73.037 191.789 72.5058 191.405 71.2834C191.021 70.061 190.72 68.8514 190.72 68.8514Z" fill="#263238" stroke="#263238" stroke-linecap="round" stroke-linejoin="round"/>
<path d="M204.16 63.6545C204.16 63.6545 203.93 66.7137 203.93 67.9361C203.93 69.1585 205.21 69.6193 205.85 69.6193C206.49 69.6193 206.771 71.0721 206.387 72.6017C206.003 74.1313 204.704 75.0465 201.568 75.0465C198.432 75.0465 196.525 73.6705 196.448 72.6785C196.371 71.6865 197.133 67.3985 198.439 66.2785C199.744 65.1585 204.16 63.6545 204.16 63.6545Z" fill="#263238" stroke="#263238" stroke-linecap="round" stroke-linejoin="round"/>
<path d="M192.71 73.056V74.24C192.711 74.4263 192.765 74.6085 192.866 74.7651C192.967 74.9217 193.111 75.046 193.28 75.1232C193.829 75.3555 194.413 75.4961 195.008 75.5392C196.207 75.5394 197.39 75.2773 198.477 74.7712C198.627 74.707 198.755 74.6 198.845 74.4634C198.935 74.3268 198.983 74.1667 198.982 74.0032V72.768C198.981 72.6927 198.961 72.6188 198.925 72.553C198.888 72.4871 198.836 72.4312 198.773 72.3901C198.71 72.3491 198.637 72.3241 198.562 72.3175C198.487 72.3108 198.412 72.3227 198.342 72.352L198.093 72.48C198.093 72.48 194.317 72.96 192.71 73.056Z" fill="#4057A2" stroke="#263238" stroke-linecap="round" stroke-linejoin="round"/>
<path d="M191.034 63.0402C190.615 64.7214 190.333 66.4336 190.189 68.1602C189.958 70.989 190.189 73.5874 191.334 73.6642C192.12 73.6656 192.89 73.4437 193.555 73.0242C193.555 73.0242 196.23 73.3314 197.146 72.877L198.067 72.4162L198.752 67.9362C198.752 67.9362 198.829 60.9794 197.53 60.5186C196.23 60.0578 191.034 63.0402 191.034 63.0402Z" fill="white" stroke="#263238" stroke-linecap="round" stroke-linejoin="round"/>
<path d="M193.094 66.176L192.486 67.7824C192.486 67.7824 191.258 68.0896 191.411 68.6976C191.565 69.3056 192.378 69.216 192.378 69.216" stroke="#263238" stroke-linecap="round" stroke-linejoin="round"/>
<path d="M195.059 66.8737C194.938 67.2065 194.688 67.4241 194.515 67.3601C194.343 67.2961 194.291 66.9697 194.419 66.6305C194.547 66.2913 194.791 66.0737 194.97 66.1441C195.149 66.2145 195.2 66.5601 195.059 66.8737Z" fill="#263238"/>
<path d="M192.179 66.0992C192.051 66.4384 191.808 66.656 191.629 66.592C191.45 66.528 191.411 66.1952 191.533 65.8624C191.654 65.5296 191.904 65.3056 192.083 65.3696C192.262 65.4336 192.301 65.7664 192.179 66.0992Z" fill="#263238"/>
<path d="M194.47 64.7233C194.47 64.7233 195.923 64.3393 196.077 65.7217" stroke="#263238" stroke-linecap="round" stroke-linejoin="round"/>
<path d="M192.563 64.3394C192.563 64.3394 191.283 63.885 190.88 64.9794" stroke="#263238" stroke-linecap="round" stroke-linejoin="round"/>
<path d="M193.555 73.0562L195.616 72.2178" stroke="#263238" stroke-linecap="round" stroke-linejoin="round"/>
<path d="M192 59.5202C192 59.5202 189.555 56.6146 187.718 58.7522C185.882 60.8898 186.438 64.109 189.709 64.2626C192.979 64.4162 196.666 61.2034 196.666 61.2034C196.666 61.2034 196.282 65.4082 197.197 66.861C198.112 68.3138 198.803 69.3058 198.803 69.3058C198.803 69.3058 200.083 70.1442 202.246 68.4674C204.41 66.7906 204.922 62.7074 203.392 59.9746C201.862 57.2418 199.187 55.693 195.974 56.7746C192.762 57.8562 192 59.5202 192 59.5202Z" fill="#263238" stroke="#263238" stroke-linecap="round" stroke-linejoin="round"/>
<path d="M197.299 69.2352C197.299 69.2352 200.051 66.7136 200.051 68.1664C200.051 69.6192 198.771 70.9184 197.76 70.6112" fill="white"/>
<path d="M197.299 69.2352C197.299 69.2352 200.051 66.7136 200.051 68.1664C200.051 69.6192 198.771 70.9184 197.76 70.6112" stroke="#263238" stroke-linecap="round" stroke-linejoin="round"/>
<path d="M191.411 70.4001C191.773 70.6605 192.207 70.8006 192.653 70.8006C193.099 70.8006 193.533 70.6605 193.895 70.4001" stroke="#263238" stroke-linecap="round" stroke-linejoin="round"/>
<path d="M205.614 75.2325C210.501 70.032 210.246 61.8545 205.046 56.9674C199.845 52.0804 191.668 52.3346 186.781 57.5351C181.894 62.7356 182.148 70.9131 187.348 75.8001C192.549 80.6872 200.727 80.433 205.614 75.2325Z" stroke="#263238" stroke-linecap="round" stroke-linejoin="round"/>
<path d="M284.131 171.499C291.476 169.782 296.038 162.436 294.321 155.091C292.604 147.746 285.257 143.184 277.912 144.902C270.568 146.619 266.006 153.965 267.723 161.31C269.44 168.655 276.787 173.217 284.131 171.499Z" stroke="#263238" stroke-linecap="round" stroke-linejoin="round"/>
<path d="M285.683 162.227C285.683 163.126 285.417 164.005 284.917 164.752C284.418 165.499 283.708 166.082 282.878 166.425C282.048 166.769 281.134 166.859 280.253 166.684C279.371 166.509 278.562 166.076 277.926 165.44C277.291 164.805 276.858 163.995 276.683 163.114C276.507 162.232 276.597 161.319 276.941 160.488C277.285 159.658 277.867 158.948 278.615 158.449C279.362 157.95 280.24 157.683 281.139 157.683C282.344 157.683 283.5 158.162 284.352 159.014C285.204 159.866 285.683 161.022 285.683 162.227Z" fill="#4057A2" stroke="#263238" stroke-linecap="round" stroke-linejoin="round"/>
<path d="M287.635 165.254C288.616 164.031 289.23 162.555 289.409 160.998C289.587 159.44 289.321 157.864 288.643 156.451C287.964 155.037 286.9 153.845 285.573 153.01C284.246 152.175 282.71 151.732 281.143 151.732C279.575 151.732 278.039 152.175 276.712 153.01C275.385 153.845 274.321 155.037 273.642 156.451C272.964 157.864 272.698 159.44 272.876 160.998C273.055 162.555 273.669 164.031 274.65 165.254H287.635Z" fill="white" stroke="#263238" stroke-linecap="round" stroke-linejoin="round"/>
<path d="M284.384 162.899H277.69C277.298 162.899 276.91 162.822 276.548 162.672C276.187 162.522 275.858 162.303 275.581 162.026C275.304 161.749 275.084 161.42 274.934 161.058C274.784 160.696 274.707 160.309 274.707 159.917C274.706 159.525 274.783 159.137 274.933 158.775C275.082 158.412 275.302 158.083 275.579 157.806C275.856 157.529 276.185 157.309 276.547 157.16C276.91 157.01 277.298 156.934 277.69 156.935H284.384C284.776 156.934 285.164 157.01 285.526 157.16C285.889 157.309 286.218 157.529 286.495 157.806C286.772 158.083 286.992 158.412 287.141 158.775C287.291 159.137 287.367 159.525 287.366 159.917C287.366 160.708 287.052 161.467 286.493 162.026C285.934 162.585 285.175 162.899 284.384 162.899Z" fill="#4057A2" stroke="#263238" stroke-linecap="round" stroke-linejoin="round"/>
<path d="M276.077 159.674C276.214 159.29 276.464 158.956 276.794 158.717C277.124 158.477 277.519 158.343 277.927 158.332C278.334 158.321 278.736 158.433 279.078 158.655C279.421 158.876 279.689 159.195 279.847 159.571" stroke="#263238" stroke-width="2" stroke-linecap="round" stroke-linejoin="round"/>
<path d="M282.336 159.674C282.473 159.29 282.723 158.956 283.053 158.717C283.384 158.477 283.778 158.343 284.186 158.332C284.594 158.321 284.995 158.433 285.338 158.655C285.68 158.876 285.948 159.195 286.106 159.571" stroke="#263238" stroke-width="2" stroke-linecap="round" stroke-linejoin="round"/>
<path d="M280.045 161.056C280.075 161.337 280.208 161.598 280.418 161.787C280.628 161.976 280.901 162.081 281.184 162.081C281.467 162.081 281.74 161.976 281.95 161.787C282.161 161.598 282.293 161.337 282.323 161.056H280.045Z" fill="white" stroke="#263238" stroke-linecap="round" stroke-linejoin="round"/>
<path d="M291.898 161.53C291.783 161.53 291.67 161.507 291.565 161.463C291.459 161.42 291.363 161.356 291.282 161.275C291.201 161.194 291.137 161.098 291.094 160.992C291.05 160.887 291.027 160.774 291.027 160.659V158.682C291.027 158.567 291.05 158.454 291.094 158.349C291.137 158.243 291.201 158.147 291.282 158.066C291.363 157.985 291.459 157.921 291.565 157.878C291.67 157.834 291.783 157.811 291.898 157.811C292.012 157.811 292.125 157.834 292.231 157.878C292.336 157.921 292.432 157.985 292.513 158.066C292.594 158.147 292.658 158.243 292.702 158.349C292.746 158.454 292.768 158.567 292.768 158.682V160.64C292.771 160.756 292.75 160.871 292.707 160.979C292.665 161.087 292.601 161.185 292.52 161.268C292.439 161.351 292.342 161.417 292.235 161.462C292.128 161.507 292.014 161.53 291.898 161.53Z" fill="#263238" stroke="#263238" stroke-linecap="round" stroke-linejoin="round"/>
<path d="M270.15 161.53C270.036 161.53 269.923 161.507 269.817 161.463C269.712 161.42 269.616 161.356 269.535 161.275C269.454 161.194 269.39 161.098 269.346 160.992C269.303 160.887 269.28 160.774 269.28 160.659V158.682C269.28 158.567 269.303 158.454 269.346 158.349C269.39 158.243 269.454 158.147 269.535 158.066C269.616 157.985 269.712 157.921 269.817 157.878C269.923 157.834 270.036 157.811 270.15 157.811C270.265 157.811 270.378 157.834 270.484 157.878C270.589 157.921 270.685 157.985 270.766 158.066C270.847 158.147 270.911 158.243 270.955 158.349C270.998 158.454 271.021 158.567 271.021 158.682V160.64C271.023 160.756 271.003 160.871 270.96 160.979C270.918 161.087 270.854 161.185 270.773 161.268C270.692 161.351 270.595 161.417 270.488 161.462C270.381 161.507 270.266 161.53 270.15 161.53Z" fill="#263238" stroke="#263238" stroke-linecap="round" stroke-linejoin="round"/>
<path d="M271.757 158.803C271.515 158.801 271.284 158.704 271.114 158.533C270.944 158.361 270.848 158.13 270.848 157.888V156.454C270.845 154.901 271.309 153.383 272.179 152.096C272.242 151.986 272.326 151.891 272.427 151.815C272.529 151.74 272.644 151.686 272.767 151.657C272.89 151.629 273.018 151.626 273.142 151.649C273.266 151.672 273.384 151.72 273.488 151.791C273.593 151.862 273.681 151.954 273.749 152.06C273.816 152.167 273.861 152.287 273.88 152.412C273.898 152.536 273.891 152.664 273.859 152.786C273.826 152.908 273.769 153.021 273.69 153.12C273.024 154.104 272.67 155.266 272.672 156.454V157.888C272.672 158.131 272.576 158.363 272.404 158.535C272.232 158.707 272 158.803 271.757 158.803Z" fill="#263238"/>
<path d="M289.434 153.069C289.359 153.069 289.285 153.05 289.219 153.015C289.153 152.979 289.097 152.927 289.056 152.864C288.469 151.989 287.676 151.273 286.746 150.778C285.816 150.284 284.778 150.026 283.725 150.029H278.643C277.59 150.026 276.552 150.284 275.622 150.778C274.692 151.273 273.899 151.989 273.312 152.864C273.243 152.965 273.137 153.034 273.017 153.057C272.897 153.08 272.773 153.054 272.672 152.986C272.622 152.952 272.578 152.909 272.544 152.858C272.511 152.808 272.488 152.751 272.476 152.691C272.465 152.632 272.466 152.57 272.478 152.511C272.491 152.452 272.516 152.395 272.551 152.346C273.222 151.348 274.128 150.531 275.189 149.966C276.251 149.401 277.435 149.106 278.637 149.107H283.719C284.922 149.106 286.108 149.402 287.171 149.968C288.233 150.534 289.14 151.353 289.811 152.352C289.846 152.402 289.87 152.459 289.882 152.518C289.895 152.578 289.895 152.639 289.883 152.699C289.871 152.759 289.847 152.815 289.813 152.866C289.779 152.916 289.735 152.959 289.683 152.992C289.609 153.041 289.523 153.068 289.434 153.069Z" fill="#263238"/>
<path d="M290.611 158.803C290.369 158.803 290.136 158.707 289.964 158.535C289.793 158.364 289.696 158.131 289.696 157.888V156.455C289.698 155.266 289.344 154.105 288.678 153.12C288.602 153.021 288.547 152.907 288.516 152.786C288.486 152.664 288.48 152.538 288.5 152.414C288.521 152.291 288.566 152.173 288.634 152.067C288.701 151.962 288.79 151.872 288.894 151.802C288.998 151.732 289.115 151.684 289.238 151.662C289.361 151.639 289.488 151.642 289.61 151.67C289.732 151.698 289.847 151.751 289.947 151.826C290.048 151.9 290.132 151.994 290.195 152.103C291.063 153.388 291.525 154.904 291.52 156.455V157.888C291.52 158.13 291.425 158.362 291.254 158.533C291.084 158.704 290.853 158.802 290.611 158.803Z" fill="#263238"/>
<path d="M271.872 162.823C271.394 162.823 270.934 162.632 270.596 162.294C270.258 161.955 270.067 161.496 270.067 161.018V158.151C270.067 157.672 270.258 157.213 270.596 156.874C270.934 156.536 271.394 156.346 271.872 156.346C272.351 156.346 272.81 156.536 273.148 156.874C273.487 157.213 273.677 157.672 273.677 158.151V161.018C273.677 161.496 273.487 161.955 273.148 162.294C272.81 162.632 272.351 162.823 271.872 162.823Z" fill="white" stroke="#263238" stroke-linecap="round" stroke-linejoin="round"/>
<path d="M272.058 156.346H271.687V162.823H272.058V156.346Z" fill="#4057A2" stroke="#263238" stroke-linecap="round" stroke-linejoin="round"/>
<path d="M292.083 158.151C292.083 157.154 291.275 156.346 290.278 156.346C289.282 156.346 288.474 157.154 288.474 158.151V161.018C288.474 162.014 289.282 162.823 290.278 162.823C291.275 162.823 292.083 162.014 292.083 161.018V158.151Z" fill="white" stroke="#263238" stroke-linecap="round" stroke-linejoin="round"/>
<path d="M290.464 156.346H290.093V162.823H290.464V156.346Z" fill="#4057A2" stroke="#263238" stroke-linecap="round" stroke-linejoin="round"/>
<path d="M281.171 155.757C281.807 155.754 282.432 155.594 282.991 155.29C283.549 154.986 284.024 154.549 284.371 154.016L285.158 152.794C283.911 152.103 282.506 151.746 281.08 151.757C279.653 151.769 278.254 152.148 277.018 152.858L278.195 154.33C278.554 154.774 279.007 155.133 279.522 155.379C280.037 155.626 280.6 155.755 281.171 155.757Z" fill="#4057A2" stroke="#263238" stroke-linecap="round" stroke-linejoin="round"/>
<path d="M281.235 163.635C281.309 163.635 281.37 163.575 281.37 163.501C281.37 163.427 281.309 163.366 281.235 163.366C281.161 163.366 281.101 163.427 281.101 163.501C281.101 163.575 281.161 163.635 281.235 163.635Z" fill="#263238"/>
<path d="M281.37 163.968C281.368 163.933 281.353 163.901 281.328 163.877C281.303 163.853 281.27 163.84 281.235 163.84C281.218 163.839 281.201 163.842 281.184 163.848C281.168 163.854 281.153 163.863 281.141 163.875C281.128 163.887 281.118 163.902 281.111 163.918C281.104 163.933 281.101 163.951 281.101 163.968C281.101 164.004 281.115 164.038 281.14 164.063C281.165 164.088 281.2 164.102 281.235 164.102C281.271 164.102 281.305 164.088 281.33 164.063C281.355 164.038 281.37 164.004 281.37 163.968Z" fill="#263238"/>
<path d="M280.838 163.898C280.872 163.887 280.901 163.864 280.917 163.833C280.934 163.802 280.938 163.765 280.928 163.731C280.915 163.698 280.89 163.67 280.859 163.654C280.827 163.637 280.79 163.633 280.755 163.642C280.721 163.652 280.693 163.675 280.676 163.706C280.659 163.738 280.656 163.774 280.666 163.808C280.679 163.841 280.703 163.869 280.735 163.885C280.767 163.902 280.804 163.906 280.838 163.898Z" fill="#263238"/>
<path d="M281.677 163.898C281.711 163.887 281.739 163.864 281.756 163.833C281.773 163.802 281.776 163.765 281.766 163.731C281.755 163.697 281.73 163.668 281.698 163.652C281.666 163.635 281.628 163.631 281.594 163.642C281.577 163.647 281.562 163.655 281.548 163.666C281.535 163.678 281.524 163.691 281.516 163.707C281.508 163.723 281.504 163.74 281.503 163.757C281.502 163.774 281.504 163.792 281.51 163.808C281.521 163.842 281.544 163.87 281.575 163.887C281.606 163.904 281.643 163.908 281.677 163.898Z" fill="#263238"/>
<path d="M264.243 88.4162H213.318V65.7282V59.7122L219.341 65.7282H264.243V88.4162Z" fill="#D6D6D6" stroke="#263238" stroke-linecap="round" stroke-linejoin="round"/>
<path d="M264.243 121.28H213.318V98.5985V92.5825L219.341 98.5985H264.243V121.28Z" fill="#D6D6D6" stroke="#263238" stroke-linecap="round" stroke-linejoin="round"/>
<path d="M247.322 73.5361H259.309" stroke="#263238" stroke-linecap="round" stroke-linejoin="round"/>
<path d="M230.547 73.5361H244.243" stroke="#263238" stroke-linecap="round" stroke-linejoin="round"/>
<path d="M220.275 73.5361H228.147" stroke="#263238" stroke-linecap="round" stroke-linejoin="round"/>
<path d="M241.843 77.3057H259.309" stroke="#263238" stroke-linecap="round" stroke-linejoin="round"/>
<path d="M220.275 77.3057H238.765" stroke="#263238" stroke-linecap="round" stroke-linejoin="round"/>
<path d="M255.885 81.0688H259.309" stroke="#263238" stroke-linecap="round" stroke-linejoin="round"/>
<path d="M236.71 81.0688H253.146" stroke="#263238" stroke-linecap="round" stroke-linejoin="round"/>
<path d="M220.275 81.0688H233.971" stroke="#263238" stroke-linecap="round" stroke-linejoin="round"/>
<path d="M247.322 105.376H259.309" stroke="#263238" stroke-linecap="round" stroke-linejoin="round"/>
<path d="M230.547 105.376H244.243" stroke="#263238" stroke-linecap="round" stroke-linejoin="round"/>
<path d="M220.275 105.376H228.147" stroke="#263238" stroke-linecap="round" stroke-linejoin="round"/>
<path d="M241.843 109.146H259.309" stroke="#263238" stroke-linecap="round" stroke-linejoin="round"/>
<path d="M220.275 109.146H238.765" stroke="#263238" stroke-linecap="round" stroke-linejoin="round"/>
<path d="M255.885 112.909H259.309" stroke="#263238" stroke-linecap="round" stroke-linejoin="round"/>
<path d="M236.71 112.909H253.146" stroke="#263238" stroke-linecap="round" stroke-linejoin="round"/>
<path d="M220.275 112.909H233.971" stroke="#263238" stroke-linecap="round" stroke-linejoin="round"/>
<path d="M213.318 213.703H264.243V158.835V152.819L258.221 158.835H213.318V213.703Z" fill="#4057A2" stroke="#263238" stroke-linecap="round" stroke-linejoin="round"/>
<path d="M247.322 166.323H259.309" stroke="#263238" stroke-linecap="round" stroke-linejoin="round"/>
<path d="M230.547 166.323H244.243" stroke="#263238" stroke-linecap="round" stroke-linejoin="round"/>
<path d="M220.275 166.323H228.147" stroke="#263238" stroke-linecap="round" stroke-linejoin="round"/>
<path d="M241.843 170.086H259.309" stroke="#263238" stroke-linecap="round" stroke-linejoin="round"/>
<path d="M220.275 170.086H238.765" stroke="#263238" stroke-linecap="round" stroke-linejoin="round"/>
<path d="M255.885 173.856H259.309" stroke="#263238" stroke-linecap="round" stroke-linejoin="round"/>
<path d="M236.71 173.856H253.146" stroke="#263238" stroke-linecap="round" stroke-linejoin="round"/>
<path d="M220.275 173.856H233.971" stroke="#263238" stroke-linecap="round" stroke-linejoin="round"/>
<path d="M247.322 176.935H259.309" stroke="#263238" stroke-linecap="round" stroke-linejoin="round"/>
<path d="M230.547 176.935H244.243" stroke="#263238" stroke-linecap="round" stroke-linejoin="round"/>
<path d="M220.275 176.935H228.147" stroke="#263238" stroke-linecap="round" stroke-linejoin="round"/>
<path d="M241.843 180.704H259.309" stroke="#263238" stroke-linecap="round" stroke-linejoin="round"/>
<path d="M220.275 180.704H238.765" stroke="#263238" stroke-linecap="round" stroke-linejoin="round"/>
<path d="M255.885 184.467H259.309" stroke="#263238" stroke-linecap="round" stroke-linejoin="round"/>
<path d="M236.71 184.467H253.146" stroke="#263238" stroke-linecap="round" stroke-linejoin="round"/>
<path d="M220.275 184.467H233.971" stroke="#263238" stroke-linecap="round" stroke-linejoin="round"/>
<path d="M247.322 187.552H259.309" stroke="#263238" stroke-linecap="round" stroke-linejoin="round"/>
<path d="M230.547 187.552H244.243" stroke="#263238" stroke-linecap="round" stroke-linejoin="round"/>
<path d="M220.275 187.552H228.147" stroke="#263238" stroke-linecap="round" stroke-linejoin="round"/>
<path d="M241.843 191.315H259.309" stroke="#263238" stroke-linecap="round" stroke-linejoin="round"/>
<path d="M220.275 191.315H238.765" stroke="#263238" stroke-linecap="round" stroke-linejoin="round"/>
<path d="M255.885 195.085H259.309" stroke="#263238" stroke-linecap="round" stroke-linejoin="round"/>
<path d="M236.71 195.085H253.146" stroke="#263238" stroke-linecap="round" stroke-linejoin="round"/>
<path d="M220.275 195.085H233.971" stroke="#263238" stroke-linecap="round" stroke-linejoin="round"/>
<path d="M247.322 198.163H259.309" stroke="#263238" stroke-linecap="round" stroke-linejoin="round"/>
<path d="M230.547 198.163H244.243" stroke="#263238" stroke-linecap="round" stroke-linejoin="round"/>
<path d="M220.275 198.163H228.147" stroke="#263238" stroke-linecap="round" stroke-linejoin="round"/>
<path d="M241.843 201.933H259.309" stroke="#263238" stroke-linecap="round" stroke-linejoin="round"/>
<path d="M220.275 201.933H238.765" stroke="#263238" stroke-linecap="round" stroke-linejoin="round"/>
<path d="M255.885 205.696H259.309" stroke="#263238" stroke-linecap="round" stroke-linejoin="round"/>
<path d="M236.71 205.696H253.146" stroke="#263238" stroke-linecap="round" stroke-linejoin="round"/>
<path d="M220.275 205.696H233.971" stroke="#263238" stroke-linecap="round" stroke-linejoin="round"/>
<path d="M281.024 244.211C288.567 244.211 294.682 238.096 294.682 230.554C294.682 223.011 288.567 216.896 281.024 216.896C273.481 216.896 267.366 223.011 267.366 230.554C267.366 238.096 273.481 244.211 281.024 244.211Z" stroke="#263238" stroke-linecap="round" stroke-linejoin="round"/>
<path d="M285.683 234.579C285.684 235.478 285.419 236.357 284.921 237.106C284.422 237.854 283.713 238.437 282.883 238.782C282.052 239.127 281.139 239.218 280.257 239.043C279.375 238.869 278.565 238.436 277.928 237.801C277.292 237.166 276.859 236.356 276.683 235.475C276.507 234.593 276.597 233.679 276.94 232.848C277.284 232.018 277.867 231.308 278.614 230.808C279.361 230.308 280.24 230.042 281.139 230.042C282.343 230.042 283.498 230.52 284.35 231.37C285.202 232.221 285.682 233.375 285.683 234.579Z" fill="#4057A2" stroke="#263238" stroke-linecap="round" stroke-linejoin="round"/>
<path d="M287.635 237.606C288.616 236.383 289.23 234.907 289.409 233.35C289.587 231.792 289.321 230.216 288.643 228.803C287.964 227.389 286.9 226.197 285.573 225.362C284.246 224.527 282.71 224.084 281.143 224.084C279.575 224.084 278.039 224.527 276.712 225.362C275.385 226.197 274.321 227.389 273.642 228.803C272.964 230.216 272.698 231.792 272.876 233.35C273.055 234.907 273.669 236.383 274.65 237.606H287.635Z" fill="white" stroke="#263238" stroke-linecap="round" stroke-linejoin="round"/>
<path d="M284.384 235.251H277.69C277.298 235.251 276.91 235.174 276.548 235.024C276.187 234.874 275.858 234.655 275.581 234.378C275.304 234.101 275.084 233.772 274.934 233.41C274.784 233.048 274.707 232.66 274.707 232.269C274.707 231.877 274.784 231.489 274.934 231.127C275.084 230.766 275.304 230.437 275.581 230.16C275.858 229.883 276.187 229.663 276.548 229.513C276.91 229.364 277.298 229.286 277.69 229.286H284.384C284.776 229.286 285.164 229.364 285.525 229.513C285.887 229.663 286.216 229.883 286.493 230.16C286.77 230.437 286.99 230.766 287.139 231.127C287.289 231.489 287.366 231.877 287.366 232.269C287.366 233.06 287.052 233.818 286.493 234.378C285.934 234.937 285.175 235.251 284.384 235.251Z" fill="#4057A2" stroke="#263238" stroke-linecap="round" stroke-linejoin="round"/>
<path d="M276.077 232.026C276.214 231.642 276.464 231.308 276.794 231.069C277.124 230.829 277.519 230.695 277.927 230.684C278.334 230.673 278.736 230.785 279.078 231.007C279.421 231.228 279.689 231.547 279.847 231.923" stroke="#263238" stroke-width="2" stroke-linecap="round" stroke-linejoin="round"/>
<path d="M282.336 232.026C282.473 231.642 282.723 231.308 283.053 231.069C283.384 230.829 283.778 230.695 284.186 230.684C284.594 230.673 284.995 230.785 285.338 231.007C285.68 231.228 285.948 231.547 286.106 231.923" stroke="#263238" stroke-width="2" stroke-linecap="round" stroke-linejoin="round"/>
<path d="M280.045 233.408C280.075 233.69 280.208 233.95 280.418 234.139C280.628 234.328 280.901 234.433 281.184 234.433C281.467 234.433 281.74 234.328 281.95 234.139C282.161 233.95 282.293 233.69 282.323 233.408H280.045Z" fill="white" stroke="#263238" stroke-linecap="round" stroke-linejoin="round"/>
<path d="M291.898 233.882C291.667 233.882 291.445 233.79 291.282 233.627C291.119 233.463 291.027 233.242 291.027 233.011V231.04C291.027 230.809 291.119 230.588 291.282 230.425C291.445 230.261 291.667 230.17 291.898 230.17C292.129 230.17 292.35 230.261 292.513 230.425C292.676 230.588 292.768 230.809 292.768 231.04V233.018C292.766 233.247 292.674 233.467 292.511 233.629C292.348 233.791 292.127 233.882 291.898 233.882Z" fill="#263238" stroke="#263238" stroke-linecap="round" stroke-linejoin="round"/>
<path d="M270.15 233.882C269.92 233.882 269.698 233.79 269.535 233.627C269.372 233.463 269.28 233.242 269.28 233.011V231.04C269.28 230.809 269.372 230.588 269.535 230.425C269.698 230.261 269.92 230.17 270.15 230.17C270.381 230.17 270.603 230.261 270.766 230.425C270.929 230.588 271.021 230.809 271.021 231.04V233.018C271.019 233.247 270.927 233.467 270.764 233.629C270.601 233.791 270.38 233.882 270.15 233.882Z" fill="#263238" stroke="#263238" stroke-linecap="round" stroke-linejoin="round"/>
<path d="M271.757 231.162C271.515 231.16 271.284 231.063 271.114 230.891C270.944 230.72 270.848 230.488 270.848 230.246V228.806C270.846 227.253 271.31 225.735 272.179 224.448C272.323 224.268 272.529 224.149 272.757 224.114C272.985 224.08 273.217 224.132 273.408 224.262C273.599 224.391 273.734 224.587 273.786 224.812C273.838 225.036 273.804 225.272 273.69 225.472C273.024 226.456 272.67 227.618 272.672 228.806V230.246C272.672 230.489 272.576 230.722 272.404 230.894C272.232 231.065 272 231.162 271.757 231.162Z" fill="#263238"/>
<path d="M289.434 225.421C289.359 225.421 289.286 225.403 289.221 225.368C289.155 225.334 289.098 225.284 289.056 225.223C288.47 224.347 287.677 223.629 286.747 223.133C285.817 222.637 284.779 222.379 283.725 222.381H278.643C277.591 222.382 276.554 222.641 275.625 223.135C274.695 223.629 273.901 224.344 273.312 225.216C273.278 225.266 273.235 225.308 273.185 225.341C273.135 225.374 273.079 225.397 273.02 225.408C272.962 225.42 272.901 225.419 272.842 225.407C272.784 225.395 272.728 225.371 272.678 225.338C272.629 225.304 272.586 225.261 272.553 225.211C272.52 225.161 272.498 225.105 272.486 225.046C272.475 224.987 272.476 224.927 272.488 224.868C272.5 224.81 272.523 224.754 272.557 224.704C273.228 223.707 274.134 222.889 275.195 222.325C276.257 221.76 277.441 221.465 278.643 221.466H283.725C284.929 221.466 286.114 221.762 287.176 222.328C288.238 222.894 289.146 223.712 289.818 224.711C289.852 224.761 289.876 224.817 289.889 224.877C289.901 224.937 289.901 224.998 289.889 225.058C289.877 225.117 289.853 225.174 289.819 225.224C289.785 225.275 289.741 225.318 289.69 225.351C289.613 225.399 289.524 225.423 289.434 225.421Z" fill="#263238"/>
<path d="M290.611 231.162C290.369 231.162 290.136 231.065 289.964 230.894C289.793 230.722 289.696 230.489 289.696 230.247V228.807C289.698 227.62 289.343 226.461 288.679 225.479C288.609 225.379 288.559 225.267 288.533 225.148C288.508 225.029 288.506 224.906 288.528 224.787C288.55 224.667 288.595 224.553 288.662 224.451C288.729 224.35 288.815 224.262 288.916 224.194C289.016 224.126 289.13 224.079 289.249 224.055C289.368 224.031 289.491 224.032 289.61 224.056C289.729 224.08 289.842 224.128 289.943 224.196C290.043 224.265 290.129 224.353 290.195 224.455C291.063 225.74 291.524 227.256 291.52 228.807V230.247C291.52 230.488 291.425 230.72 291.254 230.891C291.084 231.063 290.853 231.16 290.611 231.162Z" fill="#263238"/>
<path d="M271.872 235.181C271.394 235.181 270.934 234.991 270.596 234.652C270.258 234.314 270.067 233.855 270.067 233.376V230.503C270.067 230.024 270.258 229.565 270.596 229.226C270.934 228.888 271.394 228.698 271.872 228.698C272.351 228.698 272.81 228.888 273.148 229.226C273.487 229.565 273.677 230.024 273.677 230.503V233.376C273.675 233.854 273.485 234.312 273.147 234.65C272.808 234.989 272.35 235.179 271.872 235.181Z" fill="white" stroke="#263238" stroke-linecap="round" stroke-linejoin="round"/>
<path d="M272.058 228.698H271.687V235.175H272.058V228.698Z" fill="#4057A2" stroke="#263238" stroke-linecap="round" stroke-linejoin="round"/>
<path d="M292.083 230.503C292.083 229.506 291.275 228.698 290.278 228.698C289.282 228.698 288.474 229.506 288.474 230.503V233.37C288.474 234.367 289.282 235.175 290.278 235.175C291.275 235.175 292.083 234.367 292.083 233.37V230.503Z" fill="white" stroke="#263238" stroke-linecap="round" stroke-linejoin="round"/>
<path d="M290.464 228.698H290.093V235.175H290.464V228.698Z" fill="#4057A2" stroke="#263238" stroke-linecap="round" stroke-linejoin="round"/>
<path d="M281.171 228.109C281.807 228.106 282.432 227.946 282.991 227.642C283.549 227.338 284.024 226.9 284.371 226.368L285.158 225.152C283.91 224.463 282.506 224.107 281.08 224.117C279.655 224.127 278.256 224.503 277.018 225.21L278.195 226.682C278.554 227.126 279.007 227.484 279.522 227.731C280.037 227.978 280.6 228.107 281.171 228.109Z" fill="#4057A2" stroke="#263238" stroke-linecap="round" stroke-linejoin="round"/>
<path d="M281.235 235.987C281.309 235.987 281.37 235.927 281.37 235.853C281.37 235.779 281.309 235.719 281.235 235.719C281.161 235.719 281.101 235.779 281.101 235.853C281.101 235.927 281.161 235.987 281.235 235.987Z" fill="#263238"/>
<path d="M281.235 236.461C281.309 236.461 281.37 236.401 281.37 236.327C281.37 236.252 281.309 236.192 281.235 236.192C281.161 236.192 281.101 236.252 281.101 236.327C281.101 236.401 281.161 236.461 281.235 236.461Z" fill="#263238"/>
<path d="M280.839 236.25C280.872 236.239 280.901 236.216 280.917 236.185C280.934 236.154 280.938 236.117 280.928 236.083C280.915 236.05 280.89 236.022 280.859 236.006C280.827 235.989 280.79 235.985 280.755 235.994C280.722 236.005 280.695 236.029 280.678 236.06C280.662 236.09 280.657 236.126 280.666 236.16C280.671 236.178 280.679 236.194 280.691 236.208C280.702 236.222 280.717 236.233 280.733 236.242C280.749 236.25 280.767 236.255 280.785 236.257C280.803 236.258 280.821 236.256 280.839 236.25Z" fill="#263238"/>
<path d="M281.677 236.25C281.711 236.239 281.739 236.216 281.756 236.185C281.773 236.154 281.776 236.117 281.766 236.083C281.755 236.049 281.73 236.021 281.698 236.004C281.666 235.987 281.628 235.984 281.594 235.994C281.577 235.999 281.562 236.007 281.548 236.018C281.535 236.03 281.524 236.043 281.516 236.059C281.508 236.075 281.504 236.092 281.503 236.109C281.502 236.126 281.504 236.144 281.51 236.16C281.515 236.177 281.523 236.194 281.534 236.208C281.545 236.222 281.558 236.233 281.574 236.242C281.59 236.25 281.607 236.255 281.625 236.257C281.642 236.258 281.66 236.256 281.677 236.25Z" fill="#263238"/>
<path d="M213.318 263.571H264.243V231.187V225.171L258.221 231.187H213.318V263.571Z" fill="#4057A2" stroke="#263238" stroke-linecap="round" stroke-linejoin="round"/>
<path d="M247.322 238.675H259.309" stroke="#263238" stroke-linecap="round" stroke-linejoin="round"/>
<path d="M230.547 238.675H244.243" stroke="#263238" stroke-linecap="round" stroke-linejoin="round"/>
<path d="M220.275 238.675H228.147" stroke="#263238" stroke-linecap="round" stroke-linejoin="round"/>
<path d="M241.843 242.445H259.309" stroke="#263238" stroke-linecap="round" stroke-linejoin="round"/>
<path d="M220.275 242.445H238.765" stroke="#263238" stroke-linecap="round" stroke-linejoin="round"/>
<path d="M255.885 246.208H259.309" stroke="#263238" stroke-linecap="round" stroke-linejoin="round"/>
<path d="M236.71 246.208H253.146" stroke="#263238" stroke-linecap="round" stroke-linejoin="round"/>
<path d="M220.275 246.208H233.971" stroke="#263238" stroke-linecap="round" stroke-linejoin="round"/>
<path d="M247.322 249.293H259.309" stroke="#263238" stroke-linecap="round" stroke-linejoin="round"/>
<path d="M230.547 249.293H244.243" stroke="#263238" stroke-linecap="round" stroke-linejoin="round"/>
<path d="M220.275 249.293H228.147" stroke="#263238" stroke-linecap="round" stroke-linejoin="round"/>
<path d="M241.843 253.056H259.309" stroke="#263238" stroke-linecap="round" stroke-linejoin="round"/>
<path d="M220.275 253.056H238.765" stroke="#263238" stroke-linecap="round" stroke-linejoin="round"/>
<path d="M255.885 256.819H259.309" stroke="#263238" stroke-linecap="round" stroke-linejoin="round"/>
<path d="M236.71 256.819H253.146" stroke="#263238" stroke-linecap="round" stroke-linejoin="round"/>
<path d="M220.275 256.819H233.971" stroke="#263238" stroke-linecap="round" stroke-linejoin="round"/>
<path d="M289.92 35.5713H263.501C263.224 37.0345 262.445 38.3552 261.299 39.3061C260.153 40.2571 258.712 40.7786 257.222 40.7809H219.398C217.909 40.7786 216.468 40.2571 215.322 39.3061C214.176 38.3552 213.397 37.0345 213.12 35.5713H186.733C184.526 35.5713 182.41 36.4479 180.85 38.0082C179.289 39.5685 178.413 41.6847 178.413 43.8913V267.251C178.413 269.458 179.289 271.574 180.85 273.134C182.41 274.695 184.526 275.571 186.733 275.571H289.92C292.127 275.571 294.243 274.695 295.803 273.134C297.363 271.574 298.24 269.458 298.24 267.251V43.8913C298.24 41.6847 297.363 39.5685 295.803 38.0082C294.243 36.4479 292.127 35.5713 289.92 35.5713Z" stroke="#263238" stroke-width="2" stroke-linecap="round" stroke-linejoin="round"/>
<path d="M298.24 50.6433V43.8977C298.24 41.6911 297.363 39.5749 295.803 38.0146C294.243 36.4543 292.127 35.5777 289.92 35.5777H263.501C263.224 37.0409 262.445 38.3616 261.299 39.3125C260.153 40.2635 258.712 40.785 257.222 40.7873H219.398C217.908 40.7847 216.466 40.2623 215.32 39.3101C214.174 38.3579 213.396 37.0356 213.12 35.5713H186.733C184.526 35.5713 182.41 36.4479 180.85 38.0082C179.289 39.5685 178.413 41.6847 178.413 43.8913V50.6433H298.24Z" stroke="#263238" stroke-width="2" stroke-linecap="round" stroke-linejoin="round"/>
<path d="M189.389 41.6002C189.389 43.2386 187.546 43.8274 187.539 45.0754V45.1586H189.325V45.7154H186.944V45.2482C186.944 43.5202 188.8 43.149 188.8 41.6002C188.8 41.037 188.614 40.7426 188.16 40.7426C187.706 40.7426 187.52 41.0626 187.52 41.5426V42.0226H186.957V41.6002C186.957 40.7682 187.334 40.2178 188.173 40.2178C189.011 40.2178 189.389 40.7682 189.389 41.6002Z" fill="#263238"/>
<path d="M192.358 41.6001V41.7409C192.386 41.9706 192.338 42.2031 192.223 42.4037C192.108 42.6044 191.931 42.7624 191.718 42.8545C191.933 42.9471 192.112 43.1072 192.227 43.3105C192.343 43.5137 192.389 43.7491 192.358 43.9809V44.3969C192.358 45.2289 191.968 45.7729 191.136 45.7729C190.304 45.7729 189.914 45.2289 189.914 44.3969V44.0257H190.483V44.4353C190.483 44.9281 190.682 45.2225 191.123 45.2225C191.565 45.2225 191.763 44.9345 191.763 44.3841V43.9681C191.763 43.4305 191.533 43.1745 191.078 43.1553H190.72V42.6177H191.078C191.173 42.619 191.266 42.5997 191.351 42.5609C191.437 42.5222 191.513 42.4651 191.574 42.3936C191.635 42.3221 191.68 42.238 191.705 42.1473C191.73 42.0566 191.734 41.9615 191.718 41.8689V41.6001C191.718 41.0433 191.52 40.7553 191.078 40.7553C190.637 40.7553 190.438 41.0561 190.438 41.5489V41.8305H189.869V41.6001C189.869 40.7681 190.259 40.2305 191.091 40.2305C191.923 40.2305 192.358 40.7617 192.358 41.6001Z" fill="#263238"/>
<path d="M193.53 42.0032V42.7584H192.947V42.0032H193.53ZM193.53 44.96V45.7152H192.947V44.96H193.53Z" fill="#263238"/>
<path d="M194.759 42.4897C194.838 42.3475 194.956 42.2302 195.098 42.1511C195.241 42.072 195.402 42.0341 195.565 42.0417C196.263 42.0417 196.576 42.5537 196.576 43.3217V44.3841C196.576 45.2161 196.179 45.7601 195.347 45.7601C194.515 45.7601 194.131 45.2161 194.131 44.3841V44.0193H194.695V44.4225C194.695 44.9153 194.899 45.2097 195.335 45.2097C195.77 45.2097 195.975 44.9153 195.975 44.4225V43.3793C195.975 42.8865 195.776 42.5921 195.335 42.5921C195.253 42.5841 195.171 42.5931 195.094 42.6188C195.017 42.6444 194.945 42.686 194.885 42.7409C194.825 42.7958 194.777 42.8628 194.744 42.9375C194.711 43.0122 194.694 43.093 194.695 43.1745V43.2961H194.125L194.272 40.2817H196.416V40.8257H194.816L194.759 42.4897Z" fill="#263238"/>
<path d="M199.591 41.6001V41.6961H199.04V41.5553C199.04 41.0689 198.835 40.7809 198.4 40.7809C197.965 40.7809 197.76 41.0753 197.76 41.6577V42.8801C197.823 42.7006 197.942 42.5465 198.101 42.4413C198.259 42.3362 198.447 42.2857 198.637 42.2977C199.335 42.2977 199.648 42.7969 199.648 43.5777V44.3969C199.648 45.2289 199.239 45.7729 198.407 45.7729C197.575 45.7729 197.12 45.2225 197.12 44.3905V41.6001C197.12 40.7361 197.504 40.1985 198.368 40.1985C199.232 40.1985 199.591 40.7553 199.591 41.6001ZM197.722 43.6289V44.4417C197.722 44.9345 197.927 45.2289 198.362 45.2289C198.797 45.2289 199.002 44.9345 199.002 44.4417V43.6161C199.002 43.1297 198.791 42.8353 198.362 42.8353C197.933 42.8353 197.722 43.1297 197.722 43.6161V43.6289Z" fill="#263238"/>
<path d="M266.669 41.824H265.133V45.6576H266.669V41.824Z" fill="#263238"/>
<path d="M268.717 41.0562H267.181V45.6577H268.717V41.0562Z" fill="#263238"/>
<path d="M270.758 40.5122H269.222V45.6578H270.758V40.5122Z" fill="#263238"/>
<path d="M272.807 39.5586H271.271V45.6578H272.807V39.5586Z" fill="#263238"/>
<path d="M291.783 45.5489H282.579V39.9297H291.783V45.5489ZM283.091 45.0433H291.271V40.4417H283.091V45.0433Z" fill="#263238"/>
<path d="M288.717 40.9985H283.859V44.4865H288.717V40.9985Z" fill="#263238"/>
<path d="M292.621 42.0801H291.462V43.4049H292.621V42.0801Z" fill="#263238"/>
<path d="M279.206 44.3264C279.146 44.3275 279.086 44.312 279.034 44.2816C277.158 43.168 275.923 44.1984 275.872 44.2432C275.839 44.2771 275.799 44.3037 275.755 44.3214C275.711 44.3391 275.663 44.3475 275.616 44.3461C275.568 44.3447 275.522 44.3335 275.479 44.3133C275.436 44.293 275.397 44.2642 275.366 44.2284C275.335 44.1927 275.311 44.1509 275.297 44.1057C275.282 44.0604 275.277 44.0126 275.282 43.9654C275.287 43.9181 275.301 43.8724 275.325 43.831C275.348 43.7896 275.38 43.7535 275.418 43.7248C275.482 43.6672 277.069 42.3104 279.386 43.6864C279.462 43.7352 279.517 43.8118 279.538 43.9001C279.56 43.9883 279.546 44.0815 279.501 44.16C279.471 44.2111 279.428 44.2533 279.376 44.2825C279.324 44.3117 279.266 44.3269 279.206 44.3264Z" fill="#263238"/>
<path d="M279.898 43.1744C279.837 43.1733 279.777 43.1556 279.725 43.1232C277.018 41.5168 275.194 43.072 275.175 43.0848C275.141 43.1143 275.102 43.1368 275.059 43.1511C275.017 43.1654 274.972 43.1712 274.928 43.1682C274.883 43.1653 274.84 43.1536 274.8 43.1338C274.76 43.1139 274.724 43.0865 274.695 43.0528C274.665 43.0192 274.643 42.9801 274.628 42.9378C274.614 42.8955 274.608 42.8508 274.611 42.8062C274.614 42.7616 274.626 42.7181 274.646 42.678C274.665 42.638 274.693 42.6022 274.727 42.5728C274.727 42.5728 276.941 40.6528 280.077 42.5344C280.155 42.5821 280.211 42.6587 280.232 42.7475C280.254 42.8362 280.239 42.9299 280.192 43.008C280.161 43.0587 280.118 43.1006 280.067 43.1297C280.015 43.1588 279.957 43.1742 279.898 43.1744Z" fill="#263238"/>
<path d="M280.531 41.837C280.468 41.8357 280.406 41.8181 280.352 41.7858C276.922 39.7506 274.643 41.6706 274.547 41.7538C274.478 41.8064 274.391 41.8307 274.304 41.8218C274.217 41.8129 274.137 41.7714 274.079 41.7058C274.022 41.6401 273.991 41.5552 273.994 41.4679C273.996 41.3806 274.032 41.2976 274.093 41.2354C274.125 41.2354 276.832 38.893 280.704 41.197C280.743 41.2201 280.777 41.2507 280.805 41.287C280.832 41.3233 280.852 41.3646 280.863 41.4086C280.874 41.4526 280.877 41.4984 280.87 41.5433C280.864 41.5883 280.849 41.6315 280.826 41.6706C280.795 41.7208 280.751 41.7624 280.7 41.7915C280.648 41.8205 280.59 41.8362 280.531 41.837Z" fill="#263238"/>
<path d="M278.17 44.9025C278.171 45.074 278.121 45.2419 278.027 45.385C277.932 45.528 277.797 45.6397 277.639 45.7059C277.481 45.7721 277.307 45.7898 277.139 45.7566C276.97 45.7235 276.816 45.6411 276.695 45.5199C276.574 45.3986 276.491 45.2441 276.458 45.0759C276.425 44.9077 276.442 44.7335 276.509 44.5753C276.575 44.4172 276.687 44.2823 276.83 44.1879C276.973 44.0934 277.141 44.0437 277.312 44.0449C277.539 44.0449 277.758 44.1353 277.918 44.2961C278.079 44.457 278.17 44.6751 278.17 44.9025Z" fill="#263238"/>
<path d="M288.64 285.766H302.08" stroke="#263238" stroke-linecap="round" stroke-linejoin="round"/>
<path d="M35.2 285.766H284.16" stroke="#263238" stroke-linecap="round" stroke-linejoin="round"/>
<path d="M17.696 285.766H26.88" stroke="#263238" stroke-linecap="round" stroke-linejoin="round"/>
<path d="M109.875 199.578H100.096V284.57H109.875V199.578Z" fill="#263238" stroke="#263238" stroke-linecap="round" stroke-linejoin="round"/>
<path d="M32.3328 230.355V236.333H71.3088V230.355H32.3328Z" fill="#263238" stroke="#263238" stroke-linecap="round" stroke-linejoin="round"/>
<path d="M36.3392 209.722H30.3616V233.638H36.3392V209.722Z" fill="#263238" stroke="#263238" stroke-linecap="round" stroke-linejoin="round"/>
<path d="M38.8289 233.741C38.8289 234.46 38.6871 235.172 38.4117 235.836C38.1363 236.501 37.7327 237.104 37.2239 237.612C36.7151 238.12 36.1111 238.523 35.4465 238.798C34.7818 239.073 34.0696 239.214 33.3505 239.213C33.1713 239.213 32.9921 239.213 32.8193 239.213C31.8225 239.114 30.8717 238.744 30.0705 238.143C29.2693 237.542 28.6482 236.733 28.2748 235.803C27.9014 234.874 27.7899 233.86 27.9526 232.871C28.1153 231.883 28.5458 230.958 29.1974 230.197C29.849 229.436 30.6967 228.869 31.6483 228.556C32.5999 228.244 33.6191 228.198 34.5949 228.424C35.5707 228.65 36.4659 229.139 37.183 229.839C37.9002 230.538 38.4119 231.42 38.6625 232.39C38.7718 232.832 38.8276 233.286 38.8289 233.741Z" fill="white" stroke="#263238" stroke-linecap="round" stroke-linejoin="round"/>
<path d="M39.2319 213.408C39.2285 214.859 38.6501 216.25 37.6232 217.276C36.5964 218.301 35.2049 218.878 33.7535 218.88C33.5743 218.88 33.3951 218.88 33.2159 218.88C32.2186 218.784 31.2666 218.417 30.4635 217.818C29.6604 217.219 29.0369 216.412 28.6608 215.483C28.2848 214.554 28.1706 213.54 28.3306 212.551C28.4907 211.562 28.9189 210.636 29.5687 209.874C30.2185 209.111 31.0649 208.541 32.016 208.226C32.967 207.911 33.9863 207.863 34.9628 208.087C35.9394 208.311 36.8358 208.798 37.5547 209.496C38.2735 210.194 38.7872 211.075 39.0399 212.045C39.1629 212.489 39.2274 212.947 39.2319 213.408Z" fill="white" stroke="#263238" stroke-linecap="round" stroke-linejoin="round"/>
<path d="M49.0412 198.56L41.0732 202.85L42.7238 205.916L50.6918 201.625L49.0412 198.56Z" fill="#263238" stroke="#263238" stroke-linecap="round" stroke-linejoin="round"/>
<path d="M52.0128 201.958L48.0896 204.07L45.5808 199.418L49.5104 197.299C49.8187 197.13 50.1578 197.025 50.5075 196.989C50.8573 196.952 51.2108 196.987 51.5471 197.089C51.8834 197.192 52.1958 197.361 52.466 197.586C52.7361 197.811 52.9585 198.088 53.12 198.4C53.4412 199.019 53.505 199.741 53.2977 200.407C53.0904 201.073 52.6287 201.631 52.0128 201.958Z" fill="white" stroke="#263238" stroke-linecap="round" stroke-linejoin="round"/>
<path d="M34.8161 182.227L34.5345 198.458L31.0593 198.4L31.3345 182.17L34.8161 182.227Z" fill="#263238" stroke="#263238" stroke-linecap="round" stroke-linejoin="round"/>
<path d="M35.7569 181.248L35.6865 185.728L30.4001 185.6L30.4705 181.12C30.4764 180.773 30.5505 180.43 30.6888 180.112C30.827 179.793 31.0267 179.505 31.2763 179.264C31.5259 179.023 31.8206 178.833 32.1436 178.706C32.4665 178.578 32.8114 178.516 33.1585 178.522C33.5092 178.527 33.8554 178.601 34.1769 178.742C34.4983 178.882 34.7885 179.085 35.0304 179.339C35.2724 179.593 35.4613 179.893 35.5861 180.22C35.7108 180.548 35.7689 180.898 35.7569 181.248Z" fill="white" stroke="#263238" stroke-linecap="round" stroke-linejoin="round"/>
<path d="M47.821 188.115L40.1858 202.438L37.1138 200.806L44.7426 186.483L47.821 188.115Z" fill="#263238" stroke="#263238" stroke-linecap="round" stroke-linejoin="round"/>
<path d="M49.1009 187.673L47.0081 191.61L42.3425 189.133L44.4289 185.19C44.759 184.573 45.3198 184.112 45.9889 183.907C46.658 183.702 47.381 183.77 48.0001 184.096C48.62 184.425 49.084 184.986 49.2904 185.657C49.4967 186.328 49.4286 187.053 49.1009 187.673Z" fill="white" stroke="#263238" stroke-linecap="round" stroke-linejoin="round"/>
<path d="M22.4768 188.051L30.0416 202.413L26.9632 204.038L19.3984 189.677L22.4768 188.051Z" fill="#263238" stroke="#263238" stroke-linecap="round" stroke-linejoin="round"/>
<path d="M29.5746 198.464C29.4624 197.8 29.1556 197.184 28.6932 196.694C28.2308 196.204 27.6334 195.862 26.9767 195.712C26.32 195.562 25.6334 195.61 25.004 195.85C24.3745 196.09 23.8305 196.511 23.4406 197.061C23.0507 197.61 22.8326 198.263 22.8138 198.936C22.795 199.61 22.9765 200.273 23.3351 200.844C23.6938 201.414 24.2135 201.865 24.8286 202.14C25.4437 202.415 26.1265 202.501 26.7906 202.387C27.6796 202.235 28.4721 201.737 28.994 201.001C29.516 200.266 29.7248 199.353 29.5746 198.464Z" fill="white" stroke="#263238" stroke-linecap="round" stroke-linejoin="round"/>
<path d="M32.9024 198.912C34.7828 198.912 36.3072 197.388 36.3072 195.507C36.3072 193.627 34.7828 192.102 32.9024 192.102C31.0219 192.102 29.4976 193.627 29.4976 195.507C29.4976 197.388 31.0219 198.912 32.9024 198.912Z" fill="white" stroke="#263238" stroke-linecap="round" stroke-linejoin="round"/>
<path d="M44.0129 197.472C44.1154 196.806 44.018 196.125 43.7332 195.515C43.4485 194.904 42.989 194.392 42.413 194.043C41.837 193.693 41.1703 193.523 40.4974 193.553C39.8244 193.582 39.1754 193.811 38.6325 194.21C38.0895 194.608 37.6771 195.159 37.4472 195.792C37.2174 196.426 37.1806 197.113 37.3414 197.767C37.5022 198.421 37.8534 199.013 38.3506 199.467C38.8478 199.922 39.4686 200.218 40.1345 200.32C40.5762 200.388 41.0271 200.369 41.4612 200.262C41.8954 200.156 42.3043 199.965 42.6645 199.701C43.0248 199.436 43.3293 199.103 43.5607 198.721C43.7921 198.338 43.9457 197.914 44.0129 197.472Z" fill="white" stroke="#263238" stroke-linecap="round" stroke-linejoin="round"/>
<path d="M22.8289 186.739L24.9153 190.682L20.2433 193.158L18.1569 189.21C17.9939 188.903 17.8931 188.567 17.8602 188.222C17.8274 187.876 17.8631 187.527 17.9654 187.195C18.0677 186.864 18.2345 186.555 18.4562 186.288C18.678 186.021 18.9503 185.8 19.2577 185.638C19.8776 185.313 20.6012 185.246 21.2704 185.452C21.9395 185.658 22.4999 186.121 22.8289 186.739Z" fill="white" stroke="#263238" stroke-linecap="round" stroke-linejoin="round"/>
<path d="M43.36 205.037C43.36 207.583 42.3486 210.025 40.5483 211.825C38.7479 213.625 36.3061 214.637 33.76 214.637C33.44 214.637 33.12 214.637 32.8192 214.598C31.0729 214.425 29.4075 213.777 28.0039 212.724C26.6003 211.67 25.5123 210.252 24.8582 208.624C24.204 206.995 24.0087 205.219 24.2935 203.487C24.5783 201.756 25.3323 200.135 26.4735 198.802C27.6148 197.469 29.0996 196.474 30.7666 195.926C32.4336 195.378 34.219 195.297 35.9288 195.692C37.6385 196.087 39.2072 196.944 40.4644 198.168C41.7215 199.393 42.619 200.938 43.0592 202.637C43.2577 203.421 43.3588 204.228 43.36 205.037Z" fill="white" stroke="#263238" stroke-linecap="round" stroke-linejoin="round"/>
<path d="M43.36 205.037C43.36 207.583 42.3486 210.025 40.5482 211.825C38.7479 213.625 36.3061 214.637 33.76 214.637C33.44 214.637 33.12 214.637 32.8192 214.598C32.4514 213.178 32.4141 211.692 32.7101 210.255C33.0061 208.818 33.6276 207.468 34.5269 206.309C35.4261 205.149 36.5791 204.211 37.8973 203.567C39.2156 202.923 40.6639 202.589 42.1312 202.592C42.4448 202.592 42.7712 202.592 43.072 202.637C43.2662 203.422 43.3629 204.228 43.36 205.037Z" fill="white" stroke="#263238" stroke-linecap="round" stroke-linejoin="round"/>
<path d="M91.6996 233.914C93.3296 226.948 89.004 219.98 82.0381 218.35C75.0722 216.72 68.1038 221.045 66.4738 228.011C64.8438 234.977 69.1694 241.945 76.1354 243.575C83.1013 245.205 90.0696 240.88 91.6996 233.914Z" fill="white" stroke="#263238" stroke-linecap="round" stroke-linejoin="round"/>
<path d="M81.4934 236.755C84.6937 235.42 86.206 231.744 84.8712 228.544C83.5365 225.343 79.8601 223.831 76.6598 225.166C73.4596 226.501 71.9473 230.177 73.282 233.377C74.6168 236.578 78.2932 238.09 81.4934 236.755Z" fill="#263238" stroke="#263238" stroke-linecap="round" stroke-linejoin="round"/>
<path d="M76.8575 285.766H134.33L135.155 281.875C135.486 280.321 135.189 278.698 134.328 277.363C133.467 276.027 132.112 275.086 130.56 274.745C122.413 272.915 104.774 272.256 104.774 272.256C100.525 272.39 88.6975 272.896 80.5503 274.752C79.0088 275.104 77.6678 276.048 76.8174 277.382C75.967 278.715 75.6757 280.329 76.0063 281.875L76.8575 285.766Z" fill="white" stroke="#263238" stroke-linecap="round" stroke-linejoin="round"/>
<path d="M119.424 273.203C112.064 272.525 104.794 272.256 104.794 272.256C102.118 272.339 96.4353 272.576 90.5601 273.203C92.2753 279.059 98.0865 283.373 104.992 283.373C111.898 283.373 117.709 279.04 119.424 273.203Z" fill="#4057A2" stroke="#263238" stroke-linecap="round" stroke-linejoin="round"/>
<path d="M165.02 258.324L168.595 253.533L137.357 230.224L133.782 235.014L165.02 258.324Z" fill="#263238" stroke="#263238" stroke-linecap="round" stroke-linejoin="round"/>
<path d="M149.475 272.467L154.265 276.042L168.569 256.873L163.778 253.298L149.475 272.467Z" fill="#263238" stroke="#263238" stroke-linecap="round" stroke-linejoin="round"/>
<path d="M161.837 251.725C162.268 251.147 162.808 250.66 163.428 250.291C164.047 249.923 164.733 249.68 165.446 249.576C166.159 249.473 166.886 249.511 167.584 249.689C168.283 249.866 168.94 250.18 169.517 250.611L169.933 250.95C170.673 251.625 171.214 252.491 171.497 253.452C171.779 254.413 171.793 255.433 171.536 256.401C171.28 257.37 170.762 258.249 170.041 258.944C169.319 259.639 168.421 260.123 167.443 260.343C166.466 260.563 165.447 260.51 164.497 260.191C163.548 259.873 162.703 259.299 162.057 258.534C161.41 257.769 160.986 256.841 160.829 255.852C160.673 254.862 160.791 253.849 161.171 252.922C161.343 252.497 161.567 252.095 161.837 251.725Z" fill="white" stroke="#263238" stroke-linecap="round" stroke-linejoin="round"/>
<path d="M149.338 267.04C150.149 265.835 151.406 265.002 152.832 264.723C154.258 264.445 155.736 264.744 156.941 265.555C157.088 265.651 157.229 265.76 157.37 265.869C158.142 266.507 158.725 267.344 159.055 268.29C159.385 269.236 159.449 270.255 159.241 271.234C159.032 272.214 158.559 273.118 157.872 273.848C157.185 274.578 156.312 275.105 155.346 275.373C154.381 275.641 153.361 275.639 152.396 275.367C151.432 275.095 150.561 274.564 149.877 273.832C149.193 273.099 148.724 272.193 148.519 271.212C148.315 270.232 148.383 269.213 148.717 268.269C148.872 267.835 149.08 267.422 149.338 267.04Z" fill="white" stroke="#263238" stroke-linecap="round" stroke-linejoin="round"/>
<path d="M132.887 273.896L141.893 274.781L142.234 271.316L133.227 270.431L132.887 273.896Z" fill="#263238" stroke="#263238" stroke-linecap="round" stroke-linejoin="round"/>
<path d="M132.339 269.44L136.781 269.875L136.262 275.136L131.821 274.701C131.123 274.633 130.481 274.29 130.036 273.749C129.591 273.208 129.379 272.512 129.446 271.814C129.516 271.116 129.86 270.474 130.402 270.029C130.944 269.584 131.641 269.372 132.339 269.44Z" fill="white" stroke="#263238" stroke-linecap="round" stroke-linejoin="round"/>
<path d="M141.235 271.68C141.939 270.632 142.842 269.733 143.893 269.034C144.945 268.335 146.123 267.851 147.362 267.608C148.601 267.366 149.876 267.37 151.113 267.62C152.35 267.871 153.526 268.363 154.573 269.069C154.835 269.248 155.085 269.434 155.328 269.632C156.681 270.75 157.702 272.218 158.279 273.876C158.856 275.533 158.968 277.318 158.601 279.034C158.235 280.751 157.406 282.335 156.202 283.613C154.999 284.891 153.469 285.814 151.777 286.283C150.086 286.752 148.298 286.748 146.608 286.272C144.919 285.796 143.392 284.866 142.195 283.583C140.997 282.299 140.174 280.712 139.815 278.994C139.456 277.276 139.576 275.492 140.16 273.837C140.425 273.075 140.786 272.35 141.235 271.68Z" fill="white" stroke="#263238" stroke-linecap="round" stroke-linejoin="round"/>
<path d="M130.893 281.651L142.797 272.749L144.71 275.302L132.806 284.198L130.893 281.651Z" fill="#263238" stroke="#263238" stroke-linecap="round" stroke-linejoin="round"/>
<path d="M129.658 281.517L132.928 279.04L135.834 282.88L132.563 285.331C132.05 285.716 131.405 285.88 130.77 285.789C130.135 285.698 129.562 285.358 129.178 284.845C128.809 284.337 128.653 283.705 128.742 283.083C128.832 282.462 129.16 281.9 129.658 281.517Z" fill="white" stroke="#263238" stroke-linecap="round" stroke-linejoin="round"/>
<path d="M146.266 275.494C146.417 274.837 146.369 274.15 146.13 273.52C145.89 272.889 145.468 272.344 144.918 271.954C144.368 271.564 143.714 271.346 143.04 271.327C142.366 271.309 141.701 271.492 141.131 271.851C140.56 272.211 140.11 272.732 139.836 273.349C139.562 273.965 139.478 274.649 139.593 275.314C139.708 275.978 140.018 276.593 140.484 277.081C140.95 277.569 141.55 277.908 142.208 278.054C143.085 278.25 144.004 278.09 144.764 277.611C145.524 277.131 146.064 276.37 146.266 275.494Z" fill="white" stroke="#263238" stroke-linecap="round" stroke-linejoin="round"/>
<path d="M152.576 290.598L154.343 278.387L156.96 278.758L155.2 290.97L152.576 290.598Z" fill="#263238" stroke="#263238" stroke-linecap="round" stroke-linejoin="round"/>
<path d="M151.776 291.245L152.256 287.885L156.231 288.454L155.751 291.808C155.714 292.069 155.626 292.321 155.491 292.548C155.357 292.776 155.18 292.974 154.969 293.133C154.758 293.292 154.517 293.407 154.262 293.473C154.006 293.539 153.74 293.554 153.479 293.517C152.952 293.441 152.477 293.159 152.157 292.733C151.838 292.307 151.701 291.772 151.776 291.245Z" fill="white" stroke="#263238" stroke-linecap="round" stroke-linejoin="round"/>
<path d="M157.984 277.958C157.683 277.489 157.249 277.119 156.738 276.896C156.226 276.673 155.661 276.606 155.111 276.705C154.562 276.803 154.055 277.062 153.652 277.448C153.25 277.835 152.972 278.332 152.852 278.877C152.732 279.422 152.777 279.99 152.98 280.51C153.183 281.03 153.535 281.477 153.993 281.797C154.45 282.116 154.992 282.293 155.55 282.305C156.107 282.316 156.656 282.162 157.126 281.862C157.757 281.458 158.202 280.82 158.363 280.088C158.524 279.356 158.387 278.59 157.984 277.958Z" fill="white" stroke="#263238" stroke-linecap="round" stroke-linejoin="round"/>
<path d="M140.794 288.973L148.73 276.403L151.424 278.093L143.495 290.669L140.794 288.973Z" fill="#263238" stroke="#263238" stroke-linecap="round" stroke-linejoin="round"/>
<path d="M139.597 289.28L141.766 285.824L145.869 288.384L143.693 291.846C143.35 292.388 142.808 292.772 142.183 292.915C141.558 293.058 140.902 292.947 140.358 292.608C139.817 292.267 139.433 291.725 139.29 291.101C139.148 290.478 139.258 289.823 139.597 289.28Z" fill="white" stroke="#263238" stroke-linecap="round" stroke-linejoin="round"/>
<path d="M152.96 277.722C152.865 277.055 152.574 276.432 152.125 275.931C151.675 275.43 151.087 275.074 150.435 274.907C149.782 274.741 149.095 274.773 148.461 274.997C147.826 275.222 147.273 275.631 146.87 276.17C146.468 276.71 146.235 277.357 146.202 278.03C146.168 278.702 146.334 279.369 146.68 279.947C147.026 280.524 147.536 280.986 148.144 281.274C148.753 281.561 149.434 281.661 150.099 281.562C150.987 281.43 151.787 280.952 152.323 280.233C152.859 279.513 153.088 278.61 152.96 277.722Z" fill="white" stroke="#263238" stroke-linecap="round" stroke-linejoin="round"/>
<path d="M138.258 242.079C144.274 238.207 146.011 230.191 142.139 224.176C138.266 218.16 130.251 216.423 124.235 220.295C118.22 224.168 116.482 232.183 120.355 238.199C124.227 244.214 132.243 245.952 138.258 242.079Z" fill="white" stroke="#263238" stroke-linecap="round" stroke-linejoin="round"/>
<path d="M136.959 233.81C138.404 230.658 137.021 226.931 133.87 225.485C130.718 224.04 126.991 225.423 125.545 228.575C124.1 231.726 125.483 235.453 128.634 236.899C131.786 238.344 135.513 236.961 136.959 233.81Z" fill="#263238" stroke="#263238" stroke-linecap="round" stroke-linejoin="round"/>
<path d="M104.986 205.517C116.477 205.517 125.792 196.201 125.792 184.71C125.792 173.219 116.477 163.904 104.986 163.904C93.4945 163.904 84.1792 173.219 84.1792 184.71C84.1792 196.201 93.4945 205.517 104.986 205.517Z" fill="#4057A2" stroke="#263238" stroke-linecap="round" stroke-linejoin="round"/>
<path d="M134.733 198.566C139.201 192.964 141.997 186.215 142.8 179.094C143.603 171.973 142.38 164.77 139.271 158.314C136.162 151.858 131.294 146.41 125.226 142.597C119.159 138.785 112.139 136.762 104.973 136.762C97.8069 136.762 90.7865 138.785 84.719 142.597C78.6516 146.41 73.7835 151.858 70.6746 158.314C67.5658 164.77 66.3424 171.973 67.1452 179.094C67.948 186.215 70.7444 192.964 75.2127 198.566H134.733Z" fill="white" stroke="#263238" stroke-linecap="round" stroke-linejoin="round"/>
<path d="M128.269 160.461H80.7425C77.8512 160.461 75.5073 162.805 75.5073 165.696V182.541C75.5073 185.432 77.8512 187.776 80.7425 187.776H128.269C131.16 187.776 133.504 185.432 133.504 182.541V165.696C133.504 162.805 131.16 160.461 128.269 160.461Z" fill="#4057A2" stroke="#263238" stroke-linecap="round" stroke-linejoin="round"/>
<path d="M81.7793 173.011C82.4078 171.251 83.5534 169.722 85.0659 168.625C86.5783 167.527 88.3871 166.912 90.2551 166.86C92.1231 166.808 93.9633 167.322 95.5343 168.334C97.1054 169.346 98.334 170.809 99.0593 172.531" stroke="#263238" stroke-width="5" stroke-linecap="round" stroke-linejoin="round"/>
<path d="M110.445 173.011C111.073 171.251 112.219 169.722 113.731 168.625C115.244 167.527 117.053 166.912 118.921 166.86C120.789 166.808 122.629 167.322 124.2 168.334C125.771 169.346 127 170.809 127.725 172.531" stroke="#263238" stroke-width="5" stroke-linecap="round" stroke-linejoin="round"/>
<path d="M99.968 179.341C100.129 180.61 100.747 181.777 101.707 182.623C102.666 183.469 103.902 183.935 105.181 183.935C106.46 183.935 107.695 183.469 108.655 182.623C109.615 181.777 110.233 180.61 110.394 179.341H99.968Z" fill="white" stroke="#263238" stroke-linecap="round" stroke-linejoin="round"/>
<path d="M154.24 181.504C153.184 181.504 152.172 181.085 151.425 180.338C150.679 179.591 150.259 178.579 150.259 177.523V168.467C150.258 167.944 150.361 167.426 150.56 166.942C150.76 166.458 151.053 166.019 151.423 165.648C151.793 165.278 152.232 164.984 152.715 164.784C153.199 164.583 153.717 164.48 154.24 164.48C154.763 164.479 155.282 164.581 155.765 164.781C156.249 164.981 156.689 165.274 157.059 165.644C157.429 166.013 157.723 166.453 157.924 166.936C158.124 167.419 158.227 167.937 158.227 168.461V177.517C158.228 178.041 158.126 178.559 157.925 179.044C157.725 179.528 157.432 179.968 157.061 180.338C156.691 180.708 156.251 181.002 155.767 181.202C155.283 181.402 154.764 181.505 154.24 181.504Z" fill="#263238" stroke="#263238" stroke-linecap="round" stroke-linejoin="round"/>
<path d="M54.6432 181.504C54.1199 181.505 53.6016 181.402 53.1179 181.203C52.6341 181.003 52.1945 180.71 51.8242 180.34C51.4539 179.971 51.1601 179.531 50.9596 179.048C50.7592 178.565 50.656 178.046 50.656 177.523V168.467C50.6552 167.943 50.7577 167.424 50.9578 166.94C51.1579 166.456 51.4515 166.016 51.822 165.646C52.1924 165.276 52.6322 164.982 53.1164 164.782C53.6005 164.582 54.1194 164.479 54.6432 164.48C55.166 164.48 55.6836 164.583 56.1666 164.783C56.6496 164.983 57.0884 165.276 57.4581 165.646C57.8277 166.016 58.1209 166.454 58.321 166.937C58.521 167.42 58.624 167.938 58.624 168.461V177.517C58.6248 178.04 58.5225 178.558 58.3228 179.042C58.1231 179.526 57.8301 179.965 57.4603 180.336C57.0906 180.706 56.6515 181 56.1681 181.2C55.6847 181.401 55.1665 181.504 54.6432 181.504Z" fill="#263238" stroke="#263238" stroke-linecap="round" stroke-linejoin="round"/>
<path d="M67.405 140.64C63.8838 145.843 62.0064 151.983 62.0162 158.265V164.845" stroke="#263238" stroke-width="14" stroke-linecap="round" stroke-linejoin="round"/>
<path d="M142.976 140.666C140.094 136.372 136.2 132.854 131.638 130.422C127.075 127.99 121.983 126.719 116.813 126.72H93.5488C88.3854 126.716 83.3003 127.982 78.7413 130.406C74.1823 132.83 70.2892 136.338 67.4048 140.621" stroke="#263238" stroke-width="7" stroke-linecap="round" stroke-linejoin="round"/>
<path d="M148.339 164.845V158.266C148.349 151.995 146.481 145.865 142.976 140.666" stroke="#263238" stroke-width="14" stroke-linecap="round" stroke-linejoin="round"/>
<path d="M65.1905 157.76H59.8529C56.7636 157.76 54.2593 160.264 54.2593 163.354V181.843C54.2593 184.932 56.7636 187.437 59.8529 187.437H65.1905C68.2797 187.437 70.7841 184.932 70.7841 181.843V163.354C70.7841 160.264 68.2797 157.76 65.1905 157.76Z" fill="white" stroke="#263238" stroke-linecap="round" stroke-linejoin="round"/>
<path d="M63.3666 157.76H61.6833V187.437H63.3666V157.76Z" fill="#4057A2" stroke="#263238" stroke-linecap="round" stroke-linejoin="round"/>
<path d="M149.491 157.76H144.154C141.064 157.76 138.56 160.264 138.56 163.354V181.843C138.56 184.932 141.064 187.437 144.154 187.437H149.491C152.581 187.437 155.085 184.932 155.085 181.843V163.354C155.085 160.264 152.581 157.76 149.491 157.76Z" fill="white" stroke="#263238" stroke-linecap="round" stroke-linejoin="round"/>
<path d="M147.667 157.76H145.984V187.437H147.667V157.76Z" fill="#4057A2" stroke="#263238" stroke-linecap="round" stroke-linejoin="round"/>
<path d="M105.12 155.066C108.035 155.066 110.905 154.337 113.466 152.944C116.027 151.551 118.199 149.539 119.782 147.091L123.392 141.504C117.672 138.345 111.235 136.712 104.702 136.763C98.1676 136.813 91.7568 138.545 86.0864 141.792L91.52 148.538C93.1546 150.573 95.2249 152.217 97.5786 153.346C99.9322 154.476 102.509 155.064 105.12 155.066Z" fill="#4057A2" stroke="#263238" stroke-linecap="round" stroke-linejoin="round"/>
<path d="M106.022 190.541C106.022 190.414 105.985 190.291 105.915 190.185C105.844 190.08 105.744 189.998 105.627 189.95C105.51 189.901 105.382 189.888 105.258 189.913C105.133 189.938 105.019 189.999 104.93 190.088C104.84 190.178 104.779 190.292 104.755 190.416C104.73 190.54 104.743 190.669 104.791 190.786C104.84 190.903 104.922 191.003 105.027 191.073C105.132 191.143 105.256 191.181 105.382 191.181C105.552 191.181 105.715 191.113 105.835 190.993C105.955 190.873 106.022 190.711 106.022 190.541Z" fill="#263238"/>
<path d="M106.022 192.691C106.022 192.565 105.985 192.441 105.915 192.336C105.844 192.23 105.744 192.148 105.627 192.1C105.51 192.052 105.382 192.039 105.258 192.064C105.133 192.088 105.019 192.149 104.93 192.239C104.84 192.328 104.779 192.442 104.755 192.566C104.73 192.691 104.743 192.819 104.791 192.936C104.84 193.053 104.922 193.153 105.027 193.223C105.132 193.294 105.256 193.331 105.382 193.331C105.552 193.331 105.715 193.264 105.835 193.144C105.955 193.024 106.022 192.861 106.022 192.691Z" fill="#263238"/>
<path d="M103.584 192.358C103.701 192.283 103.79 192.171 103.838 192.041C103.886 191.91 103.89 191.767 103.849 191.634C103.809 191.501 103.726 191.385 103.614 191.303C103.501 191.221 103.365 191.178 103.226 191.181C103.109 191.256 103.02 191.368 102.972 191.498C102.924 191.629 102.92 191.772 102.961 191.905C103.001 192.038 103.084 192.154 103.196 192.236C103.309 192.318 103.445 192.361 103.584 192.358Z" fill="#263238"/>
<path d="M107.43 192.358C107.529 192.357 107.627 192.332 107.715 192.286C107.802 192.24 107.878 192.175 107.937 192.095C107.995 192.015 108.034 191.922 108.05 191.825C108.067 191.727 108.06 191.627 108.031 191.532C108.003 191.437 107.952 191.351 107.884 191.279C107.816 191.207 107.732 191.151 107.639 191.117C107.546 191.083 107.447 191.071 107.348 191.082C107.25 191.093 107.155 191.127 107.072 191.181C106.973 191.182 106.876 191.207 106.788 191.253C106.7 191.299 106.624 191.364 106.566 191.444C106.508 191.524 106.469 191.617 106.452 191.714C106.436 191.812 106.442 191.912 106.471 192.007C106.5 192.102 106.55 192.188 106.618 192.26C106.686 192.332 106.77 192.387 106.863 192.422C106.956 192.456 107.056 192.468 107.154 192.457C107.253 192.446 107.347 192.412 107.43 192.358Z" fill="#263238"/>
<path d="M130.56 214.554C122.413 212.717 104.775 212.058 104.775 212.058C100.525 212.192 88.6977 212.698 80.5505 214.56C79.0081 214.91 77.6661 215.855 76.8154 217.188C75.9648 218.522 75.6741 220.137 76.0065 221.683L83.5521 256.986C83.9229 258.697 84.8675 260.231 86.2294 261.332C87.5913 262.433 89.2887 263.036 91.0401 263.04H120.128C121.88 263.036 123.577 262.433 124.939 261.332C126.301 260.231 127.245 258.697 127.616 256.986L135.155 221.683C135.486 220.129 135.189 218.507 134.328 217.171C133.467 215.835 132.112 214.894 130.56 214.554Z" fill="white" stroke="#263238" stroke-linecap="round" stroke-linejoin="round"/>
<path d="M126.848 213.875C118.01 212.557 104.794 212.058 104.794 212.058C98.3227 212.243 91.8664 212.777 85.4529 213.658L94.0033 263.04H117.242L126.848 213.875Z" fill="#4057A2" stroke="#263238" stroke-linecap="round" stroke-linejoin="round"/>
<path d="M112.423 222.79H98.2657C95.3744 222.79 93.0305 225.134 93.0305 228.025V234.937C93.0305 237.829 95.3744 240.173 98.2657 240.173H112.423C115.314 240.173 117.658 237.829 117.658 234.937V228.025C117.658 225.134 115.314 222.79 112.423 222.79Z" fill="white" stroke="#263238" stroke-linecap="round" stroke-linejoin="round"/>
<path d="M101.21 229.952H97.2224V233.939H101.21V229.952Z" fill="white" stroke="#263238" stroke-linecap="round" stroke-linejoin="round"/>
<path d="M107.334 229.952H103.347V233.939H107.334V229.952Z" fill="white" stroke="#263238" stroke-linecap="round" stroke-linejoin="round"/>
<path d="M113.466 229.952H109.479V233.939H113.466V229.952Z" fill="white" stroke="#263238" stroke-linecap="round" stroke-linejoin="round"/>
<path d="M49.3184 251.878H120.256C121.105 251.878 121.919 252.216 122.519 252.816C123.119 253.416 123.456 254.23 123.456 255.078V294.931H46.1184V255.078C46.1184 254.23 46.4556 253.416 47.0557 252.816C47.6558 252.216 48.4697 251.878 49.3184 251.878Z" fill="white" stroke="#263238" stroke-linecap="round" stroke-linejoin="round"/>
<path d="M123.456 266.202C113.741 268.666 103.77 274.938 85.1904 283.77C67.2704 292.294 52.6016 292.147 46.1184 291.488V294.931H123.456V266.202Z" fill="#263238" stroke="#263238" stroke-linecap="round" stroke-linejoin="round"/>
<path d="M123.456 292.544H46.1184V294.938H123.456V292.544Z" fill="white" stroke="#263238" stroke-linecap="round" stroke-linejoin="round"/>
<path d="M88.7745 273.408C88.7745 274.197 88.5406 274.968 88.1025 275.623C87.6644 276.279 87.0417 276.79 86.3131 277.092C85.5845 277.394 84.7828 277.473 84.0094 277.319C83.2359 277.165 82.5255 276.785 81.9679 276.227C81.4103 275.67 81.0305 274.959 80.8767 274.186C80.7228 273.413 80.8018 272.611 81.1036 271.882C81.4053 271.154 81.9164 270.531 82.5721 270.093C83.2278 269.655 83.9987 269.421 84.7872 269.421C85.8447 269.421 86.8589 269.841 87.6066 270.589C88.3544 271.336 88.7745 272.351 88.7745 273.408Z" fill="white" stroke="#263238" stroke-linecap="round" stroke-linejoin="round"/>
</svg>
