<svg width="20" height="20" viewBox="0 0 20 20" fill="none" xmlns="http://www.w3.org/2000/svg">
<g clip-path="url(#clip0_57_413)">
<path d="M8.33329 18.3333C12.0152 18.3333 15 15.3486 15 11.6667C15 7.98477 12.0152 5 8.33329 5C4.65139 5 1.66663 7.98477 1.66663 11.6667C1.66663 12.6963 1.90002 13.6713 2.31679 14.5419C2.46004 14.8411 2.51033 15.1801 2.42459 15.5005L2.15122 16.5222C1.93575 17.3275 2.67247 18.0642 3.47775 17.8487L4.49945 17.5754C4.8199 17.4896 5.15888 17.5399 5.45809 17.6832C6.32863 18.0999 7.3037 18.3333 8.33329 18.3333Z" stroke="#BBBFD0" stroke-width="1.5"/>
<path d="M15 12.0849C15.0554 12.0618 15.1103 12.0378 15.1647 12.013C15.4665 11.8751 15.805 11.8236 16.1255 11.9093L16.5222 12.0155C17.3274 12.231 18.0642 11.4942 17.8487 10.689L17.7426 10.2923C17.6568 9.9718 17.7084 9.63326 17.8462 9.33152C18.159 8.64674 18.3333 7.88543 18.3333 7.08341C18.3333 4.09187 15.9082 1.66675 12.9166 1.66675C10.6647 1.66675 8.73381 3.0409 7.91663 4.99642" stroke="#BBBFD0" stroke-width="1.5"/>
<path d="M6.25004 11.6666C6.25004 12.1268 5.87694 12.4999 5.41671 12.4999C4.95647 12.4999 4.58337 12.1268 4.58337 11.6666C4.58337 11.2063 4.95647 10.8333 5.41671 10.8333C5.87694 10.8333 6.25004 11.2063 6.25004 11.6666Z" fill="#BBBFD0"/>
<path d="M9.16671 11.6666C9.16671 12.1268 8.79361 12.4999 8.33337 12.4999C7.87314 12.4999 7.50004 12.1268 7.50004 11.6666C7.50004 11.2063 7.87314 10.8333 8.33337 10.8333C8.79361 10.8333 9.16671 11.2063 9.16671 11.6666Z" fill="#BBBFD0"/>
<path d="M12.0834 11.6666C12.0834 12.1268 11.7103 12.4999 11.25 12.4999C10.7898 12.4999 10.4167 12.1268 10.4167 11.6666C10.4167 11.2063 10.7898 10.8333 11.25 10.8333C11.7103 10.8333 12.0834 11.2063 12.0834 11.6666Z" fill="#BBBFD0"/>
</g>
<defs>
<clipPath id="clip0_57_413">
<rect width="20" height="20" fill="white"/>
</clipPath>
</defs>
</svg>
