<svg width="20" height="20" viewBox="0 0 20 20" fill="none" xmlns="http://www.w3.org/2000/svg">
    <g clip-path="url(#10h0i372la)">
        <path d="M8.333 18.333a6.667 6.667 0 1 0-6.016-3.791c.143.3.193.638.108.959l-.274 1.021a1.083 1.083 0 0 0 1.327 1.327l1.021-.274c.32-.085.66-.035.96.108.87.417 1.845.65 2.874.65z" stroke="#BBBFD0" stroke-width="1.5"/>
        <path d="m15 12.085.165-.072c.302-.138.64-.19.96-.104l.397.106a1.083 1.083 0 0 0 1.327-1.326l-.106-.397a1.43 1.43 0 0 1 .103-.96 5.417 5.417 0 1 0-9.93-4.335" stroke="#BBBFD0" stroke-width="1.5"/>
        <path d="M6.25 11.667a.833.833 0 1 1-1.667 0 .833.833 0 0 1 1.667 0zM9.167 11.667a.833.833 0 1 1-1.667 0 .833.833 0 0 1 1.667 0zM12.083 11.667a.833.833 0 1 1-1.666 0 .833.833 0 0 1 1.666 0z" fill="#BBBFD0"/>
    </g>
    <defs>
        <clipPath id="10h0i372la">
            <path fill="#fff" d="M0 0h20v20H0z"/>
        </clipPath>
    </defs>
</svg>
