<svg width="20" height="20" viewBox="0 0 20 20" fill="none" xmlns="http://www.w3.org/2000/svg">
<g clip-path="url(#clip0_952_1363)">
<path d="M15 12.0849C15.0554 12.0618 15.1103 12.0378 15.1648 12.013C15.4665 11.8751 15.8051 11.8236 16.1255 11.9093L16.5222 12.0155C17.3275 12.231 18.0642 11.4942 17.8488 10.689L17.7426 10.2923C17.6569 9.9718 17.7084 9.63326 17.8463 9.33152C18.159 8.64674 18.3334 7.88543 18.3334 7.08341C18.3334 4.09187 15.9082 1.66675 12.9167 1.66675C10.6648 1.66675 8.73387 3.0409 7.91669 4.99642" stroke="url(#paint0_linear_952_1363)" stroke-width="1.5"/>
<path d="M8.33334 18.3333C12.0152 18.3333 15 15.3486 15 11.6667C15 7.98477 12.0152 5 8.33334 5C4.65144 5 1.66667 7.98477 1.66667 11.6667C1.66667 12.6963 1.90007 13.6713 2.31684 14.5419C2.46008 14.8411 2.51038 15.1801 2.42463 15.5005L2.15126 16.5222C1.9358 17.3275 2.67252 18.0642 3.4778 17.8487L4.49949 17.5754C4.81995 17.4896 5.15893 17.5399 5.45814 17.6832C6.32868 18.0999 7.30375 18.3333 8.33334 18.3333Z" fill="url(#paint1_linear_952_1363)" stroke="url(#paint2_linear_952_1363)" stroke-width="1.5"/>
<path d="M6.24999 11.6666C6.24999 12.1268 5.8769 12.4999 5.41666 12.4999C4.95642 12.4999 4.58333 12.1268 4.58333 11.6666C4.58333 11.2063 4.95642 10.8333 5.41666 10.8333C5.8769 10.8333 6.24999 11.2063 6.24999 11.6666Z" fill="white"/>
<path d="M9.16666 11.6666C9.16666 12.1268 8.79357 12.4999 8.33333 12.4999C7.87309 12.4999 7.49999 12.1268 7.49999 11.6666C7.49999 11.2063 7.87309 10.8333 8.33333 10.8333C8.79357 10.8333 9.16666 11.2063 9.16666 11.6666Z" fill="white"/>
<path d="M12.0833 11.6666C12.0833 12.1268 11.7102 12.4999 11.25 12.4999C10.7898 12.4999 10.4167 12.1268 10.4167 11.6666C10.4167 11.2063 10.7898 10.8333 11.25 10.8333C11.7102 10.8333 12.0833 11.2063 12.0833 11.6666Z" fill="white"/>
</g>
<defs>
<linearGradient id="paint0_linear_952_1363" x1="13.125" y1="1.66675" x2="13.125" y2="12.0849" gradientUnits="userSpaceOnUse">
<stop stop-color="#3073FE"/>
<stop offset="0.515625" stop-color="#1F255E"/>
<stop offset="1" stop-color="#6A798D"/>
</linearGradient>
<linearGradient id="paint1_linear_952_1363" x1="8.33334" y1="5" x2="8.33334" y2="18.3333" gradientUnits="userSpaceOnUse">
<stop stop-color="#3073FE"/>
<stop offset="0.515625" stop-color="#1F255E"/>
<stop offset="1" stop-color="#6A798D"/>
</linearGradient>
<linearGradient id="paint2_linear_952_1363" x1="8.33334" y1="5" x2="8.33334" y2="18.3333" gradientUnits="userSpaceOnUse">
<stop stop-color="#3073FE"/>
<stop offset="0.515625" stop-color="#1F255E"/>
<stop offset="1" stop-color="#6A798D"/>
</linearGradient>
<clipPath id="clip0_952_1363">
<rect width="20" height="20" fill="white"/>
</clipPath>
</defs>
</svg>
