<svg width="32" height="32" viewBox="0 0 32 32" fill="none" xmlns="http://www.w3.org/2000/svg">
    <path opacity=".5" d="M16 29.333c7.364 0 13.333-5.97 13.333-13.333 0-7.364-5.97-13.333-13.333-13.333C8.636 2.667 2.667 8.637 2.667 16c0 7.364 5.97 13.333 13.333 13.333z" fill="#41A592"/>
    <path fill-rule="evenodd" clip-rule="evenodd" d="M16.626 15.374a1 1 0 0 1 0-1.414L26.92 3.667h-4.71a1 1 0 1 1 0-2h7.124a1 1 0 0 1 1 1v7.125a1 1 0 0 1-2 0V5.08L18.04 15.374a1 1 0 0 1-1.414 0z" fill="#41A592"/>
</svg>
