<svg xmlns="http://www.w3.org/2000/svg" width="512pt" height="512pt" viewBox="0 -61 512 512"><path d="m231.632812 108.539062-11.253906 27.808594c47.964844 19.414063 88.113282 55.152344 113.050782 100.628906l26.304687-14.425781c-28.25-51.519531-73.746094-92.011719-128.101563-114.011719zm0 0"/><path d="m496.980469 269.996094c-10.730469.011718-19.25 3.4375-26.390625 7.921875-16.65625-63.878907-52.199219-123.339844-101.910156-166.894531-52.125-46.550782-119.296876-74.925782-187.675782-80.605469v-30.417969h-29.996094v30h-150.9999995v149.996094h150.9999995v30h29.996094v-17.890625c23.582032 10.179687 44.417969 25.90625 59.929688 45.550781 7.925781 9.972656 14.472656 20.945312 19.5 32.542969-1.433594-.128907-2.902344-.203125-4.429688-.203125-18.792968 0-30.527344 10.414062-39.953125 18.78125-8.074219 7.164062-12.984375 11.21875-20.042969 11.21875-7.058593 0-11.972656-4.054688-20.042968-11.21875-9.429688-8.367188-21.164063-18.78125-39.957032-18.78125-18.792968 0-30.527343 10.414062-39.957031 18.78125-8.074219 7.164062-12.984375 11.21875-20.042969 11.21875-7.175781 0-12.289062-4.105469-20.707031-11.363282-9.632812-8.304687-21.621093-18.636718-40.292969-18.636718h-14.9960932v30h14.9960932c7.179688 0 12.289063 4.105468 20.707032 11.359375 9.632812 8.304687 21.625 18.640625 40.292968 18.640625 18.796876 0 30.53125-10.414063 39.957032-18.78125 8.074218-7.167969 12.984375-11.21875 20.042968-11.21875 7.058594 0 11.96875 4.050781 20.042969 11.21875 9.425781 8.367187 21.160157 18.78125 39.957031 18.78125 18.792969 0 30.527344-10.414063 39.953126-18.78125 8.074218-7.167969 12.984374-11.21875 20.042968-11.21875s11.972656 4.050781 20.042969 11.21875c9.429687 8.367187 21.164063 18.78125 39.957031 18.78125 18.796875 0 30.527344-10.414063 39.957032-18.78125 8.074218-7.167969 12.984374-11.21875 20.042968-11.21875s11.96875 4.050781 20.042969 11.21875c9.425781 8.367187 21.160156 18.78125 39.957031 18.78125 18.660156 0 30.648438-10.328125 40.28125-18.625 8.425782-7.257813 13.542969-11.375 20.71875-11.382813l14.988282-.003906.007812-29.988281zm-466.972657-209.996094h61v89.996094h-61zm91 89.996094v-89.996094h30v89.996094zm294.953126 138.78125c-9.429688-8.367188-21.164063-18.78125-39.957032-18.78125-18.796875 0-30.527344 10.414062-39.957031 18.78125-8.074219 7.164062-12.984375 11.21875-20.042969 11.21875-6.300781 0-10.894531-3.238282-17.546875-9.023438-5.578125-26.117187-17.28125-50.898437-34.007812-71.945312-21.132813-26.761719-50.457031-47.476563-83.441407-59.148438v-99.324218c61.386719 5.734374 121.78125 31.824218 167.742188 72.890624l.113281.097657c47.257813 41.386719 81.765625 100.835937 95.640625 164.265625-2.738281 1.429687-5.429687 2.183594-8.5 2.183594-7.058594.003906-11.972656-4.050782-20.042968-11.214844zm0 0"/><path d="m496.972656 329.996094c-18.660156.023437-30.644531 10.347656-40.277344 18.644531-8.417968 7.25-13.527343 11.351563-20.703124 11.351563-7.058594 0-11.96875-4.050782-20.042969-11.21875-9.425781-8.367188-21.160157-18.777344-39.957031-18.777344-18.792969 0-30.527344 10.410156-39.957032 18.777344-8.070312 7.167968-12.980468 11.21875-20.039062 11.21875s-11.972656-4.050782-20.042969-11.21875c-9.429687-8.367188-21.164063-18.777344-39.957031-18.777344-18.796875 0-30.527344 10.410156-39.957032 18.777344-8.074218 7.167968-12.984374 11.21875-20.042968 11.21875s-11.96875-4.050782-20.042969-11.21875c-9.425781-8.367188-21.160156-18.777344-39.957031-18.777344-18.792969 0-30.527344 10.410156-39.953125 18.777344-8.074219 7.167968-12.984375 11.21875-20.042969 11.21875-7.175781 0-12.289062-4.101563-20.707031-11.359376-9.632813-8.304687-21.621094-18.636718-40.292969-18.636718h-15v29.996094h15c7.175781 0 12.289062 4.105468 20.707031 11.363281 9.632813 8.304687 21.621094 18.636719 40.292969 18.636719 18.792969 0 30.527344-10.414063 39.953125-18.78125 8.074219-7.164063 12.984375-11.21875 20.042969-11.21875s11.972656 4.054687 20.042968 11.21875c9.429688 8.367187 21.164063 18.78125 39.957032 18.78125 18.796875 0 30.527344-10.414063 39.957031-18.78125 8.074219-7.164063 12.984375-11.21875 20.042969-11.21875s11.96875 4.054687 20.042968 11.21875c9.425782 8.367187 21.160157 18.78125 39.957032 18.78125 18.792968 0 30.527344-10.414063 39.953125-18.78125 8.074219-7.164063 12.984375-11.21875 20.042969-11.21875 7.058593 0 11.972656 4.054687 20.042968 11.21875 9.429688 8.367187 21.164063 18.78125 39.957032 18.78125 18.664062 0 30.652343-10.324219 40.285156-18.625 8.425781-7.257813 13.542968-11.371094 20.714844-11.382813h15l-.003907-29.988281zm0 0"/></svg>