<svg xmlns="http://www.w3.org/2000/svg" viewBox="0 0 512 512"><circle cx="63.5" cy="356" r="22.5" fill="#ce3b0d"/><circle cx="451" cy="98.5" r="20" fill="#ce3b0d"/><path fill="#df6426" d="M342.56 177.93c5.921 5.91 5.921 15.5 0 21.41l-25.369 25.38-35.29 35.29-21.42 21.41-21.411-21.41-10.7-10.7c-2.96-2.96-4.44-6.83-4.44-10.71s1.48-7.75 4.44-10.71c5.91-5.91 15.5-5.91 21.41 0l10.71 10.71 40.29-40.3 20.37-20.37a15.103 15.103 0 0 1 10.71-4.43c3.87 0 7.74 1.48 10.7 4.43z"/><path fill="#cbe9fd" d="M317.19 224.72c2.46 7.14 3.81 14.8 3.81 22.78 0 38.66-31.34 70-70 70s-70-31.341-70-70 31.34-70 70-70c19.48 0 37.09 7.96 49.78 20.8l-40.29 40.3-10.71-10.71c-5.91-5.91-15.5-5.91-21.41 0-2.96 2.96-4.44 6.83-4.44 10.71s1.48 7.75 4.44 10.71l10.7 10.7 21.411 21.41 21.42-21.41 35.289-35.29z"/><path fill="#e4f4ff" d="M391 142v283c0 18.5-15 33.5-33.5 33.5h-203c-18.5 0-33.5-15-33.5-33.5V142c0-18.5 15-33.5 33.5-33.5h23.75c-1.45 3.64-2.25 7.6-2.25 11.75v8.25h160v-8.25c0-4.15-.8-8.11-2.25-11.75h23.75c18.5 0 33.5 15 33.5 33.5zm-48.44 57.34c5.921-5.91 5.921-15.5 0-21.41a15.114 15.114 0 0 0-10.699-4.43c-3.88 0-7.761 1.48-10.71 4.43l-20.37 20.37c-12.69-12.84-30.3-20.8-49.78-20.8-38.66 0-70 31.34-70 70s31.34 70 70 70 70-31.341 70-70c0-7.98-1.35-15.64-3.81-22.78l25.369-25.38z"/><path fill="#5a5f64" d="M336 120.25v8.25H176v-8.25c0-4.15.8-8.11 2.25-11.75 4.46-11.2 15.13-19.26 27.75-19.95V73.5h100v15.05c12.62.69 23.29 8.75 27.75 19.95 1.45 3.64 2.25 7.6 2.25 11.75z"/><circle cx="443.5" cy="201" r="7.5"/><circle cx="433.5" cy="416" r="7.5"/><circle cx="353.5" cy="51" r="7.5"/><circle cx="93.5" cy="61" r="7.5"/><circle cx="78.5" cy="461" r="7.5"/><circle cx="53.5" cy="221" r="7.5"/><path d="M357.5 463.5h-203c-21.229 0-38.5-17.271-38.5-38.5V142c0-21.229 17.271-38.5 38.5-38.5h23.75a5 5 0 0 1 0 10H154.5c-15.715 0-28.5 12.785-28.5 28.5v283c0 15.715 12.785 28.5 28.5 28.5h203c15.715 0 28.5-12.785 28.5-28.5V142c0-15.715-12.785-28.5-28.5-28.5h-23.75a5 5 0 1 1 0-10h23.75c21.228 0 38.5 17.271 38.5 38.5v283c0 21.229-17.272 38.5-38.5 38.5z"/><path d="M336 133.5H176a5 5 0 0 1-5-5v-8.25c0-4.686.876-9.262 2.605-13.601C178.288 94.888 188.75 86.425 201 84.127V73.5a5 5 0 0 1 5-5h100a5 5 0 0 1 5 5v10.627c12.25 2.297 22.712 10.761 27.396 22.523a36.611 36.611 0 0 1 2.604 13.6v8.25a5 5 0 0 1-5 5zm-155-10h150v-3.25c0-3.413-.638-6.743-1.896-9.899-3.84-9.644-13.017-16.241-23.378-16.808A5 5 0 0 1 301 88.55V78.5h-90v10.05a5.001 5.001 0 0 1-4.727 4.993c-10.361.567-19.538 7.164-23.377 16.807a26.627 26.627 0 0 0-1.895 9.9v3.25zm270 0c-13.785 0-25-11.215-25-25s11.215-25 25-25 25 11.215 25 25-11.215 25-25 25zm0-40c-8.271 0-15 6.729-15 15s6.729 15 15 15c8.272 0 15-6.729 15-15s-6.728-15-15-15zm-387.5 300C48.336 383.5 36 371.163 36 356s12.336-27.5 27.5-27.5S91 340.837 91 356s-12.336 27.5-27.5 27.5zm0-45c-9.649 0-17.5 7.851-17.5 17.5 0 9.649 7.851 17.5 17.5 17.5S81 365.65 81 356c0-9.649-7.851-17.5-17.5-17.5zm287.5 90H156a5 5 0 0 1-5-5v-205a5 5 0 0 1 10 0v200h185v-60a5 5 0 1 1 10 0v65a5 5 0 0 1-5 5z"/><path d="M251 322.5c-41.355 0-75-33.645-75-75s33.645-75 75-75c20.191 0 39.133 7.915 53.336 22.285a5 5 0 0 1-7.112 7.03C284.913 189.359 268.498 182.5 251 182.5c-35.841 0-65 29.159-65 65s29.159 65 65 65 65-29.159 65-65c0-7.222-1.19-14.338-3.537-21.151a5 5 0 0 1 9.455-3.258 74.766 74.766 0 0 1 4.083 24.409c-.001 41.356-33.647 75-75.001 75z"/><path d="M260.479 286.42a4.981 4.981 0 0 1-3.535-1.465l-32.11-32.11a20.015 20.015 0 0 1-5.904-14.246 20.02 20.02 0 0 1 5.904-14.246 20.005 20.005 0 0 1 14.24-5.897 20.003 20.003 0 0 1 14.241 5.898l7.174 7.174 36.754-36.764h.001l20.37-20.37c3.801-3.801 8.86-5.895 14.245-5.895 5.366 0 10.42 2.091 14.23 5.889a19.997 19.997 0 0 1 5.91 14.247c0 5.382-2.099 10.44-5.908 14.243l-82.077 82.078a4.983 4.983 0 0 1-3.535 1.464zm-21.404-57.963a10.071 10.071 0 0 0-7.169 2.968 10.082 10.082 0 0 0-2.976 7.175 10.08 10.08 0 0 0 2.976 7.174l28.575 28.576 78.543-78.545a10.06 10.06 0 0 0 2.977-7.17 10.06 10.06 0 0 0-2.973-7.167 10.098 10.098 0 0 0-7.168-2.969 10.075 10.075 0 0 0-7.174 2.966l-20.37 20.37-40.289 40.3a5.003 5.003 0 0 1-7.071.001l-10.711-10.71a10.07 10.07 0 0 0-7.17-2.969zM326 403.5H181a5 5 0 1 1 0-10h145a5 5 0 1 1 0 10zm0-25H181a5 5 0 1 1 0-10h145a5 5 0 1 1 0 10z"/></svg>