<!DOCTYPE svg PUBLIC "-//W3C//DTD SVG 1.1//EN" "http://www.w3.org/Graphics/SVG/1.1/DTD/svg11.dtd">
<!-- Uploaded to: SVG Repo, www.svgrepo.com, Transformed by: SVG Repo Mixer Tools -->
<svg height="800px" width="800px" version="1.1" id="Layer_1" xmlns="http://www.w3.org/2000/svg" xmlns:xlink="http://www.w3.org/1999/xlink" viewBox="0 0 512 512" xml:space="preserve" fill="#4fa16c" stroke="#4fa16c">
<g id="SVGRepo_bgCarrier" stroke-width="0"/>
<g id="SVGRepo_tracerCarrier" stroke-linecap="round" stroke-linejoin="round"/>
<g id="SVGRepo_iconCarrier"> <path style="fill:#E0E0E3;" d="M492.69,347.681h-61.72l-25.855-163.094l-10.636-11.557l-21.135-22.977l-18.405-20.009l8.611,186.197 l1.057,22.75l4.151,89.862l1.047,22.716l2.321,50.05H141.011l2.321-50.05l6.256-135.328l8.611-186.197l-50.175,54.543 L82.169,347.681H20.448l35.342-184.479L156.491,47.099c1.649-1.9,3.56-3.504,5.664-4.777c1.604-1.001,3.322-1.786,5.119-2.377 c2.412-0.796,4.971-1.217,7.576-1.217h15.174l25.993-28.278h79.966l25.992,28.278c0,0,11.751,0.034,17.632,0.034 c1.752,0,3.458,0.239,5.119,0.682c4.584,1.217,8.736,3.993,11.921,7.655l55.578,64.075l20.486,23.626l24.638,28.403L492.69,347.681z "/> <path style="fill:#D2D1D3;" d="M344.724,39.444v41.587c0,4.561-1.376,9.021-3.936,12.785l-65.975,97.017 c-8.895,13.07-28.733,13.07-37.628,0l-65.975-97.017c-2.559-3.765-3.936-8.224-3.936-12.785V39.944 c2.412-0.796,4.971-1.217,7.576-1.217h15.174l25.993-28.278h24.069L256,56.734l15.914-46.285h24.069l25.992,28.278 c0,0,11.751,0.034,17.632,0.034C341.358,38.76,343.064,39,344.724,39.444z"/> <polygon style="fill:#989899;" points="216.02,10.445 256,126.678 295.98,10.445 "/> <g> <path style="fill:#D2D1D3;" d="M369.806,451.568c-0.353,0.023-0.694,0.034-1.047,0.034h-17.778 c-42.02,0-76.212-34.193-76.212-76.212v-36.4c0-12.569,10.18-22.75,22.75-22.75h66.031l1.057,22.75l4.151,89.862L369.806,451.568z"/> <path style="fill:#D2D1D3;" d="M238.38,338.991v36.4c0,42.02-34.193,76.212-76.212,76.212h-17.779 c-0.352,0-0.705-0.011-1.057-0.034l6.256-135.328h66.043C228.188,316.241,238.38,326.422,238.38,338.991z"/> </g> <g> <polygon style="fill:#E0E0E3;" points="190.025,38.724 216.02,10.445 256,126.678 256,178.036 190.025,81.025 "/> <polygon style="fill:#E0E0E3;" points="321.975,38.724 295.98,10.445 256,126.678 256,178.036 321.975,81.025 "/> <path style="fill:#E0E0E3;" d="M368.76,428.853h-17.779c-29.53,0-53.462-23.932-53.462-53.462v-36.4h67.09L368.76,428.853z"/> <path style="fill:#E0E0E3;" d="M144.386,428.853h17.779c29.53,0,53.462-23.932,53.462-53.462v-36.4h-67.09L144.386,428.853z"/> </g> <path d="M176.588,493.78h-27.369l1.941-41.851l0.704-15.241h10.301c33.8,0,61.299-27.499,61.299-61.299v-36.4 c0-4.328-3.508-7.837-7.837-7.837h-58.882l9.282-200.747c0.002-0.042-0.005-0.081-0.004-0.123c0.002-0.08,0.011-0.158,0.011-0.239 v-21.965c0-4.328-3.508-7.837-7.837-7.837c-4.329,0-7.837,3.509-7.837,7.837v18.91l-48.105,52.293 c-1.045,1.136-1.73,2.555-1.973,4.078L80.537,307.921H36.044L63.09,166.744l30.3-34.933c2.836-3.269,2.484-8.219-0.786-11.055 c-3.268-2.835-8.218-2.485-11.055,0.785L49.87,158.065c-0.904,1.043-1.516,2.305-1.776,3.66L20.085,307.922H7.837 c-4.329,0-7.837,3.509-7.837,7.837s3.508,7.837,7.837,7.837h9.246l-4.332,22.611c-0.44,2.295,0.168,4.667,1.657,6.467 s3.703,2.844,6.04,2.844h61.72c3.854,0,7.137-2.803,7.74-6.61l25.485-160.757l33.981-36.94l-7.615,164.668l-8.578,185.375 c-0.099,2.139,0.681,4.226,2.16,5.775c1.479,1.549,3.527,2.425,5.669,2.425h35.579c4.329,0,7.837-3.509,7.837-7.837 S180.917,493.78,176.588,493.78z M207.79,375.389c0,25.158-20.467,45.625-45.625,45.625h-9.572l3.427-74.189h51.771V375.389z M29.929,339.843l3.113-16.248h45.011l-2.576,16.248H29.929z"/> <path d="M100.668,111.46c3.269,2.836,8.218,2.485,11.055-0.786l50.686-58.439c1.103-1.271,2.384-2.351,3.866-3.249 c2.57-1.587,5.536-2.426,8.577-2.426h7.337v34.462c0,1.572,0.472,3.108,1.356,4.407l64.619,95.016V432.21 c0,4.328,3.508,7.837,7.837,7.837s7.837-3.509,7.837-7.837V180.447l64.619-95.016c0.884-1.3,1.356-2.835,1.356-4.407V46.581 c3.394,0.007,7.176,0.015,9.795,0.015c3.957,0,8.011,2.055,11.12,5.636l99.322,114.512l18.895,98.631 c0.719,3.753,4.003,6.363,7.688,6.363c0.489,0,0.984-0.046,1.483-0.141c4.251-0.814,7.036-4.92,6.222-9.171l-19.292-100.7 c-0.26-1.355-0.872-2.618-1.777-3.66L362.564,41.96c-6.09-7.014-14.457-11.037-22.958-11.037c-3.858,0-10.25-0.015-14.179-0.025 L301.749,5.14c-2.585-2.814-6.1-2.53-9.545-2.53c-6.936,0-53.884,0-70.423,0c-3.943,0-8.561-0.697-11.53,2.53l-23.669,25.748H174.85 c-5.951,0-11.766,1.648-16.751,4.727c-2.819,1.706-5.351,3.84-7.528,6.347l-50.689,58.443 C97.046,103.675,97.398,108.624,100.668,111.46C103.937,114.296,97.398,108.624,100.668,111.46z M197.862,41.779l15.026-16.347 l35.276,102.555v24.589l-50.301-73.964V41.779z M256,102.584l-28.996-84.3h57.992L256,102.584z M263.837,152.575v-24.589 l35.276-102.555l15.026,16.347v36.833L263.837,152.575z"/> <path d="M288.987,175.884c-4.329,0-7.837,3.509-7.837,7.837c0,4.328,3.508,7.837,7.837,7.837h36.399 c4.329,0,7.837-3.509,7.837-7.837c0-4.328-3.508-7.837-7.837-7.837H288.987z"/> <path d="M231.419,208.998c0-4.328-3.508-7.837-7.837-7.837c-4.329,0-7.837,3.509-7.837,7.837v3.413c0,4.328,3.508,7.837,7.837,7.837 c4.329,0,7.837-3.509,7.837-7.837V208.998z"/> <path d="M223.582,278.259c-4.329,0-7.837,3.509-7.837,7.837v3.413c0,4.328,3.508,7.837,7.837,7.837c4.329,0,7.837-3.509,7.837-7.837 v-3.413C231.419,281.767,227.91,278.259,223.582,278.259z"/> <path d="M376.589,428.489l-4.152-89.862c-0.002-0.037-0.008-0.072-0.01-0.109l-2.656-57.408c-0.201-4.324-3.89-7.664-8.191-7.467 c-4.324,0.2-7.666,3.867-7.467,8.191l2.282,49.317h-58.877c-4.329,0-7.837,3.509-7.837,7.837v36.4 c0,33.8,27.499,61.299,61.299,61.299h10.296l2.642,57.092h-100.08v-28.529c0-4.328-3.508-7.837-7.837-7.837 c-4.329,0-7.837,3.509-7.837,7.837v28.529h-41.796c-4.329,0-7.837,3.509-7.837,7.837s3.508,7.837,7.837,7.837h165.759 c2.142,0,4.19-0.877,5.669-2.425c1.479-1.549,2.259-3.635,2.16-5.774L376.589,428.489L376.589,428.489z M350.98,421.014 c-25.158,0-45.625-20.467-45.625-45.625v-28.563h51.765l3.432,74.189H350.98z"/> <path d="M504.163,307.922h-11.11l-3.272-17.076c-0.814-4.251-4.914-7.035-9.171-6.222c-4.251,0.814-7.036,4.92-6.222,9.171 l2.706,14.127h-44.493L412.855,183.36c-0.241-1.525-0.928-2.943-1.974-4.079l-48.105-52.292v-18.91c0-4.328-3.508-7.837-7.837-7.837 s-7.837,3.509-7.837,7.837v21.965c0,0.08,0.009,0.159,0.011,0.239c0.001,0.042-0.006,0.082-0.004,0.123l5.483,118.533 c0.2,4.324,3.864,7.659,8.191,7.467c4.324-0.2,7.666-3.867,7.467-8.191l-4.487-97.002l33.981,36.939l25.485,160.757 c0.603,3.807,3.886,6.61,7.74,6.61h61.72c2.336,0,4.551-1.043,6.039-2.844c1.489-1.801,2.097-4.172,1.657-6.467l-4.331-22.611h8.108 c4.329,0,7.837-3.509,7.837-7.837S508.492,307.922,504.163,307.922z M483.209,339.843h-45.548l-2.576-16.248h45.011L483.209,339.843 z"/> </g>
</svg>