<svg width="294" height="234" viewBox="0 0 294 234" fill="none" xmlns="http://www.w3.org/2000/svg">
    <path d="M61.927 198.441c27.986 0 50.674-3.492 50.674-7.798 0-4.307-22.688-7.798-50.674-7.798-27.987 0-50.675 3.491-50.675 7.798 0 4.306 22.688 7.798 50.675 7.798z" fill="#DFDFEB"/>
    <path d="M144.751 200c50.561 0 91.548-3.491 91.548-7.798 0-4.306-40.987-7.798-91.548-7.798-50.56 0-91.547 3.492-91.547 7.798 0 4.307 40.987 7.798 91.547 7.798z" fill="#DFDFEB"/>
    <path d="M119.851.007c-9.453.257-17.275 7.831-17.819 17.27a18.323 18.323 0 0 0 5.452 14.17c.534.524.782 1.278.658 2.017l-1.359 8.046 8.365-4.874a2.26 2.26 0 0 1 1.579-.272c2.046.41 4.211.486 6.443.148 8.265-1.255 14.713-8.094 15.477-16.421C139.662 9 130.801-.29 119.851.007z" fill="#D3DDF7"/>
    <path d="m119.526 24.723-.052-4.393a9.14 9.14 0 0 0 1.755-.61 6.625 6.625 0 0 0 1.388-.869c.396-.329.73-.696 1.002-1.101a4.9 4.9 0 0 0 .61-1.312c.138-.468.21-.964.21-1.479 0-.744-.181-1.445-.544-2.103a4.208 4.208 0 0 0-1.559-1.598c-.678-.405-1.479-.61-2.419-.61a5.054 5.054 0 0 0-2.794.83c-.859.553-1.512 1.497-1.961 2.833l-.467-.31c.396-1.264 1.063-2.232 1.998-2.91.935-.677 1.999-1.01 3.196-1.01 1.021 0 1.917.214 2.69.648a4.74 4.74 0 0 1 1.807 1.755c.435.734.649 1.564.649 2.48 0 .692-.119 1.34-.353 1.95a5.86 5.86 0 0 1-.987 1.665c-.425.501-.94.94-1.545 1.312a7.312 7.312 0 0 1-2.051.844l-.053 4.002h-.52v-.014zm-.314 3.271c0-.224.062-.41.181-.558a.602.602 0 0 1 .496-.22c.243 0 .415.072.52.21.105.14.157.33.157.573 0 .21-.057.391-.167.544-.114.157-.281.234-.505.234-.225 0-.396-.072-.506-.21-.11-.139-.167-.33-.167-.573h-.009zM66.71 179.669l.816 6.138s15.272 6.506 13.856 6.601c-1.417.096-23.366-1.321-23.366-1.321l1.293-11.146 7.402-.272z" fill="#000"/>
    <path d="M62.456 79.44s-1.216 11.715-2.132 12.325c-.91.61-2.132.911-2.132.911l1.98-13.388 2.28.153h.004z" stroke="#424242" stroke-miterlimit="10"/>
    <path d="M38.342 71.39s-6.19 13.979-4.392 21.767l34.315-5.232-.715-14.523-29.203-2.012h-.005z" fill="#000"/>
    <path d="M68.26 87.92s.196 33.534.434 45.218c.239 11.685 2.28 47.765 2.28 47.765s-6.41 3.535-13.082.678c-.534-.229-6.281-93.975-6.281-93.975l16.65.314z" fill="#000"/>
    <path d="m34.517 89.003-14.48 92.21s6.325 5.924 14.313.535l14.723-75.318 7.15-4.803 1.063-13.74-22.769 1.116z" fill="#000"/>
    <path d="m30.716 178.93 1.317 5.298s9.634 11.59 8.213 11.59c-1.421 0-17.242-7.173-17.242-7.173l2.027-11.037 5.68 1.326.006-.004z" fill="#000"/>
    <path d="M39.806 77.046s-9.123 38.365-15.905 106.099" stroke="#424242" stroke-miterlimit="10"/>
    <path d="M46.064 81.172s-3.195 7.989-8.652 8.122M59.556 182.139l-4.669-79.376 4.565-4.784" stroke="#424242" stroke-miterlimit="10"/>
    <path d="M59.495 31.232c2.375-.486 4.106-.834 4.106-.834l14.809 8.088c.023.015.052.029.076.043 4.85 2.676 6.997 7.221 6.868 13.588l.72 9.224-8.027-6.51-6.782 13.082-4.306 15.443c-22.989 8.361-31.922-6.648-31.922-6.648l7.617-16.488 3.076-15.228c1.46-7.813 5.976-12.153 13.765-13.746v-.014z" fill="#00A6C0"/>
    <path d="M183.808 57.283s-2.318 9.706-15.448 21.549c0 0-1.255-1.775 1.55-8.604 2.804-6.83 13.35-15.368 13.898-12.945z" fill="#41A592"/>
    <path d="M183.808 57.282s-11.595 7.221-15.448 21.548c0 0-.887 4.941.543 9.362" stroke="#000" stroke-miterlimit="10" stroke-linecap="round"/>
    <path d="M153.504 63.297s3.262-2.155-1.712-8.384c-4.722-5.92-9.783-11.275-20.185-13.789 0 0 2.261 14.447 8.895 18.282 6.635 3.834 12.997 3.887 12.997 3.887l.005.005zM127.305 72.135s10.817 3.095 29.828-1.922c0 0-1.031-1.999-9.305-3.177-8.275-1.178-22.588 3.363-20.523 5.099z" fill="#41A592"/>
    <path d="M127.305 72.134s13.612-6.124 29.828-1.922c0 0 1.659.53 3.233 2.938" stroke="#000" stroke-miterlimit="10" stroke-linecap="round"/>
    <path d="M135.761 82.66s11.246 8.48 30.252 3.463c0 0-3.2-6.777-11.475-7.96-8.275-1.183-20.842 2.757-18.782 4.493l.005.005z" fill="#41A592"/>
    <path d="M135.761 82.66s13.035-5.094 30.252 3.463c0 0 2.022 1.058 3.596 3.467" stroke="#000" stroke-miterlimit="10" stroke-linecap="round"/>
    <path d="M177.918 47.572s3.491-.191-5.466 7.087c-8.461 6.873-7.445 6.997-7.445 6.997s3.739-10.86 12.911-14.084z" fill="#000"/>
    <path d="M158.959 65.029s2.523 1.164 7.469-2.819c4.941-3.987 7.298-13.421 11.495-14.633 0 0-10.512 2.666-18.964 17.457v-.005z" fill="#41A592"/>
    <path d="M173.83 98.919c-4.583-10.946-11.122-23.46-20.327-35.622 0 0-2.237-3.353-10.192-12.19-7.95-8.834-11.704-9.983-11.704-9.983" stroke="#000" stroke-miterlimit="10" stroke-linecap="round"/>
    <path d="M176.673 48.006s-10.073 3.648-17.714 17.022c-1.85 3.239-.062 6.015 1.407 8.127" stroke="#000" stroke-miterlimit="10" stroke-linecap="round"/>
    <path d="M278.661 174.051s-9.768 2.933-26.075-7.631c0 0 1.069-2.838 8.447-3.296 7.374-.458 19.588 8.647 17.628 10.927z" fill="#41A592"/>
    <path d="M278.298 173.336s-10.731-8.447-25.516-7.197c0 0-4.946.849-8.618 3.696" stroke="#000" stroke-miterlimit="10" stroke-linecap="round"/>
    <path d="M257.399 152.275s3.138 2.332 7.302-4.464c3.954-6.453 7.273-13.035 6.095-23.671 0 0-12.816 7.044-14.165 14.585-1.35 7.545.768 13.545.768 13.545v.005z" fill="#41A592"/>
    <path d="M282.596 164.412s2.051 2.833-8.919-.763c-10.36-3.396-9.916-2.48-9.916-2.48s11.156-2.728 18.83 3.243h.005z" fill="#000"/>
    <path d="M257.661 157.907s.386 2.752 6.41 4.755 15.234-1.126 18.525 1.75c0 0-7.932-7.397-24.94-6.505h.005z" fill="#41A592"/>
    <path d="M230.814 183.509c8.733-8.037 18.276-18.444 26.58-31.235 0 0 2.394-3.243 7.993-13.731 5.599-10.483 5.404-14.403 5.404-14.403" stroke="#000" stroke-miterlimit="10" stroke-linecap="round"/>
    <path d="M281.56 163.597s-8.518-6.501-23.899-5.69c-3.725.195-5.413 2.013-8.208 5.494" stroke="#000" stroke-miterlimit="10" stroke-linecap="round"/>
    <path d="M177.064 76.813c2.99 0 5.885-1.049 8.179-2.966l6.367-5.313c2.294-1.913 5.013-2.938 7.803-2.938h31.611a5.197 5.197 0 0 1 5.194 5.194v114.435a8.96 8.96 0 0 1-8.962 8.962H69.682a6.972 6.972 0 0 1-6.973-6.973V83.781a6.972 6.972 0 0 1 6.973-6.973h107.382v.005z" fill="#550300"/>
    <path d="M62.714 187.805s10.721-20.117 11.794-22.425l29.308-59.708a4.487 4.487 0 0 1 4.078-2.599h108.913c3.958 0 9.686-2.075 12.724-4.612l4.393-3.668c2.294-1.912 5.012-2.938 7.803-2.938h30.08c3.2 0 5.375 3.253 4.154 6.21l-36.376 87.98a13.186 13.186 0 0 1-12.186 8.146H64.679c-1.06 0-2.041-.906-2.041-1.969l.071-4.417h.005z" fill="#973936"/>
    <path d="m107.011 108.748-43.005 83.597M124.734 123.151h37.044a2.97 2.97 0 0 0 2.494-1.349c1.25-1.937-.162-4.474-2.494-4.474h-37.044a2.97 2.97 0 0 0-2.494 1.35c-1.25 1.936.162 4.473 2.494 4.473z" stroke="#000" stroke-linejoin="round"/>
    <path d="m194.029 151.887-28.841 17.184M170.449 151.057l18.124 18.119M170.596 146.45c-10.597 5.237-14.994 15.7-9.82 23.374 5.175 7.669 17.962 9.644 28.559 4.407 10.598-5.237 14.995-15.7 9.82-23.374-5.174-7.669-17.961-9.644-28.559-4.407z" stroke="#000" stroke-linecap="round" stroke-linejoin="round"/>
    <path d="m70.073 70.217 5.351 6.005s-5.017 5.919-10.116 2.413l-.815-1.173 5.585-7.25-.005.005z" fill="#00A6C0"/>
    <path d="M57.644 34.38s7.33 1.922 1.564 23.108" stroke="#000" stroke-miterlimit="10" stroke-linecap="round"/>
    <path d="M70.522 70.847c-3.96-4.445-8.795-10.03-11.652-13.884M65.303 78.639c-3.796-3.892-8.928-9.434-11.17-11.49-3.49-3.2-7.11-8.35-5.933-14.966l-.143-5.303" stroke="#000" stroke-miterlimit="10" stroke-linecap="round"/>
    <path d="M88.101 75.798c-4.678-2.528-6.83-5.657-8.632-7.975-4.302-5.532-5.829-6.214-4.565-12.653l.067-6.74 9.334 10.102c3.563 4.727 11.78 13.203 14.819 16.546 0 0-3.563 4.75-11.018.72h-.005z" fill="#00A6C0"/>
    <path d="M69.067 74.09c.429-.12.877-.153 1.32-.105 1.603.171 5.891.62 6.373.625.596.01 1.082-.883 2.36 2.341 1.279 3.225 1.05 3.525 1.045 3.95-.005.424-.935 6.615-1.931 5.685-.997-.93-.864-1.474-.864-1.474s-.539 2.518-.82 2.418c-.281-.1-1.33-.1-1.164-1.874 0 0-.572 1.726-1.159 1.297-.586-.43-.458-2.294-.458-2.294s-.63 1.402-1.35.467c-.72-.934-.18-3.1-.18-3.1l-.606-1.612-1.307-.563s-4.393 1.15-5.151-1.903c-.582-2.342 2.456-3.462 3.892-3.858z" fill="#DB9C7F"/>
    <path d="m77.904 78.044.825 3.467-1.364 3.601M75.787 77.915l1.068 3.553-1.474 4.188M73.926 78.31l.625 3.42-.715 2.557M70.34 12.437c-1.56 1.459-1.583 3.233-1.583 3.233s-.535-.663-1.198-.873" stroke="#000" stroke-miterlimit="10" stroke-linecap="round"/>
    <path d="M92.613 73.097c1.483-.357 3.048-.114 4.402.582 1.784.916 4.579 2.333 4.941 2.442.539.163.892-.128.964 3.153.028 1.297.024 2.194-.091 2.576-.114.381-2.738 4.297-3.596 3.748-.024-.014-.038-.028-.062-.043-.22.291-.51.654-.797.897-.214.186-1.411.157-.8-1.412 0 0-.83 1.817-1.475 1.574-.839-.315-.706-1.125-.395-1.807-.392.529-.873.958-1.217.5-.672-.896.854-4.082.854-4.082l.177-1.932-1.169-1.044s-4.169.1-4.068-2.867c.047-1.36 1.149-1.994 2.332-2.28v-.005z" fill="#DB9C7F"/>
    <path d="m101.76 78.067-.052 3.52-2.566 3.735M99.939 78.096l-.2 3.624-2.166 3.31M98.088 78.191l-.257 3.053-1.85 3.067" stroke="#000" stroke-miterlimit="10" stroke-linecap="round"/>
    <path d="M92.813 77.375s.42 3.148-.596 3.84c-1.016.691-2.657-5.82-1.526-5.905 1.65-.124 2.127 2.065 2.127 2.065h-.005z" fill="#DB9C7F"/>
    <path d="M94.196 76.918s-1.01.162-1.297 1.35M74.585 61.684l4.912-6.4c4.493-5.943 1.498-12.224 1.498-12.224M86.074 61.331s-2.895-4.01-3.553-2.237" stroke="#000" stroke-miterlimit="10" stroke-linecap="round"/>
    <path d="m87.195 27.941-.835-.176" stroke="#fff" stroke-miterlimit="10"/>
    <path d="m69.777 27.164-6.171 3.229s-.163 7.326 6.768 12.892l3.114-3.024 3.138 3.139s1.193-.94 1.55-5.19l-.558-5.165-7.836-5.88h-.005z" fill="#fff"/>
    <path d="m77.609 33.05-7.832-5.886-6.176 3.234" stroke="#000" stroke-linecap="round" stroke-linejoin="round"/>
    <path d="M67.984 28.275s1.908 11.156 4.736 11.948c2.824.791 4.588-4.789 4.588-4.789l-5.47-15.229-3.85 8.07h-.004z" fill="#DB9C7F"/>
    <path d="m78.353 36.78.033 1.388c.024.014-.057.43-1.43.587-6.043-.182-6.52-6.983-7.016-12.392 0 0 8.971 9.339 8.413 10.417z" fill="#000"/>
    <path d="M86.81 21.608s1.554 14.141-6.745 16.44c-8.294 2.299-10.283-11.232-9.997-15.911.287-4.679 2.624-6.987 8.438-7.197 8.604-.31 8.303 6.668 8.303 6.668z" fill="#DB9C7F"/>
    <path d="M74.39 17.778s-.158 2.971-2.128 3.568l-1.416 4.369s-1.188-1.942-2.495-2.633c0 0-1.44-5.771.372-8.066 1.817-2.294 4.34-3.457 10.446-2.947 4.645.386 7.368 3.682 8.256 5.36.286.545.987 2.07-.65 3.559 0 0 .025-1.126-.93-2.442 0 0-2.227 4.55-11.456-.773" fill="#000"/>
    <path d="M66.439 26.463c.51 1.865 1.979 3.1 3.281 2.757 1.302-.343 1.936-2.137 1.426-4.002-.51-1.864-1.98-3.1-3.281-2.756-1.298.343-1.937 2.136-1.426 4.001z" fill="#DB9C7F"/>
    <path d="M78.4 27.088c-.024.482.205.882.51.896.306.015.573-.362.597-.844.023-.482-.205-.882-.51-.896-.306-.015-.573.362-.597.844zM84.796 27.479c-.048.448.138.84.41.868.277.028.534-.31.582-.763.048-.449-.138-.84-.41-.868-.277-.03-.534.31-.582.763z" fill="#000"/>
    <path d="M76.573 23.277s2.2.472 2.342-1.612M84.018 23.11s.558 1.937 2.213.816" stroke="#000" stroke-miterlimit="10" stroke-linecap="round"/>
    <path d="M78.014 34.833s-.725-2.952-2.971-1.26l2.97 1.26z" fill="#000"/>
    <path d="M67.74 24.836s1.46-1.259 2.261 1.04c0 0-.853.906-.314 1.617 0 0-.84.19-1.26-.553" stroke="#000" stroke-linecap="round" stroke-linejoin="round"/>
    <path d="M68.375 25.72s.081-.511.649-1.093" stroke="#000" stroke-linecap="round" stroke-linejoin="round"/>
    <path d="M83.527 27.407c0 1.364.84 2.475 1.875 2.475 1.035 0 1.874-1.106 1.874-2.475s-.84-2.475-1.874-2.475c-1.035 0-1.875 1.106-1.875 2.475zM76.511 27.069c0 1.45 1.069 2.623 2.39 2.623 1.321 0 2.39-1.174 2.39-2.623 0-1.45-1.069-2.624-2.39-2.624-1.321 0-2.39 1.174-2.39 2.623z" stroke="#fff" stroke-miterlimit="10"/>
    <path d="M83.613 28.123s-.582-2.466-2.466-.177M76.56 26.077l-5.547-1.25" stroke="#fff" stroke-miterlimit="10"/>
    <path d="M83.847 29.215c.276.348.334.763.195 1.211-.138.444-.586.716-1.049.706-.21 0-.415-.062-.615-.124-.086-.028-.263-.12-.358-.08-.458.2-.992-.197-.84-.511" stroke="#000" stroke-miterlimit="10" stroke-linecap="round"/>
    <path d="M58.977 230v-11.2h1.312l7.408 9.2h-.688v-9.2h1.6V230h-1.312l-7.408-9.2h.688v9.2h-1.6zm16.392.096c-.853 0-1.61-.187-2.272-.56A4.163 4.163 0 0 1 71.53 228c-.384-.661-.576-1.408-.576-2.24 0-.843.192-1.589.576-2.24a4.05 4.05 0 0 1 1.568-1.52c.662-.373 1.419-.56 2.272-.56.843 0 1.595.187 2.256.56a3.912 3.912 0 0 1 1.568 1.52c.384.64.576 1.387.576 2.24 0 .843-.192 1.589-.576 2.24a4.017 4.017 0 0 1-1.568 1.536c-.661.373-1.413.56-2.256.56zm0-1.344c.544 0 1.03-.123 1.456-.368a2.596 2.596 0 0 0 1.024-1.04c.246-.459.368-.987.368-1.584 0-.608-.122-1.131-.368-1.568a2.596 2.596 0 0 0-1.024-1.04 2.871 2.871 0 0 0-1.456-.368c-.544 0-1.03.123-1.456.368a2.738 2.738 0 0 0-1.024 1.04c-.256.437-.384.96-.384 1.568 0 .597.128 1.125.384 1.584.256.448.598.795 1.024 1.04.427.245.912.368 1.456.368zM86.414 230v-11.2h4.72c1.195 0 2.246.235 3.152.704.918.469 1.627 1.125 2.128 1.968.512.843.768 1.819.768 2.928s-.256 2.085-.768 2.928c-.501.843-1.21 1.499-2.128 1.968-.906.469-1.957.704-3.152.704h-4.72zm1.6-1.392h3.024c.928 0 1.728-.176 2.4-.528a3.847 3.847 0 0 0 1.584-1.472c.374-.64.56-1.376.56-2.208 0-.843-.186-1.579-.56-2.208a3.847 3.847 0 0 0-1.584-1.472c-.672-.352-1.472-.528-2.4-.528h-3.024v8.416zM104.673 230v-1.792l-.08-.336v-3.056c0-.651-.192-1.152-.576-1.504-.373-.363-.939-.544-1.696-.544-.501 0-.992.085-1.472.256-.48.16-.885.379-1.216.656l-.64-1.152c.438-.352.96-.619 1.568-.8a6.496 6.496 0 0 1 1.936-.288c1.163 0 2.059.283 2.688.848s.944 1.429.944 2.592V230h-1.456zm-2.784.096c-.629 0-1.184-.107-1.664-.32-.47-.213-.832-.507-1.088-.88a2.284 2.284 0 0 1-.384-1.296c0-.459.107-.875.32-1.248.224-.373.582-.672 1.072-.896.501-.224 1.173-.336 2.016-.336h2.688v1.104h-2.624c-.768 0-1.285.128-1.552.384-.267.256-.4.565-.4.928 0 .416.165.752.496 1.008.331.245.789.368 1.376.368.576 0 1.077-.128 1.504-.384.437-.256.752-.629.944-1.12l.304 1.056c-.203.501-.56.901-1.072 1.2-.512.288-1.157.432-1.936.432zm9.995 0c-.854 0-1.515-.229-1.984-.688-.47-.459-.704-1.115-.704-1.968v-7.776h1.536v7.712c0 .459.112.811.336 1.056.234.245.565.368.992.368.48 0 .88-.133 1.2-.4l.48 1.104a2.23 2.23 0 0 1-.848.448 3.49 3.49 0 0 1-1.008.144zm-4.128-7.312v-1.264h5.408v1.264h-5.408zM120.861 230v-1.792l-.08-.336v-3.056c0-.651-.192-1.152-.576-1.504-.374-.363-.939-.544-1.696-.544-.502 0-.992.085-1.472.256a3.68 3.68 0 0 0-1.216.656l-.64-1.152c.437-.352.96-.619 1.568-.8a6.49 6.49 0 0 1 1.936-.288c1.162 0 2.058.283 2.688.848.629.565.944 1.429.944 2.592V230h-1.456zm-2.784.096c-.63 0-1.184-.107-1.664-.32-.47-.213-.832-.507-1.088-.88a2.284 2.284 0 0 1-.384-1.296c0-.459.106-.875.32-1.248.224-.373.581-.672 1.072-.896.501-.224 1.173-.336 2.016-.336h2.688v1.104h-2.624c-.768 0-1.286.128-1.552.384-.267.256-.4.565-.4.928 0 .416.165.752.496 1.008.33.245.789.368 1.376.368.576 0 1.077-.128 1.504-.384.437-.256.752-.629.944-1.12l.304 1.056c-.203.501-.56.901-1.072 1.2-.512.288-1.158.432-1.936.432zM129.68 230v-11.2h4.368c.981 0 1.819.155 2.512.464.693.309 1.227.757 1.6 1.344.373.587.56 1.285.56 2.096 0 .811-.187 1.509-.56 2.096-.373.576-.907 1.019-1.6 1.328-.693.309-1.531.464-2.512.464h-3.488l.72-.736V230h-1.6zm7.488 0-2.848-4.064h1.712l2.88 4.064h-1.744zm-5.888-3.984-.72-.784H134c1.024 0 1.797-.219 2.32-.656.533-.448.8-1.072.8-1.872s-.267-1.419-.8-1.856c-.523-.437-1.296-.656-2.32-.656h-3.44l.72-.8v6.624zm13.577 4.08c-.907 0-1.707-.187-2.4-.56a4.099 4.099 0 0 1-1.6-1.536c-.373-.651-.56-1.397-.56-2.24 0-.843.181-1.589.544-2.24a3.998 3.998 0 0 1 1.52-1.52c.651-.373 1.381-.56 2.192-.56.821 0 1.547.181 2.176.544a3.79 3.79 0 0 1 1.472 1.536c.363.651.544 1.413.544 2.288 0 .064-.005.139-.016.224 0 .085-.005.165-.016.24h-7.216v-1.104h6.416l-.624.384c.011-.544-.101-1.029-.336-1.456a2.498 2.498 0 0 0-.976-.992c-.405-.245-.88-.368-1.424-.368-.533 0-1.008.123-1.424.368a2.476 2.476 0 0 0-.976 1.008c-.235.427-.352.917-.352 1.472v.256c0 .565.128 1.072.384 1.52a2.77 2.77 0 0 0 1.104 1.024c.469.245 1.008.368 1.616.368.501 0 .955-.085 1.36-.256a2.985 2.985 0 0 0 1.088-.768l.848.992a3.706 3.706 0 0 1-1.44 1.024c-.565.235-1.2.352-1.904.352zm9.717 0c-.864 0-1.637-.187-2.32-.56A4.131 4.131 0 0 1 150.67 228c-.384-.651-.576-1.397-.576-2.24 0-.843.192-1.589.576-2.24a4.021 4.021 0 0 1 1.584-1.52c.683-.373 1.456-.56 2.32-.56.768 0 1.451.155 2.048.464a3.18 3.18 0 0 1 1.408 1.344l-1.168.752a2.528 2.528 0 0 0-1.024-.912 2.757 2.757 0 0 0-1.28-.304 2.99 2.99 0 0 0-1.488.368 2.706 2.706 0 0 0-1.04 1.04c-.256.437-.384.96-.384 1.568 0 .608.128 1.136.384 1.584.256.448.603.795 1.04 1.04a2.99 2.99 0 0 0 1.488.368c.459 0 .885-.096 1.28-.288a2.655 2.655 0 0 0 1.024-.928l1.168.736c-.331.587-.8 1.04-1.408 1.36-.597.309-1.28.464-2.048.464zm8.952 0c-.854 0-1.611-.187-2.272-.56a4.159 4.159 0 0 1-1.568-1.536c-.384-.661-.576-1.408-.576-2.24 0-.843.192-1.589.576-2.24a4.046 4.046 0 0 1 1.568-1.52c.661-.373 1.418-.56 2.272-.56.842 0 1.594.187 2.256.56a3.915 3.915 0 0 1 1.568 1.52c.384.64.576 1.387.576 2.24 0 .843-.192 1.589-.576 2.24a4.02 4.02 0 0 1-1.568 1.536c-.662.373-1.414.56-2.256.56zm0-1.344c.544 0 1.029-.123 1.456-.368a2.601 2.601 0 0 0 1.024-1.04c.245-.459.368-.987.368-1.584 0-.608-.123-1.131-.368-1.568a2.601 2.601 0 0 0-1.024-1.04 2.872 2.872 0 0 0-1.456-.368 2.87 2.87 0 0 0-1.456.368 2.736 2.736 0 0 0-1.024 1.04c-.256.437-.384.96-.384 1.568 0 .597.128 1.125.384 1.584.256.448.597.795 1.024 1.04a2.87 2.87 0 0 0 1.456.368zM170.05 230v-8.48h1.472v2.304l-.144-.576a2.598 2.598 0 0 1 1.184-1.344c.554-.309 1.237-.464 2.048-.464v1.488a1.13 1.13 0 0 0-.192-.016h-.16c-.822 0-1.472.245-1.952.736s-.72 1.2-.72 2.128V230h-1.536zm9.879.096c-.822 0-1.558-.181-2.208-.544a3.998 3.998 0 0 1-1.52-1.52c-.374-.651-.56-1.408-.56-2.272 0-.864.186-1.616.56-2.256a3.998 3.998 0 0 1 1.52-1.52c.65-.363 1.386-.544 2.208-.544.714 0 1.36.16 1.936.48.576.32 1.034.8 1.376 1.44.352.64.528 1.44.528 2.4s-.171 1.76-.512 2.4c-.331.64-.784 1.125-1.36 1.456-.576.32-1.232.48-1.968.48zm.128-1.344c.533 0 1.013-.123 1.44-.368a2.601 2.601 0 0 0 1.024-1.04c.256-.459.384-.987.384-1.584 0-.608-.128-1.131-.384-1.568a2.601 2.601 0 0 0-1.024-1.04 2.841 2.841 0 0 0-1.44-.368 2.87 2.87 0 0 0-1.456.368 2.736 2.736 0 0 0-1.024 1.04c-.256.437-.384.96-.384 1.568 0 .597.128 1.125.384 1.584.256.448.597.795 1.024 1.04a2.87 2.87 0 0 0 1.456.368zm2.896 1.248v-2.288l.096-1.968-.16-1.968v-5.648h1.536V230h-1.472zm8.154.096c-.907 0-1.707-.187-2.4-.56a4.099 4.099 0 0 1-1.6-1.536c-.373-.651-.56-1.397-.56-2.24 0-.843.181-1.589.544-2.24a3.998 3.998 0 0 1 1.52-1.52c.651-.373 1.381-.56 2.192-.56.821 0 1.547.181 2.176.544a3.79 3.79 0 0 1 1.472 1.536c.363.651.544 1.413.544 2.288 0 .064-.005.139-.016.224 0 .085-.005.165-.016.24h-7.216v-1.104h6.416l-.624.384c.011-.544-.101-1.029-.336-1.456a2.498 2.498 0 0 0-.976-.992c-.405-.245-.88-.368-1.424-.368-.533 0-1.008.123-1.424.368a2.476 2.476 0 0 0-.976 1.008c-.235.427-.352.917-.352 1.472v.256c0 .565.128 1.072.384 1.52a2.77 2.77 0 0 0 1.104 1.024c.469.245 1.008.368 1.616.368.501 0 .955-.085 1.36-.256a2.985 2.985 0 0 0 1.088-.768l.848.992a3.706 3.706 0 0 1-1.44 1.024c-.565.235-1.2.352-1.904.352zm9.525 0c-.821 0-1.557-.181-2.208-.544a3.998 3.998 0 0 1-1.52-1.52c-.373-.651-.56-1.408-.56-2.272 0-.864.187-1.616.56-2.256a3.998 3.998 0 0 1 1.52-1.52c.651-.363 1.387-.544 2.208-.544.715 0 1.36.16 1.936.48.576.32 1.035.8 1.376 1.44.352.64.528 1.44.528 2.4s-.171 1.76-.512 2.4c-.331.64-.784 1.125-1.36 1.456-.576.32-1.232.48-1.968.48zm.128-1.344c.533 0 1.013-.123 1.44-.368a2.595 2.595 0 0 0 1.024-1.04c.256-.459.384-.987.384-1.584 0-.608-.128-1.131-.384-1.568a2.595 2.595 0 0 0-1.024-1.04 2.841 2.841 0 0 0-1.44-.368c-.544 0-1.029.123-1.456.368a2.736 2.736 0 0 0-1.024 1.04c-.256.437-.384.96-.384 1.568 0 .597.128 1.125.384 1.584.256.448.597.795 1.024 1.04.427.245.912.368 1.456.368zm2.896 1.248v-2.288l.096-1.968-.16-1.968v-5.648h1.536V230h-1.472zm11.603 0v-4.288l.368.992-4.816-7.904h1.712l4.048 6.672h-.928l4.064-6.672h1.584l-4.8 7.904.352-.992V230h-1.584zm10.254.096c-.906 0-1.706-.187-2.4-.56a4.106 4.106 0 0 1-1.6-1.536c-.373-.651-.56-1.397-.56-2.24 0-.843.182-1.589.544-2.24a4.005 4.005 0 0 1 1.52-1.52c.651-.373 1.382-.56 2.192-.56.822 0 1.547.181 2.176.544.63.363 1.12.875 1.472 1.536.363.651.544 1.413.544 2.288 0 .064-.005.139-.016.224 0 .085-.005.165-.016.24h-7.216v-1.104h6.416l-.624.384c.011-.544-.101-1.029-.336-1.456a2.491 2.491 0 0 0-.976-.992c-.405-.245-.88-.368-1.424-.368-.533 0-1.008.123-1.424.368a2.476 2.476 0 0 0-.976 1.008c-.234.427-.352.917-.352 1.472v.256c0 .565.128 1.072.384 1.52a2.77 2.77 0 0 0 1.104 1.024c.47.245 1.008.368 1.616.368.502 0 .955-.085 1.36-.256a2.985 2.985 0 0 0 1.088-.768l.848.992a3.706 3.706 0 0 1-1.44 1.024c-.565.235-1.2.352-1.904.352zm8.933 0c-.853 0-1.515-.229-1.984-.688-.469-.459-.704-1.115-.704-1.968v-7.776h1.536v7.712c0 .459.112.811.336 1.056.235.245.565.368.992.368.48 0 .88-.133 1.2-.4l.48 1.104a2.223 2.223 0 0 1-.848.448 3.49 3.49 0 0 1-1.008.144zm-4.128-7.312v-1.264h5.408v1.264h-5.408z" fill="#706E6E"/>
</svg>
