<svg width="23" height="25" viewBox="0 0 23 25" fill="none" xmlns="http://www.w3.org/2000/svg">
<path d="M11.5156 9.57153V12.1856" stroke="#B3C5DC" stroke-width="2" stroke-miterlimit="10"/>
<path d="M10.2086 10.8572H12.8207" stroke="#B3C5DC" stroke-width="2" stroke-miterlimit="10"/>
<path d="M11.5157 13.6744C13.0881 13.6744 14.3628 12.3997 14.3628 10.8273C14.3628 9.25491 13.0881 7.98022 11.5157 7.98022C9.94327 7.98022 8.66858 9.25491 8.66858 10.8273C8.66858 12.3997 9.94327 13.6744 11.5157 13.6744Z" stroke="#B3C5DC" stroke-width="1.5" stroke-miterlimit="10"/>
<path d="M4.90356 17.7778L7.80943 20.7891C8.24916 21.243 8.44167 21.8955 8.2755 22.5054C8.09718 23.1519 7.5237 23.8206 5.94311 23.8996" stroke="#B3C5DC" stroke-width="2" stroke-miterlimit="10"/>
<path d="M11.5055 13.6319C11.5055 13.6319 11.5136 14.2844 11.5136 16.2318C11.5136 18.3068 12.5228 19.3889 14.4519 19.5125C14.6606 19.5267 16.6789 19.5956 17.3193 17.6746C17.53 17.0423 17.4166 11.5406 17.4166 11.5406H20.0934C20.6122 11.5406 21.6639 11.1617 20.8473 10.2762L11.7305 1.19584C11.4731 0.938485 11.0577 0.934432 10.7943 1.18571L1.33096 10.1931C0.694671 10.8962 1.03105 11.5406 1.86998 11.5406H4.81638V17.7617L1.91051 20.7729C1.47078 21.2268 1.27828 21.8793 1.44444 22.4893C1.62276 23.1357 2.19624 23.8044 3.77683 23.8835" stroke="#B3C5DC" stroke-width="2" stroke-miterlimit="10"/>
<path d="M3.39587 25C4.00357 25 4.49621 24.5074 4.49621 23.8997C4.49621 23.292 4.00357 22.7993 3.39587 22.7993C2.78817 22.7993 2.29553 23.292 2.29553 23.8997C2.29553 24.5074 2.78817 25 3.39587 25Z" fill="#B3C5DC" stroke="#0B556D" stroke-width="0.01" stroke-miterlimit="10"/>
<path d="M6.23486 24.9817C6.84256 24.9817 7.3352 24.489 7.3352 23.8813C7.3352 23.2736 6.84256 22.781 6.23486 22.781C5.62716 22.781 5.13452 23.2736 5.13452 23.8813C5.13452 24.489 5.62716 24.9817 6.23486 24.9817Z" fill="#B3C5DC" stroke="#0B556D" stroke-width="0.01" stroke-miterlimit="10"/>
</svg>
