<svg width="278" height="300" viewBox="0 0 278 300" fill="none" xmlns="http://www.w3.org/2000/svg">
<g clip-path="url(#clip0_216_6621)">
<g opacity="0.6" clip-path="url(#clip1_216_6621)">
<path d="M221.457 39.3472L93.2032 116.038" stroke="black" stroke-linecap="round" stroke-linejoin="round"/>
<path d="M116.597 35.6436L197.194 116.506" stroke="black" stroke-linecap="round" stroke-linejoin="round"/>
<path d="M117.255 15.0823C70.1272 38.4748 50.572 85.1745 73.5844 119.401C96.5967 153.628 153.46 162.44 200.587 139.069C247.715 115.697 267.27 68.9977 244.258 34.7498C221.245 0.523263 164.382 -8.28881 117.255 15.0823Z" stroke="black" stroke-linecap="round" stroke-linejoin="round"/>
</g>
<path d="M139 299.45C215.185 299.45 276.945 295.844 276.945 291.396C276.945 286.948 215.185 283.342 139 283.342C62.8148 283.342 1.05457 286.948 1.05457 291.396C1.05457 295.844 62.8148 299.45 139 299.45Z" fill="#F5F5F5"/>
<path d="M253.745 279.088C253.659 278.376 253.695 277.359 254.57 277.074C255.175 276.928 255.713 276.584 256.1 276.097C256.487 275.61 256.7 275.007 256.704 274.385C256.655 273.19 258.092 272.03 259.159 273.147C260.226 274.264 260.091 272.293 261.521 271.81C262.951 271.326 264.168 272.521 263.776 273.56C263.385 274.598 264.801 275.289 266.487 274.385C268.173 273.481 270.044 275.096 269.681 276.413C269.319 277.729 269.617 277.836 270.692 277.416C270.964 277.345 271.247 277.333 271.524 277.381C271.801 277.429 272.064 277.536 272.296 277.694C272.528 277.853 272.724 278.059 272.869 278.299C273.014 278.54 273.107 278.809 273.139 279.088H253.745Z" fill="#41A592"/>
<path d="M273.808 236.023C273.859 235.835 273.89 235.641 273.9 235.446C273.972 234.237 275.124 234.429 276.099 234.265C276.867 234.137 274.84 232.202 276.383 231.576C276.672 231.488 276.923 231.305 277.095 231.057C277.172 230.868 277.181 230.658 277.12 230.463C277.059 230.268 276.932 230.1 276.76 229.99C276.406 229.779 275.999 229.675 275.587 229.691C275.33 229.385 275.537 228.929 275.779 228.616C276.021 228.303 276.326 227.948 276.234 227.556C276.092 226.98 275.281 226.959 274.69 227.073C274.529 226.691 274.421 226.289 274.37 225.877C274.27 225.479 273.95 225.059 273.538 225.109C273.125 225.159 272.919 225.593 272.534 225.685C272.15 225.778 271.716 225.393 271.368 225.102C271.019 224.81 270.421 224.632 270.179 225.016C270.037 225.244 270.123 225.564 269.98 225.792C269.724 226.183 269.112 225.941 268.735 225.664C268.358 225.386 267.753 225.13 267.49 225.522C267.421 225.646 267.371 225.781 267.341 225.92C267.163 226.439 266.629 226.695 266.174 227.023C265.719 227.35 265.391 228.012 265.761 228.446C265.946 228.645 266.259 228.723 266.352 228.979C266.444 229.235 266.138 229.584 265.882 229.797C265.455 230.16 265.377 231.22 265.946 231.548C266.181 231.669 266.53 231.704 266.587 231.967C266.643 232.231 266.402 232.387 266.245 232.565C266.146 232.693 266.075 232.841 266.038 232.999C266.001 233.157 265.999 233.321 266.031 233.479C266.064 233.638 266.13 233.788 266.226 233.919C266.322 234.05 266.445 234.158 266.587 234.237C266.722 234.301 266.892 234.351 266.942 234.493C266.962 234.599 266.95 234.708 266.907 234.806C266.853 235.003 266.833 235.207 266.85 235.411C266.849 235.446 266.856 235.482 266.869 235.515C266.883 235.548 266.903 235.578 266.928 235.603C266.979 235.642 267.042 235.66 267.106 235.653C267.917 235.653 268.315 235.404 268.813 236.108C268.852 236.182 268.908 236.246 268.977 236.293C269.048 236.327 269.126 236.344 269.205 236.343C269.767 236.393 270.13 236.044 270.628 235.98C271.339 235.888 271.489 236.25 272.115 236.549C273.146 236.983 273.623 236.699 273.808 236.023Z" fill="#41A592"/>
<path d="M264.431 235.02C264.476 234.828 264.505 234.633 264.516 234.437C264.587 233.234 265.74 233.419 266.722 233.256C267.483 233.127 265.455 231.192 266.999 230.573C267.287 230.483 267.537 230.301 267.711 230.054C267.789 229.864 267.798 229.653 267.737 229.457C267.676 229.26 267.548 229.092 267.376 228.98C267.023 228.768 266.614 228.667 266.202 228.688C265.953 228.382 266.153 227.92 266.402 227.606C266.651 227.293 266.942 226.938 266.85 226.554C266.708 225.97 265.896 225.949 265.306 226.063C265.143 225.684 265.037 225.284 264.993 224.874C264.886 224.469 264.566 224.049 264.153 224.099C263.741 224.149 263.534 224.583 263.157 224.675C262.78 224.768 262.332 224.391 261.991 224.099C261.649 223.807 261.037 223.622 260.802 224.007C260.66 224.241 260.745 224.561 260.596 224.789C260.34 225.18 259.728 224.939 259.351 224.654C258.974 224.369 258.369 224.127 258.106 224.512C258.041 224.64 257.993 224.776 257.964 224.917C257.779 225.429 257.252 225.686 256.79 226.02C256.327 226.354 256.014 227.009 256.377 227.443C256.562 227.642 256.882 227.72 256.968 227.976C257.053 228.233 256.761 228.574 256.505 228.795C256.078 229.157 256 230.218 256.562 230.538C256.797 230.666 257.145 230.701 257.202 230.965C257.259 231.228 257.017 231.377 256.861 231.555C256.761 231.683 256.691 231.831 256.654 231.989C256.617 232.147 256.615 232.311 256.647 232.47C256.68 232.628 256.746 232.778 256.842 232.909C256.938 233.04 257.061 233.148 257.202 233.227C257.338 233.291 257.508 233.348 257.558 233.49C257.578 233.596 257.565 233.705 257.523 233.803C257.47 234 257.453 234.205 257.473 234.408C257.472 234.477 257.498 234.543 257.544 234.593C257.596 234.63 257.658 234.65 257.722 234.65C258.54 234.686 258.931 234.394 259.429 235.105C259.473 235.176 259.531 235.237 259.6 235.283C259.668 235.32 259.743 235.34 259.821 235.34C260.383 235.383 260.745 235.034 261.244 234.97C261.955 234.878 262.104 235.248 262.73 235.539C263.769 235.966 264.217 235.682 264.431 235.02Z" fill="#41A592"/>
<path d="M263.506 229.037C263.558 228.846 263.589 228.65 263.598 228.453C263.67 227.251 264.822 227.443 265.804 227.279C266.565 227.151 264.538 225.216 266.081 224.59C266.383 224.508 266.647 224.325 266.828 224.071C266.907 223.881 266.916 223.669 266.855 223.473C266.794 223.277 266.666 223.108 266.494 222.996C266.14 222.786 265.732 222.684 265.32 222.705C265.071 222.399 265.27 221.936 265.519 221.623C265.768 221.31 266.06 220.954 265.968 220.57C265.825 219.987 265.014 219.965 264.424 220.079C264.261 219.701 264.155 219.301 264.111 218.891C264.004 218.493 263.684 218.073 263.271 218.123C262.859 218.173 262.652 218.607 262.268 218.692C261.884 218.777 261.45 218.407 261.101 218.116C260.753 217.824 260.155 217.639 259.92 218.023C259.778 218.258 259.863 218.578 259.714 218.806C259.458 219.197 258.846 218.955 258.469 218.678C258.092 218.4 257.487 218.144 257.224 218.528C257.159 218.658 257.109 218.794 257.074 218.934C256.896 219.446 256.363 219.709 255.908 220.037C255.452 220.364 255.132 221.025 255.495 221.459C255.68 221.659 256 221.737 256.085 221.993C256.171 222.249 255.872 222.591 255.616 222.811C255.189 223.174 255.118 224.234 255.68 224.554C255.915 224.682 256.263 224.718 256.32 224.981C256.377 225.244 256.135 225.394 255.979 225.579C255.879 225.706 255.809 225.854 255.772 226.011C255.735 226.168 255.733 226.332 255.765 226.49C255.798 226.648 255.864 226.798 255.96 226.928C256.056 227.058 256.179 227.166 256.32 227.244C256.455 227.308 256.626 227.365 256.676 227.507C256.695 227.612 256.683 227.721 256.64 227.82C256.585 228.016 256.568 228.222 256.591 228.425C256.588 228.46 256.592 228.495 256.605 228.529C256.617 228.562 256.636 228.592 256.662 228.617C256.716 228.648 256.777 228.665 256.84 228.667C257.658 228.702 258.049 228.41 258.547 229.122C258.587 229.196 258.646 229.257 258.718 229.3C258.785 229.337 258.861 229.356 258.938 229.357C259.5 229.407 259.863 229.051 260.361 228.987C261.073 228.901 261.222 229.264 261.848 229.556C262.859 229.99 263.335 229.705 263.506 229.037Z" fill="#41A592"/>
<path d="M257.345 232.011C257.39 231.821 257.419 231.628 257.43 231.434C257.501 230.225 258.654 230.417 259.636 230.253C260.404 230.125 258.376 228.19 259.92 227.564C260.209 227.476 260.46 227.293 260.632 227.045C260.711 226.856 260.72 226.645 260.659 226.45C260.598 226.255 260.47 226.087 260.297 225.977C259.946 225.76 259.536 225.656 259.123 225.678C258.874 225.373 259.081 224.917 259.323 224.604C259.564 224.291 259.863 223.935 259.771 223.544C259.636 222.968 258.817 222.946 258.234 223.06C258.07 222.68 257.962 222.277 257.914 221.865C257.807 221.467 257.487 221.047 257.081 221.097C256.676 221.146 256.455 221.58 256.078 221.673C255.701 221.765 255.253 221.381 254.911 221.09C254.57 220.798 253.958 220.62 253.723 221.004C253.581 221.232 253.666 221.552 253.517 221.78C253.261 222.171 252.649 221.929 252.272 221.652C251.895 221.374 251.297 221.118 251.027 221.509C250.961 221.635 250.913 221.769 250.885 221.908C250.707 222.427 250.173 222.683 249.711 223.011C249.248 223.338 248.935 223.999 249.305 224.433C249.483 224.633 249.803 224.711 249.889 224.967C249.974 225.223 249.682 225.572 249.426 225.785C248.999 226.148 248.921 227.208 249.483 227.535C249.718 227.656 250.066 227.692 250.123 227.955C250.18 228.218 249.938 228.375 249.782 228.553C249.683 228.681 249.613 228.83 249.576 228.988C249.54 229.146 249.538 229.31 249.571 229.469C249.604 229.628 249.672 229.778 249.768 229.908C249.865 230.039 249.988 230.147 250.13 230.225C250.266 230.289 250.429 230.339 250.479 230.481C250.502 230.586 250.49 230.696 250.444 230.794C250.392 230.991 250.375 231.196 250.394 231.399C250.393 231.469 250.419 231.537 250.465 231.591C250.516 231.628 250.579 231.646 250.643 231.641C251.461 231.676 251.852 231.392 252.35 232.096C252.394 232.169 252.452 232.232 252.521 232.281C252.589 232.315 252.665 232.332 252.742 232.331C253.304 232.38 253.674 232.032 254.164 231.968C254.876 231.875 255.025 232.238 255.651 232.537C256.683 232.971 257.16 232.686 257.345 232.011Z" fill="#41A592"/>
<path d="M251.098 230.637C251.144 230.446 251.173 230.25 251.183 230.054C251.255 228.851 252.407 229.043 253.389 228.88C254.157 228.752 252.13 226.817 253.674 226.19C253.963 226.103 254.213 225.92 254.385 225.671C254.464 225.481 254.475 225.27 254.413 225.073C254.352 224.877 254.224 224.708 254.051 224.597C253.697 224.385 253.288 224.284 252.877 224.305C252.628 223.999 252.834 223.537 253.076 223.224C253.318 222.911 253.617 222.555 253.524 222.171C253.389 221.587 252.571 221.566 251.987 221.68C251.822 221.302 251.714 220.901 251.667 220.492C251.56 220.093 251.24 219.674 250.835 219.723C250.429 219.773 250.209 220.207 249.832 220.292C249.455 220.378 249.006 220.008 248.665 219.716C248.323 219.424 247.711 219.239 247.477 219.624C247.334 219.858 247.42 220.179 247.27 220.406C247.014 220.798 246.402 220.556 246.025 220.278C245.648 220.001 245.051 219.745 244.78 220.129C244.715 220.257 244.667 220.393 244.638 220.534C244.46 221.054 243.926 221.31 243.464 221.637C243.002 221.964 242.689 222.626 243.059 223.06C243.236 223.259 243.557 223.338 243.649 223.594C243.742 223.85 243.436 224.191 243.179 224.412C242.753 224.775 242.674 225.835 243.236 226.155C243.478 226.283 243.82 226.319 243.877 226.582C243.934 226.845 243.692 226.994 243.535 227.179C243.436 227.307 243.366 227.455 243.33 227.613C243.293 227.77 243.292 227.934 243.325 228.092C243.358 228.251 243.425 228.4 243.522 228.53C243.618 228.66 243.742 228.767 243.884 228.844C244.019 228.908 244.183 228.965 244.232 229.107C244.256 229.213 244.243 229.323 244.197 229.421C244.145 229.618 244.128 229.822 244.147 230.025C244.142 230.059 244.145 230.093 244.156 230.125C244.167 230.157 244.185 230.187 244.209 230.21C244.234 230.234 244.263 230.251 244.296 230.261C244.328 230.271 244.363 230.273 244.396 230.267C245.214 230.303 245.606 230.011 246.104 230.723C246.147 230.793 246.205 230.854 246.274 230.9C246.342 230.937 246.418 230.956 246.495 230.957C247.057 231.007 247.427 230.658 247.918 230.587C248.629 230.502 248.772 230.865 249.398 231.164C250.436 231.598 250.913 231.306 251.098 230.637Z" fill="#41A592"/>
<path d="M251.013 237.318C251.057 237.17 251.081 237.017 251.084 236.862C251.141 235.909 252.051 236.065 252.82 235.93C253.425 235.831 251.824 234.308 253.04 233.796C253.277 233.731 253.485 233.588 253.631 233.39C253.689 233.24 253.693 233.074 253.644 232.92C253.595 232.766 253.495 232.633 253.36 232.544C253.085 232.375 252.765 232.296 252.443 232.316C252.243 232.074 252.407 231.711 252.592 231.462C252.777 231.213 253.026 230.936 252.948 230.63C252.841 230.175 252.201 230.16 251.738 230.246C251.608 229.947 251.522 229.63 251.482 229.307C251.404 228.994 251.155 228.666 250.828 228.702C250.5 228.737 250.337 229.086 250.038 229.157C249.739 229.228 249.391 228.93 249.12 228.702C248.85 228.474 248.409 228.325 248.188 228.631C248.074 228.809 248.138 229.065 248.025 229.243C247.825 229.549 247.313 229.356 247.05 229.136C246.787 228.915 246.274 228.723 246.068 229.029C246.015 229.128 245.977 229.233 245.954 229.342C245.812 229.748 245.371 229.954 245.029 230.21C244.688 230.466 244.417 230.993 244.709 231.306C244.851 231.462 245.1 231.526 245.172 231.726C245.243 231.925 245.001 232.202 244.802 232.373C244.467 232.658 244.403 233.511 244.851 233.746C245.036 233.846 245.307 233.874 245.357 234.081C245.406 234.287 245.207 234.408 245.086 234.55C245.008 234.651 244.952 234.767 244.923 234.892C244.893 235.016 244.892 235.145 244.917 235.271C244.943 235.396 244.996 235.514 245.071 235.617C245.147 235.72 245.245 235.805 245.357 235.866C245.463 235.916 245.591 235.959 245.634 236.073C245.658 236.154 245.658 236.24 245.634 236.322C245.591 236.474 245.577 236.633 245.591 236.791C245.594 236.846 245.614 236.898 245.648 236.941C245.689 236.971 245.74 236.987 245.791 236.983C246.431 236.983 246.744 236.784 247.135 237.346C247.169 237.401 247.215 237.447 247.27 237.481C247.324 237.513 247.386 237.53 247.448 237.531C247.889 237.567 248.16 237.289 248.579 237.239C249.134 237.168 249.255 237.453 249.746 237.688C250.493 238.072 250.87 237.866 251.013 237.318Z" fill="#41A592"/>
<path d="M247.512 235.02C247.564 234.829 247.595 234.634 247.605 234.437C247.676 233.234 248.828 233.419 249.81 233.256C250.572 233.127 248.544 231.192 250.088 230.573C250.387 230.487 250.649 230.304 250.835 230.054C250.913 229.864 250.922 229.653 250.861 229.457C250.8 229.26 250.673 229.092 250.5 228.98C250.146 228.769 249.738 228.667 249.327 228.688C249.07 228.382 249.277 227.92 249.526 227.606C249.775 227.293 250.066 226.938 249.974 226.554C249.832 225.97 249.021 225.949 248.43 226.063C248.268 225.684 248.16 225.284 248.11 224.874C248.01 224.469 247.69 224.049 247.278 224.099C246.865 224.149 246.659 224.583 246.274 224.675C245.89 224.768 245.456 224.391 245.108 224.099C244.759 223.807 244.161 223.622 243.919 224.007C243.777 224.241 243.862 224.561 243.72 224.789C243.464 225.18 242.852 224.939 242.475 224.654C242.098 224.369 241.493 224.127 241.23 224.512C241.163 224.64 241.112 224.776 241.081 224.917C240.903 225.429 240.369 225.686 239.914 226.02C239.459 226.354 239.138 227.009 239.501 227.443C239.686 227.642 239.999 227.72 240.092 227.976C240.184 228.233 239.878 228.574 239.622 228.795C239.195 229.157 239.124 230.218 239.686 230.538C239.921 230.666 240.27 230.701 240.327 230.965C240.383 231.228 240.142 231.377 239.985 231.555C239.886 231.683 239.815 231.831 239.778 231.989C239.741 232.147 239.739 232.311 239.771 232.47C239.804 232.628 239.87 232.778 239.966 232.909C240.062 233.04 240.185 233.148 240.327 233.227C240.462 233.291 240.632 233.348 240.682 233.49C240.702 233.596 240.689 233.705 240.647 233.803C240.592 234 240.573 234.205 240.59 234.408C240.589 234.443 240.596 234.477 240.609 234.509C240.623 234.541 240.643 234.569 240.668 234.593C240.72 234.63 240.782 234.65 240.846 234.65C241.657 234.686 242.055 234.394 242.553 235.105C242.594 235.176 242.65 235.237 242.717 235.283C242.787 235.32 242.865 235.339 242.945 235.34C243.507 235.383 243.87 235.034 244.368 234.97C245.079 234.878 245.228 235.248 245.855 235.539C246.851 235.966 247.327 235.682 247.512 235.02Z" fill="#41A592"/>
<path d="M257.345 224.661C257.39 224.472 257.419 224.279 257.43 224.085C257.501 222.875 258.654 223.067 259.636 222.904C260.404 222.776 258.376 220.84 259.92 220.214C260.209 220.126 260.46 219.943 260.632 219.695C260.711 219.506 260.72 219.296 260.659 219.1C260.598 218.905 260.47 218.738 260.297 218.628C259.946 218.411 259.536 218.307 259.123 218.329C258.874 218.023 259.081 217.568 259.323 217.255C259.564 216.942 259.863 216.586 259.771 216.195C259.636 215.618 258.817 215.597 258.234 215.711C258.07 215.33 257.962 214.927 257.914 214.515C257.807 214.117 257.487 213.697 257.081 213.747C256.676 213.797 256.455 214.231 256.078 214.316C255.701 214.402 255.253 214.032 254.911 213.74C254.57 213.448 253.958 213.27 253.723 213.655C253.581 213.882 253.666 214.202 253.517 214.43C253.261 214.821 252.649 214.579 252.272 214.302C251.895 214.025 251.297 213.768 251.027 214.16C250.961 214.285 250.913 214.419 250.885 214.558C250.707 215.077 250.173 215.334 249.711 215.661C249.248 215.988 248.935 216.65 249.305 217.084C249.483 217.283 249.803 217.361 249.889 217.617C249.974 217.874 249.682 218.215 249.426 218.436C248.999 218.798 248.921 219.859 249.483 220.186C249.718 220.307 250.066 220.342 250.123 220.606C250.18 220.869 249.938 221.025 249.782 221.203C249.683 221.331 249.613 221.479 249.576 221.637C249.54 221.794 249.538 221.958 249.572 222.116C249.605 222.274 249.672 222.424 249.768 222.553C249.865 222.683 249.988 222.791 250.13 222.868C250.266 222.939 250.429 222.989 250.479 223.131C250.502 223.237 250.49 223.347 250.444 223.444C250.392 223.641 250.375 223.846 250.394 224.049C250.393 224.12 250.419 224.188 250.465 224.241C250.516 224.279 250.579 224.296 250.643 224.291C251.461 224.327 251.852 224.042 252.35 224.746C252.394 224.819 252.452 224.882 252.521 224.931C252.591 224.962 252.665 224.979 252.742 224.981C253.304 225.031 253.674 224.682 254.164 224.618C254.876 224.526 255.025 224.889 255.651 225.187C256.683 225.621 257.16 225.337 257.345 224.661Z" fill="#41A592"/>
<path d="M265.37 225.059C265.416 224.868 265.445 224.673 265.455 224.476C265.527 223.274 266.679 223.466 267.661 223.295C268.422 223.167 266.394 221.239 267.945 220.613C268.234 220.525 268.485 220.342 268.657 220.093C268.735 219.903 268.744 219.692 268.683 219.496C268.622 219.3 268.495 219.131 268.323 219.019C267.969 218.808 267.56 218.706 267.149 218.727C266.9 218.422 267.106 217.959 267.348 217.646C267.59 217.333 267.889 216.977 267.796 216.593C267.654 216.01 266.843 215.988 266.252 216.102C266.092 215.723 265.987 215.323 265.939 214.914C265.832 214.516 265.512 214.096 265.107 214.146C264.701 214.195 264.481 214.629 264.104 214.715C263.727 214.8 263.278 214.43 262.937 214.139C262.595 213.847 261.983 213.662 261.749 214.046C261.606 214.281 261.692 214.601 261.542 214.829C261.286 215.22 260.674 214.978 260.297 214.693C259.92 214.409 259.323 214.167 259.052 214.551C258.987 214.679 258.939 214.816 258.91 214.957C258.732 215.469 258.198 215.732 257.736 216.06C257.274 216.387 256.961 217.048 257.323 217.482C257.508 217.682 257.828 217.76 257.914 218.016C257.999 218.272 257.708 218.614 257.451 218.834C257.025 219.197 256.946 220.257 257.508 220.577C257.743 220.705 258.092 220.741 258.149 221.004C258.206 221.267 257.964 221.417 257.807 221.602C257.708 221.729 257.637 221.877 257.601 222.034C257.564 222.191 257.561 222.355 257.594 222.513C257.626 222.671 257.693 222.821 257.789 222.951C257.884 223.081 258.007 223.189 258.149 223.267C258.284 223.331 258.455 223.388 258.504 223.53C258.524 223.635 258.511 223.744 258.469 223.843C258.416 224.04 258.4 224.245 258.419 224.448C258.42 224.518 258.445 224.586 258.49 224.64C258.544 224.671 258.605 224.688 258.668 224.69C259.486 224.725 259.878 224.433 260.376 225.145C260.422 225.214 260.479 225.274 260.546 225.323C260.614 225.36 260.69 225.379 260.767 225.38C261.329 225.429 261.692 225.074 262.19 225.01C262.901 224.924 263.051 225.287 263.677 225.579C264.708 226.027 265.185 225.771 265.37 225.059Z" fill="#41A592"/>
<path d="M270.243 228.361C270.289 228.169 270.317 227.974 270.329 227.777C270.4 226.568 271.553 226.76 272.534 226.596C273.303 226.468 271.275 224.533 272.819 223.907C273.109 223.822 273.361 223.638 273.53 223.387C273.609 223.199 273.619 222.988 273.558 222.793C273.497 222.598 273.369 222.43 273.196 222.32C272.842 222.109 272.434 222.007 272.022 222.029C271.773 221.723 271.979 221.26 272.221 220.947C272.463 220.634 272.762 220.278 272.67 219.894C272.534 219.311 271.716 219.289 271.133 219.403C270.969 219.022 270.861 218.62 270.813 218.208C270.706 217.81 270.386 217.39 269.98 217.44C269.575 217.489 269.354 217.923 268.977 218.016C268.6 218.108 268.152 217.731 267.81 217.432C267.469 217.134 266.857 216.963 266.622 217.347C266.48 217.575 266.565 217.895 266.416 218.123C266.16 218.521 265.548 218.272 265.171 217.995C264.794 217.717 264.196 217.461 263.926 217.852C263.858 217.979 263.81 218.116 263.783 218.258C263.606 218.77 263.072 219.026 262.609 219.361C262.147 219.695 261.834 220.349 262.204 220.748C262.382 220.947 262.702 221.032 262.787 221.282C262.873 221.531 262.581 221.886 262.325 222.1C261.898 222.463 261.82 223.523 262.382 223.85C262.617 223.971 262.965 224.014 263.022 224.27C263.079 224.526 262.837 224.689 262.681 224.867C262.582 224.996 262.511 225.144 262.475 225.302C262.439 225.46 262.437 225.625 262.47 225.783C262.503 225.942 262.57 226.092 262.667 226.223C262.763 226.353 262.887 226.461 263.029 226.539C263.164 226.603 263.328 226.653 263.378 226.795C263.401 226.903 263.389 227.016 263.342 227.116C263.29 227.313 263.273 227.517 263.293 227.72C263.293 227.788 263.319 227.854 263.364 227.905C263.415 227.943 263.478 227.96 263.542 227.955C264.36 227.991 264.751 227.706 265.249 228.41C265.293 228.483 265.351 228.546 265.42 228.595C265.489 228.629 265.564 228.649 265.64 228.652C266.202 228.695 266.572 228.346 267.063 228.282C267.775 228.19 267.917 228.56 268.543 228.851C269.582 229.328 270.059 229.029 270.243 228.361Z" fill="#41A592"/>
<path d="M268.764 232.508C268.764 232.508 266.722 235.354 266.025 236.307C265.327 237.261 261.806 242.91 261.329 246.68C261.279 247.079 261.222 247.427 261.179 247.726C262.688 257.687 262.453 275.964 262.396 279.088H257.608C257.565 275.566 257.16 243.344 257.01 242.362C256.861 241.38 254.876 237.382 251.753 235.731C248.629 234.08 245.99 228.716 245.99 228.716H246.972C248.104 230.696 249.609 232.438 251.404 233.846C251.777 234.109 252.166 234.346 252.571 234.557C252.565 232.571 252.917 230.599 253.61 228.737L254.136 229.228C253.577 231.144 253.439 233.159 253.73 235.133C254.712 235.595 255.619 236.202 256.42 236.933C259.116 233.426 260.639 225.408 260.639 225.408L261.35 225.785C261.151 227.44 260.852 229.082 260.454 230.701C259.69 233.332 258.795 235.922 257.772 238.463C258.602 239.652 259.285 240.937 259.806 242.291C259.88 242.176 259.969 242.07 260.07 241.978C261.827 240.391 265.128 232.878 265.128 232.878C265.932 231.135 264.708 226.553 264.708 226.553H265.64L266.053 230.559L268.372 228.033L268.792 228.382L266.33 231.548L265.064 235.553L268.372 231.896L268.764 232.508Z" fill="#263238"/>
<path d="M263.933 279.088H248.174C248.087 278.727 248.14 278.347 248.32 278.023C248.501 277.699 248.796 277.454 249.149 277.338C249.917 277.181 250.685 275.829 250.721 274.976C250.757 274.122 252.144 271.468 254.278 273.104C256.413 274.741 255.772 273.346 257.33 272.884C258.889 272.421 259.863 273.745 259.18 274.734C259.615 274.627 260.073 274.675 260.475 274.87C260.878 275.065 261.2 275.394 261.386 275.801C261.584 276.163 261.688 276.569 261.688 276.982C261.688 277.395 261.584 277.801 261.386 278.163C261.386 278.163 263.364 278.106 263.933 279.088Z" fill="#41A592"/>
<path d="M223.927 279.5C223.998 278.938 223.97 278.12 223.273 277.893C222.794 277.775 222.368 277.502 222.063 277.115C221.757 276.728 221.59 276.251 221.587 275.758C221.622 274.805 220.477 273.88 219.623 274.769C218.769 275.659 218.911 274.058 217.738 273.702C216.564 273.346 215.603 274.25 215.945 275.125C216.286 276 215.134 276.505 213.81 275.787C212.487 275.068 210.964 276.377 211.263 277.402C211.562 278.426 211.32 278.54 210.466 278.198C210.249 278.141 210.022 278.131 209.801 278.169C209.58 278.207 209.37 278.292 209.184 278.419C208.999 278.546 208.844 278.712 208.729 278.905C208.613 279.097 208.541 279.313 208.517 279.536L223.927 279.5Z" fill="#41A592"/>
<path d="M207.934 245.18C207.896 245.026 207.875 244.868 207.87 244.71C207.813 243.749 206.888 243.906 206.112 243.771C205.5 243.671 207.115 242.127 205.885 241.636C205.645 241.573 205.436 241.427 205.294 241.224C205.234 241.073 205.227 240.906 205.275 240.75C205.323 240.595 205.423 240.461 205.557 240.37C205.841 240.203 206.167 240.121 206.496 240.135C206.696 239.893 206.532 239.523 206.34 239.274C206.148 239.025 205.906 238.741 205.977 238.435C206.091 237.972 206.738 237.951 207.208 238.044C207.338 237.742 207.422 237.423 207.457 237.097C207.542 236.777 207.798 236.443 208.126 236.478C208.453 236.514 208.624 236.87 208.923 236.941C209.221 237.012 209.577 236.713 209.855 236.478C210.132 236.244 210.609 236.101 210.801 236.407C210.915 236.592 210.843 236.848 210.964 237.026C211.171 237.339 211.676 237.147 211.953 236.927C212.231 236.706 212.736 236.5 212.949 236.806C213.002 236.909 213.04 237.019 213.063 237.133C213.206 237.538 213.647 237.745 213.995 238.008C214.344 238.271 214.614 238.798 214.323 239.118C214.18 239.274 213.924 239.346 213.853 239.545C213.782 239.744 214.024 240.021 214.223 240.199C214.564 240.484 214.628 241.352 214.18 241.622C213.988 241.722 213.711 241.757 213.668 241.964C213.625 242.17 213.81 242.291 213.938 242.44C214.017 242.542 214.073 242.66 214.102 242.785C214.132 242.911 214.134 243.041 214.108 243.168C214.082 243.294 214.03 243.413 213.954 243.517C213.878 243.621 213.78 243.708 213.668 243.771C213.554 243.821 213.426 243.863 213.383 243.977C213.359 244.058 213.359 244.145 213.383 244.226C213.426 244.384 213.441 244.547 213.426 244.71C213.426 244.765 213.406 244.818 213.369 244.859C213.327 244.887 213.277 244.902 213.227 244.902C212.572 244.902 212.259 244.696 211.868 245.265C211.831 245.319 211.785 245.367 211.733 245.407C211.674 245.432 211.612 245.447 211.548 245.45C211.107 245.45 210.836 245.208 210.402 245.158C209.84 245.087 209.691 245.379 209.221 245.614C208.467 245.941 208.083 245.692 207.934 245.18Z" fill="#41A592"/>
<path d="M215.418 244.369C215.374 244.218 215.351 244.063 215.347 243.906C215.29 242.946 214.372 243.095 213.59 242.967C212.978 242.86 214.593 241.323 213.362 240.833C213.122 240.766 212.913 240.618 212.772 240.413C212.711 240.262 212.705 240.095 212.752 239.939C212.8 239.784 212.9 239.65 213.035 239.559C213.318 239.391 213.645 239.312 213.974 239.331C214.173 239.082 214.009 238.719 213.817 238.47C213.625 238.221 213.383 237.937 213.455 237.624C213.568 237.161 214.216 237.147 214.685 237.24C214.815 236.935 214.901 236.614 214.941 236.286C215.02 235.966 215.276 235.632 215.603 235.674C215.93 235.717 216.101 236.059 216.4 236.13C216.699 236.201 217.055 235.902 217.332 235.667C217.609 235.433 218.086 235.29 218.278 235.596C218.392 235.781 218.321 236.037 218.442 236.222C218.648 236.535 219.153 236.336 219.431 236.116C219.708 235.895 220.213 235.689 220.427 236.002C220.48 236.103 220.518 236.21 220.541 236.322C220.683 236.734 221.124 236.941 221.473 237.204C221.821 237.467 222.092 237.987 221.8 238.314C221.658 238.47 221.402 238.535 221.33 238.734C221.259 238.933 221.501 239.218 221.7 239.388C222.042 239.68 222.106 240.541 221.658 240.811C221.466 240.911 221.188 240.939 221.145 241.146C221.103 241.352 221.288 241.48 221.416 241.622C221.496 241.724 221.553 241.841 221.583 241.967C221.613 242.093 221.615 242.224 221.589 242.35C221.563 242.477 221.51 242.596 221.434 242.7C221.357 242.804 221.259 242.891 221.145 242.953C221.039 243.002 220.904 243.045 220.861 243.159C220.837 243.24 220.837 243.327 220.861 243.408C220.904 243.566 220.918 243.729 220.904 243.892C220.905 243.947 220.884 244.001 220.847 244.041C220.806 244.072 220.755 244.087 220.704 244.084C220.05 244.084 219.737 243.885 219.345 244.447C219.312 244.504 219.266 244.553 219.21 244.589C219.153 244.62 219.09 244.637 219.025 244.639C218.584 244.639 218.314 244.397 217.88 244.34C217.318 244.269 217.168 244.561 216.699 244.795C215.945 245.13 215.56 244.902 215.418 244.369Z" fill="#41A592"/>
<path d="M216.137 239.609C216.097 239.455 216.073 239.298 216.066 239.139C216.009 238.179 215.091 238.335 214.308 238.2C213.696 238.1 215.311 236.557 214.081 236.066C213.841 236.002 213.632 235.856 213.49 235.653C213.431 235.501 213.425 235.334 213.474 235.178C213.523 235.023 213.624 234.889 213.76 234.799C214.041 234.631 214.366 234.55 214.692 234.564C214.892 234.323 214.728 233.953 214.536 233.704C214.344 233.455 214.102 233.17 214.173 232.864C214.287 232.402 214.934 232.387 215.404 232.473C215.533 232.171 215.619 231.852 215.66 231.527C215.745 231.206 215.994 230.872 216.322 230.915C216.649 230.957 216.82 231.299 217.119 231.37C217.417 231.441 217.78 231.142 218.051 230.908C218.321 230.673 218.812 230.53 218.997 230.836C219.111 231.021 219.047 231.278 219.16 231.455C219.367 231.768 219.872 231.576 220.149 231.356C220.427 231.135 220.932 230.929 221.145 231.235C221.198 231.338 221.236 231.448 221.259 231.562C221.402 231.968 221.85 232.174 222.191 232.437C222.533 232.7 222.817 233.227 222.519 233.547C222.376 233.711 222.12 233.775 222.049 233.974C221.978 234.173 222.22 234.451 222.426 234.629C222.768 234.913 222.824 235.781 222.376 236.016C222.184 236.115 221.914 236.151 221.864 236.357C221.814 236.564 222.013 236.685 222.134 236.834C222.214 236.935 222.271 237.053 222.301 237.179C222.331 237.305 222.333 237.435 222.308 237.562C222.282 237.689 222.229 237.808 222.152 237.912C222.076 238.016 221.977 238.102 221.864 238.164C221.757 238.214 221.622 238.257 221.587 238.371C221.562 238.452 221.562 238.539 221.587 238.62C221.629 238.777 221.644 238.941 221.629 239.104C221.631 239.131 221.626 239.159 221.616 239.184C221.607 239.21 221.592 239.233 221.572 239.253C221.531 239.282 221.481 239.297 221.43 239.296C220.783 239.296 220.47 239.089 220.071 239.659C220.036 239.714 219.99 239.763 219.936 239.801C219.881 239.828 219.82 239.843 219.758 239.844C219.31 239.879 219.047 239.602 218.613 239.552C218.043 239.481 217.901 239.772 217.425 240.007C216.663 240.37 216.286 240.142 216.137 239.609Z" fill="#41A592"/>
<path d="M221.06 241.978C221.023 241.826 220.999 241.671 220.989 241.515C220.932 240.555 220.014 240.704 219.232 240.576C218.627 240.47 220.242 238.933 219.011 238.442C218.77 238.374 218.559 238.226 218.413 238.022C218.35 237.869 218.342 237.698 218.392 237.539C218.441 237.381 218.545 237.245 218.684 237.154C218.964 236.986 219.289 236.907 219.616 236.927C219.822 236.678 219.658 236.315 219.459 236.066C219.26 235.817 219.032 235.532 219.104 235.226C219.217 234.757 219.865 234.742 220.334 234.835C220.461 234.53 220.545 234.209 220.583 233.881C220.669 233.561 220.925 233.227 221.252 233.27C221.579 233.312 221.743 233.654 222.049 233.725C222.355 233.796 222.704 233.497 222.981 233.263C223.258 233.028 223.735 232.885 223.927 233.191C224.041 233.376 223.97 233.632 224.091 233.817C224.29 234.131 224.802 233.931 225.08 233.711C225.357 233.49 225.862 233.291 226.069 233.597C226.121 233.699 226.161 233.806 226.19 233.917C226.332 234.33 226.773 234.536 227.122 234.799C227.47 235.063 227.741 235.582 227.449 235.909C227.307 236.066 227.051 236.13 226.979 236.329C226.908 236.528 227.143 236.813 227.349 236.983C227.691 237.275 227.755 238.136 227.3 238.406C227.115 238.506 226.837 238.534 226.787 238.741C226.738 238.947 226.937 239.075 227.065 239.217C227.143 239.32 227.199 239.438 227.228 239.564C227.256 239.69 227.258 239.82 227.231 239.946C227.205 240.073 227.152 240.192 227.075 240.296C226.998 240.399 226.9 240.485 226.787 240.548C226.681 240.598 226.553 240.64 226.51 240.754C226.482 240.835 226.482 240.923 226.51 241.003C226.553 241.161 226.567 241.325 226.553 241.487C226.551 241.543 226.528 241.597 226.489 241.636C226.448 241.668 226.397 241.684 226.346 241.679C225.699 241.679 225.386 241.48 224.987 242.042C224.958 242.099 224.913 242.148 224.858 242.182C224.802 242.215 224.739 242.234 224.674 242.234C224.226 242.27 223.963 241.992 223.529 241.935C222.967 241.864 222.817 242.156 222.348 242.391C221.587 242.739 221.209 242.512 221.06 241.978Z" fill="#41A592"/>
<path d="M226.04 240.882C226.004 240.73 225.98 240.576 225.969 240.42C225.912 239.459 224.994 239.609 224.212 239.481C223.6 239.374 225.222 237.837 223.991 237.346C223.749 237.28 223.538 237.132 223.394 236.926C223.334 236.775 223.328 236.607 223.378 236.452C223.427 236.296 223.528 236.162 223.664 236.073C223.944 235.904 224.269 235.824 224.596 235.845C224.795 235.596 224.632 235.233 224.44 234.984C224.247 234.735 224.006 234.451 224.084 234.138C224.191 233.675 224.838 233.661 225.308 233.753C225.44 233.45 225.526 233.129 225.564 232.8C225.649 232.48 225.898 232.145 226.225 232.188C226.553 232.231 226.723 232.572 227.029 232.643C227.335 232.715 227.684 232.416 227.954 232.181C228.225 231.946 228.715 231.804 228.9 232.11C229.014 232.295 228.95 232.551 229.064 232.736C229.27 233.049 229.775 232.85 230.06 232.629C230.345 232.409 230.836 232.209 231.049 232.515C231.101 232.617 231.141 232.725 231.17 232.836C231.312 233.248 231.753 233.455 232.102 233.718C232.451 233.981 232.721 234.5 232.429 234.828C232.28 234.984 232.031 235.048 231.96 235.247C231.889 235.447 232.123 235.731 232.33 235.902C232.671 236.194 232.728 237.054 232.28 237.325C232.095 237.424 231.817 237.453 231.768 237.659C231.718 237.866 231.917 237.994 232.045 238.136C232.124 238.238 232.179 238.356 232.208 238.482C232.237 238.608 232.238 238.738 232.212 238.865C232.185 238.991 232.132 239.11 232.055 239.214C231.979 239.318 231.881 239.404 231.768 239.466C231.661 239.516 231.526 239.559 231.49 239.673C231.465 239.754 231.465 239.841 231.49 239.922C231.54 240.078 231.554 240.243 231.533 240.405C231.535 240.433 231.531 240.461 231.521 240.487C231.511 240.513 231.496 240.536 231.476 240.555C231.436 240.587 231.385 240.602 231.334 240.598C230.686 240.598 230.373 240.398 229.975 240.96C229.945 241.018 229.9 241.066 229.845 241.1C229.79 241.134 229.726 241.152 229.662 241.153C229.213 241.188 228.95 240.911 228.516 240.854C227.947 240.783 227.805 241.074 227.328 241.309C226.567 241.643 226.19 241.423 226.04 240.882Z" fill="#41A592"/>
<path d="M226.104 246.211C226.077 246.089 226.058 245.966 226.047 245.841C226.005 245.087 225.279 245.208 224.667 245.13C224.183 245.052 225.457 243.835 224.489 243.444C224.3 243.391 224.134 243.276 224.02 243.116C223.973 242.997 223.968 242.866 224.007 242.744C224.046 242.622 224.126 242.517 224.233 242.448C224.447 242.319 224.695 242.254 224.945 242.263C225.108 242.071 224.98 241.779 224.824 241.587C224.667 241.395 224.482 241.167 224.539 240.925C224.632 240.555 225.137 240.548 225.507 240.612C225.61 240.374 225.678 240.123 225.706 239.865C225.777 239.616 225.976 239.353 226.232 239.388C226.489 239.424 226.624 239.687 226.858 239.744C227.093 239.801 227.378 239.566 227.57 239.381C227.762 239.196 228.168 239.082 228.317 239.324C228.466 239.566 228.317 239.673 228.445 239.815C228.609 240.064 228.986 239.908 229.228 239.73C229.47 239.552 229.84 239.403 230.01 239.644C230.05 239.723 230.079 239.807 230.096 239.893C230.209 240.221 230.558 240.377 230.807 240.605C231.056 240.833 231.291 241.224 231.063 241.473C230.949 241.601 230.75 241.651 230.693 241.807C230.636 241.964 230.828 242.184 230.985 242.327C231.255 242.554 231.305 243.237 230.949 243.422C230.8 243.501 230.579 243.522 230.544 243.686C230.508 243.849 230.665 243.949 230.757 244.063C230.818 244.143 230.861 244.236 230.883 244.334C230.906 244.433 230.907 244.535 230.887 244.634C230.867 244.733 230.826 244.826 230.766 244.908C230.707 244.99 230.631 245.058 230.544 245.108C230.458 245.151 230.359 245.18 230.323 245.272C230.302 245.337 230.302 245.407 230.323 245.471C230.357 245.594 230.369 245.722 230.359 245.848C230.358 245.893 230.34 245.936 230.309 245.969C230.272 245.981 230.232 245.981 230.195 245.969C229.69 245.969 229.441 245.813 229.128 246.254C229.102 246.3 229.066 246.339 229.021 246.368C228.979 246.394 228.929 246.406 228.879 246.403C228.53 246.403 228.303 246.218 227.975 246.176C227.534 246.119 227.442 246.346 227.043 246.531C226.51 246.809 226.218 246.631 226.104 246.211Z" fill="#41A592"/>
<path d="M228.893 244.369C228.856 244.217 228.833 244.062 228.822 243.906C228.765 242.946 227.847 243.095 227.065 242.967C226.46 242.86 228.075 241.323 226.844 240.833C226.603 240.765 226.392 240.616 226.247 240.413C226.187 240.261 226.181 240.093 226.231 239.938C226.28 239.783 226.381 239.649 226.517 239.559C226.798 239.391 227.122 239.312 227.449 239.331C227.655 239.082 227.492 238.719 227.292 238.47C227.093 238.221 226.866 237.937 226.937 237.624C227.051 237.161 227.698 237.147 228.168 237.24C228.294 236.935 228.378 236.614 228.417 236.286C228.502 235.966 228.758 235.632 229.085 235.674C229.413 235.717 229.576 236.059 229.882 236.13C230.188 236.201 230.537 235.902 230.814 235.667C231.092 235.433 231.568 235.29 231.76 235.596C231.874 235.781 231.803 236.037 231.924 236.222C232.123 236.535 232.636 236.336 232.913 236.116C233.191 235.895 233.696 235.689 233.902 236.002C233.954 236.104 233.994 236.211 234.023 236.322C234.165 236.734 234.606 236.941 234.955 237.204C235.304 237.467 235.574 237.987 235.282 238.314C235.14 238.47 234.884 238.535 234.813 238.734C234.742 238.933 234.976 239.218 235.183 239.388C235.524 239.68 235.588 240.541 235.133 240.811C234.948 240.911 234.67 240.939 234.621 241.146C234.571 241.352 234.77 241.48 234.898 241.622C234.977 241.725 235.032 241.843 235.061 241.968C235.09 242.094 235.091 242.225 235.064 242.351C235.038 242.477 234.985 242.597 234.908 242.7C234.832 242.804 234.733 242.89 234.621 242.953C234.514 243.002 234.386 243.045 234.343 243.159C234.315 243.24 234.315 243.327 234.343 243.408C234.386 243.566 234.4 243.729 234.386 243.892C234.384 243.948 234.361 244.001 234.322 244.041C234.282 244.073 234.231 244.089 234.179 244.084C233.532 244.084 233.219 243.885 232.821 244.447C232.791 244.504 232.746 244.552 232.691 244.586C232.636 244.62 232.572 244.638 232.508 244.639C232.059 244.639 231.796 244.397 231.362 244.34C230.8 244.269 230.651 244.561 230.181 244.795C229.42 245.13 229.043 244.902 228.893 244.369Z" fill="#41A592"/>
<path d="M221.06 236.122C221.023 235.968 221 235.811 220.989 235.653C220.932 234.692 220.014 234.849 219.232 234.714C218.627 234.614 220.242 233.07 219.011 232.579C218.771 232.514 218.56 232.369 218.413 232.167C218.354 232.015 218.348 231.847 218.397 231.692C218.447 231.537 218.548 231.403 218.684 231.313C218.965 231.146 219.289 231.064 219.616 231.078C219.822 230.836 219.659 230.466 219.459 230.217C219.26 229.968 219.032 229.684 219.104 229.378C219.217 228.915 219.865 228.901 220.334 228.986C220.462 228.685 220.546 228.366 220.583 228.04C220.669 227.72 220.925 227.386 221.252 227.428C221.579 227.471 221.743 227.813 222.049 227.884C222.355 227.955 222.704 227.656 222.981 227.421C223.259 227.186 223.735 227.044 223.927 227.35C224.041 227.535 223.97 227.791 224.091 227.969C224.29 228.282 224.802 228.09 225.08 227.869C225.357 227.649 225.862 227.443 226.069 227.748C226.121 227.853 226.161 227.963 226.19 228.076C226.332 228.481 226.773 228.688 227.122 228.951C227.47 229.214 227.741 229.741 227.449 230.061C227.307 230.224 227.051 230.288 226.979 230.488C226.908 230.687 227.143 230.964 227.349 231.142C227.691 231.427 227.755 232.295 227.3 232.53C227.115 232.629 226.837 232.665 226.787 232.871C226.738 233.077 226.937 233.198 227.065 233.348C227.143 233.45 227.199 233.568 227.228 233.694C227.256 233.82 227.258 233.95 227.231 234.077C227.205 234.203 227.152 234.322 227.075 234.426C226.998 234.53 226.9 234.616 226.787 234.678C226.681 234.728 226.553 234.771 226.51 234.884C226.482 234.965 226.482 235.053 226.51 235.133C226.553 235.291 226.567 235.455 226.553 235.617C226.551 235.673 226.528 235.727 226.489 235.767C226.447 235.795 226.397 235.81 226.346 235.809C225.699 235.809 225.386 235.603 224.987 236.172C224.952 236.228 224.906 236.276 224.852 236.315C224.798 236.344 224.736 236.358 224.674 236.357C224.226 236.393 223.963 236.115 223.529 236.065C222.967 235.994 222.817 236.286 222.348 236.521C221.587 236.884 221.21 236.656 221.06 236.122Z" fill="#41A592"/>
<path d="M214.664 236.443C214.627 236.288 214.603 236.131 214.593 235.973C214.536 235.013 213.618 235.169 212.836 235.034C212.231 234.934 213.846 233.391 212.615 232.9C212.374 232.835 212.163 232.689 212.017 232.487C211.958 232.335 211.952 232.168 212.001 232.012C212.051 231.857 212.152 231.723 212.288 231.633C212.569 231.466 212.893 231.385 213.22 231.398C213.426 231.157 213.262 230.787 213.063 230.538C212.864 230.289 212.636 230.004 212.708 229.698C212.821 229.236 213.469 229.221 213.938 229.307C214.065 229.005 214.149 228.686 214.187 228.361C214.273 228.04 214.529 227.706 214.856 227.749C215.183 227.791 215.347 228.133 215.653 228.204C215.959 228.275 216.308 227.976 216.585 227.742C216.862 227.507 217.339 227.364 217.531 227.67C217.645 227.855 217.574 228.111 217.695 228.289C217.894 228.602 218.406 228.41 218.684 228.19C218.961 227.969 219.466 227.763 219.673 228.069C219.725 228.173 219.765 228.283 219.794 228.396C219.936 228.802 220.377 229.008 220.726 229.271C221.074 229.534 221.345 230.061 221.053 230.381C220.911 230.538 220.655 230.609 220.583 230.808C220.512 231.007 220.747 231.285 220.953 231.462C221.295 231.747 221.359 232.615 220.904 232.85C220.719 232.949 220.441 232.985 220.391 233.191C220.341 233.398 220.541 233.519 220.669 233.668C220.747 233.77 220.803 233.888 220.832 234.014C220.86 234.14 220.862 234.271 220.835 234.397C220.809 234.523 220.756 234.642 220.679 234.746C220.602 234.85 220.504 234.936 220.391 234.998C220.285 235.048 220.157 235.091 220.114 235.205C220.086 235.285 220.086 235.373 220.114 235.454C220.157 235.611 220.171 235.775 220.157 235.938C220.154 235.993 220.131 236.046 220.092 236.087C220.051 236.116 220.001 236.131 219.95 236.13C219.303 236.13 218.99 235.923 218.591 236.493C218.556 236.548 218.51 236.597 218.456 236.635C218.401 236.664 218.34 236.679 218.278 236.677C217.83 236.713 217.567 236.436 217.133 236.386C216.571 236.315 216.421 236.606 215.952 236.841C215.191 237.211 214.813 236.983 214.664 236.443Z" fill="#41A592"/>
<path d="M210.779 239.061C210.743 238.909 210.719 238.755 210.708 238.599C210.651 237.638 209.734 237.788 208.951 237.66C208.346 237.56 209.961 236.016 208.73 235.525C208.491 235.457 208.281 235.312 208.133 235.112C208.073 234.961 208.068 234.793 208.117 234.638C208.166 234.482 208.267 234.349 208.403 234.259C208.684 234.091 209.008 234.009 209.335 234.024C209.541 233.782 209.378 233.412 209.179 233.163C208.979 232.914 208.752 232.629 208.823 232.324C208.937 231.861 209.584 231.84 210.054 231.932C210.181 231.63 210.264 231.312 210.303 230.986C210.388 230.666 210.644 230.331 210.972 230.367C211.299 230.403 211.462 230.758 211.768 230.829C212.074 230.901 212.423 230.602 212.7 230.367C212.978 230.132 213.455 229.99 213.647 230.296C213.76 230.481 213.689 230.737 213.81 230.915C214.009 231.228 214.522 231.036 214.799 230.815C215.077 230.595 215.582 230.388 215.788 230.694C215.84 230.799 215.881 230.908 215.909 231.022C216.051 231.427 216.492 231.633 216.841 231.897C217.19 232.16 217.46 232.686 217.168 233.007C217.019 233.163 216.77 233.227 216.699 233.433C216.628 233.64 216.862 233.91 217.069 234.088C217.41 234.373 217.474 235.241 217.019 235.475C216.834 235.575 216.557 235.603 216.507 235.817C216.457 236.03 216.656 236.144 216.784 236.286C216.864 236.388 216.921 236.506 216.95 236.632C216.979 236.758 216.981 236.889 216.954 237.016C216.928 237.143 216.874 237.262 216.797 237.366C216.72 237.47 216.621 237.555 216.507 237.617C216.4 237.674 216.272 237.716 216.229 237.83C216.202 237.911 216.202 237.999 216.229 238.079C216.272 238.237 216.286 238.401 216.272 238.563C216.269 238.619 216.246 238.672 216.208 238.712C216.165 238.738 216.116 238.753 216.066 238.755C215.418 238.755 215.105 238.549 214.707 239.118C214.671 239.174 214.625 239.222 214.572 239.26C214.516 239.286 214.455 239.301 214.394 239.303C213.945 239.339 213.682 239.061 213.248 239.011C212.686 238.94 212.537 239.232 212.067 239.467C211.306 239.829 210.929 239.602 210.779 239.061Z" fill="#41A592"/>
<path d="M211.96 242.369C211.96 242.369 213.583 244.667 214.145 245.4C214.707 246.133 217.503 250.665 217.887 253.667C217.93 253.988 217.965 254.265 218.008 254.5C216.798 262.454 216.991 277.003 217.033 279.501H220.818C220.818 276.69 221.181 251.042 221.302 250.224C222.026 248.022 223.509 246.149 225.485 244.938C227.954 243.643 230.081 239.346 230.081 239.346H229.356C228.445 240.926 227.237 242.316 225.798 243.437C225.501 243.643 225.19 243.828 224.866 243.992C224.87 242.406 224.591 240.833 224.041 239.346L223.614 239.737C224.062 241.265 224.174 242.872 223.942 244.447C223.163 244.812 222.444 245.292 221.807 245.87C219.673 243.074 218.449 236.678 218.449 236.678L217.901 236.977C218.057 238.299 218.295 239.611 218.613 240.904C219.217 243 219.93 245.064 220.747 247.086C220.087 248.037 219.54 249.061 219.118 250.139C219.061 250.046 218.991 249.963 218.911 249.89C217.489 248.623 214.877 242.64 214.877 242.64C214.244 241.217 215.212 237.596 215.212 237.596H214.5L214.173 240.79L212.323 238.769L211.989 239.054L213.945 241.573L214.956 244.767L212.323 241.857L211.96 242.369Z" fill="#263238"/>
<path d="M215.838 279.5H228.402C228.475 279.208 228.435 278.899 228.29 278.635C228.145 278.372 227.905 278.172 227.62 278.077C227.008 277.956 226.396 276.882 226.368 276.199C226.339 275.516 225.236 273.403 223.522 274.705C221.807 276.007 222.334 274.897 221.096 274.534C219.858 274.171 219.075 275.246 219.616 276.007C219.27 275.921 218.905 275.959 218.585 276.115C218.265 276.272 218.011 276.535 217.866 276.861C217.707 277.148 217.624 277.471 217.624 277.8C217.624 278.128 217.707 278.451 217.866 278.739C217.866 278.739 216.265 278.718 215.838 279.5Z" fill="#41A592"/>
<path d="M27.8126 281.215C27.898 280.504 27.8624 279.494 26.9945 279.202C26.3891 279.057 25.8498 278.713 25.4629 278.226C25.0759 277.738 24.8637 277.135 24.8601 276.512C24.9028 275.317 23.4372 274.158 22.3984 275.275C21.3597 276.392 21.4664 274.421 20.0364 273.937C18.6063 273.453 17.3897 274.648 17.781 275.687C18.1723 276.726 16.7636 277.416 15.0704 276.512C13.3771 275.609 11.513 277.224 11.8759 278.54C12.2387 279.856 11.9399 279.963 10.8727 279.543C10.6009 279.472 10.317 279.46 10.0402 279.508C9.76333 279.556 9.50002 279.663 9.26803 279.822C9.03603 279.98 8.84074 280.186 8.69536 280.427C8.54998 280.667 8.45788 280.936 8.42529 281.215H27.8126Z" fill="#41A592"/>
<path d="M35.3186 238.157C35.37 237.967 35.401 237.771 35.4111 237.574C35.4822 236.364 36.6348 236.556 37.6095 236.393C38.3779 236.265 36.3502 234.329 37.8941 233.703C38.1828 233.615 38.4334 233.432 38.6055 233.184C38.6831 232.995 38.6921 232.785 38.6311 232.59C38.57 232.395 38.4427 232.228 38.2711 232.117C37.9171 231.906 37.5087 231.805 37.0972 231.825C36.8411 231.519 37.0474 231.057 37.2893 230.744C37.5312 230.431 37.8372 230.075 37.7447 229.691C37.6024 229.107 36.7913 229.086 36.2008 229.2C36.0386 228.818 35.9308 228.416 35.8806 228.005C35.781 227.606 35.4609 227.186 35.0482 227.236C34.6356 227.286 34.4292 227.72 34.0451 227.812C33.6609 227.905 33.2269 227.528 32.8783 227.236C32.5296 226.945 31.932 226.76 31.6901 227.144C31.5478 227.371 31.6332 227.692 31.4909 227.919C31.2277 228.318 30.6229 228.069 30.2458 227.791C29.8688 227.514 29.264 227.258 29.0008 227.649C28.9306 227.776 28.8802 227.912 28.8514 228.054C28.6735 228.567 28.1399 228.823 27.6846 229.157C27.2292 229.492 26.902 230.146 27.2719 230.544C27.4569 230.744 27.77 230.829 27.8624 231.078C27.9549 231.327 27.649 231.683 27.3929 231.896C26.966 232.259 26.8877 233.319 27.4569 233.646C27.6917 233.767 28.0403 233.81 28.0972 234.066C28.1541 234.322 27.9122 234.486 27.7557 234.664C27.6563 234.792 27.5857 234.94 27.5489 235.098C27.512 235.256 27.5097 235.42 27.5422 235.578C27.5746 235.737 27.641 235.887 27.7368 236.018C27.8326 236.149 27.9556 236.257 28.0972 236.336C28.2324 236.4 28.396 236.45 28.453 236.592C28.484 236.696 28.484 236.808 28.453 236.912C28.3982 237.109 28.3789 237.313 28.396 237.517C28.396 237.551 28.4028 237.586 28.4163 237.617C28.4297 237.649 28.4495 237.678 28.4743 237.702C28.525 237.741 28.5887 237.758 28.6522 237.752C29.4632 237.787 29.8617 237.503 30.3526 238.207C30.396 238.28 30.4542 238.343 30.5233 238.392C30.595 238.425 30.6722 238.444 30.751 238.449C31.313 238.492 31.6759 238.143 32.1739 238.079C32.8854 237.986 33.0348 238.356 33.6609 238.648C34.6569 239.111 35.1265 238.826 35.3186 238.157Z" fill="#41A592"/>
<path d="M25.9415 237.154C25.9874 236.963 26.016 236.767 26.0269 236.571C26.098 235.368 27.2506 235.56 28.2324 235.397C28.9937 235.269 26.966 233.334 28.5099 232.707C28.7984 232.619 29.0488 232.436 29.2213 232.188C29.2994 231.998 29.3087 231.787 29.2476 231.591C29.1866 231.395 29.059 231.226 28.887 231.114C28.5332 230.902 28.1246 230.801 27.713 230.822C27.464 230.516 27.6632 230.054 27.9122 229.741C28.1613 229.428 28.453 229.072 28.3605 228.688C28.2182 228.104 27.4071 228.083 26.8166 228.197C26.6534 227.819 26.5479 227.418 26.5035 227.009C26.3968 226.61 26.0767 226.19 25.664 226.24C25.2514 226.29 25.0451 226.724 24.668 226.809C24.2909 226.895 23.8427 226.525 23.4941 226.233C23.1454 225.941 22.5834 225.771 22.3201 226.126C22.1779 226.361 22.2632 226.681 22.1138 226.909C21.8577 227.3 21.2458 227.058 20.8688 226.781C20.4917 226.503 19.8869 226.247 19.6237 226.632C19.5584 226.76 19.5106 226.896 19.4814 227.037C19.2964 227.556 18.77 227.813 18.3075 228.14C17.8451 228.467 17.532 229.129 17.8949 229.563C18.0798 229.762 18.4 229.84 18.4854 230.096C18.5707 230.352 18.279 230.694 18.0229 230.915C17.596 231.277 17.5178 232.337 18.0798 232.658C18.3146 232.786 18.6632 232.821 18.7202 233.084C18.7771 233.348 18.5352 233.497 18.3786 233.682C18.2793 233.81 18.2088 233.957 18.172 234.114C18.1352 234.272 18.1329 234.435 18.1654 234.593C18.1979 234.752 18.2643 234.901 18.36 235.031C18.4558 235.161 18.5787 235.269 18.7202 235.347C18.8553 235.411 19.0261 235.468 19.0759 235.61C19.1067 235.712 19.1067 235.821 19.0759 235.923C19.0241 236.12 19.0072 236.325 19.0261 236.528C19.027 236.598 19.0521 236.666 19.0972 236.72C19.1513 236.751 19.2125 236.769 19.2751 236.77C20.0933 236.805 20.4846 236.514 20.9826 237.225C21.0221 237.299 21.0812 237.361 21.1534 237.403C21.221 237.44 21.2968 237.46 21.3739 237.46C21.936 237.51 22.2988 237.161 22.7968 237.09C23.5083 237.005 23.6577 237.367 24.2838 237.659C25.2727 238.093 25.7565 237.809 25.9415 237.154Z" fill="#41A592"/>
<path d="M25.0308 231.164C25.0823 230.976 25.1133 230.782 25.1233 230.588C25.1945 229.378 26.347 229.57 27.3289 229.407C28.0901 229.278 26.0624 227.343 27.6063 226.717C27.8948 226.628 28.1453 226.446 28.3178 226.198C28.3953 226.009 28.4044 225.799 28.3433 225.604C28.2822 225.409 28.1549 225.242 27.9834 225.131C27.6313 224.915 27.222 224.81 26.8095 224.832C26.5605 224.526 26.7597 224.063 27.0087 223.758C27.2577 223.452 27.5494 223.089 27.4569 222.697C27.3146 222.114 26.5036 222.1 25.913 222.207C25.7509 221.828 25.6431 221.428 25.5929 221.018C25.4933 220.62 25.1731 220.2 24.7605 220.25C24.3478 220.3 24.1415 220.734 23.7573 220.819C23.3731 220.905 22.9391 220.535 22.5905 220.243C22.2419 219.951 21.6443 219.773 21.4095 220.157C21.2672 220.385 21.3455 220.705 21.2032 220.933C20.947 221.324 20.3352 221.082 19.9581 220.805C19.581 220.527 18.9763 220.271 18.713 220.656C18.6486 220.785 18.5985 220.921 18.5636 221.061C18.3858 221.58 17.8522 221.837 17.3968 222.164C16.9415 222.491 16.6213 223.153 16.9842 223.587C17.1692 223.786 17.4893 223.864 17.5747 224.12C17.6601 224.376 17.3613 224.718 17.1051 224.939C16.6783 225.301 16.6071 226.361 17.1692 226.682C17.404 226.81 17.7526 226.845 17.8095 227.109C17.8664 227.372 17.6245 227.521 17.468 227.706C17.3687 227.834 17.2981 227.981 17.2613 228.138C17.2245 228.296 17.2223 228.459 17.2547 228.617C17.2872 228.776 17.3536 228.925 17.4494 229.055C17.5451 229.185 17.668 229.293 17.8095 229.371C17.9447 229.442 18.1154 229.492 18.1652 229.634C18.1965 229.736 18.1965 229.845 18.1652 229.947C18.1099 230.144 18.0929 230.349 18.1154 230.552C18.1125 230.587 18.1174 230.623 18.1296 230.656C18.1419 230.689 18.1614 230.719 18.1866 230.744C18.2379 230.782 18.3011 230.799 18.3644 230.794C19.1826 230.829 19.5739 230.545 20.0719 231.249C20.1089 231.323 20.1655 231.384 20.2356 231.427C20.306 231.463 20.384 231.483 20.4632 231.484C21.0253 231.534 21.3881 231.185 21.8862 231.121C22.5976 231.029 22.747 231.392 23.3731 231.69C24.3692 232.124 24.8458 231.84 25.0308 231.164Z" fill="#41A592"/>
<path d="M18.8553 234.144C18.9008 233.953 18.9293 233.758 18.9407 233.561C19.0119 232.352 20.1644 232.544 21.1463 232.38C21.9146 232.252 19.887 230.317 21.4308 229.691C21.7211 229.605 21.9727 229.422 22.1423 229.171C22.2213 228.983 22.2311 228.772 22.1699 228.577C22.1087 228.381 21.9805 228.214 21.8079 228.104C21.4542 227.893 21.0456 227.791 20.634 227.812C20.385 227.506 20.5913 227.044 20.8332 226.731C21.0751 226.418 21.3739 226.062 21.2814 225.678C21.1463 225.095 20.3281 225.073 19.7447 225.187C19.5963 224.804 19.5052 224.401 19.4743 223.992C19.3676 223.593 19.0474 223.174 18.6419 223.224C18.2364 223.273 18.0158 223.707 17.6387 223.8C17.2617 223.892 16.8134 223.515 16.4719 223.224C16.1304 222.932 15.5186 222.747 15.2838 223.131C15.1415 223.359 15.2269 223.679 15.0775 223.907C14.8214 224.305 14.2095 224.056 13.8324 223.778C13.4553 223.501 12.8577 223.245 12.5874 223.636C12.5197 223.763 12.4717 223.9 12.4451 224.042C12.2672 224.554 11.7336 224.81 11.2712 225.144C10.8087 225.479 10.4957 226.133 10.8656 226.532C11.0435 226.731 11.3636 226.816 11.449 227.065C11.5344 227.314 11.2427 227.67 10.9866 227.884C10.5597 228.246 10.4814 229.306 11.0435 229.634C11.2783 229.755 11.6269 229.797 11.6838 230.054C11.7407 230.31 11.4988 230.473 11.3423 230.651C11.242 230.779 11.1708 230.928 11.1338 231.086C11.0968 231.244 11.0948 231.409 11.128 231.568C11.1612 231.727 11.2288 231.877 11.326 232.008C11.4232 232.138 11.5478 232.246 11.6909 232.323C11.8261 232.387 11.9897 232.437 12.0395 232.579C12.0742 232.683 12.0742 232.795 12.0395 232.899C11.9875 233.094 11.9706 233.296 11.9897 233.497C11.9894 233.568 12.0147 233.636 12.0609 233.689C12.1122 233.727 12.1754 233.744 12.2387 233.739C13.0569 233.774 13.4482 233.49 13.9463 234.194C13.9897 234.267 14.0479 234.33 14.117 234.379C14.1859 234.413 14.2609 234.432 14.3376 234.436C14.8996 234.479 15.2696 234.13 15.7605 234.066C16.4719 233.974 16.6214 234.344 17.2474 234.635C18.1937 235.098 18.6704 234.813 18.8553 234.144Z" fill="#41A592"/>
<path d="M12.6087 232.764C12.6542 232.575 12.6827 232.382 12.6941 232.188C12.7652 230.979 13.9178 231.171 14.8996 231.007C15.668 230.879 13.6403 228.944 15.1842 228.318C15.4732 228.23 15.7239 228.047 15.8957 227.798C15.9747 227.61 15.9844 227.399 15.9232 227.204C15.8621 227.009 15.7339 226.841 15.5613 226.731C15.2096 226.514 14.8 226.41 14.3874 226.432C14.1383 226.126 14.3447 225.671 14.5866 225.358C14.8285 225.045 15.1273 224.689 15.0348 224.298C14.8996 223.722 14.0814 223.7 13.498 223.814C13.3338 223.433 13.226 223.031 13.1779 222.619C13.0711 222.221 12.751 221.801 12.3455 221.851C11.9399 221.9 11.7194 222.334 11.3423 222.42C10.9652 222.505 10.517 222.135 10.1755 221.843C9.83399 221.552 9.22214 221.374 8.98736 221.758C8.84506 221.986 8.93044 222.306 8.78103 222.534C8.5249 222.925 7.91305 222.683 7.53597 222.406C7.1589 222.128 6.56127 221.872 6.29091 222.263C6.22455 222.389 6.17663 222.523 6.14862 222.662C5.97075 223.181 5.43716 223.437 4.97471 223.764C4.51225 224.092 4.19921 224.753 4.56917 225.187C4.74704 225.387 5.0672 225.465 5.15257 225.721C5.23795 225.977 4.94625 226.326 4.69012 226.539C4.26324 226.902 4.18498 227.962 4.74704 228.289C4.98182 228.41 5.33044 228.446 5.38735 228.709C5.44427 228.972 5.20237 229.129 5.04585 229.307C4.9456 229.434 4.87449 229.582 4.83751 229.74C4.80054 229.898 4.7986 230.062 4.83183 230.22C4.86506 230.379 4.93265 230.529 5.02986 230.658C5.12706 230.788 5.25152 230.895 5.39447 230.972C5.52965 231.043 5.69328 231.092 5.74309 231.235C5.76649 231.34 5.75397 231.45 5.70751 231.548C5.65568 231.745 5.63883 231.95 5.65771 232.153C5.65742 232.223 5.6827 232.291 5.72886 232.345C5.78018 232.382 5.84336 232.4 5.90672 232.394C6.7249 232.43 7.11621 232.145 7.61423 232.85C7.65771 232.923 7.71586 232.986 7.78498 233.035C7.85314 233.07 7.929 233.087 8.00553 233.085C8.56759 233.134 8.93755 232.786 9.42846 232.722C10.1399 232.629 10.2893 232.992 10.9154 233.291C11.947 233.725 12.4237 233.44 12.6087 232.764Z" fill="#41A592"/>
<path d="M12.5233 239.452C12.5636 239.301 12.5874 239.146 12.5945 238.99C12.6514 238.044 13.5549 238.193 14.3304 238.065C14.9352 237.965 13.3344 236.436 14.551 235.931C14.7877 235.865 14.9957 235.723 15.1415 235.525C15.1992 235.374 15.2039 235.208 15.1548 235.054C15.1056 234.901 15.0056 234.768 14.8711 234.679C14.5943 234.514 14.275 234.435 13.9533 234.451C13.7541 234.209 13.9107 233.846 14.1028 233.597C14.2948 233.348 14.5296 233.071 14.4585 232.772C14.3518 232.309 13.747 232.295 13.249 232.381C13.1198 232.084 13.0335 231.77 12.9929 231.448C12.9146 231.128 12.6656 230.801 12.3383 230.837C12.0111 230.872 11.8474 231.221 11.5486 231.292C11.2498 231.363 10.9012 231.064 10.6308 230.837C10.3605 230.609 9.91936 230.46 9.6988 230.765C9.58497 230.943 9.649 231.199 9.53517 231.377C9.33596 231.69 8.8237 231.498 8.55335 231.278C8.28299 231.057 7.78497 230.858 7.57864 231.164C7.52675 231.263 7.48619 231.368 7.4577 231.477C7.32252 231.882 6.88141 232.089 6.53991 232.352C6.19841 232.615 5.92805 233.128 6.21975 233.448C6.36204 233.604 6.61105 233.668 6.6822 233.867C6.75335 234.067 6.51145 234.337 6.31224 234.508C5.97785 234.792 5.91382 235.653 6.36204 235.881C6.54702 235.98 6.81738 236.016 6.86718 236.215C6.91698 236.414 6.71778 236.543 6.59683 236.685C6.51817 236.786 6.46232 236.902 6.43316 237.027C6.40399 237.151 6.4022 237.28 6.42792 237.405C6.45363 237.531 6.50622 237.649 6.58207 237.752C6.65791 237.854 6.75519 237.94 6.86718 238.001C6.9739 238.051 7.10196 238.094 7.14465 238.207C7.16857 238.289 7.16857 238.375 7.14465 238.456C7.10173 238.611 7.08726 238.773 7.10197 238.933C7.10587 238.987 7.12566 239.039 7.15888 239.082C7.2053 239.096 7.25475 239.096 7.30117 239.082C7.94149 239.082 8.25453 238.883 8.64584 239.445C8.6813 239.501 8.72721 239.549 8.78102 239.588C8.83468 239.613 8.89264 239.627 8.95177 239.63C9.39287 239.666 9.66323 239.388 10.0901 239.339C10.645 239.267 10.8016 239.559 11.2569 239.787C12.0039 240.199 12.3597 240 12.5233 239.452Z" fill="#41A592"/>
<path d="M9.02292 237.154C9.07491 236.964 9.10593 236.768 9.11541 236.571C9.18656 235.368 10.3391 235.561 11.3209 235.397C12.0822 235.269 10.0545 233.334 11.5984 232.708C11.8859 232.617 12.1358 232.434 12.3099 232.188C12.3879 231.998 12.3972 231.787 12.3362 231.591C12.2751 231.395 12.1476 231.226 11.9755 231.114C11.6215 230.903 11.2131 230.802 10.8016 230.822C10.5454 230.516 10.7518 230.054 11.0008 229.741C11.2498 229.428 11.5415 229.072 11.449 228.688C11.3067 228.104 10.4957 228.083 9.90514 228.197C9.74298 227.818 9.63519 227.418 9.58498 227.009C9.48537 226.61 9.16521 226.191 8.75257 226.24C8.33992 226.29 8.13359 226.724 7.7494 226.81C7.36521 226.895 6.93122 226.525 6.58261 226.233C6.23399 225.942 5.63636 225.757 5.39446 226.141C5.25217 226.376 5.33755 226.696 5.19525 226.923C4.93913 227.315 4.32727 227.073 3.95019 226.795C3.57312 226.518 2.96838 226.262 2.70513 226.646C2.63762 226.774 2.58738 226.91 2.55573 227.051C2.37786 227.571 1.84427 227.827 1.38893 228.154C0.933594 228.482 0.60632 229.143 0.97628 229.577C1.16126 229.776 1.47431 229.855 1.5668 230.111C1.65929 230.367 1.35335 230.708 1.09723 230.929C0.67035 231.292 0.59209 232.352 1.16126 232.672C1.39604 232.8 1.74466 232.836 1.80158 233.099C1.85849 233.362 1.6166 233.512 1.46008 233.697C1.36075 233.824 1.29024 233.971 1.25342 234.129C1.21661 234.286 1.21435 234.449 1.24682 234.608C1.27928 234.766 1.3457 234.915 1.44147 235.045C1.53725 235.176 1.66011 235.283 1.80158 235.361C1.93675 235.425 2.10751 235.482 2.15731 235.625C2.17679 235.73 2.1644 235.839 2.12174 235.938C2.06766 236.134 2.0484 236.339 2.06482 236.542C2.06509 236.614 2.09314 236.683 2.14308 236.734C2.1972 236.766 2.2584 236.783 2.32094 236.784C3.13201 236.82 3.53043 236.528 4.02846 237.24C4.06733 237.312 4.12358 237.373 4.19209 237.417C4.26255 237.454 4.34049 237.473 4.41976 237.474C4.98181 237.524 5.34466 237.176 5.84268 237.104C6.55415 237.019 6.70355 237.382 7.32964 237.674C8.36126 238.093 8.83794 237.809 9.02292 237.154Z" fill="#41A592"/>
<path d="M18.8553 226.795C18.9008 226.604 18.9293 226.408 18.9407 226.212C19.0119 225.002 20.1644 225.194 21.1462 225.031C21.9146 224.903 19.887 222.967 21.4308 222.341C21.7211 222.256 21.9727 222.073 22.1423 221.822C22.2213 221.633 22.2311 221.423 22.1699 221.227C22.1087 221.032 21.9805 220.865 21.8079 220.755C21.4542 220.543 21.0456 220.442 20.634 220.463C20.385 220.15 20.5913 219.695 20.8332 219.382C21.0751 219.069 21.3739 218.713 21.2814 218.329C21.1463 217.745 20.3281 217.724 19.7447 217.838C19.5805 217.457 19.4726 217.054 19.4245 216.643C19.3178 216.244 18.9976 215.824 18.5921 215.874C18.1866 215.924 17.966 216.358 17.5889 216.45C17.2119 216.543 16.7636 216.166 16.4221 215.867C16.0806 215.568 15.4688 215.398 15.234 215.782C15.0917 216.009 15.1771 216.33 15.0277 216.557C14.7715 216.948 14.1597 216.707 13.7826 216.429C13.4055 216.152 12.8079 215.896 12.5376 216.287C12.4712 216.412 12.4233 216.546 12.3953 216.685C12.2174 217.205 11.6838 217.461 11.2213 217.795C10.7589 218.13 10.4459 218.777 10.8158 219.182C10.9937 219.382 11.3138 219.467 11.3992 219.716C11.4846 219.965 11.1929 220.321 10.9368 220.534C10.5099 220.897 10.4316 221.957 10.9937 222.284C11.2285 222.405 11.5771 222.448 11.634 222.704C11.6909 222.96 11.449 223.124 11.2925 223.302C11.1922 223.43 11.121 223.578 11.084 223.737C11.047 223.895 11.045 224.06 11.0782 224.219C11.1114 224.378 11.179 224.528 11.2762 224.659C11.3734 224.789 11.498 224.897 11.6411 224.974C11.7763 225.038 11.9399 225.088 11.9897 225.23C12.0244 225.331 12.0244 225.441 11.9897 225.543C11.9379 225.74 11.921 225.945 11.9399 226.148C11.9396 226.218 11.9649 226.286 12.0111 226.34C12.0624 226.377 12.1256 226.395 12.1889 226.39C13.0071 226.425 13.3984 226.141 13.8965 226.845C13.9399 226.918 13.9981 226.981 14.0672 227.03C14.1361 227.064 14.2111 227.083 14.2878 227.087C14.8498 227.13 15.2198 226.781 15.7107 226.717C16.4221 226.624 16.5715 226.994 17.1976 227.286C18.1937 227.748 18.6704 227.464 18.8553 226.795Z" fill="#41A592"/>
<path d="M26.8806 227.194C26.9266 227.002 26.9551 226.807 26.966 226.61C27.0371 225.408 28.1897 225.6 29.1715 225.436C29.9328 225.308 27.9051 223.373 29.449 222.747C29.7382 222.66 29.9892 222.477 30.1605 222.228C30.238 222.039 30.2471 221.829 30.186 221.634C30.1249 221.439 29.9976 221.271 29.8261 221.161C29.4744 220.944 29.0648 220.839 28.6522 220.862C28.4031 220.556 28.6095 220.093 28.8514 219.78C29.0933 219.467 29.3921 219.112 29.2996 218.727C29.1573 218.144 28.3462 218.13 27.7557 218.236C27.5926 217.858 27.487 217.458 27.4427 217.048C27.3359 216.65 27.0158 216.23 26.6031 216.28C26.1905 216.33 25.9842 216.764 25.6071 216.849C25.23 216.934 24.7818 216.564 24.4403 216.273C24.0988 215.981 23.4869 215.796 23.2522 216.187C23.1099 216.415 23.1952 216.735 23.0458 216.963C22.7897 217.354 22.1778 217.112 21.8008 216.835C21.4237 216.557 20.8261 216.301 20.5557 216.685C20.4904 216.814 20.4426 216.95 20.4134 217.091C20.2284 217.61 19.702 217.866 19.2395 218.194C18.7771 218.521 18.464 219.183 18.8269 219.617C19.0118 219.816 19.332 219.894 19.4174 220.15C19.5027 220.406 19.211 220.748 18.9549 220.968C18.528 221.331 18.4498 222.391 19.0118 222.712C19.2466 222.84 19.5952 222.875 19.6522 223.138C19.7091 223.402 19.4672 223.551 19.3107 223.736C19.2113 223.863 19.1408 224.011 19.104 224.168C19.0672 224.326 19.0649 224.489 19.0974 224.647C19.1299 224.805 19.1963 224.955 19.2921 225.085C19.3878 225.215 19.5107 225.323 19.6522 225.401C19.7873 225.465 19.9581 225.522 20.0079 225.664C20.0392 225.766 20.0392 225.875 20.0079 225.977C19.9561 226.174 19.9392 226.379 19.9581 226.582C19.953 226.615 19.956 226.65 19.9669 226.682C19.9777 226.714 19.9961 226.743 20.0204 226.767C20.0448 226.79 20.0744 226.808 20.1069 226.818C20.1393 226.828 20.1737 226.83 20.2071 226.824C21.0253 226.859 21.4166 226.568 21.9146 227.279C21.9562 227.351 22.0148 227.412 22.0854 227.457C22.153 227.494 22.2288 227.514 22.3059 227.514C22.868 227.564 23.2308 227.215 23.7288 227.144C24.4403 227.059 24.5897 227.421 25.2158 227.72C26.219 228.161 26.6956 227.905 26.8806 227.194Z" fill="#41A592"/>
<path d="M31.7541 230.488C31.7996 230.296 31.8281 230.101 31.8395 229.904C31.9107 228.695 33.0632 228.887 34.0451 228.723C34.8134 228.595 32.7787 226.66 34.3296 226.041C34.6174 225.951 34.8674 225.768 35.0411 225.522C35.1206 225.332 35.1306 225.12 35.0695 224.924C35.0083 224.727 34.8799 224.559 34.7067 224.447C34.353 224.236 33.9444 224.134 33.5328 224.156C33.2838 223.85 33.4901 223.387 33.732 223.074C33.9739 222.761 34.2727 222.406 34.1802 222.021C34.0451 221.438 33.2269 221.417 32.6435 221.53C32.4781 221.153 32.3702 220.752 32.3233 220.342C32.2166 219.937 31.8964 219.517 31.4909 219.567C31.0854 219.617 30.8648 220.051 30.4877 220.143C30.1107 220.236 29.6624 219.858 29.3209 219.567C28.9794 219.275 28.3676 219.09 28.1328 219.474C27.9905 219.702 28.0759 220.029 27.9265 220.25C27.6704 220.648 27.0585 220.399 26.6814 220.122C26.3043 219.844 25.7067 219.595 25.4364 219.979C25.3711 220.108 25.3232 220.244 25.2941 220.385C25.1162 220.897 24.5826 221.153 24.1202 221.488C23.6577 221.822 23.3447 222.477 23.7146 222.875C23.8925 223.074 24.2126 223.16 24.298 223.409C24.3834 223.658 24.0917 224.013 23.8356 224.234C23.4087 224.597 23.3304 225.657 23.8925 225.977C24.1273 226.098 24.4759 226.141 24.5328 226.404C24.5897 226.667 24.3478 226.817 24.1913 226.994C24.0919 227.122 24.0213 227.27 23.9845 227.428C23.9476 227.586 23.9453 227.75 23.9777 227.909C24.0102 228.068 24.0766 228.218 24.1724 228.348C24.2682 228.479 24.3911 228.588 24.5328 228.666C24.6751 228.73 24.8387 228.787 24.8885 228.922C24.9119 229.03 24.8994 229.143 24.853 229.243C24.8005 229.44 24.7837 229.644 24.8032 229.847C24.8039 229.916 24.8292 229.981 24.8743 230.032C24.9256 230.07 24.9888 230.088 25.0522 230.082C25.8703 230.125 26.2617 229.833 26.7597 230.545C26.8058 230.613 26.8636 230.674 26.9304 230.722C26.9993 230.756 27.0744 230.776 27.151 230.779C27.713 230.822 28.083 230.473 28.5739 230.409C29.2854 230.317 29.4348 230.687 30.0609 230.979C31.0925 231.462 31.5692 231.156 31.7541 230.488Z" fill="#41A592"/>
<path d="M30.2743 234.636C30.2743 234.636 28.2324 237.517 27.5352 238.435C26.8379 239.353 23.3162 245.037 22.8395 248.808L22.6901 249.854C24.1984 259.814 23.9636 278.092 23.9067 281.215H19.1186C19.0759 277.693 18.6704 245.478 18.521 244.489C18.3715 243.5 16.3866 239.509 13.2632 237.858C10.1399 236.208 7.5004 230.843 7.5004 230.843H8.48222C9.61437 232.824 11.1196 234.566 12.9146 235.973C13.2873 236.236 13.6771 236.474 14.0814 236.685C14.0756 234.698 14.4274 232.727 15.1202 230.865L15.6466 231.356C15.0879 233.274 14.9496 235.291 15.2411 237.268C16.224 237.725 17.131 238.329 17.9304 239.061C20.6269 235.553 22.1494 227.535 22.1494 227.535L22.8609 227.912C22.6621 229.568 22.3627 231.209 21.9644 232.828C21.1932 235.452 20.2909 238.036 19.2609 240.569C20.0894 241.759 20.7726 243.044 21.2957 244.397C21.3716 244.283 21.4599 244.178 21.5589 244.084C23.3162 242.497 26.5889 235.02 26.5889 235.02C27.3929 233.27 26.1692 228.688 26.1692 228.688H27.0941L27.5067 232.7L29.8261 230.168L30.2459 230.516L27.7842 233.682L26.5178 237.688L29.8261 234.031L30.2743 234.636Z" fill="#263238"/>
<path d="M17.6316 281.215H33.3905C33.475 280.854 33.4211 280.473 33.2394 280.149C33.0577 279.826 32.7614 279.581 32.4087 279.465C31.6474 279.308 30.8719 277.964 30.8364 277.103C30.8008 276.242 29.4134 273.603 27.2791 275.232C25.1447 276.861 25.785 275.474 24.2269 275.011C22.6688 274.549 21.6941 275.872 22.3771 276.861C21.9427 276.754 21.4847 276.803 21.0821 276.997C20.6794 277.192 20.3574 277.521 20.1715 277.928C19.9735 278.29 19.8697 278.697 19.8697 279.109C19.8697 279.522 19.9735 279.928 20.1715 280.29C20.1715 280.29 18.1937 280.233 17.6316 281.215Z" fill="#41A592"/>
<path d="M110.947 133.345C110.877 133.345 110.809 133.317 110.758 133.268C110.708 133.219 110.679 133.152 110.677 133.081V128.421L105.832 133.281C105.782 133.331 105.714 133.359 105.643 133.359C105.572 133.359 105.505 133.331 105.455 133.281C105.405 133.231 105.376 133.163 105.376 133.092C105.376 133.021 105.405 132.953 105.455 132.903L110.755 127.589C110.793 127.553 110.841 127.529 110.892 127.52C110.944 127.511 110.997 127.517 111.045 127.537C111.093 127.557 111.135 127.591 111.164 127.634C111.193 127.678 111.209 127.729 111.21 127.781V133.081C111.208 133.151 111.18 133.217 111.131 133.266C111.082 133.314 111.016 133.343 110.947 133.345Z" fill="#263238"/>
<path d="M117.087 133.345C117.018 133.343 116.952 133.314 116.903 133.265C116.854 133.216 116.826 133.151 116.824 133.081V128.421L111.964 133.28C111.914 133.33 111.847 133.359 111.776 133.359C111.705 133.359 111.637 133.33 111.587 133.28C111.537 133.23 111.509 133.163 111.509 133.092C111.509 133.021 111.537 132.953 111.587 132.903L116.888 127.603C116.926 127.567 116.974 127.543 117.025 127.534C117.077 127.525 117.13 127.531 117.178 127.551C117.226 127.571 117.267 127.605 117.297 127.649C117.326 127.692 117.342 127.743 117.343 127.795V133.096C117.338 133.161 117.309 133.223 117.262 133.268C117.215 133.314 117.153 133.341 117.087 133.345Z" fill="#263238"/>
<path d="M123.234 133.345C123.164 133.345 123.097 133.317 123.048 133.268C122.998 133.218 122.971 133.152 122.971 133.082V128.422L118.126 133.281C118.076 133.331 118.008 133.359 117.937 133.359C117.866 133.359 117.799 133.331 117.749 133.281C117.699 133.231 117.671 133.163 117.671 133.092C117.671 133.022 117.699 132.954 117.749 132.904L123.049 127.603C123.085 127.565 123.131 127.539 123.182 127.529C123.233 127.519 123.286 127.525 123.334 127.547C123.384 127.566 123.427 127.601 123.457 127.645C123.487 127.689 123.504 127.742 123.504 127.796V133.096C123.499 133.164 123.468 133.227 123.418 133.273C123.368 133.32 123.302 133.345 123.234 133.345Z" fill="#263238"/>
<path d="M127.247 133.345C127.176 133.345 127.108 133.317 127.058 133.268C127.007 133.219 126.978 133.152 126.976 133.081V128.421L122.131 133.28C122.081 133.33 122.013 133.359 121.943 133.359C121.872 133.359 121.804 133.33 121.754 133.28C121.704 133.23 121.676 133.163 121.676 133.092C121.676 133.021 121.704 132.953 121.754 132.903L127.055 127.603C127.093 127.567 127.14 127.543 127.192 127.534C127.243 127.525 127.296 127.531 127.345 127.551C127.393 127.571 127.434 127.605 127.463 127.649C127.493 127.692 127.509 127.743 127.51 127.795V133.096C127.505 133.162 127.475 133.225 127.426 133.271C127.378 133.317 127.314 133.343 127.247 133.345Z" fill="#263238"/>
<path d="M135.528 133.345C135.458 133.345 135.39 133.317 135.339 133.268C135.289 133.219 135.26 133.152 135.258 133.081V128.421L130.413 133.28C130.363 133.33 130.295 133.359 130.224 133.359C130.153 133.359 130.086 133.33 130.036 133.28C129.986 133.23 129.958 133.163 129.958 133.092C129.958 133.021 129.986 132.953 130.036 132.903L135.336 127.603C135.374 127.567 135.422 127.543 135.473 127.534C135.525 127.525 135.578 127.531 135.626 127.551C135.674 127.571 135.716 127.605 135.745 127.649C135.774 127.692 135.79 127.743 135.791 127.795V133.096C135.786 133.162 135.756 133.225 135.708 133.271C135.659 133.317 135.595 133.343 135.528 133.345Z" fill="#263238"/>
<path d="M141.668 133.345C141.599 133.343 141.533 133.314 141.484 133.265C141.435 133.216 141.407 133.151 141.405 133.081V128.421L136.56 133.28C136.51 133.33 136.442 133.359 136.371 133.359C136.3 133.359 136.233 133.33 136.183 133.28C136.133 133.23 136.105 133.163 136.105 133.092C136.105 133.021 136.133 132.953 136.183 132.903L141.483 127.603C141.521 127.567 141.569 127.543 141.62 127.534C141.672 127.525 141.725 127.531 141.773 127.551C141.821 127.571 141.863 127.605 141.892 127.649C141.921 127.692 141.937 127.743 141.938 127.795V133.096C141.933 133.163 141.902 133.227 141.852 133.273C141.802 133.319 141.736 133.345 141.668 133.345Z" fill="#263238"/>
<path d="M151.372 133.345C151.303 133.343 151.237 133.314 151.188 133.265C151.139 133.216 151.111 133.151 151.109 133.081V128.421L146.264 133.28C146.214 133.33 146.146 133.359 146.076 133.359C146.005 133.359 145.937 133.33 145.887 133.28C145.837 133.23 145.809 133.163 145.809 133.092C145.809 133.021 145.837 132.953 145.887 132.903L151.187 127.603C151.226 127.567 151.273 127.543 151.325 127.534C151.376 127.525 151.429 127.531 151.477 127.551C151.526 127.571 151.567 127.605 151.596 127.649C151.626 127.692 151.642 127.743 151.643 127.795V133.096C151.637 133.163 151.606 133.227 151.556 133.273C151.506 133.319 151.441 133.345 151.372 133.345Z" fill="#263238"/>
<path d="M157.498 133.345C157.428 133.345 157.361 133.317 157.312 133.268C157.263 133.218 157.235 133.152 157.235 133.082V128.422L152.411 133.281C152.361 133.331 152.293 133.359 152.223 133.359C152.152 133.359 152.084 133.331 152.034 133.281C151.984 133.231 151.956 133.163 151.956 133.092C151.956 133.022 151.984 132.954 152.034 132.904L157.334 127.603C157.37 127.565 157.416 127.539 157.468 127.529C157.519 127.519 157.572 127.525 157.619 127.547C157.669 127.566 157.712 127.601 157.742 127.645C157.773 127.689 157.789 127.742 157.79 127.796V133.096C157.787 133.131 157.777 133.166 157.761 133.198C157.745 133.23 157.723 133.258 157.696 133.281C157.669 133.304 157.637 133.322 157.603 133.333C157.569 133.344 157.534 133.348 157.498 133.345Z" fill="#263238"/>
<path d="M162.243 133.345C162.173 133.345 162.105 133.317 162.055 133.268C162.004 133.219 161.975 133.152 161.973 133.081V128.421L157.128 133.281C157.104 133.306 157.074 133.326 157.042 133.339C157.009 133.353 156.975 133.36 156.94 133.36C156.904 133.36 156.87 133.353 156.837 133.339C156.805 133.326 156.776 133.306 156.751 133.281C156.703 133.229 156.677 133.162 156.677 133.092C156.677 133.022 156.703 132.955 156.751 132.903L162.051 127.589C162.09 127.553 162.137 127.529 162.189 127.52C162.24 127.511 162.293 127.517 162.342 127.537C162.39 127.557 162.431 127.591 162.46 127.634C162.49 127.678 162.506 127.729 162.507 127.781V133.081C162.505 133.151 162.477 133.217 162.428 133.266C162.379 133.314 162.313 133.343 162.243 133.345Z" fill="#263238"/>
<path d="M170.525 133.345C170.454 133.345 170.387 133.317 170.336 133.268C170.286 133.219 170.256 133.152 170.255 133.081V128.421L165.41 133.281C165.36 133.331 165.292 133.359 165.221 133.359C165.15 133.359 165.082 133.331 165.032 133.281C164.982 133.231 164.954 133.163 164.954 133.092C164.954 133.021 164.982 132.953 165.032 132.903L170.304 127.589C170.343 127.553 170.39 127.529 170.442 127.52C170.493 127.511 170.546 127.517 170.595 127.537C170.643 127.557 170.684 127.591 170.713 127.634C170.743 127.678 170.759 127.729 170.76 127.781V133.081C170.759 133.146 170.734 133.208 170.691 133.257C170.648 133.305 170.589 133.336 170.525 133.345Z" fill="#263238"/>
<path d="M173.819 133.345C173.749 133.345 173.682 133.317 173.633 133.268C173.583 133.218 173.556 133.152 173.556 133.082V128.422L168.711 133.281C168.661 133.331 168.593 133.359 168.522 133.359C168.451 133.359 168.384 133.331 168.334 133.281C168.284 133.231 168.255 133.163 168.255 133.092C168.255 133.022 168.284 132.954 168.334 132.904L173.634 127.603C173.67 127.565 173.716 127.539 173.767 127.529C173.818 127.519 173.871 127.525 173.919 127.547C173.969 127.566 174.013 127.6 174.043 127.644C174.074 127.689 174.09 127.742 174.089 127.796V133.096C174.084 133.164 174.053 133.227 174.003 133.273C173.953 133.32 173.887 133.345 173.819 133.345Z" fill="#263238"/>
<path d="M178.842 133.345C178.771 133.345 178.704 133.317 178.653 133.268C178.603 133.219 178.573 133.152 178.572 133.081V128.421L173.691 133.28C173.641 133.33 173.573 133.359 173.502 133.359C173.432 133.359 173.364 133.33 173.314 133.28C173.264 133.23 173.236 133.163 173.236 133.092C173.236 133.021 173.264 132.953 173.314 132.903L178.614 127.603C178.652 127.567 178.7 127.543 178.752 127.534C178.803 127.525 178.856 127.531 178.904 127.551C178.953 127.571 178.994 127.605 179.023 127.649C179.052 127.692 179.069 127.743 179.07 127.795V133.096C179.066 133.157 179.041 133.215 178.999 133.26C178.958 133.305 178.902 133.335 178.842 133.345Z" fill="#263238"/>
<path d="M211.79 124.857H194.508V134.881H211.79V124.857Z" fill="#263238"/>
<path opacity="0.4" d="M211.79 124.857H194.508V134.881H211.79V124.857Z" fill="white"/>
<path opacity="0.4" d="M211.79 124.857H202.285V134.881H211.79V124.857Z" fill="white"/>
<path d="M193.413 124.857H176.131V134.881H193.413V124.857Z" fill="#263238"/>
<path opacity="0.4" d="M193.413 124.857H176.131V134.881H193.413V124.857Z" fill="white"/>
<path opacity="0.4" d="M193.406 124.857H183.9V134.881H193.406V124.857Z" fill="white"/>
<path d="M103.576 124.857H30.5874V134.881H103.576V124.857Z" fill="#263238"/>
<path opacity="0.4" d="M103.576 124.857H30.5874V134.881H103.576V124.857Z" fill="white"/>
<path opacity="0.4" d="M103.583 124.857H63.4285V134.881H103.583V124.857Z" fill="white"/>
<path d="M215.973 256.712H25.7067V288.614H215.973V256.712Z" fill="#263238"/>
<path opacity="0.3" d="M215.973 256.712H25.7067V288.614H215.973V256.712Z" fill="white"/>
<path opacity="0.3" d="M215.973 256.712H65.3921V288.614H215.973V256.712Z" fill="white"/>
<path opacity="0.2" d="M165.986 261.443H118.723V288.614H165.986V261.443Z" fill="black"/>
<path d="M114.127 264.595H105.497V286.579H114.127V264.595Z" fill="#41A592"/>
<path d="M102.744 264.595H94.1138V286.579H102.744V264.595Z" fill="#41A592"/>
<path d="M91.3605 264.595H82.7304V286.579H91.3605V264.595Z" fill="#41A592"/>
<path d="M79.9771 264.595H71.347V286.579H79.9771V264.595Z" fill="#41A592"/>
<path d="M212.366 264.595H203.736V286.579H212.366V264.595Z" fill="#41A592"/>
<path d="M200.983 264.595H192.353V286.579H200.983V264.595Z" fill="#41A592"/>
<path d="M189.599 264.595H180.969V286.579H189.599V264.595Z" fill="#41A592"/>
<path d="M178.216 264.595H169.586V286.579H178.216V264.595Z" fill="#41A592"/>
<path d="M62.8735 264.595H55.9225V286.579H62.8735V264.595Z" fill="#41A592"/>
<path d="M53.7028 264.595H46.7518V286.579H53.7028V264.595Z" fill="#41A592"/>
<path d="M44.5392 264.595H37.5882V286.579H44.5392V264.595Z" fill="#41A592"/>
<path d="M35.3755 264.595H28.4245V286.579H35.3755V264.595Z" fill="#41A592"/>
<g opacity="0.5">
<path d="M114.127 264.595H105.497V286.579H114.127V264.595Z" fill="white"/>
<path d="M102.744 264.595H94.1138V286.579H102.744V264.595Z" fill="white"/>
<path d="M91.3605 264.595H82.7304V286.579H91.3605V264.595Z" fill="white"/>
<path d="M79.9771 264.595H71.347V286.579H79.9771V264.595Z" fill="white"/>
</g>
<g opacity="0.5">
<path d="M212.366 264.595H203.736V286.579H212.366V264.595Z" fill="white"/>
<path d="M200.983 264.595H192.353V286.579H200.983V264.595Z" fill="white"/>
<path d="M189.599 264.595H180.969V286.579H189.599V264.595Z" fill="white"/>
<path d="M178.216 264.595H169.586V286.579H178.216V264.595Z" fill="white"/>
</g>
<g opacity="0.5">
<path d="M62.8735 264.595H55.9225V286.579H62.8735V264.595Z" fill="white"/>
<path d="M53.7028 264.595H46.7518V286.579H53.7028V264.595Z" fill="white"/>
<path d="M44.5392 264.595H37.5882V286.579H44.5392V264.595Z" fill="white"/>
<path d="M35.3755 264.595H28.4245V286.579H35.3755V264.595Z" fill="white"/>
</g>
<g opacity="0.5">
<path d="M163.247 264.595H154.659V286.579H163.247V264.595Z" fill="white"/>
<path d="M151.92 264.595H143.333V286.579H151.92V264.595Z" fill="white"/>
<path d="M140.594 264.595H118.723V286.579H140.594V264.595Z" fill="white"/>
</g>
<path opacity="0.1" d="M165.979 261.443L149.501 288.614H118.723V261.443H165.979Z" fill="black"/>
<path d="M64.1755 134.889H23.4229V255.844H64.1755V134.889Z" fill="#41A592"/>
<path opacity="0.4" d="M64.1755 134.889H23.4229V255.844H64.1755V134.889Z" fill="white"/>
<path opacity="0.1" d="M28.8799 134.889H28.1684V255.844H28.8799V134.889Z" fill="black"/>
<path opacity="0.1" d="M34.785 134.889H34.0735V255.844H34.785V134.889Z" fill="black"/>
<path opacity="0.1" d="M40.6901 134.889H39.9787V255.844H40.6901V134.889Z" fill="black"/>
<path opacity="0.1" d="M46.5953 134.889H45.8838V255.844H46.5953V134.889Z" fill="black"/>
<path opacity="0.1" d="M52.4933 134.889H51.7818V255.844H52.4933V134.889Z" fill="black"/>
<path opacity="0.1" d="M58.3984 134.889H57.687V255.844H58.3984V134.889Z" fill="black"/>
<g opacity="0.1">
<path d="M42.2127 134.881L23.4229 165.183V150.512L33.1131 134.881H42.2127Z" fill="white"/>
<path d="M52.9842 134.881L23.4229 182.549V178.273L50.3305 134.881H52.9842Z" fill="white"/>
</g>
<g opacity="0.1">
<path d="M64.1755 170.419V185.089L23.4229 250.814V236.144L64.1755 170.419Z" fill="white"/>
<path d="M64.1755 198.188V202.47L31.0854 255.837H28.4245L64.1755 198.188Z" fill="white"/>
</g>
<path d="M218.968 130.157H61.7921V261.45H218.968V130.157Z" fill="#41A592"/>
<path d="M18.7486 261.443H61.7921V251.981H18.7486V261.443Z" fill="#41A592"/>
<path d="M18.7486 139.613H61.7921V130.15H18.7486V139.613Z" fill="#41A592"/>
<path d="M18.7486 163.987H61.7921V154.525H18.7486V163.987Z" fill="#41A592"/>
<path d="M18.7486 188.348H61.7921V178.885H18.7486V188.348Z" fill="#41A592"/>
<path d="M18.7486 212.708H61.7921V203.246H18.7486V212.708Z" fill="#41A592"/>
<path d="M18.7486 237.083H61.7921V227.621H18.7486V237.083Z" fill="#41A592"/>
<g opacity="0.6">
<path d="M18.7486 261.444H61.7921V251.981H18.7486V261.444Z" fill="white"/>
<path d="M18.7486 139.613H61.7921V130.15H18.7486V139.613Z" fill="white"/>
<path d="M18.7486 163.987H61.7921V154.525H18.7486V163.987Z" fill="white"/>
<path d="M18.7486 188.348H61.7921V178.886H18.7486V188.348Z" fill="white"/>
<path d="M18.7486 212.708H61.7921V203.246H18.7486V212.708Z" fill="white"/>
<path d="M18.7486 237.083H61.7921V227.621H18.7486V237.083Z" fill="white"/>
</g>
<path opacity="0.6" d="M218.968 130.157H61.7921V261.45H218.968V130.157Z" fill="white"/>
<path opacity="0.4" d="M218.968 130.157H66.8506V261.45H218.968V130.157Z" fill="white"/>
<path d="M167.131 130.157H118.723V261.45H167.131V130.157Z" fill="#41A592"/>
<path d="M213.796 139.613H171.016V251.981H213.796V139.613Z" fill="#41A592"/>
<path opacity="0.5" d="M213.796 139.613H171.016V251.981H213.796V139.613Z" fill="white"/>
<g opacity="0.1">
<path d="M177.803 139.62H177.092V251.981H177.803V139.62Z" fill="black"/>
<path d="M185.281 139.62H184.569V251.981H185.281V139.62Z" fill="black"/>
<path d="M192.758 139.62H192.047V251.981H192.758V139.62Z" fill="black"/>
<path d="M200.236 139.62H199.524V251.981H200.236V139.62Z" fill="black"/>
<path d="M207.713 139.62H207.002V251.981H207.713V139.62Z" fill="black"/>
<path d="M214.152 252.337H170.66V139.264H214.152V252.337ZM171.372 251.625H213.44V139.976H171.372V251.625Z" fill="black"/>
<path d="M213.796 154.162H171.016V154.874H213.796V154.162Z" fill="black"/>
<path d="M213.796 163.625H171.016V164.336H213.796V163.625Z" fill="black"/>
<path d="M213.796 178.53H171.016V179.241H213.796V178.53Z" fill="black"/>
<path d="M213.796 187.992H171.016V188.704H213.796V187.992Z" fill="black"/>
<path d="M213.796 202.897H171.016V203.609H213.796V202.897Z" fill="black"/>
<path d="M213.796 212.36H171.016V213.071H213.796V212.36Z" fill="black"/>
<path d="M213.796 227.258H171.016V227.969H213.796V227.258Z" fill="black"/>
<path d="M213.796 236.72H171.016V237.432H213.796V236.72Z" fill="black"/>
</g>
<g opacity="0.1">
<path d="M213.796 164.628V179.298L171.016 248.289V233.611L213.796 164.628Z" fill="white"/>
<path d="M213.796 192.389V196.672L179.504 251.981H176.843L213.796 192.389Z" fill="white"/>
</g>
<g opacity="0.1">
<path d="M213.796 222.028V236.699L204.319 251.981H195.227L213.796 222.028Z" fill="white"/>
<path d="M213.796 249.79V251.981H212.437L213.796 249.79Z" fill="white"/>
</g>
<path d="M114.839 139.613H72.0585V251.981H114.839V139.613Z" fill="#41A592"/>
<path opacity="0.5" d="M114.839 139.613H72.0585V251.981H114.839V139.613Z" fill="white"/>
<g opacity="0.1">
<path d="M78.853 139.62H78.1415V251.981H78.853V139.62Z" fill="black"/>
<path d="M86.3233 139.62H85.6119V251.981H86.3233V139.62Z" fill="black"/>
<path d="M93.8008 139.62H93.0894V251.981H93.8008V139.62Z" fill="black"/>
<path d="M101.278 139.62H100.567V251.981H101.278V139.62Z" fill="black"/>
<path d="M108.756 139.62H108.044V251.981H108.756V139.62Z" fill="black"/>
<path d="M115.194 252.337H71.7028V139.264H115.194V252.337ZM72.4143 251.625H114.483V139.976H72.4143V251.625Z" fill="black"/>
<path d="M114.839 154.162H72.0585V154.874H114.839V154.162Z" fill="black"/>
<path d="M114.839 163.625H72.0585V164.336H114.839V163.625Z" fill="black"/>
<path d="M114.839 178.53H72.0585V179.241H114.839V178.53Z" fill="black"/>
<path d="M114.839 187.992H72.0585V188.704H114.839V187.992Z" fill="black"/>
<path d="M114.839 202.897H72.0585V203.609H114.839V202.897Z" fill="black"/>
<path d="M114.839 212.36H72.0585V213.071H114.839V212.36Z" fill="black"/>
<path d="M114.839 227.258H72.0585V227.969H114.839V227.258Z" fill="black"/>
<path d="M114.839 236.72H72.0585V237.432H114.839V236.72Z" fill="black"/>
</g>
<g opacity="0.1">
<path d="M91.9296 139.613L72.0585 171.657V156.994L82.8372 139.613H91.9296Z" fill="white"/>
<path d="M102.708 139.613L72.0585 189.038V184.755L100.047 139.613H102.708Z" fill="white"/>
</g>
<g opacity="0.1">
<path d="M114.839 173.642V188.305L75.3597 251.981H72.0585V242.625L114.839 173.642Z" fill="white"/>
<path d="M114.839 201.396V205.686L86.1312 251.981H83.4704L114.839 201.396Z" fill="white"/>
</g>
<path opacity="0.7" d="M167.131 130.157H118.723V261.45H167.131V130.157Z" fill="white"/>
<path d="M191.022 255.837H188.881H140.942H138.801H118.723V261.444H138.801V288.614H140.942H142.152H144.293V261.444H185.53V288.614H187.671H188.881H191.022V261.444V255.837Z" fill="#41A592"/>
<path opacity="0.3" d="M191.022 255.837V288.614H187.671V261.444H144.293V288.614H140.942V255.837H191.022Z" fill="white"/>
<path d="M133.643 178.885H123.889V251.981H133.643V178.885Z" fill="#41A592"/>
<path d="M147.879 178.885H138.125V251.981H147.879V178.885Z" fill="#41A592"/>
<path d="M162.115 178.885H152.361V251.981H162.115V178.885Z" fill="#41A592"/>
<g opacity="0.5">
<path d="M133.643 178.885H123.889V251.981H133.643V178.885Z" fill="white"/>
<path d="M147.879 178.885H138.125V251.981H147.879V178.885Z" fill="white"/>
<path d="M162.115 178.885H152.361V251.981H162.115V178.885Z" fill="white"/>
</g>
<path d="M157.605 151.024H156.175H147.708V141.128H146.278H139.726H138.303V151.024H129.829H128.406V159.007H129.829H138.303V168.903H139.726H146.278H147.708V159.007H156.175H157.605V151.024Z" fill="#41A592"/>
<path opacity="0.3" d="M129.836 151.032H128.406V159.007H129.836V151.032Z" fill="black"/>
<path opacity="0.3" d="M139.733 141.135H138.31V151.032H139.733V141.135Z" fill="black"/>
<path opacity="0.3" d="M139.733 159.007H138.31V168.904H139.733V159.007Z" fill="black"/>
<path d="M125.29 118.767H124.97H124.614C123.946 118.731 123.278 118.831 122.65 119.062C122.023 119.293 121.449 119.649 120.963 120.109C120.478 120.569 120.091 121.124 119.827 121.738C119.563 122.352 119.426 123.014 119.426 123.683C119.426 124.352 119.563 125.014 119.827 125.628C120.091 126.243 120.478 126.797 120.963 127.257C121.449 127.717 122.023 128.073 122.65 128.304C123.278 128.535 123.946 128.635 124.614 128.599H124.97H125.29C128.257 128.599 130.441 126.522 130.441 123.683C130.441 120.844 128.257 118.767 125.29 118.767ZM123.725 126.671C123.556 126.587 123.395 126.489 123.241 126.38L123.184 126.337C123.05 126.232 122.924 126.118 122.807 125.995C122.774 125.959 122.743 125.921 122.715 125.882C122.614 125.771 122.524 125.652 122.444 125.526C122.309 125.256 122.309 125.256 122.174 124.985C122.131 124.871 122.103 124.75 122.067 124.629C122.032 124.508 122.01 124.459 121.996 124.366C121.953 124.143 121.931 123.917 121.932 123.69C121.931 123.466 121.953 123.242 121.996 123.021C121.996 122.922 122.046 122.844 122.067 122.751C122.089 122.659 122.131 122.516 122.174 122.402C122.217 122.287 122.27 122.175 122.33 122.068C122.373 121.997 122.402 121.926 122.444 121.855C122.524 121.731 122.615 121.614 122.715 121.506C122.741 121.465 122.772 121.427 122.807 121.392C122.921 121.266 123.047 121.151 123.184 121.051C123.2 121.033 123.219 121.018 123.241 121.008C123.393 120.894 123.555 120.794 123.725 120.709C124.099 120.526 124.505 120.415 124.92 120.382C125.743 120.467 126.505 120.854 127.059 121.469C127.613 122.083 127.92 122.881 127.92 123.708C127.92 124.535 127.613 125.333 127.059 125.947C126.505 126.562 125.743 126.949 124.92 127.034C124.505 126.995 124.1 126.882 123.725 126.7V126.671Z" fill="#41A592"/>
<path d="M133.486 121.542C133.479 121.461 133.479 121.38 133.486 121.3C133.486 121.264 133.486 121.236 133.486 121.2C133.5 121.156 133.516 121.113 133.536 121.072C133.555 121.032 133.579 120.993 133.607 120.958C133.624 120.925 133.646 120.894 133.671 120.866C133.703 120.822 133.739 120.782 133.778 120.745L133.856 120.681L134.02 120.574L134.091 120.531L134.311 120.432H134.383L134.667 120.353H134.724L135.087 120.297C135.912 120.349 136.713 120.593 137.428 121.008L137.549 120.709L137.911 120.894L138.146 121.008L138.701 119.628C137.74 119.056 136.639 118.763 135.521 118.781H135.421H135.165C135.044 118.781 134.93 118.781 134.809 118.781C132.184 118.781 130.96 120.09 130.96 121.627C130.96 125.184 136.652 123.825 136.652 125.896C136.652 126.55 136.119 127.041 134.888 127.127C134.632 127.103 134.378 127.065 134.126 127.013H134.077C133.834 126.963 133.596 126.894 133.365 126.806H133.287C133.076 126.727 132.871 126.632 132.675 126.522H132.611C132.422 126.417 132.241 126.298 132.07 126.166L132.013 126.294L131.907 126.529C131.713 126.426 131.529 126.305 131.359 126.166L130.747 127.546C131.844 128.332 133.169 128.734 134.518 128.692H134.781H135.229C137.847 128.692 139.093 127.383 139.093 125.846C139.157 122.253 133.486 123.576 133.486 121.542Z" fill="#41A592"/>
<path d="M144.855 118.902H140.21V128.464H142.693V125.703H144.827C147.338 125.703 148.896 124.409 148.896 122.303C148.896 120.197 147.367 118.902 144.855 118.902ZM142.721 124.202V120.41H144.087C145.645 120.41 146.449 121.122 146.449 122.303C146.449 123.484 145.645 124.202 144.087 124.202H142.721Z" fill="#41A592"/>
<path d="M167.501 118.902H165.04L160.735 128.464H163.282L164.221 126.251H168.291L169.244 128.464H171.813L167.501 118.902ZM164.826 124.857L165.701 122.808L166.256 121.506L167.679 124.857H164.826Z" fill="#41A592"/>
<path d="M179.809 126.963H179.098H174.808V118.902H174.096H173.029H172.318V128.464H173.029H179.098H179.809V126.963Z" fill="#41A592"/>
<path d="M117.542 118.902H116.482H115.771V122.85H111.538V118.902H110.826H109.759H109.047V128.464H109.759H110.826H111.538V124.366H115.771V128.464H116.482H117.542H118.254V118.902H117.542Z" fill="#41A592"/>
<path d="M151.764 118.902H150.696H149.985V128.464H150.696H151.764H152.475V118.902H151.764Z" fill="#41A592"/>
<path d="M161.938 120.41V118.902H161.226H153.827H153.115V120.41H153.827H156.281V128.464H157H158.06H158.772V120.41H161.226H161.938Z" fill="#41A592"/>
<g opacity="0.2">
<path d="M109.766 118.909H109.055V128.464H109.766V118.909Z" fill="black"/>
<path d="M116.482 118.909H115.771V122.851H116.482V118.909Z" fill="black"/>
<path d="M116.482 124.366H115.771V128.464H116.482V124.366Z" fill="black"/>
<path d="M125.297 120.325C124.623 120.317 123.961 120.51 123.398 120.88C123.864 120.587 124.393 120.408 124.942 120.36C125.764 120.446 126.526 120.833 127.08 121.447C127.634 122.062 127.941 122.859 127.941 123.687C127.941 124.514 127.634 125.312 127.08 125.926C126.526 126.54 125.764 126.927 124.942 127.013C124.13 126.949 123.371 126.589 122.807 126.002C123.126 126.342 123.512 126.61 123.941 126.79C124.37 126.971 124.832 127.058 125.297 127.048C126.162 127.008 126.978 126.637 127.576 126.011C128.174 125.385 128.508 124.552 128.508 123.687C128.508 122.821 128.174 121.988 127.576 121.362C126.978 120.736 126.162 120.365 125.297 120.325ZM120.146 123.683C120.135 122.409 120.624 121.181 121.509 120.264C122.394 119.347 123.604 118.815 124.877 118.781H124.586C123.918 118.745 123.25 118.846 122.622 119.076C121.994 119.307 121.42 119.664 120.935 120.124C120.449 120.584 120.063 121.138 119.798 121.752C119.534 122.367 119.398 123.028 119.398 123.697C119.398 124.366 119.534 125.028 119.798 125.642C120.063 126.257 120.449 126.811 120.935 127.271C121.42 127.731 121.994 128.087 122.622 128.318C123.25 128.549 123.918 128.649 124.586 128.613H124.934C124.296 128.605 123.665 128.471 123.079 128.218C122.493 127.966 121.962 127.6 121.517 127.142C121.072 126.684 120.722 126.143 120.487 125.549C120.252 124.956 120.136 124.321 120.146 123.683Z" fill="black"/>
<path d="M134.938 120.29C134.767 120.317 134.598 120.355 134.432 120.403C134.596 120.347 134.766 120.309 134.938 120.29Z" fill="black"/>
<path d="M131.523 127.454C132.491 128.157 133.649 128.551 134.845 128.585H134.582C133.233 128.626 131.909 128.224 130.811 127.439L131.43 126.059C131.601 126.199 131.784 126.323 131.978 126.429L131.523 127.454Z" fill="black"/>
<path d="M137.413 125.882C137.413 126.593 136.78 127.127 135.279 127.127H134.938C136.154 127.041 136.688 126.543 136.688 125.896C136.688 123.84 130.996 125.184 130.996 121.627C130.996 120.083 132.227 118.781 134.845 118.781H135.023C132.775 118.959 131.708 120.204 131.708 121.627C131.729 125.177 137.413 123.826 137.413 125.882Z" fill="black"/>
<path d="M137.577 120.702L137.463 120.994C136.748 120.579 135.947 120.335 135.123 120.282C135.26 120.274 135.398 120.274 135.535 120.282C136.237 120.282 136.932 120.425 137.577 120.702Z" fill="black"/>
<path d="M144.77 120.41H144.059C145.617 120.41 146.421 121.122 146.421 122.31C146.421 123.498 145.617 124.202 144.059 124.202H144.77C146.328 124.202 147.139 123.491 147.139 122.31C147.139 121.129 146.328 120.41 144.77 120.41ZM140.21 118.909V128.464H140.921V118.909H140.21Z" fill="black"/>
<path d="M150.704 118.909H149.992V128.464H150.704V118.909Z" fill="black"/>
<path d="M153.827 118.909H153.115V120.41H153.827V118.909Z" fill="black"/>
<path d="M157 120.41H156.289V128.464H157V120.41Z" fill="black"/>
<path d="M165.04 118.909L160.771 128.464H161.482L165.751 118.909H165.04ZM166.612 120.681L164.826 124.864L166.249 121.513L167.672 124.864H168.383L166.612 120.681ZM169.002 126.251H168.291L169.251 128.464H169.963L169.002 126.251Z" fill="black"/>
<path d="M173.036 118.909H172.325V128.464H173.036V118.909Z" fill="black"/>
</g>
</g>
<defs>
<clipPath id="clip0_216_6621">
<rect width="277.47" height="300" fill="white" transform="translate(0.264832)"/>
</clipPath>
<clipPath id="clip1_216_6621">
<rect width="192.095" height="152.253" fill="white" transform="translate(62.8735 0.94873)"/>
</clipPath>
</defs>
</svg>
