<!DOCTYPE svg PUBLIC "-//W3C//DTD SVG 1.1//EN" "http://www.w3.org/Graphics/SVG/1.1/DTD/svg11.dtd">
<!-- Uploaded to: SVG Repo, www.svgrepo.com, Transformed by: SVG Repo Mixer Tools -->
<svg version="1.1" id="Layer_1" xmlns="http://www.w3.org/2000/svg" xmlns:xlink="http://www.w3.org/1999/xlink" viewBox="0 0 508 508" xml:space="preserve" width="800px" height="800px" fill="#b71c1c" stroke="#b71c1c">
<g id="SVGRepo_bgCarrier" stroke-width="0"/>
<g id="SVGRepo_tracerCarrier" stroke-linecap="round" stroke-linejoin="round"/>
<g id="SVGRepo_iconCarrier"> <path style="fill:#FFCDD2;" d="M34,424.4c0.4,0,0.8,0,1.2,0l0,0C34.8,424.8,34.4,424.8,34,424.4z"/> <path style="fill:#E0E0E0;" d="M472,422h6.4c16,0,23.6-16,23.6-30.4V86.8c0-15.2-8.4-25.2-23.6-25.2H37.6C23.2,61.6,6,71.2,6,86.8 v304.8C6,406.8,22.4,422,37.6,422H472z"/> <path style="fill:#FFCDD2;" d="M36,446.8v2h2C36.8,448.8,36,448,36,446.8z"/> <rect x="38" y="426" style="fill:#BCAAA4;" width="428" height="20"/> <path style="fill:#FFCDD2;" d="M40,322.8v2h2C40.8,324.8,40,324,40,322.8z"/> <path style="fill:#1976D2;" d="M60,362.8c-7.6,0-14,6.4-14,14s6.4,14,14,14s14-6.4,14-14S67.6,362.8,60,362.8z"/> <path style="fill:#EEEEEE;" d="M116,362.8c-7.6,0-14,6.4-14,14s6.4,14,14,14s14-6.4,14-14S123.6,362.8,116,362.8z"/> <path style="fill:#FF7043;" d="M172,362.8c-7.6,0-14,6.4-14,14s6.4,14,14,14s14-6.4,14-14S179.6,362.8,172,362.8z"/> <path style="fill:#E57373;" d="M392.4,358H360c-3.2,0-6-0.4-6,2.8V422h40v-61.2C394,357.6,395.6,358,392.4,358z"/> <path style="fill:#4DB6AC;" d="M320,358h-32c-3.2,0-6-0.4-6,2.8V422h40v-61.2C322,357.6,323.2,358,320,358z"/> <path style="fill:#FBC02D;" d="M464,358h-32.4c-3.2,0-6-0.4-6,2.8V422h40v-61.2C466,357.6,467.6,358,464,358z"/> <path style="fill:#B2DFDB;" d="M417.2,210l-26,79.2c-0.4,0.8-1.2,0.8-2,0.8l0,0c-0.8,0-1.6-0.8-2-1.6l-24-79.2l-17.6-58L324,208.8 L307.6,252c-0.4,0.8-0.8,1.2-1.6,1.2s-1.6,0-2-0.4L282,210h-58l-26,79.2c-0.4,0.8-1.2,0.8-2,0.8l0,0c-0.8,0-1.6-0.8-2-1.6l-24-79.2 l-17.6-57.6l-21.6,57.6l-16.4,43.2c-0.4,0.8-0.8,1.2-1.6,1.2s-1.6,0-2-0.4l-22-42.8H42v112h424v-112L417.2,210L417.2,210z"/> <path style="fill:#E0F2F1;" d="M42,94v112h48.4c0.8,0,1.6,0,1.6,0.4l1.6,2.8l19.2,37.6l14-37.6l24.4-64.4c0.4-0.8,1.2-1.2,2-1.2 s1.6,0.4,2,1.6l19.6,64.4l22,72.4l23.6-72.4l0.8-2c0.4-0.8,1.2-0.8,2-0.8h60.4c0.8,0,1.6,0,1.6,0.4l1.6,2.8l19.2,37.2l14-37.6 l24.4-64.4c0.4-0.8,1.2-1.2,2-1.2s1.6,0.4,2,1.6L368,210l22,72l23.6-72l0.8-2c0.4-0.8,1.2-0.8,2-0.8h50.4v-112L42,94L42,94z"/> <path d="M468,452H36c-2.4,0-4-1.6-4-4v-20.4C15.2,424.4,0,408,0,392V87.2C0,68.8,19.6,56,37.6,56h440.8c18,0,29.6,12,29.6,31.2V392 c0,17.6-10.4,36.4-29.6,36.4H472v20C472,450,470.4,452,468,452z M40,444h424v-20c0-2.4,1.6-4,4-4h10.4c14,0,21.6-14.4,21.6-28.4 V86.8c0-14.8-8-23.2-21.6-23.2H37.6C23.2,63.6,8,72.8,8,86.8v304.8C8,405.2,23.2,420,37.6,420c2.4,0,4,1.6,4,4 c0,1.2-0.8,2.4-1.6,3.2V444z"/> <path d="M468,328H40c-2.4,0-4-1.6-4-4V96c0-2.4,1.6-4,4-4h382c2.4,0,4,1.6,4,4s-1.6,4-4,4H44v220h420V100h-10c-2.4,0-4-1.6-4-4 s1.6-4,4-4h14c2.4,0,4,1.6,4,4v228C472,326,470.4,328,468,328z"/> <path d="M60,396.8c-11.2,0-20-8.8-20-20s8.8-20,20-20s20,8.8,20,20S71.2,396.8,60,396.8z M60,364.8c-6.4,0-12,5.2-12,12 s5.2,12,12,12c6.4,0,12-5.2,12-12S66.8,364.8,60,364.8z"/> <path d="M116,396.8c-11.2,0-20-8.8-20-20s8.8-20,20-20c10.8,0,20,8.8,20,20S127.2,396.8,116,396.8z M116,364.8c-6.4,0-12,5.2-12,12 s5.2,12,12,12s12-5.2,12-12S122.8,364.8,116,364.8z"/> <path d="M172,396.8c-10.8,0-20-8.8-20-20s8.8-20,20-20s20,8.8,20,20S183.2,396.8,172,396.8z M172,364.8c-6.4,0-12,5.2-12,12 s5.2,12,12,12s12-5.2,12-12S178.8,364.8,172,364.8z"/> <path d="M396,426c-2.4,0-4-1.6-4-4v-62h-36v0.8V422c0,2.4-1.6,4-4,4s-4-1.6-4-4v-62.4c0-2,0-4.4,1.6-6s4-1.6,6.4-1.6h36.4 c2,0,4.4,0,6.4,1.6c1.6,1.6,1.6,3.6,1.6,5.6v1.6V422C400,424,398.4,426,396,426z"/> <path d="M324,426c-2.4,0-4-1.6-4-4v-62h-36l0,0l0,0v62c0,2.4-1.6,4-4,4s-4-1.6-4-4v-62c0-2.4,0-4.4,1.6-6.4c1.6-1.6,4.4-1.6,6.4-1.6 h36c2,0,4.4,0,6.4,1.6c1.6,1.6,1.6,3.6,1.6,6v1.2V422C328,424,326.4,426,324,426z"/> <path d="M468,426c-2.4,0-4-1.6-4-4v-62h-36v0.8V422c0,2.4-1.6,4-4,4s-4-1.6-4-4v-62.4c0-2,0-4,1.6-6c1.6-1.6,4-1.6,6.4-1.6h36.4 c2,0,4.4,0,6.4,1.6c1.6,1.6,1.6,3.6,1.6,5.6v1.2v61.2C472,424,470.4,426,468,426z"/> <path d="M482,428H34c-2.4,0-4-1.6-4-4s1.6-4,4-4h448c2.4,0,4,1.6,4,4S484.4,428,482,428z"/> <path d="M196,292.4L196,292.4c-1.6,0-3.2-1.2-4-2.8L152.4,158l-36,95.6c-0.4,1.6-2,2.4-3.6,2.4s-3.2-0.8-3.6-2l-21.6-42H42 c-2.4,0-4-1.6-4-4s1.6-4,4-4h48.4c1.6,0,2.8,0.8,3.6,2l18.4,36l36.8-98c0.8-1.6,2.4-2.8,4-2.4c1.6,0,3.2,1.2,3.6,2.8l39.6,130.8 l22.8-68.4c0.4-1.6,2-2.8,3.6-2.8h60.4c1.6,0,2.8,0.8,3.6,2l18.4,36l36.8-98c0.8-1.6,2.4-2.4,4-2.4s3.2,1.2,3.6,2.8l39.6,130.8 l22.8-68.4c0.4-1.6,2-2.8,3.6-2.8H466c2.4,0,4,1.6,4,4s-1.6,4-4,4h-47.6l-25.6,77.6c-0.4,1.6-2,2.8-3.6,2.8l0,0 c-1.6,0-3.2-1.2-3.6-2.8L346,158l-36,95.6c-0.4,1.6-2,2.4-3.6,2.4s-3.2-0.8-3.6-2l-21.6-42H226l-25.6,77.6 C199.2,291.2,198,292.4,196,292.4z"/> <path d="M314,396h-20c-2.4,0-4-1.6-4-4s1.6-4,4-4h20c2.4,0,4,1.6,4,4S316.4,396,314,396z"/> <path d="M386,396h-20c-2.4,0-4-1.6-4-4s1.6-4,4-4h20c2.4,0,4,1.6,4,4S388.4,396,386,396z"/> <path d="M458,396h-20c-2.4,0-4-1.6-4-4s1.6-4,4-4h20c2.4,0,4,1.6,4,4S460.4,396,458,396z"/> </g>
</svg>