<svg width="39" height="39" viewBox="0 0 39 39" fill="none" xmlns="http://www.w3.org/2000/svg">
<circle cx="19.5" cy="19.5" r="18.5" stroke="#86A7E7" stroke-linecap="round" stroke-dasharray="2 5"/>
<path d="M29 20.0001H26.6361C25.9781 20.0001 25.6491 20.0001 25.3578 20.1298C25.0665 20.2596 24.8463 20.5042 24.4059 20.9935L23.3767 22.1371C23.0154 22.5385 22.8348 22.7392 22.6057 22.7342C22.3766 22.7293 22.2049 22.5212 21.8616 22.105L18.3334 17.8284C18.0133 17.4404 17.8532 17.2464 17.636 17.2334C17.4188 17.2203 17.2366 17.3938 16.8724 17.7407L15.369 19.1725C14.9399 19.5812 14.7253 19.7855 14.4571 19.8928C14.1889 20.0001 13.8926 20.0001 13.3 20.0001H11" stroke="#3D84D6" stroke-width="1.5" stroke-linecap="round"/>
<path d="M16.9617 27.3707L17.4357 26.7895L17.4357 26.7895L16.9617 27.3707ZM20 13.4988L19.4509 14.0097C19.5928 14.1622 19.7917 14.2488 20 14.2488C20.2083 14.2488 20.4072 14.1622 20.5491 14.0097L20 13.4988ZM23.0383 27.3707L23.5123 27.952L23.5123 27.952L23.0383 27.3707ZM17.4357 26.7895C15.9858 25.6072 14.2929 24.0568 12.9688 22.3598C11.6305 20.6445 10.75 18.8821 10.75 17.2604H9.25C9.25 19.3862 10.3793 21.4793 11.7862 23.2825C13.2074 25.1039 14.9953 26.7349 16.4878 27.952L17.4357 26.7895ZM10.75 17.2604C10.75 14.5306 12.0079 12.7045 13.6006 12.0419C15.173 11.3878 17.3528 11.7548 19.4509 14.0097L20.5491 12.9879C18.1473 10.4066 15.3272 9.69899 13.0245 10.657C10.7422 11.6065 9.25 14.0794 9.25 17.2604H10.75ZM23.5123 27.952C25.0047 26.735 26.7926 25.1039 28.2138 23.2825C29.6207 21.4794 30.75 19.3862 30.75 17.2604H29.25C29.25 18.8821 28.3695 20.6445 27.0312 22.3598C25.7071 24.0568 24.0142 25.6072 22.5643 26.7895L23.5123 27.952ZM30.75 17.2604C30.75 14.0793 29.2578 11.6064 26.9755 10.6569C24.6728 9.69894 21.8527 10.4066 19.4509 12.9879L20.5491 14.0097C22.6472 11.7548 24.827 11.3877 26.3994 12.0418C27.9921 12.7044 29.25 14.5305 29.25 17.2604H30.75ZM16.4878 27.952C17.7587 28.9884 18.641 29.75 20 29.75L20 28.25C19.2785 28.25 18.8287 27.9254 17.4357 26.7895L16.4878 27.952ZM22.5643 26.7895C21.1713 27.9254 20.7216 28.25 20 28.25L20 29.75C21.359 29.75 22.2413 28.9884 23.5123 27.952L22.5643 26.7895Z" fill="#3D84D6"/>
</svg>
