<svg width="39" height="39" viewBox="0 0 39 39" fill="none" xmlns="http://www.w3.org/2000/svg">
<circle cx="19.5" cy="19.5" r="18.5" stroke="#86A7E7" stroke-linecap="round" stroke-dasharray="2 5"/>
<path fill-rule="evenodd" clip-rule="evenodd" d="M28.3395 15.6592C29.0095 16.1782 29.4205 16.9492 29.4905 17.7882L29.5005 17.9892V26.0982C29.5005 28.1882 27.8495 29.8882 25.7805 29.9982H23.7905C22.8395 29.9792 22.0705 29.2392 22.0005 28.3092L21.9905 28.1682V25.3092C21.9905 24.9982 21.7595 24.7392 21.4505 24.6882L21.3605 24.6782H18.6895C18.3705 24.6882 18.1105 24.9182 18.0705 25.2182L18.0605 25.3092V28.1592C18.0605 28.2182 18.0495 28.2882 18.0405 28.3382L18.0305 28.3592L18.0195 28.4282C17.9005 29.2792 17.2005 29.9282 16.3305 29.9892L16.2005 29.9982H14.4105C12.3205 29.9982 10.6105 28.3592 10.5005 26.2982V17.9892C10.5095 17.1382 10.8805 16.3482 11.5005 15.7982L17.7305 10.7882C19.0005 9.77923 20.7805 9.73923 22.0895 10.6682L22.2505 10.7882L28.3395 15.6592ZM28.0995 26.2582L28.1105 26.0982V17.9982C28.0995 17.5692 27.9205 17.1682 27.6105 16.8692L27.4805 16.7582L21.3805 11.8782C20.6205 11.2682 19.5405 11.2392 18.7405 11.7682L18.5895 11.8782L12.5095 16.7792C12.1605 17.0382 11.9505 17.4282 11.9005 17.8382L11.8895 17.9982V26.0982C11.8895 27.4282 12.9295 28.5182 14.2505 28.5982H16.2005C16.4205 28.5982 16.6105 28.4492 16.6395 28.2392L16.6605 28.0592L16.6705 28.0082V25.3092C16.6705 24.2392 17.4905 23.3692 18.5405 23.2882H21.3605C22.4295 23.2882 23.2995 24.1092 23.3805 25.1592V28.1682C23.3805 28.3782 23.5305 28.5592 23.7305 28.5982H25.5895C26.9295 28.5982 28.0195 27.5692 28.0995 26.2582Z" fill="#3D84D6"/>
</svg>
