<svg width="19" height="20" viewBox="0 0 19 20" fill="none" xmlns="http://www.w3.org/2000/svg">
<path d="M6.99769 17.7441V14.98C6.99826 14.8115 7.03201 14.6448 7.09701 14.4893C7.16202 14.3339 7.257 14.1928 7.37654 14.074C7.49608 13.9553 7.63784 13.8613 7.79371 13.7973C7.94959 13.7334 8.11654 13.7008 8.28502 13.7013H10.8832C11.2241 13.7012 11.5512 13.8359 11.7932 14.076C11.9126 14.1943 12.0074 14.3351 12.0722 14.4903C12.1369 14.6454 12.1703 14.8118 12.1705 14.98V17.7432C12.1696 17.8884 12.1976 18.0324 12.2528 18.1667C12.308 18.301 12.3893 18.423 12.4921 18.5256C12.701 18.7337 12.9838 18.8506 13.2788 18.8506H15.0511C15.8777 18.8532 16.6718 18.5285 17.2598 17.9475C17.5496 17.661 17.7797 17.3199 17.9368 16.9439C18.0939 16.568 18.1749 16.1645 18.1751 15.7571V7.88443C18.1754 7.55561 18.1031 7.23077 17.9634 6.93312C17.8236 6.63546 17.6199 6.37232 17.3667 6.16249L11.336 1.38172C10.8263 0.975849 10.1911 0.760395 9.5396 0.772453C8.88816 0.784511 8.2613 1.02333 7.76696 1.44778L1.87445 6.16249C1.60929 6.36594 1.39311 6.62622 1.24178 6.92421C1.09046 7.2222 1.00784 7.55031 1 7.88443L1 15.751C1.00137 16.1598 1.08326 16.5644 1.24101 16.9416C1.39876 17.3188 1.62927 17.6612 1.91937 17.9493C2.20947 18.2373 2.55349 18.4654 2.93177 18.6206C3.31004 18.7757 3.71517 18.8547 4.12402 18.8533H5.85639C6.15021 18.8542 6.43249 18.739 6.64172 18.5327C6.85094 18.3264 6.97014 18.0457 6.97335 17.7519L6.99769 17.7441Z" stroke="#BBBFD0" stroke-width="1.5"/>
</svg>
