<svg width="320" height="320" viewBox="0 0 320 320" fill="none" xmlns="http://www.w3.org/2000/svg">
    <path d="M291.046 209.478c-10.24 23.872-30.022 49.28-56.486 55.847-40 9.875-46.208 41.453-116.685 35.149a142.696 142.696 0 0 1-30.323-5.933 118.252 118.252 0 0 1-14.131-5.459c-40.461-18.669-60.23-56.468-60.16-95.034.05-50.72 36.512-73.165 60.128-86.195 23.616-13.03 53.888-66.451 123.219-60.8a138.362 138.362 0 0 1 31.168 6.08c23.04 7.437 46.157 22.553 58.982 43.66a87.57 87.57 0 0 1 2.746 4.852c16.96 32.224 15.494 75.283 1.542 107.833z" fill="#4057A2"/>
    <path opacity=".7" d="M291.046 209.478c-10.24 23.872-30.022 49.28-56.486 55.847-40 9.875-46.208 41.453-116.685 35.149a142.696 142.696 0 0 1-30.323-5.933 118.252 118.252 0 0 1-14.131-5.459c-40.461-18.669-60.23-56.468-60.16-95.034.05-50.72 36.512-73.165 60.128-86.195 23.616-13.03 53.888-66.451 123.219-60.8a138.362 138.362 0 0 1 31.168 6.08c23.04 7.437 46.157 22.553 58.982 43.66a87.57 87.57 0 0 1 2.746 4.852c16.96 32.224 15.494 75.283 1.542 107.833z" fill="#fff"/>
    <path d="M303.635 282.074H14.995a.32.32 0 0 1 0-.64h288.64a.32.32 0 0 1 .227.093.32.32 0 0 1-.227.547z" fill="#000"/>
    <path d="M20.48 267.52a5.642 5.642 0 0 0 1.651.186s-.25-.768-.275-.813c-.256-.538-1.069-1.427-1.728-1.338a.782.782 0 0 0-.64.986 1.637 1.637 0 0 0 .992.979z" fill="#263238"/>
    <path d="M20.902 270.912a5.5 5.5 0 0 0 1.626-.256c.176.597.39 1.183.64 1.754.14.332.3.64.46.992l-.198-.282c-.39-.448-1.408-1.088-2.022-.832a.803.803 0 0 0-.423.486.798.798 0 0 0 .077.64 1.652 1.652 0 0 0 1.21.679 5.159 5.159 0 0 0 1.574-.243c.064.128.128.249.186.377.307.602.64 1.203.89 1.799.102.211.192.422.281.64l-.173-.244c-.39-.448-1.408-1.088-2.022-.832a.801.801 0 0 0-.423.483.788.788 0 0 0 .077.637 1.62 1.62 0 0 0 1.21.685 5.031 5.031 0 0 0 1.536-.23c.083.217.173.435.243.64.07.205.103.288.141.441.038.154.083.295.128.442.064.282.14.576.198.858.058.281.084.377.122.569-.096-.211-.294-.64-.314-.64-.32-.505-1.228-1.28-1.875-1.126a.784.784 0 0 0-.512 1.056 1.628 1.628 0 0 0 1.088.851 5.487 5.487 0 0 0 1.639 0c.057.307.115.608.166.896.051.288.07.416.102.608h.416c-.038-.218-.083-.442-.128-.685-.044-.243-.134-.64-.21-.992.31-.118.613-.252.908-.403.401.347.85.636 1.331.858-.121.294-.237.576-.352.844l-.179.404h.435l.109-.25c.122-.301.243-.64.371-.947.532.125 1.08.168 1.626.128A1.684 1.684 0 0 0 32 279.91a.783.783 0 0 0-.162-.915.807.807 0 0 0-.28-.173c-.64-.211-1.593.506-1.92.986 0 0-.217.358-.332.57l.153-.404.295-.851c.038-.147.083-.294.128-.441.044-.148.076-.308.121-.461.083-.365.154-.736.218-1.107a5.282 5.282 0 0 0 1.542.358 1.666 1.666 0 0 0 1.28-.589.788.788 0 0 0-.02-.93.79.79 0 0 0-.249-.215c-.588-.308-1.65.256-2.073.678l-.442.544c.039-.224.07-.448.103-.678.083-.64.14-1.332.21-2.004 0-.204.04-.409.065-.608a5.333 5.333 0 0 0 1.593.372 1.655 1.655 0 0 0 1.28-.589.792.792 0 0 0-.268-1.146c-.59-.301-1.652.263-2.074.679 0 0-.416.518-.512.64.051-.455.102-.903.166-1.338.093-.596.221-1.186.384-1.766.516.207 1.06.335 1.613.377a1.613 1.613 0 0 0 1.28-.589.779.779 0 0 0 .122-.628.787.787 0 0 0-.384-.511c-.595-.307-1.658.256-2.08.679 0 .032-.448.55-.519.64 0-.039 0-.071.032-.103.181-.577.415-1.136.698-1.67.147-.295.314-.57.474-.832.479.25.992.429 1.523.531a1.643 1.643 0 0 0 1.28-.448.787.787 0 0 0-.135-1.165c-.556-.365-1.676.077-2.137.448l-.429.423.224-.352c.275-.416.557-.788.813-1.108.14-.185.275-.345.403-.499a5.182 5.182 0 0 0 1.594-.224 1.65 1.65 0 0 0 .96-1.005.791.791 0 0 0-.64-.972c-.64-.071-1.453.838-1.696 1.382 0 .051-.263.819-.25.819l-.397.467c-.262.32-.55.685-.845 1.101-.313.444-.602.906-.864 1.383a9.75 9.75 0 0 0-.742 1.676v-.787c-.077-.589-.57-1.683-1.229-1.805a.79.79 0 0 0-.909.743 1.641 1.641 0 0 0 .64 1.235c.463.302.967.533 1.498.685a13.4 13.4 0 0 0-.442 1.811c-.064.352-.115.717-.166 1.082v-.346c-.077-.589-.57-1.683-1.229-1.805a.79.79 0 0 0-.909.743 1.66 1.66 0 0 0 .64 1.235 5.08 5.08 0 0 0 1.447.64c0 .141 0 .281-.051.422-.077.64-.154 1.331-.25 1.991-.032.23-.077.454-.115.678v-.294c-.077-.589-.57-1.69-1.223-1.812a.79.79 0 0 0-.908.743 1.635 1.635 0 0 0 .64 1.235c.435.285.912.501 1.414.64-.051.23-.102.461-.16.678-.058.218-.07.295-.122.442-.05.147-.096.294-.14.442l-.308.825-.21.538c.031-.231.095-.679.095-.717a3.198 3.198 0 0 0-.41-1.491 1.56 1.56 0 0 0 0-.173.788.788 0 0 0-.34-.535.784.784 0 0 0-.626-.105c-.64.166-1.05 1.28-1.081 1.92 0 .032 0 .416.038.64l-.096-.422c-.07-.282-.147-.564-.224-.871l-.134-.441c-.039-.148-.103-.301-.154-.448a16.36 16.36 0 0 0-.429-1.044 4.996 4.996 0 0 0 1.485-.556 1.629 1.629 0 0 0 .723-1.184.785.785 0 0 0-.979-.756c-.64.071-1.242 1.127-1.357 1.709 0 .039-.051.467-.064.704l-.294-.64c-.295-.595-.64-1.19-.928-1.785l-.288-.544a5.59 5.59 0 0 0 1.542-.57 1.654 1.654 0 0 0 .749-1.171.788.788 0 0 0-.851-.813c-.64.077-1.242 1.133-1.357 1.715 0 .045-.064.64-.07.819a26.525 26.525 0 0 1-.602-1.209 14.052 14.052 0 0 1-.64-1.683 5.608 5.608 0 0 0 1.555-.57 1.673 1.673 0 0 0 .685-1.184.797.797 0 0 0-.53-.768.791.791 0 0 0-.328-.045c-.64.077-1.235 1.133-1.356 1.715 0 .045-.07.704-.07.826v-.096a10.24 10.24 0 0 1-.34-1.779c-.038-.327-.051-.64-.064-.96a5.41 5.41 0 0 0 1.568-.391 1.622 1.622 0 0 0 .845-1.1.79.79 0 0 0-.437-.818.783.783 0 0 0-.318-.078c-.64 0-1.357.985-1.536 1.555 0 .032-.077.352-.128.589v-.416c0-.506.038-.967.07-1.376 0-.231.038-.442.064-.64a5.13 5.13 0 0 0 1.197-1.063 1.635 1.635 0 0 0 .25-1.369.776.776 0 0 0-.765-.522.78.78 0 0 0-.317.08c-.595.301-.749 1.498-.64 2.086 0 .045.23.826.243.82 0 .185-.051.39-.077.64-.045.409-.083.87-.096 1.382-.018.544-.005 1.089.039 1.632.046.609.147 1.213.3 1.805-.102-.167-.41-.64-.435-.64-.39-.448-1.408-1.095-2.022-.832a.779.779 0 0 0-.427.481.788.788 0 0 0 .075.639 1.648 1.648 0 0 0 1.177.659z" fill="#263238"/>
    <path d="M32.34 267.776s.21-.775.217-.826c.083-.589-.102-1.779-.704-2.067a.792.792 0 0 0-.644-.004.783.783 0 0 0-.431.478 1.643 1.643 0 0 0 .288 1.356c.368.417.798.775 1.273 1.063zM286.349 272.986c.332.087.675.126 1.018.115 0 0-.16-.474-.173-.506-.154-.326-.64-.877-1.063-.819a.488.488 0 0 0-.39.64 1.017 1.017 0 0 0 .608.57z" fill="#263238"/>
    <path d="M286.599 275.072c.338-.002.674-.054.998-.154.107.369.238.73.39 1.082.09.205.186.403.282.608l-.122-.173c-.236-.275-.864-.672-1.241-.512a.476.476 0 0 0-.263.297.477.477 0 0 0 .045.394 1.045 1.045 0 0 0 .749.423c.33 0 .659-.052.973-.154.038.077.07.16.109.237.192.371.377.736.55 1.107l.173.391-.109-.154c-.237-.275-.864-.672-1.242-.512a.483.483 0 0 0-.217.691 1.015 1.015 0 0 0 .749.423c.321 0 .64-.048.947-.141.051.134.102.269.147.403s.064.173.09.269l.076.275c.039.173.084.352.122.525l.077.352a11.425 11.425 0 0 0-.199-.403c-.192-.314-.755-.794-1.152-.692a.488.488 0 0 0-.302.249.472.472 0 0 0-.011.391.977.977 0 0 0 .672.525c.333.053.672.053 1.005 0 .038.192.076.378.102.551.026.172.045.256.064.377h.256c-.026-.136-.051-.277-.077-.422a15.005 15.005 0 0 0-.134-.608c.193-.076.381-.164.563-.263.248.212.524.388.819.525-.07.179-.147.352-.217.519-.071.166-.077.166-.109.249h.269l.064-.153c.076-.186.153-.378.23-.583.33.073.668.099 1.005.077a1.023 1.023 0 0 0 .71-.474.494.494 0 0 0 .016-.396.503.503 0 0 0-.285-.276c-.39-.134-.985.308-1.203.602l-.205.358.096-.249c.058-.173.116-.346.18-.525.064-.179.051-.179.083-.275.032-.096.045-.186.07-.282.051-.224.096-.454.135-.685.303.126.625.201.953.224a1.022 1.022 0 0 0 .775-.364.494.494 0 0 0 .076-.39.473.473 0 0 0-.243-.314c-.365-.192-1.017.16-1.28.416l-.275.339c0-.141.045-.275.064-.416.051-.41.09-.826.128-1.235l.038-.378c.316.125.648.202.986.23a1.01 1.01 0 0 0 .774-.364.49.49 0 0 0 .077-.388.48.48 0 0 0-.237-.316c-.364-.186-1.024.16-1.28.416 0 0-.262.32-.313.396 0-.275.057-.55.102-.825.055-.366.134-.727.237-1.082.317.126.652.204.992.231a1.026 1.026 0 0 0 .774-.359.49.49 0 0 0-.166-.71c-.365-.186-1.018.16-1.28.422 0 0-.275.339-.32.403v-.064a6.527 6.527 0 0 1 .723-1.542c.292.157.608.268.935.326a1.008 1.008 0 0 0 .812-.275.48.48 0 0 0 .118-.377.502.502 0 0 0-.064-.191.5.5 0 0 0-.137-.149c-.345-.224-1.03.045-1.318.276l-.263.262.135-.218c.173-.256.345-.486.499-.684.154-.199.173-.212.256-.308.331.005.661-.04.979-.134.139-.058.263-.145.364-.256.102-.11.179-.241.225-.384a.47.47 0 0 0-.068-.388.472.472 0 0 0-.335-.207c-.41-.045-.896.512-1.043.851 0 0-.167.499-.16.499l-.25.288c-.16.199-.339.423-.512.679a8.077 8.077 0 0 0-.538.851c-.181.33-.335.675-.46 1.03v-.48c-.052-.365-.352-1.037-.756-1.113a.483.483 0 0 0-.563.454 1.007 1.007 0 0 0 .391.762c.285.184.595.326.921.422a7.998 7.998 0 0 0-.269 1.114c-.038.224-.076.441-.102.64v-.205c-.045-.365-.352-1.043-.755-1.114a.496.496 0 0 0-.383.102.487.487 0 0 0-.18.353.993.993 0 0 0 .111.423c.067.132.162.247.279.338.276.182.578.32.896.41 0 .089 0 .173-.032.256-.051.416-.096.825-.16 1.229 0 .14-.045.281-.07.422a1.155 1.155 0 0 0 0-.186c-.045-.364-.352-1.036-.756-1.113a.49.49 0 0 0-.506.265.478.478 0 0 0-.05.196.982.982 0 0 0 .39.755c.264.18.556.316.864.403a4.364 4.364 0 0 1-.096.422c0 .09-.045.186-.077.276l-.083.268-.192.512-.128.327c0-.141.058-.416.058-.442a1.862 1.862 0 0 0-.25-.915v-.109a.497.497 0 0 0-.207-.337.474.474 0 0 0-.388-.072c-.397.102-.64.8-.672 1.164v.41l-.058-.262-.141-.538c0-.09-.051-.179-.083-.269l-.096-.275a7.882 7.882 0 0 0-.262-.64 3.06 3.06 0 0 0 .915-.339 1.026 1.026 0 0 0 .448-.73.485.485 0 0 0-.525-.499c-.409.045-.761.698-.838 1.056 0 0 0 .282-.039.429a9.431 9.431 0 0 0-.179-.384l-.569-1.101c-.064-.109-.122-.224-.18-.333.332-.069.651-.188.948-.352a1.027 1.027 0 0 0 .448-.729.487.487 0 0 0-.525-.5c-.41.045-.762.698-.839 1.056 0 0-.038.404-.044.5-.128-.244-.25-.493-.365-.743a8.522 8.522 0 0 1-.403-1.037c.341-.048.673-.147.985-.294a1.022 1.022 0 0 0 .448-.73.485.485 0 0 0-.525-.499c-.409.045-.761.698-.838 1.056l-.045.512v-.064c-.1-.356-.169-.72-.205-1.088 0-.205-.038-.403-.044-.595.332-.03.658-.112.966-.243a1.018 1.018 0 0 0 .525-.672.491.491 0 0 0-.271-.507.494.494 0 0 0-.196-.05c-.41 0-.839.608-.948.96 0 0-.051.218-.076.365v-.263c0-.307 0-.595.044-.844 0-.141 0-.269.039-.391a3.36 3.36 0 0 0 .742-.64 1.002 1.002 0 0 0 .147-.838.461.461 0 0 0-.259-.278.48.48 0 0 0-.381.003c-.364.185-.46.921-.403 1.28 0 .032.147.512.154.512 0 .115-.032.236-.051.377 0 .25-.045.531-.058.845a8.973 8.973 0 0 0 0 1.011c.03.374.092.744.186 1.107a6.695 6.695 0 0 0-.276-.396c-.236-.276-.864-.672-1.241-.512a.487.487 0 0 0-.218.691 1 1 0 0 0 .743.403z" fill="#263238"/>
    <path d="M293.638 273.146s.135-.48.135-.512c.051-.365-.064-1.095-.435-1.28a.493.493 0 0 0-.383.01.487.487 0 0 0-.257.284 1.016 1.016 0 0 0 .179.838c.22.256.477.478.761.66zM63.181 272.986c.332.087.675.126 1.018.115 0 0-.16-.474-.173-.506-.154-.326-.64-.877-1.063-.819a.488.488 0 0 0-.414.429.487.487 0 0 0 .024.211 1.003 1.003 0 0 0 .608.57z" fill="#263238"/>
    <path d="M63.43 275.072a3.45 3.45 0 0 0 .999-.154c.107.369.237.73.39 1.082.09.205.186.403.282.608l-.122-.173c-.237-.275-.864-.672-1.241-.512a.483.483 0 0 0-.218.691 1.022 1.022 0 0 0 .749.423c.33 0 .658-.052.973-.154.038.077.07.16.108.237.192.371.378.736.55 1.107l.174.391-.11-.154c-.236-.275-.863-.672-1.24-.512a.485.485 0 0 0-.218.691 1.01 1.01 0 0 0 .774.397c.32 0 .64-.047.947-.141.051.135.103.269.147.403.045.135.064.173.09.269l.077.275c.038.173.083.352.121.525l.077.352a13.233 13.233 0 0 0-.198-.403c-.192-.314-.755-.794-1.152-.691a.465.465 0 0 0-.302.249.468.468 0 0 0-.012.391.996.996 0 0 0 .64.525c.333.052.672.052 1.005 0 .038.192.077.377.102.55.026.173.045.256.064.378h.256l-.076-.423a15.382 15.382 0 0 0-.135-.608c.193-.076.381-.163.563-.262.248.211.524.388.82.525-.07.179-.148.352-.218.518-.07.166-.077.166-.109.25h.269l.064-.154c.077-.186.154-.378.23-.582.33.073.668.098 1.005.076a1.017 1.017 0 0 0 .71-.473.485.485 0 0 0-.268-.672c-.39-.135-.986.307-1.203.601l-.205.359.096-.25c.057-.173.115-.345.179-.525.064-.179.051-.179.083-.275.032-.096.045-.185.07-.281.052-.224.097-.455.135-.685.304.125.626.201.954.224a1.019 1.019 0 0 0 .774-.365.478.478 0 0 0-.01-.573.483.483 0 0 0-.156-.131c-.365-.192-1.018.16-1.28.416l-.276.339c0-.141.045-.275.064-.416.052-.409.09-.825.128-1.235l.039-.378c.315.125.647.202.985.231a1.019 1.019 0 0 0 .775-.365.49.49 0 0 0-.008-.571.489.489 0 0 0-.152-.133c-.365-.186-1.024.16-1.28.416 0 0-.263.32-.314.397 0-.275.058-.551.103-.826.054-.365.133-.727.236-1.081.318.126.652.203.992.23a1.03 1.03 0 0 0 .775-.358.495.495 0 0 0-.167-.711c-.364-.185-1.017.16-1.28.423 0 0-.275.339-.32.403v-.064a6.566 6.566 0 0 1 .724-1.543c.292.158.607.268.934.327a1.012 1.012 0 0 0 .813-.275.495.495 0 0 0 .117-.377.489.489 0 0 0-.2-.34c-.346-.224-1.03.045-1.319.275l-.262.262.134-.217c.173-.256.346-.487.5-.685.153-.198.172-.211.255-.307a3.31 3.31 0 0 0 .98-.135 1.046 1.046 0 0 0 .588-.64.478.478 0 0 0-.403-.595c-.41-.045-.896.512-1.043.851 0 0-.166.5-.16.5l-.25.288c-.16.198-.339.422-.512.678a8.144 8.144 0 0 0-.537.851c-.182.33-.336.675-.461 1.031v-.48c-.051-.365-.352-1.037-.755-1.114a.493.493 0 0 0-.383.102.473.473 0 0 0-.18.352 1.008 1.008 0 0 0 .39.762c.285.184.596.326.922.422a7.884 7.884 0 0 0-.27 1.114c-.038.224-.076.442-.102.64v-.205c-.044-.365-.352-1.043-.755-1.113a.476.476 0 0 0-.383.101.494.494 0 0 0-.18.353 1.018 1.018 0 0 0 .39.762c.276.182.578.32.896.409v.256c-.05.416-.096.826-.16 1.229 0 .141-.044.282-.07.422a1.099 1.099 0 0 0 0-.185c-.045-.365-.352-1.037-.755-1.114a.491.491 0 0 0-.507.265.486.486 0 0 0-.05.196.995.995 0 0 0 .39.755c.265.18.556.316.864.403a4.071 4.071 0 0 1-.096.423c0 .089-.044.185-.076.275-.032.09-.058.179-.084.269l-.192.512-.128.326c0-.141.058-.416.058-.441a1.855 1.855 0 0 0-.25-.916v-.108a.485.485 0 0 0-.595-.41c-.397.102-.64.8-.64 1.165v.409l-.057-.262-.141-.538c0-.089-.051-.179-.083-.268l-.096-.276a8.115 8.115 0 0 0-.263-.64c.321-.063.63-.178.915-.339a1.024 1.024 0 0 0 .448-.729.487.487 0 0 0-.524-.5c-.41.045-.762.698-.839 1.056 0 0 0 .282-.038.429a10.322 10.322 0 0 0-.18-.384 63.562 63.562 0 0 0-.575-1.101l-.173-.332c.331-.07.65-.189.947-.352a1.039 1.039 0 0 0 .448-.73.485.485 0 0 0-.525-.499c-.41.045-.761.697-.838 1.056 0 0-.039.403-.045.499-.128-.243-.25-.493-.365-.742a8.671 8.671 0 0 1-.403-1.037c.334-.07.655-.188.954-.352a1.021 1.021 0 0 0 .448-.73.485.485 0 0 0-.525-.499c-.41.045-.762.698-.839 1.056l-.044.512v-.064a6.23 6.23 0 0 1-.205-1.088c0-.205-.039-.403-.045-.595.333-.03.659-.112.966-.243a1.013 1.013 0 0 0 .525-.672.496.496 0 0 0-.27-.507.497.497 0 0 0-.197-.05c-.41 0-.838.608-.947.96 0 0-.051.217-.077.365v-.263c0-.307 0-.595.045-.845 0-.14 0-.268.038-.39.276-.177.526-.393.743-.64a1.001 1.001 0 0 0 .147-.838.477.477 0 0 0-.26-.278.48.48 0 0 0-.38.002c-.365.186-.461.922-.403 1.28 0 .032.147.512.153.512 0 .116 0 .237-.051.378 0 .25-.045.531-.058.845a9.117 9.117 0 0 0 0 1.011c.03.374.092.744.186 1.107a7.697 7.697 0 0 0-.275-.397c-.237-.275-.864-.672-1.242-.512a.502.502 0 0 0-.263.297.488.488 0 0 0 .046.395 1.005 1.005 0 0 0 .716.486z" fill="#263238"/>
    <path d="M70.47 273.146s.135-.48.135-.512c.051-.365-.064-1.095-.435-1.28a.488.488 0 0 0-.541.125.493.493 0 0 0-.1.169 1.019 1.019 0 0 0 .18.838c.22.256.477.478.761.66zM256.589 268.442c.503.13 1.023.186 1.542.166 0 0-.23-.717-.256-.755-.236-.506-.998-1.338-1.612-1.28a.747.747 0 0 0-.504.332.744.744 0 0 0-.092.596 1.546 1.546 0 0 0 .922.941z" fill="#263238"/>
    <path d="M256.966 271.61a5.288 5.288 0 0 0 1.524-.237c.159.558.355 1.106.588 1.638.135.314.282.64.429.928l-.179-.262c-.365-.423-1.318-1.018-1.92-.775a.756.756 0 0 0-.396.453.754.754 0 0 0 .07.597 1.53 1.53 0 0 0 1.132.64 4.815 4.815 0 0 0 1.479-.224l.173.352c.281.563.569 1.126.832 1.683.089.199.172.397.262.589l-.16-.224c-.365-.422-1.318-1.024-1.92-.775a.75.75 0 0 0-.395.45.728.728 0 0 0 .069.594 1.522 1.522 0 0 0 1.132.64c.489.003.975-.07 1.44-.218.077.205.16.41.231.64.07.23.096.269.128.41l.115.416c.064.262.134.537.192.8.058.262.07.358.109.531-.09-.199-.275-.576-.295-.64-.294-.474-1.145-1.21-1.747-1.056a.731.731 0 0 0-.537.683.75.75 0 0 0 .051.303 1.555 1.555 0 0 0 1.107.774 5.23 5.23 0 0 0 1.53 0c.057.288.108.569.16.838.051.269.064.391.096.57h.384c0-.205-.077-.416-.122-.64-.045-.224-.122-.608-.198-.928.294-.116.58-.251.857-.403.375.324.793.595 1.242.806-.109.275-.224.538-.333.787-.058.128-.109.256-.166.378h.39l.096-.237c.115-.275.23-.576.352-.883a5.165 5.165 0 0 0 1.523.122 1.592 1.592 0 0 0 1.082-.724.736.736 0 0 0 .073-.299.77.77 0 0 0-.053-.303.762.762 0 0 0-.43-.422c-.589-.198-1.497.474-1.824.922l-.313.537.147-.377c.089-.262.179-.518.269-.8.044-.134.083-.269.128-.41.044-.141.07-.288.108-.435.084-.333.148-.678.205-1.03.463.183.95.295 1.447.332a1.577 1.577 0 0 0 1.177-.55.739.739 0 0 0-.016-.868.737.737 0 0 0-.233-.201c-.557-.288-1.549.237-1.92.64l-.41.512c.032-.211.07-.422.096-.64.077-.64.134-1.248.192-1.875 0-.192.045-.384.064-.576.458.203.943.336 1.44.397a1.536 1.536 0 0 0 1.171-.55.737.737 0 0 0-.243-1.069c-.557-.288-1.549.236-1.92.64-.032 0-.39.48-.48.601.045-.422.096-.845.16-1.28a13.25 13.25 0 0 1 .358-1.645c.482.19.989.309 1.504.353a1.554 1.554 0 0 0 1.178-.551.732.732 0 0 0-.014-.869.733.733 0 0 0-.236-.2c-.55-.288-1.548.237-1.92.64 0 0-.422.519-.486.608a.513.513 0 0 1 0-.096 9.704 9.704 0 0 1 .64-1.555c.141-.281.294-.538.442-.787.447.24.928.41 1.427.506a1.545 1.545 0 0 0 1.229-.423.735.735 0 0 0-.128-1.088c-.519-.346-1.568.07-2.004.416l-.396.397c.07-.109.14-.224.211-.327.256-.396.525-.736.755-1.043l.384-.461a5.045 5.045 0 0 0 1.485-.211 1.552 1.552 0 0 0 .915-.966.754.754 0 0 0-.344-.81.747.747 0 0 0-.296-.099c-.64-.064-1.357.787-1.581 1.28 0 .045-.249.768-.237.768l-.377.435c-.237.301-.512.64-.781 1.031-.297.41-.568.837-.813 1.28a9.157 9.157 0 0 0-.697 1.568v-.736c-.071-.551-.538-1.575-1.152-1.69a.739.739 0 0 0-.852.691 1.571 1.571 0 0 0 .596 1.159c.432.283.904.498 1.401.64a12.732 12.732 0 0 0-.416 1.689c-.057.34-.109.672-.153 1.011v-.313c-.071-.557-.538-1.581-1.146-1.696a.743.743 0 0 0-.851.698 1.526 1.526 0 0 0 .589 1.151c.416.282.874.498 1.356.64 0 .128-.032.263-.051.391-.07.64-.141 1.28-.23 1.862-.032.218-.071.429-.109.64v-.281c-.07-.551-.531-1.575-1.146-1.69a.74.74 0 0 0-.851.698 1.529 1.529 0 0 0 .595 1.152c.402.28.844.496 1.312.64a17.62 17.62 0 0 1-.14.64 5.335 5.335 0 0 1-.116.422l-.134.41c-.096.256-.186.518-.288.768-.102.249-.134.339-.198.505.032-.211.089-.64.089-.672a2.84 2.84 0 0 0-.384-1.395.747.747 0 0 0-.308-.682.74.74 0 0 0-.594-.118c-.608.16-.986 1.222-1.018 1.773 0 .038 0 .397.039.64 0-.135-.058-.262-.09-.397a31.1 31.1 0 0 0-.211-.813c-.039-.134-.083-.275-.122-.416-.038-.141-.102-.275-.147-.416-.119-.324-.254-.65-.403-.979a4.579 4.579 0 0 0 1.389-.518 1.538 1.538 0 0 0 .678-1.108.728.728 0 0 0-.794-.755c-.64.064-1.158 1.056-1.28 1.6 0 .032-.044.435-.057.64l-.275-.582c-.276-.557-.576-1.114-.871-1.67-.089-.167-.173-.34-.262-.513.504-.102.99-.281 1.44-.531a1.547 1.547 0 0 0 .678-1.107.744.744 0 0 0-.495-.715.735.735 0 0 0-.305-.04c-.64.064-1.158 1.056-1.28 1.6 0 .038-.057.64-.064.761a26.13 26.13 0 0 1-.557-1.126 13.509 13.509 0 0 1-.64-1.574c.51-.103 1-.284 1.453-.538a1.538 1.538 0 0 0 .679-1.107.742.742 0 0 0-.8-.755c-.64.07-1.159 1.056-1.28 1.6 0 .044-.064.64-.071.78a.53.53 0 0 0-.032-.095 9.36 9.36 0 0 1-.313-1.658 11.043 11.043 0 0 1-.058-.902 4.842 4.842 0 0 0 1.459-.365 1.538 1.538 0 0 0 .8-1.031.725.725 0 0 0-.167-.578.737.737 0 0 0-.543-.26c-.64 0-1.28.922-1.44 1.453 0 .032-.071.332-.115.556v-.396c0-.467.032-.903.064-1.28 0-.218.038-.41.057-.595a4.993 4.993 0 0 0 1.127-.999 1.544 1.544 0 0 0 .23-1.28.732.732 0 0 0-.719-.49.725.725 0 0 0-.299.074c-.55.282-.697 1.402-.608 1.92 0 .051.218.781.231.775 0 .172-.045.364-.071.569-.038.384-.076.813-.089 1.28-.013.467 0 .986.038 1.53.047.57.141 1.135.282 1.689a18.268 18.268 0 0 0-.41-.608c-.365-.422-1.318-1.017-1.888-.774a.74.74 0 0 0-.429.757.745.745 0 0 0 .096.293 1.561 1.561 0 0 0 1.184.704z" fill="#263238"/>
    <path d="M267.667 268.678s.199-.723.205-.774c.077-.55-.102-1.664-.64-1.92a.736.736 0 0 0-.598-.004.726.726 0 0 0-.4.446 1.54 1.54 0 0 0 .262 1.28c.341.38.735.707 1.171.972z" fill="#263238"/>
    <g opacity=".3" fill="#000">
        <path d="M253.299 57.913h-41.286l1.158-1.542a2.32 2.32 0 0 1 2.08-.762c.236.026.475-.002.698-.083.169-.173.309-.372.416-.589a7.333 7.333 0 0 1 2.714-2.79c1.241-.723 2.56-.474 3.513-.294.954.179 1.28.192 1.383-.16.486-1.786 1.715-3.597 3.712-3.328.57.088 1.132.218 1.683.39 1.587.448 2.56.64 3.014-.333.8-1.862 2.304-4.243 6.176-3.417 3.687.793 5.28 4.8 5.395 5.12.749 1.612 2.208 1.465 3.898 1.28 1.44-.148 3.066-.308 4.288.78 2.598 2.324 1.28 5.504 1.242 5.536l-.084.192zm-40.006-.64h39.578a4.248 4.248 0 0 0-1.152-4.608c-1.018-.902-2.368-.768-3.802-.64-1.773.18-3.603.365-4.544-1.676 0-.039-1.536-3.981-4.934-4.71-3.399-.73-4.685 1.28-5.453 3.046-.64 1.568-2.323 1.1-3.783.69a11.621 11.621 0 0 0-1.593-.37c-1.984-.27-2.803 2.124-3.008 2.867-.263.973-1.203.793-2.112.64a4.211 4.211 0 0 0-3.072.217 6.746 6.746 0 0 0-2.49 2.56c-.146.29-.343.55-.582.768-.33.187-.712.261-1.088.212a1.729 1.729 0 0 0-1.562.505l-.403.5zM69.395 62.438H14.08l1.427-1.92c.75-.992 1.882-.979 2.708-.979.342.045.69.001 1.01-.128a3.44 3.44 0 0 0 .615-.813 9.682 9.682 0 0 1 3.616-3.718c1.632-.96 3.38-.64 4.653-.384 1.273.256 1.824.294 1.99-.294.64-2.362 2.266-4.762 4.87-4.41.765.12 1.52.296 2.26.525 2.208.64 3.59.902 4.198-.512 1.056-2.47 3.06-5.632 8.192-4.538 4.922 1.056 7.04 6.439 7.188 6.803 1.05 2.253 3.046 2.055 5.363 1.818 2.01-.198 4.09-.41 5.696 1.03 3.436 3.079 1.664 7.284 1.644 7.328l-.115.192zm-54.035-.64h53.62a5.837 5.837 0 0 0-1.562-6.4c-1.396-1.28-3.328-1.056-5.204-.864-2.348.23-4.774.48-6.01-2.195 0-.051-2.086-5.414-6.726-6.4-4.64-.985-6.4 1.709-7.475 4.167-.864 2.028-2.944 1.44-4.96.87a15.693 15.693 0 0 0-2.163-.506c-2.771-.37-3.898 2.925-4.173 3.943-.332 1.21-1.49.992-2.72.755-1.228-.237-2.79-.531-4.217.307a9.235 9.235 0 0 0-3.392 3.501c-.19.378-.445.718-.756 1.005-.428.231-.919.321-1.401.256-.8 0-1.639 0-2.189.723l-.672.838zM307.68 40.358h-80.307l1.92-2.56c1.043-1.389 2.56-1.376 3.84-1.37a3.008 3.008 0 0 0 1.568-.217c.36-.365.663-.784.896-1.242a14.034 14.034 0 0 1 5.222-5.376c2.343-1.375 4.755-.915 6.695-.544 1.939.372 2.784.48 3.059-.537.928-3.38 3.238-6.816 6.957-6.323 1.104.18 2.194.434 3.264.761 2.848.807 5.299 1.498 6.297-.825 1.523-3.559 4.403-8.116 11.783-6.528 7.129 1.523 10.201 9.356 10.387 9.83 1.536 3.373 4.499 3.098 7.942 2.733 2.899-.288 5.895-.595 8.192 1.465 4.941 4.416 2.394 10.458 2.368 10.516l-.083.217zm-79.027-.64h78.598c.384-1.037 1.882-5.875-2.278-9.6-2.093-1.868-4.941-1.58-7.68-1.28-3.373.346-6.861.691-8.621-3.11-.032-.077-3.072-7.975-9.926-9.447-6.855-1.471-9.536 2.47-11.092 6.119-1.216 2.835-4.185 1.997-7.04 1.19a23.222 23.222 0 0 0-3.2-.748c-4.147-.55-5.836 4.345-6.246 5.862-.448 1.632-2.003 1.337-3.802.992-1.798-.346-4.121-.78-6.246.467a13.539 13.539 0 0 0-4.998 5.159 5.13 5.13 0 0 1-1.063 1.42 3.198 3.198 0 0 1-1.958.346c-1.152 0-2.464 0-3.309 1.114l-1.139 1.516z"/>
    </g>
    <g opacity=".3" fill="#000">
        <path d="M312.256 143.949h-9.062a.322.322 0 0 1-.32-.32v-16.506a.318.318 0 0 1 .544-.224c.06.059.094.14.096.224v16.186h8.742a.32.32 0 0 1 0 .64zM303.194 122.88a.322.322 0 0 1-.32-.32V84.954h-8.212a.32.32 0 0 1-.32-.32v-10.35h-3.68a.32.32 0 0 1-.32-.32v-4a.32.32 0 0 1 .32-.32h3.68v-5.49h-29.497v34.342a.32.32 0 0 1-.32.32h-10.131a.321.321 0 0 1-.32-.32V74.022h-10.388a.32.32 0 0 1 0-.64h10.708a.32.32 0 0 1 .32.32v24.474h9.491V63.834a.32.32 0 0 1 .32-.32h30.137a.321.321 0 0 1 .32.32v6.13a.32.32 0 0 1-.32.32h-3.68v3.36h3.68a.327.327 0 0 1 .32.32v10.35h8.212a.32.32 0 0 1 .32.32v37.932a.326.326 0 0 1-.32.314zM225.594 100.666h-10.132a.321.321 0 0 1-.32-.32V66.029h-11.168a.326.326 0 0 1-.32-.32V43.053h-62.988v23.565a.32.32 0 0 1-.32.32h-7.68a.321.321 0 0 1-.32-.32v-16.91a.32.32 0 0 1 .32-.32h2.412v-5.19h-9.638v5.23h3.232a.325.325 0 0 1 .32.32v39.04a.327.327 0 0 1-.32.32h-7.04a.32.32 0 0 1-.226-.547.32.32 0 0 1 .226-.094h6.726v-38.4h-3.232a.32.32 0 0 1-.32-.32v-5.869a.32.32 0 0 1 .32-.32h10.298a.32.32 0 0 1 .32.32v5.83a.32.32 0 0 1-.32.32h-2.413v16.27h7.04V42.733a.327.327 0 0 1 .32-.32H204a.32.32 0 0 1 .32.32v22.656h11.168a.32.32 0 0 1 .32.32v34.317h9.472V73.702a.32.32 0 0 1 .32-.32h13.53a.321.321 0 0 1 .226.547.32.32 0 0 1-.226.093h-13.21v26.324a.316.316 0 0 1-.202.297.332.332 0 0 1-.124.023zM77.504 89.927h-6.291a.32.32 0 0 1-.32-.32V76.921H57.01a.32.32 0 1 1 0-.64h14.202a.32.32 0 0 1 .32.32v12.684h5.651V54.363a.326.326 0 0 1 .32-.32h24.755a.32.32 0 0 1 .32.32v11.852h5.12a.32.32 0 0 1 .32.32v8.91h5.555a.322.322 0 0 1 .32.32v12.684h4.314a.32.32 0 0 1 0 .64h-4.634a.32.32 0 0 1-.32-.32V76.083h-5.542a.329.329 0 0 1-.225-.095.33.33 0 0 1-.095-.225v-8.909h-5.12a.32.32 0 0 1-.32-.32V54.682H77.824V89.6a.321.321 0 0 1-.32.327zM30.938 145.722h-9.652a.32.32 0 0 1-.32-.32.327.327 0 0 1 .32-.32h9.331V97.575a.32.32 0 0 1 .32-.32h13.946V76.601a.32.32 0 0 1 .32-.32h7.277a.32.32 0 0 1 0 .64h-6.957v20.653a.32.32 0 0 1-.32.32H31.257v47.507a.32.32 0 0 1-.32.32z"/>
        <path d="M199.002 99.885a.321.321 0 0 1-.32-.32V53.907h-47.207v31.015a.32.32 0 0 1-.64 0v-31.36a.32.32 0 0 1 .32-.32h47.847a.32.32 0 0 1 .32.32v45.977a.335.335 0 0 1-.087.241.329.329 0 0 1-.233.105zM151.155 102.496a.32.32 0 0 1-.32-.32V88.32a.32.32 0 0 1 .64 0v13.83a.321.321 0 0 1-.32.346z"/>
        <path d="M198.624 63.623h-29.53a.321.321 0 0 1-.32-.32v-2.99a.32.32 0 0 1 .32-.32h29.53a.32.32 0 0 1 .32.32v2.99a.32.32 0 0 1-.32.32zm-29.21-.64h28.89v-2.35h-28.89v2.35zM198.624 71.475h-29.53a.327.327 0 0 1-.32-.32V68.16a.327.327 0 0 1 .32-.32h29.53a.32.32 0 0 1 .32.32v2.995a.32.32 0 0 1-.32.32zm-29.21-.64h28.89V68.48h-28.89v2.355zM198.624 79.322h-29.53a.32.32 0 0 1-.32-.32v-2.99a.32.32 0 0 1 .32-.32h29.53a.32.32 0 0 1 .32.32v2.99a.32.32 0 0 1-.32.32zm-29.21-.64h28.89v-2.35h-28.89v2.35zM198.624 87.174h-29.53a.327.327 0 0 1-.32-.32V83.84a.32.32 0 0 1 .32-.32h29.53a.32.32 0 0 1 .32.32v2.989a.305.305 0 0 1-.017.13.312.312 0 0 1-.174.189.324.324 0 0 1-.129.026zm-29.21-.64h28.89v-2.348h-28.89v2.348zM198.624 95.02h-29.53a.32.32 0 0 1-.32-.32v-2.988a.32.32 0 0 1 .32-.32h29.53a.32.32 0 0 1 .32.32v3.008a.321.321 0 0 1-.32.3zm-29.21-.64h28.89v-2.348h-28.89v2.349zM110.413 97.639H90.086a.32.32 0 0 1 0-.64h19.994V92.8H50.925v4.218H85.12a.32.32 0 0 1 0 .64H50.56a.32.32 0 0 1-.32-.32V92.48a.32.32 0 0 1 .32-.32h59.808a.32.32 0 0 1 .32.32v4.858a.32.32 0 0 1-.275.3z"/>
        <path d="M53.306 130.963a.326.326 0 0 1-.32-.32V97.325a.327.327 0 0 1 .32-.32.32.32 0 0 1 .32.32v33.318a.321.321 0 0 1-.32.32zM108.339 105.914a.32.32 0 0 1-.32-.32v-8.02a.32.32 0 0 1 .64 0v8.026a.319.319 0 0 1-.32.314zM300.333 175.731h-6.08a.318.318 0 0 1-.32-.32v-3.104h-6.144a.318.318 0 0 1-.32-.32v-53.664h-35.482v26.317a.32.32 0 0 1-.32.32h-5.318a.32.32 0 0 1 0-.64h4.998v-26.317a.32.32 0 0 1 .32-.32h36.122a.32.32 0 0 1 .32.32v53.664h6.144a.325.325 0 0 1 .32.32v3.104h5.44v-20.588a.322.322 0 0 1 .32-.32h4.563a.318.318 0 0 1 .226.546.32.32 0 0 1-.226.094h-4.243v20.588a.322.322 0 0 1-.32.32zM45.984 151.04H14.08a.32.32 0 0 1-.32-.32.325.325 0 0 1 .32-.32h31.936a.32.32 0 0 1 .1.626c-.042.014-.087.019-.132.014zM55.11 151.04h-4.55a.32.32 0 0 1-.32-.32.325.325 0 0 1 .32-.32h4.563a.32.32 0 1 1-.013.64z"/>
    </g>
    <path d="M235.149 106.938H87.059v21.28h148.09v-21.28z" fill="#fff"/>
    <path d="M235.155 128.538H87.04a.32.32 0 0 1-.32-.32v-21.28a.321.321 0 0 1 .32-.32h148.096a.318.318 0 0 1 .32.32v21.28a.319.319 0 0 1-.301.32zm-147.776-.64h147.456v-20.64H87.379v20.64z" fill="#000"/>
    <path d="M235.155 106.938h-67.974v21.28h67.974v-21.28z" fill="#fff"/>
    <path d="M235.155 128.538h-67.974a.32.32 0 0 1-.32-.32v-21.28a.322.322 0 0 1 .32-.32h67.974c.085 0 .166.033.227.093a.32.32 0 0 1 .093.227v21.28a.318.318 0 0 1-.32.32zm-67.654-.64h67.334v-20.64h-67.334v20.64z" fill="#000"/>
    <path d="M241.555 126.118H80.665v4.941h160.89v-4.941z" fill="#fff"/>
    <path d="M241.555 131.379H80.64a.32.32 0 0 1-.32-.32v-4.94a.321.321 0 0 1 .32-.32h160.915a.322.322 0 0 1 .32.32v4.94a.32.32 0 0 1-.093.227.32.32 0 0 1-.227.093zm-160.57-.64h160.25v-4.3H80.985v4.3z" fill="#000"/>
    <path d="M240.704 129.363h-71.309v152.391h71.309V129.363z" fill="#fff"/>
    <path d="M240.704 282.074h-71.309a.32.32 0 0 1-.32-.32V129.363a.32.32 0 0 1 .32-.32h71.309a.32.32 0 0 1 .32.32v152.391a.321.321 0 0 1-.32.32zm-70.989-.64h70.669V129.683h-70.669v151.751z" fill="#000"/>
    <path d="M240.71 136.858h-72.403v3.808h72.403v-3.808z" fill="#000"/>
    <path d="M240.71 140.992h-72.39a.32.32 0 0 1-.32-.32v-3.84a.32.32 0 0 1 .32-.32h72.39a.322.322 0 0 1 .32.32v3.84a.328.328 0 0 1-.32.32zm-72.083-.64h71.763v-3.2h-71.763v3.2zM240.71 257.613h-72.403v3.808h72.403v-3.808z" fill="#000"/>
    <path d="M240.71 261.76h-72.39a.32.32 0 0 1-.32-.32v-3.84a.32.32 0 0 1 .32-.32h72.39a.322.322 0 0 1 .32.32v3.84a.328.328 0 0 1-.32.32zm-72.083-.64h71.763v-3.2h-71.763v3.2z" fill="#000"/>
    <path d="M244.115 129.363h-74.72v8.723h74.72v-8.723z" fill="#4057A2"/>
    <path d="M244.429 138.406h-75.354v-9.363h75.354v9.363zm-74.714-.64h74.074v-8.083h-74.074v8.083z" fill="#263238"/>
    <path d="M244.109 129.363h-68.794v8.723h68.794v-8.723z" fill="#4057A2"/>
    <path d="M244.429 138.406h-69.434v-9.363h69.434v9.363zm-68.794-.64h68.154v-8.083h-68.154v8.083z" fill="#263238"/>
    <path d="M244.115 250.419h-74.72v8.723h74.72v-8.723z" fill="#4057A2"/>
    <path d="M244.429 259.463h-75.354v-9.364h75.354v9.364zm-74.714-.64h74.074v-8.084h-74.074v8.084z" fill="#263238"/>
    <path d="M244.109 250.419h-69.555v8.723h69.555v-8.723z" fill="#4057A2"/>
    <path d="M244.429 259.463h-70.195v-9.364h70.195v9.364zm-69.555-.64h68.915v-8.084h-68.915v8.084z" fill="#263238"/>
    <path d="M108.832 139.584H79.789v119.43h29.043v-119.43z" fill="#000"/>
    <path d="M108.832 259.341H79.789a.327.327 0 0 1-.32-.32V139.584a.324.324 0 0 1 .32-.32h29.043a.32.32 0 0 1 .32.32v119.437a.32.32 0 0 1-.32.32zm-28.723-.64h28.403V139.904H80.109v118.797z" fill="#000"/>
    <path d="M77.658 129.363v13.485h34.137v12.128H77.658v12.762h34.137v12.128H77.658v12.768h34.137v12.128H77.658v12.768h34.137v12.128H77.658v12.768h34.137v12.128H77.658v27.2h56.864V129.363H77.658z" fill="#4057A2"/>
    <path d="M134.842 282.074H77.338v-27.847h34.137v-11.481H77.338v-13.44h34.137V217.85H77.338v-13.408h34.137v-11.488H77.338v-13.408h34.137v-11.52H77.338v-13.37h34.137v-11.52H77.338v-14.093h57.504v153.031zm-56.864-.64h56.224V129.683H77.978v12.845h34.137v12.8H77.978v12.122h34.137v12.8H77.978v12.128h34.137v12.768H77.978v12.128h34.137v12.768H77.978v12.16h34.137v12.761H77.978v26.471z" fill="#263238"/>
    <path d="M169.792 129.363h-56.864v152.391h56.864V129.363z" fill="#fff"/>
    <path d="M169.792 282.074h-56.864a.32.32 0 0 1-.32-.32V129.363a.32.32 0 0 1 .32-.32h56.864a.32.32 0 0 1 .32.32v152.391a.321.321 0 0 1-.32.32zm-56.544-.64h56.224V129.683H113.28l-.032 151.751z" fill="#000"/>
    <path d="M163.27 129.363h-56.864v152.391h56.864V129.363z" fill="#fff"/>
    <path d="M163.27 282.074h-56.864a.321.321 0 0 1-.32-.32V129.363a.32.32 0 0 1 .32-.32h56.864a.322.322 0 0 1 .32.32v152.391a.32.32 0 0 1-.32.32zm-56.544-.64h56.224V129.683h-56.224v151.751z" fill="#000"/>
    <path d="M150.259 136.23h-30.265v30.266h30.265V136.23z" fill="#4057A2"/>
    <path d="M150.579 166.81H119.68v-30.9h30.906l-.007 30.9zm-30.265-.64h29.625v-29.62H120.32l-.006 29.62z" fill="#263238"/>
    <path d="M181.863 143.104h-9.882v10.688h9.882v-10.688z" fill="#000"/>
    <path d="M181.862 154.119h-9.881a.32.32 0 0 1-.32-.32v-10.695a.32.32 0 0 1 .32-.32h9.881a.322.322 0 0 1 .32.32v10.695a.32.32 0 0 1-.32.32zm-9.561-.64h9.241v-10.055h-9.241v10.055zM195.757 143.104h-9.882v10.688h9.882v-10.688z" fill="#000"/>
    <path d="M195.763 154.119h-9.888a.325.325 0 0 1-.32-.32v-10.695a.32.32 0 0 1 .32-.32h9.888a.32.32 0 0 1 .32.32v10.695a.326.326 0 0 1-.32.32zm-9.568-.64h9.248v-10.055h-9.248v10.055zM209.658 143.104h-9.882v10.688h9.882v-10.688z" fill="#000"/>
    <path d="M209.658 154.119h-9.882a.32.32 0 0 1-.32-.32v-10.695a.32.32 0 0 1 .32-.32h9.882a.32.32 0 0 1 .32.32v10.695a.321.321 0 0 1-.32.32zm-9.562-.64h9.242v-10.055h-9.242v10.055zM223.552 143.104h-9.882v10.688h9.882v-10.688z" fill="#000"/>
    <path d="M223.552 154.119h-9.882a.327.327 0 0 1-.32-.32v-10.695a.32.32 0 0 1 .32-.32h9.882a.32.32 0 0 1 .32.32v10.695a.321.321 0 0 1-.32.32zm-9.562-.64h9.242v-10.055h-9.242v10.055zM237.447 143.104h-9.882v10.688h9.882v-10.688z" fill="#000"/>
    <path d="M237.44 154.119h-9.875a.33.33 0 0 1-.225-.096.33.33 0 0 1-.095-.224v-10.695a.32.32 0 0 1 .32-.32h9.875a.32.32 0 0 1 .32.32v10.695a.321.321 0 0 1-.32.32zm-9.562-.64h9.242v-10.055h-9.235l-.007 10.055zM181.863 161.728h-9.882v10.688h9.882v-10.688z" fill="#000"/>
    <path d="M181.862 172.736h-9.881a.32.32 0 0 1-.32-.32v-10.688a.32.32 0 0 1 .32-.32h9.881a.322.322 0 0 1 .32.32v10.688a.318.318 0 0 1-.32.32zm-9.561-.64h9.241v-10.048h-9.241v10.048zM195.757 161.728h-9.882v10.688h9.882v-10.688z" fill="#000"/>
    <path d="M195.763 172.736h-9.888a.32.32 0 0 1-.32-.32v-10.688a.32.32 0 0 1 .32-.32h9.888a.32.32 0 0 1 .32.32v10.688a.32.32 0 0 1-.32.32zm-9.568-.64h9.248v-10.048h-9.248v10.048zM209.658 161.728h-9.882v10.688h9.882v-10.688z" fill="#000"/>
    <path d="M209.658 172.736h-9.882a.32.32 0 0 1-.32-.32v-10.688a.32.32 0 0 1 .32-.32h9.882a.32.32 0 0 1 .32.32v10.688a.32.32 0 0 1-.32.32zm-9.562-.64h9.242v-10.048h-9.242v10.048zM223.552 161.728h-9.882v10.688h9.882v-10.688z" fill="#000"/>
    <path d="M223.552 172.736h-9.882a.32.32 0 0 1-.32-.32v-10.688a.32.32 0 0 1 .32-.32h9.882a.32.32 0 0 1 .32.32v10.688a.32.32 0 0 1-.32.32zm-9.562-.64h9.242v-10.048h-9.242v10.048zM237.447 161.728h-9.882v10.688h9.882v-10.688z" fill="#000"/>
    <path d="M237.44 172.736h-9.875a.32.32 0 0 1-.32-.32v-10.688a.32.32 0 0 1 .32-.32h9.875a.32.32 0 0 1 .32.32v10.688a.32.32 0 0 1-.32.32zm-9.562-.64h9.242v-10.048h-9.235l-.007 10.048zM181.863 180.346h-9.882v10.688h9.882v-10.688z" fill="#000"/>
    <path d="M181.862 191.36h-9.881a.32.32 0 0 1-.32-.32v-10.694a.322.322 0 0 1 .32-.32h9.881a.32.32 0 0 1 .227.093.32.32 0 0 1 .093.227v10.694a.318.318 0 0 1-.32.32zm-9.561-.64h9.241v-10.054h-9.241v10.054zM195.757 180.346h-9.882v10.688h9.882v-10.688z" fill="#000"/>
    <path d="M195.763 191.36h-9.888a.325.325 0 0 1-.32-.32v-10.694a.322.322 0 0 1 .32-.32h9.888a.318.318 0 0 1 .32.32v10.694a.324.324 0 0 1-.32.32zm-9.568-.64h9.248v-10.054h-9.248v10.054zM209.658 180.346h-9.882v10.688h9.882v-10.688z" fill="#000"/>
    <path d="M209.658 191.36h-9.882a.32.32 0 0 1-.32-.32v-10.694a.322.322 0 0 1 .32-.32h9.882a.318.318 0 0 1 .32.32v10.694a.32.32 0 0 1-.32.32zm-9.562-.64h9.242v-10.054h-9.242v10.054zM223.552 180.346h-9.882v10.688h9.882v-10.688z" fill="#000"/>
    <path d="M223.552 191.36h-9.882a.327.327 0 0 1-.32-.32v-10.694a.322.322 0 0 1 .32-.32h9.882a.318.318 0 0 1 .32.32v10.694a.32.32 0 0 1-.32.32zm-9.562-.64h9.242v-10.054h-9.242v10.054zM237.447 180.346h-9.882v10.688h9.882v-10.688z" fill="#000"/>
    <path d="M237.44 191.36h-9.875a.329.329 0 0 1-.32-.32v-10.694a.322.322 0 0 1 .32-.32h9.875a.318.318 0 0 1 .32.32v10.694a.32.32 0 0 1-.32.32zm-9.562-.64h9.242v-10.054h-9.235l-.007 10.054zM181.863 198.97h-9.882v10.688h9.882V198.97z" fill="#000"/>
    <path d="M181.862 209.978h-9.881a.32.32 0 0 1-.32-.32V198.97a.322.322 0 0 1 .32-.32h9.881a.32.32 0 0 1 .227.093.32.32 0 0 1 .093.227v10.688a.318.318 0 0 1-.32.32zm-9.561-.64h9.241V199.29h-9.241v10.048zM195.757 198.97h-9.882v10.688h9.882V198.97z" fill="#000"/>
    <path d="M195.763 209.978h-9.888a.32.32 0 0 1-.32-.32V198.97a.322.322 0 0 1 .32-.32h9.888a.318.318 0 0 1 .32.32v10.688a.32.32 0 0 1-.32.32zm-9.568-.64h9.248V199.29h-9.248v10.048zM209.658 198.97h-9.882v10.688h9.882V198.97z" fill="#000"/>
    <path d="M209.658 209.978h-9.882a.32.32 0 0 1-.32-.32V198.97a.322.322 0 0 1 .32-.32h9.882a.318.318 0 0 1 .32.32v10.688a.32.32 0 0 1-.32.32zm-9.562-.64h9.242V199.29h-9.242v10.048zM223.552 198.97h-9.882v10.688h9.882V198.97z" fill="#000"/>
    <path d="M223.552 209.978h-9.882a.32.32 0 0 1-.32-.32V198.97a.322.322 0 0 1 .32-.32h9.882a.318.318 0 0 1 .32.32v10.688a.32.32 0 0 1-.32.32zm-9.562-.64h9.242V199.29h-9.242v10.048zM237.447 198.97h-9.882v10.688h9.882V198.97z" fill="#000"/>
    <path d="M237.44 209.978h-9.875a.32.32 0 0 1-.32-.32V198.97a.322.322 0 0 1 .32-.32h9.875a.318.318 0 0 1 .32.32v10.688a.32.32 0 0 1-.32.32zm-9.562-.64h9.242V199.29h-9.235l-.007 10.048zM181.863 217.587h-9.882v10.688h9.882v-10.688z" fill="#000"/>
    <path d="M181.862 228.602h-9.881a.32.32 0 0 1-.32-.32V217.6a.32.32 0 0 1 .32-.32h9.881a.322.322 0 0 1 .32.32v10.694a.316.316 0 0 1-.098.218.317.317 0 0 1-.222.09zm-9.561-.64h9.241v-10.055h-9.241v10.055zM195.757 217.587h-9.882v10.688h9.882v-10.688z" fill="#000"/>
    <path d="M195.763 228.602h-9.888a.325.325 0 0 1-.32-.32V217.6a.325.325 0 0 1 .32-.32h9.888a.328.328 0 0 1 .32.32v10.694a.324.324 0 0 1-.32.308zm-9.568-.64h9.248v-10.055h-9.248v10.055zM209.658 217.587h-9.882v10.688h9.882v-10.688z" fill="#000"/>
    <path d="M209.658 228.602h-9.882a.32.32 0 0 1-.32-.32V217.6a.32.32 0 0 1 .32-.32h9.882a.32.32 0 0 1 .32.32v10.694a.32.32 0 0 1-.32.308zm-9.562-.64h9.242v-10.055h-9.242v10.055zM223.552 217.587h-9.882v10.688h9.882v-10.688z" fill="#000"/>
    <path d="M223.552 228.602h-9.882a.327.327 0 0 1-.32-.32V217.6a.325.325 0 0 1 .32-.32h9.882a.32.32 0 0 1 .32.32v10.694a.32.32 0 0 1-.32.308zm-9.562-.64h9.242v-10.055h-9.242v10.055zM237.447 217.587h-9.882v10.688h9.882v-10.688z" fill="#000"/>
    <path d="M237.44 228.602h-9.875a.33.33 0 0 1-.225-.096.33.33 0 0 1-.095-.224V217.6a.329.329 0 0 1 .32-.32h9.875a.32.32 0 0 1 .32.32v10.694a.316.316 0 0 1-.098.218.318.318 0 0 1-.222.09zm-9.562-.64h9.242v-10.055h-9.235l-.007 10.055zM181.863 236.211h-9.882v10.688h9.882v-10.688z" fill="#000"/>
    <path d="M181.862 247.219h-9.881a.318.318 0 0 1-.32-.32v-10.688a.32.32 0 0 1 .32-.32h9.881a.322.322 0 0 1 .32.32v10.688a.32.32 0 0 1-.093.227.32.32 0 0 1-.227.093zm-9.561-.64h9.241v-10.048h-9.241v10.048zM195.757 236.211h-9.882v10.688h9.882v-10.688z" fill="#000"/>
    <path d="M195.763 247.219h-9.888a.318.318 0 0 1-.32-.32v-10.688a.32.32 0 0 1 .32-.32h9.888a.32.32 0 0 1 .32.32v10.688a.322.322 0 0 1-.32.32zm-9.568-.64h9.248v-10.048h-9.248v10.048zM209.658 236.211h-9.882v10.688h9.882v-10.688z" fill="#000"/>
    <path d="M209.658 247.219h-9.882a.318.318 0 0 1-.32-.32v-10.688a.32.32 0 0 1 .32-.32h9.882a.32.32 0 0 1 .32.32v10.688a.322.322 0 0 1-.32.32zm-9.562-.64h9.242v-10.048h-9.242v10.048zM223.552 236.211h-9.882v10.688h9.882v-10.688z" fill="#000"/>
    <path d="M223.552 247.219h-9.882a.318.318 0 0 1-.32-.32v-10.688a.32.32 0 0 1 .32-.32h9.882a.32.32 0 0 1 .32.32v10.688a.322.322 0 0 1-.32.32zm-9.562-.64h9.242v-10.048h-9.242v10.048zM237.447 236.211h-9.882v10.688h9.882v-10.688z" fill="#000"/>
    <path d="M237.44 247.219h-9.875a.318.318 0 0 1-.32-.32v-10.688a.32.32 0 0 1 .32-.32h9.875a.32.32 0 0 1 .32.32v10.688a.322.322 0 0 1-.32.32zm-9.562-.64h9.242v-10.048h-9.235l-.007 10.048zM188.461 264.467h-13.037v17.287h13.037v-17.287z" fill="#000"/>
    <path d="M188.454 282.074h-13.03a.32.32 0 0 1-.32-.32v-17.28a.322.322 0 0 1 .32-.32h13.03a.32.32 0 0 1 .227.093.32.32 0 0 1 .093.227v17.28a.32.32 0 0 1-.32.32zm-12.71-.64h12.416v-16.64h-12.416v16.64zM235.642 264.467h-13.037v17.287h13.037v-17.287z" fill="#000"/>
    <path d="M235.642 282.074h-13.037a.32.32 0 0 1-.32-.32v-17.28a.322.322 0 0 1 .32-.32h13.037a.318.318 0 0 1 .32.32v17.28a.321.321 0 0 1-.32.32zm-12.717-.64h12.397v-16.64h-12.397v16.64zM217.952 264.467h-24.8v17.287h24.8v-17.287z" fill="#000"/>
    <path d="M217.946 282.074h-24.794a.32.32 0 0 1-.32-.32v-17.28a.322.322 0 0 1 .32-.32h24.794a.318.318 0 0 1 .32.32v17.28a.321.321 0 0 1-.32.32zm-24.474-.64H217.6v-16.64h-24.128v16.64z" fill="#000"/>
    <path d="M128.358 162.957v-23.194h4.724v9.536h4.096v-9.536h4.723v23.194h-4.723v-10.279h-4.096v10.279h-4.724z" fill="#263238"/>
    <path d="M150.054 171.744h-29.337v96.57h29.337v-96.57z" fill="#fff"/>
    <path d="M150.054 268.634h-29.337a.322.322 0 0 1-.32-.32v-96.57a.318.318 0 0 1 .32-.32h29.337a.322.322 0 0 1 .32.32v96.57a.318.318 0 0 1-.32.32zm-29.017-.64h28.723v-95.93h-28.723v95.93z" fill="#000"/>
    <path d="M135.206 268.602a.321.321 0 0 1-.32-.32v-96.275a.328.328 0 0 1 .32-.32.32.32 0 0 1 .227.093.32.32 0 0 1 .093.227v96.275a.318.318 0 0 1-.32.32z" fill="#000"/>
    <path d="M149.76 182.848h-28.915a.32.32 0 0 1 0-.64h28.915a.32.32 0 0 1 0 .64zM149.76 193.92h-28.915a.32.32 0 0 1 0-.64h28.915a.32.32 0 0 1 0 .64zM149.76 204.954h-28.915a.329.329 0 0 1-.32-.32.322.322 0 0 1 .32-.32h28.915a.318.318 0 0 1 .226.546.32.32 0 0 1-.226.094zM149.76 216.006h-28.915a.324.324 0 0 1-.32-.32.321.321 0 0 1 .32-.32h28.915a.32.32 0 0 1 .226.547.318.318 0 0 1-.226.093zM149.76 227.053h-28.915a.32.32 0 0 1 0-.64h28.915a.32.32 0 0 1 0 .64zM149.76 238.08h-28.915a.32.32 0 0 1 0-.64h28.915a.32.32 0 0 1 0 .64zM149.76 249.159h-28.915a.32.32 0 0 1-.226-.547.318.318 0 0 1 .226-.093h28.915a.318.318 0 0 1 .226.546.32.32 0 0 1-.226.094zM149.76 260.211h-28.915a.318.318 0 0 1-.226-.546.32.32 0 0 1 .226-.094h28.915a.32.32 0 0 1 .226.547.318.318 0 0 1-.226.093zM126.125 180.134a.316.316 0 0 1-.292-.198.323.323 0 0 1 .068-.346l6.029-6.028a.317.317 0 0 1 .518.104.325.325 0 0 1-.07.35l-6.023 6.022a.322.322 0 0 1-.23.096zM124.122 179.2a.327.327 0 0 1-.231-.096.326.326 0 0 1 0-.454l2.099-2.093a.318.318 0 0 1 .351-.07.318.318 0 0 1 .196.297.326.326 0 0 1-.092.227l-2.099 2.093a.323.323 0 0 1-.224.096zM126.125 191.488a.32.32 0 0 1-.316-.323c0-.085.033-.166.092-.227l6.029-6.023a.293.293 0 0 1 .102-.071.3.3 0 0 1 .244 0 .334.334 0 0 1 .172.175.326.326 0 0 1-.07.351l-6.023 6.022a.326.326 0 0 1-.23.096zM124.122 190.528a.327.327 0 0 1-.231-.096.326.326 0 0 1 0-.454l2.099-2.093a.318.318 0 0 1 .351-.07.318.318 0 0 1 .196.297.326.326 0 0 1-.092.227l-2.099 2.093a.323.323 0 0 1-.224.096zM126.125 202.842a.323.323 0 0 1-.224-.551l6.029-6.022a.314.314 0 0 1 .448 0 .317.317 0 0 1 0 .448l-6.023 6.029a.33.33 0 0 1-.23.096zM124.122 201.875a.332.332 0 0 1-.125-.021.35.35 0 0 1-.106-.068.328.328 0 0 1 0-.455l2.099-2.093a.326.326 0 0 1 .455 0 .324.324 0 0 1 0 .448l-2.099 2.1a.326.326 0 0 1-.224.089zM126.125 213.491a.348.348 0 0 1-.224-.089.328.328 0 0 1 0-.455l6.029-6.029a.322.322 0 0 1 .448 0 .32.32 0 0 1 0 .455l-6.023 6.029a.343.343 0 0 1-.23.089zM124.122 212.531a.344.344 0 0 1-.231-.089.328.328 0 0 1 0-.455l2.099-2.099a.324.324 0 0 1 .455 0 .322.322 0 0 1 0 .454l-2.099 2.1a.35.35 0 0 1-.224.089zM126.125 224.672a.324.324 0 0 1-.176-.055.331.331 0 0 1-.116-.143.32.32 0 0 1 .068-.346l6.029-6.029a.31.31 0 0 1 .224-.097.32.32 0 0 1 .122.025.334.334 0 0 1 .172.176.325.325 0 0 1-.07.351l-6.023 6.022a.326.326 0 0 1-.23.096zM124.122 223.712a.327.327 0 0 1-.231-.096.326.326 0 0 1 0-.454l2.099-2.093a.318.318 0 0 1 .351-.07.318.318 0 0 1 .196.297.326.326 0 0 1-.092.227l-2.099 2.093a.323.323 0 0 1-.224.096zM126.125 235.149a.344.344 0 0 1-.224-.09.326.326 0 0 1 0-.454l6.029-6.029a.32.32 0 0 1 .518.104.325.325 0 0 1-.07.35l-6.023 6.029a.344.344 0 0 1-.23.09zM124.122 234.189a.34.34 0 0 1-.231-.09.326.326 0 0 1 0-.454l2.099-2.099a.324.324 0 0 1 .455 0 .322.322 0 0 1 0 .454l-2.099 2.099a.346.346 0 0 1-.224.09zM126.125 246.502a.316.316 0 0 1-.292-.198.323.323 0 0 1 .068-.346l6.029-6.028a.317.317 0 0 1 .518.104.325.325 0 0 1-.07.35l-6.023 6.016a.3.3 0 0 1-.105.074.316.316 0 0 1-.125.028zM124.122 245.542a.32.32 0 0 1-.231-.544l2.099-2.099a.324.324 0 0 1 .455 0 .324.324 0 0 1 0 .455l-2.099 2.092a.317.317 0 0 1-.224.096zM126.125 258.029a.344.344 0 0 1-.224-.09.326.326 0 0 1 0-.454l6.029-6.029a.32.32 0 0 1 .518.104.325.325 0 0 1-.07.35l-6.023 6.01a.347.347 0 0 1-.23.109zM124.122 257.069a.345.345 0 0 1-.231-.09.326.326 0 0 1 0-.454l2.099-2.099a.322.322 0 0 1 .549.227.308.308 0 0 1-.025.123.315.315 0 0 1-.069.104l-2.099 2.099a.346.346 0 0 1-.224.09zM126.125 267.111a.344.344 0 0 1-.224-.09.326.326 0 0 1 0-.454l6.029-6.029a.319.319 0 1 1 .448.454l-6.023 6.029a.35.35 0 0 1-.23.09zM124.122 266.15a.344.344 0 0 1-.231-.089.328.328 0 0 1 0-.455l2.099-2.099a.324.324 0 0 1 .455 0 .322.322 0 0 1 0 .455l-2.099 2.099a.345.345 0 0 1-.224.089zM140.038 180.135a.324.324 0 0 1-.291-.199.317.317 0 0 1 .067-.345l6.023-6.029a.326.326 0 0 1 .454 0 .318.318 0 0 1 0 .454l-6.022 6.023a.331.331 0 0 1-.231.096zM138.029 179.2a.32.32 0 0 1-.224-.096.318.318 0 0 1 0-.454l2.093-2.093a.322.322 0 0 1 .454.454l-2.112 2.068a.328.328 0 0 1-.211.121zM140.038 191.488a.316.316 0 0 1-.224-.096.325.325 0 0 1 0-.454l6.023-6.023a.331.331 0 0 1 .227-.094.326.326 0 0 1 .297.199.32.32 0 0 1-.07.35l-6.022 6.022a.327.327 0 0 1-.231.096zM138.029 190.528a.32.32 0 0 1-.224-.096.318.318 0 0 1 0-.454l2.093-2.093a.308.308 0 0 1 .227-.094.325.325 0 0 1 .227.094.318.318 0 0 1 0 .454l-2.112 2.093a.324.324 0 0 1-.211.096zM140.038 202.842a.3.3 0 0 1-.121-.026.334.334 0 0 1-.173-.174.325.325 0 0 1 .07-.351l6.023-6.022a.318.318 0 0 1 .454 0 .305.305 0 0 1 0 .448l-6.022 6.029a.327.327 0 0 1-.231.096zM138.029 201.875a.324.324 0 0 1-.176-.055.325.325 0 0 1-.116-.143.323.323 0 0 1 .068-.346l2.093-2.093a.323.323 0 0 1 .35-.07.334.334 0 0 1 .176.172.32.32 0 0 1 0 .245.301.301 0 0 1-.072.101l-2.112 2.1a.315.315 0 0 1-.211.089zM140.038 213.491a.333.333 0 0 1-.224-.089.326.326 0 0 1 0-.455l6.023-6.029a.326.326 0 0 1 .454 0 .322.322 0 0 1 0 .455l-6.022 6.029a.344.344 0 0 1-.231.089zM138.029 212.531a.348.348 0 0 1-.224-.089.322.322 0 0 1 0-.455l2.093-2.099a.326.326 0 0 1 .454 0 .318.318 0 0 1 0 .454l-2.112 2.1a.346.346 0 0 1-.211.089zM140.038 224.672a.323.323 0 0 1-.291-.198.319.319 0 0 1 .067-.346l6.023-6.029a.315.315 0 0 1 .104-.069.308.308 0 0 1 .246 0 .315.315 0 0 1 .174.173.325.325 0 0 1-.07.351l-6.022 6.022a.327.327 0 0 1-.231.096zM138.029 223.712a.32.32 0 0 1-.224-.096.318.318 0 0 1 0-.454l2.093-2.093a.322.322 0 0 1 .454.454l-2.112 2.093a.324.324 0 0 1-.211.096zM140.038 235.149a.334.334 0 0 1-.224-.09.323.323 0 0 1-.07-.35.334.334 0 0 1 .07-.104l6.023-6.029a.326.326 0 0 1 .454 0 .318.318 0 0 1 .07.35.322.322 0 0 1-.07.105l-6.022 6.028a.34.34 0 0 1-.231.09zM138.029 234.189a.344.344 0 0 1-.224-.09.326.326 0 0 1-.095-.227.326.326 0 0 1 .095-.227l2.093-2.099a.326.326 0 0 1 .454 0 .326.326 0 0 1 .095.227.326.326 0 0 1-.095.227l-2.112 2.099a.347.347 0 0 1-.211.09zM140.038 246.503a.324.324 0 0 1-.291-.199.318.318 0 0 1 .067-.345l6.023-6.029a.326.326 0 0 1 .454 0c.03.029.054.065.07.104a.308.308 0 0 1 0 .246.318.318 0 0 1-.07.104l-6.022 6.016a.319.319 0 0 1-.105.074.322.322 0 0 1-.126.029zM138.029 245.542a.315.315 0 0 1-.224-.096.3.3 0 0 1-.097-.224.303.303 0 0 1 .097-.224l2.093-2.099a.324.324 0 0 1 .549.227.322.322 0 0 1-.095.228l-2.112 2.092a.324.324 0 0 1-.211.096zM140.038 258.029a.334.334 0 0 1-.224-.09.323.323 0 0 1-.07-.35.334.334 0 0 1 .07-.104l6.023-6.029a.326.326 0 0 1 .454 0 .318.318 0 0 1 0 .454l-6.022 6.01a.35.35 0 0 1-.231.109zM138.029 257.069a.344.344 0 0 1-.224-.09.318.318 0 0 1 0-.454l2.093-2.099a.327.327 0 0 1 .227-.093.327.327 0 0 1 .297.197.326.326 0 0 1 .025.123.326.326 0 0 1-.095.227l-2.112 2.099a.347.347 0 0 1-.211.09zM140.038 267.11a.328.328 0 0 1-.224-.089.325.325 0 0 1 0-.455l6.023-6.028a.326.326 0 0 1 .454 0 .326.326 0 0 1 .095.227.326.326 0 0 1-.095.227l-6.022 6.029a.344.344 0 0 1-.231.089zM138.029 266.151a.344.344 0 0 1-.224-.09.318.318 0 0 1 0-.454l2.093-2.1a.326.326 0 0 1 .454 0 .318.318 0 0 1 .07.351.318.318 0 0 1-.07.104l-2.112 2.099a.347.347 0 0 1-.211.09z" fill="#000"/>
    <path d="M172.243 123.066v-12.845h2.618v5.28h2.265v-5.28h2.618v12.845h-2.618v-5.696h-2.265v5.696h-2.618zM185.312 123.239a4.32 4.32 0 0 1-2.24-.506 2.828 2.828 0 0 1-1.178-1.453 6.406 6.406 0 0 1-.358-2.259v-4.787a6.37 6.37 0 0 1 .358-2.253 2.741 2.741 0 0 1 1.178-1.427 5.348 5.348 0 0 1 4.48 0 2.8 2.8 0 0 1 1.184 1.427c.258.72.379 1.482.358 2.246v4.813a6.245 6.245 0 0 1-.358 2.259 2.83 2.83 0 0 1-1.184 1.453 4.386 4.386 0 0 1-2.24.487zm0-1.888c.268.021.534-.061.742-.231.171-.175.282-.399.32-.64.053-.276.079-.557.077-.838V113.6a4.004 4.004 0 0 0-.077-.825 1.174 1.174 0 0 0-.32-.64 1.067 1.067 0 0 0-.742-.224 1.022 1.022 0 0 0-.717.224c-.17.174-.28.398-.313.64a3.692 3.692 0 0 0-.084.825v6.08c0 .281.024.562.071.839.033.241.143.465.313.64.209.156.471.225.73.192zM194.189 123.239a4.107 4.107 0 0 1-1.984-.436 2.797 2.797 0 0 1-1.197-1.318 6.116 6.116 0 0 1-.467-2.24l2.253-.384c.009.446.064.89.166 1.325.059.298.201.573.41.793a.977.977 0 0 0 .691.263.728.728 0 0 0 .691-.32c.123-.223.185-.475.179-.73a2.311 2.311 0 0 0-.384-1.357 6.671 6.671 0 0 0-1.024-1.1l-1.331-1.159a5.23 5.23 0 0 1-1.165-1.363 3.589 3.589 0 0 1-.454-1.869 3.112 3.112 0 0 1 .928-2.432 3.617 3.617 0 0 1 2.56-.851 3.45 3.45 0 0 1 1.581.32c.39.189.722.481.96.845.228.354.391.746.48 1.158.088.422.144.85.166 1.28l-2.24.333a8.676 8.676 0 0 0-.102-1.03 1.372 1.372 0 0 0-.282-.698.793.793 0 0 0-.64-.256.76.76 0 0 0-.678.339 1.37 1.37 0 0 0-.224.755c-.016.396.091.788.307 1.12.251.332.537.636.851.909l1.28 1.139c.536.463 1.004 1 1.389 1.594.402.667.602 1.436.576 2.214a3.243 3.243 0 0 1-.41 1.632 2.898 2.898 0 0 1-1.152 1.14 3.502 3.502 0 0 1-1.734.384zM198.662 123.066v-12.845h4.071a3.66 3.66 0 0 1 1.92.435c.491.298.873.747 1.088 1.28.245.632.36 1.307.339 1.984a4.164 4.164 0 0 1-.467 2.157c-.29.501-.741.889-1.28 1.101a4.923 4.923 0 0 1-1.856.326h-1.191v5.568l-2.624-.006zm2.612-7.405h.921c.306.015.61-.049.883-.186a.909.909 0 0 0 .416-.576c.086-.332.124-.675.116-1.017a4.742 4.742 0 0 0-.09-.98.993.993 0 0 0-.39-.64 1.63 1.63 0 0 0-.954-.224h-.902v3.623zM207.36 123.066v-12.845h2.56v12.845h-2.56zM213.12 123.066v-10.88h-1.984v-1.952h6.566v1.952h-1.952v10.88h-2.63zM217.766 123.066l2.49-12.845h2.899l2.471 12.845H223.2l-.454-2.823h-2.036l-.486 2.823h-2.458zm3.2-4.429h1.536l-.774-5.184-.762 5.184zM226.835 123.066v-12.845h2.618v11.066h3.008v1.779h-5.626z" fill="#263238"/>
    <path d="M70.336 241.171c0 9.671-5.715 17.511-12.8 17.511-7.085 0-12.8-7.84-12.8-17.511 0-9.67 5.715-42.88 12.8-42.88 7.085 0 12.8 33.21 12.8 42.88z" fill="#4057A2"/>
    <path d="m64.723 246.234-3.865 1.427.774-2.33-1.85 2.727-1.843.684-.134-7.648 6.72-8.928-3.603 3.604.614-2.509-1.728 3.622-2.041 2.042-.205-11.949-.73 17.427-6.374-6.752 3.5 4.755-3.295-.364 4.07 1.42 2.022 2.746-.352 8.403-2.355-1.593 2.279 3.328-1.076 25.683h3.258l-.55-32.064 6.764-3.731z" fill="#000"/>
    <path d="M64.589 227.014a3.234 3.234 0 0 1-.525 2.036 3.268 3.268 0 0 1-1.798 1.081 2.772 2.772 0 0 1 2.323-3.117zM68.442 232.422a2.783 2.783 0 0 1-2.324 3.124 2.786 2.786 0 0 1 2.324-3.124zM68.442 242.957a2.777 2.777 0 0 1-3.239 2.157 2.777 2.777 0 0 1 3.239-2.157zM47.29 242.957a2.775 2.775 0 0 0 3.27 2.163 2.776 2.776 0 0 0-3.238-2.157l-.032-.006zM64 238.586a2.784 2.784 0 0 1-2.323 3.123A2.757 2.757 0 0 1 64 238.586zM62.995 221.126a2.786 2.786 0 0 1-2.323 3.124 2.783 2.783 0 0 1 2.323-3.124zM60.698 225.619a3.257 3.257 0 0 1-.519 2.035 3.299 3.299 0 0 1-1.804 1.082 3.281 3.281 0 0 1 .524-2.035 3.197 3.197 0 0 1 1.799-1.082zM66.144 222.349a2.758 2.758 0 0 1-2.323 3.117 2.77 2.77 0 0 1 2.323-3.117zM48.448 222.349a2.771 2.771 0 0 0 2.323 3.117 2.77 2.77 0 0 0-2.323-3.117zM63.494 215.642a2.771 2.771 0 0 1-2.323 3.116 3.231 3.231 0 0 1 .525-2.035 3.262 3.262 0 0 1 1.798-1.081zM62.368 209.811a2.784 2.784 0 0 1-1.465 3.603 2.769 2.769 0 0 1 1.465-3.603zM54.285 208.288a2.763 2.763 0 0 1 1.325 3.661 2.784 2.784 0 0 1-1.325-3.661zM58.054 215.258a2.77 2.77 0 0 1-.224 3.884 2.77 2.77 0 0 1 .224-3.884zM57.856 204.883a2.785 2.785 0 0 1-.224 3.885 3.244 3.244 0 0 1-.672-1.99 3.278 3.278 0 0 1 .896-1.895zM49.395 227.014a2.77 2.77 0 0 0 2.323 3.117 3.258 3.258 0 0 0-.518-2.035 3.299 3.299 0 0 0-1.805-1.082zM47.2 233.395a2.784 2.784 0 0 0 2.33 3.123 2.785 2.785 0 0 0-2.33-3.123zM53.03 235.719a3.233 3.233 0 0 0 .525 2.035 3.263 3.263 0 0 0 1.799 1.081 3.284 3.284 0 0 0-.525-2.035 3.2 3.2 0 0 0-1.798-1.081zM54.624 226.867a2.771 2.771 0 0 0 1.331 3.655 2.772 2.772 0 0 0-1.33-3.655zM50.496 250.413a2.785 2.785 0 0 0 2.918-2.56 2.769 2.769 0 0 0-2.918 2.56zM61.818 249.12a2.756 2.756 0 0 0 3.302 2.048 2.78 2.78 0 0 0-3.302-2.048zM51.84 221.126a2.774 2.774 0 0 0 2.323 3.124 2.783 2.783 0 0 0-2.323-3.124zM51.795 215.942a3.26 3.26 0 0 0 .519 2.036 3.291 3.291 0 0 0 1.804 1.081 3.284 3.284 0 0 0-.524-2.035 3.208 3.208 0 0 0-1.799-1.082z" fill="#fff"/>
    <path d="M277.382 241.171c0 9.671-5.721 17.511-12.8 17.511-7.078 0-12.8-7.84-12.8-17.511 0-9.67 5.722-42.88 12.8-42.88 7.079 0 12.8 33.21 12.8 42.88z" fill="#4057A2"/>
    <path d="m271.77 246.234-3.872 1.427.781-2.33-1.85 2.727-1.85.684-.134-7.648 6.726-8.928-3.603 3.604.608-2.509-1.721 3.622-2.042 2.042-.211-11.949-.73 17.427-6.368-6.752 3.495 4.755-3.296-.364 4.076 1.42 2.016 2.746-.352 8.403-2.348-1.593 2.278 3.328-1.082 25.683h3.264l-.556-32.064 6.771-3.731z" fill="#000"/>
    <path d="M271.635 227.014a2.77 2.77 0 0 1-2.323 3.117 3.254 3.254 0 0 1 .519-2.035 3.298 3.298 0 0 1 1.804-1.082zM275.482 232.422a3.25 3.25 0 0 1-.519 2.036c-.465.551-1.1.933-1.805 1.088a2.786 2.786 0 0 1 2.324-3.124zM275.482 242.957a2.777 2.777 0 0 1-3.239 2.157 2.777 2.777 0 0 1 3.239-2.157zM254.336 242.957a2.777 2.777 0 0 0 3.239 2.157 2.777 2.777 0 0 0-3.239-2.157zM271.034 238.586a2.788 2.788 0 0 1-2.324 3.123 2.773 2.773 0 0 1 2.324-3.123zM270.035 221.126a2.772 2.772 0 0 1-2.323 3.124 2.786 2.786 0 0 1 2.323-3.124zM267.744 225.619a2.774 2.774 0 0 1-2.323 3.117 2.774 2.774 0 0 1 2.323-3.117zM273.19 222.349a3.282 3.282 0 0 1-.524 2.035 3.199 3.199 0 0 1-1.799 1.082 3.237 3.237 0 0 1 .525-2.036 3.268 3.268 0 0 1 1.798-1.081zM255.488 222.349a3.283 3.283 0 0 0 .525 2.035 3.196 3.196 0 0 0 1.798 1.082 3.237 3.237 0 0 0-.524-2.036 3.274 3.274 0 0 0-1.799-1.081zM270.534 215.642a3.234 3.234 0 0 1-.524 2.035 3.265 3.265 0 0 1-1.799 1.081 2.77 2.77 0 0 1 2.323-3.116zM269.44 209.811a2.772 2.772 0 0 1-1.466 3.603 2.774 2.774 0 0 1 1.466-3.603zM261.331 208.288a2.784 2.784 0 0 1 1.325 3.661 3.297 3.297 0 0 1-1.414-1.562 3.249 3.249 0 0 1 .089-2.099zM265.095 215.258a3.24 3.24 0 0 1 .684 1.99 3.278 3.278 0 0 1-.908 1.92 2.782 2.782 0 0 1 .224-3.885v-.025zM264.896 204.883a2.77 2.77 0 0 1-.224 3.885 2.784 2.784 0 0 1 .224-3.885zM256.442 227.014a3.237 3.237 0 0 0 .524 2.036 3.274 3.274 0 0 0 1.799 1.081 2.77 2.77 0 0 0-2.323-3.117zM254.246 233.395a2.786 2.786 0 0 0 2.324 3.123 2.789 2.789 0 0 0-.525-2.035 2.79 2.79 0 0 0-1.799-1.088zM260.071 235.719a2.766 2.766 0 0 0 2.323 3.116 2.77 2.77 0 0 0-2.323-3.116zM261.664 226.867a2.773 2.773 0 0 0 1.331 3.655c.263-.671.293-1.41.084-2.1a3.274 3.274 0 0 0-1.415-1.555zM257.536 250.413a2.784 2.784 0 0 0 2.925-2.56 2.774 2.774 0 0 0-2.925 2.56zM268.858 249.12a2.77 2.77 0 0 0 3.308 2.048 2.783 2.783 0 0 0-3.308-2.048zM258.855 221.126a2.78 2.78 0 0 0 2.323 3.124 2.786 2.786 0 0 0-2.323-3.124zM258.835 215.942a3.237 3.237 0 0 0 .525 2.036 3.268 3.268 0 0 0 1.798 1.081 3.284 3.284 0 0 0-.524-2.035 3.21 3.21 0 0 0-1.799-1.082z" fill="#fff"/>
    <path d="M295.155 250.586c0 7.443-4.403 13.44-9.83 13.44-5.427 0-9.837-6.029-9.837-13.44s4.403-32.986 9.837-32.986c5.433 0 9.83 25.543 9.83 32.986z" fill="#4057A2"/>
    <path d="m290.835 254.477-2.976 1.101.596-1.792-1.421 2.099-1.421.525-.102-5.882 5.171-6.874-2.771 2.772.467-1.927-1.325 2.784-1.574 1.568-.154-9.19-.563 13.408-4.903-5.191 2.688 3.655-2.534-.282 3.136 1.095 1.549 2.112-.269 6.47-1.805-1.229 1.747 2.567-.832 19.763h2.516l-.429-24.679 5.209-2.873z" fill="#000"/>
    <path d="M290.733 239.687a2.144 2.144 0 0 1-1.792 2.406 2.142 2.142 0 0 1 1.792-2.406zM293.696 243.84a2.133 2.133 0 0 1-1.792 2.4 2.133 2.133 0 0 1 1.792-2.4zM293.696 251.962a2.146 2.146 0 0 1-2.496 1.657 2.143 2.143 0 0 1 2.496-1.657zM277.415 251.962c.15.532.469 1.001.908 1.337.479.28 1.038.393 1.588.32a2.147 2.147 0 0 0-2.496-1.657zM290.272 248.595a2.132 2.132 0 0 1-1.792 2.4 2.135 2.135 0 0 1 1.792-2.4zM289.504 235.162a2.139 2.139 0 0 1-1.792 2.4 2.132 2.132 0 0 1 1.792-2.4zM287.738 238.611a2.145 2.145 0 0 1-1.786 2.407 2.477 2.477 0 0 1 .403-1.568c.356-.425.842-.72 1.383-.839zM291.93 236.096a2.146 2.146 0 0 1-1.786 2.406 2.48 2.48 0 0 1 .403-1.568 2.51 2.51 0 0 1 1.383-.838zM278.304 236.096a2.146 2.146 0 0 0 1.792 2.406 2.143 2.143 0 0 0-1.792-2.406zM289.92 230.938a2.139 2.139 0 0 1-1.792 2.4 2.132 2.132 0 0 1 1.792-2.4zM289.018 226.451a2.124 2.124 0 0 1-1.127 2.771 2.146 2.146 0 0 1 1.127-2.771zM282.803 225.28a2.143 2.143 0 0 1 1.018 2.816 2.558 2.558 0 0 1-1.088-1.203 2.492 2.492 0 0 1 .07-1.613zM285.703 230.643a2.141 2.141 0 0 1-.173 2.989 2.137 2.137 0 0 1 .173-2.989zM285.549 222.656a2.141 2.141 0 0 1-.173 2.989 2.141 2.141 0 0 1 .173-2.989zM279.04 239.687a2.143 2.143 0 0 0 1.786 2.406 2.477 2.477 0 0 0-.403-1.568 2.499 2.499 0 0 0-1.383-.838zM277.35 244.602a2.13 2.13 0 0 0 1.786 2.4 2.459 2.459 0 0 0-.403-1.562 2.499 2.499 0 0 0-1.383-.838zM281.837 246.4a2.49 2.49 0 0 0 .397 1.568c.36.42.848.712 1.388.832a2.128 2.128 0 0 0-1.785-2.4zM283.059 239.578a2.523 2.523 0 0 0-.064 1.619c.224.506.606.926 1.088 1.197a2.135 2.135 0 0 0-1.024-2.816zM279.885 257.696a2.558 2.558 0 0 0 1.529-.531c.393-.389.645-.898.717-1.447a2.123 2.123 0 0 0-2.246 1.978zM288.595 256.704a2.14 2.14 0 0 0 2.56 1.574 2.142 2.142 0 0 0-2.56-1.574zM280.896 235.162a2.14 2.14 0 0 0 1.792 2.4 2.56 2.56 0 0 0-.403-1.568 2.48 2.48 0 0 0-1.389-.832zM280.883 231.168a2.15 2.15 0 0 0 .405 1.563c.334.448.829.748 1.381.837a2.133 2.133 0 0 0-1.786-2.4z" fill="#fff"/>
    <path d="M158.368 250.586c0 7.443-4.403 13.44-9.83 13.44-5.427 0-9.837-6.029-9.837-13.44s4.403-32.986 9.837-32.986c5.433 0 9.83 25.543 9.83 32.986z" fill="#4057A2"/>
    <path d="m154.048 254.477-2.976 1.101.595-1.792-1.421 2.099-1.42.525-.103-5.882 5.171-6.874-2.771 2.772.467-1.927-1.324 2.784-1.575 1.568-.153-9.19-.564 13.408-4.902-5.191 2.688 3.655-2.534-.282 3.136 1.095 1.555 2.112-.275 6.47-1.805-1.229 1.747 2.567-.826 19.763h2.509l-.429-24.679 5.21-2.873z" fill="#000"/>
    <path d="M153.946 239.687a2.143 2.143 0 0 1-1.786 2.406 2.49 2.49 0 0 1 .397-1.568c.36-.423.847-.717 1.389-.838zM156.909 243.84a2.133 2.133 0 0 1-1.786 2.4 2.48 2.48 0 0 1 .403-1.568 2.514 2.514 0 0 1 1.383-.832zM156.909 251.962a2.143 2.143 0 0 1-2.496 1.657c.15-.532.469-1.001.909-1.337a2.493 2.493 0 0 1 1.587-.32zM140.634 251.962a2.131 2.131 0 0 0 2.489 1.657 2.139 2.139 0 0 0-2.489-1.657zM153.485 248.595a2.132 2.132 0 0 1-1.786 2.4 2.497 2.497 0 0 1 .397-1.568c.361-.42.848-.712 1.389-.832zM152.717 235.162a2.144 2.144 0 0 1-1.786 2.4 2.132 2.132 0 0 1 1.786-2.4zM150.95 238.611a2.144 2.144 0 0 1-1.785 2.407 2.465 2.465 0 0 1 .403-1.568c.355-.425.842-.72 1.382-.839zM155.143 236.096a2.146 2.146 0 0 1-1.786 2.406 2.467 2.467 0 0 1 .403-1.568 2.51 2.51 0 0 1 1.383-.838zM141.523 236.096a2.474 2.474 0 0 0 .404 1.568c.355.425.841.72 1.382.838a2.147 2.147 0 0 0-1.786-2.406zM153.101 230.938a2.146 2.146 0 0 1-1.786 2.4 2.497 2.497 0 0 1 .397-1.568 2.557 2.557 0 0 1 1.389-.832zM152.23 226.451a2.481 2.481 0 0 1 0 1.619 2.55 2.55 0 0 1-1.132 1.152 2.14 2.14 0 0 1 1.126-2.771h.006zM146.016 225.28c.482.269.862.69 1.082 1.197a2.49 2.49 0 0 1-.064 1.619 2.143 2.143 0 0 1-1.018-2.816zM148.915 230.643c.336.44.52.977.525 1.53a2.49 2.49 0 0 1-.698 1.459 2.14 2.14 0 0 1 .173-2.989zM148.762 222.656c.335.44.519.976.524 1.53a2.488 2.488 0 0 1-.697 1.459 2.132 2.132 0 0 1-.524-1.53 2.133 2.133 0 0 1 .697-1.459zM142.253 239.687a2.143 2.143 0 0 0 1.785 2.406 2.465 2.465 0 0 0-.403-1.568 2.493 2.493 0 0 0-1.382-.838zM140.563 244.602a2.13 2.13 0 0 0 1.786 2.4 2.478 2.478 0 0 0-.397-1.562 2.554 2.554 0 0 0-1.389-.838zM145.05 246.4a2.48 2.48 0 0 0 .403 1.568c.357.422.843.714 1.382.832a2.133 2.133 0 0 0-1.785-2.4zM146.272 239.578a2.523 2.523 0 0 0-.064 1.619c.224.506.606.926 1.088 1.197a2.135 2.135 0 0 0-1.024-2.816zM143.098 257.696a2.558 2.558 0 0 0 1.529-.531c.393-.389.645-.898.717-1.447a2.122 2.122 0 0 0-1.53.527 2.12 2.12 0 0 0-.716 1.451zM151.808 256.704a2.144 2.144 0 0 0 2.56 1.574 2.142 2.142 0 0 0-2.56-1.574zM144.109 235.162a2.134 2.134 0 0 0 1.792 2.4 2.56 2.56 0 0 0-.403-1.568 2.48 2.48 0 0 0-1.389-.832zM144.096 231.168a2.145 2.145 0 0 0 1.786 2.4 2.48 2.48 0 0 0-.403-1.568 2.514 2.514 0 0 0-1.383-.832z" fill="#fff"/>
</svg>
