<svg width="12" height="12" viewBox="0 0 12 12" fill="none" xmlns="http://www.w3.org/2000/svg">
    <path fill-rule="evenodd" clip-rule="evenodd" d="M5.375 1h1c.943 0 1.414 0 1.707.293.293.293.293.764.293 1.707v7.625h2.5a.375.375 0 0 1 0 .75h-10a.375.375 0 0 1 0-.75h2.5V3c0-.943 0-1.414.293-1.707C3.96 1 4.432 1 5.375 1zm.5 1.125c.207 0 .375.168.375.375v.625h.625a.375.375 0 1 1 0 .75H6.25V4.5a.375.375 0 1 1-.75 0v-.625h-.625a.375.375 0 1 1 0-.75H5.5V2.5c0-.207.168-.375.375-.375zM4.5 6c0-.207.168-.375.375-.375h2a.375.375 0 1 1 0 .75h-2A.375.375 0 0 1 4.5 6zm0 1.5c0-.207.168-.375.375-.375h2a.375.375 0 1 1 0 .75h-2A.375.375 0 0 1 4.5 7.5zm1.375 1.625c.207 0 .375.168.375.375v1.125H5.5V9.5c0-.207.168-.375.375-.375z" fill="#41A592"/>
    <path opacity=".5" d="M10.457 2.944c.168.253.168.604.168 1.306v6.375h.25a.375.375 0 0 1 0 .75h-10a.375.375 0 0 1 0-.75h.25V4.25c0-.702 0-1.053.169-1.306a1 1 0 0 1 .275-.276c.221-.147 1.269-.165 1.81-.168-.003.146-.003.298-.003.455v.67H2.125a.375.375 0 0 0 0 .75h1.251v.75H2.125a.375.375 0 0 0 0 .75h1.251v.75H2.125a.375.375 0 0 0 0 .75h1.251v3.25h5v-3.25h1.249a.375.375 0 1 0 0-.75H8.376v-.75h1.249a.375.375 0 1 0 0-.75H8.376v-.75h1.249a.375.375 0 1 0 0-.75H8.376v-.67c0-.157 0-.31-.002-.455.541.003 1.586.021 1.807.168a1 1 0 0 1 .276.276z" fill="#41A592"/>
</svg>
