<svg width="50" height="57" viewBox="0 0 50 57" fill="none" xmlns="http://www.w3.org/2000/svg">
    <path d="M25.537 21v6.1M22.487 24h6.095" stroke="#B3C5DC" stroke-width="2" stroke-miterlimit="10"/>
    <path d="M25.537 30.574a6.643 6.643 0 1 0 0-13.287 6.643 6.643 0 0 0 0 13.287z" stroke="#B3C5DC" stroke-width="1.5" stroke-miterlimit="10"/>
    <path d="m10.108 40.148 6.78 7.027c1.027 1.059 1.476 2.581 1.088 4.005-.416 1.508-1.754 3.068-5.442 3.253" stroke="#B3C5DC" stroke-width="2" stroke-miterlimit="10"/>
    <path d="M25.513 30.474s.019 1.523.019 6.067c0 4.842 2.355 7.366 6.856 7.655.487.033 5.196.194 6.69-4.289.492-1.475.227-14.312.227-14.312h6.246c1.21 0 3.665-.884 1.76-2.95L26.037 1.456c-.6-.6-1.57-.61-2.185-.024L1.773 22.451c-1.485 1.64-.7 3.144 1.257 3.144h6.875V40.11l-6.78 7.026c-1.026 1.059-1.476 2.581-1.088 4.005.416 1.508 1.754 3.068 5.442 3.253" stroke="#B3C5DC" stroke-width="2" stroke-miterlimit="10"/>
    <path d="M6.59 57a2.567 2.567 0 1 0 0-5.135 2.567 2.567 0 0 0 0 5.135zM13.215 56.957a2.567 2.567 0 1 0 0-5.134 2.567 2.567 0 0 0 0 5.134z" fill="#B3C5DC" stroke="#0B556D" stroke-width=".01" stroke-miterlimit="10"/>
</svg>
