<svg width="150" height="150" viewBox="0 0 150 150" fill="none" xmlns="http://www.w3.org/2000/svg">
<path d="M133.176 99.0601H78.9509C77.9819 99.0601 77.1929 98.2711 77.1929 97.3021V18.3181C77.1929 17.3491 77.9819 16.5601 78.9509 16.5601H133.176C134.145 16.5601 134.934 17.3491 134.934 18.3181V97.3021C134.934 98.2711 134.145 99.0601 133.176 99.0601ZM78.9509 16.6351C78.0239 16.6351 77.2679 17.3911 77.2679 18.3181V97.3021C77.2679 98.2291 78.0239 98.9851 78.9509 98.9851H133.176C134.103 98.9851 134.859 98.2291 134.859 97.3021V18.3181C134.859 17.3911 134.103 16.6351 133.176 16.6351H78.9509Z" fill="#E0E0E0"/>
<path d="M70.647 99.0601H16.425C15.456 99.0601 14.667 98.2711 14.667 97.3021V18.3181C14.667 17.3491 15.456 16.5601 16.425 16.5601H70.647C71.616 16.5601 72.405 17.3491 72.405 18.3181V97.3021C72.405 98.2711 71.616 99.0601 70.647 99.0601ZM16.425 16.6351C15.498 16.6351 14.742 17.3911 14.742 18.3181V97.3021C14.742 98.2291 15.498 98.9851 16.425 98.9851H70.647C71.574 98.9851 72.33 98.2291 72.33 97.3021V18.3181C72.33 17.3911 71.574 16.6351 70.647 16.6351H16.425Z" fill="#E0E0E0"/>
<path d="M150 117.381H0V117.456H150V117.381Z" fill="#E0E0E0"/>
<path d="M20.319 121.659H15.501V121.734H20.319V121.659Z" fill="#E0E0E0"/>
<path d="M67.164 120.846H51.105V120.921H67.164V120.846Z" fill="#E0E0E0"/>
<path d="M31.4939 124.446H20.6189V124.521H31.4939V124.446Z" fill="#E0E0E0"/>
<path d="M126.462 120.807H113.505V120.882H126.462V120.807Z" fill="#E0E0E0"/>
<path d="M131.034 120.807H129.135V120.882H131.034V120.807Z" fill="#E0E0E0"/>
<path d="M111.03 122.676H94.863V122.751H111.03V122.676Z" fill="#E0E0E0"/>
<path d="M85.1249 75.1621H68.2859V80.6131H85.1249V75.1621Z" fill="#F5F5F5"/>
<path d="M135.132 41.2949H118.293V46.7459H135.132V41.2949Z" fill="#F5F5F5"/>
<path d="M137.463 99.729H120.624V105.18H137.463V99.729Z" fill="#F5F5F5"/>
<path d="M58.8661 8.84717H42.0271V14.2982H58.8661V8.84717Z" fill="#F5F5F5"/>
<path d="M115.053 64.5449H98.2141V69.9959H115.053V64.5449Z" fill="#EBEBEB"/>
<path d="M121.8 69.8398H104.961V75.2908H121.8V69.8398Z" fill="#F5F5F5"/>
<path d="M135.132 12.75H118.293V18.201H135.132V12.75Z" fill="#EBEBEB"/>
<path d="M141.876 18.0479H125.037V23.4989H141.876V18.0479Z" fill="#F5F5F5"/>
<path d="M50.4479 104.757H33.6089V110.208H50.4479V104.757Z" fill="#EBEBEB"/>
<path d="M57.1918 110.052H40.3528V115.503H57.1918V110.052Z" fill="#F5F5F5"/>
<path d="M29.2289 61.104H12.3899V66.555H29.2289V61.104Z" fill="#F0F0F0"/>
<path d="M35.9728 66.3989H19.1338V71.8499H35.9728V66.3989Z" fill="#F5F5F5"/>
<path d="M70.0921 46.2778H17.6941V49.2088H70.0921V46.2778Z" fill="#E6E6E6"/>
<path d="M25.6351 48.5039H23.0701V53.0399H25.6351V48.5039Z" fill="#E6E6E6"/>
<path d="M64.23 48.5039H61.665V53.0399H64.23V48.5039Z" fill="#E6E6E6"/>
<path d="M43.818 43.7522L40.23 26.3042H26.709L23.121 43.7522C22.857 45.0422 23.709 46.2782 24.867 46.2782H42.075C43.233 46.2782 44.085 45.0422 43.821 43.7522H43.818Z" fill="#EBEBEB"/>
<path d="M26.3671 24.834H33.8251V26.304H26.3671C25.9621 26.304 25.6321 25.974 25.6321 25.569C25.6321 25.164 25.9621 24.834 26.3671 24.834Z" fill="#E6E6E6"/>
<path d="M40.5692 26.3042H33.1112V24.8342H40.5692C40.9742 24.8342 41.3042 25.1642 41.3042 25.5692C41.3042 25.9742 40.9742 26.3042 40.5692 26.3042Z" fill="#E6E6E6"/>
<path d="M39.447 26.3042H27.537L24.207 43.5752C24.06 44.3432 24.57 45.0722 25.257 45.0722H41.73C42.417 45.0722 42.927 44.3432 42.78 43.5752L39.45 26.3042H39.447Z" fill="#EBEBEB"/>
<path opacity="0.3" d="M29.511 25.6652H26.835C26.7 25.6652 26.592 25.5572 26.592 25.4222C26.592 25.2872 26.7 25.1792 26.835 25.1792H29.511C29.646 25.1792 29.754 25.2872 29.754 25.4222C29.754 25.5572 29.646 25.6652 29.511 25.6652Z" fill="white"/>
<path opacity="0.3" d="M30.462 25.6652H30.189C30.054 25.6652 29.946 25.5572 29.946 25.4222C29.946 25.2872 30.054 25.1792 30.189 25.1792H30.462C30.597 25.1792 30.705 25.2872 30.705 25.4222C30.705 25.5572 30.597 25.6652 30.462 25.6652Z" fill="white"/>
<path d="M42.78 43.5751L41.193 35.3491L25.776 35.4421L24.207 43.5751C24.06 44.3431 24.57 45.0721 25.257 45.0721H41.73C42.417 45.0721 42.927 44.3431 42.78 43.5751Z" fill="#E0E0E0"/>
<path d="M33.5011 35.019C29.2351 35.019 25.7761 35.208 25.7761 35.442C25.7761 35.676 29.2351 35.865 33.5011 35.865C37.7671 35.865 41.2261 35.676 41.2261 35.442C41.2261 35.208 37.7671 35.019 33.5011 35.019Z" fill="#F5F5F5"/>
<g opacity="0.3">
<path d="M30.018 29.1692C30.48 29.4062 30.351 30.0392 30.312 30.2912C30.03 32.1122 29.943 33.4562 29.559 35.2682C29.442 35.8262 29.238 36.3932 28.842 36.8042C28.446 37.2182 27.747 37.3982 27.3 37.0472C26.814 36.6662 26.862 35.9252 26.961 35.3132C27.162 34.0472 27.363 32.7842 27.564 31.5182C27.645 31.0082 27.729 30.4862 27.963 30.0272C28.197 29.5652 28.611 29.1662 29.121 29.0822C29.121 29.0822 29.739 29.0222 30.018 29.1662V29.1692Z" fill="white"/>
</g>
<path opacity="0.3" d="M28.578 40.9231C28.395 41.7631 27.774 42.3391 27.192 42.2131C26.61 42.0871 26.289 41.3011 26.472 40.4611C26.655 39.6211 27.276 39.0451 27.858 39.1711C28.44 39.2971 28.761 40.0831 28.578 40.9231Z" fill="white"/>
<path d="M66.1471 43.7522L62.5591 26.3042H49.0381L45.4501 43.7522C45.1861 45.0422 46.0381 46.2782 47.1961 46.2782H64.4041C65.5621 46.2782 66.4141 45.0422 66.1501 43.7522H66.1471Z" fill="#F0F0F0"/>
<path d="M48.6962 24.834H56.1542V26.304H48.6962C48.2912 26.304 47.9612 25.974 47.9612 25.569C47.9612 25.164 48.2912 24.834 48.6962 24.834Z" fill="#F0F0F0"/>
<path d="M62.9012 26.3042H55.4432V24.8342H62.9012C63.3062 24.8342 63.6362 25.1642 63.6362 25.5692C63.6362 25.9742 63.3062 26.3042 62.9012 26.3042Z" fill="#F0F0F0"/>
<path d="M61.7791 26.3042H49.8691L46.5391 43.5752C46.3921 44.3432 46.9021 45.0722 47.5891 45.0722H64.0621C64.7491 45.0722 65.2591 44.3432 65.1121 43.5752L61.7821 26.3042H61.7791Z" fill="#F5F5F5"/>
<path opacity="0.3" d="M51.8401 25.6652H49.1641C49.0291 25.6652 48.9211 25.5572 48.9211 25.4222C48.9211 25.2872 49.0291 25.1792 49.1641 25.1792H51.8401C51.9751 25.1792 52.0831 25.2872 52.0831 25.4222C52.0831 25.5572 51.9751 25.6652 51.8401 25.6652Z" fill="white"/>
<path opacity="0.3" d="M52.7941 25.6652H52.5211C52.3861 25.6652 52.2781 25.5572 52.2781 25.4222C52.2781 25.2872 52.3861 25.1792 52.5211 25.1792H52.7941C52.9291 25.1792 53.0371 25.2872 53.0371 25.4222C53.0371 25.5572 52.9291 25.6652 52.7941 25.6652Z" fill="white"/>
<path d="M52.3501 29.1692C52.8121 29.4062 52.6831 30.0392 52.6441 30.2912C52.3621 32.1122 52.2751 33.4562 51.8911 35.2682C51.7741 35.8262 51.5701 36.3932 51.1741 36.8042C50.7781 37.2182 50.0791 37.3982 49.6321 37.0472C49.1461 36.6662 49.1941 35.9252 49.2931 35.3132C49.4941 34.0472 49.6951 32.7842 49.8961 31.5182C49.9771 31.0082 50.0611 30.4862 50.2951 30.0272C50.5291 29.5652 50.9431 29.1662 51.4531 29.0822C51.4531 29.0822 52.0711 29.0222 52.3501 29.1662V29.1692Z" fill="#FAFAFA"/>
<path d="M50.2831 40.4402C50.1001 41.2802 49.4791 41.8562 48.8971 41.7302C48.3151 41.6042 47.9941 40.8182 48.1771 39.9782C48.3601 39.1382 48.9811 38.5622 49.5631 38.6882C50.1451 38.8142 50.4661 39.6002 50.2831 40.4402Z" fill="#FAFAFA"/>
<path d="M138.651 136.176C138.651 137.193 110.595 138.015 75.9901 138.015C41.3851 138.015 13.3291 137.19 13.3291 136.176C13.3291 135.162 41.3851 134.337 75.9901 134.337C110.595 134.337 138.651 135.162 138.651 136.176Z" fill="#F5F5F5"/>
<path d="M127.17 13.3618H85.9771V56.2648H127.17V13.3618Z" fill="#263238"/>
<path d="M125.271 15.3867H87.876V54.2397H125.271V15.3867Z" fill="white"/>
<path d="M116.612 29.749L109.796 34.6431L109.927 34.8258L116.743 29.9317L116.612 29.749Z" fill="#263238"/>
<path d="M109.559 35.812L109.442 36.0044L116.459 40.2625L116.576 40.0701L109.559 35.812Z" fill="#263238"/>
<path d="M106.797 38.8799H106.572V43.4969H106.797V38.8799Z" fill="#263238"/>
<path d="M106.683 46.1998C107.886 46.1998 108.861 45.2246 108.861 44.0218C108.861 42.8189 107.886 41.8438 106.683 41.8438C105.48 41.8438 104.505 42.8189 104.505 44.0218C104.505 45.2246 105.48 46.1998 106.683 46.1998Z" fill="#4057A2"/>
<path opacity="0.3" d="M106.683 46.1998C107.886 46.1998 108.861 45.2246 108.861 44.0218C108.861 42.8189 107.886 41.8438 106.683 41.8438C105.48 41.8438 104.505 42.8189 104.505 44.0218C104.505 45.2246 105.48 46.1998 106.683 46.1998Z" fill="black"/>
<path d="M116.577 43.4966C118.108 43.4966 119.349 42.2556 119.349 40.7246C119.349 39.1937 118.108 37.9526 116.577 37.9526C115.046 37.9526 113.805 39.1937 113.805 40.7246C113.805 42.2556 115.046 43.4966 116.577 43.4966Z" fill="#4057A2"/>
<path d="M118.044 29.856C118.044 30.699 117.363 31.38 116.52 31.38C115.677 31.38 114.996 30.699 114.996 29.856C114.996 29.013 115.677 28.332 116.52 28.332C117.363 28.332 118.044 29.013 118.044 29.856Z" fill="#4057A2"/>
<path opacity="0.3" d="M118.044 29.856C118.044 30.699 117.363 31.38 116.52 31.38C115.677 31.38 114.996 30.699 114.996 29.856C114.996 29.013 115.677 28.332 116.52 28.332C117.363 28.332 118.044 29.013 118.044 29.856Z" fill="black"/>
<path d="M105.8 35.3494L99.2437 40.3872L99.3807 40.5656L105.937 35.5278L105.8 35.3494Z" fill="#263238"/>
<path d="M106.86 34.5567L98.1689 28.7967L98.2919 28.6107L106.587 34.1067L105.648 25.0977L105.87 25.0737L106.86 34.5567Z" fill="#263238"/>
<path d="M105.759 26.7478C106.677 26.7478 107.421 26.0037 107.421 25.0858C107.421 24.1679 106.677 23.4238 105.759 23.4238C104.841 23.4238 104.097 24.1679 104.097 25.0858C104.097 26.0037 104.841 26.7478 105.759 26.7478Z" fill="#4057A2"/>
<path d="M99.9539 42.2017C100.906 41.2492 100.906 39.7049 99.9539 38.7524C99.0014 37.7999 97.4572 37.7999 96.5047 38.7524C95.5522 39.7049 95.5522 41.2492 96.5047 42.2017C97.4572 43.1542 99.0014 43.1542 99.9539 42.2017Z" fill="#4057A2"/>
<path d="M100.364 28.8272C100.788 27.041 99.6836 25.2494 97.8974 24.8255C96.1112 24.4016 94.3196 25.506 93.8957 27.2922C93.4718 29.0784 94.5762 30.87 96.3624 31.2939C98.1485 31.7178 99.9402 30.6134 100.364 28.8272Z" fill="#4057A2"/>
<path d="M107.178 39.546C109.854 39.546 112.023 37.3768 112.023 34.701C112.023 32.0251 109.854 29.856 107.178 29.856C104.502 29.856 102.333 32.0251 102.333 34.701C102.333 37.3768 104.502 39.546 107.178 39.546Z" fill="#4057A2"/>
<path opacity="0.3" d="M107.178 39.546C109.854 39.546 112.023 37.3768 112.023 34.701C112.023 32.0251 109.854 29.856 107.178 29.856C104.502 29.856 102.333 32.0251 102.333 34.701C102.333 37.3768 104.502 39.546 107.178 39.546Z" fill="white"/>
<path opacity="0.4" d="M85.9771 56.2618L87.8761 54.2368H125.271L127.17 56.2858L85.9771 56.2618Z" fill="black"/>
<path opacity="0.4" d="M85.9771 13.3618L87.8761 15.3868H125.271L127.17 13.3618H85.9771Z" fill="black"/>
<path opacity="0.2" d="M127.17 13.3618L125.271 15.3868V54.2368L127.17 56.2858V13.3618Z" fill="white"/>
<path opacity="0.2" d="M85.9771 13.3618L87.8761 15.3868V54.2368L85.9771 56.2858V13.3618Z" fill="white"/>
<g opacity="0.2">
<path d="M98.568 25.8207C98.391 25.5747 97.776 25.0797 96.525 25.4097C95.775 25.6707 95.346 26.0127 94.893 26.6667C94.44 27.3177 94.32 28.3857 94.689 29.0907C94.803 29.3127 94.971 29.5137 95.193 29.6247C95.415 29.7357 95.697 29.7477 95.907 29.6097C96.306 29.3487 96.258 28.7517 96.486 28.3317C96.711 27.9207 97.182 27.7227 97.614 27.5427C98.046 27.3597 98.511 27.1227 98.679 26.6847C98.787 26.4027 98.745 26.0667 98.568 25.8207Z" fill="white"/>
</g>
<g opacity="0.2">
<path d="M106.116 24.0627C106.047 23.9637 105.801 23.7687 105.303 23.8977C105.006 24.0027 104.835 24.1377 104.655 24.3957C104.475 24.6537 104.427 25.0797 104.574 25.3587C104.619 25.4457 104.685 25.5267 104.775 25.5717C104.865 25.6167 104.976 25.6197 105.057 25.5657C105.216 25.4607 105.195 25.2237 105.288 25.0587C105.378 24.8967 105.564 24.8187 105.735 24.7437C105.906 24.6717 106.092 24.5757 106.158 24.4047C106.2 24.2937 106.185 24.1587 106.113 24.0627H106.116Z" fill="white"/>
</g>
<g opacity="0.2">
<path d="M117.06 28.842C116.991 28.743 116.745 28.548 116.247 28.677C115.95 28.782 115.779 28.917 115.599 29.175C115.419 29.433 115.371 29.859 115.518 30.138C115.563 30.225 115.629 30.306 115.719 30.351C115.806 30.396 115.92 30.399 116.001 30.345C116.16 30.24 116.139 30.003 116.232 29.838C116.322 29.676 116.508 29.598 116.679 29.523C116.85 29.451 117.036 29.355 117.102 29.184C117.144 29.073 117.129 28.938 117.057 28.842H117.06Z" fill="white"/>
</g>
<g opacity="0.2">
<path d="M117.303 39.0359C117.183 38.8709 116.769 38.5379 115.926 38.7569C115.422 38.9339 115.131 39.1649 114.828 39.6029C114.525 40.0409 114.444 40.7609 114.69 41.2349C114.768 41.3849 114.879 41.5199 115.029 41.5949C115.179 41.6699 115.368 41.6759 115.509 41.5859C115.779 41.4089 115.746 41.0069 115.899 40.7249C116.052 40.4489 116.367 40.3169 116.658 40.1939C116.949 40.0709 117.261 39.9119 117.375 39.6179C117.447 39.4289 117.42 39.2009 117.3 39.0359H117.303Z" fill="white"/>
</g>
<g opacity="0.2">
<path d="M107.49 42.5579C107.379 42.4049 106.995 42.0959 106.212 42.2999C105.744 42.4619 105.474 42.6779 105.192 43.0859C104.91 43.4939 104.835 44.1599 105.063 44.6009C105.135 44.7389 105.24 44.8649 105.378 44.9339C105.516 45.0029 105.693 45.0089 105.825 44.9249C106.074 44.7629 106.044 44.3879 106.188 44.1269C106.329 43.8689 106.623 43.7459 106.893 43.6319C107.163 43.5179 107.454 43.3709 107.559 43.0979C107.628 42.9209 107.601 42.7109 107.49 42.5579Z" fill="white"/>
</g>
<g opacity="0.2">
<path d="M98.9881 39.0267C98.8771 38.8737 98.4931 38.5647 97.7101 38.7687C97.2421 38.9307 96.9721 39.1467 96.6901 39.5547C96.4081 39.9627 96.3331 40.6287 96.5611 41.0697C96.6331 41.2077 96.7381 41.3337 96.8761 41.4027C97.0141 41.4717 97.1911 41.4777 97.3231 41.3937C97.5721 41.2317 97.5421 40.8567 97.6861 40.5957C97.8271 40.3377 98.1211 40.2147 98.3911 40.1007C98.6611 39.9867 98.9521 39.8397 99.0571 39.5667C99.1261 39.3897 99.0991 39.1797 98.9881 39.0267Z" fill="white"/>
</g>
<g opacity="0.2">
<path d="M108.405 31.2899C108.177 30.9719 107.382 30.3329 105.759 30.7559C104.79 31.0919 104.232 31.5389 103.65 32.3819C103.065 33.2249 102.912 34.6079 103.386 35.5169C103.536 35.8019 103.752 36.0629 104.04 36.2069C104.328 36.3509 104.694 36.3659 104.961 36.1889C105.477 35.8529 105.414 35.0789 105.711 34.5359C106.002 34.0049 106.614 33.7499 107.172 33.5129C107.73 33.2759 108.33 32.9699 108.549 32.4059C108.69 32.0399 108.633 31.6079 108.405 31.2899Z" fill="white"/>
</g>
<path d="M96.564 92.9134L93.45 97.6144L96.2789 99.5554L100.041 94.9174C100.041 94.9174 98.598 92.3944 96.564 92.9104V92.9134Z" fill="#263238"/>
<path d="M94.7731 86.4092L87.5671 88.9202L88.4551 92.2142L95.3761 90.7022C95.3761 90.7022 96.5131 88.1342 94.7731 86.4122V86.4092Z" fill="#263238"/>
<path d="M97.365 88.2812L98.268 91.1792L101.658 93.7832L105.606 94.0802L116.088 80.1212L116.94 78.9782L116.076 76.3712L124.185 65.3852L119.28 61.6982L111.387 72.9722L108.441 73.2272L107.739 74.1782L97.365 88.2812Z" fill="#263238"/>
<path d="M107.739 74.1782L116.088 80.1212L116.94 78.9782L116.076 76.3712L124.185 65.3852L119.28 61.6982L111.387 72.9722L108.441 73.2272L107.739 74.1782Z" fill="#263238"/>
<path d="M98.7781 93.5343L96.0121 93.0933L94.6741 91.1583L95.8111 87.1113L98.7781 93.5343Z" fill="#263238"/>
<path d="M102.36 94.5423L96.1861 84.0093L93.7231 85.4823L99.9541 96.3753L102.36 94.5423Z" fill="#263238"/>
<path opacity="0.2" d="M102.36 94.5423L96.1861 84.0093L93.7231 85.4823L99.9541 96.3753L102.36 94.5423Z" fill="white"/>
<path d="M95.3282 127.275L80.0252 118.494L79.1492 120.129L94.0652 128.772L95.3282 127.275Z" fill="#263238"/>
<path opacity="0.1" d="M95.3282 127.275L80.0252 118.494L79.1492 120.129L94.0652 128.772L95.3282 127.275Z" fill="white"/>
<path d="M87.777 105.891L86.25 108.669L93.591 112.698L95.55 109.995L87.777 105.891Z" fill="#263238"/>
<path opacity="0.05" d="M87.777 105.891L86.25 108.669L93.591 112.698L95.55 109.995L87.777 105.891Z" fill="white"/>
<path d="M105.357 111.678L103.101 115.485L77.9221 101.538L80.5591 97.749L105.357 111.678Z" fill="#263238"/>
<path d="M95.127 112.917L85.818 107.805L84.627 109.956L93.735 115.041L95.127 112.917Z" fill="#263238"/>
<path opacity="0.2" d="M105.357 111.678L103.101 115.485L77.9221 101.538L80.5591 97.749L105.357 111.678Z" fill="white"/>
<path opacity="0.1" d="M95.127 112.917L85.818 107.805L84.627 109.956L93.735 115.041L95.127 112.917Z" fill="white"/>
<path d="M119.397 88.7403L111.234 84.8613L103.431 99.5043L110.595 103.659L110.826 103.536C112.083 102.861 113.601 102.885 114.837 103.599L116.187 104.382C117.045 104.877 117.453 105.894 117.171 106.845C115.746 111.648 112.896 115.902 108.999 119.046C108.405 119.532 107.568 119.592 106.911 119.19L104.901 117.858C103.965 117.225 103.395 116.178 103.371 115.047L92.5142 109.101L91.7432 110.511L96.9302 113.451V119.937L92.3972 129.126L96.9062 131.7C96.9062 131.7 114.006 128.586 120.291 115.602C126.576 102.618 119.394 88.7403 119.394 88.7403H119.397Z" fill="#263238"/>
<path opacity="0.7" d="M119.397 88.7403L111.234 84.8613L103.431 99.5043L110.595 103.659L110.826 103.536C112.083 102.861 113.601 102.885 114.837 103.599L116.187 104.382C117.045 104.877 117.453 105.894 117.171 106.845C115.746 111.648 112.896 115.902 108.999 119.046C108.405 119.532 107.568 119.592 106.911 119.19L104.901 117.858C103.965 117.225 103.395 116.178 103.371 115.047L92.5142 109.101L91.7432 110.511L96.9302 113.451V119.937L92.3972 129.126L96.9062 131.7C96.9062 131.7 114.006 128.586 120.291 115.602C126.576 102.618 119.394 88.7403 119.394 88.7403H119.397Z" fill="white"/>
<path opacity="0.2" d="M108.084 102.204L122.139 96.9844L122.334 98.0074L109.29 102.903L108.084 102.204Z" fill="white"/>
<path opacity="0.2" d="M103.434 99.5044L120.822 92.2114C121.251 93.3904 121.602 94.6084 121.887 95.8564L107.31 101.751L103.434 99.5014V99.5044Z" fill="white"/>
<path d="M107.166 97.8841C106.974 99.2011 107.889 100.425 109.206 100.617C110.523 100.809 111.747 99.8941 111.939 98.5771C112.131 97.2601 111.219 96.0391 109.902 95.8471C108.585 95.6581 107.361 96.5701 107.166 97.8871V97.8841Z" fill="#263238"/>
<path d="M89.2712 122.958L87.4742 125.658L78.3782 120.501L80.0432 117.858L89.2712 122.958Z" fill="#263238"/>
<path d="M106.65 87.7592C106.317 90.0122 107.874 92.1062 110.127 92.4362C112.38 92.7692 114.474 91.2122 114.807 88.9592C115.14 86.7062 113.583 84.6122 111.33 84.2792H111.318C109.071 83.9522 106.983 85.5092 106.653 87.7562L106.65 87.7592Z" fill="#263238"/>
<path opacity="0.2" d="M89.2712 122.958L87.4742 125.658L78.3782 120.501L80.0432 117.858L89.2712 122.958Z" fill="white"/>
<path opacity="0.5" d="M108.69 88.0683C108.525 89.1933 109.302 90.2373 110.427 90.4023C111.552 90.5673 112.596 89.7903 112.761 88.6653C112.926 87.5403 112.149 86.4963 111.024 86.3313H111.006C109.887 86.1783 108.855 86.9523 108.687 88.0683H108.69Z" fill="white"/>
<path d="M124.806 134.574H75.9871C75.9871 133.131 78.2941 131.961 81.1411 131.961H122.19C123.633 131.961 124.803 133.131 124.803 134.574H124.806Z" fill="#263238"/>
<path d="M112.95 134.58L106.029 122.541C105.267 121.218 103.83 120.435 102.309 120.513C100.215 120.621 98.55 122.307 98.466 124.404L98.061 134.571L112.953 134.583L112.95 134.58Z" fill="#263238"/>
<path opacity="0.5" d="M112.95 134.58L106.029 122.541C105.267 121.218 103.83 120.435 102.309 120.513C100.215 120.621 98.55 122.307 98.466 124.404L98.061 134.571L112.953 134.583L112.95 134.58Z" fill="white"/>
<path d="M100.314 124.959C100.314 126.294 101.397 127.377 102.732 127.377C104.067 127.377 105.15 126.294 105.15 124.959C105.15 123.624 104.067 122.541 102.732 122.541H102.726C101.394 122.544 100.314 123.624 100.314 124.959Z" fill="#263238"/>
<path d="M83.1666 96.2696L81.8723 98.6084L96.2461 106.563L97.5404 104.224L83.1666 96.2696Z" fill="#4057A2"/>
<path d="M54.2938 71.0133C54.7378 69.1383 56.2528 67.6233 58.1008 67.1103C59.9488 66.5973 61.8778 67.2423 63.2188 68.5503C64.4158 69.7173 65.0398 71.2623 65.1238 72.9183C65.1718 73.8363 65.1868 74.7573 65.1988 75.6753C65.2408 78.4443 65.2318 81.2133 65.2228 83.9793C65.2138 86.7453 65.1868 89.6763 65.1568 92.5233C65.1418 94.0113 65.0608 95.5113 65.1028 96.9963C65.1028 97.0173 65.1028 97.0413 65.1028 97.0623C65.0938 97.6413 65.9938 97.6413 66.0028 97.0623C66.0208 95.7423 66.0358 94.4223 66.0508 93.1023C66.0838 90.2013 66.1078 87.2973 66.1198 84.3963C66.1318 81.4953 66.1408 78.6213 66.0988 75.7353C66.0838 74.7783 66.0689 73.8183 66.0209 72.8613C65.9249 71.0763 65.2738 69.4023 64.0348 68.0943C62.6908 66.6783 60.7168 65.8293 58.7548 66.0663C56.7929 66.3033 54.8879 67.5843 53.9459 69.3813C53.7149 69.8223 53.5378 70.2873 53.4238 70.7703C53.2888 71.3343 54.1588 71.5743 54.2908 71.0103L54.2938 71.0133Z" fill="#4057A2"/>
<path d="M53.9667 70.9232C54.4377 68.9372 56.0517 67.3292 58.0107 66.7832C59.9697 66.2372 62.0307 66.9182 63.4587 68.3102C64.7217 69.5402 65.3757 71.1722 65.4627 72.9152C65.5107 73.8332 65.5257 74.7542 65.5377 75.6722C65.5797 78.4412 65.5707 81.2102 65.5617 83.9762C65.5527 86.7422 65.5257 89.6732 65.4957 92.5202C65.4837 93.5222 65.4747 94.5242 65.4627 95.5232C65.4567 96.0032 65.3967 96.5162 65.4447 96.9932C65.4447 97.0142 65.4447 97.0382 65.4447 97.0592C65.4447 97.2032 65.6667 97.2032 65.6697 97.0592C65.6877 95.7392 65.7027 94.4192 65.7177 93.0992C65.7507 90.1982 65.7747 87.2942 65.7867 84.3932C65.7987 81.4922 65.8077 78.6182 65.7657 75.7322C65.7507 74.7752 65.7357 73.8152 65.6877 72.8582C65.5977 71.1632 64.9767 69.5702 63.8007 68.3312C62.5137 66.9752 60.6387 66.1712 58.7577 66.4022C56.8767 66.6332 55.1247 67.8662 54.2397 69.5492C54.0207 69.9632 53.8587 70.4042 53.7507 70.8602C53.7177 71.0012 53.9337 71.0612 53.9667 70.9202V70.9232Z" fill="white"/>
<path d="M137.973 132.055L133.812 111.832H118.143L113.982 132.055C113.676 133.549 114.666 134.983 116.004 134.983H135.948C137.289 134.983 138.279 133.552 137.97 132.055H137.973Z" fill="#4057A2"/>
<path d="M126.387 111.834H117.744C117.273 111.834 116.892 111.453 116.892 110.982C116.892 110.511 117.273 110.13 117.744 110.13H126.387V111.834Z" fill="#4057A2"/>
<path d="M125.565 111.834H134.208C134.679 111.834 135.06 111.453 135.06 110.982C135.06 110.511 134.679 110.13 134.208 110.13H125.565V111.834Z" fill="#4057A2"/>
<g opacity="0.3">
<path d="M126.387 111.834H117.744C117.273 111.834 116.892 111.453 116.892 110.982C116.892 110.511 117.273 110.13 117.744 110.13H126.387V111.834Z" fill="white"/>
<path d="M125.565 111.834H134.208C134.679 111.834 135.06 111.453 135.06 110.982C135.06 110.511 134.679 110.13 134.208 110.13H125.565V111.834Z" fill="white"/>
</g>
<path opacity="0.3" d="M137.973 132.055L133.812 111.832H118.143L113.982 132.055C113.676 133.549 114.666 134.983 116.004 134.983H135.948C137.289 134.983 138.279 133.552 137.97 132.055H137.973Z" fill="white"/>
<path opacity="0.3" d="M132.906 111.834H119.103L115.242 131.85C115.071 132.741 115.662 133.584 116.457 133.584H135.549C136.344 133.584 136.938 132.741 136.764 131.85L132.903 111.834H132.906Z" fill="white"/>
<path opacity="0.3" d="M118.143 111.834L118.008 112.482H133.944L133.812 111.834H118.143Z" fill="black"/>
<path opacity="0.3" d="M121.389 111.093H118.29C118.134 111.093 118.008 110.967 118.008 110.811C118.008 110.655 118.134 110.529 118.29 110.529H121.389C121.545 110.529 121.671 110.655 121.671 110.811C121.671 110.967 121.545 111.093 121.389 111.093Z" fill="white"/>
<path opacity="0.3" d="M122.493 111.093H122.178C122.022 111.093 121.896 110.967 121.896 110.811C121.896 110.655 122.022 110.529 122.178 110.529H122.493C122.649 110.529 122.775 110.655 122.775 110.811C122.775 110.967 122.649 111.093 122.493 111.093Z" fill="white"/>
<path d="M136.767 131.85L134.928 122.316L117.06 122.424L115.242 131.85C115.071 132.741 115.662 133.584 116.457 133.584H135.549C136.344 133.584 136.938 132.741 136.764 131.85H136.767Z" fill="#4057A2"/>
<path d="M126.015 121.932C121.071 121.932 117.06 122.151 117.06 122.424C117.06 122.697 121.068 122.916 126.015 122.916C130.962 122.916 134.97 122.697 134.97 122.424C134.97 122.151 130.962 121.932 126.015 121.932Z" fill="#4057A2"/>
<path opacity="0.3" d="M126.015 121.932C121.071 121.932 117.06 122.151 117.06 122.424C117.06 122.697 121.068 122.916 126.015 122.916C130.962 122.916 134.97 122.697 134.97 122.424C134.97 122.151 130.962 121.932 126.015 121.932Z" fill="black"/>
<g opacity="0.3">
<path d="M121.98 115.155C122.514 115.431 122.367 116.163 122.322 116.457C121.995 118.566 121.893 120.126 121.449 122.226C121.311 122.874 121.077 123.528 120.618 124.008C120.159 124.485 119.349 124.698 118.83 124.29C118.266 123.846 118.323 122.991 118.437 122.283C118.671 120.816 118.902 119.352 119.136 117.885C119.229 117.294 119.328 116.691 119.598 116.157C119.871 115.623 120.348 115.158 120.939 115.062C120.939 115.062 121.656 114.993 121.977 115.158L121.98 115.155Z" fill="white"/>
</g>
<path opacity="0.3" d="M120.309 128.775C120.096 129.747 119.376 130.416 118.701 130.269C118.026 130.122 117.654 129.213 117.867 128.241C118.08 127.269 118.8 126.6 119.475 126.747C120.15 126.894 120.522 127.803 120.309 128.775Z" fill="white"/>
<path opacity="0.5" d="M135.54 133.083H116.448C115.824 133.083 115.326 132.564 115.224 131.91C115.089 132.777 115.671 133.584 116.448 133.584H135.54C136.317 133.584 136.899 132.777 136.764 131.91C136.662 132.564 136.164 133.083 135.54 133.083Z" fill="white"/>
<path d="M22.6021 93.8762C22.3861 91.2032 22.1701 88.5302 21.9541 85.8572C21.7531 83.3582 21.4531 80.8442 21.3751 78.3362C21.3151 76.3892 21.6331 74.0792 23.5441 73.0742C24.3271 72.6632 25.3801 72.5072 26.1301 73.0772C26.8801 73.6472 27.0331 74.7122 27.1411 75.5762C27.2491 76.4402 27.3271 77.5832 26.5981 78.2492C25.9471 78.8432 24.9511 78.7742 24.1771 78.4862C22.2271 77.7572 21.6811 75.5072 22.3021 73.6772C23.0071 71.5982 24.9931 70.1672 26.8291 69.1412C28.8931 67.9892 31.1491 67.2032 33.4711 66.7742C34.5661 66.5732 35.6971 66.4172 36.8101 66.4892C37.7671 66.5492 38.8351 66.8252 39.4051 67.6622C39.9751 68.4992 39.9631 69.5852 39.9451 70.5572C39.9211 71.8772 39.7981 73.1942 39.5731 74.4932C39.4621 75.1412 39.3241 75.7862 39.1681 76.4252C39.0301 76.9862 39.8971 77.2262 40.0351 76.6652C40.3861 75.2312 40.6291 73.7732 40.7521 72.3032C40.8601 71.0402 40.9771 69.6722 40.6861 68.4242C40.4221 67.2932 39.6961 66.4142 38.6221 65.9732C37.5481 65.5322 36.3241 65.5232 35.1841 65.6342C32.5111 65.8952 29.8861 66.6272 27.4711 67.7972C25.2811 68.8562 22.9771 70.3322 21.8161 72.5462C20.7721 74.5352 20.8801 77.2802 22.7791 78.7292C24.4111 79.9742 27.2401 80.0102 27.9481 77.7182C28.2631 76.6982 28.0891 75.5012 27.8641 74.4782C27.6391 73.4552 27.0781 72.4142 26.0161 72.0002C24.9541 71.5862 23.8171 71.8592 22.9051 72.4022C21.9241 72.9872 21.2521 73.9472 20.8741 75.0122C20.4961 76.0772 20.4361 77.3012 20.4781 78.4502C20.5291 79.8302 20.6791 81.2102 20.7901 82.5872C21.0331 85.6082 21.2791 88.6262 21.5221 91.6472L21.7021 93.8762C21.7471 94.4492 22.6501 94.4552 22.6021 93.8762Z" fill="#4057A2"/>
<path d="M22.2662 93.8764C22.0502 91.2034 21.8342 88.5304 21.6182 85.8574C21.4172 83.3584 21.1172 80.8444 21.0392 78.3364C20.9732 76.2694 21.3572 73.8454 23.3762 72.7834C24.2702 72.3124 25.4432 72.1564 26.3012 72.7864C27.1592 73.4164 27.3572 74.5864 27.4802 75.5764C27.6032 76.5664 27.6392 77.7544 26.8382 78.4894C26.0972 79.1704 24.9812 79.1434 24.0902 78.8134C21.9692 78.0244 21.2942 75.6064 21.9782 73.5874C22.7132 71.4184 24.7412 69.9244 26.6612 68.8504C28.7492 67.6834 31.0352 66.8824 33.3842 66.4504C35.2982 66.0964 38.4032 65.5654 39.6992 67.4914C40.2992 68.3824 40.3052 69.5224 40.2872 70.5574C40.2602 71.9074 40.1342 73.2544 39.9032 74.5834C39.7922 75.2314 39.6542 75.8764 39.4982 76.5154C39.4622 76.6564 39.6812 76.7164 39.7142 76.5754C40.0592 75.1714 40.2992 73.7434 40.4192 72.3034C40.5242 71.0734 40.6472 69.7294 40.3652 68.5144C40.1252 67.4854 39.4802 66.6814 38.4962 66.2824C37.4612 65.8624 36.2852 65.8654 35.1902 65.9734C32.5802 66.2254 30.0062 66.9484 27.6452 68.0914C25.5062 69.1264 23.2472 70.5544 22.1102 72.7204C21.1532 74.5414 21.2192 77.0914 22.9532 78.4414C24.3872 79.5604 26.9852 79.7074 27.6272 77.6314C27.9242 76.6684 27.7562 75.5374 27.5432 74.5714C27.3302 73.6054 26.8742 72.7114 25.9322 72.3304C24.9902 71.9494 23.9162 72.2014 23.0792 72.6994C22.1762 73.2364 21.5492 74.1274 21.2042 75.1084C20.8262 76.1764 20.7782 77.3344 20.8202 78.4564C20.8712 79.8364 21.0212 81.2164 21.1322 82.5934C21.3752 85.6144 21.6212 88.6324 21.8642 91.6534L22.0442 93.8824C22.0562 94.0264 22.2812 94.0264 22.2692 93.8824L22.2662 93.8764Z" fill="white"/>
<path d="M25.3379 103.35L25.6469 93.3304L22.5629 92.7124L19.4789 93.3304L19.7879 103.35C19.7879 103.35 13.3919 105.969 13.7759 112.446C14.0669 117.33 17.1419 119.268 20.5229 119.91C21.8669 120.165 23.2559 120.165 24.5999 119.91C27.9809 119.268 31.0559 117.33 31.3469 112.446C31.7309 105.972 25.3349 103.35 25.3349 103.35H25.3379Z" fill="#4057A2"/>
<path opacity="0.3" d="M25.3379 103.35L25.6469 93.3304L22.5629 92.7124L19.4789 93.3304L19.7879 103.35C19.7879 103.35 13.3919 105.969 13.7759 112.446C14.0669 117.33 17.1419 119.268 20.5229 119.91C21.8669 120.165 23.2559 120.165 24.5999 119.91C27.9809 119.268 31.0559 117.33 31.3469 112.446C31.7309 105.972 25.3349 103.35 25.3349 103.35H25.3379Z" fill="white"/>
<path opacity="0.3" d="M24.792 103.722L24.927 93.7774L22.467 93.6514L20.097 93.7654L20.349 103.755C20.349 103.755 14.166 106.344 14.52 112.272C14.802 116.997 17.928 118.707 21.228 119.193C22.113 119.322 23.013 119.322 23.898 119.193C27.195 118.707 30.324 116.997 30.606 112.272C30.96 106.347 24.792 103.722 24.792 103.722Z" fill="white"/>
<path d="M25.6648 93.7773H19.2688C18.7678 93.7773 18.3628 93.3723 18.3628 92.8713C18.3628 92.3703 18.7678 91.9653 19.2688 91.9653H25.6648C26.1658 91.9653 26.5708 92.3703 26.5708 92.8713C26.5708 93.3723 26.1658 93.7773 25.6648 93.7773Z" fill="#4057A2"/>
<path opacity="0.3" d="M25.6648 93.7773H19.2688C18.7678 93.7773 18.3628 93.3723 18.3628 92.8713C18.3628 92.3703 18.7678 91.9653 19.2688 91.9653H25.6648C26.1658 91.9653 26.5708 92.3703 26.5708 92.8713C26.5708 93.3723 26.1658 93.7773 25.6648 93.7773Z" fill="white"/>
<path opacity="0.3" d="M19.4939 93.7773L19.5089 94.3263H25.6139L25.6319 93.7773H19.4939Z" fill="black"/>
<path opacity="0.3" d="M22.134 92.8983H19.8C19.671 92.8983 19.563 92.7933 19.563 92.6613C19.563 92.5323 19.668 92.4243 19.8 92.4243H22.134C22.263 92.4243 22.371 92.5293 22.371 92.6613C22.371 92.7903 22.266 92.8983 22.134 92.8983Z" fill="white"/>
<path d="M14.52 112.272C14.802 116.997 17.928 118.707 21.228 119.193C22.113 119.322 23.013 119.322 23.898 119.193C27.195 118.707 30.324 116.997 30.606 112.272H14.52Z" fill="#4057A2"/>
<path opacity="0.5" d="M23.898 118.726C23.013 118.855 22.113 118.855 21.228 118.726C18.042 118.258 15.012 116.644 14.559 112.27H14.52C14.802 116.995 17.928 118.705 21.228 119.191C22.113 119.32 23.013 119.32 23.898 119.191C27.195 118.705 30.324 116.995 30.606 112.27H30.567C30.114 116.641 27.084 118.255 23.898 118.726Z" fill="white"/>
<path d="M30.5069 112.272C30.5069 112.53 26.9249 112.74 22.5059 112.74C18.0869 112.74 14.5049 112.53 14.5049 112.272C14.5049 112.014 18.0869 111.804 22.5059 111.804C26.9249 111.804 30.5069 112.014 30.5069 112.272Z" fill="#4057A2"/>
<path opacity="0.3" d="M30.5069 112.272C30.5069 112.53 26.9249 112.74 22.5059 112.74C18.0869 112.74 14.5049 112.53 14.5049 112.272C14.5049 112.014 18.0869 111.804 22.5059 111.804C26.9249 111.804 30.5069 112.014 30.5069 112.272Z" fill="black"/>
<g opacity="0.3">
<path d="M19.9919 105.762C20.3699 105.909 20.6609 106.248 20.6849 106.653C20.7089 107.058 20.5319 107.448 20.3069 107.784C20.0819 108.12 19.7999 108.417 19.5779 108.756C19.3139 109.158 19.1339 109.611 18.9119 110.037C18.6899 110.466 18.4109 110.883 18.0089 111.147C17.6069 111.411 17.0519 111.492 16.6409 111.237C16.1399 110.931 16.0079 110.259 16.0409 109.674C16.1399 107.931 17.3819 106.305 19.0409 105.753C19.0409 105.753 19.5719 105.597 19.9919 105.762Z" fill="white"/>
</g>
<path d="M25.1699 117.664C27.1619 117.004 28.7819 115.414 29.4779 113.437C29.0909 115.537 27.2729 117.316 25.1699 117.664Z" fill="white"/>
<path d="M29.7508 112.74C30.1858 112.74 30.1858 112.065 29.7508 112.065C29.3158 112.065 29.3158 112.74 29.7508 112.74Z" fill="white"/>
<path d="M33.375 115.755H12.522V117.267H33.375V115.755Z" fill="#263238"/>
<path d="M15.3089 116.925H13.7009V134.517H15.3089V116.925Z" fill="#263238"/>
<path d="M31.7909 116.925H30.1829V134.517H31.7909V116.925Z" fill="#263238"/>
<path d="M18.8399 132.066H26.0129C26.4719 132.066 26.8469 132.441 26.8469 132.9V134.478H18.0059V132.9C18.0059 132.441 18.3809 132.066 18.8399 132.066Z" fill="#263238"/>
<path d="M22.5868 124.494C22.3138 124.38 21.9208 124.344 21.7888 124.608C21.6478 124.887 21.9388 125.178 22.0468 125.469C22.2178 125.925 21.9178 126.429 21.5548 126.753C21.1918 127.077 20.7448 127.323 20.4718 127.725C20.0968 128.277 20.1328 129.051 20.4928 129.615C20.8528 130.179 21.5518 130.71 22.2148 130.791C23.9728 130.563 24.6268 128.973 24.6508 127.641C24.6748 126.309 23.8198 125.004 22.5868 124.494Z" fill="#4057A2"/>
<g opacity="0.3">
<path d="M22.776 127.317C22.638 127.209 22.428 127.275 22.368 127.44C22.26 127.737 22.032 128.109 21.909 128.217C21.732 128.376 21.513 128.496 21.378 128.694C21.195 128.964 21.21 129.345 21.387 129.621C21.555 129.882 21.873 130.131 22.182 130.191C22.215 130.197 22.248 130.197 22.281 130.191C23.106 130.056 23.415 129.294 23.427 128.655C23.436 128.142 23.178 127.635 22.773 127.32L22.776 127.317Z" fill="black"/>
</g>
<path d="M23.8289 131.229H21.0239V132.228H23.8289V131.229Z" fill="#263238"/>
<path d="M22.5119 130.191H21.9509V131.31H22.5119V130.191Z" fill="#263238"/>
<path d="M72.2611 132.427V94.0415H66.3271H63.2011H61.7371L63.2011 96.5015V132.427L61.5151 134.518H61.8061H73.8991L72.2611 132.427Z" fill="#4057A2"/>
<path opacity="0.3" d="M72.2611 132.427V94.0415H66.3271H63.2011H61.7371L63.2011 96.5015V132.427L61.5151 134.518H61.8061H73.8991L72.2611 132.427Z" fill="white"/>
<path opacity="0.3" d="M67.7041 132.141C65.6491 132.141 63.9841 130.476 63.9841 128.421V94.0381H71.4211V128.421C71.4211 130.476 69.7561 132.141 67.7011 132.141H67.7041Z" fill="white"/>
<path d="M72.726 94.3143H61.485C61.227 94.3143 61.02 94.1073 61.02 93.8493C61.02 93.5913 61.227 93.3843 61.485 93.3843H72.726C72.984 93.3843 73.191 93.5913 73.191 93.8493C73.191 94.1073 72.984 94.3143 72.726 94.3143Z" fill="#4057A2"/>
<path opacity="0.3" d="M72.726 94.3143H61.485C61.227 94.3143 61.02 94.1073 61.02 93.8493C61.02 93.5913 61.227 93.3843 61.485 93.3843H72.726C72.984 93.3843 73.191 93.5913 73.191 93.8493C73.191 94.1073 72.984 94.3143 72.726 94.3143Z" fill="white"/>
<path opacity="0.3" d="M61.8989 94.3145L62.1929 94.8095H72.2609V94.3145H61.8989Z" fill="black"/>
<path d="M67.7041 132.141C65.6491 132.141 63.9841 130.476 63.9841 128.421V114.174H71.4211V128.421C71.4211 130.476 69.7561 132.141 67.7011 132.141H67.7041Z" fill="#4057A2"/>
<path d="M67.7041 114.594C69.7586 114.594 71.4241 114.406 71.4241 114.174C71.4241 113.942 69.7586 113.754 67.7041 113.754C65.6496 113.754 63.9841 113.942 63.9841 114.174C63.9841 114.406 65.6496 114.594 67.7041 114.594Z" fill="#4057A2"/>
<path opacity="0.3" d="M67.7041 114.594C69.7586 114.594 71.4241 114.406 71.4241 114.174C71.4241 113.942 69.7586 113.754 67.7041 113.754C65.6496 113.754 63.9841 113.942 63.9841 114.174C63.9841 114.406 65.6496 114.594 67.7041 114.594Z" fill="black"/>
<path opacity="0.5" d="M67.7071 131.472C65.6521 131.472 63.9871 129.807 63.9871 127.752V128.421C63.9871 130.476 65.6521 132.141 67.7071 132.141C69.7621 132.141 71.4271 130.476 71.4271 128.421V127.752C71.4271 129.807 69.7621 131.472 67.7071 131.472Z" fill="white"/>
<g opacity="0.5">
<path d="M65.0609 107.064C65.0279 110.46 64.9979 113.853 64.9649 117.249C64.9589 117.753 64.9589 118.278 65.1179 118.737C65.2769 119.199 65.6489 119.58 66.0359 119.505C66.3389 119.448 66.5789 119.127 66.7019 118.767C66.8249 118.404 66.8459 118.002 66.8669 117.609C67.0109 114.75 66.9689 111.903 66.9659 109.041C66.9659 108.159 66.8759 107.31 66.7439 106.446C66.6539 105.861 66.2369 105.474 65.7839 105.51C65.3309 105.546 65.0519 106.026 65.0609 107.067" fill="white"/>
</g>
<path opacity="0.5" d="M66.5851 103.212C66.5851 103.872 66.2221 104.406 65.7751 104.406C65.3281 104.406 64.9651 103.872 64.9651 103.212C64.9651 102.552 65.3281 102.018 65.7751 102.018C66.2221 102.018 66.5851 102.552 66.5851 103.212Z" fill="white"/>
<path d="M69.426 100.203C70.371 100.101 71.319 100.101 72.264 100.203C71.319 100.305 70.371 100.305 69.426 100.203Z" fill="#263238"/>
<path d="M69.426 106.764C70.371 106.662 71.319 106.662 72.264 106.764C71.319 106.866 70.371 106.866 69.426 106.764Z" fill="#263238"/>
<path d="M71.0701 103.656C71.4661 103.554 71.8681 103.554 72.2641 103.656C71.8681 103.758 71.4661 103.758 71.0701 103.656Z" fill="#263238"/>
<path d="M69.426 112.74C70.371 112.638 71.319 112.638 72.264 112.74C71.319 112.842 70.371 112.842 69.426 112.74Z" fill="#263238"/>
<path d="M71.0701 109.632C71.4661 109.53 71.8681 109.53 72.2641 109.632C71.8681 109.734 71.4661 109.734 71.0701 109.632Z" fill="#263238"/>
<path d="M69.426 118.719C70.371 118.617 71.319 118.617 72.264 118.719C71.319 118.821 70.371 118.821 69.426 118.719Z" fill="#263238"/>
<path d="M71.0701 115.611C71.4661 115.509 71.8681 115.509 72.2641 115.611C71.8681 115.713 71.4661 115.713 71.0701 115.611Z" fill="#263238"/>
<path d="M69.426 124.695C70.371 124.593 71.319 124.593 72.264 124.695C71.319 124.797 70.371 124.797 69.426 124.695Z" fill="#263238"/>
<path d="M71.0701 121.587C71.4661 121.485 71.8681 121.485 72.2641 121.587C71.8681 121.689 71.4661 121.689 71.0701 121.587Z" fill="#263238"/>
<path d="M39.7109 101.496C37.9469 101.496 36.5159 100.065 36.5159 98.3008V72.7108C36.5159 72.0118 37.0829 71.4448 37.7819 71.4448H41.6369C42.3359 71.4448 42.9029 72.0118 42.9029 72.7108V98.3008C42.9029 100.065 41.4719 101.496 39.7079 101.496H39.7109Z" fill="#4057A2"/>
<path opacity="0.3" d="M39.7109 101.496C37.9469 101.496 36.5159 100.065 36.5159 98.3008V72.7108C36.5159 72.0118 37.0829 71.4448 37.7819 71.4448H41.6369C42.3359 71.4448 42.9029 72.0118 42.9029 72.7108V98.3008C42.9029 100.065 41.4719 101.496 39.7079 101.496H39.7109Z" fill="white"/>
<path opacity="0.3" d="M37.0621 71.208V98.037C37.0621 99.516 38.2591 100.713 39.7381 100.713C41.2171 100.713 42.4141 99.516 42.4141 98.037V71.208H37.0591H37.0621Z" fill="white"/>
<path d="M37.0621 86.9072V98.0372C37.0621 99.5162 38.2591 100.713 39.7381 100.713C41.2171 100.713 42.4141 99.5162 42.4141 98.0372V86.9072H37.0591H37.0621Z" fill="#4057A2"/>
<path opacity="0.5" d="M39.738 100.323C38.04 100.29 37.062 98.9009 37.062 97.4219V98.0369C37.062 99.5159 38.259 100.713 39.738 100.713C41.217 100.713 42.414 99.5159 42.414 98.0369V97.4219C42.414 98.9009 41.388 100.353 39.738 100.323Z" fill="white"/>
<path d="M42.969 72.555H36.456C35.946 72.555 35.532 72.141 35.532 71.631C35.532 71.121 35.946 70.707 36.456 70.707H42.969C43.479 70.707 43.893 71.121 43.893 71.631C43.893 72.141 43.479 72.555 42.969 72.555Z" fill="#4057A2"/>
<path opacity="0.3" d="M42.969 72.555H36.456C35.946 72.555 35.532 72.141 35.532 71.631C35.532 71.121 35.946 70.707 36.456 70.707H42.969C43.479 70.707 43.893 71.121 43.893 71.631C43.893 72.141 43.479 72.555 42.969 72.555Z" fill="white"/>
<path opacity="0.3" d="M42.9029 72.5552H36.5159V72.9122H42.9029V72.5552Z" fill="black"/>
<path d="M42.4169 86.9071C42.4169 87.1111 41.2199 87.2761 39.7409 87.2761C38.2619 87.2761 37.0649 87.1111 37.0649 86.9071C37.0649 86.7031 38.2619 86.5381 39.7409 86.5381C41.2199 86.5381 42.4169 86.7031 42.4169 86.9071Z" fill="#4057A2"/>
<path opacity="0.3" d="M42.4169 86.9071C42.4169 87.1111 41.2199 87.2761 39.7409 87.2761C38.2619 87.2761 37.0649 87.1111 37.0649 86.9071C37.0649 86.7031 38.2619 86.5381 39.7409 86.5381C41.2199 86.5381 42.4169 86.7031 42.4169 86.9071Z" fill="black"/>
<path opacity="0.3" d="M38.3939 92.1358C38.0909 92.1358 37.8479 91.8898 37.8479 91.5898V85.1368C37.8479 84.8728 38.0339 84.6478 38.2919 84.5998C38.6279 84.5368 38.9429 84.7948 38.9429 85.1368V91.5898C38.9429 91.8928 38.6969 92.1358 38.3969 92.1358H38.3939Z" fill="white"/>
<path opacity="0.3" d="M38.442 94.5778C38.7717 94.5778 39.039 94.3105 39.039 93.9808C39.039 93.6511 38.7717 93.3838 38.442 93.3838C38.1123 93.3838 37.845 93.6511 37.845 93.9808C37.845 94.3105 38.1123 94.5778 38.442 94.5778Z" fill="white"/>
<path d="M41.6699 89.9609C41.7149 91.9919 41.7179 94.0259 41.6699 96.0569C41.6219 94.0259 41.6249 91.9919 41.6699 89.9609Z" fill="white"/>
<path d="M44.1901 81.981H35.5291V83.658H44.1901V81.981Z" fill="#263238"/>
<path d="M53.121 101.496C51.357 101.496 49.926 100.065 49.926 98.3008V72.7108C49.926 72.0118 50.493 71.4448 51.192 71.4448H55.047C55.746 71.4448 56.313 72.0118 56.313 72.7108V98.3008C56.313 100.065 54.882 101.496 53.118 101.496H53.121Z" fill="#4057A2"/>
<path opacity="0.3" d="M53.121 101.496C51.357 101.496 49.926 100.065 49.926 98.3008V72.7108C49.926 72.0118 50.493 71.4448 51.192 71.4448H55.047C55.746 71.4448 56.313 72.0118 56.313 72.7108V98.3008C56.313 100.065 54.882 101.496 53.118 101.496H53.121Z" fill="white"/>
<path opacity="0.3" d="M50.4691 71.208V98.037C50.4691 99.516 51.6661 100.713 53.1451 100.713C54.6241 100.713 55.8211 99.516 55.8211 98.037V71.208H50.4661H50.4691Z" fill="white"/>
<path d="M50.4691 86.9072V98.0372C50.4691 99.5162 51.6661 100.713 53.1451 100.713C54.6241 100.713 55.8211 99.5162 55.8211 98.0372V86.9072H50.4661H50.4691Z" fill="#4057A2"/>
<path opacity="0.5" d="M53.1479 100.323C51.4499 100.29 50.4719 98.9009 50.4719 97.4219V98.0369C50.4719 99.5159 51.6689 100.713 53.1479 100.713C54.6269 100.713 55.8239 99.5159 55.8239 98.0369V97.4219C55.8239 98.9009 54.7979 100.353 53.1479 100.323Z" fill="white"/>
<path d="M56.376 72.555H49.863C49.353 72.555 48.939 72.141 48.939 71.631C48.939 71.121 49.353 70.707 49.863 70.707H56.376C56.886 70.707 57.3 71.121 57.3 71.631C57.3 72.141 56.886 72.555 56.376 72.555Z" fill="#4057A2"/>
<path opacity="0.3" d="M56.376 72.555H49.863C49.353 72.555 48.939 72.141 48.939 71.631C48.939 71.121 49.353 70.707 49.863 70.707H56.376C56.886 70.707 57.3 71.121 57.3 71.631C57.3 72.141 56.886 72.555 56.376 72.555Z" fill="white"/>
<path opacity="0.3" d="M56.313 72.5552H49.926V72.9122H56.313V72.5552Z" fill="black"/>
<path d="M55.8239 86.9071C55.8239 87.1111 54.6269 87.2761 53.1479 87.2761C51.6689 87.2761 50.4719 87.1111 50.4719 86.9071C50.4719 86.7031 51.6689 86.5381 53.1479 86.5381C54.6269 86.5381 55.8239 86.7031 55.8239 86.9071Z" fill="#4057A2"/>
<path opacity="0.3" d="M55.8239 86.9071C55.8239 87.1111 54.6269 87.2761 53.1479 87.2761C51.6689 87.2761 50.4719 87.1111 50.4719 86.9071C50.4719 86.7031 51.6689 86.5381 53.1479 86.5381C54.6269 86.5381 55.8239 86.7031 55.8239 86.9071Z" fill="black"/>
<path opacity="0.3" d="M51.8041 92.1358C51.5011 92.1358 51.2581 91.8898 51.2581 91.5898V85.1368C51.2581 84.8728 51.4441 84.6478 51.7021 84.5998C52.0381 84.5368 52.3531 84.7948 52.3531 85.1368V91.5898C52.3531 91.8928 52.1071 92.1358 51.8071 92.1358H51.8041Z" fill="white"/>
<path opacity="0.3" d="M51.8519 94.5778C52.1816 94.5778 52.4489 94.3105 52.4489 93.9808C52.4489 93.6511 52.1816 93.3838 51.8519 93.3838C51.5222 93.3838 51.2549 93.6511 51.2549 93.9808C51.2549 94.3105 51.5222 94.5778 51.8519 94.5778Z" fill="white"/>
<path d="M55.0769 89.9609C55.1219 91.9919 55.1249 94.0259 55.0769 96.0569C55.0289 94.0259 55.0319 91.9919 55.0769 89.9609Z" fill="white"/>
<path d="M57.6 81.981H48.939V83.658H57.6V81.981Z" fill="#263238"/>
<path d="M46.566 68.0642C47.8053 68.0642 48.81 67.0595 48.81 65.8202C48.81 64.5808 47.8053 63.5762 46.566 63.5762C45.3267 63.5762 44.322 64.5808 44.322 65.8202C44.322 67.0595 45.3267 68.0642 46.566 68.0642Z" fill="#263238"/>
<path d="M47.295 67.2153H45.834V134.337H47.295V67.2153Z" fill="#263238"/>
<path d="M58.599 134.338H34.533C34.533 133.495 35.217 132.811 36.06 132.811H57.069C57.912 132.811 58.596 133.495 58.596 134.338H58.599Z" fill="#263238"/>
<path d="M42.708 82.9563H49.746C50.037 82.9563 50.037 82.5063 49.746 82.5063H42.708C42.417 82.5063 42.417 82.9563 42.708 82.9563Z" fill="#263238"/>
</svg>
