<svg width="272" height="200" viewBox="0 0 272 200" fill="none" xmlns="http://www.w3.org/2000/svg">
<path d="M50.9268 198.441C78.9135 198.441 101.601 194.949 101.601 190.643C101.601 186.336 78.9135 182.845 50.9268 182.845C22.9401 182.845 0.252441 186.336 0.252441 190.643C0.252441 194.949 22.9401 198.441 50.9268 198.441Z" fill="#DFDFEB"/>
<path d="M133.751 200C184.312 200 225.299 196.509 225.299 192.202C225.299 187.896 184.312 184.404 133.751 184.404C83.1909 184.404 42.2036 187.896 42.2036 192.202C42.2036 196.509 83.1909 200 133.751 200Z" fill="#DFDFEB"/>
<path d="M108.851 0.00686966C99.3977 0.264415 91.576 7.83814 91.0323 17.2767C90.7127 22.8282 92.8637 27.8789 96.4836 31.4464C97.0178 31.971 97.2658 32.7246 97.1418 33.4639L95.7825 41.5097L104.148 36.6355C104.625 36.3588 105.188 36.2539 105.727 36.3636C107.773 36.7738 109.938 36.8501 112.17 36.5115C120.435 35.2571 126.883 28.4179 127.647 20.0906C128.662 9.00186 119.801 -0.28883 108.851 0.00686966Z" fill="#D3DDF7"/>
<path d="M108.526 24.722L108.474 20.3293C109.113 20.1719 109.7 19.9716 110.229 19.7188C110.759 19.466 111.221 19.1798 111.617 18.8507C112.013 18.5216 112.347 18.1544 112.619 17.749C112.886 17.3436 113.091 16.9048 113.229 16.4374C113.367 15.9699 113.439 15.4739 113.439 14.9588C113.439 14.2148 113.258 13.5136 112.895 12.8554C112.533 12.1973 112.013 11.6631 111.336 11.2577C110.658 10.8523 109.857 10.6472 108.918 10.6472C107.911 10.6472 106.981 10.9238 106.123 11.4771C105.264 12.0303 104.611 12.9747 104.162 14.3101L103.695 14.0001C104.091 12.7362 104.758 11.768 105.693 11.0907C106.628 10.4135 107.692 10.0796 108.889 10.0796C109.91 10.0796 110.806 10.2942 111.579 10.7282C112.352 11.1623 112.953 11.7442 113.387 12.4834C113.821 13.2179 114.035 14.0478 114.035 14.9636C114.035 15.6552 113.916 16.3038 113.682 16.9143C113.449 17.52 113.119 18.0733 112.695 18.5789C112.27 19.0797 111.755 19.5185 111.15 19.8905C110.544 20.2625 109.857 20.5439 109.099 20.7347L109.046 24.7363H108.526V24.722ZM108.212 27.9939C108.212 27.7697 108.274 27.5837 108.393 27.4359C108.512 27.288 108.679 27.2165 108.889 27.2165C109.132 27.2165 109.304 27.288 109.409 27.4263C109.514 27.5646 109.566 27.7554 109.566 27.9987C109.566 28.2085 109.509 28.3898 109.399 28.5424C109.285 28.6998 109.118 28.7761 108.894 28.7761C108.669 28.7761 108.498 28.7045 108.388 28.5662C108.278 28.4279 108.221 28.2371 108.221 27.9939H108.212Z" fill="black"/>
<path d="M55.7108 179.668L56.5263 185.806C56.5263 185.806 71.7983 192.312 70.3818 192.407C68.9652 192.503 47.0159 191.086 47.0159 191.086L48.3085 179.94L55.7108 179.668Z" fill="black"/>
<path d="M51.4563 79.4402C51.4563 79.4402 50.2401 91.1541 49.3243 91.7646C48.4133 92.3751 47.1924 92.6756 47.1924 92.6756L49.1717 79.2876L51.4515 79.4402H51.4563Z" stroke="#424242" stroke-miterlimit="10"/>
<path d="M27.3423 71.3896C27.3423 71.3896 21.1517 85.3686 22.9498 93.157L57.2652 87.925L56.5498 73.4023L27.3471 71.3896H27.3423Z" fill="black"/>
<path d="M57.2605 87.9202C57.2605 87.9202 57.456 121.454 57.6945 133.138C57.933 144.823 59.9742 180.903 59.9742 180.903C59.9742 180.903 53.5642 184.438 46.8919 181.581C46.3578 181.352 40.6107 87.6055 40.6107 87.6055L57.2605 87.9202Z" fill="black"/>
<path d="M23.5173 89.0027L9.03757 181.213C9.03757 181.213 15.3617 187.137 23.3504 181.748L38.0734 106.43L45.2226 101.627L46.2862 87.8867L23.5173 89.0027Z" fill="black"/>
<path d="M19.7164 178.929L21.0328 184.227C21.0328 184.227 30.6672 195.817 29.2459 195.817C27.8246 195.817 12.0041 188.644 12.0041 188.644L14.0312 177.607L19.7117 178.933L19.7164 178.929Z" fill="black"/>
<path d="M28.8065 77.0459C28.8065 77.0459 19.6828 115.411 12.9008 183.145" stroke="#424242" stroke-miterlimit="10"/>
<path d="M35.0642 81.1714C35.0642 81.1714 31.8686 89.1603 26.4123 89.2939" stroke="#424242" stroke-miterlimit="10"/>
<path d="M48.5564 182.138L43.8872 102.762L48.4515 97.9785" stroke="#424242" stroke-miterlimit="10"/>
<path d="M48.4944 31.2316C50.8695 30.7451 52.6008 30.397 52.6008 30.397L67.4096 38.4858C67.4335 38.5001 67.4621 38.5144 67.486 38.5287C72.3364 41.2043 74.4826 45.7495 74.3538 52.1166L75.074 61.3405L67.0472 54.8304L60.2652 67.9127L55.9584 83.3558C32.9702 91.7165 24.0372 76.7074 24.0372 76.7074L31.6538 60.2197L34.7301 44.9912C36.1895 37.179 40.706 32.8389 48.4944 31.2459V31.2316Z" fill="#00A6C0"/>
<path d="M172.808 57.2815C172.808 57.2815 170.49 66.9875 157.36 78.8302C157.36 78.8302 156.105 77.0559 158.91 70.226C161.714 63.3961 172.26 54.8586 172.808 57.2815Z" fill="#41A592"/>
<path d="M172.808 57.2817C172.808 57.2817 161.213 64.5025 157.36 78.8297C157.36 78.8297 156.472 83.7707 157.903 88.1919" stroke="black" stroke-miterlimit="10" stroke-linecap="round"/>
<path d="M142.504 63.2965C142.504 63.2965 145.766 61.1407 140.792 54.9117C136.07 48.9927 131.009 43.6366 120.607 41.123C120.607 41.123 122.868 55.5699 129.502 59.4046C136.137 63.2393 142.499 63.2917 142.499 63.2917L142.504 63.2965Z" fill="#41A592"/>
<path d="M116.305 72.1333C116.305 72.1333 127.122 75.2286 146.133 70.2113C146.133 70.2113 145.102 68.2129 136.828 67.0349C128.553 65.8569 114.24 70.3973 116.305 72.1333Z" fill="#41A592"/>
<path d="M116.305 72.1332C116.305 72.1332 129.917 66.0093 146.133 70.2111C146.133 70.2111 147.792 70.7405 149.366 73.1491" stroke="black" stroke-miterlimit="10" stroke-linecap="round"/>
<path d="M124.761 82.6596C124.761 82.6596 136.007 91.1395 155.013 86.1222C155.013 86.1222 151.813 79.3449 143.538 78.1621C135.263 76.9793 122.696 80.9188 124.756 82.6549L124.761 82.6596Z" fill="#41A592"/>
<path d="M124.761 82.659C124.761 82.659 137.796 77.5653 155.013 86.1215C155.013 86.1215 157.035 87.1803 158.609 89.5889" stroke="black" stroke-miterlimit="10" stroke-linecap="round"/>
<path d="M166.918 47.5713C166.918 47.5713 170.409 47.3805 161.452 54.6588C152.991 61.5316 154.007 61.6557 154.007 61.6557C154.007 61.6557 157.746 50.7955 166.918 47.5713Z" fill="black"/>
<path d="M147.959 65.0278C147.959 65.0278 150.482 66.1916 155.428 62.209C160.369 58.2217 162.726 48.7876 166.923 47.5762C166.923 47.5762 156.411 50.2423 147.959 65.0326V65.0278Z" fill="#41A592"/>
<path d="M162.83 98.918C158.247 87.9724 151.708 75.4576 142.503 63.2958C142.503 63.2958 140.266 59.9429 132.311 51.1053C124.361 42.2725 120.607 41.123 120.607 41.123" stroke="black" stroke-miterlimit="10" stroke-linecap="round"/>
<path d="M165.673 48.0054C165.673 48.0054 155.6 51.654 147.959 65.0278C146.109 68.2663 147.897 71.0421 149.366 73.155" stroke="black" stroke-miterlimit="10" stroke-linecap="round"/>
<path d="M267.661 174.051C267.661 174.051 257.893 176.984 241.586 166.419C241.586 166.419 242.655 163.581 250.033 163.124C257.407 162.666 269.621 171.771 267.661 174.051Z" fill="#41A592"/>
<path d="M267.298 173.334C267.298 173.334 256.567 164.888 241.782 166.137C241.782 166.137 236.836 166.986 233.164 169.834" stroke="black" stroke-miterlimit="10" stroke-linecap="round"/>
<path d="M246.399 152.274C246.399 152.274 249.537 154.606 253.701 147.81C257.655 141.357 260.974 134.775 259.796 124.139C259.796 124.139 246.98 131.183 245.631 138.724C244.281 146.269 246.399 152.269 246.399 152.269V152.274Z" fill="#41A592"/>
<path d="M271.596 164.412C271.596 164.412 273.647 167.245 262.677 163.648C252.317 160.253 252.761 161.168 252.761 161.168C252.761 161.168 263.917 158.44 271.591 164.412H271.596Z" fill="black"/>
<path d="M246.661 157.906C246.661 157.906 247.047 160.658 253.071 162.661C259.095 164.664 268.305 161.535 271.596 164.411C271.596 164.411 263.664 157.014 246.656 157.906H246.661Z" fill="#41A592"/>
<path d="M219.814 183.508C228.547 175.471 238.09 165.064 246.394 152.273C246.394 152.273 248.788 149.03 254.387 138.542C259.986 128.059 259.791 124.139 259.791 124.139" stroke="black" stroke-miterlimit="10" stroke-linecap="round"/>
<path d="M270.56 163.596C270.56 163.596 262.042 157.095 246.661 157.906C242.936 158.101 241.248 159.919 238.453 163.4" stroke="black" stroke-miterlimit="10" stroke-linecap="round"/>
<path d="M166.064 76.8122C169.054 76.8122 171.949 75.763 174.243 73.8457L180.61 68.5326C182.904 66.6201 185.623 65.5947 188.413 65.5947H220.024C222.89 65.5947 225.218 67.9222 225.218 70.7885V185.224C225.218 190.175 221.207 194.186 216.256 194.186H58.6817C54.8328 194.186 51.7089 191.067 51.7089 187.213V83.7803C51.7089 79.9314 54.8281 76.8075 58.6817 76.8075H166.064V76.8122Z" fill="#333969"/>
<path d="M51.7137 187.805C51.7137 187.805 62.4352 167.688 63.5083 165.379L92.816 105.672C93.5504 104.084 95.1434 103.072 96.8938 103.072H205.807C209.765 103.072 215.493 100.998 218.531 98.4605L222.924 94.7929C225.218 92.8804 227.936 91.855 230.726 91.855H260.807C264.007 91.855 266.182 95.1077 264.961 98.0647L228.585 186.045C226.544 190.976 221.736 194.191 216.399 194.191H53.6787C52.6199 194.191 51.6374 193.285 51.6374 192.221L51.7089 187.805H51.7137Z" fill="#3073FE"/>
<path d="M96.0115 108.748L53.0062 192.345" stroke="black" stroke-linejoin="round"/>
<path d="M113.734 123.151H150.778C151.789 123.151 152.729 122.641 153.272 121.802C154.522 119.865 153.11 117.328 150.778 117.328H113.734C112.723 117.328 111.784 117.838 111.24 118.678C109.99 120.614 111.402 123.151 113.734 123.151Z" stroke="black" stroke-linejoin="round"/>
<path d="M183.029 151.887L154.188 169.071" stroke="black" stroke-linecap="round" stroke-linejoin="round"/>
<path d="M159.449 151.057L177.573 169.176" stroke="black" stroke-linecap="round" stroke-linejoin="round"/>
<path d="M159.596 146.45C148.999 151.687 144.602 162.15 149.776 169.824C154.951 177.493 167.738 179.468 178.335 174.231C188.933 168.994 193.33 158.531 188.155 150.857C182.981 143.188 170.194 141.213 159.596 146.45Z" stroke="black" stroke-linecap="round" stroke-linejoin="round"/>
<path d="M59.073 70.2162L64.4244 76.221C64.4244 76.221 59.4069 82.14 54.3083 78.6344L53.4927 77.4611L59.0778 70.2114L59.073 70.2162Z" fill="#00A6C0"/>
<path d="M46.6439 34.3799C46.6439 34.3799 53.9746 36.302 48.2083 57.4882" stroke="black" stroke-miterlimit="10" stroke-linecap="round"/>
<path d="M59.5216 70.8465C55.5629 66.4013 50.7266 60.8162 47.8696 56.9624" stroke="black" stroke-miterlimit="10" stroke-linecap="round"/>
<path d="M54.3035 78.639C50.5071 74.7472 45.3752 69.2052 43.1336 67.1496C39.6425 63.9494 36.0225 58.7985 37.2006 52.1834L37.0575 46.8799" stroke="black" stroke-miterlimit="10" stroke-linecap="round"/>
<path d="M77.1014 75.7976C72.4225 73.2698 70.2715 70.141 68.4686 67.823C64.1665 62.2904 62.6403 61.6083 63.9042 55.1695L63.971 48.4302L73.3049 58.532C76.8677 63.2586 85.0856 71.734 88.1238 75.0774C88.1238 75.0774 84.5609 79.8279 77.1062 75.7976H77.1014Z" fill="#00A6C0"/>
<path d="M58.0666 74.0892C58.4959 73.97 58.9442 73.9366 59.3878 73.9843C60.9903 74.156 65.2781 74.6043 65.7598 74.6091C66.356 74.6186 66.8425 73.7267 68.1207 76.9509C69.399 80.1751 69.17 80.4756 69.1653 80.9001C69.1605 81.3246 68.2304 87.5154 67.2336 86.5854C66.2368 85.6553 66.3703 85.1116 66.3703 85.1116C66.3703 85.1116 65.8314 87.6299 65.55 87.5297C65.2686 87.4296 64.2193 87.4296 64.3862 85.6553C64.3862 85.6553 63.8139 87.3819 63.2272 86.9526C62.6406 86.5234 62.7694 84.6585 62.7694 84.6585C62.7694 84.6585 62.1398 86.0607 61.4196 85.1259C60.6994 84.1911 61.2383 82.0257 61.2383 82.0257L60.6326 80.4136L59.3258 79.8508C59.3258 79.8508 54.933 81.0003 54.1747 77.9478C53.5928 75.6059 56.631 74.4851 58.0666 74.0892Z" fill="#DB9C7F"/>
<path d="M66.9043 78.0435L67.7294 81.5109L66.3653 85.1119" stroke="black" stroke-miterlimit="10" stroke-linecap="round"/>
<path d="M64.7866 77.9146L65.8549 81.4678L64.3812 85.6555" stroke="black" stroke-miterlimit="10" stroke-linecap="round"/>
<path d="M62.9265 78.3105L63.5513 81.7303L62.8358 84.2867" stroke="black" stroke-miterlimit="10" stroke-linecap="round"/>
<path d="M59.34 12.4355C57.7804 13.895 57.7565 15.6693 57.7565 15.6693C57.7565 15.6693 57.2223 15.0063 56.5594 14.7965" stroke="black" stroke-miterlimit="10" stroke-linecap="round"/>
<path d="M81.6128 73.0969C83.0962 72.7392 84.6606 72.9825 86.0151 73.6788C87.7989 74.5946 90.5938 76.0111 90.9563 76.1208C91.4953 76.283 91.8482 75.992 91.9198 79.2735C91.9484 80.5708 91.9436 81.4674 91.8291 81.849C91.7147 82.2305 89.0914 86.1463 88.2329 85.5978C88.2091 85.5835 88.1948 85.5692 88.1709 85.5549C87.9515 85.8458 87.6606 86.2083 87.3744 86.4516C87.1598 86.6376 85.9626 86.609 86.5731 85.0398C86.5731 85.0398 85.7432 86.857 85.0994 86.6137C84.2599 86.2989 84.3935 85.4881 84.7035 84.8061C84.3124 85.3355 83.8307 85.7648 83.4873 85.3069C82.8148 84.4102 84.341 81.2242 84.341 81.2242L84.5175 79.2925L83.3489 78.248C83.3489 78.248 79.1804 78.3482 79.2806 75.3815C79.3282 74.0222 80.43 73.3879 81.6128 73.1017V73.0969Z" fill="#DB9C7F"/>
<path d="M90.7605 78.0669L90.708 81.5868L88.142 85.3213" stroke="black" stroke-miterlimit="10" stroke-linecap="round"/>
<path d="M88.9386 78.0957L88.7383 81.7205L86.5729 85.0306" stroke="black" stroke-miterlimit="10" stroke-linecap="round"/>
<path d="M87.0883 78.1909L86.8307 81.2434L84.9801 84.3102" stroke="black" stroke-miterlimit="10" stroke-linecap="round"/>
<path d="M81.8132 77.375C81.8132 77.375 82.2329 80.5228 81.217 81.2144C80.2011 81.906 78.5603 75.3956 79.6907 75.3098C81.341 75.1858 81.8179 77.375 81.8179 77.375H81.8132Z" fill="#DB9C7F"/>
<path d="M83.1963 76.9175C83.1963 76.9175 82.1852 77.0796 81.899 78.2673" stroke="black" stroke-miterlimit="10" stroke-linecap="round"/>
<path d="M63.5846 61.6845L68.4972 55.2838C72.9901 49.341 69.9949 43.0596 69.9949 43.0596" stroke="black" stroke-miterlimit="10" stroke-linecap="round"/>
<path d="M75.0741 61.3314C75.0741 61.3314 72.179 57.3202 71.5208 59.0945" stroke="black" stroke-miterlimit="10" stroke-linecap="round"/>
<path d="M76.1948 27.9406L75.3602 27.7642" stroke="white" stroke-miterlimit="10"/>
<path d="M58.7773 27.1636L52.6056 30.3925C52.6056 30.3925 52.4434 37.7185 59.3735 43.2845L62.488 40.2607L65.6264 43.399C65.6264 43.399 66.8187 42.4594 67.1764 38.2098L66.6184 33.0444L58.7821 27.1636H58.7773Z" fill="white"/>
<path d="M66.6089 33.0492L58.7773 27.1636L52.6008 30.3973" stroke="black" stroke-linecap="round" stroke-linejoin="round"/>
<path d="M56.9838 28.2751C56.9838 28.2751 58.8916 39.431 61.72 40.2227C64.5435 41.0145 66.3082 35.4341 66.3082 35.4341L60.8376 20.2051L56.9886 28.2751H56.9838Z" fill="#DB9C7F"/>
<path d="M67.3529 36.7794L67.3863 38.1673C67.4101 38.1816 67.3291 38.5966 65.9554 38.754C59.9125 38.5727 59.4355 31.7714 58.9395 26.3628C58.9395 26.3628 67.9109 35.7015 67.3529 36.7794Z" fill="black"/>
<path d="M75.8093 21.6075C75.8093 21.6075 77.3641 35.7491 69.0652 38.048C60.771 40.3469 58.7821 26.8158 59.0683 22.1369C59.3544 17.458 61.6915 15.1496 67.5055 14.9397C76.1097 14.6297 75.8093 21.6075 75.8093 21.6075Z" fill="#DB9C7F"/>
<path d="M63.3894 17.7775C63.3894 17.7775 63.232 20.7489 61.2622 21.3451L59.8457 25.714C59.8457 25.714 58.6581 23.7728 57.3512 23.0812C57.3512 23.0812 55.9108 17.3101 57.7233 15.0159C59.5404 12.7218 62.0635 11.558 68.1685 12.0684C72.814 12.4547 75.5374 15.7505 76.4245 17.4293C76.7107 17.973 77.4118 19.4993 75.7759 20.9874C75.7759 20.9874 75.7997 19.8618 74.8458 18.5454C74.8458 18.5454 72.6185 23.0955 63.3894 17.7727" fill="black"/>
<path d="M55.4386 26.4623C55.9489 28.3271 57.4179 29.5624 58.72 29.219C60.0221 28.8756 60.6564 27.0823 60.1461 25.2174C59.6358 23.3525 58.1667 22.1172 56.8647 22.4606C55.5674 22.804 54.9282 24.5974 55.4386 26.4623Z" fill="#DB9C7F"/>
<path d="M67.4001 27.0873C67.3763 27.569 67.6052 27.9696 67.9105 27.9839C68.2157 27.9982 68.4828 27.6215 68.5066 27.1397C68.5305 26.658 68.3016 26.2574 67.9963 26.2431C67.6911 26.2288 67.424 26.6056 67.4001 27.0873Z" fill="black"/>
<path d="M73.7958 27.4782C73.7481 27.9265 73.9341 28.3176 74.206 28.3462C74.4826 28.3749 74.7402 28.0362 74.7879 27.5831C74.8356 27.1348 74.6495 26.7437 74.3777 26.7151C74.101 26.6864 73.8435 27.0251 73.7958 27.4782Z" fill="black"/>
<path d="M65.5735 23.2762C65.5735 23.2762 67.7722 23.7483 67.9153 21.6641" stroke="black" stroke-miterlimit="10" stroke-linecap="round"/>
<path d="M73.0184 23.1094C73.0184 23.1094 73.5764 25.0458 75.2315 23.925" stroke="black" stroke-miterlimit="10" stroke-linecap="round"/>
<path d="M67.0139 34.8329C67.0139 34.8329 66.2889 31.8806 64.0425 33.5737L67.0139 34.8329Z" fill="black"/>
<path d="M56.7406 24.8358C56.7406 24.8358 58.2001 23.5767 59.0014 25.8756C59.0014 25.8756 58.1476 26.7818 58.6866 27.4924C58.6866 27.4924 57.8472 27.6832 57.4274 26.9392" stroke="black" stroke-linecap="round" stroke-linejoin="round"/>
<path d="M57.3749 25.7182C57.3749 25.7182 57.456 25.2079 58.0236 24.626" stroke="black" stroke-linecap="round" stroke-linejoin="round"/>
<path d="M72.5272 27.4065C72.5272 28.7706 73.3666 29.8819 74.4016 29.8819C75.4366 29.8819 76.276 28.7754 76.276 27.4065C76.276 26.0377 75.4366 24.9312 74.4016 24.9312C73.3666 24.9312 72.5272 26.0377 72.5272 27.4065Z" stroke="white" stroke-miterlimit="10"/>
<path d="M65.5114 27.0681C65.5114 28.518 66.5798 29.6913 67.901 29.6913C69.2221 29.6913 70.2905 28.518 70.2905 27.0681C70.2905 25.6181 69.2221 24.4448 67.901 24.4448C66.5798 24.4448 65.5114 25.6181 65.5114 27.0681Z" stroke="white" stroke-miterlimit="10"/>
<path d="M72.6131 28.1223C72.6131 28.1223 72.0312 25.6565 70.1472 27.9458" stroke="white" stroke-miterlimit="10"/>
<path d="M65.5593 26.0758L60.0124 24.8262" stroke="white" stroke-miterlimit="10"/>
<path d="M72.8468 29.2144C73.1234 29.5625 73.1807 29.9775 73.0424 30.4258C72.904 30.8694 72.4557 31.1412 71.9931 31.1317C71.7832 31.1317 71.5781 31.0697 71.3778 31.0077C71.2919 30.9791 71.1155 30.8885 71.0201 30.9266C70.5622 31.1269 70.028 30.7311 70.1806 30.4163" stroke="black" stroke-miterlimit="10" stroke-linecap="round"/>
</svg>
