<svg width="340" height="340" viewBox="0 0 340 340" fill="none" xmlns="http://www.w3.org/2000/svg">
<path d="M14.7764 166.505C14.7764 166.505 10.5128 196.126 28.2268 229.16C43.6628 257.944 71.5972 278.018 104.802 286.518C126.711 292.128 149.294 291.863 171.523 290.482C200.124 288.694 231.914 290.367 258.312 279.602C299.411 262.834 324.523 218.912 326.4 178.16C327.631 151.824 317.506 121.577 290.571 107.692C280.595 102.558 269.491 98.7359 260.787 91.7115C250.322 83.2931 245.759 71.0667 237.946 60.8735C228.29 48.2731 214.465 41.0991 199.458 35.2919C150.688 16.4288 104.149 24.8947 66.1776 49.8167C28.2064 74.7387 12.5052 151.987 14.7764 166.505Z" fill="#4057A2"/>
<path opacity="0.7" d="M14.7764 166.505C14.7764 166.505 10.5128 196.126 28.2268 229.16C43.6628 257.944 71.5972 278.018 104.802 286.518C126.711 292.128 149.294 291.863 171.523 290.482C200.124 288.694 231.914 290.367 258.312 279.602C299.411 262.834 324.523 218.912 326.4 178.16C327.631 151.824 317.506 121.577 290.571 107.692C280.595 102.558 269.491 98.7359 260.787 91.7115C250.322 83.2931 245.759 71.0667 237.946 60.8735C228.29 48.2731 214.465 41.0991 199.458 35.2919C150.688 16.4288 104.149 24.8947 66.1776 49.8167C28.2064 74.7387 12.5052 151.987 14.7764 166.505Z" fill="white"/>
<path d="M58.7792 208.944H53.1692V215.288H58.7792V208.944Z" fill="#263238" stroke="#263238" stroke-miterlimit="10"/>
<path d="M60.9755 206.502H50.2383V210.406H60.9755V206.502Z" fill="#263238" stroke="#263238" stroke-miterlimit="10"/>
<path d="M67.8096 213.336H43.6492V277.766H67.8096V213.336Z" fill="white" stroke="#263238" stroke-miterlimit="10"/>
<path d="M53.0467 238.721C56.483 238.721 59.2687 235.935 59.2687 232.499C59.2687 229.063 56.483 226.277 53.0467 226.277C49.6104 226.277 46.8247 229.063 46.8247 232.499C46.8247 235.935 49.6104 238.721 53.0467 238.721Z" fill="#263238" stroke="#263238" stroke-miterlimit="10"/>
<path d="M103.788 294.175L92.7043 280.262H60.7307L49.7351 294.175H103.788Z" fill="white" stroke="#263238" stroke-miterlimit="10"/>
<path d="M55.8484 276.304H107.345V276.597C107.345 277.619 106.939 278.6 106.216 279.323C105.492 280.046 104.512 280.452 103.489 280.452H59.704C58.6814 280.452 57.7007 280.046 56.9777 279.323C56.2546 278.6 55.8484 277.619 55.8484 276.597V276.304Z" fill="white" stroke="#263238" stroke-miterlimit="10"/>
<path d="M86.5555 191.407L76.8533 197.73L78.1192 199.672L87.8215 193.35L86.5555 191.407Z" fill="white" stroke="#263238" stroke-miterlimit="10"/>
<path d="M92.0496 184.761L82.9968 190.66L86.791 196.482L95.8437 190.583L92.0496 184.761Z" fill="#263238" stroke="#263238" stroke-miterlimit="10"/>
<path d="M56.8275 175.998H54.6311V183.076H56.8275V175.998Z" fill="#263238" stroke="#263238" stroke-miterlimit="10"/>
<path d="M57.8066 182.587H53.4138V196.499H57.8066V182.587Z" fill="white" stroke="#263238" stroke-miterlimit="10"/>
<path d="M60.7308 195.031H50.4832V203.082H60.7308V195.031Z" fill="white" stroke="#263238" stroke-miterlimit="10"/>
<path d="M77.2955 191.182L65.6199 201.042L39.7051 203.327L40.2899 209.991L71.5631 207.237L82.1303 199.349L77.2955 191.182Z" fill="white" stroke="#263238" stroke-miterlimit="10"/>
<path d="M268.722 113.927L267.56 126.167C267.56 126.167 260.807 125.698 258.828 121.74C256.85 117.783 257.72 112.594 257.72 112.594L258.584 107.834C259.704 107.303 260.939 107.057 262.178 107.119C263.416 107.18 264.621 107.548 265.683 108.188C266.699 108.739 267.529 109.577 268.07 110.598C268.611 111.619 268.838 112.777 268.722 113.927Z" fill="#B5B5B5" stroke="#263238" stroke-miterlimit="10"/>
<path d="M220.708 153.15L245.46 147.118L257.7 112.594C257.7 112.594 260.61 118 262.691 120.496C264.772 122.992 268.722 125.256 268.722 125.256C268.722 125.256 264.561 147.927 263.106 155.176C261.65 162.425 261.446 163.703 259.57 165.376C257.693 167.049 235.28 181.234 235.28 181.234C235.28 181.234 242.76 195.167 243.603 204.945C244.446 214.724 245.058 226.161 245.058 226.161C245.058 226.161 226.753 197.037 220.102 188.51C213.452 179.982 210.739 167.09 212.194 160.432C213.649 153.775 220.708 153.15 220.708 153.15Z" fill="white" stroke="#263238" stroke-miterlimit="10"/>
<path d="M229.507 159.786L235.273 181.234L239.489 155.836" stroke="#263238" stroke-miterlimit="10"/>
<path d="M246.16 147.723C248.154 148.554 249.894 149.894 251.207 151.609C252.52 153.324 253.359 155.354 253.64 157.495" stroke="#263238" stroke-miterlimit="10"/>
<path d="M250.723 147.723C250.723 147.723 258.625 149.383 259.039 157.706" stroke="#263238" stroke-miterlimit="10"/>
<path d="M221.394 161.242L231.791 182.872L229.507 186.823L234.709 190.985L236.164 199.097" stroke="#263238" stroke-miterlimit="10"/>
<path d="M184.212 134.49C184.212 134.49 171.972 138.448 167.987 146.139C164.002 153.83 173.604 167.776 175.059 172.972C176.514 178.167 174.434 180.044 172.564 178.588C170.694 177.133 168.613 180.044 170.694 183.348C172.774 186.653 184.212 184.178 187.952 182.308C191.692 180.438 190.869 167.953 188.788 159.868C186.708 151.783 184.212 142.603 185.456 138.652C186.701 134.701 184.212 134.49 184.212 134.49Z" fill="#263238" stroke="#263238" stroke-miterlimit="10"/>
<path d="M222.999 117.586C222.999 117.586 229.031 124.862 229.446 127.786C229.697 129.297 229.768 130.834 229.656 132.362C229.656 132.362 232.567 135.687 233.192 136.102C233.818 136.517 235.912 137.768 234.648 139.434C234.242 139.932 233.735 140.337 233.161 140.624C232.586 140.91 231.957 141.07 231.316 141.093C231.316 141.093 231.526 147.546 230.901 150.457C230.275 153.367 229.031 154.408 226.739 154.612C224.448 154.816 221.544 154.822 221.544 154.822L219.252 166.471L222.163 181.655L200.532 158.141C200.532 158.141 202.64 149.6 202.64 147.954C202.64 146.309 199.519 143.194 202.225 134.429C204.932 125.664 222.999 117.586 222.999 117.586Z" fill="#B5B5B5" stroke="#263238" stroke-miterlimit="10"/>
<path d="M201.96 139.842C201.96 139.842 205.707 141.087 206.72 138.387C207.733 135.687 206.094 132.355 211.296 129.438C216.498 126.521 225.699 124.44 227.576 119.68C229.452 114.92 227.365 109.902 224.454 109.276C221.544 108.651 218.008 110.317 212.391 110.527C206.774 110.738 190.312 110.65 185.11 118.551C179.908 126.453 184.933 140.685 186.388 143.807C187.843 146.928 187.843 155.04 193.868 155.455C199.893 155.87 204.068 151.293 204.476 147.975C204.884 144.657 201.96 139.842 201.96 139.842Z" fill="#263238" stroke="#263238" stroke-miterlimit="10"/>
<g opacity="0.5">
<path d="M200.532 137.36L230.52 127.16C230.52 127.16 235.926 130.485 232.186 134.858L216.791 139.849L200.743 139.4L200.532 137.36Z" fill="white"/>
</g>
<path d="M200.532 137.36L230.52 127.16C230.52 127.16 235.926 130.485 232.186 134.858L216.791 139.849L200.743 139.4L200.532 137.36Z" stroke="#263238" stroke-miterlimit="10"/>
<path d="M200.532 137.347L230.486 127.153" stroke="#263238" stroke-width="2" stroke-miterlimit="10" stroke-linecap="round"/>
<path d="M213.636 133.6L216.757 139.842" stroke="#263238" stroke-miterlimit="10"/>
<path d="M205.945 141.297C205.319 141.297 199.913 134.015 197.207 136.095C194.5 138.176 196.996 145.663 200.328 147.118C203.66 148.573 206.36 145.037 206.36 145.037" fill="#B5B5B5"/>
<path d="M205.945 141.297C205.319 141.297 199.913 134.015 197.207 136.095C194.5 138.176 196.996 145.663 200.328 147.118C203.66 148.573 206.36 145.037 206.36 145.037" stroke="#263238" stroke-miterlimit="10"/>
<path d="M226.12 132.974C226.12 134.008 225.746 134.851 225.284 134.851C224.822 134.851 224.454 134.008 224.454 132.974C224.454 131.94 224.828 131.104 225.284 131.104C225.74 131.104 226.12 131.92 226.12 132.974Z" fill="#263238"/>
<path d="M199.92 155.645C199.92 155.645 210.732 164.594 216.764 174.366C222.795 184.137 238.19 201.613 240.686 207.441C243.182 213.268 245.262 219.293 245.262 224.284C245.262 229.276 245.677 267.124 245.677 267.968V294.175H181.812C181.812 294.175 185.769 239.469 185.769 227.82C185.769 216.172 180.771 205.564 184.518 188.924C188.265 172.285 194.48 162.717 199.92 155.645Z" fill="white" stroke="#263238" stroke-miterlimit="10"/>
<path d="M195.752 161.677L218.838 193.501L224.659 191.631L224.244 198.703L238.809 206.401" stroke="#263238" stroke-miterlimit="10"/>
<path d="M239.36 266.9H205.768V272.272H236.674" stroke="#263238" stroke-miterlimit="10"/>
<path d="M273.469 127.16H276.61V136.279C276.61 136.667 276.456 137.039 276.182 137.313C275.908 137.587 275.536 137.741 275.148 137.741H274.924C274.536 137.741 274.164 137.587 273.89 137.313C273.616 137.039 273.462 136.667 273.462 136.279V127.16H273.469Z" fill="white" stroke="#263238" stroke-miterlimit="10"/>
<path d="M277.372 125.222H272.721V128.364H277.372V125.222Z" fill="white" stroke="#263238" stroke-miterlimit="10"/>
<path d="M290.965 108.453C290.965 108.453 292.597 111.017 292.359 112.533C292.121 114.05 289.918 120.693 289.218 120.802C288.517 120.911 288.402 120.122 288.633 117.776C288.864 115.43 289.218 113.934 289.218 113.234C289.218 112.533 289.68 107.059 290.965 108.453Z" fill="#4057A2" stroke="#263238" stroke-linecap="round" stroke-linejoin="round"/>
<path d="M259.644 105.312C259.644 105.312 256.965 109.97 258.964 112.642C260.964 115.315 265.254 115.559 265.254 115.559C265.254 115.559 265.934 120.795 267.002 121.611C268.07 122.427 270.606 126.038 270.96 127.317C271.313 128.595 273.754 126.97 273.754 125.916C273.754 124.862 272.007 120.68 271.538 119.517C271.068 118.354 272.122 115.206 272.469 114.159C272.624 113.624 272.853 113.114 273.149 112.642C273.149 112.642 276.549 115.906 276.876 117.769C277.202 119.633 276.291 126.501 277.222 127.289C278.154 128.078 280.622 127.874 281.064 126.473C281.506 125.073 282.35 116.953 282.35 115.532C282.35 114.111 280.133 109.358 280.133 109.358C280.133 109.358 283.744 112.969 283.859 114.247C283.975 115.525 282.928 123.679 283.512 123.91C283.869 124.12 284.279 124.221 284.693 124.201C285.106 124.18 285.504 124.039 285.838 123.794C286.499 123.044 287.013 122.177 287.354 121.237C287.354 121.237 289.68 115.763 290.612 113.2C291.543 110.636 292.359 107.76 290.265 106.679C287.135 105.048 283.908 103.611 280.602 102.374C274.666 100.042 266.281 98.2941 263.255 100.511C260.229 102.728 259.644 105.312 259.644 105.312Z" fill="#4057A2" stroke="#263238" stroke-linecap="round" stroke-linejoin="round"/>
<path d="M265.234 115.559L264.765 107.175" stroke="#263238" stroke-miterlimit="10"/>
<path d="M265.118 112.527C265.118 112.527 260.46 112.411 259.991 106.475" stroke="#263238" stroke-miterlimit="10"/>
<path d="M288.633 117.769C288.633 117.769 290.149 113.342 288.871 111.248C287.593 109.154 282.697 105.89 282.697 105.89" stroke="#263238" stroke-miterlimit="10"/>
<path d="M255.938 187.163C256.346 186.884 263.595 179.228 263.731 178.684C263.867 178.14 264.003 170.755 264.826 169.116C265.649 167.477 268.376 162.683 268.518 161.18C268.661 159.678 268.654 154.618 268.518 152.844C268.382 151.069 270.157 150.926 271.388 152.572C272.619 154.217 272.891 156.536 272.891 158.583C272.891 160.63 273.027 162.275 273.299 162.663C273.571 163.05 275.896 165.124 276.991 165.383C278.086 165.641 284.648 162.37 286.566 161.69C288.483 161.01 289.707 155.4 289.966 154.85C290.224 154.299 290.38 150.205 290.516 149.246C290.652 148.288 292.427 147.057 293.114 149.382C293.801 151.708 293.522 157.175 293.386 158.678C293.25 160.181 293.386 163.329 292.706 164.152C292.026 164.975 287.647 168.796 287.266 169.347C286.885 169.898 285.226 175.222 284.668 176.045C284.111 176.868 279.473 178.643 276.332 180.554C274.058 182.016 271.909 183.662 269.906 185.477C270.159 185.756 270.3 186.12 270.3 186.497C270.3 186.874 270.159 187.238 269.906 187.517C269.099 188.214 268.179 188.768 267.186 189.156L264.316 195.996L255.938 187.163Z" fill="#B5B5B5" stroke="#263238" stroke-miterlimit="10"/>
<path d="M284.648 176.12C285.199 175.297 286.838 170 287.246 169.422C287.654 168.844 292.006 165.043 292.686 164.227C293.366 163.411 293.237 160.263 293.366 158.753C293.495 157.243 293.774 151.783 293.094 149.457C292.414 147.132 290.632 148.363 290.496 149.321C290.36 150.28 290.224 154.381 289.945 154.925C289.667 155.469 288.443 161.079 286.545 161.765C284.648 162.452 278.066 165.73 276.971 165.458C275.876 165.186 273.571 163.132 273.279 162.738C272.986 162.343 272.871 160.698 272.871 158.658C272.871 156.618 272.599 154.285 271.368 152.647C270.137 151.008 268.355 151.137 268.498 152.919C268.641 154.7 268.634 159.719 268.498 161.255C268.362 162.792 265.622 167.545 264.806 169.191C263.99 170.837 263.84 178.16 263.731 178.684C262.491 180.284 261.156 181.807 259.733 183.247L267.029 189.496L267.145 189.21C268.138 188.823 269.058 188.268 269.865 187.571C270.119 187.292 270.259 186.929 270.259 186.551C270.259 186.174 270.119 185.811 269.865 185.531C271.868 183.717 274.018 182.07 276.291 180.608C279.48 178.684 284.104 176.909 284.648 176.12Z" fill="#4057A2" stroke="#263238" stroke-linecap="round" stroke-linejoin="round"/>
<path d="M287.246 169.388L282.601 172.802" stroke="#263238" stroke-miterlimit="10"/>
<path d="M195.16 177.283C195.16 177.283 202.232 176.032 206.394 179.357C210.555 182.682 212.01 188.925 212.214 189.557C212.418 190.189 231.941 208.08 231.941 208.08L256.482 185.402L268.552 197.261C268.552 197.261 253.157 216.811 245.256 224.298C237.354 231.785 231.526 235.314 230.071 235.96C228.616 236.606 227.161 235.96 225.495 234.92C223.829 233.879 189.305 199.145 189.305 199.145" fill="white"/>
<path d="M195.16 177.283C195.16 177.283 202.232 176.032 206.394 179.357C210.555 182.682 212.01 188.925 212.214 189.557C212.418 190.189 231.941 208.08 231.941 208.08L256.482 185.402L268.552 197.261C268.552 197.261 253.157 216.811 245.256 224.298C237.354 231.785 231.526 235.314 230.071 235.96C228.616 236.606 227.161 235.96 225.495 234.92C223.829 233.879 189.305 199.145 189.305 199.145" stroke="#263238" stroke-miterlimit="10"/>
<path d="M194.711 191.842C194.711 191.842 201.158 185.81 204.49 185.599C207.822 185.389 210.1 188.095 210.1 188.095" stroke="#263238" stroke-miterlimit="10"/>
<path d="M191.379 186.851C191.379 186.851 199.288 181.649 203.864 184.131" stroke="#263238" stroke-miterlimit="10"/>
<path d="M231.941 208.08C231.941 208.08 226.535 219.518 227.365 224.924" stroke="#263238" stroke-miterlimit="10"/>
<path d="M230.901 208.685C227.303 211.167 224.603 214.745 223.203 218.885" stroke="#263238" stroke-miterlimit="10"/>
<path d="M280.99 141.767H284.131V150.885C284.124 151.267 283.968 151.631 283.696 151.899C283.424 152.167 283.058 152.318 282.676 152.32H282.451C282.064 152.32 281.692 152.166 281.418 151.892C281.144 151.618 280.99 151.246 280.99 150.858V141.767Z" fill="white" stroke="#263238" stroke-miterlimit="10"/>
<path d="M284.893 139.856H280.242V142.997H284.893V139.856Z" fill="white" stroke="#263238" stroke-miterlimit="10"/>
<path d="M286.872 141.767H290.013V150.885C290.013 151.273 289.859 151.645 289.585 151.919C289.311 152.193 288.939 152.347 288.551 152.347H288.32C287.932 152.347 287.56 152.193 287.286 151.919C287.012 151.645 286.858 151.273 286.858 150.885V141.767H286.872Z" fill="white" stroke="#263238" stroke-miterlimit="10"/>
<path d="M290.768 139.856H286.117V142.997H290.768V139.856Z" fill="white" stroke="#263238" stroke-miterlimit="10"/>
<path d="M292.033 146.554H272.068V156.808H292.033V146.554Z" fill="#263238" stroke="#263238" stroke-miterlimit="10"/>
<path d="M90.134 170.36C90.134 170.36 89.896 178.242 91.5688 181.349C93.2416 184.457 96.1044 185.647 96.3288 188.278C96.5532 190.91 95.37 194.487 97.0428 195.446C98.7156 196.404 110.643 208.366 114.485 208.107C118.327 207.849 122.4 202.375 122.4 202.375L131.002 207.869L142.467 184.219L134.824 177.29C134.824 177.29 131.716 158.651 127.418 153.394C123.121 148.138 107.114 146.71 98.9876 150.532C90.8616 154.353 87.9988 162.955 86.0676 164.628C84.1364 166.301 80.104 167.96 82.28 171.074C84.456 174.189 90.134 170.36 90.134 170.36Z" fill="white" stroke="#263238" stroke-miterlimit="10"/>
<path d="M132.661 182.063C133.572 181.383 134.484 179.534 135.232 177.664L134.81 177.29C134.81 177.29 131.702 158.651 127.405 153.394C123.107 148.138 107.1 146.71 98.974 150.532C90.848 154.353 87.9852 162.955 86.054 164.628C84.1228 166.301 80.104 167.96 82.28 171.074C84.32 173.971 89.3996 170.843 90.0796 170.394L90.1612 170.347C92.3792 169.644 94.5372 168.764 96.6144 167.715C98.5476 166.594 100.385 165.316 102.109 163.894C102.109 163.894 97.0904 172.258 99.0012 174.882C100.912 177.507 106.644 176.317 106.644 176.317C106.644 176.317 110.466 181.336 112.86 180.139C115.253 178.942 111.901 174.406 115.484 172.734C119.068 171.061 121.938 178.228 121.938 179.425C121.938 180.622 130.512 183.736 132.661 182.063Z" fill="#263238" stroke="#263238" stroke-miterlimit="10"/>
<path d="M135.266 177.704L118.565 197.118C118.565 197.118 114.485 196.635 111.636 194.487C108.786 192.338 106.379 187.081 106.379 187.081C106.379 187.081 118.565 173.706 124.773 169.884C130.213 166.545 131.981 165.94 132.342 165.804C132.131 164.995 131.906 164.179 131.662 163.37C130.363 163.941 126.555 165.852 120.462 170.802C113.805 176.242 99.7153 190.318 96.1929 193.868C96.2043 194.174 96.2879 194.474 96.4367 194.742C96.5856 195.01 96.7956 195.24 97.0497 195.411C98.7225 196.363 110.65 208.331 114.492 208.073C115.277 207.997 116.04 207.766 116.736 207.393C117.47 204.415 118.728 199.913 119.748 198.029C120.986 195.765 133.253 182.464 136.585 178.867L135.266 177.704Z" fill="#4057A2" stroke="#263238" stroke-linecap="round" stroke-linejoin="round"/>
<path d="M114.023 180.88C114.023 180.88 111.874 173.23 114.743 171.802C117.613 170.374 121.19 173.475 121.673 176.814C122.155 180.152 120.476 184.226 120.476 184.226C121.475 186.387 121.808 188.797 121.435 191.148" fill="white"/>
<path d="M114.023 180.88C114.023 180.88 111.874 173.23 114.743 171.802C117.613 170.374 121.19 173.475 121.673 176.814C122.155 180.152 120.476 184.226 120.476 184.226C121.475 186.387 121.808 188.797 121.435 191.148" stroke="#263238" stroke-miterlimit="10"/>
<path d="M101.735 186.789C102.211 187.714 102.204 188.659 101.735 188.904C101.266 189.149 100.484 188.605 100.008 187.68C99.5318 186.755 99.5386 185.81 100.008 185.565C100.477 185.32 101.259 185.864 101.735 186.789Z" fill="#263238"/>
<path d="M95.5605 182.349C95.5605 182.349 95.8393 179.01 99.8717 179.703" stroke="#263238" stroke-miterlimit="10"/>
<path d="M142.004 181.417L123.944 210.215L131.022 215.342L147.614 184.103L142.004 181.417Z" fill="white" stroke="#263238" stroke-miterlimit="10"/>
<path d="M146.397 184.593C146.397 184.593 132.485 208.76 129.799 214.125C127.113 219.49 119.306 232.669 118.817 240.482C118.327 248.295 115.893 294.202 115.893 294.202H172.04C172.04 294.202 176.195 259.304 175.95 245.881C175.705 232.458 172.285 212.684 162.037 199.26C151.79 185.837 146.397 184.593 146.397 184.593Z" fill="white" stroke="#263238" stroke-miterlimit="10"/>
<path d="M151.28 188.251C151.28 188.251 142.977 203.891 137.367 212.901C131.757 221.911 124.44 231.696 122.482 237.32C120.523 242.944 120.523 245.378 120.523 245.378" stroke="#263238" stroke-miterlimit="10"/>
<path d="M79.2813 249.757L72.6921 244.875C72.6921 244.875 69.5165 236.824 67.5649 234.627C65.6133 232.431 62.9273 232.914 61.2205 230.962C59.5137 229.01 57.5621 224.618 56.5829 224.162C55.6037 223.706 53.4141 224.896 53.4141 226.848C53.4141 228.8 55.6105 231.975 55.6105 232.703V233.437C55.6105 233.437 47.3077 230.996 46.3353 231.73C45.3629 232.465 44.3837 234.899 45.1113 236.123C45.8389 237.347 47.3077 237.83 47.3077 238.809C47.3077 239.788 45.6009 242.957 46.5801 244.174C47.2605 244.976 48.0894 245.639 49.0213 246.126C49.0213 246.126 49.0213 250.764 50.4833 252.715C51.9453 254.667 63.1721 256.115 66.5925 256.625C70.0129 257.135 80.0157 261.99 80.0157 261.99L79.2813 249.757Z" fill="#4057A2" stroke="#263238" stroke-linecap="round" stroke-linejoin="round"/>
<path d="M143.956 207.781C143.956 207.781 133.464 212.901 129.554 226.324C125.644 239.748 123.209 253.66 123.209 253.66C123.209 253.66 120.768 253.171 120.768 254.64C120.793 255.38 120.711 256.12 120.523 256.836L78.0642 248.778L77.085 268.79C77.085 268.79 132.24 279.045 135.171 279.045C138.101 279.045 141.291 278.066 142.249 275.645C143.208 273.224 159.086 237.565 159.086 237.565" fill="white"/>
<path d="M143.956 207.781C143.956 207.781 133.464 212.901 129.554 226.324C125.644 239.748 123.209 253.66 123.209 253.66C123.209 253.66 120.768 253.171 120.768 254.64C120.793 255.38 120.711 256.12 120.523 256.836L78.0642 248.778L77.085 268.79C77.085 268.79 132.24 279.045 135.171 279.045C138.101 279.045 141.291 278.066 142.249 275.645C143.208 273.224 159.086 237.565 159.086 237.565" stroke="#263238" stroke-miterlimit="10"/>
<path d="M148.838 219.008C148.838 219.008 157.134 223.638 158.596 229.99" stroke="#263238" stroke-miterlimit="10"/>
<path d="M142.977 226.08C143.711 226.08 156.162 227.059 158.841 234.138" stroke="#263238" stroke-miterlimit="10"/>
<path d="M154.448 247.806C154.448 247.806 163.968 243.413 166.899 233.893" stroke="#263238" stroke-miterlimit="10"/>
<path d="M122.727 257.081C122.727 257.081 127.602 266.104 127.357 272.456" stroke="#263238" stroke-miterlimit="10"/>
<path d="M125.65 255.612C125.65 255.612 130.56 256.591 133.96 263.16" stroke="#263238" stroke-miterlimit="10"/>
<path d="M191.277 246.337H182.485C181.659 246.371 180.867 246.676 180.233 247.206C179.598 247.736 179.157 248.461 178.976 249.268L169.898 294.148H184.539L193.617 249.268C193.71 248.915 193.72 248.546 193.645 248.189C193.571 247.832 193.413 247.498 193.186 247.213C192.958 246.928 192.667 246.7 192.336 246.548C192.004 246.396 191.642 246.323 191.277 246.337Z" fill="#263238" stroke="#263238" stroke-miterlimit="10"/>
<path d="M5.64404 294.175H336.784" stroke="#263238" stroke-miterlimit="10"/>
<path d="M22.8547 262.276H28.7571V289.918C28.7571 290.639 28.4706 291.331 27.9605 291.841C27.4504 292.351 26.7585 292.638 26.0371 292.638H25.6155C24.8941 292.638 24.2023 292.351 23.6922 291.841C23.1821 291.331 22.8955 290.639 22.8955 289.918V262.276H22.8547Z" fill="white" stroke="#263238" stroke-linecap="round" stroke-linejoin="round"/>
<path d="M22.8547 273.476V289.68C22.8547 290.463 23.1657 291.213 23.7191 291.767C24.2726 292.32 25.0232 292.631 25.8059 292.631C26.5886 292.631 27.3393 292.32 27.8928 291.767C28.4462 291.213 28.7571 290.463 28.7571 289.68V273.476H22.8547Z" fill="#4057A2" stroke="#263238" stroke-linecap="round" stroke-linejoin="round"/>
<path d="M29.7976 261.406H21.8076V266.961H29.7976V261.406Z" fill="white" stroke="#263238" stroke-linecap="round" stroke-linejoin="round"/>
<path d="M37.2913 292.651C36.9015 292.652 36.5153 292.576 36.1551 292.427C35.7949 292.278 35.4679 292.059 35.1929 291.782C34.9178 291.506 34.7003 291.178 34.5527 290.817C34.4052 290.456 34.3306 290.07 34.3333 289.68V262.276H40.2425V289.68C40.2452 290.069 40.1709 290.455 40.0238 290.816C39.8767 291.176 39.6597 291.504 39.3854 291.78C39.1111 292.056 38.7848 292.275 38.4254 292.425C38.066 292.574 37.6806 292.651 37.2913 292.651Z" fill="white" stroke="#263238" stroke-linecap="round" stroke-linejoin="round"/>
<path d="M34.3333 273.476V289.68C34.3697 290.439 34.6969 291.155 35.247 291.679C35.7971 292.204 36.5279 292.496 37.2879 292.496C38.0478 292.496 38.7786 292.204 39.3287 291.679C39.8788 291.155 40.206 290.439 40.2425 289.68V273.476H34.3333Z" fill="#4057A2" stroke="#263238" stroke-linecap="round" stroke-linejoin="round"/>
<path d="M41.2827 261.406H33.2927V266.961H41.2827V261.406Z" fill="white" stroke="#263238" stroke-linecap="round" stroke-linejoin="round"/>
<path d="M48.7696 292.651C48.3804 292.651 47.9949 292.574 47.6355 292.425C47.2761 292.275 46.9499 292.056 46.6756 291.78C46.4013 291.504 46.1843 291.176 46.0372 290.816C45.8901 290.455 45.8157 290.069 45.8184 289.68V262.276H51.7276V289.68C51.7303 290.07 51.6558 290.456 51.5082 290.817C51.3607 291.178 51.1431 291.506 50.8681 291.782C50.5931 292.059 50.266 292.278 49.9058 292.427C49.5457 292.576 49.1595 292.652 48.7696 292.651Z" fill="white" stroke="#263238" stroke-linecap="round" stroke-linejoin="round"/>
<path d="M45.8184 273.476V289.68C45.8184 290.463 46.1293 291.213 46.6827 291.767C47.2362 292.32 47.9869 292.631 48.7696 292.631C49.1577 292.632 49.5422 292.556 49.901 292.408C50.2599 292.261 50.586 292.043 50.8608 291.769C51.1355 291.495 51.3535 291.169 51.5023 290.811C51.651 290.452 51.7276 290.068 51.7276 289.68V273.476H45.8184Z" fill="#4057A2" stroke="#263238" stroke-linecap="round" stroke-linejoin="round"/>
<path d="M52.7681 261.406H44.7781V266.961H52.7681V261.406Z" fill="white" stroke="#263238" stroke-linecap="round" stroke-linejoin="round"/>
<path d="M60.2547 292.651C59.8655 292.651 59.48 292.574 59.1206 292.425C58.7612 292.275 58.435 292.056 58.1607 291.78C57.8864 291.504 57.6694 291.176 57.5223 290.816C57.3752 290.455 57.3008 290.069 57.3035 289.68V262.276H63.2399V289.68C63.2427 290.072 63.1672 290.461 63.018 290.823C62.8688 291.186 62.6488 291.515 62.3709 291.792C62.0929 292.069 61.7626 292.287 61.3993 292.435C61.036 292.582 60.6469 292.656 60.2547 292.651Z" fill="white" stroke="#263238" stroke-linecap="round" stroke-linejoin="round"/>
<path d="M57.3037 273.476V289.68C57.3037 290.467 57.6164 291.222 58.1731 291.779C58.7297 292.335 59.4847 292.648 60.2719 292.648C61.0591 292.648 61.8141 292.335 62.3707 291.779C62.9274 291.222 63.2401 290.467 63.2401 289.68V273.476H57.3037Z" fill="#4057A2" stroke="#263238" stroke-linecap="round" stroke-linejoin="round"/>
<path d="M64.2532 261.406H56.2632V266.961H64.2532V261.406Z" fill="white" stroke="#263238" stroke-linecap="round" stroke-linejoin="round"/>
<path d="M69.2446 269.96H17.8162V271.708H69.2446V289.932H15.3206V294.175H72.7398V293.175V289.932V271.708V269.96H69.2446Z" fill="white" stroke="#263238" stroke-linecap="round" stroke-linejoin="round"/>
<path d="M262.038 290.714L255.313 264.595V257.455H245.793V264.595L239.068 290.714C238.962 291.123 238.951 291.552 239.036 291.966C239.122 292.38 239.301 292.77 239.56 293.104C239.82 293.438 240.152 293.709 240.533 293.894C240.913 294.08 241.33 294.176 241.754 294.175H259.352C259.775 294.176 260.193 294.08 260.573 293.894C260.953 293.709 261.286 293.438 261.545 293.104C261.805 292.77 261.984 292.38 262.069 291.966C262.155 291.552 262.144 291.123 262.038 290.714Z" fill="white" stroke="#263238" stroke-miterlimit="10"/>
<path d="M256.53 277.515H244.576L241.047 291.224C241.015 291.331 241.011 291.444 241.033 291.553C241.056 291.662 241.105 291.764 241.176 291.849C241.24 291.94 241.326 292.014 241.426 292.063C241.525 292.113 241.636 292.138 241.747 292.135H259.352C259.465 292.139 259.576 292.115 259.677 292.065C259.778 292.015 259.865 291.941 259.93 291.849C260.001 291.764 260.05 291.662 260.073 291.553C260.095 291.444 260.091 291.331 260.059 291.224L256.53 277.515Z" fill="#4057A2"/>
<path d="M281.404 269.477V254.395H272.564V269.477C269.758 270.514 267.405 272.506 265.919 275.103C264.433 277.699 263.907 280.736 264.434 283.682C264.96 286.627 266.506 289.293 268.801 291.214C271.095 293.134 273.992 294.187 276.984 294.187C279.977 294.187 282.873 293.134 285.168 291.214C287.462 289.293 289.008 286.627 289.535 283.682C290.062 280.736 289.536 277.699 288.05 275.103C286.563 272.506 284.211 270.514 281.404 269.477Z" fill="white" stroke="#263238" stroke-miterlimit="10"/>
<path d="M266.07 278.195C265.565 279.895 265.463 281.689 265.774 283.435C266.084 285.181 266.798 286.83 267.858 288.252C268.918 289.673 270.296 290.827 271.881 291.623C273.466 292.418 275.215 292.832 276.988 292.832C278.761 292.832 280.51 292.418 282.095 291.623C283.68 290.827 285.058 289.673 286.118 288.252C287.178 286.83 287.892 285.181 288.202 283.435C288.512 281.689 288.411 279.895 287.905 278.195H266.07Z" fill="#4057A2"/>
<path d="M307.612 277.875V250.24H301.777V277.875C299.924 278.56 298.371 279.874 297.389 281.589C296.407 283.304 296.06 285.309 296.408 287.254C296.755 289.199 297.776 290.959 299.291 292.227C300.806 293.496 302.719 294.19 304.695 294.19C306.67 294.19 308.583 293.496 310.098 292.227C311.613 290.959 312.634 289.199 312.982 287.254C313.329 285.309 312.982 283.304 312 281.589C311.018 279.874 309.465 278.56 307.612 277.875Z" fill="white" stroke="#263238" stroke-miterlimit="10"/>
<path d="M297.493 283.628C297.285 284.318 297.179 285.035 297.18 285.756C297.15 286.763 297.322 287.765 297.686 288.703C298.051 289.642 298.599 290.497 299.3 291.22C300.001 291.942 300.84 292.517 301.768 292.909C302.695 293.301 303.691 293.503 304.698 293.503C305.704 293.503 306.701 293.301 307.628 292.909C308.555 292.517 309.394 291.942 310.095 291.22C310.796 290.497 311.345 289.642 311.709 288.703C312.073 287.765 312.245 286.763 312.215 285.756C312.216 285.035 312.111 284.318 311.902 283.628H297.493Z" fill="#4057A2"/>
</svg>
