<svg width="39" height="39" viewBox="0 0 39 39" fill="none" xmlns="http://www.w3.org/2000/svg">
<circle cx="19.5" cy="19.5" r="18.5" stroke="#86A7E7" stroke-linecap="round" stroke-dasharray="2 5"/>
<path fill-rule="evenodd" clip-rule="evenodd" d="M20.0288 10C15.4198 9.98439 11.6551 13.6514 11.5046 18.2414L11.5 18.5263C11.5766 20.7761 12.3421 22.9207 13.6903 24.6876L14.0069 25.1008C15.2938 26.7371 16.8231 28.1733 18.5403 29.3571L18.9537 29.6354L19.014 29.6828C19.6026 30.1057 20.3973 30.1057 20.9858 29.6828L21.036 29.6415C22.3986 28.7579 23.655 27.7196 24.7805 26.5473C27.0686 24.1252 28.4477 21.4112 28.4998 18.655L28.4999 18.5526C28.5155 13.9319 24.8598 10.1557 20.284 10.0047L20.0288 10ZM20.0237 11.5175C23.8022 11.5304 26.87 14.5494 26.9839 18.3091L26.9871 18.6406C26.9434 20.9514 25.7334 23.3324 23.6866 25.4991C22.6429 26.5862 21.4727 27.5526 20.2036 28.3745L20.119 28.438C20.0506 28.4974 19.9492 28.4974 19.8809 28.438L19.7987 28.376C17.908 27.1416 16.2486 25.583 14.8964 23.7717C13.8072 22.3442 13.1618 20.6374 13.0318 18.8569L13.0128 18.4999C13.0256 14.7122 16.0353 11.635 19.7835 11.5207L20.0237 11.5175ZM19.9999 15.4013C18.2115 15.4013 16.7618 16.8555 16.7618 18.6495C16.7618 20.4434 18.2115 21.8976 19.9999 21.8976C21.7883 21.8976 23.2381 20.4434 23.2381 18.6495C23.2381 16.8555 21.7883 15.4013 19.9999 15.4013ZM19.9999 16.9187C20.9528 16.9187 21.7253 17.6936 21.7253 18.6495C21.7253 19.6053 20.9528 20.3802 19.9999 20.3802C19.047 20.3802 18.2745 19.6053 18.2745 18.6495C18.2745 17.6936 19.047 16.9187 19.9999 16.9187Z" fill="#3D84D6"/>
</svg>
