<svg width="12" height="12" viewBox="0 0 12 12" fill="none" xmlns="http://www.w3.org/2000/svg">
    <path opacity=".5" d="M9.858 10.181C10.571 9.792 11 9.294 11 8.75c0-.576-.481-1.102-1.273-1.5C8.81 6.79 7.48 6.5 6 6.5c-1.48 0-2.811.29-3.727.75C1.481 7.648 1 8.174 1 8.75s.481 1.102 1.273 1.5C3.19 10.71 4.52 11 6 11c1.553 0 2.941-.319 3.858-.819z" fill="#41A592"/>
    <path fill-rule="evenodd" clip-rule="evenodd" d="M2.5 4.257C2.5 2.458 4.067 1 6 1s3.5 1.458 3.5 3.257c0 1.785-1.117 3.868-2.86 4.613a1.638 1.638 0 0 1-1.28 0C3.617 8.125 2.5 6.042 2.5 4.257zM6 5.5a1 1 0 1 0 0-2 1 1 0 0 0 0 2z" fill="#41A592"/>
</svg>
