<svg width="320" height="320" viewBox="0 0 320 320" fill="none" xmlns="http://www.w3.org/2000/svg">
<path d="M285.651 92.9855C285.651 92.9855 234.195 18.9055 169.952 11.0655C113.242 4.10228 60.6015 31.2255 53.2735 89.8239C50.6623 110.72 46.0159 133.805 37.7599 152.851C28.4991 174.214 12.6975 192 24.7999 233.069C36.9023 274.137 88.0127 311.225 125.165 311.149C162.317 311.072 197.216 277.299 226.01 246.585C254.803 215.872 346.496 186.989 285.651 92.9855Z" fill="#4057A2"/>
<path opacity="0.7" d="M285.651 92.9855C285.651 92.9855 234.195 18.9055 169.952 11.0655C113.242 4.10228 60.6015 31.2255 53.2735 89.8239C50.6623 110.72 46.0159 133.805 37.7599 152.851C28.4991 174.214 12.6975 192 24.7999 233.069C36.9023 274.137 88.0127 311.225 125.165 311.149C162.317 311.072 197.216 277.299 226.01 246.585C254.803 215.872 346.496 186.989 285.651 92.9855Z" fill="white"/>
<g opacity="0.3">
<path d="M277.818 123.283H215.802V170.202H277.818V123.283Z" stroke="black" stroke-linecap="round" stroke-linejoin="round"/>
<path d="M274.445 127.162H219.162V166.33H274.445V127.162Z" stroke="black" stroke-linecap="round" stroke-linejoin="round"/>
<path d="M237.19 133.331H256.422" stroke="black" stroke-linecap="round" stroke-linejoin="round"/>
<path d="M224.736 139.014H268.877" stroke="black" stroke-linecap="round" stroke-linejoin="round"/>
<path d="M234.573 150.375H259.04" stroke="black" stroke-linecap="round" stroke-linejoin="round"/>
<path d="M225.171 161.741H234.79" stroke="black" stroke-linecap="round" stroke-linejoin="round"/>
<path d="M258.822 161.741H268.435" stroke="black" stroke-linecap="round" stroke-linejoin="round"/>
</g>
<g opacity="0.3">
<path d="M294.656 180.096H249.011V214.63H294.656V180.096Z" stroke="black" stroke-linecap="round" stroke-linejoin="round"/>
<path d="M292.179 182.95H251.488V211.782H292.179V182.95Z" stroke="black" stroke-linecap="round" stroke-linejoin="round"/>
<path d="M264.761 187.494H278.912" stroke="black" stroke-linecap="round" stroke-linejoin="round"/>
<path d="M255.59 191.674H288.083" stroke="black" stroke-linecap="round" stroke-linejoin="round"/>
<path d="M262.829 200.038H280.845" stroke="black" stroke-linecap="round" stroke-linejoin="round"/>
<path d="M255.91 208.403H262.989" stroke="black" stroke-linecap="round" stroke-linejoin="round"/>
<path d="M280.678 208.403H287.757" stroke="black" stroke-linecap="round" stroke-linejoin="round"/>
</g>
<path d="M241.779 204.39L175.52 202.086C172.789 201.992 170.059 201.992 167.328 202.086L105.6 204.39L108.339 117.721C108.442 114.44 108.442 111.155 108.339 107.865L105.6 26.0862H241.779V204.39Z" fill="#263238" stroke="#263238" stroke-linecap="round" stroke-linejoin="round"/>
<path d="M243.968 23.0271H107.789V201.331H243.968V23.0271Z" fill="white" stroke="#263238" stroke-linecap="round" stroke-linejoin="round"/>
<path d="M234.912 71.6223H116.838V191.149H234.912V71.6223Z" fill="white" stroke="#263238" stroke-linecap="round" stroke-linejoin="round"/>
<path d="M117.946 53.7599V31.9039H124.346C125.459 31.855 126.564 32.1071 127.546 32.6335C128.366 33.1213 129.003 33.8658 129.357 34.7519C129.768 35.8232 129.964 36.965 129.933 38.1119C129.984 39.3008 129.733 40.4832 129.203 41.5487C128.756 42.3962 128.04 43.0714 127.168 43.4687C126.192 43.8866 125.138 44.0896 124.077 44.0639H121.92V53.7599H117.946ZM121.939 41.2415H123.45C124.03 41.268 124.608 41.1607 125.139 40.9279C125.339 40.8277 125.516 40.6873 125.66 40.5155C125.803 40.3437 125.909 40.1442 125.971 39.9295C126.144 39.3287 126.222 38.7047 126.202 38.0799C126.215 37.4355 126.157 36.7916 126.029 36.1599C125.984 35.9357 125.894 35.7229 125.765 35.5347C125.635 35.3465 125.468 35.1868 125.274 35.0655C124.706 34.7941 124.078 34.6729 123.45 34.7135H121.939V41.2415Z" fill="#4057A2"/>
<path d="M122.803 64.3007L127.2 52.7039L122.938 42.4639H126.662L129.491 49.2351L131.974 42.4639H135.43L131.2 53.4591L135.731 64.3007H132.032L128.928 56.9599L126.227 64.2943L122.803 64.3007Z" fill="#4057A2"/>
<path d="M184.045 38.6431H234.522" stroke="#263238" stroke-linecap="round" stroke-linejoin="round"/>
<path d="M184.045 49.5359H234.522" stroke="#263238" stroke-linecap="round" stroke-linejoin="round"/>
<path d="M194.944 44.8191H234.522" stroke="#263238" stroke-linecap="round" stroke-linejoin="round"/>
<path d="M194.944 54.6238H234.522" stroke="#263238" stroke-linecap="round" stroke-linejoin="round"/>
<path d="M120.858 84.7615H160.442" stroke="#263238" stroke-linecap="round" stroke-linejoin="round"/>
<path d="M120.858 95.0974H160.442" stroke="#263238" stroke-linecap="round" stroke-linejoin="round"/>
<path d="M120.858 90.1055H180.781" stroke="#263238" stroke-linecap="round" stroke-linejoin="round"/>
<path d="M120.858 107.693H160.442" stroke="#263238" stroke-linecap="round" stroke-linejoin="round"/>
<path d="M120.858 118.029H160.442" stroke="#263238" stroke-linecap="round" stroke-linejoin="round"/>
<path d="M120.858 113.037H180.781" stroke="#263238" stroke-linecap="round" stroke-linejoin="round"/>
<path d="M120.013 184.704H157.536" stroke="#263238" stroke-linecap="round" stroke-linejoin="round"/>
<path d="M191.168 184.704H228.691" stroke="#263238" stroke-linecap="round" stroke-linejoin="round"/>
<path d="M125.306 143.507C123.062 144.931 121.29 146.987 120.215 149.417C119.14 151.847 118.809 154.542 119.265 157.16C119.72 159.778 120.941 162.202 122.774 164.126C124.607 166.05 126.969 167.387 129.562 167.969C132.155 168.551 134.862 168.352 137.341 167.396C139.82 166.44 141.961 164.77 143.492 162.598C145.022 160.426 145.875 157.849 145.941 155.193C146.008 152.536 145.286 149.92 143.866 147.673C142.921 146.18 141.692 144.888 140.248 143.87C138.804 142.852 137.173 142.129 135.449 141.742C133.726 141.355 131.942 141.312 130.202 141.615C128.461 141.918 126.797 142.561 125.306 143.507ZM138.202 163.84C136.428 164.964 134.361 165.536 132.262 165.486C130.163 165.435 128.126 164.763 126.409 163.554C124.691 162.346 123.371 160.655 122.614 158.697C121.858 156.738 121.699 154.599 122.158 152.55C122.617 150.501 123.673 148.634 125.193 147.186C126.713 145.737 128.628 144.771 130.697 144.411C132.766 144.051 134.895 144.312 136.815 145.161C138.735 146.011 140.36 147.411 141.485 149.184C142.232 150.362 142.74 151.675 142.979 153.049C143.218 154.423 143.185 155.831 142.88 157.192C142.575 158.553 142.005 159.841 141.202 160.981C140.399 162.122 139.38 163.093 138.202 163.84Z" fill="#4057A2"/>
<path d="M137.506 150.495L126.061 157.747L127.229 159.59L138.674 152.338L137.506 150.495Z" fill="#4057A2"/>
<path d="M126.022 180.48C126.022 180.48 126.208 184.742 131.782 177.139C137.357 169.536 136.608 170.099 135.123 174.362C133.986 177.312 132.48 180.108 130.643 182.682C130.643 182.682 137.325 172.109 137.325 175.072C137.325 178.035 131.014 190.656 132.314 189.542C133.613 188.429 137.696 182.867 137.696 182.867C137.696 182.867 137.139 186.573 138.618 184.902C140.096 183.232 141.773 179.898 141.587 181.754C141.402 183.61 138.989 185.83 141.402 183.61C143.814 181.389 145.67 178.598 145.114 180.64C144.557 182.682 143.072 183.424 144.557 182.682C146.042 181.939 154.387 168.026 151.789 169.696C149.19 171.366 144.371 185.83 146.598 184.717C148.826 183.603 151.418 178.042 151.232 180.826C151.046 183.61 151.789 183.61 152.512 182.682" stroke="#263238" stroke-linecap="round" stroke-linejoin="round"/>
<path d="M309.178 297.76H16.9919" stroke="#263238" stroke-linecap="round" stroke-linejoin="round"/>
<path d="M309.178 303.878H16.9919" stroke="#263238" stroke-linecap="round" stroke-linejoin="round"/>
<path d="M293.171 230.272H231.219C230.242 230.271 229.296 230.623 228.557 231.262C227.818 231.902 227.334 232.786 227.193 233.754L217.926 297.114H291.597L297.222 234.688C297.271 234.127 297.203 233.561 297.021 233.028C296.84 232.494 296.549 232.004 296.168 231.589C295.787 231.173 295.324 230.842 294.808 230.615C294.292 230.389 293.735 230.272 293.171 230.272Z" fill="#263238" stroke="#263238" stroke-linecap="round" stroke-linejoin="round"/>
<path d="M209.28 219.929C209.28 219.929 192.518 228.249 186.765 230.547C181.011 232.845 179.597 233.875 179.085 235.283C178.573 236.691 156.186 271.872 153.632 275.072C151.078 278.272 145.568 285.177 146.336 289.907C147.104 294.637 153.248 298.739 159.136 298.611C165.024 298.483 168.736 297.331 169.376 295.667C170.016 294.003 186.266 264.947 186.266 264.947L191.386 297.312H256.762C256.762 297.312 261.882 253.049 261.882 246.521C261.882 239.993 263.162 232.32 260.474 230.656C257.786 228.992 246.656 225.158 238.464 222.47C230.272 219.782 227.718 219.27 225.805 219.27C223.891 219.27 209.28 219.929 209.28 219.929Z" fill="white" stroke="#263238" stroke-linecap="round" stroke-linejoin="round"/>
<path d="M207.507 220.16C207.507 220.16 205.331 224.256 205.203 227.584C205.075 230.912 204.563 237.05 202.643 240.762C200.723 244.474 199.315 246.521 200.339 246.131C201.363 245.741 207.245 239.225 207.885 237.811C208.525 236.397 209.549 239.091 209.549 239.091C209.549 239.091 207.629 244.589 207.373 245.357C207.117 246.125 215.43 256.742 215.43 256.742C215.43 256.742 222.598 251.117 224.262 249.837C225.926 248.557 225.414 247.533 225.542 245.869C225.67 244.205 226.182 241.779 227.072 240.371C227.961 238.963 230.534 244.48 232.32 247.04C234.105 249.6 235.904 250.496 235.648 248.576C235.392 246.656 234.496 242.944 233.856 236.416C233.216 229.888 233.344 222.086 231.68 219.654C230.016 217.222 221.286 216.742 215.558 216.333C213.993 216.158 212.41 216.424 210.988 217.1C209.565 217.776 208.36 218.836 207.507 220.16Z" fill="white" stroke="#263238" stroke-linecap="round" stroke-linejoin="round"/>
<path d="M181.664 241.952L186.272 264.966L180.32 249.664" stroke="#263238" stroke-linecap="round" stroke-linejoin="round"/>
<path d="M208.147 226.33C208.147 226.33 209.939 236.307 211.603 243.981C212.518 248.349 213.803 252.631 215.443 256.781C215.443 256.781 223.891 242.579 226.323 235.162C227.704 231.069 228.774 226.878 229.523 222.624H208.147V226.33Z" stroke="#263238" stroke-linecap="round" stroke-linejoin="round"/>
<path d="M217.485 229.76L212.883 235.52L216.083 241.664L212.934 249.286C213.629 251.821 214.466 254.315 215.443 256.755C215.443 256.755 218.08 252.326 220.825 247.155L218.515 241.824L221.331 235.424L217.485 229.76Z" fill="#4057A2" stroke="#263238" stroke-linecap="round" stroke-linejoin="round"/>
<path d="M208.147 222.618V226.33C208.147 226.33 209.382 233.216 210.752 239.942L217.229 233.107L224.058 240.672C224.912 238.876 225.666 237.034 226.317 235.155C227.698 231.063 228.768 226.872 229.517 222.618H208.147Z" fill="white" stroke="#263238" stroke-linecap="round" stroke-linejoin="round"/>
<path d="M152.371 278.861C152.371 278.861 164.32 274.496 170.765 285.114" stroke="#263238" stroke-linecap="round" stroke-linejoin="round"/>
<path d="M170.976 281.837C170.976 281.837 164.301 283.347 160.736 289.037C157.171 294.726 164.422 295.36 166.426 295.36C168.429 295.36 170.323 294.016 170.432 293.318C170.541 292.621 173.165 285.875 173.062 284.301C173.05 283.713 172.837 283.147 172.457 282.698C172.077 282.25 171.554 281.945 170.976 281.837Z" fill="white" stroke="#263238" stroke-linecap="round" stroke-linejoin="round"/>
<path d="M167.904 284.192C167.904 284.192 164.211 287.392 164.461 288.672C164.71 289.952 170.189 294.88 171.245 294.17C171.435 294.073 171.605 293.939 171.743 293.777C171.882 293.614 171.988 293.426 172.054 293.222C172.12 293.019 172.145 292.805 172.128 292.592C172.111 292.379 172.052 292.171 171.955 291.981C171.654 291.501 167.904 284.192 167.904 284.192Z" fill="white" stroke="#263238" stroke-linecap="round" stroke-linejoin="round"/>
<path d="M164.48 288.64C164.48 288.64 162.31 290.95 163.021 292.006C163.731 293.062 168.691 295.757 169.978 294.944C171.264 294.131 170.432 293.299 170.432 293.299L164.48 288.64Z" fill="white" stroke="#263238" stroke-linecap="round" stroke-linejoin="round"/>
<path d="M177.19 284.07L172.749 283.302L173.792 289.696L178.33 289.837L177.19 284.07Z" fill="white" stroke="#263238" stroke-linecap="round" stroke-linejoin="round"/>
<path d="M169.197 274.016L174.4 292.249L176.928 294.547V291.302L171.424 273.382C171.379 273.233 171.305 273.095 171.205 272.975C171.105 272.856 170.982 272.758 170.843 272.687C170.704 272.617 170.553 272.575 170.397 272.565C170.242 272.554 170.086 272.575 169.939 272.627C169.663 272.722 169.433 272.918 169.296 273.176C169.158 273.433 169.123 273.733 169.197 274.016Z" fill="#263238" stroke="#263238" stroke-linecap="round" stroke-linejoin="round"/>
<path d="M170.976 281.837C170.976 281.837 167.904 283.635 168.211 284.998C168.518 286.361 171.833 292.736 173.03 292.819C174.227 292.902 174.95 292.179 174.777 290.797C174.605 289.414 173.497 284.397 172.749 283.302C172 282.208 171.917 281.773 170.976 281.837Z" fill="white" stroke="#263238" stroke-linecap="round" stroke-linejoin="round"/>
<path d="M177.19 284.07C177.19 284.07 180.461 284.48 181.03 285.478C181.6 286.477 179.315 290.458 178.586 291.366C177.856 292.275 176.55 292.237 176.512 289.933C176.573 287.963 176.8 286.002 177.19 284.07Z" fill="white" stroke="#263238" stroke-linecap="round" stroke-linejoin="round"/>
<path d="M159.501 291.77H195.386C196.388 291.771 197.349 292.17 198.058 292.879C198.767 293.588 199.166 294.549 199.168 295.552C199.168 296.401 198.831 297.215 198.231 297.815C197.631 298.415 196.817 298.752 195.968 298.752H160C159.219 298.752 158.47 298.442 157.918 297.89C157.366 297.338 157.056 296.589 157.056 295.808V294.208C157.056 293.887 157.119 293.57 157.242 293.273C157.365 292.977 157.545 292.708 157.772 292.481C157.999 292.255 158.269 292.075 158.566 291.953C158.862 291.831 159.18 291.769 159.501 291.77Z" fill="white" stroke="#263238" stroke-linecap="round" stroke-linejoin="round"/>
<path d="M223.36 283.52C223.36 283.52 214.022 282.496 211.718 281.728C209.414 280.96 205.702 280.32 204.422 281.344C203.142 282.368 196.877 289.664 196.742 290.554C196.608 291.443 195.334 294.394 195.974 295.162C196.511 295.697 197.17 296.092 197.894 296.314C197.894 296.314 206.214 298.618 207.104 298.746C207.993 298.874 216.569 298.49 216.569 298.49L221.049 296.826L227.315 296.698C227.315 296.698 227.443 298.746 227.571 293.754C227.699 288.762 223.36 283.52 223.36 283.52Z" fill="white" stroke="#263238" stroke-linecap="round" stroke-linejoin="round"/>
<path d="M197.914 296.32C197.914 296.32 198.042 293.376 198.682 292.096C199.322 290.816 206.611 284.294 206.611 284.294" stroke="#263238" stroke-linecap="round" stroke-linejoin="round"/>
<path d="M200.32 297.075C200.32 297.075 201.6 293.875 202.112 293.619C202.624 293.363 208.633 289.523 208.633 289.523" stroke="#263238" stroke-linecap="round" stroke-linejoin="round"/>
<path d="M204.691 297.971C204.691 297.971 204.947 296.691 205.587 296.435C206.227 296.179 211.603 293.747 211.603 293.747" stroke="#263238" stroke-linecap="round" stroke-linejoin="round"/>
<path d="M210.451 298.611L212.883 297.971L212.627 296.819L210.067 297.459" stroke="#263238" stroke-linecap="round" stroke-linejoin="round"/>
<path d="M252.665 242.317C252.665 242.317 245.888 256.518 246.265 261.517C246.643 266.515 248.32 274.816 248.32 274.816C248.32 274.816 237.574 279.034 233.862 280.576C230.15 282.118 223.36 283.52 223.36 283.52L226.809 297.082L226.304 298.49H263.526C263.526 298.49 266.342 297.978 266.854 297.338C267.366 296.698 267.878 296.442 268.134 294.394C268.39 292.346 270.054 274.438 269.67 269.434C269.286 264.429 264.038 238.477 263.398 235.789C262.758 233.101 261.613 231.309 260.461 230.669C259.309 230.029 254.317 229.523 254.317 229.523" fill="white"/>
<path d="M252.665 242.317C252.665 242.317 245.888 256.518 246.265 261.517C246.643 266.515 248.32 274.816 248.32 274.816C248.32 274.816 237.574 279.034 233.862 280.576C230.15 282.118 223.36 283.52 223.36 283.52L226.809 297.082L226.304 298.49H263.526C263.526 298.49 266.342 297.978 266.854 297.338C267.366 296.698 267.878 296.442 268.134 294.394C268.39 292.346 270.054 274.438 269.67 269.434C269.286 264.429 264.038 238.477 263.398 235.789C262.758 233.101 261.613 231.309 260.461 230.669C259.309 230.029 254.317 229.523 254.317 229.523" stroke="#263238" stroke-linecap="round" stroke-linejoin="round"/>
<path d="M249.216 275.072C249.216 275.072 259.065 275.584 263.936 278.65" stroke="#263238" stroke-linecap="round" stroke-linejoin="round"/>
<path d="M251.001 273.792C251.001 273.792 257.913 273.408 261.625 274.56" stroke="#263238" stroke-linecap="round" stroke-linejoin="round"/>
<path d="M249.088 241.92C249.088 241.92 245.632 249.984 245.504 253.056C245.376 256.128 245.12 257.92 245.12 257.92" stroke="#263238" stroke-linecap="round" stroke-linejoin="round"/>
<path d="M233.35 220.57C233.35 220.57 241.152 231.68 234.88 262.662" stroke="#263238" stroke-width="2" stroke-linecap="round" stroke-linejoin="round"/>
<path d="M238.592 263.558C238.592 262.799 238.367 262.056 237.945 261.425C237.523 260.793 236.923 260.301 236.221 260.011C235.52 259.72 234.748 259.644 234.003 259.792C233.258 259.94 232.574 260.306 232.037 260.843C231.5 261.38 231.134 262.064 230.986 262.809C230.837 263.554 230.914 264.326 231.204 265.028C231.495 265.729 231.987 266.329 232.618 266.751C233.25 267.173 233.992 267.398 234.752 267.398C235.77 267.398 236.747 266.994 237.467 266.274C238.187 265.553 238.592 264.577 238.592 263.558Z" fill="white" stroke="#263238" stroke-linecap="round" stroke-linejoin="round"/>
<path d="M206.72 221.722C206.72 221.722 202.758 224.282 202.118 234.643" stroke="#263238" stroke-width="2" stroke-linecap="round" stroke-linejoin="round"/>
<path d="M207.622 250.342C206.656 257.331 205.338 264.838 205.062 266.483C204.422 270.003 200.243 271.232 197.555 270.08" stroke="#263238" stroke-width="2" stroke-linecap="round" stroke-linejoin="round"/>
<path d="M197.6 250.803C196.723 246.886 196.185 243.488 196.377 241.933C197.273 234.771 202.137 234.643 202.137 234.643C202.137 234.643 207.897 235.411 208.275 241.555C208.315 244.497 208.101 247.437 207.635 250.342" stroke="#263238" stroke-width="2" stroke-linecap="round" stroke-linejoin="round"/>
<path d="M208.403 269.568C208.403 269.568 205.715 271.104 203.923 270.08C202.713 269.389 199.443 258.97 197.6 250.803" stroke="#263238" stroke-width="2" stroke-linecap="round" stroke-linejoin="round"/>
<path d="M209.34 268.181L208.282 268.637C207.772 268.857 207.537 269.448 207.757 269.957L207.77 269.987C207.989 270.496 208.58 270.731 209.09 270.512L210.148 270.056C210.658 269.836 210.893 269.245 210.673 268.735L210.66 268.706C210.441 268.196 209.849 267.961 209.34 268.181Z" stroke="#263238" stroke-linecap="round" stroke-linejoin="round"/>
<path d="M197.887 268.875L196.899 268.282C196.424 267.996 195.806 268.15 195.521 268.626L195.504 268.653C195.219 269.129 195.373 269.746 195.848 270.032L196.836 270.625C197.312 270.911 197.929 270.757 198.215 270.281L198.231 270.254C198.517 269.778 198.363 269.161 197.887 268.875Z" stroke="#263238" stroke-linecap="round" stroke-linejoin="round"/>
<path d="M202.138 190.765C202.138 190.765 200.089 195.622 200.473 198.694C200.857 201.766 204.953 205.094 204.953 205.094C204.953 205.094 206.362 191.405 206.362 190.893C206.362 190.381 203.795 189.229 202.138 190.765Z" fill="#263238" stroke="#263238" stroke-linecap="round" stroke-linejoin="round"/>
<path d="M200.666 208.166L203.386 206.266" stroke="#263238" stroke-width="2" stroke-linecap="round" stroke-linejoin="round"/>
<path d="M203.667 191.661C203.667 191.661 203.155 205.222 203.411 207.776C203.667 210.33 204.691 218.522 205.587 221.082C206.483 223.642 209.427 231.827 211.731 232.723C214.035 233.619 218.637 234.259 220.173 233.235C221.709 232.211 227.334 228.378 228.87 224.666C229.781 222.501 230.384 220.22 230.662 217.888C231.939 217.207 233.043 216.24 233.886 215.064C234.73 213.887 235.291 212.532 235.526 211.104C236.294 206.24 234.246 204.838 234.246 204.838L234.374 196.39C234.374 196.39 232.966 190.509 229.254 187.309C225.542 184.109 221.197 183.853 216.717 186.285C212.237 188.717 203.667 191.661 203.667 191.661Z" fill="white" stroke="#263238" stroke-linecap="round" stroke-linejoin="round"/>
<path d="M227.718 190.893C227.718 190.893 227.846 187.565 224.653 188.717C221.459 189.869 220.685 192.045 215.949 193.965C211.213 195.885 204.947 193.709 202.778 192.429C200.608 191.149 199.066 189.357 202.01 186.029C204.954 182.701 211.859 179.379 219.29 179.379C226.72 179.379 232.467 185.517 234.899 188.077C237.331 190.637 237.715 193.837 236.819 196.134C235.923 198.432 234.259 204.838 234.259 204.838C234.259 204.838 233.235 204.71 232.851 206.24C232.467 207.77 232.595 209.44 230.931 209.568C229.267 209.696 229.395 205.222 229.395 205.222C229.395 205.222 225.306 203.942 224.794 200.998C224.282 198.054 227.718 193.709 227.718 190.893Z" fill="#263238" stroke="#263238" stroke-linecap="round" stroke-linejoin="round"/>
<path d="M212.48 210.253L200.646 208.166L201.331 213.472C201.373 213.802 201.52 214.109 201.751 214.349C201.981 214.589 202.283 214.748 202.611 214.803L209.805 215.936C210.2 216 210.605 215.907 210.933 215.678C211.262 215.448 211.488 215.1 211.565 214.707L212.48 210.253Z" stroke="#263238" stroke-width="2" stroke-linecap="round" stroke-linejoin="round"/>
<path d="M214.637 210.477L228.358 210.08L227.014 215.046C226.899 215.381 226.678 215.669 226.385 215.867C226.092 216.066 225.742 216.164 225.389 216.147L217.069 216.262C216.637 216.292 216.21 216.165 215.864 215.906C215.519 215.646 215.278 215.27 215.187 214.848L214.637 210.477Z" stroke="#263238" stroke-width="2" stroke-linecap="round" stroke-linejoin="round"/>
<path d="M212.499 210.253L214.637 210.477" stroke="#263238" stroke-width="2" stroke-linecap="round" stroke-linejoin="round"/>
<path d="M228.358 210.08L232.838 206.24" stroke="#263238" stroke-width="2" stroke-linecap="round" stroke-linejoin="round"/>
<path d="M216.461 208.928C216.461 208.928 220.301 205.99 223.885 207.776" stroke="#263238" stroke-width="2" stroke-linecap="round" stroke-linejoin="round"/>
<path d="M210.707 208.288C210.707 208.288 207.763 205.088 204.435 207.264" stroke="#263238" stroke-width="2" stroke-linecap="round" stroke-linejoin="round"/>
<path d="M211.475 219.417C211.475 219.417 210.835 222.105 211.475 222.617C212.565 223.219 213.822 223.444 215.053 223.257" stroke="#263238" stroke-linecap="round" stroke-linejoin="round"/>
<path d="M209.555 224.64C209.555 224.64 212.115 226.56 214.547 226.688C216.979 226.816 219.789 225.024 219.789 225.024" stroke="#263238" stroke-linecap="round" stroke-linejoin="round"/>
<path d="M219.021 211.616C219.021 211.616 220.557 213.408 223.117 211.488" stroke="#263238" stroke-linecap="round" stroke-linejoin="round"/>
<path d="M206.419 210.829C206.419 210.829 207.699 212.813 210.49 211.258" stroke="#263238" stroke-linecap="round" stroke-linejoin="round"/>
<path d="M127.04 190.88C127.04 190.88 127.853 203.072 127.239 204.09L125.44 207.136C125.44 207.136 126.253 215.878 124.627 216.89C123.368 217.564 121.986 217.98 120.563 218.112C120.563 218.112 118.938 224.614 118.323 225.427C117.709 226.24 114.055 228.883 112.839 229.267C111.623 229.651 107.757 229.907 98.6114 224.39C89.4658 218.874 86.0098 217.075 86.2146 214.029C86.4194 210.982 86.8546 207.526 86.8546 207.526C86.8546 207.526 87.8722 192.89 89.7026 188.422C91.533 183.955 114.701 181.51 119.783 182.733C124.864 183.955 127.04 190.88 127.04 190.88Z" fill="white" stroke="#263238" stroke-linecap="round" stroke-linejoin="round"/>
<path d="M103.462 210.995L104.89 212.013C104.89 212.013 103.667 216.89 104.25 219.13" stroke="#263238" stroke-linecap="round" stroke-linejoin="round"/>
<path d="M123.783 206.912C123.578 207.846 123.085 208.525 122.688 208.435C122.291 208.346 122.131 207.526 122.343 206.592C122.554 205.658 123.04 204.979 123.437 205.069C123.834 205.158 123.994 205.984 123.783 206.912Z" fill="#263238"/>
<path d="M121.709 203.181C121.709 203.181 123.923 200.966 125.773 203.059" stroke="#263238" stroke-linecap="round" stroke-linejoin="round"/>
<path d="M118.912 189.254C118.912 189.254 121.549 194.131 121.35 195.149C121.152 196.166 112.813 198.605 112.813 198.605C112.813 198.605 112 203.482 110.778 204.09L109.562 204.698C108.587 203.374 107.769 201.941 107.123 200.429C105.702 197.382 103.667 196.589 101.434 199.616C99.2001 202.643 101.024 209.779 102.246 210.387L103.462 210.995C103.462 210.995 102.445 212.013 98.5857 212.627C94.7265 213.242 91.8785 214.048 89.0369 213.235C86.1953 212.422 82.1249 204.698 80.7169 194.739C79.3089 184.781 83.7633 176.25 89.6769 173.619C95.5905 170.989 108.986 173.414 109.997 174.022C111.008 174.63 117.926 171.386 121.99 173.414C126.054 175.443 125.83 177.683 126.867 179.104C127.904 180.525 133.165 178.701 133.574 183.782C133.984 188.864 131.949 191.91 129.306 192.314C126.662 192.717 118.912 189.254 118.912 189.254Z" fill="#263238" stroke="#263238" stroke-linecap="round" stroke-linejoin="round"/>
<path d="M70.7906 221.158C70.7906 221.158 51.3154 231.546 47.6034 233.6C43.8914 235.654 43.3346 237.498 43.1234 239.36C42.9122 241.222 43.1234 303.904 43.1234 303.904H148.32C148.32 303.904 132.365 256 131.84 250.65C131.315 245.299 130.176 235.808 128.691 234.694C127.207 233.581 106.24 224.307 106.24 224.307C106.24 224.307 101.229 218.931 89.3634 218.931C77.4978 218.931 70.7906 221.158 70.7906 221.158Z" fill="#4057A2" stroke="#263238" stroke-linecap="round" stroke-linejoin="round"/>
<path d="M82.8481 259.322C83.3985 259.539 83.9553 259.738 84.5121 259.923" stroke="#263238" stroke-linecap="round" stroke-linejoin="round"/>
<path d="M62.0801 242.118C62.0801 242.118 69.7601 252.832 80.2497 258.118" stroke="#263238" stroke-linecap="round" stroke-linejoin="round"/>
<path d="M68.749 254.541C68.749 254.541 73.0114 258.81 81.9138 261.222" stroke="#263238" stroke-linecap="round" stroke-linejoin="round"/>
<path d="M121.6 239.168C118.637 242.534 114.464 247.917 113.082 252.87" stroke="#263238" stroke-linecap="round" stroke-linejoin="round"/>
<path d="M124.762 235.808C124.762 235.808 124.173 236.378 123.251 237.357" stroke="#263238" stroke-linecap="round" stroke-linejoin="round"/>
<path d="M114.189 246.938C114.189 246.938 111.405 252.313 110.854 255.654" stroke="#263238" stroke-linecap="round" stroke-linejoin="round"/>
<path d="M69.677 222.08C69.677 222.08 80.4354 221.709 90.637 221.894C100.839 222.08 107.52 225.235 107.52 225.235C107.52 225.235 101.395 217.818 98.6178 216.147C95.8402 214.477 87.3026 211.667 80.2562 213.92C75.9154 215.378 72.1899 218.252 69.677 222.08Z" fill="#4057A2" stroke="#263238" stroke-linecap="round" stroke-linejoin="round"/>
<path d="M39.0849 303.834L29.2801 266.24C29.1849 265.784 29.1928 265.312 29.303 264.859C29.4133 264.406 29.6232 263.983 29.9175 263.621C30.2118 263.259 30.583 262.968 31.0042 262.768C31.4253 262.567 31.8858 262.464 32.3521 262.464H110.362C111.078 262.465 111.774 262.71 112.332 263.159C112.891 263.608 113.279 264.235 113.434 264.935L122.093 303.872" fill="#263238"/>
<path d="M39.0849 303.834L29.2801 266.24C29.1849 265.784 29.1928 265.312 29.303 264.859C29.4133 264.406 29.6232 263.983 29.9175 263.621C30.2118 263.259 30.583 262.968 31.0042 262.768C31.4253 262.567 31.8858 262.464 32.3521 262.464H110.362C111.078 262.465 111.774 262.71 112.332 263.159C112.891 263.608 113.279 264.235 113.434 264.935L122.093 303.872" stroke="#263238" stroke-linecap="round" stroke-linejoin="round"/>
</svg>
