<svg width="320" height="320" viewBox="0 0 320 320" fill="none" xmlns="http://www.w3.org/2000/svg">
    <path d="M285.651 92.986s-51.456-74.08-115.699-81.92c-56.71-6.964-109.35 20.16-116.678 78.758-2.612 20.896-7.258 43.981-15.514 63.027C28.5 174.214 12.697 192 24.8 233.069c12.102 41.068 63.213 78.156 100.365 78.08 37.152-.077 72.051-33.85 100.845-64.564 28.793-30.713 120.486-59.596 59.641-153.6z" fill="#4057A2"/>
    <path opacity=".7" d="M285.651 92.986s-51.456-74.08-115.699-81.92c-56.71-6.964-109.35 20.16-116.678 78.758-2.612 20.896-7.258 43.981-15.514 63.027C28.5 174.214 12.697 192 24.8 233.069c12.102 41.068 63.213 78.156 100.365 78.08 37.152-.077 72.051-33.85 100.845-64.564 28.793-30.713 120.486-59.596 59.641-153.6z" fill="#fff"/>
    <g opacity=".3" stroke="#000" stroke-linecap="round" stroke-linejoin="round">
        <path d="M277.818 123.283h-62.016v46.919h62.016v-46.919z"/>
        <path d="M274.445 127.162h-55.283v39.168h55.283v-39.168zM237.19 133.331h19.232M224.736 139.014h44.141M234.573 150.375h24.467M225.171 161.741h9.619M258.822 161.741h9.613"/>
    </g>
    <g opacity=".3" stroke="#000" stroke-linecap="round" stroke-linejoin="round">
        <path d="M294.656 180.096h-45.645v34.534h45.645v-34.534z"/>
        <path d="M292.179 182.95h-40.691v28.832h40.691V182.95zM264.761 187.494h14.151M255.59 191.674h32.493M262.829 200.038h18.016M255.91 208.403h7.079M280.678 208.403h7.079"/>
    </g>
    <path d="m241.779 204.39-66.259-2.304a119.023 119.023 0 0 0-8.192 0L105.6 204.39l2.739-86.669c.103-3.281.103-6.566 0-9.856L105.6 26.086h136.179V204.39z" fill="#263238" stroke="#263238" stroke-linecap="round" stroke-linejoin="round"/>
    <path d="M243.968 23.027H107.789v178.304h136.179V23.027z" fill="#fff" stroke="#263238" stroke-linecap="round" stroke-linejoin="round"/>
    <path d="M234.912 71.622H116.838V191.15h118.074V71.622z" fill="#fff" stroke="#263238" stroke-linecap="round" stroke-linejoin="round"/>
    <path d="M117.946 53.76V31.904h6.4a6.196 6.196 0 0 1 3.2.73 4.338 4.338 0 0 1 1.811 2.118 8.723 8.723 0 0 1 .576 3.36 7.04 7.04 0 0 1-.73 3.437 4.33 4.33 0 0 1-2.035 1.92c-.976.418-2.03.62-3.091.595h-2.157v9.696h-3.974zm3.993-12.518h1.511c.58.026 1.158-.081 1.689-.314a1.618 1.618 0 0 0 .832-.998c.173-.601.251-1.225.231-1.85a8.777 8.777 0 0 0-.173-1.92 1.678 1.678 0 0 0-.755-1.094 3.68 3.68 0 0 0-1.824-.352h-1.511v6.528z" fill="#4057A2"/>
    <path d="m122.803 64.3 4.397-11.596-4.262-10.24h3.724l2.829 6.771 2.483-6.771h3.456l-4.23 10.995 4.531 10.842h-3.699l-3.104-7.341-2.701 7.334-3.424.007z" fill="#4057A2"/>
    <path d="M184.045 38.643h50.477M184.045 49.536h50.477M194.944 44.82h39.578M194.944 54.624h39.578M120.858 84.761h39.584M120.858 95.097h39.584M120.858 90.106h59.923M120.858 107.693h39.584M120.858 118.029h39.584M120.858 113.037h59.923M120.013 184.704h37.523M191.168 184.704h37.523" stroke="#263238" stroke-linecap="round" stroke-linejoin="round"/>
    <path d="M125.306 143.507a13.44 13.44 0 1 0 14.398 22.699 13.44 13.44 0 0 0-14.398-22.699zm12.896 20.333a10.614 10.614 0 0 1-11.793-.286 10.617 10.617 0 1 1 11.793.286z" fill="#4057A2"/>
    <path d="m137.506 150.495-11.445 7.252 1.168 1.843 11.445-7.252-1.168-1.843z" fill="#4057A2"/>
    <path d="M126.022 180.48s.186 4.262 5.76-3.341c5.575-7.603 4.826-7.04 3.341-2.777a37.608 37.608 0 0 1-4.48 8.32s6.682-10.573 6.682-7.61-6.311 15.584-5.011 14.47c1.299-1.113 5.382-6.675 5.382-6.675s-.557 3.706.922 2.035c1.478-1.67 3.155-5.004 2.969-3.148-.185 1.856-2.598 4.076-.185 1.856 2.412-2.221 4.268-5.012 3.712-2.97-.557 2.042-2.042 2.784-.557 2.042 1.485-.743 9.83-14.656 7.232-12.986-2.599 1.67-7.418 16.134-5.191 15.021 2.228-1.114 4.82-6.675 4.634-3.891-.186 2.784.557 2.784 1.28 1.856M309.178 297.76H16.992M309.178 303.878H16.992" stroke="#263238" stroke-linecap="round" stroke-linejoin="round"/>
    <path d="M293.171 230.272h-61.952a4.066 4.066 0 0 0-4.026 3.482l-9.267 63.36h73.671l5.625-62.426a4.049 4.049 0 0 0-1.054-3.099 4.06 4.06 0 0 0-2.997-1.317z" fill="#263238" stroke="#263238" stroke-linecap="round" stroke-linejoin="round"/>
    <path d="M209.28 219.929s-16.762 8.32-22.515 10.618c-5.754 2.298-7.168 3.328-7.68 4.736-.512 1.408-22.899 36.589-25.453 39.789-2.554 3.2-8.064 10.105-7.296 14.835.768 4.73 6.912 8.832 12.8 8.704 5.888-.128 9.6-1.28 10.24-2.944.64-1.664 16.89-30.72 16.89-30.72l5.12 32.365h65.376s5.12-44.263 5.12-50.791c0-6.528 1.28-14.201-1.408-15.865-2.688-1.664-13.818-5.498-22.01-8.186-8.192-2.688-10.746-3.2-12.659-3.2-1.914 0-16.525.659-16.525.659z" fill="#fff" stroke="#263238" stroke-linecap="round" stroke-linejoin="round"/>
    <path d="M207.507 220.16s-2.176 4.096-2.304 7.424c-.128 3.328-.64 9.466-2.56 13.178-1.92 3.712-3.328 5.759-2.304 5.369 1.024-.39 6.906-6.906 7.546-8.32.64-1.414 1.664 1.28 1.664 1.28s-1.92 5.498-2.176 6.266c-.256.768 8.057 11.385 8.057 11.385s7.168-5.625 8.832-6.905c1.664-1.28 1.152-2.304 1.28-3.968.128-1.664.64-4.09 1.53-5.498.889-1.408 3.462 4.109 5.248 6.669 1.785 2.56 3.584 3.456 3.328 1.536-.256-1.92-1.152-5.632-1.792-12.16-.64-6.528-.512-14.33-2.176-16.762-1.664-2.432-10.394-2.912-16.122-3.321a8.456 8.456 0 0 0-8.051 3.827z" fill="#fff" stroke="#263238" stroke-linecap="round" stroke-linejoin="round"/>
    <path d="m181.664 241.952 4.608 23.014-5.952-15.302M208.147 226.33s1.792 9.977 3.456 17.651c.915 4.368 2.2 8.65 3.84 12.8 0 0 8.448-14.202 10.88-21.619a85.702 85.702 0 0 0 3.2-12.538h-21.376v3.706z" stroke="#263238" stroke-linecap="round" stroke-linejoin="round"/>
    <path d="m217.485 229.76-4.602 5.76 3.2 6.144-3.149 7.622a69.598 69.598 0 0 0 2.509 7.469s2.637-4.429 5.382-9.6l-2.31-5.331 2.816-6.4-3.846-5.664z" fill="#4057A2" stroke="#263238" stroke-linecap="round" stroke-linejoin="round"/>
    <path d="M208.147 222.618v3.712s1.235 6.886 2.605 13.612l6.477-6.835 6.829 7.565a54.059 54.059 0 0 0 2.259-5.517 85.657 85.657 0 0 0 3.2-12.537h-21.37z" fill="#fff" stroke="#263238" stroke-linecap="round" stroke-linejoin="round"/>
    <path d="M152.371 278.861s11.949-4.365 18.394 6.253" stroke="#263238" stroke-linecap="round" stroke-linejoin="round"/>
    <path d="M170.976 281.837s-6.675 1.51-10.24 7.2c-3.565 5.689 3.686 6.323 5.69 6.323 2.003 0 3.897-1.344 4.006-2.042.109-.697 2.733-7.443 2.63-9.017a2.561 2.561 0 0 0-2.086-2.464z" fill="#fff" stroke="#263238" stroke-linecap="round" stroke-linejoin="round"/>
    <path d="M167.904 284.192s-3.693 3.2-3.443 4.48c.249 1.28 5.728 6.208 6.784 5.498a1.627 1.627 0 0 0 .71-2.189c-.301-.48-4.051-7.789-4.051-7.789z" fill="#fff" stroke="#263238" stroke-linecap="round" stroke-linejoin="round"/>
    <path d="M164.48 288.64s-2.17 2.31-1.459 3.366c.71 1.056 5.67 3.751 6.957 2.938 1.286-.813.454-1.645.454-1.645l-5.952-4.659zM177.19 284.07l-4.441-.768 1.043 6.394 4.538.141-1.14-5.767z" fill="#fff" stroke="#263238" stroke-linecap="round" stroke-linejoin="round"/>
    <path d="m169.197 274.016 5.203 18.233 2.528 2.298v-3.245l-5.504-17.92a1.157 1.157 0 0 0-.581-.695 1.155 1.155 0 0 0-.904-.06 1.157 1.157 0 0 0-.742 1.389z" fill="#263238" stroke="#263238" stroke-linecap="round" stroke-linejoin="round"/>
    <path d="M170.976 281.837s-3.072 1.798-2.765 3.161c.307 1.363 3.622 7.738 4.819 7.821 1.197.083 1.92-.64 1.747-2.022-.172-1.383-1.28-6.4-2.028-7.495-.749-1.094-.832-1.529-1.773-1.465zM177.19 284.07s3.271.41 3.84 1.408c.57.999-1.715 4.98-2.444 5.888-.73.909-2.036.871-2.074-1.433.061-1.97.288-3.931.678-5.863z" fill="#fff" stroke="#263238" stroke-linecap="round" stroke-linejoin="round"/>
    <path d="M159.501 291.77h35.885a3.785 3.785 0 0 1 3.782 3.782 3.2 3.2 0 0 1-3.2 3.2H160a2.944 2.944 0 0 1-2.944-2.944v-1.6a2.44 2.44 0 0 1 1.51-2.255c.296-.122.614-.184.935-.183z" fill="#fff" stroke="#263238" stroke-linecap="round" stroke-linejoin="round"/>
    <path d="M223.36 283.52s-9.338-1.024-11.642-1.792c-2.304-.768-6.016-1.408-7.296-.384-1.28 1.024-7.545 8.32-7.68 9.21-.134.889-1.408 3.84-.768 4.608.537.535 1.196.93 1.92 1.152 0 0 8.32 2.304 9.21 2.432.889.128 9.465-.256 9.465-.256l4.48-1.664 6.266-.128s.128 2.048.256-2.944-4.211-10.234-4.211-10.234z" fill="#fff" stroke="#263238" stroke-linecap="round" stroke-linejoin="round"/>
    <path d="M197.914 296.32s.128-2.944.768-4.224c.64-1.28 7.929-7.802 7.929-7.802M200.32 297.075s1.28-3.2 1.792-3.456c.512-.256 6.521-4.096 6.521-4.096M204.691 297.971s.256-1.28.896-1.536 6.016-2.688 6.016-2.688M210.451 298.611l2.432-.64-.256-1.152-2.56.64" stroke="#263238" stroke-linecap="round" stroke-linejoin="round"/>
    <path d="M252.665 242.317s-6.777 14.201-6.4 19.2c.378 4.998 2.055 13.299 2.055 13.299s-10.746 4.218-14.458 5.76c-3.712 1.542-10.502 2.944-10.502 2.944l3.449 13.562-.505 1.408h37.222s2.816-.512 3.328-1.152c.512-.64 1.024-.896 1.28-2.944s1.92-19.956 1.536-24.96c-.384-5.005-5.632-30.957-6.272-33.645-.64-2.688-1.785-4.48-2.937-5.12-1.152-.64-6.144-1.146-6.144-1.146" fill="#fff"/>
    <path d="M252.665 242.317s-6.777 14.201-6.4 19.2c.378 4.998 2.055 13.299 2.055 13.299s-10.746 4.218-14.458 5.76c-3.712 1.542-10.502 2.944-10.502 2.944l3.449 13.562-.505 1.408h37.222s2.816-.512 3.328-1.152c.512-.64 1.024-.896 1.28-2.944s1.92-19.956 1.536-24.96c-.384-5.005-5.632-30.957-6.272-33.645-.64-2.688-1.785-4.48-2.937-5.12-1.152-.64-6.144-1.146-6.144-1.146" stroke="#263238" stroke-linecap="round" stroke-linejoin="round"/>
    <path d="M249.216 275.072s9.849.512 14.72 3.578M251.001 273.792s6.912-.384 10.624.768M249.088 241.92s-3.456 8.064-3.584 11.136c-.128 3.072-.384 4.864-.384 4.864" stroke="#263238" stroke-linecap="round" stroke-linejoin="round"/>
    <path d="M233.35 220.57s7.802 11.11 1.53 42.092" stroke="#263238" stroke-width="2" stroke-linecap="round" stroke-linejoin="round"/>
    <path d="M238.592 263.558a3.838 3.838 0 0 0-6.555-2.715 3.838 3.838 0 0 0 2.715 6.555 3.84 3.84 0 0 0 3.84-3.84z" fill="#fff" stroke="#263238" stroke-linecap="round" stroke-linejoin="round"/>
    <path d="M206.72 221.722s-3.962 2.56-4.602 12.921M207.622 250.342c-.966 6.989-2.284 14.496-2.56 16.141-.64 3.52-4.819 4.749-7.507 3.597" stroke="#263238" stroke-width="2" stroke-linecap="round" stroke-linejoin="round"/>
    <path d="M197.6 250.803c-.877-3.917-1.415-7.315-1.223-8.87.896-7.162 5.76-7.29 5.76-7.29s5.76.768 6.138 6.912a51.093 51.093 0 0 1-.64 8.787M208.403 269.568s-2.688 1.536-4.48.512c-1.21-.691-4.48-11.11-6.323-19.277" stroke="#263238" stroke-width="2" stroke-linecap="round" stroke-linejoin="round"/>
    <path d="m209.34 268.181-1.058.456c-.51.22-.745.811-.525 1.32l.013.03c.219.509.81.744 1.32.525l1.058-.456c.51-.22.745-.811.525-1.321l-.013-.029a1.004 1.004 0 0 0-1.32-.525zM197.887 268.875l-.988-.593a1.003 1.003 0 0 0-1.378.344l-.017.027a1.006 1.006 0 0 0 .344 1.379l.988.593a1.005 1.005 0 0 0 1.379-.344l.016-.027a1.005 1.005 0 0 0-.344-1.379z" stroke="#263238" stroke-linecap="round" stroke-linejoin="round"/>
    <path d="M202.138 190.765s-2.049 4.857-1.665 7.929c.384 3.072 4.48 6.4 4.48 6.4s1.409-13.689 1.409-14.201c0-.512-2.567-1.664-4.224-.128z" fill="#263238" stroke="#263238" stroke-linecap="round" stroke-linejoin="round"/>
    <path d="m200.666 208.166 2.72-1.9" stroke="#263238" stroke-width="2" stroke-linecap="round" stroke-linejoin="round"/>
    <path d="M203.667 191.661s-.512 13.561-.256 16.115c.256 2.554 1.28 10.746 2.176 13.306.896 2.56 3.84 10.745 6.144 11.641 2.304.896 6.906 1.536 8.442.512 1.536-1.024 7.161-4.857 8.697-8.569a25.15 25.15 0 0 0 1.792-6.778 9.425 9.425 0 0 0 4.864-6.784c.768-4.864-1.28-6.266-1.28-6.266l.128-8.448s-1.408-5.881-5.12-9.081c-3.712-3.2-8.057-3.456-12.537-1.024s-13.05 5.376-13.05 5.376z" fill="#fff" stroke="#263238" stroke-linecap="round" stroke-linejoin="round"/>
    <path d="M227.718 190.893s.128-3.328-3.065-2.176c-3.194 1.152-3.968 3.328-8.704 5.248-4.736 1.92-11.002-.256-13.171-1.536-2.17-1.28-3.712-3.072-.768-6.4 2.944-3.328 9.849-6.65 17.28-6.65 7.43 0 13.177 6.138 15.609 8.698 2.432 2.56 2.816 5.76 1.92 8.057-.896 2.298-2.56 8.704-2.56 8.704s-1.024-.128-1.408 1.402c-.384 1.53-.256 3.2-1.92 3.328-1.664.128-1.536-4.346-1.536-4.346s-4.089-1.28-4.601-4.224c-.512-2.944 2.924-7.289 2.924-10.105z" fill="#263238" stroke="#263238" stroke-linecap="round" stroke-linejoin="round"/>
    <path d="m212.48 210.253-11.834-2.087.685 5.306a1.545 1.545 0 0 0 1.28 1.331l7.194 1.133a1.541 1.541 0 0 0 1.76-1.229l.915-4.454zM214.637 210.477l13.721-.397-1.344 4.966a1.634 1.634 0 0 1-1.625 1.101l-8.32.115a1.802 1.802 0 0 1-1.205-.356 1.802 1.802 0 0 1-.677-1.058l-.55-4.371zM212.499 210.253l2.138.224M228.358 210.08l4.48-3.84M216.461 208.928s3.84-2.938 7.424-1.152M210.707 208.288s-2.944-3.2-6.272-1.024" stroke="#263238" stroke-width="2" stroke-linecap="round" stroke-linejoin="round"/>
    <path d="M211.475 219.417s-.64 2.688 0 3.2a5.645 5.645 0 0 0 3.578.64M209.555 224.64s2.56 1.92 4.992 2.048c2.432.128 5.242-1.664 5.242-1.664M219.021 211.616s1.536 1.792 4.096-.128M206.419 210.829s1.28 1.984 4.071.429" stroke="#263238" stroke-linecap="round" stroke-linejoin="round"/>
    <path d="M127.04 190.88s.813 12.192.199 13.21l-1.799 3.046s.813 8.742-.813 9.754a10.707 10.707 0 0 1-4.064 1.222s-1.625 6.502-2.24 7.315c-.614.813-4.268 3.456-5.484 3.84-1.216.384-5.082.64-14.228-4.877-9.145-5.516-12.601-7.315-12.396-10.361.204-3.047.64-6.503.64-6.503s1.017-14.636 2.848-19.104c1.83-4.467 24.998-6.912 30.08-5.689 5.081 1.222 7.257 8.147 7.257 8.147z" fill="#fff" stroke="#263238" stroke-linecap="round" stroke-linejoin="round"/>
    <path d="m103.462 210.995 1.428 1.018s-1.223 4.877-.64 7.117" stroke="#263238" stroke-linecap="round" stroke-linejoin="round"/>
    <path d="M123.783 206.912c-.205.934-.698 1.613-1.095 1.523-.397-.089-.557-.909-.345-1.843.211-.934.697-1.613 1.094-1.523.397.089.557.915.346 1.843z" fill="#263238"/>
    <path d="M121.709 203.181s2.214-2.215 4.064-.122" stroke="#263238" stroke-linecap="round" stroke-linejoin="round"/>
    <path d="M118.912 189.254s2.637 4.877 2.438 5.895c-.198 1.017-8.537 3.456-8.537 3.456s-.813 4.877-2.035 5.485l-1.216.608a21.336 21.336 0 0 1-2.439-4.269c-1.421-3.047-3.456-3.84-5.689-.813-2.234 3.027-.41 10.163.812 10.771l1.216.608s-1.017 1.018-4.876 1.632c-3.86.615-6.707 1.421-9.55.608-2.84-.813-6.911-8.537-8.32-18.496-1.407-9.958 3.047-18.489 8.96-21.12 5.915-2.63 19.31-.205 20.321.403 1.011.608 7.929-2.636 11.993-.608 4.064 2.029 3.84 4.269 4.877 5.69 1.037 1.421 6.298-.403 6.707 4.678.41 5.082-1.625 8.128-4.268 8.532-2.644.403-10.394-3.06-10.394-3.06z" fill="#263238" stroke="#263238" stroke-linecap="round" stroke-linejoin="round"/>
    <path d="M70.79 221.158S51.316 231.546 47.604 233.6c-3.712 2.054-4.268 3.898-4.48 5.76-.21 1.862 0 64.544 0 64.544H148.32S132.365 256 131.84 250.65c-.525-5.351-1.664-14.842-3.149-15.956-1.484-1.113-22.451-10.387-22.451-10.387s-5.011-5.376-16.877-5.376c-11.865 0-18.572 2.227-18.572 2.227z" fill="#4057A2" stroke="#263238" stroke-linecap="round" stroke-linejoin="round"/>
    <path d="M82.848 259.322c.55.217 1.107.416 1.664.601M62.08 242.118s7.68 10.714 18.17 16M68.749 254.541s4.262 4.269 13.165 6.681M121.6 239.168c-2.963 3.366-7.136 8.749-8.518 13.702M124.762 235.808s-.589.57-1.511 1.549M114.189 246.938s-2.784 5.375-3.335 8.716" stroke="#263238" stroke-linecap="round" stroke-linejoin="round"/>
    <path d="M69.677 222.08s10.758-.371 20.96-.186c10.202.186 16.883 3.341 16.883 3.341s-6.125-7.417-8.902-9.088c-2.778-1.67-11.315-4.48-18.362-2.227a20.441 20.441 0 0 0-10.579 8.16z" fill="#4057A2" stroke="#263238" stroke-linecap="round" stroke-linejoin="round"/>
    <path d="M39.085 303.834 29.28 266.24a3.134 3.134 0 0 1 3.072-3.776h78.01a3.151 3.151 0 0 1 3.072 2.471l8.659 38.937" fill="#263238"/>
    <path d="M39.085 303.834 29.28 266.24a3.134 3.134 0 0 1 3.072-3.776h78.01a3.151 3.151 0 0 1 3.072 2.471l8.659 38.937" stroke="#263238" stroke-linecap="round" stroke-linejoin="round"/>
</svg>
