<svg width="20" height="20" viewBox="0 0 20 20" fill="none" xmlns="http://www.w3.org/2000/svg">
<path d="M2.08337 5.41659C2.08337 3.84524 2.08337 3.05956 2.57153 2.57141C3.05968 2.08325 3.84536 2.08325 5.41671 2.08325C6.98806 2.08325 7.77373 2.08325 8.26189 2.57141C8.75004 3.05956 8.75004 3.84524 8.75004 5.41659C8.75004 6.98793 8.75004 7.77361 8.26189 8.26176C7.77373 8.74992 6.98806 8.74992 5.41671 8.74992C3.84536 8.74992 3.05968 8.74992 2.57153 8.26176C2.08337 7.77361 2.08337 6.98793 2.08337 5.41659Z" stroke="#BBBFD0" stroke-width="1.5"/>
<path d="M11.25 14.5833C11.25 13.012 11.25 12.2263 11.7382 11.7382C12.2263 11.25 13.012 11.25 14.5833 11.25C16.1547 11.25 16.9404 11.25 17.4285 11.7382C17.9167 12.2263 17.9167 13.012 17.9167 14.5833C17.9167 16.1547 17.9167 16.9404 17.4285 17.4285C16.9404 17.9167 16.1547 17.9167 14.5833 17.9167C13.012 17.9167 12.2263 17.9167 11.7382 17.4285C11.25 16.9404 11.25 16.1547 11.25 14.5833Z" stroke="#BBBFD0" stroke-width="1.5"/>
<path d="M2.08337 14.5833C2.08337 13.012 2.08337 12.2263 2.57153 11.7382C3.05968 11.25 3.84536 11.25 5.41671 11.25C6.98806 11.25 7.77373 11.25 8.26189 11.7382C8.75004 12.2263 8.75004 13.012 8.75004 14.5833C8.75004 16.1547 8.75004 16.9404 8.26189 17.4285C7.77373 17.9167 6.98806 17.9167 5.41671 17.9167C3.84536 17.9167 3.05968 17.9167 2.57153 17.4285C2.08337 16.9404 2.08337 16.1547 2.08337 14.5833Z" stroke="#BBBFD0" stroke-width="1.5"/>
<path d="M11.25 5.41659C11.25 3.84524 11.25 3.05956 11.7382 2.57141C12.2263 2.08325 13.012 2.08325 14.5833 2.08325C16.1547 2.08325 16.9404 2.08325 17.4285 2.57141C17.9167 3.05956 17.9167 3.84524 17.9167 5.41659C17.9167 6.98793 17.9167 7.77361 17.4285 8.26176C16.9404 8.74992 16.1547 8.74992 14.5833 8.74992C13.012 8.74992 12.2263 8.74992 11.7382 8.26176C11.25 7.77361 11.25 6.98793 11.25 5.41659Z" stroke="#BBBFD0" stroke-width="1.5"/>
</svg>
