<svg width="32" height="33" viewBox="0 0 32 33" fill="none" xmlns="http://www.w3.org/2000/svg">
    <path d="M5.448 20.51v-.235c.035-.699.26-1.375.65-1.96a5.235 5.235 0 0 0 1.29-2.493c0-.718 0-1.447.064-2.165.325-3.458 3.758-5.849 7.145-5.849h.084c3.388 0 6.82 2.39 7.154 5.849.062.718 0 1.447.051 2.165a5.33 5.33 0 0 0 1.292 2.503c.394.579.62 1.253.65 1.95v.225a3.833 3.833 0 0 1-.912 2.575 4.88 4.88 0 0 1-3.085 1.478c-3.456.37-6.941.37-10.396 0a4.933 4.933 0 0 1-3.084-1.478 3.874 3.874 0 0 1-.903-2.564v0zM12.255 28.234c.568.372 1.397.613 2.306.668.91.056 1.826-.076 2.547-.369.222-.086.422-.187.594-.299" stroke="#2E3E5C" stroke-width="2" stroke-miterlimit="10" stroke-linecap="round" stroke-linejoin="round"/>
    <path d="M21.5 15a7.5 7.5 0 1 0 0-15 7.5 7.5 0 0 0 0 15z" fill="#FAFAFA"/>
    <path d="M21.443 12.894A5.447 5.447 0 1 1 21.45 2a5.447 5.447 0 0 1-.008 10.894zm0-9.26a3.812 3.812 0 1 0 3.523 2.352 3.816 3.816 0 0 0-3.523-2.36v.009z" fill="red" stroke="red"/>
</svg>
