<svg width="24" height="24" viewBox="0 0 24 24" fill="none" xmlns="http://www.w3.org/2000/svg">
<path d="M4.08571 14.9169V14.7452C4.11224 14.2371 4.2805 13.7451 4.57303 13.3203C5.06128 12.8106 5.39603 12.184 5.54171 11.507C5.54171 10.9848 5.54171 10.4547 5.58865 9.93243C5.83305 7.4174 8.40749 5.67896 10.9477 5.67896H11.011C13.5519 5.67896 16.1256 7.4174 16.376 9.93243C16.4229 10.4547 16.376 10.9848 16.4147 11.507C16.5625 12.1854 16.8969 12.8138 17.3834 13.3274C17.679 13.7482 17.8478 14.2387 17.8714 14.7452V14.9091C17.8888 15.5923 17.6454 16.2581 17.1867 16.7822C16.5779 17.3976 15.7553 17.7797 14.873 17.8566C12.2816 18.1252 9.66738 18.1252 7.07594 17.8566C6.19492 17.7761 5.37378 17.3946 4.76304 16.7822C4.31138 16.2578 4.0711 15.5961 4.08571 14.9169V14.9169Z" stroke="#2E3E5C" stroke-width="2" stroke-miterlimit="10" stroke-linecap="round" stroke-linejoin="round"/>
<path d="M9.19153 20.5339C9.61694 20.8047 10.2388 20.9795 10.9206 21.0199C11.603 21.0608 12.29 20.9643 12.8313 20.7514C12.9975 20.6887 13.1472 20.6157 13.2766 20.5339" stroke="#2E3E5C" stroke-width="2" stroke-miterlimit="10" stroke-linecap="round" stroke-linejoin="round"/>
<path d="M16.125 10.9091C19.2316 10.9091 21.75 8.46701 21.75 5.45455C21.75 2.44208 19.2316 0 16.125 0C13.0184 0 10.5 2.44208 10.5 5.45455C10.5 8.46701 13.0184 10.9091 16.125 10.9091Z" fill="#FAFAFA"/>
<path d="M16.082 9.37722C15.2743 9.37663 14.485 9.14388 13.8136 8.70838C13.1423 8.27288 12.6192 7.65418 12.3104 6.93047C12.0016 6.20675 11.9209 5.41051 12.0786 4.64237C12.2364 3.87422 12.6254 3.16866 13.1965 2.61483C13.7676 2.06101 14.4952 1.68379 15.2874 1.53085C16.0795 1.37791 16.9007 1.45611 17.647 1.75556C18.3933 2.05502 19.0314 2.56229 19.4805 3.21327C19.9296 3.86425 20.1696 4.62972 20.1702 5.41294C20.1698 6.46421 19.7389 7.47232 18.9724 8.21568C18.2058 8.95904 17.1662 9.37683 16.082 9.37722ZM16.082 2.64343C15.5166 2.64343 14.9638 2.80603 14.4936 3.11068C14.0234 3.41532 13.657 3.84832 13.4406 4.35492C13.2242 4.86153 13.1675 5.41898 13.2779 5.95679C13.3882 6.4946 13.6605 6.9886 14.0603 7.37634C14.4602 7.76408 14.9696 8.02813 15.5243 8.13511C16.0789 8.24209 16.6538 8.18718 17.1762 7.97734C17.6986 7.7675 18.1452 7.41214 18.4593 6.95621C18.7735 6.50028 18.9412 5.96425 18.9412 5.41591C18.9417 5.05137 18.8681 4.6903 18.7247 4.35334C18.5812 4.01637 18.3708 3.7101 18.1053 3.45203C17.8398 3.19395 17.5244 2.98912 17.1773 2.84923C16.8301 2.70935 16.458 2.63715 16.082 2.63676V2.64343Z" fill="#FF0000" stroke="#FF0000"/>
</svg>
