<svg xmlns="http://www.w3.org/2000/svg" enable-background="new 0 0 130 130" viewBox="0 0 130 130"><linearGradient id="a" x1="65" x2="65" y1="69.181" y2="-5.051" gradientUnits="userSpaceOnUse"><stop offset="0" stop-color="#ed5b5a"/><stop offset=".993" stop-color="#e24026"/></linearGradient><path fill="url(#a)" d="M65,1C29.65,1,1,29.66,1,65c0,35.35,28.65,64,64,64c35.35,0,64-28.65,64-64
				C129,29.66,100.35,1,65,1z"/><path fill="#ED5B5A" d="M1,65c0,5.8023,0.7856,11.4183,2.2324,16.7626h37.4055c2.13,0,3.85-1.72,3.85-3.85V23.4325
				c0-2.13-1.72-3.85-3.85-3.85h-20.721C8.236,31.1781,1,47.2441,1,65z"/><path fill="#EE6B6B" d="M44.4878,33.8354c-2.6813,2.5019-5.9924,4.2939-9.4738,5.4698
				c-3.8294,1.2935-7.864,1.8806-11.8939,2.1915c7.3683-0.083,14.7061-1.8016,21.3677-4.9482V33.8354z"/><linearGradient id="b" x1="22.744" x2="22.744" y1="67.757" y2="6.41" gradientUnits="userSpaceOnUse"><stop offset="0" stop-color="#ed5b5a"/><stop offset=".993" stop-color="#e24026"/></linearGradient><path fill="url(#b)" d="M40.6378,81.7626c2.1263,0,3.85-1.7237,3.85-3.85V37.6661H30.1921
					c-0.9309,0-1.6856,0.7547-1.6856,1.6856v35.7689h-1.49V50.4817c0-0.9309-0.7547-1.6856-1.6856-1.6856H7.6865v-6.9344
					c0-0.9309-0.7547-1.6856-1.6856-1.6856h0C2.7833,47.8101,1,56.1962,1,65c0,5.8023,0.7856,11.4183,2.2324,16.7626H40.6378z"/><g opacity=".2"><rect width="1.47" height="1.47" x="21.767" y="53.14" fill="#E24026"/><rect width="1.47" height="1.47" x="18.369" y="53.14" fill="#E24026"/><rect width="1.47" height="1.47" x="14.971" y="53.14" fill="#E24026"/><rect width="1.47" height="1.47" x="11.573" y="53.14" fill="#E24026"/><rect width="1.47" height="1.47" x="8.175" y="53.14" fill="#E24026"/><rect width="1.47" height="1.47" x="4.777" y="53.14" fill="#E24026"/><path fill="#E24026" d="M2.8496,54.6099v-1.47H2.1172c-0.0918,0.4885-0.1815,0.9776-0.2621,1.47H2.8496z"/></g><g opacity=".2"><rect width="1.47" height="1.47" x="21.767" y="57.032" fill="#E24026"/><rect width="1.47" height="1.47" x="18.369" y="57.032" fill="#E24026"/><rect width="1.47" height="1.47" x="14.971" y="57.032" fill="#E24026"/><rect width="1.47" height="1.47" x="11.573" y="57.032" fill="#E24026"/><rect width="1.47" height="1.47" x="8.175" y="57.032" fill="#E24026"/><rect width="1.47" height="1.47" x="4.777" y="57.032" fill="#E24026"/><path fill="#E24026" d="M1.3796,58.5024h1.47v-1.47H1.5127c-0.0436,0.3498-0.0952,0.697-0.1331,1.0485V58.5024z"/></g><g opacity=".2"><rect width="1.47" height="1.47" x="21.767" y="60.925" fill="#E24026"/><rect width="1.47" height="1.47" x="18.369" y="60.925" fill="#E24026"/><rect width="1.47" height="1.47" x="14.971" y="60.925" fill="#E24026"/><rect width="1.47" height="1.47" x="11.573" y="60.925" fill="#E24026"/><rect width="1.47" height="1.47" x="8.175" y="60.925" fill="#E24026"/><rect width="1.47" height="1.47" x="4.777" y="60.925" fill="#E24026"/><rect width="1.47" height="1.47" x="1.38" y="60.925" fill="#E24026"/></g><g opacity=".2"><rect width="1.47" height="1.47" x="21.767" y="64.818" fill="#E24026"/><rect width="1.47" height="1.47" x="18.369" y="64.818" fill="#E24026"/><rect width="1.47" height="1.47" x="14.971" y="64.818" fill="#E24026"/><rect width="1.47" height="1.47" x="11.573" y="64.818" fill="#E24026"/><rect width="1.47" height="1.47" x="8.175" y="64.818" fill="#E24026"/><rect width="1.47" height="1.47" x="4.777" y="64.818" fill="#E24026"/><rect width="1.47" height="1.47" x="1.38" y="64.818" fill="#E24026"/></g><g opacity=".2"><rect width="1.47" height="1.47" x="21.767" y="68.71" fill="#E24026"/><rect width="1.47" height="1.47" x="18.369" y="68.71" fill="#E24026"/><rect width="1.47" height="1.47" x="14.971" y="68.71" fill="#E24026"/><rect width="1.47" height="1.47" x="11.573" y="68.71" fill="#E24026"/><rect width="1.47" height="1.47" x="8.175" y="68.71" fill="#E24026"/><rect width="1.47" height="1.47" x="4.777" y="68.71" fill="#E24026"/><rect width="1.47" height="1.47" x="1.38" y="68.71" fill="#E24026"/></g><g opacity=".2"><rect width="1.47" height="1.47" x="21.767" y="72.603" fill="#E24026"/><rect width="1.47" height="1.47" x="18.369" y="72.603" fill="#E24026"/><rect width="1.47" height="1.47" x="14.971" y="72.603" fill="#E24026"/><rect width="1.47" height="1.47" x="11.573" y="72.603" fill="#E24026"/><rect width="1.47" height="1.47" x="8.175" y="72.603" fill="#E24026"/><rect width="1.47" height="1.47" x="4.777" y="72.603" fill="#E24026"/><path fill="#E24026" d="M1.6525,74.0726h1.1971v-1.47H1.4615C1.5204,73.0942,1.5825,73.5846,1.6525,74.0726z"/></g><path fill="#ED5B5A" d="M64.1565,23.4325v54.48c0,2.13,1.72,3.85,3.85,3.85h58.7612C128.2143,76.4183,129,70.8023,129,65
						c0-17.756-7.236-33.8219-18.9167-45.4175H68.0065C65.8765,19.5825,64.1565,21.3025,64.1565,23.4325z"/><path fill="#EE6B6B" d="M64.1565 25.3763c6.7393 2.6947 14.2094 3.5798 21.3748 2.4-4.9373.0695-9.9238-.2321-14.6787-1.5634-2.3249-.6509-4.595-1.566-6.696-2.7567V25.3763zM117.1265 27.9c-6.31 4.2-15.39 6.42-23.47 7.34 6.99-1.11 19.54-6.89 21.99-9.34C116.1565 26.5599 116.6465 27.22 117.1265 27.9z"/><linearGradient id="c" x1="96.578" x2="96.578" y1="73.503" y2="-33.243" gradientUnits="userSpaceOnUse"><stop offset="0" stop-color="#ed5b5a"/><stop offset=".993" stop-color="#e24026"/></linearGradient><path fill="url(#c)" d="M129,65c0-5.7828-0.7803-11.3812-2.2184-16.71h-17.7952c-1.2599,0-2.28,1.02-2.28,2.28v23.455
						h-1.48V41.22c0-0.92-0.55-1.74-1.39-2.1l-17.15-7.3c-1.04-0.45-2.2,0.32-2.2,1.45v40.755h-1.8799V39.9
						c0-1.26-1.02-2.28-2.28-2.28h-16.17v40.2926c0,2.13,1.72,3.85,3.85,3.85h58.7612C128.2143,76.4183,129,70.8023,129,65z"/><g opacity=".25"><path fill="#E24026" d="M128.2465 55.2399h-17.06v-2.11h16.7C128.0165 53.83 128.1365 54.53 128.2465 55.2399zM128.7665 59.6299h-17.58v-2.11h17.36C128.6365 58.22 128.7165 58.92 128.7665 59.6299zM128.9765 64.03h-17.79v-2.11h17.73C128.9565 62.6199 128.9765 63.3199 128.9765 64.03zM128.9765 66.3099c-.01.71-.03 1.41-.08 2.11h-17.71v-2.11H128.9765zM128.7365 70.71c-.06.71-.1299 1.41-.22 2.11h-17.33v-2.11H128.7365zM128.1865 75.1099c-.1.71-.23 1.4-.37 2.1h-16.63v-2.1H128.1865z"/></g><g><rect width="1.391" height="1.391" x="87.192" y="42.215" fill="#E24026" opacity=".4"/><rect width="1.391" height="1.391" x="89.979" y="42.215" fill="#E24026" opacity=".4"/><rect width="1.391" height="1.391" x="92.767" y="42.215" fill="#E24026" opacity=".4"/><rect width="1.391" height="1.391" x="95.555" y="42.215" fill="#E24026" opacity=".4"/><rect width="1.391" height="1.391" x="98.343" y="42.215" fill="#E24026" opacity=".4"/><rect width="1.391" height="1.391" x="101.13" y="42.215" fill="#E24026" opacity=".4"/><rect width="1.391" height="1.391" x="87.192" y="45.74" fill="#E24026" opacity=".4"/><rect width="1.391" height="1.391" x="89.979" y="45.74" fill="#E24026" opacity=".4"/><rect width="1.391" height="1.391" x="92.767" y="45.74" fill="#E24026" opacity=".4"/><rect width="1.391" height="1.391" x="95.555" y="45.74" fill="#E24026" opacity=".4"/><rect width="1.391" height="1.391" x="98.343" y="45.74" fill="#E24026" opacity=".4"/><rect width="1.391" height="1.391" x="101.13" y="45.74" fill="#E24026" opacity=".4"/><rect width="1.391" height="1.391" x="87.192" y="49.266" fill="#E24026" opacity=".4"/><rect width="1.391" height="1.391" x="89.979" y="49.266" fill="#E24026" opacity=".4"/><rect width="1.391" height="1.391" x="92.767" y="49.266" fill="#E24026" opacity=".4"/><rect width="1.391" height="1.391" x="95.555" y="49.266" fill="#E24026" opacity=".4"/><rect width="1.391" height="1.391" x="98.343" y="49.266" fill="#E24026" opacity=".4"/><rect width="1.391" height="1.391" x="101.13" y="49.266" fill="#E24026" opacity=".4"/><rect width="1.391" height="1.391" x="87.192" y="52.792" fill="#E24026" opacity=".4"/><rect width="1.391" height="1.391" x="89.979" y="52.792" fill="#E24026" opacity=".4"/><rect width="1.391" height="1.391" x="92.767" y="52.792" fill="#E24026" opacity=".4"/><rect width="1.391" height="1.391" x="95.555" y="52.792" fill="#E24026" opacity=".4"/><rect width="1.391" height="1.391" x="98.343" y="52.792" fill="#E24026" opacity=".4"/><rect width="1.391" height="1.391" x="101.13" y="52.792" fill="#E24026" opacity=".4"/><rect width="1.391" height="1.391" x="87.192" y="56.318" fill="#E24026" opacity=".4"/><rect width="1.391" height="1.391" x="89.979" y="56.318" fill="#E24026" opacity=".4"/><rect width="1.391" height="1.391" x="92.767" y="56.318" fill="#E24026" opacity=".4"/><rect width="1.391" height="1.391" x="95.555" y="56.318" fill="#E24026" opacity=".4"/><rect width="1.391" height="1.391" x="98.343" y="56.318" fill="#E24026" opacity=".4"/><rect width="1.391" height="1.391" x="101.13" y="56.318" fill="#E24026" opacity=".4"/><rect width="1.391" height="1.391" x="87.192" y="59.844" fill="#E24026" opacity=".4"/><rect width="1.391" height="1.391" x="89.979" y="59.844" fill="#E24026" opacity=".4"/><rect width="1.391" height="1.391" x="92.767" y="59.844" fill="#E24026" opacity=".4"/><rect width="1.391" height="1.391" x="95.555" y="59.844" fill="#E24026" opacity=".4"/><rect width="1.391" height="1.391" x="98.343" y="59.844" fill="#E24026" opacity=".4"/><rect width="1.391" height="1.391" x="101.13" y="59.844" fill="#E24026" opacity=".4"/><rect width="1.391" height="1.391" x="87.192" y="63.37" fill="#E24026" opacity=".4"/><rect width="1.391" height="1.391" x="89.979" y="63.37" fill="#E24026" opacity=".4"/><rect width="1.391" height="1.391" x="92.767" y="63.37" fill="#E24026" opacity=".4"/><rect width="1.391" height="1.391" x="95.555" y="63.37" fill="#E24026" opacity=".4"/><rect width="1.391" height="1.391" x="98.343" y="63.37" fill="#E24026" opacity=".4"/><rect width="1.391" height="1.391" x="101.13" y="63.37" fill="#E24026" opacity=".4"/><rect width="1.391" height="1.391" x="87.192" y="66.895" fill="#E24026" opacity=".4"/><rect width="1.391" height="1.391" x="89.979" y="66.895" fill="#E24026" opacity=".4"/><rect width="1.391" height="1.391" x="92.767" y="66.895" fill="#E24026" opacity=".4"/><rect width="1.391" height="1.391" x="95.555" y="66.895" fill="#E24026" opacity=".4"/><rect width="1.391" height="1.391" x="98.343" y="66.895" fill="#E24026" opacity=".4"/><rect width="1.391" height="1.391" x="101.13" y="66.895" fill="#E24026" opacity=".4"/><rect width="1.391" height="1.391" x="87.192" y="70.421" fill="#E24026" opacity=".4"/><rect width="1.391" height="1.391" x="89.979" y="70.421" fill="#E24026" opacity=".4"/><rect width="1.391" height="1.391" x="92.767" y="70.421" fill="#E24026" opacity=".4"/><rect width="1.391" height="1.391" x="95.555" y="70.421" fill="#E24026" opacity=".4"/><rect width="1.391" height="1.391" x="98.343" y="70.421" fill="#E24026" opacity=".4"/><rect width="1.391" height="1.391" x="101.13" y="70.421" fill="#E24026" opacity=".4"/></g><linearGradient id="d" x1="65" x2="65" y1="117.896" y2="89.741" gradientUnits="userSpaceOnUse"><stop offset="0" stop-color="#ed5b5a"/><stop offset=".993" stop-color="#e24026"/></linearGradient><path fill="url(#d)" d="M5.8475,89.4531C15.453,112.6664,38.3126,129,65,129c26.6874,0,49.547-16.3336,59.1525-39.5469
				H5.8475z"/><g><linearGradient id="e" x1="15.085" x2="15.085" y1="95.8" y2="53.96" gradientUnits="userSpaceOnUse"><stop offset="0" stop-color="#ed5b5a"/><stop offset=".993" stop-color="#e24026"/></linearGradient><path fill="url(#e)" d="M25.0638,66.108H1.028c0.1279,7.5053,1.5379,14.6957,4.0362,21.3584h24.0782V70.1866
					C29.1424,67.934,27.3163,66.108,25.0638,66.108z"/><linearGradient id="f" x1="15.998" x2="15.998" y1="89.207" y2="93.872" gradientUnits="userSpaceOnUse"><stop offset="0" stop-color="#ed5b5a"/><stop offset=".993" stop-color="#e24026"/></linearGradient><path fill="url(#f)" d="M5.0642,87.4664h24.0782V80.298H2.8536C3.454,82.7457,4.1913,85.1385,5.0642,87.4664z"/><linearGradient id="g" x1="4.062" x2="29.142" y1="87.017" y2="87.017" gradientUnits="userSpaceOnUse"><stop offset="0" stop-color="#ed5b5a"/><stop offset=".993" stop-color="#e24026"/></linearGradient><path fill="url(#g)" d="M5.8475,89.4531h23.2949V84.581h-25.08C4.5935,86.2353,5.1885,87.8605,5.8475,89.4531z"/><linearGradient id="h" x1="29.513" x2="29.513" y1="99.206" y2="80.805" gradientUnits="userSpaceOnUse"><stop offset="0" stop-color="#ed5b5a"/><stop offset=".993" stop-color="#e24026"/></linearGradient><path fill="url(#h)" d="M29.513,74.3888c-2.0232,0-3.6634,1.6402-3.6634,3.6634v11.4009h7.3268V78.0522
						C33.1764,76.0289,31.5362,74.3888,29.513,74.3888L29.513,74.3888z"/></g><g><linearGradient id="i" x1="97.659" x2="97.659" y1="95.8" y2="53.96" gradientUnits="userSpaceOnUse"><stop offset="0" stop-color="#ed5b5a"/><stop offset=".993" stop-color="#e24026"/></linearGradient><path fill="url(#i)" d="M113.7041,87.4664V70.1866c0-2.2526-1.8261-4.0786-4.0787-4.0786h-23.933
						c-2.2526,0-4.0787,1.826-4.0787,4.0786v17.2798H113.7041z"/><linearGradient id="j" x1="97.659" x2="97.659" y1="89.207" y2="93.872" gradientUnits="userSpaceOnUse"><stop offset="0" stop-color="#ed5b5a"/><stop offset=".993" stop-color="#e24026"/></linearGradient><rect width="32.09" height="7.168" x="81.614" y="80.298" fill="url(#j)"/><linearGradient id="k" x1="81.614" x2="113.704" y1="87.017" y2="87.017" gradientUnits="userSpaceOnUse"><stop offset="0" stop-color="#ed5b5a"/><stop offset=".993" stop-color="#e24026"/></linearGradient><rect width="32.09" height="4.872" x="81.614" y="84.581" fill="url(#k)"/><g><linearGradient id="l" x1="81.614" x2="81.614" y1="99.206" y2="80.805" gradientUnits="userSpaceOnUse"><stop offset="0" stop-color="#ed5b5a"/><stop offset=".993" stop-color="#e24026"/></linearGradient><path fill="url(#l)" d="M77.9503,78.0522v11.4009h7.3268V78.0522c0-2.0232-1.6402-3.6634-3.6634-3.6634h0
						C79.5905,74.3888,77.9503,76.0289,77.9503,78.0522z"/></g><g><linearGradient id="m" x1="114.075" x2="114.075" y1="99.206" y2="80.805" gradientUnits="userSpaceOnUse"><stop offset="0" stop-color="#ed5b5a"/><stop offset=".993" stop-color="#e24026"/></linearGradient><path fill="url(#m)" d="M114.0746,74.3888c-2.0232,0-3.6634,1.6402-3.6634,3.6634v11.4009h7.3268V78.0522
						C117.738,76.0289,116.0979,74.3888,114.0746,74.3888L114.0746,74.3888z"/></g></g><g><linearGradient id="n" x1="51.538" x2="51.623" y1="32.255" y2="18.255" gradientUnits="userSpaceOnUse"><stop offset="0" stop-color="#fbd2c3"/><stop offset=".996" stop-color="#f8af9b"/></linearGradient><polygon fill="url(#n)" points="57.066 23.148 51.603 32.765 46.08 29.938 49.191 16.037"/><g><linearGradient id="o" x1="-104.412" x2="-104.412" y1="126.114" y2="103.902" gradientTransform="matrix(1 0 -.0197 1 157.016 0)" gradientUnits="userSpaceOnUse"><stop offset="0" stop-color="#383647"/><stop offset=".993" stop-color="#272535"/></linearGradient><path fill="url(#o)" d="M60.0648,59.77c0,0,1.1951,22.0209,0.7667,29.5488c-0.099,1.739-0.6568,3.4295-1.6169,4.8996
								l-15.1553,24.0637l-3.7793-1.0823l10.4882-27.4142c0,0-3.4595-17.2134-3.942-19.7288
								c-0.8077-4.2226-2.3395-10.5382,1.2542-15.0039C53.0534,56.717,60.0648,59.77,60.0648,59.77z"/><linearGradient id="p" x1="53.117" x2="53.117" y1="110.493" y2="29.884" gradientUnits="userSpaceOnUse"><stop offset="0" stop-color="#383647"/><stop offset=".993" stop-color="#272535"/></linearGradient><path fill="url(#p)" d="M61.5341,59.5617c-0.48,2.9891-4.455,60.8129-4.455,60.8129h-3.9274
								c0,0-5.9684-44.1503-7.2718-50.3178c-0.8908-4.2226-2.5469-10.5382,0.959-15.0039
								C51.8446,56.717,56.5283,57.8976,61.5341,59.5617z"/><linearGradient id="q" x1="53.93" x2="54.014" y1="32.269" y2="18.269" gradientUnits="userSpaceOnUse"><stop offset="0" stop-color="#fbd2c3"/><stop offset=".996" stop-color="#f8af9b"/></linearGradient><path fill="url(#q)" d="M58.021,23.8225c0,0-8.2963,1.3591-9.2113-8.5439
									c-0.7918-2.5999,9.3537-5.5137,10.1456-2.9138C58.9553,12.3647,60.1642,17.663,58.021,23.8225z"/><linearGradient id="r" x1="46.709" x2="60.941" y1="17.486" y2="17.486" gradientUnits="userSpaceOnUse"><stop offset="0" stop-color="#383647"/><stop offset=".993" stop-color="#272535"/></linearGradient><path fill="url(#r)" d="M60.2602,25.4884c1.273,3.26-1.8049,2.3414-4.5814,0.0951
									c-2.798-2.2643-1.7933-4.8228-1.6282-5.6158c0.4548-2.1826-1.3519-4.0504-2.7962-0.9123
									c-0.7428,1.6174-3.4153,4.4899-3.8351,2.7837c-0.715-2.8949-0.8926-5.9208-0.5212-8.8794
									c0.9356-7.4665,12.0972-6.4205,13.8412-2.9021c0.3669,0.741,0.2251,1.6516-0.3633,2.2329
									c-1.4936,1.4739-4.6577-0.4521-5.2013,3.7543c-0.1686,1.3062-0.6612,2.5612-0.2018,3.7965
									c1.0195,2.743,3.5947-1.1409,4.0414,0.6848C59.3362,21.8438,59.5677,23.7139,60.2602,25.4884z"/><g><linearGradient id="s" x1="52.623" x2="52.623" y1="63.395" y2="41.576" gradientUnits="userSpaceOnUse"><stop offset="0" stop-color="#fbaf28"/><stop offset=".996" stop-color="#f4832c"/></linearGradient><path fill="url(#s)" d="M62.9515,60.0963c-0.1283,0.6773-0.4925,1.3438-1.0989,1.6704
									c-0.8379,0.4513-1.8641,0.1561-2.7657-0.148c-3.8826-1.308-7.7644-2.6168-11.6461-3.9248
									c-0.5114-0.1722-1.0532-0.366-1.3779-0.7966c-0.515-0.6827-0.2817-1.639-0.1534-2.484
									c0.3185-2.1091-0.1866-4.2585-0.8971-6.2689c-0.7105-2.0113-1.63-3.9508-2.1889-6.0096
									c-1.5394-5.6777-0.0548-12.0847,3.8261-16.5056c3.151,1.3328,5.821,2.8908,7.4988,4.9134
									c2.2876,2.685,4.0333,5.8867,5.2534,9.206c2.1476,5.8427,2.8456,12.1017,3.5273,18.289
									C63.0044,58.7229,63.0789,59.4199,62.9515,60.0963z"/></g><g><linearGradient id="t" x1="50.639" x2="50.639" y1="29.381" y2="18.636" gradientUnits="userSpaceOnUse"><stop offset="0" stop-color="#fbaf28"/><stop offset=".996" stop-color="#f4832c"/></linearGradient><path fill="url(#t)" d="M55.572,28.7627l-1.2201,2.0768c-2.3557-2.2974-5.3529-3.7343-8.6461-4.0331
									c0.04-1.1379,0.1779-2.2556,0.7463-3.3204c1.2766,0.1713,2.5262,0.5194,3.7023,1.0325
									C52.2797,25.4489,54.1609,26.9219,55.572,28.7627z"/></g><g><linearGradient id="u" x1="774.343" x2="771.998" y1="-595.059" y2="-609.511" gradientTransform="matrix(.8323 .0737 -.0882 .9961 -623.171 571.868)" gradientUnits="userSpaceOnUse"><stop offset="0" stop-color="#fbd2c3"/><stop offset=".996" stop-color="#f8af9b"/></linearGradient><polygon fill="url(#u)" points="75.557 36.019 70.148 35.54 71.363 21.816 76.772 22.294"/><linearGradient id="v" x1="67.341" x2="67.341" y1="138.726" y2="98.126" gradientUnits="userSpaceOnUse"><stop offset="0" stop-color="#fbd2c3"/><stop offset=".996" stop-color="#f8af9b"/></linearGradient><polygon fill="url(#v)" points="59.805 78.602 71.628 117.829 74.877 117.194 71.274 78.602"/><linearGradient id="w" x1="86.983" x2="60.698" y1="104.138" y2="71.059" gradientUnits="userSpaceOnUse"><stop offset="0" stop-color="#fbd2c3"/><stop offset=".996" stop-color="#f8af9b"/></linearGradient><path fill="url(#w)" d="M95.9868,102.0398l-1.8561,3.3264c-1.8193-0.8424-18.8048-8.7-25.4056-11.7528
												c-1.639-0.7589-2.8214-2.2481-3.1883-4.0163c-0.6244-3.0106-1.6157-7.7877-2.2813-10.9948h10.8001l-0.2243,8.7727
												L95.9868,102.0398z"/><g><linearGradient id="x" x1="72.066" x2="72.066" y1="118.474" y2="113.953" gradientUnits="userSpaceOnUse"><stop offset=".004" stop-color="#e6e6e6"/><stop offset="1" stop-color="#f1f1f1"/></linearGradient><path fill="url(#x)" d="M75.1914,118.6521c-1.6004,0.5661-6.1119,2.1019-6.8448,1.7099
												c-0.8926-0.4772,2.6034-4.376,2.6034-4.376c1.5331-0.2476,2.7998-0.8693,3.6969-2.0113c0,0,0.7293,1.4084,1.107,2.4894
												C76.0522,117.3204,76.0427,118.3518,75.1914,118.6521z"/></g><g><linearGradient id="y" x1="3246.148" x2="3246.148" y1="5818.362" y2="5813.84" gradientTransform="rotate(-35.728 -7192.025 7850.924)" gradientUnits="userSpaceOnUse"><stop offset=".004" stop-color="#e6e6e6"/><stop offset="1" stop-color="#f1f1f1"/></linearGradient><path fill="url(#y)" d="M97.6494,104.399c-0.9687,1.394-3.7343,5.2751-4.5583,5.3848
												c-1.0033,0.1338-0.4418-5.0726-0.4418-5.0726c1.1-1.0962,1.7653-2.3405,1.8268-3.7914c0,0,1.4145,0.7175,2.3523,1.3746
												C97.5705,102.8153,98.1651,103.6581,97.6494,104.399z"/></g><g><linearGradient id="z" x1="68.825" x2="68.825" y1="81.763" y2="31.897" gradientUnits="userSpaceOnUse"><stop offset="0" stop-color="#726eb2"/><stop offset=".996" stop-color="#6355a3"/></linearGradient><path fill="url(#z)" d="M74.3239,48.0798c-3.8988,6.1155-0.7383,8.9189,0.5104,11.9878
											c2.6159,6.4205-1.6614,14.0413,0.7114,20.556c-6.3819,1.6255-12.4391,1.6112-18.0423-0.6952
											c1.4596-11.4864,2.9191-22.9727,4.3778-34.4591c0.174-1.3708,0.3517-2.755,0.8199-4.0557
											c0.9734-2.7065,5.0928-7.4234,10.0896-9.1961c3.7023-1.3133,7.6011,1.5807,7.3436,5.5001
											C79.8545,41.9939,76.6823,44.3811,74.3239,48.0798z"/></g><g><linearGradient id="A" x1="72.802" x2="70.854" y1="59.159" y2="54.767" gradientUnits="userSpaceOnUse"><stop offset="0" stop-color="#fbd2c3"/><stop offset=".996" stop-color="#f8af9b"/></linearGradient><path fill="url(#A)" d="M73.3383,58.4191c-1.4972-0.6235-3.9077-1.1124-3.9077-1.1124l1.6166-2.0167l0.5858,0.122
											c0.2673,0.0556,0.5257-0.1265,0.5634-0.3974c0.0484-0.3472,0.1355-0.7769,0.2817-0.9491
											c0.2575-0.3023,0.8612,0.698,0.5212,1.7619c0.3382,0.2153,1.2066,0.4575,1.3564,1.1268
											C74.517,57.6772,74.8391,59.0435,73.3383,58.4191z"/></g><g><linearGradient id="B" x1="73.975" x2="72.26" y1="27.884" y2="17.31" gradientUnits="userSpaceOnUse"><stop offset="0" stop-color="#fbd2c3"/><stop offset=".996" stop-color="#f8af9b"/></linearGradient><path fill="url(#B)" d="M78.1119,21.847c-1.305,3.5798-4.4795,6.1534-8.2364,6.7003
										c-0.5368,0.0781-1.0233-0.332-1.0433-0.8741c-0.1248-3.3733,0.1968-7.2777,2.0124-10.1336L78.1119,21.847z"/><g><linearGradient id="C" x1="76.252" x2="85.004" y1="21.031" y2="69.759" gradientUnits="userSpaceOnUse"><stop offset="0" stop-color="#6f2e15"/><stop offset=".993" stop-color="#481d0f"/></linearGradient><path fill="url(#C)" d="M85.0351,43.4663c-0.7724,2.7936-2.676,3.5902-4.0154,3.0995
										c-2.0615-0.7545-1.8364-3.3516-1.6309-5.2309c0.2189-1.9952,0.2808-4.0845-0.5015-5.9334
										c-0.7814-1.8489-2.6087-3.3865-4.611-3.251c-1.8382,0.1247-2.5819-0.3337-1.6139-2.0696
										c1.839-3.2905,3.313-7.1363,0.8074-9.9577c-1.2111-1.3618-3.722-2.2598-3.8835-4.2702
										c-0.3956-4.9062,10.1138-0.7293,11.9044,3.077c0.9222,1.9584,0.506,4.2459,0.5831,6.4097
										C82.2945,31.4372,86.7207,37.376,85.0351,43.4663z"/></g></g></g><g><linearGradient id="D" x1="57.598" x2="56.047" y1="123.521" y2="117.862" gradientUnits="userSpaceOnUse"><stop offset=".004" stop-color="#e6e6e6"/><stop offset="1" stop-color="#f1f1f1"/></linearGradient><path fill="url(#D)" d="M60.689,122.6407h-6.9426c-0.6235,0-1.1196-0.5212-1.0891-1.1438l0.1292-2.6016
								c0.0072-0.1301,0.1355-0.218,0.2593-0.1759c1.3959,0.4737,2.7944,0.4539,4.1957-0.0547
								c0.0574-0.0215,0.122-0.0144,0.1732,0.0188l3.7319,2.4015C61.8507,121.5406,61.5308,122.6407,60.689,122.6407z"/></g><g><linearGradient id="E" x1="-2940.265" x2="-2941.816" y1="-1959.887" y2="-1965.547" gradientTransform="rotate(18.977 -7677.298 8006.843)" gradientUnits="userSpaceOnUse"><stop offset=".004" stop-color="#e6e6e6"/><stop offset="1" stop-color="#f1f1f1"/></linearGradient><path fill="url(#E)" d="M46.5185,122.5944l-6.5654-2.2574c-0.5896-0.2027-0.8893-0.8569-0.658-1.4358l0.9681-2.4182
								c0.0491-0.1207,0.199-0.1621,0.3024-0.082c1.166,0.9018,2.495,1.3379,3.9855,1.3125c0.0613-0.0017,0.12,0.0261,0.1576,0.0741
								l2.7483,3.4845C47.9747,121.9318,47.3146,122.8681,46.5185,122.5944z"/></g><g><linearGradient id="F" x1="59.584" x2="54.201" y1="47.97" y2="31.731" gradientUnits="userSpaceOnUse"><stop offset="0" stop-color="#fbaf28"/><stop offset=".996" stop-color="#f4832c"/></linearGradient><path fill="url(#F)" d="M70.9113,57.7675c-18.9528-4.5527-16.7101,0.7787-21.3947-12.3951
							c-0.9168-2.5809-1.9126-5.1134-2.9802-7.6343c-0.9751-2.3028,0.1014-4.9591,2.4042-5.9342
							c2.3019-0.9751,4.9591,0.1014,5.9342,2.4042c0.6468,1.5296,1.9009,9.7765,2.1404,11.4963
							c0.2359,1.4936,0.3355,2.8716,0.715,4.2396c1.4981,0.8316,4.8891,1.221,13.9776,5.4238
							C71.8138,56.3411,71.5959,57.1629,70.9113,57.7675z"/></g><g><linearGradient id="G" x1="50.722" x2="69.752" y1="28.726" y2="42.697" gradientUnits="userSpaceOnUse"><stop offset="0" stop-color="#fbd2c3"/><stop offset=".996" stop-color="#f8af9b"/></linearGradient><path fill="url(#G)" d="M75.7548,40.6743c-0.6154,0.5804-5.8266,3.9705-7.026,4.6936
							c-9.9406,5.9611-11.4845-0.0045-19.6714-11.8102c-3.2546-0.7472-2.5621-3.8171-1.6901-4.5204
							c0.7706-0.6217,2.0983,0.5759,2.7558,1.3035c-0.0413-0.2413-0.0807-0.5113-0.1094-0.7993
							c-0.1067-1.0855,0.9886-1.0667,1.2389-0.3588c0.2503,0.7078,0,2.4553,0,2.4553c11.0477,11.4989,9.4768,12.3503,13.8861,8.6327
							c1.5179-1.281,3.4511-3.112,5.501-5.0372l0.0009-0.0018c1.5035-1.412,3.8665-1.3385,5.2785,0.1642
							C77.3309,36.8993,77.2574,39.2623,75.7548,40.6743z"/></g></g></g><path fill="#EE6B6B" d="M121.7933 35.5151c-.2914-.5599-.5848-1.1179-.8921-1.6678-3.2804 3.8227-7.3793 6.9458-11.9652 9.0328C113.5599 41.0894 117.9009 38.5864 121.7933 35.5151zM101.3388 27.367c-.1004-.0026-10.4617.5561-11.8858-.3793.6014.1867 1.8493.0416 1.8493.0416.3397-1.0155 1.6516-1.8278 2.5345-1.7165.9245-1.6574 4.1756-.5824 1.9981 1.3403C97.6379 27.0619 99.4933 27.2151 101.3388 27.367z"/><g><path fill="#EE6B6B" d="M23.7365,35.98c-4.03,1.79-8.67,1.4-12.29-0.95c2.75,0.68,4.38,1.39,5.38,0.32c0-0.3,0.8-0.86,1.38-0.67
				c0.01,0,0.01-0.0099,0.01-0.0099c0.65-0.83,2.01-0.42,2.08,0.65c0.02,0.47-0.27,0.94-0.7,1.13
				C20.9765,36.29,22.3565,36.1399,23.7365,35.98z"/></g><path fill="#EE6B6B" d="M44.3239 22.3784c-.2156-.7564-.6514-1.4107-1.2402-1.8988-3.2364 3.6954-7.514 6.4775-12.2125 7.892C35.9976 27.5544 40.3354 25.4481 44.3239 22.3784zM16.1752 23.6478c-.2416.2849-.4825.57-.7191.8592.2729.3447.5481.6877.8437 1.0142 1.4738 1.6281 3.2935 3.0066 5.3999 3.628C19.36 27.9262 17.4343 25.9658 16.1752 23.6478z"/><g><linearGradient id="H" x1="65.027" x2="65.027" y1="8.793" y2="16.176" gradientUnits="userSpaceOnUse"><stop offset="0" stop-color="#fbaf28"/><stop offset=".996" stop-color="#f4832c"/></linearGradient><path fill="url(#H)" d="M68.266,11.3297c-0.0495,1.714-2.0339,2.8719-2.8719,3.2871
					c-0.2285,0.118-0.5028,0.118-0.7351,0c-0.838-0.4152-2.8223-1.5769-2.8719-3.2871c-0.0529-1.8876,2.4385-2.4323,3.2413-0.8265
					C65.807,8.9105,68.3194,9.4246,68.266,11.3297z"/><g><linearGradient id="I" x1="77.496" x2="77.496" y1="2.388" y2="8.618" gradientUnits="userSpaceOnUse"><stop offset="0" stop-color="#fbaf28"/><stop offset=".996" stop-color="#f4832c"/></linearGradient><path fill="url(#I)" d="M80.016,4.7336c-0.0385,1.3332-1.5821,2.2339-2.2339,2.5569
					c-0.1778,0.0918-0.3911,0.0918-0.5718,0c-0.6518-0.323-2.1954-1.2266-2.2339-2.5569c-0.0412-1.4682,1.8968-1.892,2.5212-0.6429
					C78.1033,2.8518,80.0576,3.2517,80.016,4.7336z"/></g></g></svg>