<svg xmlns="http://www.w3.org/2000/svg" viewBox="0 0 66 66"><path fill="#BFC8D0" d="M29.164 26.213V42.58a3.028 3.028 0 0 1-3.027 3.017h-.01a3.011 3.011 0 0 1-3.006-3.017v17.838c0 1.975-1.616 3.581-3.61 3.581a3.614 3.614 0 0 1-2.55-1.051 3.609 3.609 0 0 1-1.051-2.53c0 1.975-1.616 3.581-3.61 3.581a3.557 3.557 0 0 1-2.54-1.051 3.537 3.537 0 0 1-1.061-2.53V42.58a3 3 0 0 1-1.986 2.832 3.027 3.027 0 0 1-1.031.185 3.04 3.04 0 0 1-2.141-.886 3.02 3.02 0 0 1-.574-.817 3.025 3.025 0 0 1-.302-1.314V26.213c0-1.46.545-2.774 1.47-3.767a5.555 5.555 0 0 1 4.097-1.8h15.356c3.075 0 5.576 2.491 5.576 5.567z"/><path fill="#BFC8D0" d="M25.875 44.45c0 .408.078.797.223 1.148-.077 0-.145 0-.223-.02V44.45z"/><path fill="#738798" d="M27.957 22.758a5.499 5.499 0 0 0-1.615-.243H10.986c-1.616 0-3.076.69-4.098 1.8a5.476 5.476 0 0 0-1.469 3.766V44.45c0 .408.078.788.234 1.148a3.054 3.054 0 0 1-2.112-.886 3.02 3.02 0 0 1-.574-.817 3.025 3.025 0 0 1-.302-1.314V26.213c0-1.46.545-2.774 1.47-3.767a5.555 5.555 0 0 1 4.096-1.8h15.357c1.77 0 3.347.827 4.37 2.112z"/><path fill="#FFF" d="M22.958 9.053a7.043 7.043 0 0 1-7.053 7.043 7.04 7.04 0 0 1-7.043-7.043A7.043 7.043 0 0 1 15.905 2a7.045 7.045 0 0 1 7.053 7.053z"/><path fill="#BFC8D0" d="M21.914 5.368a7.028 7.028 0 0 0-3.98-1.226 7.046 7.046 0 0 0-7.046 7.055c0 1.333.37 2.588 1.022 3.65a7.015 7.015 0 0 1-3.046-5.791c0-3.902 3.153-7.055 7.036-7.055a7.026 7.026 0 0 1 6.014 3.367z"/><path fill="#FFF" d="M56.441 8.444a6.012 6.012 0 0 1-6.014 6.014 6.01 6.01 0 1 1 0-12.018 6.01 6.01 0 0 1 6.014 6.004z"/><path fill="#BFC8D0" d="M55.147 4.726a6.01 6.01 0 0 0-8.73 5.352c0 1.41.478 2.705 1.305 3.727a5.983 5.983 0 0 1-3.309-5.362 6.01 6.01 0 0 1 6.014-6.004 6 6 0 0 1 4.72 2.287zm-5.245 44.019v12.66a2.592 2.592 0 0 1-2.592 2.593h-.3a2.592 2.592 0 0 1-2.593-2.592v-11.91h-6.311l6.311-22.616-1.99 7.128-.67 2.402c-.48 1.723-2.589 2.361-3.944 1.194a2.442 2.442 0 0 1-.697-2.697l4.712-12.746a6.004 6.004 0 0 1 5.631-3.922h5.489c2.524 0 4.78 1.58 5.642 3.952l4.59 12.62a2.554 2.554 0 1 1-4.856 1.573l-.475-1.663-2.236-7.84 6.386 22.39h-6.912v12.135a2.592 2.592 0 1 1-5.184 0v-2.217"/><path fill="#738798" d="M58.67 22.417a6.022 6.022 0 0 0-3.776-1.343h-5.489a6.017 6.017 0 0 0-5.634 3.922l-4.71 12.748a2.112 2.112 0 0 0-.107.41 2.294 2.294 0 0 1-1.139-.546 2.439 2.439 0 0 1-.846-1.859c0-.282.048-.564.145-.846l4.71-12.739a6.003 6.003 0 0 1 5.635-3.922h5.489a6.01 6.01 0 0 1 5.644 3.951l.078.224z"/><path fill="#BFC8D0" d="M41.498 9.171c-.027 4.731-7.502 8.735-7.502 8.735s-7.447-4.074-7.433-8.819c.014-2.464 2.03-4.437 4.493-4.437 1.148.014 2.198.741 2.996 1.47.798-.714 1.847-1.442 2.995-1.442A4.471 4.471 0 0 1 41.5 9.17z"/><path fill="#738798" d="M41.499 9.167c0 .264-.022.528-.077.781a4.5 4.5 0 0 0-3.773-2.101c-1.144 0-2.2.726-2.992 1.441-.803-.726-1.848-1.452-3.003-1.474-2.234 0-4.115 1.65-4.434 3.806-.407-.803-.66-1.66-.66-2.53.022-2.464 2.035-4.444 4.5-4.444 1.144.022 2.189.748 2.992 1.474.803-.715 1.848-1.441 2.992-1.441a4.472 4.472 0 0 1 4.455 4.488z"/><path fill="#134160" d="M23.588 19.647H8.232c-1.829 0-3.59.773-4.829 2.118a6.498 6.498 0 0 0-1.738 4.447v16.37c0 2.847 2.848 4.697 5.381 3.774.23-.081.447-.182.652-.3v14.363C7.698 62.99 9.81 65 12.3 65c1.46 0 2.765-.678 3.61-1.734A4.59 4.59 0 0 0 19.51 65c2.542 0 4.61-2.054 4.61-4.58V46.054a4.026 4.026 0 0 0 6.043-3.474V26.212c0-3.62-2.95-6.565-6.575-6.565zm4.576 22.934c0 1.113-.91 2.017-2.036 2.017a2.014 2.014 0 0 1-2.007-2.017V31.498a1 1 0 1 0-2 0V60.42c0 1.423-1.171 2.581-2.61 2.581a2.594 2.594 0 0 1-2.602-2.58V47.193a1 1 0 1 0-2 0v13.225c0 1.423-1.17 2.581-2.61 2.581-1.424 0-2.6-1.156-2.6-2.58V31.335a1 1 0 1 0-2 0v11.245c0 .852-.53 1.61-1.328 1.892a2.012 2.012 0 0 1-2.706-1.892V26.212c0-1.157.427-2.253 1.205-3.088a4.583 4.583 0 0 1 3.362-1.477h15.356a4.576 4.576 0 0 1 4.576 4.565v16.37zm-12.26-25.485c4.44 0 8.054-3.608 8.054-8.043 0-4.44-3.613-8.053-8.053-8.053-4.435 0-8.043 3.613-8.043 8.053 0 4.435 3.608 8.043 8.043 8.043zm0-2a6.05 6.05 0 0 1-5.58-3.732c.122.008.243.018.371.018 1.73 0 3.954-.774 6.91-3.56.932.505 2.16.71 3.276.897.387.065.754.129 1.07.197 0 .046.007.091.007.137 0 3.332-2.716 6.043-6.053 6.043zm0-12.096a6.06 6.06 0 0 1 5.614 3.8l-.307-.053c-1.06-.178-2.514-.421-2.97-.91a1.002 1.002 0 0 0-.713-.317c-.254.01-.533.102-.725.294-3.374 3.38-5.421 3.784-6.929 3.477-.003-.08-.012-.157-.012-.238C9.862 5.716 12.572 3 15.905 3zm34.523 12.458a7.022 7.022 0 0 0 7.014-7.014c0-3.862-3.146-7.004-7.014-7.004-3.867 0-7.014 3.142-7.014 7.004a7.022 7.022 0 0 0 7.014 7.014zm0-12.018c2.765 0 5.014 2.245 5.014 5.004 0 2.765-2.25 5.014-5.014 5.014s-5.014-2.25-5.014-5.014c0-2.76 2.25-5.004 5.014-5.004zM62.54 38.772a3.546 3.546 0 0 0 1.579-4.302L59.53 21.85a7.025 7.025 0 0 0-6.582-4.61h-5.489a7.031 7.031 0 0 0-6.569 4.575L36.178 34.56a3.455 3.455 0 0 0 .982 3.802 3.42 3.42 0 0 0 2.794.79l-2.812 10.076a1 1 0 0 0 .964 1.268h5.311v10.91a3.596 3.596 0 0 0 3.592 3.592h.3a3.582 3.582 0 0 0 2.593-1.108 3.582 3.582 0 0 0 2.592 1.108 3.596 3.596 0 0 0 3.593-3.593V50.271h5.912a1.001 1.001 0 0 0 .962-1.275l-2.799-9.811a3.527 3.527 0 0 0 2.378-.413zm-3.247-2.636-2.72-9.53a1 1 0 1 0-1.923.549l6.024 21.116h-5.587a1 1 0 0 0-1 1v12.135c0 .877-.715 1.592-1.593 1.592s-1.592-.714-1.592-1.592v-12.66a1 1 0 1 0-2 0v12.66c0 .877-.714 1.592-1.592 1.592h-.3a1.595 1.595 0 0 1-1.593-1.592v-11.91a1 1 0 0 0-1-1h-4.994L45.38 27.15a1 1 0 0 0-1.926-.538l-2.66 9.53a1.439 1.439 0 0 1-2.329.705 1.447 1.447 0 0 1-.411-1.592l4.712-12.746a5.023 5.023 0 0 1 4.693-3.269h5.489a5.018 5.018 0 0 1 4.702 3.294l4.589 12.62c.26.714-.03 1.504-.69 1.88a1.553 1.553 0 0 1-2.256-.897zM42.499 9.177c.016-3.015-2.427-5.482-5.452-5.5-.977 0-1.96.376-2.99 1.144-1.019-.774-2.004-1.16-3-1.171-3.013 0-5.477 2.436-5.494 5.434-.016 5.28 7.627 9.52 7.953 9.699a1.003 1.003 0 0 0 .952.004c.327-.175 7.999-4.345 8.03-9.61zM34 16.755c-2.163-1.296-6.447-4.512-6.437-7.662.01-1.899 1.578-3.443 3.481-3.443.679.008 1.464.415 2.334 1.208.377.345.957.348 1.34.007.893-.8 1.655-1.188 2.323-1.188A3.478 3.478 0 0 1 40.5 9.165c-.019 3.134-4.326 6.312-6.499 7.59z"/></svg>