<svg xmlns="http://www.w3.org/2000/svg" enable-background="new 0 0 64 64" viewBox="0 0 64 64"><path fill="#000dff" d="M31.3,61.6c0.5-0.2,1.5-1.2,1.9-1.9c0.3-0.7,0.5-1,0.4-1.6c-0.1-0.4,0-0.9,0.1-1.2l-3,0.1c0,0-0.4,0.9-0.8,1.9
	c-0.3,0.7-0.5,1.6-0.5,2.2c0.2-0.1,0.5-0.2,0.7-0.2C30.4,60.9,30.8,61.7,31.3,61.6z"/><path fill="#056cd3" d="M32.4,61.2c0.9-1,1.3-1.6,1.6-2.5c0.3-0.8,0-1.9,0-1.9l-0.3,0c-0.1,0.4-0.2,0.9-0.1,1.2c0.1,0.6,0,0.9-0.4,1.6
	c-0.3,0.7-1.4,1.7-1.9,1.9c-0.5,0.2-0.9-0.6-1.3-0.6c-0.2,0-0.4,0.1-0.7,0.2c0,0.2,0.1,0.3,0.1,0.4C30.1,62.2,31.5,62.2,32.4,61.2z"/><path fill="#fff" d="M31.1,57.7c0,0-0.3,0.9-0.6,1.3c-0.2,0.5-0.3,0.8,0,0.9c0.3,0.1,0.7-0.1,1-0.7c0.2-0.6,0.2-1.5,0.2-1.5H31.1z"/><path fill="#000dff" d="M44.2,61.6c-0.5-0.2-1.5-1.2-1.9-1.9c-0.3-0.7-0.5-1-0.4-1.6c0.1-0.4,0-0.9-0.1-1.2l3,0.1c0,0,0.4,0.9,0.8,1.9
	c0.3,0.7,0.5,1.6,0.5,2.2c-0.2-0.1-0.5-0.2-0.7-0.2C45.1,60.9,44.7,61.7,44.2,61.6z"/><path fill="#056cd3" d="M43.1,61.2c-0.9-1-1.3-1.6-1.6-2.5c-0.3-0.8,0-1.9,0-1.9l0.3,0c0.1,0.4,0.2,0.9,0.1,1.2c-0.1,0.6,0,0.9,0.4,1.6
	c0.3,0.7,1.4,1.7,1.9,1.9c0.5,0.2,0.9-0.6,1.3-0.6c0.2,0,0.4,0.1,0.7,0.2c0,0.2-0.1,0.3-0.1,0.4C45.5,62.2,44.1,62.2,43.1,61.2z"/><path fill="#fff" d="M44.5,57.7c0,0,0.3,0.9,0.6,1.3c0.2,0.5,0.3,0.8,0,0.9c-0.3,0.1-0.7-0.1-1-0.7c-0.2-0.6-0.2-1.5-0.2-1.5H44.5z"/><path d="M33.3,46.6c-0.1-2.9,0.6-7.1,0.9-9.3c0.3-2.2-0.6-4.2-0.6-4.2s1.3,0.3,2.1,0.2c1.4-0.1,3-0.8,3-0.8s-0.4,1.2-0.5,1.9
	s0,2.5,0.3,3.4c0.3,0.9,1.1,7.3,1.3,8.6c0.2,1.1,1.9,8.7,2.5,11.3h3.1c0,0-1-6.5-1.7-8.9c-0.7-2.4-1-7.3-1.1-8.8
	c-0.1-1.5-0.2-11.4-0.2-11.4H30.1c0,0-0.7,4-0.6,7.4c0.1,3.5-0.1,5.8-0.1,7.9c0,1.2-0.1,5.7,0,8.2c0.1,2.4,0.3,5.5,0.3,5.5H33
	C33.2,54.9,33.5,48.8,33.3,46.6z"/><path d="M34.4,45.1c-0.2-3,1.7-11.1,1.7-11.1s2,8.2,2,9.9c0.1,4.2,3.1,13.9,3.1,13.9h1.1c-0.6-2.6-2.3-10.2-2.5-11.3
	c-0.2-1.3-1-7.7-1.3-8.6c-0.3-0.9-0.4-2.7-0.3-3.4s0.5-1.9,0.5-1.9s-1.6,0.7-3,0.8c-0.8,0-2.1-0.2-2.1-0.2s0.9,2,0.6,4.2
	c-0.3,2.2-1,6.4-0.9,9.3c0.1,2.2-0.2,8.3-0.4,11.2h1.3C34.2,57.8,34.7,48.1,34.4,45.1z"/><path fill="#1599ea" d="M31 22.8c0 .6-.1 1.2-.3 1.7-.7 1.8-1.3 4.7-1.3 6.1 0 1 1.6 1.1 2.9 1.3 1.2.2 4.4-.2 6.4.1 2.1.2 4.2-.9 4.1-1.6-.3-2.3-1.5-6.3-1.7-7.5-.7.1-2 .3-3.9.4C35 23.3 32.4 23 31 22.8zM24.4 21.4l.3 5.9c0 0 1.4-1.3 2.3-1.7.9-.4 1.5-1.9 2.5-3.1.1-.1.3-.3.4-.5l-2.7-4.5C25.9 19.2 24.4 21.4 24.4 21.4zM47.5 20.6c-.5-.6-1.3-2-2.1-2.9-.2.4-.5.8-.9 1.4-.5.9-1.4 2-2 2.8.6.4 1.1.9 1.3 1.1.5.5-.1 2.5-.1 3.4 0 .5 0 1.9 0 1.9l2.6 1.3c0 0 1.3-2.4 1.5-3.7C48.1 23.3 48.1 21.4 47.5 20.6z"/><path fill="#000dff" d="M45.4,17.7c-0.2-0.3-0.4-0.5-0.6-0.7c-0.9-0.8-2.4-2.3-2.9-2.7c-1.5-0.9-3.9-1.2-3.9-1.2s0.9-0.6,0.9-1.4
	c-0.1-0.9-1.2-1.8-1.2-1.8h-4c0,0-1.5,1-1.6,1.7c-0.1,0.6,0.8,1.5,0.8,1.5s-1.2,0.5-1.8,0.7c-0.8,0.2-1.9,0.9-2.4,1.6
	c-0.2,0.2-0.8,1.1-1.5,2.1c0,0,0.5,1.7,0.8,2.3c0.7,1.6,2,2.2,2,2.2c0.5-0.5,1.2-1,1.2-1s0.1,0.8,0,1.8c0.8,0.6,3.4,0.9,6.2,1
	c1.9,0.1,3.5-0.6,3.9-1c-0.1-1.1-0.2-1.9-0.2-1.9s0.8,0.5,1.5,1.1c0.8-0.4,1.6-1.4,2.2-2.3C45.1,19.1,45.4,18.3,45.4,17.7z"/><path fill="#ed8a40" d="M33.9,10.8c0,0,0.1,1.2,0.3,1.5c0.2,0.3,1.2,1.2,1.2,1.2s0.8-0.8,1.2-1.2C37,12,37,11,37,11L33.9,10.8z"/><path fill="#ffb680" d="M32.9 7.2c0 0-.4-.2-.6.3C32 8 32.4 8.8 32.9 8.8 33.3 8.8 32.9 7.2 32.9 7.2zM38.6 7.3c0 0 .4-.1.6.4.2.5-.4 1.2-.8 1.2C38 8.9 38.6 7.3 38.6 7.3z"/><path fill="#ffb680" d="M38.6,7.7c0,2.1-1.3,3.8-2.9,3.8s-2.9-1.7-2.9-3.8s1.3-3.8,2.9-3.8S38.6,5.6,38.6,7.7z"/><path fill="#056cd3" d="M32.9,5.6c0,0,0.4-1.3,0.6-1.7c0.3-0.6,0.9-0.9,1.7-1C36,2.9,36.8,3,37.3,3.6c0.5,0.5,1.2,2.2,1.2,2.2L32.9,5.6
	z"/><path fill="#1599ea" d="M32.7,7.2c0,0,0.9-0.4,2.7-0.5c1.8-0.1,3.2,0.8,3.2,0.8s0.4,0,0.4-0.4c0-0.4-0.1-1.3-0.4-1.5
	c-0.2-0.1-1.6-0.9-3.5-0.8c-1.4,0.1-2.3,0.6-2.5,0.9s-0.2,0.4-0.3,1C32.2,7.3,32.7,7.2,32.7,7.2z"/><path d="M34.2,12.3c0,0,0.5,1.2,0.7,1.5c0.2,0.3,0.1,5.5,0.1,5.5h0.7c0,0-0.1-5.1,0.2-5.5c0.3-0.4,0.9-1.6,0.9-1.6l-1.3,1.4
	L34.2,12.3z"/><path fill="#30302e" d="M43.8,28.2c0,0-0.6,0.6-1.4,1.2c-0.6,0.4-1,1-0.6,1.4c0.3,0.3,1-0.4,1-0.4s-0.9,1.3-0.7,2.5
	c0.2,1.2,1.6,0.5,2.4-0.1c1-0.8,1.9-3.2,1.9-3.2L43.8,28.2z"/><path d="M21.1,10.8c0,0-0.4,0.4-1.2,1.2c-0.7,0.6-0.6,1.6-0.1,2.6c0.4,0.7-0.4,1.8-0.4,1.8h8.3c0,0-0.8-1.3-0.2-1.8
	c0.8-0.7,0.7-1.4-0.1-2.1c-0.3-0.3-1.2-1.8-1.2-1.8L21.1,10.8z"/><path fill="#ed8a40" d="M24.2,15.5c0.3-0.1,0.6-0.2,0.8-0.4c-0.2-0.7-0.1-1.8-0.1-1.8l-2.2,0c0,0,0,0.9-0.1,1.6
	C22.9,15.2,23.5,15.6,24.2,15.5z"/><path fill="#ffb680" d="M26.6,10.7c-0.1-0.4-0.4-0.3-0.6-0.3c-0.2-1.5-1-2.6-2.2-2.7c-1.2,0-2.2,1-2.4,2.5c-0.1,0-0.5-0.1-0.6,0.2
	c-0.1,0.4,0.1,1.1,0.5,1.3c0,0,0,0,0,0c0,0.3,0.1,0.5,0.2,0.8c0.5,1.1,1.4,2,2,2c0.7,0,1.6-0.7,2.1-1.9c0.1-0.2,0.2-0.5,0.3-0.7
	c0,0,0,0,0,0C26.4,11.7,26.6,11.1,26.6,10.7z"/><path d="M24.2,8.7c-0.5,0.8-2.2,1.8-3.3,1.6c-0.1-1.1,0.5-2.1,0.9-2.6c1.1-1.2,3-1,3.6-0.4c1.3,1.4,1.2,2.4,0.9,3.1
	C25.6,10.7,24.5,9.4,24.2,8.7z"/><path fill="#0852bc" d="M22.8 38.4c-.1-1.7-.2-6-.3-7.8l-2.5-3c0 0-1.7 4-1.4 7.6.4 3.7 2 5.4 2.1 9.2 0 3.1.6 6.1 1.1 8.3h1.4c-.1-2.6-.1-5.5-.2-6.3C22.8 44.6 22.8 40.6 22.8 38.4zM27.2 27.4L25 30c0 0-.1 6.7 0 8.2.1 1.4 0 3.5 0 4.7 0 1.8 0 3.8.1 5.8 0 .5.1 1.7.1 3.1h1.3c.4-2.1.7-4.8.6-7.5-.1-3.7 1.5-5.6 1.7-9.2S27.2 27.4 27.2 27.4z"/><path fill="#0852bc" d="M25,42.9c0-1.2,0.1-3.3,0-4.7c-0.1-1.4,0-8.2,0-8.2l-1.5,1.8l-1-1.2c0.1,1.8,0.2,6.1,0.3,7.8
	c0.1,2.1,0,6.2,0.2,8c0.1,0.9,0.2,3.8,0.2,6.3h0.8c-0.1-1.4-0.1-3.5-0.2-5.5c0-1.3-0.1-2.5-0.1-3.4c0-1.4,0-5.9,0.1-8.9
	c0.2,3,0.5,7.4,0.5,8.8c0,2.1,0.3,5.5,0.3,8h0.8c0-1.3-0.1-2.5-0.1-3.1C25,46.6,25,44.7,25,42.9z"/><path fill="red" d="M29.4,23.3c0.3,0.7,0.7,1.8,1,2.7c0.2-0.7,0.4-1.5,0.5-1.9C31.2,22.4,31,21,31,21s-0.9-2.9-1.7-4.1
	c-1.1-1.7-4-1.4-4-1.4s-0.1,2.8-1.9,2c-1.8-0.8-1.8-2-1.8-2s-1.8,0-3.1,1.1c-0.7,0.6-1.1,1.6-1.7,3.1c-1.7,4.3-2,5.2-2,8
	c-0.1,2.5,0.3,5.6,0.3,5.6l0.9,0c0.2-0.8,0.7-2.8,0.8-4.6c0.1-2.2,0.9-3.3,1.2-4.2c0.3-0.9,1.1-4.1,1.1-4.1s1.1,1.3,1.1,3.3
	c0,2-0.4,5.3-0.5,6.7c-0.1,2.2,3.5,2.8,5.5,2.8c1.3,0,2.8-0.2,3.6-0.3c-0.1-1.4-0.3-3.3-0.7-5.1c-0.4-1.7-0.4-5.1-0.4-5.1v-3.6
	C27.7,19.2,28.6,21.3,29.4,23.3z"/><path fill="#ea213e" d="M29.7,28.3c0,0,0.3-1.2,0.7-2.3c-0.4-1-0.7-2-1-2.7c-0.8-2-1.7-4.1-1.7-4.1v3.6c0,0,0.7,1.8,0.9,2.5
	C28.9,26,29.7,28.3,29.7,28.3z"/><path d="M17.7,27.3c0.2-1.8,1.3-3.6,1.3-3.6s-0.9,5.4-1,7.8c-0.1,1.1,0.1,3.4,0.1,3.4s3.4,0.1,6.3,0c2.8-0.1,4.5,0,4.5,0
	s0-0.8-0.1-2.1c-0.8,0.1-2.3,0.3-3.6,0.3c-2,0-5.5-0.7-5.5-2.8c0.1-1.5,0.5-4.8,0.5-6.7c0-2-1.1-3.3-1.1-3.3s-0.8,3.2-1.1,4.1
	c-0.3,0.9-1.1,2-1.2,4.2c-0.1,1.7-0.6,3.8-0.8,4.6l0.7,0C16.8,33.2,17.4,30,17.7,27.3z"/><path fill="#fcb33d" d="M22.5,16.9c0,0-0.5,3.4-0.4,5.9c0.1,2.5,0,5.5,0,5.5s0.9,0.9,2.9,0c0.6-3.9-0.8-10.7-0.8-10.7L22.5,16.9z"/><path fill="#f9d53e" d="M23.5,17.2c0,0,0.2,5.3,0.3,8c0.1,2.6,0.3,5.7,0.3,5.7s0.9,0.3,1.8,0.3c0.9-0.1,1.3-0.3,1.3-0.3
	s-0.4-7.9-0.7-9.6c-0.3-1.7-1.2-4.4-1.2-4.4S24.7,17.7,23.5,17.2z"/><path fill="#fcb33d" d="M23.8,16.9c-1.2,0-2.1-1.3-2.5-2c-0.1,0.3-0.3,0.6-0.3,0.6s0.3,1.4,1.5,2.1c1.3,0.7,2.3,0.4,2.9-0.4
		c0.4-0.5,0.7-1.7,0.7-1.7S26.1,15.2,26,15C25.6,15.7,24.8,16.9,23.8,16.9z"/><path fill="#f9d53e" d="M23.8 16.9c1 0 1.8-1.1 2.2-1.9-.1-.2-.2-.4-.4-.5-.3-.2-.7 0-.7 0s-.3.7-1.3.6c-1-.1-1-.8-1-.8s-.7-.2-1 0c-.1.1-.3.3-.4.5C21.7 15.6 22.6 16.9 23.8 16.9zM15.1 33.2c0 0-.6 2.8.6 4.3 1.1 1.5 1.8.2 1.8-1.5 0-.3-.6-2.8-.6-2.8L15.1 33.2z"/><path fill="#30302e" d="M18.7,25.5c0,0-0.9,0.5-0.9,1.9c0,1.4,1.5,2.4,2.2,1.7c0.8-0.6,0.5-1.9-0.1-2.4C19.5,26.2,18.7,25.5,18.7,25.5z
	"/><path fill="#ff364a" d="M23.5,61.1c0.2-0.4,0.3-4.5,0.3-5.3c-0.1-0.6-0.5-3.5-0.6-4.6c-0.3,0-0.7,0-1,0.1c-0.9,0.2-1,0.6-1,0.6
		s1.2,4.1,1.4,4.9c0.3,0.9-0.5,2.1-0.8,3.4c0,0.2-0.1,0.3-0.1,0.5c0,0,0.1,0.1,0.1,0.1C22.3,61.5,23,61.8,23.5,61.1z"/><path fill="#ea213e" d="M23.6,62.3c1-0.5,0.9-4.5,0.7-5.8c-0.2-1.3-0.5-5.2-0.5-5.2s-0.3,0-0.7-0.1c0.2,1.1,0.6,4,0.6,4.6
		c0.1,0.8,0,4.9-0.3,5.3c-0.5,0.8-1.2,0.4-1.7-0.3c0,0-0.1-0.1-0.1-0.1C21.7,61.8,22.7,62.7,23.6,62.3z"/><path fill="#ff364a" d="M25,61.1c0.3,0.4,1.3,0.4,1.9-0.4c0-0.2,0-0.3-0.1-0.5c-0.3-1.3-1-2.6-0.8-3.4c0.3-0.9,1-5.1,1-5.1
		s-0.2-0.3-1.1-0.5c-0.2-0.1-0.5-0.1-0.8,0c0,0-0.4,4.9-0.5,5.9C24.7,58,24.7,60.7,25,61.1z"/><path fill="#ea213e" d="M24.3,56.4c-0.2,1.3-0.3,5.3,0.7,5.8c0.9,0.4,1.9-0.5,1.9-1.6c-0.6,0.8-1.7,0.8-1.9,0.4
		c-0.3-0.4-0.3-3.1-0.2-4.1c0.1-1,0.5-5.9,0.5-5.9c-0.4,0-0.8,0.1-0.8,0.1S24.5,55.1,24.3,56.4z"/><circle cx="34.5" cy="8.5" r=".5"/><circle cx="36.5" cy="8.5" r=".5"/><circle cx="24.5" cy="11.5" r=".5"/><circle cx="22.5" cy="11.5" r=".5"/></svg>