<svg xmlns="http://www.w3.org/2000/svg" viewBox="0 0 32 32"><path fill="#f6d831" stroke="#5c128d" stroke-linecap="round" stroke-linejoin="round" stroke-width="2" d="M28 14.41v14.112A2.369 2.369 0 0 1 25.758 31H6.242A2.369 2.369 0 0 1 4 28.522V10h24"/><path fill="#816982" stroke="#5c128d" stroke-linecap="round" stroke-linejoin="round" stroke-width="2" d="M6.242 4h19.516A2.242 2.242 0 0 1 28 6.242V10h0H4h0V6.242A2.242 2.242 0 0 1 6.242 4Z"/><path fill="none" stroke="#5c128d" stroke-linecap="square" stroke-linejoin="round" stroke-width="2" d="M10 2v4M16 2v4M22 2v4"/><path fill="#e86436" stroke="#5c128d" stroke-linecap="round" stroke-linejoin="round" stroke-width="2" d="M21.357 22.643C21.357 19.684 16 13 16 13s-5.357 6.684-5.357 9.643a5.357 5.357 0 0 0 10.714 0Z"/><path fill="none" stroke="#fff" stroke-linecap="round" stroke-linejoin="round" stroke-width="2" d="M13.5 22.5A2.5 2.5 0 0 0 16 25"/></svg>