<svg xmlns="http://www.w3.org/2000/svg" enable-background="new 0 0 296 504" viewBox="0 0 296 504"><path fill="#e7f2f1" d="M245.42,4h-23.1l-30.245,37.43L94.58,46.916L73.68,4h-23.1C24.85,4,4,24.85,4,50.58v402.84
			C4,479.15,24.85,500,50.58,500h194.84c25.73,0,46.58-20.85,46.58-46.58V50.58C292,24.85,271.15,4,245.42,4z"/><path fill="#5d5560" d="M222.32,4l-9.29,56.15H82.97L73.68,4H222.32z"/><path fill="#655f68" d="M115.48,22.72c5.13,0,9.29,4.19,9.29,9.36c0,5.16-4.16,9.35-9.29,9.35c-5.13,0-9.29-4.19-9.29-9.35
			C106.19,26.91,110.35,22.72,115.48,22.72z"/><path fill="#e15c63" d="M254.84,429.73v0.17c0,12.87-10.44,23.31-23.31,23.31H148v-46.79h83.53
			C244.4,406.42,254.84,416.85,254.84,429.73z"/><path fill="#c3ddda" d="M148,406.42v46.79H64.47c-12.87,0-23.31-10.44-23.31-23.31v-0.17c0-12.88,10.44-23.31,23.31-23.31
			H148z"/><path fill="#e15c63" d="M148,172.45c53.87,0,97.55,44,97.55,98.27s-43.68,98.26-97.55,98.26s-97.55-43.99-97.55-98.26
			S94.13,172.45,148,172.45z"/><path fill="#d6eae8" d="M292,50.58v402.84c0,25.73-20.85,46.58-46.58,46.58H50.58c-16.02,0-30.14-8.08-38.52-20.38
			c39.49,0,72.8-9.73,100.88-26.41H148h83.53c12.87,0,23.31-10.44,23.31-23.31v-0.17c0-12.88-10.44-23.31-23.31-23.31h-64.87
			c13.27-16.06,24.72-34.08,34.58-53.36c26.68-17.53,44.31-47.86,44.31-82.34c0-10.52-1.64-20.65-4.69-30.15
			C268.21,123.36,262,7.05,262,7.05V7.04C279.54,13.72,292,30.69,292,50.58z"/><path fill="#b8d3cf" d="M148,426.5v26.71h-35.06C125.67,445.65,137.33,436.66,148,426.5z"/><path fill="#d14b62" d="M254.84 429.73v.17c0 12.87-10.44 23.31-23.31 23.31H148V426.5c6.59-6.26 12.8-12.98 18.66-20.08h64.87C244.4 406.42 254.84 416.85 254.84 429.73zM240.86 240.57c3.05 9.5 4.69 19.63 4.69 30.15 0 34.48-17.63 64.81-44.31 82.34C219.09 318.25 231.82 279.36 240.86 240.57z"/><path fill="#3a322b" d="M50.576,504h194.848C273.312,504,296,481.312,296,453.424V50.576C296,22.688,273.312,0,245.424,0
		H50.576C22.688,0,0,22.688,0,50.576v402.848C0,481.312,22.688,504,50.576,504z M217.607,8l-7.967,48.151H86.36L78.393,8H217.607z
		 M8,50.576C8,27.1,27.1,8,50.576,8h19.709l8.737,52.804c0.319,1.931,1.989,3.347,3.946,3.347h130.064
		c1.957,0,3.627-1.416,3.946-3.347L225.715,8h19.709C268.9,8,288,27.1,288,50.576v402.848C288,476.9,268.9,496,245.424,496H50.576
		C27.1,496,8,476.9,8,453.424V50.576z M64.472,457.208h167.056c15.06,0,27.311-12.252,27.311-27.312v-0.171
		c0-15.06-12.251-27.311-27.311-27.311H64.472c-15.06,0-27.311,12.251-27.311,27.311v0.171
		C37.161,444.956,49.413,457.208,64.472,457.208z M250.839,429.726v0.171c0,10.648-8.663,19.312-19.311,19.312H152v-38.793h79.528
		C242.176,410.415,250.839,419.078,250.839,429.726z M45.161,429.726c0-10.647,8.663-19.311,19.311-19.311H144v38.793H64.472
		c-10.648,0-19.311-8.663-19.311-19.312V429.726z M148,372.981c55.994,0,101.548-45.876,101.548-102.265
		S203.994,168.453,148,168.453S46.452,214.328,46.452,270.717S92.006,372.981,148,372.981z M148,176.453
		c51.583,0,93.548,42.287,93.548,94.264S199.583,364.981,148,364.981s-93.548-42.287-93.548-94.265S96.417,176.453,148,176.453z
		 M69.032,153.057h9.188c17.63,0,31.973-14.343,31.973-31.973v-0.205c0-17.63-14.343-31.973-31.973-31.973h-9.188
		c-2.209,0-4,1.791-4,4v56.151C65.032,151.266,66.823,153.057,69.032,153.057z M73.032,96.906h5.188
		c13.219,0,23.973,10.754,23.973,23.973v0.205c0,13.219-10.754,23.973-23.973,23.973h-5.188V96.906z M123.246,152.753
		c2.041,0.845,4.38-0.126,5.225-2.167l8.655-20.925h21.748l8.655,20.925c0.638,1.542,2.127,2.472,3.698,2.472
		c0.509,0,1.027-0.098,1.527-0.305c2.042-0.844,3.012-3.184,2.167-5.225l-9.684-23.413c-0.003-0.007-0.006-0.014-0.009-0.021
		l-13.533-32.717c-0.619-1.496-2.078-2.471-3.696-2.471s-3.078,0.976-3.696,2.471l-13.533,32.717
		c-0.003,0.007-0.006,0.013-0.008,0.02l-9.684,23.413C120.234,149.569,121.204,151.909,123.246,152.753z M148,103.371l7.565,18.289
		h-15.13L148,103.371z M186.471,95.113c-1.219-1.842-0.714-4.324,1.128-5.543c1.843-1.219,4.324-0.714,5.543,1.128l15.245,23.035
		l15.245-23.035c1.219-1.842,3.701-2.348,5.543-1.128c1.842,1.219,2.347,3.701,1.128,5.543l-17.916,27.071v26.872
		c0,2.209-1.791,4-4,4s-4-1.791-4-4v-26.872L186.471,95.113z M115.484,45.434c7.329,0,13.291-5.993,13.291-13.358
		c0-7.366-5.962-13.359-13.291-13.359s-13.291,5.993-13.291,13.359C102.193,39.441,108.155,45.434,115.484,45.434z M115.484,26.717
		c2.917,0,5.291,2.404,5.291,5.359c0,2.955-2.374,5.358-5.291,5.358s-5.291-2.404-5.291-5.358
		C110.193,29.121,112.567,26.717,115.484,26.717z M139.355,32.076c0-2.209,1.791-4,4-4h46.452c2.209,0,4,1.791,4,4s-1.791,4-4,4
		h-46.452C141.146,36.076,139.355,34.285,139.355,32.076z M171.771,290.154c0-6.461-4.217-12.384-11.281-15.846
		c-1.371-0.672-2.24-2.065-2.24-3.592c0-1.527,0.869-2.921,2.24-3.592c7.063-3.461,11.281-9.384,11.281-15.845
		c0-10.298-10.664-18.676-23.771-18.676s-23.771,8.378-23.771,18.676c0,2.209-1.791,4-4,4s-4-1.791-4-4
		c0-14.709,14.252-26.676,31.771-26.676s31.771,11.967,31.771,26.676c0,7.416-3.727,14.451-10.036,19.437
		c6.31,4.986,10.036,12.021,10.036,19.438c0,14.709-14.252,26.676-31.771,26.676s-31.771-11.967-31.771-26.676c0-2.209,1.791-4,4-4
		s4,1.791,4,4c0,10.298,10.664,18.676,23.771,18.676S171.771,300.452,171.771,290.154z"/></svg>