<svg xmlns="http://www.w3.org/2000/svg" id="Layer_1" enable-background="new 0 0 256 256" viewBox="0 0 256 256"><path fill="#f4efed" d="M242,239.6H14c-5.523,0-10-4.477-10-10V51.2c0-5.523,4.477-10,10-10h228c5.523,0,10,4.477,10,10v178.4
			C252,235.123,247.523,239.6,242,239.6z"/><rect width="35.118" height="35.118" x="31.696" y="84.355" fill="#fcc24c"/><rect width="35.118" height="35.118" x="84.193" y="84.355" fill="#fcc24c"/><rect width="35.118" height="35.118" x="136.689" y="84.355" fill="#fcc24c"/><rect width="35.118" height="35.118" x="189.186" y="84.355" fill="#fcc24c"/><rect width="35.118" height="35.118" x="31.696" y="131.198" fill="#ff4397"/><rect width="35.118" height="35.118" x="84.193" y="131.198" fill="#ff4397"/><rect width="35.118" height="35.118" x="136.689" y="131.198" fill="#ff4397"/><rect width="35.118" height="35.118" x="189.186" y="131.198" fill="#ff4397"/><rect width="35.118" height="35.118" x="31.696" y="178.041" fill="#fcc24c"/><rect width="35.118" height="35.118" x="84.193" y="178.041" fill="#fcc24c"/><rect width="35.118" height="35.118" x="136.689" y="178.041" fill="#fcc24c"/><rect width="35.118" height="35.118" x="189.186" y="178.041" fill="#fcc24c"/><path fill="#d6d1cf" d="M242,41.2h-10c5.523,0,10,4.477,10,10v178.4c0,5.523-4.477,10-10,10h10c5.523,0,10-4.477,10-10V51.2
			C252,45.677,247.523,41.2,242,41.2z"/><path fill="#fff" d="M14,239.6h10c-5.523,0-10-4.477-10-10V51.2c0-5.523,4.477-10,10-10H14c-5.523,0-10,4.477-10,10v178.4
			C4,235.123,8.477,239.6,14,239.6z"/><path fill="#690589" d="M242,241.6H14c-6.617,0-12-5.383-12-12V51.2c0-6.617,5.383-12,12-12h228c6.617,0,12,5.383,12,12V229.6
			C254,236.217,248.617,241.6,242,241.6z M14,43.2c-4.411,0-8,3.589-8,8V229.6c0,4.411,3.589,8,8,8h228c4.411,0,8-3.589,8-8V51.2
			c0-4.411-3.589-8-8-8H14z"/><path fill="#690589" d="M12,80c-1.104,0-2-0.896-2-2V66c0-1.104,0.896-2,2-2s2,0.896,2,2v12C14,79.104,13.104,80,12,80z"/><path fill="#7bac51" d="M48.48 66L48.48 66c-8.218 0-14.88-6.662-14.88-14.88V31.28c0-8.218 6.662-14.88 14.88-14.88l0 0c8.218 0 14.88 6.662 14.88 14.88v19.84C63.36 59.338 56.698 66 48.48 66zM207.52 66L207.52 66c-8.218 0-14.88-6.662-14.88-14.88V31.28c0-8.218 6.662-14.88 14.88-14.88l0 0c8.218 0 14.88 6.662 14.88 14.88v19.84C222.4 59.338 215.738 66 207.52 66z"/><path fill="#5d8e33" d="M207.52,16.4c-1.028,0-2.031,0.104-3,0.303c6.78,1.388,11.88,7.387,11.88,14.577v19.84
			c0,7.19-5.1,13.19-11.88,14.578c0.969,0.198,1.972,0.303,3,0.303c8.218,0,14.88-6.662,14.88-14.88V31.28
			C222.4,23.062,215.738,16.4,207.52,16.4z"/><path fill="#99ca6f" d="M44.713,65.537c2.351,0.578,4.641,0.595,6.767,0.16C44.7,64.31,39.6,58.31,39.6,51.12V31.28
			c0-7.19,5.1-13.19,11.88-14.578c-2.124-0.435-4.412-0.417-6.762,0.158C38.093,18.484,33.6,24.674,33.6,31.496v19.405
			C33.6,57.721,38.09,63.909,44.713,65.537z"/><path fill="#690589" d="M207.52 68c-9.308 0-16.88-7.572-16.88-16.88V31.28c0-9.308 7.572-16.88 16.88-16.88s16.88 7.572 16.88 16.88v19.84C224.4 60.428 216.828 68 207.52 68zM207.52 18.4c-7.102 0-12.88 5.778-12.88 12.88v19.84c0 7.102 5.778 12.88 12.88 12.88s12.88-5.778 12.88-12.88V31.28C220.4 24.179 214.622 18.4 207.52 18.4zM48.48 68c-9.308 0-16.88-7.572-16.88-16.88V31.28c0-9.308 7.572-16.88 16.88-16.88 9.308 0 16.88 7.572 16.88 16.88v19.84C65.36 60.428 57.788 68 48.48 68zM48.48 18.4c-7.102 0-12.88 5.778-12.88 12.88v19.84C35.6 58.222 41.378 64 48.48 64s12.88-5.778 12.88-12.88V31.28C61.36 24.179 55.582 18.4 48.48 18.4zM66.814 121.473H31.696c-1.104 0-2-.896-2-2V84.355c0-1.104.896-2 2-2h35.118c1.104 0 2 .896 2 2v35.117C68.814 120.577 67.918 121.473 66.814 121.473zM33.696 117.473h31.118V86.355H33.696V117.473zM119.311 121.473H84.193c-1.104 0-2-.896-2-2V84.355c0-1.104.896-2 2-2h35.118c1.104 0 2 .896 2 2v35.117C121.311 120.577 120.415 121.473 119.311 121.473zM86.193 117.473h31.118V86.355H86.193V117.473zM171.807 121.473h-35.118c-1.104 0-2-.896-2-2V84.355c0-1.104.896-2 2-2h35.118c1.104 0 2 .896 2 2v35.117C173.807 120.577 172.912 121.473 171.807 121.473zM138.689 117.473h31.118V86.355h-31.118V117.473zM224.304 121.473h-35.118c-1.104 0-2-.896-2-2V84.355c0-1.104.896-2 2-2h35.118c1.104 0 2 .896 2 2v35.117C226.304 120.577 225.408 121.473 224.304 121.473zM191.186 117.473h31.118V86.355h-31.118V117.473zM66.814 168.315H31.696c-1.104 0-2-.896-2-2v-35.117c0-1.104.896-2 2-2h35.118c1.104 0 2 .896 2 2v35.117C68.814 167.42 67.918 168.315 66.814 168.315zM33.696 164.315h31.118v-31.117H33.696V164.315zM119.311 168.315H84.193c-1.104 0-2-.896-2-2v-35.117c0-1.104.896-2 2-2h35.118c1.104 0 2 .896 2 2v35.117C121.311 167.42 120.415 168.315 119.311 168.315zM86.193 164.315h31.118v-31.117H86.193V164.315zM171.807 168.315h-35.118c-1.104 0-2-.896-2-2v-35.117c0-1.104.896-2 2-2h35.118c1.104 0 2 .896 2 2v35.117C173.807 167.42 172.912 168.315 171.807 168.315zM138.689 164.315h31.118v-31.117h-31.118V164.315zM224.304 168.315h-35.118c-1.104 0-2-.896-2-2v-35.117c0-1.104.896-2 2-2h35.118c1.104 0 2 .896 2 2v35.117C226.304 167.42 225.408 168.315 224.304 168.315zM191.186 164.315h31.118v-31.117h-31.118V164.315zM66.814 215.158H31.696c-1.104 0-2-.896-2-2v-35.117c0-1.104.896-2 2-2h35.118c1.104 0 2 .896 2 2v35.117C68.814 214.263 67.918 215.158 66.814 215.158zM33.696 211.158h31.118v-31.117H33.696V211.158zM119.311 215.158H84.193c-1.104 0-2-.896-2-2v-35.117c0-1.104.896-2 2-2h35.118c1.104 0 2 .896 2 2v35.117C121.311 214.263 120.415 215.158 119.311 215.158zM86.193 211.158h31.118v-31.117H86.193V211.158zM171.807 215.158h-35.118c-1.104 0-2-.896-2-2v-35.117c0-1.104.896-2 2-2h35.118c1.104 0 2 .896 2 2v35.117C173.807 214.263 172.912 215.158 171.807 215.158zM138.689 211.158h31.118v-31.117h-31.118V211.158zM224.304 215.158h-35.118c-1.104 0-2-.896-2-2v-35.117c0-1.104.896-2 2-2h35.118c1.104 0 2 .896 2 2v35.117C226.304 214.263 225.408 215.158 224.304 215.158zM191.186 211.158h31.118v-31.117h-31.118V211.158z"/></svg>