<svg xmlns="http://www.w3.org/2000/svg" enable-background="new 0 0 512 512" viewBox="0 0 512 512"><g><g><path fill="#efe9e5" d="M82.987 53.892c-38.05 0-69.032 30.981-69.032 69.032 0 38.05 30.982 69.032 69.032 69.032 28.223 0 125.816-19.897 125.816-69.032C208.802 73.74 111.21 53.892 82.987 53.892zM82.987 155.697c-18.105 0-32.773-14.668-32.773-32.773s14.668-32.773 32.773-32.773 89.557 14.668 89.557 32.773S101.092 155.697 82.987 155.697zM429.016 53.892c-28.223 0-125.816 19.848-125.816 69.032 0 49.135 97.593 69.032 125.816 69.032 38.05 0 69.032-30.982 69.032-69.032C498.048 84.873 467.066 53.892 429.016 53.892zM429.016 155.697c-18.105 0-89.557-14.668-89.557-32.773s71.452-32.773 89.557-32.773c18.105 0 32.773 14.668 32.773 32.773S447.121 155.697 429.016 155.697z"/><path fill="#fc575b" d="M50.207 170.696c0 20.126 20.175 36.393 45.088 36.393s45.089-16.267 45.089-36.393c0-20.077-20.176-36.344-45.089-36.344S50.207 150.618 50.207 170.696zM461.796 170.696c0 20.126-20.175 36.393-45.088 36.393s-45.089-16.267-45.089-36.393c0-20.077 20.176-36.344 45.089-36.344S461.796 150.618 461.796 170.696z"/><path fill="#fff" d="M461.789 170.694c0 20.138-20.186 36.403-45.069 36.403-23.14 0-42.213-14.038-44.779-32.143 4.551 1.307 9.488 1.984 14.62 1.984 24.931 0 45.118-16.265 45.118-36.355 0-1.452-.097-2.855-.339-4.259C449.058 141.213 461.789 154.719 461.789 170.694zM140.061 170.694c0 20.138-20.186 36.403-45.069 36.403-23.14 0-42.213-14.038-44.779-32.143 4.551 1.307 9.488 1.984 14.62 1.984 24.931 0 45.118-16.265 45.118-36.355 0-1.452-.097-2.855-.339-4.259C127.33 141.213 140.061 154.719 140.061 170.694z" opacity=".4"/><path fill="#fc575b" d="M349.583,136.102c0,12.415-3.932,24.117-10.87,34.376c-19.519,28.861-28.905,178.07-28.905,212.913
			v20.886c0,29.716-24.09,53.806-53.806,53.806h0c-29.716,0-53.806-24.09-53.806-53.806V383.39
			c0-34.842-9.385-184.051-28.905-212.913c-6.938-10.259-10.87-21.961-10.87-34.376c0-40.56,41.914-73.421,93.593-73.421
			C307.669,62.681,349.583,95.542,349.583,136.102z"/><path fill="#fff" d="M349.577,136.081c0,12.442-3.921,24.156-10.844,34.419
			c-19.558,28.852-28.949,178.05-28.949,212.905v20.864c0,29.723-24.059,53.831-53.783,53.831c-14.862,0-28.319-6.051-38.05-15.781
			s-15.733-23.188-15.733-38.05v-9.295c38.486-49.28,61.383-111.196,61.383-178.533c0-54.412-14.959-105.338-41.051-148.906
			c10.359-3.147,21.639-4.841,33.45-4.841C307.654,62.693,349.577,95.563,349.577,136.081z" opacity=".4"/><path d="M504.098,122.922c0-41.394-33.674-75.072-75.067-75.072c-17.945,0-70.769,8.803-103.859,31.186
			C307.234,65.203,282.864,56.643,256,56.643c-26.855,0-51.217,8.556-69.152,22.379c-33.089-22.383-85.929-31.172-103.873-31.172
			c-41.394,0-75.072,33.678-75.072,75.072c0,29.52,17.181,55.02,42.021,67.275c8.527,13.61,25.645,22.944,45.371,22.944
			c21.225,0,39.463-10.792,47.19-26.106c9.258-2.877,18.523-6.409,27.275-10.59c22.765,42.997,26.386,227.326,26.41,227.823
			c0,33.483,27.152,59.883,59.831,59.883c32.993,0,59.836-26.861,59.836-59.883c0.178-14.992-0.607-23.089,1.347-57.552
			c0.189-3.338-2.364-6.198-5.697-6.387c-3.494-0.076-6.198,2.364-6.387,5.697c-1.97,34.621-1.187,42.761-1.366,58.242
			c0,26.346-21.411,47.781-47.733,47.781c-26.089,0-47.729-21.076-47.729-47.781c-0.021-0.512-2.77-197.004-29.986-237.154
			c-6.51-9.653-9.809-20.092-9.809-31.031c0-37.13,39.262-67.338,87.524-67.338s87.524,30.209,87.524,67.338
			c0,10.944-3.3,21.387-9.8,31.017c-12.466,18.376-20.224,77.843-24.545,124.493c-0.307,3.328,2.142,6.273,5.47,6.585
			c3.248,0.26,6.273-2.137,6.585-5.47c5.485-59.294,13.071-101.122,21.013-116.271c8.75,4.18,18.016,7.719,27.272,10.595
			c7.726,15.315,25.961,26.107,47.187,26.107c19.745,0,36.88-9.353,45.399-22.985C486.93,177.906,504.098,152.428,504.098,122.922z
			 M20.005,122.922c0-34.723,28.247-62.97,62.97-62.97c18.549,0,65.349,8.697,94.65,27.256c-5.384,5.477-9.957,11.485-13.407,17.977
			c-24.612-14.247-73.036-21.08-81.244-21.08c-21.406,0-38.817,17.411-38.817,38.817c0,9.191,3.264,17.597,8.631,24.244
			c-5.444,6.738-8.631,14.831-8.631,23.532c0,0.59,0.078,1.163,0.106,1.747C29.529,160.919,20.005,143.038,20.005,122.922z
			 M131.463,140.754c-9.262-7.688-22.057-12.452-36.169-12.452c-12.91,0-24.681,4.017-33.689,10.582
			c-3.342-4.458-5.346-9.973-5.346-15.962c0-14.731,11.984-26.715,26.715-26.715c18.756,0,60.443,10.36,76.748,19.799
			c-1.636,4.98-2.669,10.139-3.055,15.447C150.221,134.671,141.229,137.909,131.463,140.754z M95.294,201.038
			c-21.524,0-39.035-13.61-39.035-30.341c0-16.702,17.511-30.294,39.035-30.294s39.039,13.591,39.039,30.294
			C134.334,187.428,116.819,201.038,95.294,201.038z M140.302,150.587c5.887-1.842,11.552-3.916,16.651-6.228
			c0.977,7.497,3.264,14.845,6.793,21.798c-5.594,2.621-11.478,4.964-17.463,7.048c0.059-0.834,0.153-1.662,0.153-2.508
			C146.436,163.424,144.211,156.575,140.302,150.587z M450.324,138.828c-9-6.533-20.745-10.527-33.619-10.527
			c-14.112,0-26.904,4.764-36.165,12.452c-9.763-2.842-18.757-6.08-25.207-9.295c-0.386-5.304-1.417-10.46-3.05-15.436
			c16.285-9.443,57.979-19.815,76.747-19.815c14.731,0,26.715,11.984,26.715,26.715
			C455.745,128.913,453.671,134.372,450.324,138.828z M348.274,166.125c3.52-6.939,5.801-14.281,6.775-21.771
			c5.102,2.311,10.768,4.382,16.658,6.224c-3.912,5.99-6.139,12.843-6.139,20.12c0,0.839,0.093,1.659,0.152,2.487
			C359.734,171.101,353.87,168.747,348.274,166.125z M416.706,201.038c-21.524,0-39.035-13.61-39.035-30.341
			c0-16.702,17.511-30.294,39.035-30.294s39.039,13.591,39.039,30.294C455.745,187.428,438.23,201.038,416.706,201.038z
			 M467.74,172.463c0.03-0.59,0.108-1.17,0.108-1.766c0-8.687-3.178-16.767-8.607-23.498c5.363-6.654,8.607-15.084,8.607-24.278
			c0-21.406-17.411-38.817-38.817-38.817c-8.206,0-56.637,6.826-81.256,21.068c-3.446-6.481-8.011-12.481-13.386-17.951
			c29.303-18.562,76.091-27.27,94.642-27.27c34.719,0,62.965,28.247,62.965,62.97C491.995,143.041,482.475,160.936,467.74,172.463z"/></g></g></svg>