<svg xmlns="http://www.w3.org/2000/svg" enable-background="new 0 0 64 64" viewBox="0 0 64 64"><g display="none"><path fill="#A7A9AC" stroke="#000" stroke-linecap="round" stroke-linejoin="round" stroke-miterlimit="10" stroke-width="2" d="
		M32,47.81c2.624,0,4.751-2.127,4.751-4.751v-3.805c0-2.017,3.708-3.253,3.708-7.351s-3.253-7.907-4.879-9.563H28.42
		c-1.626,1.656-4.879,5.465-4.879,9.563s3.708,5.334,3.708,7.351v3.805C27.249,45.683,29.376,47.81,32,47.81L32,47.81z"/><path fill="#A7A9AC" stroke="#000" stroke-linecap="round" stroke-linejoin="round" stroke-miterlimit="10" stroke-width="2" d="
		M53.137,18.637c-2.276-0.479-4.383,0.385-5.682,1.947c-0.828,0.995-2.112,1.495-3.406,1.495H19.951
		c-1.294,0-2.578-0.499-3.406-1.495c-1.299-1.562-3.407-2.426-5.682-1.947c-2.172,0.457-3.926,2.215-4.38,4.387
		c-0.779,3.726,2.044,7.007,5.633,7.007c1.806,0,3.416-0.831,4.472-2.131c0.777-0.957,1.997-1.443,3.229-1.443h24.366
		c1.233,0,2.452,0.486,3.229,1.443c1.056,1.3,2.666,2.131,4.472,2.131c3.589,0,6.412-3.281,5.633-7.007
		C57.063,20.851,55.309,19.094,53.137,18.637z"/><path fill="#A7A9AC" stroke="#000" stroke-linecap="round" stroke-linejoin="round" stroke-miterlimit="10" stroke-width="2" d="
		M60.07,6.001c-2.163-2.545-5.747-3.376-8.914-2.317l-7.217,2.412c-1.334,0.446-2.782,0.083-3.809-0.879C38.001,3.224,35.146,2,32,2
		s-6.001,1.224-8.129,3.217c-1.027,0.962-2.475,1.325-3.809,0.879l-7.217-2.412C9.676,2.625,6.092,3.455,3.93,6.001
		c-2.256,2.655-2.557,6.336-0.782,9.311l2.429,4.07c-0.87,0.52-1.392,1.563-1.093,2.705c0.202,0.771,0.81,1.412,1.573,1.645
		C7.065,24.04,8,23.698,8.59,23.04c0.496,0.553,1.235,0.882,2.056,0.791c0.741-0.082,1.394-0.565,1.78-1.203
		c0.452-0.746,0.414-1.406,0.209-1.986c1.202-0.311,2.044-1.517,1.743-2.872c-0.18-0.81-0.813-1.486-1.604-1.737
		c-0.734-0.234-1.417-0.1-1.969,0.23l-2.429-4.07C7.754,11.15,8.277,10.305,8.53,9.99c0.254-0.315,0.97-1.004,2.118-0.621
		l8.114,2.712c0.786,0.263,1.316,0.999,1.315,1.828l0,0.014c0,6.585,3.095,17.827,11.923,17.827s11.923-11.242,11.923-17.827
		l0-0.014c-0.001-0.829,0.529-1.565,1.315-1.828l8.114-2.712C54.5,8.986,55.216,9.676,55.47,9.99
		c0.253,0.315,0.776,1.16,0.154,2.202l-2.429,4.07c-0.551-0.33-1.234-0.463-1.969-0.23c-0.791,0.252-1.424,0.927-1.604,1.737
		c-0.301,1.355,0.541,2.561,1.743,2.872c-0.205,0.58-0.243,1.24,0.209,1.986c0.386,0.638,1.039,1.121,1.78,1.203
		c0.821,0.091,1.561-0.238,2.056-0.791c0.59,0.658,1.525,1,2.533,0.692c0.763-0.233,1.371-0.874,1.573-1.645
		c0.299-1.142-0.223-2.184-1.093-2.705l2.429-4.07C62.627,12.337,62.326,8.656,60.07,6.001z"/><line x1="25.444" x2="25.444" y1="13.612" y2="14.758" fill="none" stroke="#000" stroke-linecap="round" stroke-linejoin="round" stroke-miterlimit="10" stroke-width="2"/><line x1="38.556" x2="38.556" y1="13.612" y2="14.758" fill="none" stroke="#000" stroke-linecap="round" stroke-linejoin="round" stroke-miterlimit="10" stroke-width="2"/><path fill="#A7A9AC" stroke="#000" stroke-linecap="round" stroke-linejoin="round" stroke-miterlimit="10" stroke-width="2" d="M38.547 58.335c0 2.024-1.641 3.665-3.665 3.665-2.024 0-3.665-1.641-3.665-3.665 0-2.024 3.665-6.39 3.665-6.39S38.547 56.311 38.547 58.335zM29.025 54.134c0 1.304-1.057 2.362-2.362 2.362-1.304 0-2.362-1.057-2.362-2.362 0-1.304 2.362-4.118 2.362-4.118S29.025 52.83 29.025 54.134z"/><line x1="30.55" x2="33.45" y1="17.686" y2="17.686" fill="none" stroke="#000" stroke-linecap="round" stroke-linejoin="round" stroke-miterlimit="10" stroke-width="2"/><circle cx="52.574" cy="52.574" r="9.426" fill="none" stroke="#000" stroke-linecap="round" stroke-linejoin="round" stroke-miterlimit="10" stroke-width="2"/><line x1="59.239" x2="45.908" y1="45.908" y2="59.239" fill="none" stroke="#000" stroke-linejoin="round" stroke-miterlimit="10" stroke-width="2"/><circle cx="52.574" cy="52.574" r="5.623" fill="#A7A9AC" stroke="#000" stroke-linecap="round" stroke-linejoin="round" stroke-miterlimit="10" stroke-width="2"/><polyline fill="none" stroke="#000" stroke-linecap="round" stroke-linejoin="round" stroke-miterlimit="10" stroke-width="2" points="52.574 49.894 52.574 52.574 54.327 52.574"/></g><g display="none"><path fill="#F78177" d="M32,47.81c2.624,0,4.751-2.127,4.751-4.751v-3.805c0-2.017,3.708-3.253,3.708-7.351
		s-3.253-7.907-4.879-9.563H28.42c-1.626,1.656-4.879,5.465-4.879,9.563s3.708,5.334,3.708,7.351v3.805
		C27.249,45.683,29.376,47.81,32,47.81L32,47.81z"/><path fill="#52D5D8" d="M53.137,18.637c-2.276-0.479-4.383,0.385-5.682,1.947
		c-0.828,0.995-2.112,1.495-3.406,1.495H19.951c-1.294,0-2.578-0.499-3.406-1.495c-1.299-1.562-3.407-2.426-5.682-1.947
		c-2.172,0.457-3.926,2.215-4.38,4.387c-0.779,3.726,2.044,7.007,5.633,7.007c1.806,0,3.416-0.831,4.472-2.131
		c0.777-0.957,1.997-1.443,3.229-1.443h24.366c1.233,0,2.452,0.486,3.229,1.443c1.056,1.3,2.666,2.131,4.472,2.131
		c3.589,0,6.412-3.281,5.633-7.007C57.063,20.851,55.309,19.094,53.137,18.637z"/><path fill="#FAAD95" d="M60.07,6.001c-2.163-2.545-5.747-3.376-8.914-2.317l-7.217,2.412
		c-1.334,0.446-2.782,0.083-3.809-0.879C38.001,3.224,35.146,2,32,2s-6.001,1.224-8.129,3.217c-1.027,0.962-2.475,1.325-3.809,0.879
		l-7.217-2.412C9.676,2.625,6.092,3.455,3.93,6.001c-2.256,2.655-2.557,6.336-0.782,9.311l2.429,4.07
		c-0.87,0.52-1.392,1.563-1.093,2.705c0.202,0.771,0.81,1.412,1.573,1.645C7.065,24.04,8,23.698,8.59,23.04
		c0.496,0.553,1.235,0.882,2.056,0.791c0.741-0.082,1.394-0.565,1.78-1.203c0.452-0.746,0.414-1.406,0.209-1.986
		c1.202-0.311,2.044-1.517,1.743-2.872c-0.18-0.81-0.813-1.486-1.604-1.737c-0.734-0.234-1.417-0.1-1.969,0.23l-2.429-4.07
		C7.754,11.15,8.277,10.305,8.53,9.99c0.254-0.315,0.97-1.004,2.118-0.621l8.114,2.712c0.786,0.263,1.316,0.999,1.315,1.828l0,0.014
		c0,6.585,3.095,17.827,11.923,17.827s11.923-11.242,11.923-17.827l0-0.014c-0.001-0.829,0.529-1.565,1.315-1.828l8.114-2.712
		C54.5,8.986,55.216,9.676,55.47,9.99c0.253,0.315,0.776,1.16,0.154,2.202l-2.429,4.07c-0.551-0.33-1.234-0.463-1.969-0.23
		c-0.791,0.252-1.424,0.927-1.604,1.737c-0.301,1.355,0.541,2.561,1.743,2.872c-0.205,0.58-0.243,1.24,0.209,1.986
		c0.386,0.638,1.039,1.121,1.78,1.203c0.821,0.091,1.561-0.238,2.056-0.791c0.59,0.658,1.525,1,2.533,0.692
		c0.763-0.233,1.371-0.874,1.573-1.645c0.299-1.142-0.223-2.184-1.093-2.705l2.429-4.07C62.627,12.337,62.326,8.656,60.07,6.001z"/><path fill="#FF2E65" d="M25.444 15.758c-.552 0-1-.447-1-1v-1.146c0-.553.448-1 1-1s1 .447 1 1v1.146C26.444 15.311 25.996 15.758 25.444 15.758zM38.556 15.758c-.552 0-1-.447-1-1v-1.146c0-.553.448-1 1-1s1 .447 1 1v1.146C39.556 15.311 39.108 15.758 38.556 15.758zM38.547 58.335c0 2.024-1.641 3.665-3.665 3.665-2.024 0-3.665-1.641-3.665-3.665 0-2.024 3.665-6.39 3.665-6.39S38.547 56.311 38.547 58.335zM29.025 54.134c0 1.304-1.057 2.362-2.362 2.362-1.304 0-2.362-1.057-2.362-2.362 0-1.304 2.362-4.118 2.362-4.118S29.025 52.83 29.025 54.134zM33.45 18.686h-2.9c-.552 0-1-.447-1-1s.448-1 1-1h2.9c.552 0 1 .447 1 1S34.002 18.686 33.45 18.686zM52.574 42.147c-5.75 0-10.427 4.677-10.427 10.426S46.824 63 52.574 63C58.323 63 63 58.322 63 52.573S58.323 42.147 52.574 42.147zM52.574 44.147c1.963 0 3.768.68 5.202 1.81L45.958 57.776c-1.13-1.434-1.811-3.239-1.811-5.202C44.147 47.928 47.927 44.147 52.574 44.147zM52.574 61c-1.963 0-3.768-.68-5.202-1.81L59.19 47.372C60.32 48.806 61 50.61 61 52.573 61 57.22 57.22 61 52.574 61z"/><circle cx="52.574" cy="52.574" r="5.623" fill="#52D5D8"/><path fill="#46367D" d="M52.574,59.197c-3.652,0-6.624-2.972-6.624-6.624s2.971-6.623,6.624-6.623
		c3.652,0,6.623,2.971,6.623,6.623S56.226,59.197,52.574,59.197z M52.574,47.95c-2.549,0-4.624,2.074-4.624,4.623
		c0,2.55,2.074,4.624,4.624,4.624s4.623-2.074,4.623-4.624C57.197,50.024,55.123,47.95,52.574,47.95z"/><path fill="#46367D" d="M54.327,53.573h-1.753c-0.552,0-1-0.447-1-1v-2.679c0-0.553,0.448-1,1-1s1,0.447,1,1v1.679h0.753
			c0.552,0,1,0.447,1,1S54.879,53.573,54.327,53.573z"/></g><g display="none"><path fill="#F78177" d="M32,47.81c2.624,0,4.751-2.127,4.751-4.751v-3.805c0-2.017,3.708-3.253,3.708-7.351
		s-3.253-7.907-4.879-9.563H28.42c-1.626,1.656-4.879,5.465-4.879,9.563s3.708,5.334,3.708,7.351v3.805
		C27.249,45.683,29.376,47.81,32,47.81L32,47.81z"/><path fill="#52D5D8" d="M53.137,18.637c-2.276-0.479-4.383,0.385-5.682,1.947
		c-0.828,0.995-2.112,1.495-3.406,1.495H19.951c-1.294,0-2.578-0.499-3.406-1.495c-1.299-1.562-3.407-2.426-5.682-1.947
		c-2.172,0.457-3.926,2.215-4.38,4.387c-0.779,3.726,2.044,7.007,5.633,7.007c1.806,0,3.416-0.831,4.472-2.131
		c0.777-0.957,1.997-1.443,3.229-1.443h24.366c1.233,0,2.452,0.486,3.229,1.443c1.056,1.3,2.666,2.131,4.472,2.131
		c3.589,0,6.412-3.281,5.633-7.007C57.063,20.851,55.309,19.094,53.137,18.637z"/><path fill="#FAAD95" d="M60.07,6.001c-2.163-2.545-5.747-3.376-8.914-2.317l-7.217,2.412
		c-1.334,0.446-2.782,0.083-3.809-0.879C38.001,3.224,35.146,2,32,2s-6.001,1.224-8.129,3.217c-1.027,0.962-2.475,1.325-3.809,0.879
		l-7.217-2.412C9.676,2.625,6.092,3.455,3.93,6.001c-2.256,2.655-2.557,6.336-0.782,9.311l2.429,4.07
		c-0.87,0.52-1.392,1.563-1.093,2.705c0.202,0.771,0.81,1.412,1.573,1.645C7.065,24.04,8,23.698,8.59,23.04
		c0.496,0.553,1.235,0.882,2.056,0.791c0.741-0.082,1.394-0.565,1.78-1.203c0.452-0.746,0.414-1.406,0.209-1.986
		c1.202-0.311,2.044-1.517,1.743-2.872c-0.18-0.81-0.813-1.486-1.604-1.737c-0.734-0.234-1.417-0.1-1.969,0.23l-2.429-4.07
		C7.754,11.15,8.277,10.305,8.53,9.99c0.254-0.315,0.97-1.004,2.118-0.621l8.114,2.712c0.786,0.263,1.316,0.999,1.315,1.828l0,0.014
		c0,6.585,3.095,17.827,11.923,17.827s11.923-11.242,11.923-17.827l0-0.014c-0.001-0.829,0.529-1.565,1.315-1.828l8.114-2.712
		C54.5,8.986,55.216,9.676,55.47,9.99c0.253,0.315,0.776,1.16,0.154,2.202l-2.429,4.07c-0.551-0.33-1.234-0.463-1.969-0.23
		c-0.791,0.252-1.424,0.927-1.604,1.737c-0.301,1.355,0.541,2.561,1.743,2.872c-0.205,0.58-0.243,1.24,0.209,1.986
		c0.386,0.638,1.039,1.121,1.78,1.203c0.821,0.091,1.561-0.238,2.056-0.791c0.59,0.658,1.525,1,2.533,0.692
		c0.763-0.233,1.371-0.874,1.573-1.645c0.299-1.142-0.223-2.184-1.093-2.705l2.429-4.07C62.627,12.337,62.326,8.656,60.07,6.001z"/><path fill="#FF2E65" d="M38.547 58.335c0 2.024-1.641 3.665-3.665 3.665-2.024 0-3.665-1.641-3.665-3.665 0-1.532 2.1-4.406 3.121-5.713.277-.354.811-.354 1.088 0C36.446 53.929 38.547 56.803 38.547 58.335zM27.213 50.711c-.277-.365-.823-.365-1.1 0-.698.919-1.812 2.527-1.812 3.423 0 1.304 1.057 2.362 2.362 2.362 1.304 0 2.362-1.057 2.362-2.362C29.025 53.238 27.91 51.63 27.213 50.711zM25.444 15.758c-.552 0-1-.447-1-1v-1.146c0-.553.448-1 1-1s1 .447 1 1v1.146C26.444 15.311 25.996 15.758 25.444 15.758zM39.556 14.758v-1.146c0-.553-.448-1-1-1s-1 .447-1 1v1.146c0 .553.448 1 1 1S39.556 15.311 39.556 14.758zM34.45 17.686c0-.553-.448-1-1-1h-2.9c-.552 0-1 .447-1 1s.448 1 1 1h2.9C34.002 18.686 34.45 18.238 34.45 17.686zM52.574 42.147c-5.75 0-10.427 4.677-10.427 10.426S46.824 63 52.574 63C58.323 63 63 58.322 63 52.573S58.323 42.147 52.574 42.147zM52.574 44.147c1.963 0 3.768.68 5.202 1.81L45.958 57.776c-1.13-1.434-1.811-3.239-1.811-5.202C44.147 47.928 47.927 44.147 52.574 44.147zM52.574 61c-1.963 0-3.768-.68-5.202-1.81L59.19 47.372C60.32 48.806 61 50.61 61 52.573 61 57.22 57.22 61 52.574 61z"/><circle cx="52.574" cy="52.574" r="5.623" fill="#52D5D8"/><path fill="#46367D" d="M52.574,59.197c-3.652,0-6.624-2.972-6.624-6.624s2.971-6.623,6.624-6.623
		c3.652,0,6.623,2.971,6.623,6.623S56.226,59.197,52.574,59.197z M52.574,47.95c-2.549,0-4.624,2.074-4.624,4.623
		c0,2.55,2.074,4.624,4.624,4.624s4.623-2.074,4.623-4.624C57.197,50.024,55.123,47.95,52.574,47.95z M55.327,52.573
		c0-0.553-0.448-1-1-1h-0.753v-1.679c0-0.553-0.448-1-1-1s-1,0.447-1,1v2.679c0,0.553,0.448,1,1,1h1.753
		C54.879,53.573,55.327,53.126,55.327,52.573z"/></g><g display="none"><path fill="#FF2E65" d="M32,47.81c2.624,0,4.751-2.127,4.751-4.751v-3.805c0-2.017,3.708-3.253,3.708-7.351
		s-3.253-7.907-4.879-9.563H28.42c-1.626,1.656-4.879,5.465-4.879,9.563s3.708,5.334,3.708,7.351v3.805
		C27.249,45.683,29.376,47.81,32,47.81L32,47.81z"/><path fill="#52D5D8" d="M53.137,18.637c-2.276-0.479-4.383,0.385-5.682,1.947
		c-0.828,0.995-2.112,1.495-3.406,1.495H19.951c-1.294,0-2.578-0.499-3.406-1.495c-1.299-1.562-3.407-2.426-5.682-1.947
		c-2.172,0.457-3.926,2.215-4.38,4.387c-0.779,3.726,2.044,7.007,5.633,7.007c1.806,0,3.416-0.831,4.472-2.131
		c0.777-0.957,1.997-1.443,3.229-1.443h24.366c1.233,0,2.452,0.486,3.229,1.443c1.056,1.3,2.666,2.131,4.472,2.131
		c3.589,0,6.412-3.281,5.633-7.007C57.063,20.851,55.309,19.094,53.137,18.637z"/><path fill="#FAAD95" d="M60.07,6.001c-2.163-2.545-5.747-3.376-8.914-2.317l-7.217,2.412
		c-1.334,0.446-2.782,0.083-3.809-0.879C38.001,3.224,35.146,2,32,2s-6.001,1.224-8.129,3.217c-1.027,0.962-2.475,1.325-3.809,0.879
		l-7.217-2.412C9.676,2.625,6.092,3.455,3.93,6.001c-2.256,2.655-2.557,6.336-0.782,9.311l2.429,4.07
		c-0.87,0.52-1.392,1.563-1.093,2.705c0.202,0.771,0.81,1.412,1.573,1.645C7.065,24.04,8,23.698,8.59,23.04
		c0.496,0.553,1.235,0.882,2.056,0.791c0.741-0.082,1.394-0.565,1.78-1.203c0.452-0.746,0.414-1.406,0.209-1.986
		c1.202-0.311,2.044-1.517,1.743-2.872c-0.18-0.81-0.813-1.486-1.604-1.737c-0.734-0.234-1.417-0.1-1.969,0.23l-2.429-4.07
		C7.754,11.15,8.277,10.305,8.53,9.99c0.254-0.315,0.97-1.004,2.118-0.621l8.114,2.712c0.786,0.263,1.316,0.999,1.315,1.828l0,0.014
		c0,6.585,3.095,17.827,11.923,17.827s11.923-11.242,11.923-17.827l0-0.014c-0.001-0.829,0.529-1.565,1.315-1.828l8.114-2.712
		C54.5,8.986,55.216,9.676,55.47,9.99c0.253,0.315,0.776,1.16,0.154,2.202l-2.429,4.07c-0.551-0.33-1.234-0.463-1.969-0.23
		c-0.791,0.252-1.424,0.927-1.604,1.737c-0.301,1.355,0.541,2.561,1.743,2.872c-0.205,0.58-0.243,1.24,0.209,1.986
		c0.386,0.638,1.039,1.121,1.78,1.203c0.821,0.091,1.561-0.238,2.056-0.791c0.59,0.658,1.525,1,2.533,0.692
		c0.763-0.233,1.371-0.874,1.573-1.645c0.299-1.142-0.223-2.184-1.093-2.705l2.429-4.07C62.627,12.337,62.326,8.656,60.07,6.001z"/><path fill="#FF2E65" d="M38.547,58.335c0,2.024-1.641,3.665-3.665,3.665c-2.024,0-3.665-1.641-3.665-3.665
		c0-1.532,2.1-4.406,3.121-5.713c0.277-0.354,0.811-0.354,1.088,0C36.446,53.929,38.547,56.803,38.547,58.335z M27.213,50.711
		c-0.277-0.365-0.823-0.365-1.1,0c-0.698,0.919-1.812,2.527-1.812,3.423c0,1.304,1.057,2.362,2.362,2.362
		c1.304,0,2.362-1.057,2.362-2.362C29.025,53.238,27.91,51.63,27.213,50.711z"/><circle cx="52.574" cy="52.574" r="5.623" fill="#52D5D8"/></g><g display="none"><path fill="none" stroke="#000" stroke-linejoin="round" stroke-miterlimit="10" stroke-width="2" d="M39.55 27.96c.55 1.23.91 2.57.91 3.94 0 4.1-3.71 5.34-3.71 7.35v3.81c0 2.62-2.13 4.75-4.75 4.75s-4.75-2.13-4.75-4.75v-3.81c0-2.01-3.71-3.25-3.71-7.35 0-1.37.36-2.71.91-3.94M57.63 23.8c.27 3.4-2.41 6.23-5.75 6.23-1.8 0-3.41-.83-4.47-2.13-.77-.96-1.99-1.44-3.23-1.44h-3.56M42.6 22.08h1.45c1.29 0 2.58-.5 3.4-1.5.59-.71 1.35-1.27 2.21-1.62M6.37 23.8c-.27 3.4 2.41 6.23 5.75 6.23 1.8 0 3.41-.83 4.47-2.13.77-.96 1.99-1.44 3.23-1.44h3.56M14.34 18.96c.86.35 1.62.91 2.21 1.62.82 1 2.11 1.5 3.4 1.5h1.45"/><path fill="none" stroke="#000" stroke-linejoin="round" stroke-miterlimit="10" stroke-width="2" d="
		M60.07,6.001c-2.163-2.545-5.747-3.376-8.914-2.317l-7.217,2.412c-1.334,0.446-2.782,0.083-3.809-0.879C38.001,3.224,35.146,2,32,2
		s-6.001,1.224-8.129,3.217c-1.027,0.962-2.475,1.325-3.809,0.879l-7.217-2.412C9.676,2.625,6.092,3.455,3.93,6.001
		c-2.256,2.655-2.557,6.336-0.782,9.311l2.429,4.07c-0.87,0.52-1.392,1.563-1.093,2.705c0.202,0.771,0.81,1.412,1.573,1.645
		C7.065,24.04,8,23.698,8.59,23.04c0.496,0.553,1.235,0.882,2.056,0.791c0.741-0.082,1.394-0.565,1.78-1.203
		c0.452-0.746,0.414-1.406,0.209-1.986c1.202-0.311,2.044-1.517,1.743-2.872c-0.18-0.81-0.813-1.486-1.604-1.737
		c-0.734-0.234-1.417-0.1-1.969,0.23l-2.429-4.07C7.754,11.15,8.277,10.305,8.53,9.99c0.254-0.315,0.97-1.004,2.118-0.621
		l8.114,2.712c0.786,0.263,1.316,0.999,1.315,1.828l0,0.014c0,6.585,3.095,17.827,11.923,17.827s11.923-11.242,11.923-17.827
		l0-0.014c-0.001-0.829,0.529-1.565,1.315-1.828l8.114-2.712C54.5,8.986,55.216,9.676,55.47,9.99
		c0.253,0.315,0.776,1.16,0.154,2.202l-2.429,4.07c-0.551-0.33-1.234-0.463-1.969-0.23c-0.791,0.252-1.424,0.927-1.604,1.737
		c-0.301,1.355,0.541,2.561,1.743,2.872c-0.205,0.58-0.243,1.24,0.209,1.986c0.386,0.638,1.039,1.121,1.78,1.203
		c0.821,0.091,1.561-0.238,2.056-0.791c0.59,0.658,1.525,1,2.533,0.692c0.763-0.233,1.371-0.874,1.573-1.645
		c0.299-1.142-0.223-2.184-1.093-2.705l2.429-4.07C62.627,12.337,62.326,8.656,60.07,6.001z"/><line x1="25.444" x2="25.444" y1="13.612" y2="14.758" fill="none" stroke="#000" stroke-linecap="round" stroke-linejoin="round" stroke-miterlimit="10" stroke-width="2"/><line x1="38.556" x2="38.556" y1="13.612" y2="14.758" fill="none" stroke="#000" stroke-linecap="round" stroke-linejoin="round" stroke-miterlimit="10" stroke-width="2"/><path fill="none" stroke="#000" stroke-linecap="round" stroke-linejoin="round" stroke-miterlimit="10" stroke-width="2" d="M38.547 58.335c0 2.024-1.641 3.665-3.665 3.665-2.024 0-3.665-1.641-3.665-3.665 0-2.024 3.665-6.39 3.665-6.39S38.547 56.311 38.547 58.335zM29.025 54.134c0 1.304-1.057 2.362-2.362 2.362-1.304 0-2.362-1.057-2.362-2.362 0-1.304 2.362-4.118 2.362-4.118S29.025 52.83 29.025 54.134z"/><line x1="30.55" x2="33.45" y1="17.686" y2="17.686" fill="none" stroke="#000" stroke-linecap="round" stroke-linejoin="round" stroke-miterlimit="10" stroke-width="2"/><circle cx="52.574" cy="52.574" r="9.426" fill="none" stroke="#000" stroke-linecap="round" stroke-linejoin="round" stroke-miterlimit="10" stroke-width="2"/><line x1="48.6" x2="45.91" y1="56.55" y2="59.24" fill="none" stroke="#000" stroke-linejoin="round" stroke-miterlimit="10" stroke-width="2"/><line x1="59.24" x2="56.55" y1="45.91" y2="48.6" fill="none" stroke="#000" stroke-linejoin="round" stroke-miterlimit="10" stroke-width="2"/><circle cx="52.574" cy="52.574" r="5.623" fill="none" stroke="#000" stroke-linecap="round" stroke-linejoin="round" stroke-miterlimit="10" stroke-width="2"/><polyline fill="none" stroke="#000" stroke-linecap="round" stroke-linejoin="round" stroke-miterlimit="10" stroke-width="2" points="52.574 49.894 52.574 52.574 54.327 52.574"/></g><g display="none"><path d="M41.154,27.46h3.027c1.014,0,1.906,0.389,2.455,1.072c1.294,1.588,3.206,2.498,5.245,2.498
		c1.885,0,3.7-0.793,4.978-2.177c1.115-1.207,1.732-2.73,1.785-4.351c0.892-0.414,1.588-1.195,1.841-2.163
		c0.303-1.157-0.001-2.338-0.765-3.178l1.992-3.338c2.01-3.368,1.665-7.478-0.878-10.471c-2.357-2.776-6.375-3.831-9.994-2.618
		l-7.218,2.412c-0.955,0.32-2.032,0.066-2.808-0.66C38.413,2.238,35.283,1,32,1s-6.413,1.238-8.813,3.487
		c-0.776,0.727-1.852,0.981-2.809,0.66l-7.217-2.412c-3.619-1.21-7.635-0.157-9.994,2.618c-2.543,2.993-2.888,7.103-0.878,10.471
		l1.992,3.338c-0.764,0.84-1.068,2.021-0.765,3.179c0.254,0.967,0.949,1.749,1.841,2.162c0.053,1.621,0.67,3.144,1.785,4.35
		c1.278,1.384,3.092,2.177,4.978,2.177c2.039,0,3.95-0.91,5.25-2.504c0.543-0.678,1.436-1.066,2.45-1.066h3.026
		c0.151,0.226,0.306,0.447,0.467,0.662c-0.503,1.284-0.773,2.553-0.773,3.778c0,2.796,1.502,4.46,2.598,5.675
		c0.597,0.661,1.112,1.231,1.112,1.675v3.81c0,3.171,2.58,5.75,5.75,5.75s5.75-2.579,5.75-5.75v-3.81
		c0-0.443,0.515-1.014,1.112-1.675c1.096-1.215,2.598-2.879,2.598-5.675c0-1.225-0.27-2.494-0.773-3.779
		C40.847,27.906,41.003,27.686,41.154,27.46z M51.88,29.03c-1.435,0-2.782-0.643-3.689-1.756c-0.925-1.153-2.387-1.814-4.01-1.814
		h-1.878c0.381-0.767,0.719-1.565,1.012-2.38h0.735c1.68,0,3.201-0.68,4.169-1.861c0.29-0.349,0.634-0.646,1.009-0.896
		c0.267,0.364,0.599,0.682,0.998,0.918c-0.042,0.655,0.122,1.293,0.493,1.904c0.569,0.939,1.513,1.567,2.524,1.68
		c0.773,0.088,1.529-0.089,2.168-0.49c0.369,0.229,0.778,0.371,1.202,0.445c-0.106,1.011-0.522,1.954-1.225,2.716
		C54.488,28.472,53.209,29.03,51.88,29.03z M48.646,17.554c-0.061,0.277-0.078,0.551-0.072,0.821
		c-0.719,0.399-1.365,0.931-1.896,1.571c-0.583,0.71-1.565,1.134-2.627,1.134h-0.111c0.674-2.49,0.984-5.017,0.984-7.172
		c0-0.399,0.253-0.752,0.632-0.879l8.114-2.712c0.151-0.05,0.614-0.205,1.021,0.299c0.407,0.507,0.157,0.926,0.075,1.063
		l-1.99,3.336c-0.604-0.151-1.237-0.132-1.851,0.064C49.794,15.438,48.9,16.409,48.646,17.554z M4.007,14.799
		c-1.564-2.621-1.295-5.82,0.685-8.15c1.834-2.16,4.983-2.971,7.835-2.017l7.217,2.412c1.657,0.554,3.498,0.133,4.81-1.098
		C26.583,4.047,29.227,3,32,3s5.417,1.047,7.446,2.946c1.312,1.229,3.154,1.649,4.81,1.098l7.217-2.412
		c2.852-0.954,6.002-0.143,7.835,2.017c1.98,2.33,2.25,5.529,0.685,8.15l-2.429,4.07c-0.283,0.475-0.128,1.088,0.346,1.371
		c0.421,0.252,0.841,0.82,0.639,1.593c-0.116,0.441-0.468,0.811-0.898,0.942c-0.804,0.246-1.313-0.199-1.496-0.402
		c-0.189-0.212-0.46-0.333-0.745-0.333s-0.555,0.121-0.745,0.332c-0.31,0.346-0.746,0.516-1.202,0.465
		c-0.393-0.043-0.789-0.322-1.034-0.727c-0.234-0.388-0.27-0.717-0.122-1.135c0.094-0.265,0.072-0.556-0.06-0.804
		c-0.131-0.247-0.361-0.429-0.633-0.498c-0.638-0.165-1.211-0.812-1.018-1.687c0.101-0.454,0.475-0.856,0.932-1.001
		c0.402-0.129,0.789-0.083,1.152,0.135c0.227,0.136,0.499,0.176,0.757,0.111c0.258-0.064,0.479-0.229,0.615-0.457l2.429-4.07
		c0.654-1.097,0.566-2.346-0.234-3.343c-0.801-0.993-2.002-1.346-3.213-0.941l-8.114,2.712c-1.197,0.399-2,1.516-1.998,2.79
		c0,6.506-2.965,16.827-10.923,16.827S21.077,20.429,21.077,13.91c0.001-1.262-0.801-2.378-1.998-2.777l-8.115-2.712
		c-0.33-0.11-0.66-0.164-0.98-0.164c-0.856,0-1.65,0.384-2.234,1.107c-0.8,0.995-0.887,2.244-0.233,3.341l2.429,4.07
		c0.136,0.228,0.357,0.393,0.615,0.457c0.258,0.065,0.53,0.025,0.757-0.111c0.363-0.219,0.752-0.264,1.154-0.135
		c0.455,0.145,0.829,0.547,0.93,1.001c0.194,0.874-0.379,1.521-1.018,1.687c-0.271,0.069-0.501,0.251-0.633,0.498
		c-0.132,0.248-0.153,0.539-0.06,0.804c0.148,0.418,0.113,0.747-0.122,1.135c-0.245,0.404-0.642,0.684-1.035,0.727
		c-0.452,0.053-0.891-0.118-1.201-0.465c-0.38-0.422-1.11-0.423-1.489,0.001c-0.182,0.201-0.693,0.647-1.497,0.402
		c-0.429-0.132-0.781-0.501-0.897-0.941c-0.202-0.773,0.218-1.342,0.639-1.594c0.474-0.283,0.628-0.896,0.346-1.371L4.007,14.799z
		 M15.354,17.554c-0.254-1.145-1.148-2.115-2.276-2.474c-0.615-0.195-1.249-0.216-1.853-0.064l-1.99-3.336
		c-0.082-0.138-0.332-0.557,0.074-1.062c0.407-0.507,0.87-0.351,1.022-0.301l8.114,2.712c0.378,0.127,0.632,0.479,0.632,0.894
		c0,2.149,0.309,4.671,0.982,7.157H19.95c-1.062,0-2.044-0.424-2.631-1.139c-0.528-0.636-1.174-1.168-1.892-1.566
		C15.432,18.104,15.415,17.83,15.354,17.554z M19.82,25.46c-1.624,0-3.085,0.661-4.005,1.809c-0.913,1.119-2.26,1.762-3.695,1.762
		c-1.329,0-2.608-0.559-3.508-1.534c-0.704-0.761-1.119-1.704-1.225-2.715c0.424-0.074,0.833-0.216,1.201-0.446
		c0.64,0.401,1.396,0.578,2.168,0.49c1.012-0.112,1.957-0.74,2.525-1.68c0.371-0.611,0.535-1.249,0.493-1.904
		c0.399-0.236,0.731-0.554,0.998-0.918c0.375,0.249,0.718,0.545,1.005,0.891c0.973,1.187,2.494,1.866,4.173,1.866h0.734
		c0.293,0.815,0.631,1.612,1.012,2.38H19.82z M37.377,36.235c-0.836,0.927-1.627,1.803-1.627,3.015v3.81
		c0,2.067-1.682,3.75-3.75,3.75s-3.75-1.683-3.75-3.75v-3.81c0-1.212-0.791-2.088-1.627-3.015c-1.024-1.135-2.083-2.309-2.083-4.335
		c0-0.661,0.107-1.346,0.298-2.045c1.861,1.769,4.224,2.895,7.162,2.895c2.939,0,5.302-1.125,7.162-2.895
		c0.19,0.699,0.298,1.384,0.298,2.045C39.46,33.927,38.401,35.101,37.377,36.235z"/><path d="M25.444 15.758c.552 0 1-.447 1-1v-1.146c0-.553-.448-1-1-1s-1 .447-1 1v1.146C24.444 15.311 24.892 15.758 25.444 15.758zM38.556 15.758c.552 0 1-.447 1-1v-1.146c0-.553-.448-1-1-1s-1 .447-1 1v1.146C37.556 15.311 38.004 15.758 38.556 15.758zM34.882 50.945c-.295 0-.576.131-.766.357-.651.775-3.899 4.76-3.899 7.032 0 2.572 2.093 4.665 4.665 4.665s4.665-2.093 4.665-4.665c0-2.272-3.248-6.257-3.898-7.032C35.458 51.076 35.177 50.945 34.882 50.945zM34.882 61c-1.47 0-2.665-1.195-2.665-2.665 0-.947 1.381-3.109 2.665-4.788 1.284 1.679 2.665 3.841 2.665 4.788C37.546 59.805 36.351 61 34.882 61zM25.896 49.373c-.609.725-2.596 3.212-2.596 4.761 0 1.854 1.508 3.362 3.362 3.362 1.854 0 3.362-1.509 3.362-3.362 0-1.549-1.987-4.036-2.597-4.761C27.048 48.92 26.277 48.92 25.896 49.373zM26.663 55.496c-.751 0-1.362-.611-1.362-1.362 0-.382.582-1.422 1.362-2.494.781 1.073 1.362 2.112 1.362 2.494C28.025 54.885 27.414 55.496 26.663 55.496zM30.55 18.686h2.9c.552 0 1-.447 1-1s-.448-1-1-1h-2.9c-.552 0-1 .447-1 1S29.998 18.686 30.55 18.686zM52.574 42.147c-5.75 0-10.427 4.677-10.427 10.426S46.824 63 52.574 63C58.323 63 63 58.322 63 52.573S58.323 42.147 52.574 42.147zM52.574 44.147c1.964 0 3.769.681 5.203 1.812l-1.286 1.286c-1.099-.81-2.451-1.295-3.917-1.295-3.652 0-6.624 2.971-6.624 6.623 0 1.467.485 2.819 1.295 3.918l-1.286 1.286c-1.131-1.435-1.812-3.24-1.812-5.204C44.147 47.928 47.927 44.147 52.574 44.147zM47.95 52.573c0-2.549 2.074-4.623 4.624-4.623s4.623 2.074 4.623 4.623c0 2.55-2.074 4.624-4.623 4.624S47.95 55.123 47.95 52.573zM52.574 61c-1.963 0-3.766-.68-5.2-1.809l1.286-1.286c1.098.809 2.449 1.293 3.914 1.293 3.652 0 6.623-2.972 6.623-6.624 0-1.465-.484-2.816-1.292-3.914l1.286-1.286C60.32 48.807 61 50.611 61 52.573 61 57.22 57.22 61 52.574 61z"/><path d="M54.327,53.573c0.552,0,1-0.447,1-1s-0.448-1-1-1h-0.753v-1.679c0-0.553-0.448-1-1-1s-1,0.447-1,1v2.679
		c0,0.553,0.448,1,1,1H54.327z"/></g><path fill="#F78177" d="M32,47.81c2.624,0,4.751-2.127,4.751-4.751v-3.805c0-2.017,3.708-3.253,3.708-7.351
		s-3.253-7.907-4.879-9.563H28.42c-1.626,1.656-4.879,5.465-4.879,9.563s3.708,5.334,3.708,7.351v3.805
		C27.249,45.683,29.376,47.81,32,47.81L32,47.81z"/><path fill="#52D5D8" d="M53.137,18.637c-2.276-0.479-4.383,0.385-5.682,1.947c-0.828,0.995-2.112,1.495-3.406,1.495H19.951
		c-1.294,0-2.578-0.499-3.406-1.495c-1.299-1.562-3.407-2.426-5.682-1.947c-2.172,0.457-3.926,2.215-4.38,4.387
		c-0.779,3.726,2.044,7.007,5.633,7.007c1.806,0,3.416-0.831,4.472-2.131c0.777-0.957,1.997-1.443,3.229-1.443h24.366
		c1.233,0,2.452,0.486,3.229,1.443c1.056,1.3,2.666,2.131,4.472,2.131c3.589,0,6.412-3.281,5.633-7.007
		C57.063,20.851,55.309,19.094,53.137,18.637z"/><path fill="#FAAD95" d="M60.07,6.001c-2.163-2.545-5.747-3.376-8.914-2.317l-7.217,2.412c-1.334,0.446-2.782,0.083-3.809-0.879
		C38.001,3.224,35.146,2,32,2s-6.001,1.224-8.129,3.217c-1.027,0.962-2.475,1.325-3.809,0.879l-7.217-2.412
		C9.676,2.625,6.092,3.455,3.93,6.001c-2.256,2.655-2.557,6.336-0.782,9.311l2.429,4.07c-0.87,0.52-1.392,1.563-1.093,2.705
		c0.202,0.771,0.81,1.412,1.573,1.645C7.065,24.04,8,23.698,8.59,23.04c0.496,0.553,1.235,0.882,2.056,0.791
		c0.741-0.082,1.394-0.565,1.78-1.203c0.452-0.746,0.414-1.406,0.209-1.986c1.202-0.311,2.044-1.517,1.743-2.872
		c-0.18-0.81-0.813-1.486-1.604-1.737c-0.734-0.234-1.417-0.1-1.969,0.23l-2.429-4.07C7.754,11.15,8.277,10.305,8.53,9.99
		c0.254-0.315,0.97-1.004,2.118-0.621l8.114,2.712c0.786,0.263,1.316,0.999,1.315,1.828l0,0.014c0,6.585,3.095,17.827,11.923,17.827
		s11.923-11.242,11.923-17.827l0-0.014c-0.001-0.829,0.529-1.565,1.315-1.828l8.114-2.712C54.5,8.986,55.216,9.676,55.47,9.99
		c0.253,0.315,0.776,1.16,0.154,2.202l-2.429,4.07c-0.551-0.33-1.234-0.463-1.969-0.23c-0.791,0.252-1.424,0.927-1.604,1.737
		c-0.301,1.355,0.541,2.561,1.743,2.872c-0.205,0.58-0.243,1.24,0.209,1.986c0.386,0.638,1.039,1.121,1.78,1.203
		c0.821,0.091,1.561-0.238,2.056-0.791c0.59,0.658,1.525,1,2.533,0.692c0.763-0.233,1.371-0.874,1.573-1.645
		c0.299-1.142-0.223-2.184-1.093-2.705l2.429-4.07C62.627,12.337,62.326,8.656,60.07,6.001z"/><path fill="#FF2E65" d="M38.547,58.335c0,2.024-1.641,3.665-3.665,3.665c-2.024,0-3.665-1.641-3.665-3.665
		c0-1.532,2.1-4.406,3.121-5.713c0.277-0.354,0.811-0.354,1.088,0C36.446,53.929,38.547,56.803,38.547,58.335z M27.213,50.711
		c-0.277-0.365-0.823-0.365-1.1,0c-0.698,0.919-1.812,2.527-1.812,3.423c0,1.304,1.057,2.362,2.362,2.362
		c1.304,0,2.362-1.057,2.362-2.362C29.025,53.238,27.91,51.63,27.213,50.711z"/><path fill="#46367D" d="M25.444,15.758c-0.552,0-1-0.447-1-1v-1.146c0-0.553,0.448-1,1-1s1,0.447,1,1v1.146
		C26.444,15.311,25.996,15.758,25.444,15.758z M39.556,14.758v-1.146c0-0.553-0.448-1-1-1s-1,0.447-1,1v1.146c0,0.553,0.448,1,1,1
		S39.556,15.311,39.556,14.758z M34.45,17.686c0-0.553-0.448-1-1-1h-2.9c-0.552,0-1,0.447-1,1s0.448,1,1,1h2.9
		C34.002,18.686,34.45,18.238,34.45,17.686z"/><path fill="#FF2E65" d="M52.574,42.147c-5.75,0-10.427,4.677-10.427,10.426S46.824,63,52.574,63C58.323,63,63,58.322,63,52.573
		S58.323,42.147,52.574,42.147z M52.574,44.147c1.963,0,3.768,0.68,5.202,1.81L45.958,57.776c-1.13-1.434-1.811-3.239-1.811-5.202
		C44.147,47.928,47.927,44.147,52.574,44.147z M52.574,61c-1.963,0-3.768-0.68-5.202-1.81L59.19,47.372
		C60.32,48.806,61,50.61,61,52.573C61,57.22,57.22,61,52.574,61z"/><circle cx="52.574" cy="52.574" r="5.623" fill="#52D5D8"/><path fill="#46367D" d="M52.574,59.197c-3.652,0-6.624-2.972-6.624-6.624s2.971-6.623,6.624-6.623c3.652,0,6.623,2.971,6.623,6.623
		S56.226,59.197,52.574,59.197z M52.574,47.95c-2.549,0-4.624,2.074-4.624,4.623c0,2.55,2.074,4.624,4.624,4.624
		s4.623-2.074,4.623-4.624C57.197,50.024,55.123,47.95,52.574,47.95z M55.327,52.573c0-0.553-0.448-1-1-1h-0.753v-1.679
		c0-0.553-0.448-1-1-1s-1,0.447-1,1v2.679c0,0.553,0.448,1,1,1h1.753C54.879,53.573,55.327,53.126,55.327,52.573z"/><g display="none"><path d="M41.154,27.46h3.027c1.014,0,1.906,0.389,2.455,1.072c1.294,1.588,3.206,2.498,5.245,2.498
		c1.885,0,3.7-0.793,4.978-2.177c1.115-1.207,1.732-2.73,1.785-4.351c0.892-0.414,1.588-1.195,1.841-2.163
		c0.303-1.157-0.001-2.338-0.765-3.178l1.992-3.338c2.01-3.368,1.665-7.478-0.878-10.471c-2.357-2.776-6.375-3.831-9.994-2.618
		l-7.218,2.412c-0.955,0.32-2.032,0.066-2.808-0.66C38.413,2.238,35.283,1,32,1s-6.413,1.238-8.813,3.487
		c-0.776,0.727-1.852,0.981-2.809,0.66l-7.217-2.412c-3.619-1.21-7.635-0.157-9.994,2.618c-2.543,2.993-2.888,7.103-0.878,10.471
		l1.992,3.338c-0.764,0.84-1.068,2.021-0.765,3.179c0.254,0.967,0.949,1.749,1.841,2.162c0.053,1.621,0.67,3.144,1.785,4.35
		c1.278,1.384,3.092,2.177,4.978,2.177c2.039,0,3.95-0.91,5.25-2.504c0.543-0.678,1.436-1.066,2.45-1.066h3.026
		c0.151,0.226,0.306,0.447,0.467,0.662c-0.503,1.284-0.773,2.553-0.773,3.778c0,2.796,1.502,4.46,2.598,5.675
		c0.597,0.661,1.112,1.231,1.112,1.675v3.81c0,3.171,2.58,5.75,5.75,5.75s5.75-2.579,5.75-5.75v-3.81
		c0-0.443,0.515-1.014,1.112-1.675c1.096-1.215,2.598-2.879,2.598-5.675c0-1.225-0.27-2.494-0.773-3.779
		C40.847,27.906,41.003,27.686,41.154,27.46z M51.88,29.03c-1.435,0-2.782-0.643-3.689-1.756c-0.925-1.153-2.387-1.814-4.01-1.814
		h-1.878c0.381-0.767,0.719-1.565,1.012-2.38h0.735c1.68,0,3.201-0.68,4.169-1.861c0.29-0.349,0.634-0.646,1.009-0.896
		c0.267,0.364,0.599,0.682,0.998,0.918c-0.042,0.655,0.122,1.293,0.493,1.904c0.569,0.939,1.513,1.567,2.524,1.68
		c0.773,0.088,1.529-0.089,2.168-0.49c0.369,0.229,0.778,0.371,1.202,0.445c-0.106,1.011-0.522,1.954-1.225,2.716
		C54.488,28.472,53.209,29.03,51.88,29.03z M48.646,17.554c-0.061,0.277-0.078,0.551-0.072,0.821
		c-0.719,0.399-1.365,0.931-1.896,1.571c-0.583,0.71-1.565,1.134-2.627,1.134h-0.111c0.674-2.49,0.984-5.017,0.984-7.172
		c0-0.399,0.253-0.752,0.632-0.879l8.114-2.712c0.151-0.05,0.614-0.205,1.021,0.299c0.407,0.507,0.157,0.926,0.075,1.063
		l-1.99,3.336c-0.604-0.151-1.237-0.132-1.851,0.064C49.794,15.438,48.9,16.409,48.646,17.554z M4.007,14.799
		c-1.564-2.621-1.295-5.82,0.685-8.15c1.834-2.16,4.983-2.971,7.835-2.017l7.217,2.412c1.657,0.554,3.498,0.133,4.81-1.098
		C26.583,4.047,29.227,3,32,3s5.417,1.047,7.446,2.946c1.312,1.229,3.154,1.649,4.81,1.098l7.217-2.412
		c2.852-0.954,6.002-0.143,7.835,2.017c1.98,2.33,2.25,5.529,0.685,8.15l-2.429,4.07c-0.283,0.475-0.128,1.088,0.346,1.371
		c0.421,0.252,0.841,0.82,0.639,1.593c-0.116,0.441-0.468,0.811-0.898,0.942c-0.804,0.246-1.313-0.199-1.496-0.402
		c-0.189-0.212-0.46-0.333-0.745-0.333s-0.555,0.121-0.745,0.332c-0.31,0.346-0.746,0.516-1.202,0.465
		c-0.393-0.043-0.789-0.322-1.034-0.727c-0.234-0.388-0.27-0.717-0.122-1.135c0.094-0.265,0.072-0.556-0.06-0.804
		c-0.131-0.247-0.361-0.429-0.633-0.498c-0.638-0.165-1.211-0.812-1.018-1.687c0.101-0.454,0.475-0.856,0.932-1.001
		c0.402-0.129,0.789-0.083,1.152,0.135c0.227,0.136,0.499,0.176,0.757,0.111c0.258-0.064,0.479-0.229,0.615-0.457l2.429-4.07
		c0.654-1.097,0.566-2.346-0.234-3.343c-0.801-0.993-2.002-1.346-3.213-0.941l-8.114,2.712c-1.197,0.399-2,1.516-1.998,2.79
		c0,6.506-2.965,16.827-10.923,16.827S21.077,20.429,21.077,13.91c0.001-1.262-0.801-2.378-1.998-2.777l-8.115-2.712
		c-0.33-0.11-0.66-0.164-0.98-0.164c-0.856,0-1.65,0.384-2.234,1.107c-0.8,0.995-0.887,2.244-0.233,3.341l2.429,4.07
		c0.136,0.228,0.357,0.393,0.615,0.457c0.258,0.065,0.53,0.025,0.757-0.111c0.363-0.219,0.752-0.264,1.154-0.135
		c0.455,0.145,0.829,0.547,0.93,1.001c0.194,0.874-0.379,1.521-1.018,1.687c-0.271,0.069-0.501,0.251-0.633,0.498
		c-0.132,0.248-0.153,0.539-0.06,0.804c0.148,0.418,0.113,0.747-0.122,1.135c-0.245,0.404-0.642,0.684-1.035,0.727
		c-0.452,0.053-0.891-0.118-1.201-0.465c-0.38-0.422-1.11-0.423-1.489,0.001c-0.182,0.201-0.693,0.647-1.497,0.402
		c-0.429-0.132-0.781-0.501-0.897-0.941c-0.202-0.773,0.218-1.342,0.639-1.594c0.474-0.283,0.628-0.896,0.346-1.371L4.007,14.799z
		 M15.354,17.554c-0.254-1.145-1.148-2.115-2.276-2.474c-0.615-0.195-1.249-0.216-1.853-0.064l-1.99-3.336
		c-0.082-0.138-0.332-0.557,0.074-1.062c0.407-0.507,0.87-0.351,1.022-0.301l8.114,2.712c0.378,0.127,0.632,0.479,0.632,0.894
		c0,2.149,0.309,4.671,0.982,7.157H19.95c-1.062,0-2.044-0.424-2.631-1.139c-0.528-0.636-1.174-1.168-1.892-1.566
		C15.432,18.104,15.415,17.83,15.354,17.554z M19.82,25.46c-1.624,0-3.085,0.661-4.005,1.809c-0.913,1.119-2.26,1.762-3.695,1.762
		c-1.329,0-2.608-0.559-3.508-1.534c-0.704-0.761-1.119-1.704-1.225-2.715c0.424-0.074,0.833-0.216,1.201-0.446
		c0.64,0.401,1.396,0.578,2.168,0.49c1.012-0.112,1.957-0.74,2.525-1.68c0.371-0.611,0.535-1.249,0.493-1.904
		c0.399-0.236,0.731-0.554,0.998-0.918c0.375,0.249,0.718,0.545,1.005,0.891c0.973,1.187,2.494,1.866,4.173,1.866h0.734
		c0.293,0.815,0.631,1.612,1.012,2.38H19.82z M37.377,36.235c-0.836,0.927-1.627,1.803-1.627,3.015v3.81
		c0,2.067-1.682,3.75-3.75,3.75s-3.75-1.683-3.75-3.75v-3.81c0-1.212-0.791-2.088-1.627-3.015c-1.024-1.135-2.083-2.309-2.083-4.335
		c0-0.661,0.107-1.346,0.298-2.045c1.861,1.769,4.224,2.895,7.162,2.895c2.939,0,5.302-1.125,7.162-2.895
		c0.19,0.699,0.298,1.384,0.298,2.045C39.46,33.927,38.401,35.101,37.377,36.235z M24.444,14.758v-1.146c0-0.553,0.448-1,1-1
		s1,0.447,1,1v1.146c0,0.553-0.448,1-1,1S24.444,15.311,24.444,14.758z M37.556,14.758v-1.146c0-0.553,0.448-1,1-1s1,0.447,1,1
		v1.146c0,0.553-0.448,1-1,1S37.556,15.311,37.556,14.758z M34.882,50.945c-0.295,0-0.576,0.131-0.766,0.357
		c-0.651,0.775-3.899,4.76-3.899,7.032c0,2.572,2.093,4.665,4.665,4.665s4.665-2.093,4.665-4.665c0-2.272-3.248-6.257-3.898-7.032
		C35.458,51.076,35.177,50.945,34.882,50.945z M34.882,61c-1.47,0-2.665-1.195-2.665-2.665c0-0.947,1.381-3.109,2.665-4.788
		c1.284,1.679,2.665,3.841,2.665,4.788C37.546,59.805,36.351,61,34.882,61z M25.896,49.373c-0.609,0.725-2.596,3.212-2.596,4.761
		c0,1.854,1.508,3.362,3.362,3.362c1.854,0,3.362-1.509,3.362-3.362c0-1.549-1.987-4.036-2.597-4.761
		C27.048,48.92,26.277,48.92,25.896,49.373z M26.663,55.496c-0.751,0-1.362-0.611-1.362-1.362c0-0.382,0.582-1.422,1.362-2.494
		c0.781,1.073,1.362,2.112,1.362,2.494C28.025,54.885,27.414,55.496,26.663,55.496z M29.55,17.686c0-0.553,0.448-1,1-1h2.9
		c0.552,0,1,0.447,1,1s-0.448,1-1,1h-2.9C29.998,18.686,29.55,18.238,29.55,17.686z M52.574,42.147
		c-5.75,0-10.427,4.677-10.427,10.426S46.824,63,52.574,63C58.323,63,63,58.322,63,52.573S58.323,42.147,52.574,42.147z
		 M52.574,44.147c1.964,0,3.769,0.681,5.203,1.812l-1.286,1.286c-1.099-0.81-2.451-1.295-3.917-1.295
		c-3.652,0-6.624,2.971-6.624,6.623c0,1.467,0.485,2.819,1.295,3.918l-1.286,1.286c-1.131-1.435-1.812-3.24-1.812-5.204
		C44.147,47.928,47.927,44.147,52.574,44.147z M47.95,52.573c0-2.549,2.074-4.623,4.624-4.623s4.623,2.074,4.623,4.623
		c0,2.55-2.074,4.624-4.623,4.624S47.95,55.123,47.95,52.573z M52.574,61c-1.963,0-3.766-0.68-5.2-1.809l1.286-1.286
		c1.098,0.809,2.449,1.293,3.914,1.293c3.652,0,6.623-2.972,6.623-6.624c0-1.465-0.484-2.816-1.292-3.914l1.286-1.286
		C60.32,48.807,61,50.611,61,52.573C61,57.22,57.22,61,52.574,61z M52.574,53.573c-0.552,0-1-0.447-1-1v-2.679c0-0.553,0.448-1,1-1
		s1,0.447,1,1v1.679h0.753c0.552,0,1,0.447,1,1s-0.448,1-1,1H52.574z"/></g><g display="none"><path fill="#FF2E65" d="M32,47.81c2.624,0,4.751-2.127,4.751-4.751v-3.805c0-2.017,3.708-3.253,3.708-7.351
		s-3.253-7.907-4.879-9.563H28.42c-1.626,1.656-4.879,5.465-4.879,9.563s3.708,5.334,3.708,7.351v3.805
		C27.249,45.683,29.376,47.81,32,47.81L32,47.81z"/><path fill="#52D5D8" d="M53.137,18.637c-2.276-0.479-4.383,0.385-5.682,1.947
		c-0.828,0.995-2.112,1.495-3.406,1.495H19.951c-1.294,0-2.578-0.499-3.406-1.495c-1.299-1.562-3.407-2.426-5.682-1.947
		c-2.172,0.457-3.926,2.215-4.38,4.387c-0.779,3.726,2.044,7.007,5.633,7.007c1.806,0,3.416-0.831,4.472-2.131
		c0.777-0.957,1.997-1.443,3.229-1.443h24.366c1.233,0,2.452,0.486,3.229,1.443c1.056,1.3,2.666,2.131,4.472,2.131
		c3.589,0,6.412-3.281,5.633-7.007C57.063,20.851,55.309,19.094,53.137,18.637z"/><path fill="#FAAD95" d="M60.07,6.001c-2.163-2.545-5.747-3.376-8.914-2.317l-7.217,2.412
		c-1.334,0.446-2.782,0.083-3.809-0.879C38.001,3.224,35.146,2,32,2s-6.001,1.224-8.129,3.217c-1.027,0.962-2.475,1.325-3.809,0.879
		l-7.217-2.412C9.676,2.625,6.092,3.455,3.93,6.001c-2.256,2.655-2.557,6.336-0.782,9.311l2.429,4.07
		c-0.87,0.52-1.392,1.563-1.093,2.705c0.202,0.771,0.81,1.412,1.573,1.645C7.065,24.04,8,23.698,8.59,23.04
		c0.496,0.553,1.235,0.882,2.056,0.791c0.741-0.082,1.394-0.565,1.78-1.203c0.452-0.746,0.414-1.406,0.209-1.986
		c1.202-0.311,2.044-1.517,1.743-2.872c-0.18-0.81-0.813-1.486-1.604-1.737c-0.734-0.234-1.417-0.1-1.969,0.23l-2.429-4.07
		C7.754,11.15,8.277,10.305,8.53,9.99c0.254-0.315,0.97-1.004,2.118-0.621l8.114,2.712c0.786,0.263,1.316,0.999,1.315,1.828l0,0.014
		c0,6.585,3.095,17.827,11.923,17.827s11.923-11.242,11.923-17.827l0-0.014c-0.001-0.829,0.529-1.565,1.315-1.828l8.114-2.712
		C54.5,8.986,55.216,9.676,55.47,9.99c0.253,0.315,0.776,1.16,0.154,2.202l-2.429,4.07c-0.551-0.33-1.234-0.463-1.969-0.23
		c-0.791,0.252-1.424,0.927-1.604,1.737c-0.301,1.355,0.541,2.561,1.743,2.872c-0.205,0.58-0.243,1.24,0.209,1.986
		c0.386,0.638,1.039,1.121,1.78,1.203c0.821,0.091,1.561-0.238,2.056-0.791c0.59,0.658,1.525,1,2.533,0.692
		c0.763-0.233,1.371-0.874,1.573-1.645c0.299-1.142-0.223-2.184-1.093-2.705l2.429-4.07C62.627,12.337,62.326,8.656,60.07,6.001z"/><path fill="#FF2E65" d="M38.547,58.335c0,2.024-1.641,3.665-3.665,3.665c-2.024,0-3.665-1.641-3.665-3.665
		c0-1.532,2.1-4.406,3.121-5.713c0.277-0.354,0.811-0.354,1.088,0C36.446,53.929,38.547,56.803,38.547,58.335z M27.213,50.711
		c-0.277-0.365-0.823-0.365-1.1,0c-0.698,0.919-1.812,2.527-1.812,3.423c0,1.304,1.057,2.362,2.362,2.362
		c1.304,0,2.362-1.057,2.362-2.362C29.025,53.238,27.91,51.63,27.213,50.711z"/><circle cx="52.574" cy="52.574" r="5.623" fill="#52D5D8"/><path d="M41.154,27.46h3.027c1.014,0,1.906,0.389,2.455,1.072c1.294,1.588,3.206,2.498,5.245,2.498
		c1.885,0,3.7-0.793,4.978-2.177c1.115-1.207,1.732-2.73,1.785-4.351c0.892-0.414,1.588-1.195,1.841-2.163
		c0.303-1.157-0.001-2.338-0.765-3.178l1.992-3.338c2.01-3.368,1.665-7.478-0.878-10.471c-2.357-2.776-6.375-3.831-9.994-2.618
		l-7.218,2.412c-0.955,0.32-2.032,0.066-2.808-0.66C38.413,2.238,35.283,1,32,1s-6.413,1.238-8.813,3.487
		c-0.776,0.727-1.852,0.981-2.809,0.66l-7.217-2.412c-3.619-1.21-7.635-0.157-9.994,2.618c-2.543,2.993-2.888,7.103-0.878,10.471
		l1.992,3.338c-0.764,0.84-1.068,2.021-0.765,3.179c0.254,0.967,0.949,1.749,1.841,2.162c0.053,1.621,0.67,3.144,1.785,4.35
		c1.278,1.384,3.092,2.177,4.978,2.177c2.039,0,3.95-0.91,5.25-2.504c0.543-0.678,1.436-1.066,2.45-1.066h3.026
		c0.151,0.226,0.306,0.447,0.467,0.662c-0.503,1.284-0.773,2.553-0.773,3.778c0,2.796,1.502,4.46,2.598,5.675
		c0.597,0.661,1.112,1.231,1.112,1.675v3.81c0,3.171,2.58,5.75,5.75,5.75s5.75-2.579,5.75-5.75v-3.81
		c0-0.443,0.515-1.014,1.112-1.675c1.096-1.215,2.598-2.879,2.598-5.675c0-1.225-0.27-2.494-0.773-3.779
		C40.847,27.906,41.003,27.686,41.154,27.46z M51.88,29.03c-1.435,0-2.782-0.643-3.689-1.756c-0.925-1.153-2.387-1.814-4.01-1.814
		h-1.878c0.381-0.767,0.719-1.565,1.012-2.38h0.735c1.68,0,3.201-0.68,4.169-1.861c0.29-0.349,0.634-0.646,1.009-0.896
		c0.267,0.364,0.599,0.682,0.998,0.918c-0.042,0.655,0.122,1.293,0.493,1.904c0.569,0.939,1.513,1.567,2.524,1.68
		c0.773,0.088,1.529-0.089,2.168-0.49c0.369,0.229,0.778,0.371,1.202,0.445c-0.106,1.011-0.522,1.954-1.225,2.716
		C54.488,28.472,53.209,29.03,51.88,29.03z M48.646,17.554c-0.061,0.277-0.078,0.551-0.072,0.821
		c-0.719,0.399-1.365,0.931-1.896,1.571c-0.583,0.71-1.565,1.134-2.627,1.134h-0.111c0.674-2.49,0.984-5.017,0.984-7.172
		c0-0.399,0.253-0.752,0.632-0.879l8.114-2.712c0.151-0.05,0.614-0.205,1.021,0.299c0.407,0.507,0.157,0.926,0.075,1.063
		l-1.99,3.336c-0.604-0.151-1.237-0.132-1.851,0.064C49.794,15.438,48.9,16.409,48.646,17.554z M4.007,14.799
		c-1.564-2.621-1.295-5.82,0.685-8.15c1.834-2.16,4.983-2.971,7.835-2.017l7.217,2.412c1.657,0.554,3.498,0.133,4.81-1.098
		C26.583,4.047,29.227,3,32,3s5.417,1.047,7.446,2.946c1.312,1.229,3.154,1.649,4.81,1.098l7.217-2.412
		c2.852-0.954,6.002-0.143,7.835,2.017c1.98,2.33,2.25,5.529,0.685,8.15l-2.429,4.07c-0.283,0.475-0.128,1.088,0.346,1.371
		c0.421,0.252,0.841,0.82,0.639,1.593c-0.116,0.441-0.468,0.811-0.898,0.942c-0.804,0.246-1.313-0.199-1.496-0.402
		c-0.189-0.212-0.46-0.333-0.745-0.333s-0.555,0.121-0.745,0.332c-0.31,0.346-0.746,0.516-1.202,0.465
		c-0.393-0.043-0.789-0.322-1.034-0.727c-0.234-0.388-0.27-0.717-0.122-1.135c0.094-0.265,0.072-0.556-0.06-0.804
		c-0.131-0.247-0.361-0.429-0.633-0.498c-0.638-0.165-1.211-0.812-1.018-1.687c0.101-0.454,0.475-0.856,0.932-1.001
		c0.402-0.129,0.789-0.083,1.152,0.135c0.227,0.136,0.499,0.176,0.757,0.111c0.258-0.064,0.479-0.229,0.615-0.457l2.429-4.07
		c0.654-1.097,0.566-2.346-0.234-3.343c-0.801-0.993-2.002-1.346-3.213-0.941l-8.114,2.712c-1.197,0.399-2,1.516-1.998,2.79
		c0,6.506-2.965,16.827-10.923,16.827S21.077,20.429,21.077,13.91c0.001-1.262-0.801-2.378-1.998-2.777l-8.115-2.712
		c-0.33-0.11-0.66-0.164-0.98-0.164c-0.856,0-1.65,0.384-2.234,1.107c-0.8,0.995-0.887,2.244-0.233,3.341l2.429,4.07
		c0.136,0.228,0.357,0.393,0.615,0.457c0.258,0.065,0.53,0.025,0.757-0.111c0.363-0.219,0.752-0.264,1.154-0.135
		c0.455,0.145,0.829,0.547,0.93,1.001c0.194,0.874-0.379,1.521-1.018,1.687c-0.271,0.069-0.501,0.251-0.633,0.498
		c-0.132,0.248-0.153,0.539-0.06,0.804c0.148,0.418,0.113,0.747-0.122,1.135c-0.245,0.404-0.642,0.684-1.035,0.727
		c-0.452,0.053-0.891-0.118-1.201-0.465c-0.38-0.422-1.11-0.423-1.489,0.001c-0.182,0.201-0.693,0.647-1.497,0.402
		c-0.429-0.132-0.781-0.501-0.897-0.941c-0.202-0.773,0.218-1.342,0.639-1.594c0.474-0.283,0.628-0.896,0.346-1.371L4.007,14.799z
		 M15.354,17.554c-0.254-1.145-1.148-2.115-2.276-2.474c-0.615-0.195-1.249-0.216-1.853-0.064l-1.99-3.336
		c-0.082-0.138-0.332-0.557,0.074-1.062c0.407-0.507,0.87-0.351,1.022-0.301l8.114,2.712c0.378,0.127,0.632,0.479,0.632,0.894
		c0,2.149,0.309,4.671,0.982,7.157H19.95c-1.062,0-2.044-0.424-2.631-1.139c-0.528-0.636-1.174-1.168-1.892-1.566
		C15.432,18.104,15.415,17.83,15.354,17.554z M19.82,25.46c-1.624,0-3.085,0.661-4.005,1.809c-0.913,1.119-2.26,1.762-3.695,1.762
		c-1.329,0-2.608-0.559-3.508-1.534c-0.704-0.761-1.119-1.704-1.225-2.715c0.424-0.074,0.833-0.216,1.201-0.446
		c0.64,0.401,1.396,0.578,2.168,0.49c1.012-0.112,1.957-0.74,2.525-1.68c0.371-0.611,0.535-1.249,0.493-1.904
		c0.399-0.236,0.731-0.554,0.998-0.918c0.375,0.249,0.718,0.545,1.005,0.891c0.973,1.187,2.494,1.866,4.173,1.866h0.734
		c0.293,0.815,0.631,1.612,1.012,2.38H19.82z M37.377,36.235c-0.836,0.927-1.627,1.803-1.627,3.015v3.81
		c0,2.067-1.682,3.75-3.75,3.75s-3.75-1.683-3.75-3.75v-3.81c0-1.212-0.791-2.088-1.627-3.015c-1.024-1.135-2.083-2.309-2.083-4.335
		c0-0.661,0.107-1.346,0.298-2.045c1.861,1.769,4.224,2.895,7.162,2.895c2.939,0,5.302-1.125,7.162-2.895
		c0.19,0.699,0.298,1.384,0.298,2.045C39.46,33.927,38.401,35.101,37.377,36.235z M24.444,14.758v-1.146c0-0.553,0.448-1,1-1
		s1,0.447,1,1v1.146c0,0.553-0.448,1-1,1S24.444,15.311,24.444,14.758z M37.556,14.758v-1.146c0-0.553,0.448-1,1-1s1,0.447,1,1
		v1.146c0,0.553-0.448,1-1,1S37.556,15.311,37.556,14.758z M34.882,50.945c-0.295,0-0.576,0.131-0.766,0.357
		c-0.651,0.775-3.899,4.76-3.899,7.032c0,2.572,2.093,4.665,4.665,4.665s4.665-2.093,4.665-4.665c0-2.272-3.248-6.257-3.898-7.032
		C35.458,51.076,35.177,50.945,34.882,50.945z M34.882,61c-1.47,0-2.665-1.195-2.665-2.665c0-0.947,1.381-3.109,2.665-4.788
		c1.284,1.679,2.665,3.841,2.665,4.788C37.546,59.805,36.351,61,34.882,61z M25.896,49.373c-0.609,0.725-2.596,3.212-2.596,4.761
		c0,1.854,1.508,3.362,3.362,3.362c1.854,0,3.362-1.509,3.362-3.362c0-1.549-1.987-4.036-2.597-4.761
		C27.048,48.92,26.277,48.92,25.896,49.373z M26.663,55.496c-0.751,0-1.362-0.611-1.362-1.362c0-0.382,0.582-1.422,1.362-2.494
		c0.781,1.073,1.362,2.112,1.362,2.494C28.025,54.885,27.414,55.496,26.663,55.496z M29.55,17.686c0-0.553,0.448-1,1-1h2.9
		c0.552,0,1,0.447,1,1s-0.448,1-1,1h-2.9C29.998,18.686,29.55,18.238,29.55,17.686z M52.574,42.147
		c-5.75,0-10.427,4.677-10.427,10.426S46.824,63,52.574,63C58.323,63,63,58.322,63,52.573S58.323,42.147,52.574,42.147z
		 M52.574,44.147c1.964,0,3.769,0.681,5.203,1.812l-1.286,1.286c-1.099-0.81-2.451-1.295-3.917-1.295
		c-3.652,0-6.624,2.971-6.624,6.623c0,1.467,0.485,2.819,1.295,3.918l-1.286,1.286c-1.131-1.435-1.812-3.24-1.812-5.204
		C44.147,47.928,47.927,44.147,52.574,44.147z M47.95,52.573c0-2.549,2.074-4.623,4.624-4.623s4.623,2.074,4.623,4.623
		c0,2.55-2.074,4.624-4.623,4.624S47.95,55.123,47.95,52.573z M52.574,61c-1.963,0-3.766-0.68-5.2-1.809l1.286-1.286
		c1.098,0.809,2.449,1.293,3.914,1.293c3.652,0,6.623-2.972,6.623-6.624c0-1.465-0.484-2.816-1.292-3.914l1.286-1.286
		C60.32,48.807,61,50.611,61,52.573C61,57.22,57.22,61,52.574,61z M52.574,53.573c-0.552,0-1-0.447-1-1v-2.679c0-0.553,0.448-1,1-1
		s1,0.447,1,1v1.679h0.753c0.552,0,1,0.447,1,1s-0.448,1-1,1H52.574z"/></g><g display="none"><path d="M41.154,27.46h3.027c1.014,0,1.906,0.389,2.455,1.072c1.294,1.588,3.206,2.498,5.245,2.498
		c1.885,0,3.7-0.793,4.978-2.177c1.115-1.207,1.732-2.73,1.785-4.351c0.892-0.414,1.588-1.195,1.841-2.163
		c0.303-1.157-0.001-2.338-0.765-3.178l1.992-3.338c2.01-3.368,1.665-7.478-0.878-10.471c-2.357-2.776-6.375-3.831-9.994-2.618
		l-7.218,2.412c-0.955,0.32-2.032,0.066-2.808-0.66C38.413,2.238,35.283,1,32,1s-6.413,1.238-8.813,3.487
		c-0.776,0.727-1.852,0.981-2.809,0.66l-7.217-2.412c-3.619-1.21-7.635-0.157-9.994,2.618c-2.543,2.993-2.888,7.103-0.878,10.471
		l1.992,3.338c-0.764,0.84-1.068,2.021-0.765,3.179c0.254,0.967,0.949,1.749,1.841,2.162c0.053,1.621,0.67,3.144,1.785,4.35
		c1.278,1.384,3.092,2.177,4.978,2.177c2.039,0,3.95-0.91,5.25-2.504c0.543-0.678,1.436-1.066,2.45-1.066h3.026
		c0.151,0.226,0.306,0.447,0.467,0.662c-0.503,1.284-0.773,2.553-0.773,3.778c0,2.796,1.502,4.46,2.598,5.675
		c0.597,0.661,1.112,1.231,1.112,1.675v3.81c0,3.171,2.58,5.75,5.75,5.75s5.75-2.579,5.75-5.75v-3.81
		c0-0.443,0.515-1.014,1.112-1.675c1.096-1.215,2.598-2.879,2.598-5.675c0-1.225-0.27-2.494-0.773-3.779
		C40.847,27.906,41.003,27.686,41.154,27.46z M51.88,29.03c-1.435,0-2.782-0.643-3.689-1.756c-0.925-1.153-2.387-1.814-4.01-1.814
		h-1.878c0.381-0.767,0.719-1.565,1.012-2.38h0.735c1.68,0,3.201-0.68,4.169-1.861c0.29-0.349,0.634-0.646,1.009-0.896
		c0.267,0.364,0.599,0.682,0.998,0.918c-0.042,0.655,0.122,1.293,0.493,1.904c0.569,0.939,1.513,1.567,2.524,1.68
		c0.773,0.088,1.529-0.089,2.168-0.49c0.369,0.229,0.778,0.371,1.202,0.445c-0.106,1.011-0.522,1.954-1.225,2.716
		C54.488,28.472,53.209,29.03,51.88,29.03z M48.646,17.554c-0.061,0.277-0.078,0.551-0.072,0.821
		c-0.719,0.399-1.365,0.931-1.896,1.571c-0.583,0.71-1.565,1.134-2.627,1.134h-0.111c0.674-2.49,0.984-5.017,0.984-7.172
		c0-0.399,0.253-0.752,0.632-0.879l8.114-2.712c0.151-0.05,0.614-0.205,1.021,0.299c0.407,0.507,0.157,0.926,0.075,1.063
		l-1.99,3.336c-0.604-0.151-1.237-0.132-1.851,0.064C49.794,15.438,48.9,16.409,48.646,17.554z M4.007,14.799
		c-1.564-2.621-1.295-5.82,0.685-8.15c1.834-2.16,4.983-2.971,7.835-2.017l7.217,2.412c1.657,0.554,3.498,0.133,4.81-1.098
		C26.583,4.047,29.227,3,32,3s5.417,1.047,7.446,2.946c1.312,1.229,3.154,1.649,4.81,1.098l7.217-2.412
		c2.852-0.954,6.002-0.143,7.835,2.017c1.98,2.33,2.25,5.529,0.685,8.15l-2.429,4.07c-0.283,0.475-0.128,1.088,0.346,1.371
		c0.421,0.252,0.841,0.82,0.639,1.593c-0.116,0.441-0.468,0.811-0.898,0.942c-0.804,0.246-1.313-0.199-1.496-0.402
		c-0.189-0.212-0.46-0.333-0.745-0.333s-0.555,0.121-0.745,0.332c-0.31,0.346-0.746,0.516-1.202,0.465
		c-0.393-0.043-0.789-0.322-1.034-0.727c-0.234-0.388-0.27-0.717-0.122-1.135c0.094-0.265,0.072-0.556-0.06-0.804
		c-0.131-0.247-0.361-0.429-0.633-0.498c-0.638-0.165-1.211-0.812-1.018-1.687c0.101-0.454,0.475-0.856,0.932-1.001
		c0.402-0.129,0.789-0.083,1.152,0.135c0.227,0.136,0.499,0.176,0.757,0.111c0.258-0.064,0.479-0.229,0.615-0.457l2.429-4.07
		c0.654-1.097,0.566-2.346-0.234-3.343c-0.801-0.993-2.002-1.346-3.213-0.941l-8.114,2.712c-1.197,0.399-2,1.516-1.998,2.79
		c0,6.506-2.965,16.827-10.923,16.827S21.077,20.429,21.077,13.91c0.001-1.262-0.801-2.378-1.998-2.777l-8.115-2.712
		c-0.33-0.11-0.66-0.164-0.98-0.164c-0.856,0-1.65,0.384-2.234,1.107c-0.8,0.995-0.887,2.244-0.233,3.341l2.429,4.07
		c0.136,0.228,0.357,0.393,0.615,0.457c0.258,0.065,0.53,0.025,0.757-0.111c0.363-0.219,0.752-0.264,1.154-0.135
		c0.455,0.145,0.829,0.547,0.93,1.001c0.194,0.874-0.379,1.521-1.018,1.687c-0.271,0.069-0.501,0.251-0.633,0.498
		c-0.132,0.248-0.153,0.539-0.06,0.804c0.148,0.418,0.113,0.747-0.122,1.135c-0.245,0.404-0.642,0.684-1.035,0.727
		c-0.452,0.053-0.891-0.118-1.201-0.465c-0.38-0.422-1.11-0.423-1.489,0.001c-0.182,0.201-0.693,0.647-1.497,0.402
		c-0.429-0.132-0.781-0.501-0.897-0.941c-0.202-0.773,0.218-1.342,0.639-1.594c0.474-0.283,0.628-0.896,0.346-1.371L4.007,14.799z
		 M15.354,17.554c-0.254-1.145-1.148-2.115-2.276-2.474c-0.615-0.195-1.249-0.216-1.853-0.064l-1.99-3.336
		c-0.082-0.138-0.332-0.557,0.074-1.062c0.407-0.507,0.87-0.351,1.022-0.301l8.114,2.712c0.378,0.127,0.632,0.479,0.632,0.894
		c0,2.149,0.309,4.671,0.982,7.157H19.95c-1.062,0-2.044-0.424-2.631-1.139c-0.528-0.636-1.174-1.168-1.892-1.566
		C15.432,18.104,15.415,17.83,15.354,17.554z M24.444,14.758v-1.146c0-0.553,0.448-1,1-1s1,0.447,1,1v1.146c0,0.553-0.448,1-1,1
		S24.444,15.311,24.444,14.758z M37.556,14.758v-1.146c0-0.553,0.448-1,1-1s1,0.447,1,1v1.146c0,0.553-0.448,1-1,1
		S37.556,15.311,37.556,14.758z M34.882,50.945c-0.295,0-0.576,0.131-0.766,0.357c-0.651,0.775-3.899,4.76-3.899,7.032
		c0,2.572,2.093,4.665,4.665,4.665s4.665-2.093,4.665-4.665c0-2.272-3.248-6.257-3.898-7.032
		C35.458,51.076,35.177,50.945,34.882,50.945z M25.896,49.373c-0.609,0.725-2.596,3.212-2.596,4.761
		c0,1.854,1.508,3.362,3.362,3.362c1.854,0,3.362-1.509,3.362-3.362c0-1.549-1.987-4.036-2.597-4.761
		C27.048,48.92,26.277,48.92,25.896,49.373z M29.55,17.686c0-0.553,0.448-1,1-1h2.9c0.552,0,1,0.447,1,1s-0.448,1-1,1h-2.9
		C29.998,18.686,29.55,18.238,29.55,17.686z M52.574,42.147c-5.75,0-10.427,4.677-10.427,10.426S46.824,63,52.574,63
		C58.323,63,63,58.322,63,52.573S58.323,42.147,52.574,42.147z M45.959,57.777c-1.131-1.435-1.812-3.24-1.812-5.204
		c0-4.646,3.78-8.426,8.427-8.426c1.964,0,3.769,0.681,5.203,1.812l-1.286,1.286c-1.099-0.81-2.451-1.295-3.917-1.295
		c-3.652,0-6.624,2.971-6.624,6.623c0,1.467,0.485,2.819,1.295,3.918L45.959,57.777z M54.327,51.573c0.552,0,1,0.447,1,1
		s-0.448,1-1,1h-1.753c-0.552,0-1-0.447-1-1v-2.679c0-0.553,0.448-1,1-1s1,0.447,1,1v1.679H54.327z M52.574,61
		c-1.963,0-3.766-0.68-5.2-1.809l1.286-1.286c1.098,0.809,2.449,1.293,3.914,1.293c3.652,0,6.623-2.972,6.623-6.624
		c0-1.465-0.484-2.816-1.292-3.914l1.286-1.286C60.32,48.807,61,50.611,61,52.573C61,57.22,57.22,61,52.574,61z"/></g><g display="none"><path fill="#F9D3C8" d="M51.156,3.684l-7.217,2.412c-1.334,0.446-2.782,0.083-3.809-0.879
		C38.001,3.224,35.146,2,32,2s-6.001,1.224-8.129,3.217c-1.027,0.962-2.475,1.325-3.809,0.879l-7.217-2.412
		C9.676,2.625,6.092,3.455,3.93,6.001c-2.256,2.655-2.557,6.336-0.782,9.311l2.429,4.07c-0.87,0.52-1.392,1.563-1.093,2.705
		c0.202,0.771,0.81,1.412,1.573,1.645c0.107,0.033,0.213,0.055,0.318,0.073c-0.264,3.391,2.405,6.225,5.74,6.225
		c1.806,0,3.416-0.831,4.472-2.131c0.777-0.957,1.997-1.443,3.229-1.443h3.566c0.328,0.531,0.684,1.037,1.068,1.511
		c-0.543,1.234-0.91,2.567-0.91,3.935c0,4.098,3.708,5.334,3.708,7.351v3.805c0,2.624,2.127,4.751,4.751,4.751
		s4.751-2.127,4.751-4.751v-3.805c0-2.017,3.708-3.253,3.708-7.351c0-1.368-0.367-2.701-0.91-3.935
		c0.384-0.474,0.74-0.98,1.068-1.511h3.566c1.233,0,2.452,0.486,3.229,1.443c1.056,1.3,2.666,2.131,4.472,2.131
		c3.335,0,6.004-2.834,5.74-6.225c0.105-0.018,0.211-0.04,0.318-0.073c0.763-0.233,1.371-0.874,1.573-1.645
		c0.299-1.142-0.223-2.184-1.093-2.705l2.429-4.07c1.775-2.975,1.474-6.656-0.782-9.311C57.908,3.455,54.324,2.625,51.156,3.684z
		 M19.951,22.078c-1.294,0-2.578-0.499-3.406-1.495c-0.587-0.706-1.346-1.259-2.205-1.621c0.104-0.37,0.131-0.772,0.038-1.193
		c-0.18-0.81-0.813-1.486-1.604-1.737c-0.734-0.234-1.417-0.1-1.969,0.23l-2.429-4.07C7.754,11.15,8.277,10.305,8.53,9.99
		c0.254-0.315,0.97-1.004,2.118-0.621l8.114,2.712c0.786,0.263,1.316,0.999,1.315,1.828v0.014c0,2.364,0.402,5.327,1.321,8.156
		H19.951z M47.455,20.584c-0.828,0.995-2.112,1.495-3.406,1.495h-1.448c0.92-2.829,1.321-5.792,1.321-8.156v-0.014
		c-0.001-0.829,0.529-1.565,1.315-1.828l8.114-2.712C54.5,8.986,55.216,9.676,55.47,9.99c0.253,0.315,0.776,1.16,0.154,2.202
		l-2.429,4.07c-0.551-0.33-1.234-0.463-1.969-0.23c-0.791,0.252-1.424,0.927-1.604,1.737c-0.094,0.421-0.066,0.823,0.038,1.193
		C48.801,19.324,48.042,19.877,47.455,20.584z M35.426,52.623c1.021,1.306,3.121,4.18,3.121,5.713c0,2.024-1.641,3.665-3.665,3.665
		c-2.024,0-3.665-1.641-3.665-3.665c0-1.532,2.1-4.406,3.121-5.713C34.615,52.268,35.149,52.268,35.426,52.623z M27.213,50.711
		c0.698,0.919,1.812,2.527,1.812,3.423c0,1.304-1.057,2.362-2.362,2.362s-2.362-1.057-2.362-2.362c0-0.896,1.114-2.504,1.812-3.423
		C26.39,50.346,26.936,50.346,27.213,50.711z M58.197,52.574c0,3.106-2.518,5.623-5.623,5.623s-5.623-2.518-5.623-5.623
		c0-3.106,2.518-5.623,5.623-5.623S58.197,49.468,58.197,52.574z"/><path fill="#F48B7F" d="M41.154,27.46h3.027c1.014,0,1.906,0.389,2.455,1.072
		c1.294,1.588,3.206,2.498,5.245,2.498c1.885,0,3.7-0.793,4.978-2.177c1.115-1.207,1.732-2.73,1.785-4.351
		c0.892-0.414,1.588-1.195,1.841-2.163c0.303-1.157-0.001-2.338-0.765-3.178l1.992-3.338c2.01-3.368,1.665-7.478-0.878-10.471
		c-2.357-2.776-6.375-3.831-9.994-2.618l-7.218,2.412c-0.955,0.32-2.032,0.066-2.808-0.66C38.413,2.238,35.283,1,32,1
		s-6.413,1.238-8.813,3.487c-0.776,0.727-1.852,0.981-2.809,0.66l-7.217-2.412c-3.619-1.21-7.635-0.157-9.994,2.618
		c-2.543,2.993-2.888,7.103-0.878,10.471l1.992,3.338c-0.764,0.84-1.068,2.021-0.765,3.179c0.254,0.967,0.949,1.749,1.841,2.162
		c0.053,1.621,0.67,3.144,1.785,4.35c1.278,1.384,3.092,2.177,4.978,2.177c2.039,0,3.95-0.91,5.25-2.504
		c0.543-0.678,1.436-1.066,2.45-1.066h3.026c0.151,0.226,0.306,0.447,0.467,0.662c-0.503,1.284-0.773,2.553-0.773,3.778
		c0,2.796,1.502,4.46,2.598,5.675c0.597,0.661,1.112,1.231,1.112,1.675v3.81c0,3.171,2.58,5.75,5.75,5.75s5.75-2.579,5.75-5.75
		v-3.81c0-0.443,0.515-1.014,1.112-1.675c1.096-1.215,2.598-2.879,2.598-5.675c0-1.225-0.27-2.494-0.773-3.779
		C40.847,27.906,41.003,27.686,41.154,27.46z M51.88,29.03c-1.435,0-2.782-0.643-3.689-1.756c-0.925-1.153-2.387-1.814-4.01-1.814
		h-1.878c0.381-0.767,0.719-1.565,1.012-2.38h0.735c1.68,0,3.201-0.68,4.169-1.861c0.29-0.349,0.634-0.646,1.009-0.896
		c0.267,0.364,0.599,0.682,0.998,0.918c-0.042,0.655,0.122,1.293,0.493,1.904c0.569,0.939,1.513,1.567,2.524,1.68
		c0.773,0.088,1.529-0.089,2.168-0.49c0.369,0.229,0.778,0.371,1.202,0.445c-0.106,1.011-0.522,1.954-1.225,2.716
		C54.488,28.472,53.209,29.03,51.88,29.03z M48.646,17.554c-0.061,0.277-0.078,0.551-0.072,0.821
		c-0.719,0.399-1.365,0.931-1.896,1.571c-0.583,0.71-1.565,1.134-2.627,1.134h-0.111c0.674-2.49,0.984-5.017,0.984-7.172
		c0-0.399,0.253-0.752,0.632-0.879l8.114-2.712c0.151-0.05,0.614-0.205,1.021,0.299c0.407,0.507,0.157,0.926,0.075,1.063
		l-1.99,3.336c-0.604-0.151-1.237-0.132-1.851,0.064C49.794,15.438,48.9,16.409,48.646,17.554z M4.007,14.799
		c-1.564-2.621-1.295-5.82,0.685-8.15c1.834-2.16,4.983-2.971,7.835-2.017l7.217,2.412c1.657,0.554,3.498,0.133,4.81-1.098
		C26.583,4.047,29.227,3,32,3s5.417,1.047,7.446,2.946c1.312,1.229,3.154,1.649,4.81,1.098l7.217-2.412
		c2.852-0.954,6.002-0.143,7.835,2.017c1.98,2.33,2.25,5.529,0.685,8.15l-2.429,4.07c-0.283,0.475-0.128,1.088,0.346,1.371
		c0.421,0.252,0.841,0.82,0.639,1.593c-0.116,0.441-0.468,0.811-0.898,0.942c-0.804,0.246-1.313-0.199-1.496-0.402
		c-0.189-0.212-0.46-0.333-0.745-0.333s-0.555,0.121-0.745,0.332c-0.31,0.346-0.746,0.516-1.202,0.465
		c-0.393-0.043-0.789-0.322-1.034-0.727c-0.234-0.388-0.27-0.717-0.122-1.135c0.094-0.265,0.072-0.556-0.06-0.804
		c-0.131-0.247-0.361-0.429-0.633-0.498c-0.638-0.165-1.211-0.812-1.018-1.687c0.101-0.454,0.475-0.856,0.932-1.001
		c0.402-0.129,0.789-0.083,1.152,0.135c0.227,0.136,0.499,0.176,0.757,0.111c0.258-0.064,0.479-0.229,0.615-0.457l2.429-4.07
		c0.654-1.097,0.566-2.346-0.234-3.343c-0.801-0.993-2.002-1.346-3.213-0.941l-8.114,2.712c-1.197,0.399-2,1.516-1.998,2.79
		c0,6.506-2.965,16.827-10.923,16.827S21.077,20.429,21.077,13.91c0.001-1.262-0.801-2.378-1.998-2.777l-8.115-2.712
		c-0.33-0.11-0.66-0.164-0.98-0.164c-0.856,0-1.65,0.384-2.234,1.107c-0.8,0.995-0.887,2.244-0.233,3.341l2.429,4.07
		c0.136,0.228,0.357,0.393,0.615,0.457c0.258,0.065,0.53,0.025,0.757-0.111c0.363-0.219,0.752-0.264,1.154-0.135
		c0.455,0.145,0.829,0.547,0.93,1.001c0.194,0.874-0.379,1.521-1.018,1.687c-0.271,0.069-0.501,0.251-0.633,0.498
		c-0.132,0.248-0.153,0.539-0.06,0.804c0.148,0.418,0.113,0.747-0.122,1.135c-0.245,0.404-0.642,0.684-1.035,0.727
		c-0.452,0.053-0.891-0.118-1.201-0.465c-0.38-0.422-1.11-0.423-1.489,0.001c-0.182,0.201-0.693,0.647-1.497,0.402
		c-0.429-0.132-0.781-0.501-0.897-0.941c-0.202-0.773,0.218-1.342,0.639-1.594c0.474-0.283,0.628-0.896,0.346-1.371L4.007,14.799z
		 M15.354,17.554c-0.254-1.145-1.148-2.115-2.276-2.474c-0.615-0.195-1.249-0.216-1.853-0.064l-1.99-3.336
		c-0.082-0.138-0.332-0.557,0.074-1.062c0.407-0.507,0.87-0.351,1.022-0.301l8.114,2.712c0.378,0.127,0.632,0.479,0.632,0.894
		c0,2.149,0.309,4.671,0.982,7.157H19.95c-1.062,0-2.044-0.424-2.631-1.139c-0.528-0.636-1.174-1.168-1.892-1.566
		C15.432,18.104,15.415,17.83,15.354,17.554z M19.82,25.46c-1.624,0-3.085,0.661-4.005,1.809c-0.913,1.119-2.26,1.762-3.695,1.762
		c-1.329,0-2.608-0.559-3.508-1.534c-0.704-0.761-1.119-1.704-1.225-2.715c0.424-0.074,0.833-0.216,1.201-0.446
		c0.64,0.401,1.396,0.578,2.168,0.49c1.012-0.112,1.957-0.74,2.525-1.68c0.371-0.611,0.535-1.249,0.493-1.904
		c0.399-0.236,0.731-0.554,0.998-0.918c0.375,0.249,0.718,0.545,1.005,0.891c0.973,1.187,2.494,1.866,4.173,1.866h0.734
		c0.293,0.815,0.631,1.612,1.012,2.38H19.82z M37.377,36.235c-0.836,0.927-1.627,1.803-1.627,3.015v3.81
		c0,2.067-1.682,3.75-3.75,3.75s-3.75-1.683-3.75-3.75v-3.81c0-1.212-0.791-2.088-1.627-3.015c-1.024-1.135-2.083-2.309-2.083-4.335
		c0-0.661,0.107-1.346,0.298-2.045c1.861,1.769,4.224,2.895,7.162,2.895c2.939,0,5.302-1.125,7.162-2.895
		c0.19,0.699,0.298,1.384,0.298,2.045C39.46,33.927,38.401,35.101,37.377,36.235z M24.444,14.758v-1.146c0-0.553,0.448-1,1-1
		s1,0.447,1,1v1.146c0,0.553-0.448,1-1,1S24.444,15.311,24.444,14.758z M37.556,14.758v-1.146c0-0.553,0.448-1,1-1s1,0.447,1,1
		v1.146c0,0.553-0.448,1-1,1S37.556,15.311,37.556,14.758z M34.882,50.945c-0.295,0-0.576,0.131-0.766,0.357
		c-0.651,0.775-3.899,4.76-3.899,7.032c0,2.572,2.093,4.665,4.665,4.665s4.665-2.093,4.665-4.665c0-2.272-3.248-6.257-3.898-7.032
		C35.458,51.076,35.177,50.945,34.882,50.945z M34.882,61c-1.47,0-2.665-1.195-2.665-2.665c0-0.947,1.381-3.109,2.665-4.788
		c1.284,1.679,2.665,3.841,2.665,4.788C37.546,59.805,36.351,61,34.882,61z M25.896,49.373c-0.609,0.725-2.596,3.212-2.596,4.761
		c0,1.854,1.508,3.362,3.362,3.362c1.854,0,3.362-1.509,3.362-3.362c0-1.549-1.987-4.036-2.597-4.761
		C27.048,48.92,26.277,48.92,25.896,49.373z M26.663,55.496c-0.751,0-1.362-0.611-1.362-1.362c0-0.382,0.582-1.422,1.362-2.494
		c0.781,1.073,1.362,2.112,1.362,2.494C28.025,54.885,27.414,55.496,26.663,55.496z M29.55,17.686c0-0.553,0.448-1,1-1h2.9
		c0.552,0,1,0.447,1,1s-0.448,1-1,1h-2.9C29.998,18.686,29.55,18.238,29.55,17.686z M52.574,42.147
		c-5.75,0-10.427,4.677-10.427,10.426S46.824,63,52.574,63C58.323,63,63,58.322,63,52.573S58.323,42.147,52.574,42.147z
		 M52.574,44.147c1.964,0,3.769,0.681,5.203,1.812l-1.286,1.286c-1.099-0.81-2.451-1.295-3.917-1.295
		c-3.652,0-6.624,2.971-6.624,6.623c0,1.467,0.485,2.819,1.295,3.918l-1.286,1.286c-1.131-1.435-1.812-3.24-1.812-5.204
		C44.147,47.928,47.927,44.147,52.574,44.147z M47.95,52.573c0-2.549,2.074-4.623,4.624-4.623s4.623,2.074,4.623,4.623
		c0,2.55-2.074,4.624-4.623,4.624S47.95,55.123,47.95,52.573z M52.574,61c-1.963,0-3.766-0.68-5.2-1.809l1.286-1.286
		c1.098,0.809,2.449,1.293,3.914,1.293c3.652,0,6.623-2.972,6.623-6.624c0-1.465-0.484-2.816-1.292-3.914l1.286-1.286
		C60.32,48.807,61,50.611,61,52.573C61,57.22,57.22,61,52.574,61z M52.574,53.573c-0.552,0-1-0.447-1-1v-2.679c0-0.553,0.448-1,1-1
		s1,0.447,1,1v1.679h0.753c0.552,0,1,0.447,1,1s-0.448,1-1,1H52.574z"/></g></svg>