<svg xmlns="http://www.w3.org/2000/svg" enable-background="new 0 0 512 512" viewBox="0 0 512 512"><path fill="#fff" d="M487.619,195.045l-463.238-0.001v255.999c0,20.166,16.406,36.571,36.571,36.571h390.095
		c20.166,0,36.571-16.406,36.571-36.571V195.045z M348.461,367.194c-8.609,14.842-20.523,29.722-35.41,44.228
		c-25.002,24.362-49.739,39.302-50.78,39.927c-1.929,1.157-4.099,1.735-6.269,1.735c-2.17,0-4.34-0.579-6.27-1.736
		c-1.041-0.624-25.776-15.565-50.776-39.927c-14.886-14.505-26.798-29.386-35.407-44.228
		c-11.157-19.234-16.813-38.506-16.813-57.279c0-8.844,1.735-17.431,5.157-25.52c3.302-7.808,8.027-14.817,14.044-20.833
		c6.016-6.016,13.026-10.742,20.833-14.044c8.09-3.422,16.676-5.157,25.52-5.157c10.718,0,21.357,2.654,30.766,7.675
		c4.658,2.486,9.013,5.546,12.95,9.079c3.937-3.533,8.292-6.594,12.95-9.079c9.409-5.021,20.048-7.675,30.766-7.675
		c8.844,0,17.431,1.735,25.52,5.157c7.808,3.302,14.817,8.027,20.833,14.044c6.016,6.016,10.741,13.026,14.044,20.833
		c3.422,8.09,5.157,16.676,5.157,25.52C365.276,328.688,359.619,347.96,348.461,367.194z"/><path fill="#ffe9ef" d="M24.381,170.663l463.238,0.001V109.71c0-20.166-16.406-36.571-36.571-36.571h-85.333v36.571
		c0,6.733-5.458,12.19-12.19,12.19c-6.733,0-12.19-5.458-12.19-12.19V73.139H170.668v36.571c0,6.733-5.458,12.19-12.19,12.19
		c-6.733,0-12.19-5.458-12.19-12.19V73.139H60.952c-20.166,0-36.571,16.406-36.571,36.571V170.663z"/><path fill="#ff6e86" d="M512,109.71c0-8.223-1.613-16.207-4.795-23.729c-3.071-7.26-7.464-13.777-13.058-19.371
		c-5.594-5.594-12.111-9.987-19.371-13.058c-7.522-3.182-15.506-4.795-23.729-4.795h-85.333V12.195c0-6.733-5.458-12.19-12.19-12.19
		c-6.733,0-12.19,5.458-12.19,12.19v36.563H170.668V12.195c0-6.733-5.458-12.19-12.19-12.19s-12.19,5.458-12.19,12.19v36.563H60.952
		c-8.223,0-16.207,1.613-23.729,4.795c-7.26,3.071-13.777,7.464-19.371,13.058c-5.594,5.594-9.987,12.111-13.058,19.371
		C1.613,93.504,0,101.487,0,109.71v73.143c0,0,0,0,0,0v268.19c0,8.223,1.613,16.207,4.795,23.729
		c3.071,7.26,7.464,13.777,13.058,19.371c5.594,5.594,12.111,9.987,19.371,13.058c7.522,3.182,15.506,4.795,23.729,4.795h390.095
		c8.223,0,16.207-1.613,23.729-4.794c7.26-3.071,13.777-7.464,19.371-13.058c5.594-5.594,9.987-12.111,13.058-19.371
		c3.182-7.522,4.795-15.506,4.795-23.729V182.865c0-0.003,0-0.007,0-0.01L512,109.71L512,109.71z M451.047,487.615H60.952
		c-20.166,0-36.571-16.406-36.571-36.571V195.044l463.238,0.001v255.998C487.619,471.209,471.213,487.615,451.047,487.615z
		 M60.952,73.139h85.335v36.571c0,6.733,5.458,12.19,12.19,12.19c6.733,0,12.19-5.458,12.19-12.19V73.139h170.665v36.571
		c0,6.733,5.458,12.19,12.19,12.19c6.733,0,12.19-5.458,12.19-12.19V73.139h85.333c20.166,0,36.571,16.406,36.571,36.571v60.954
		l-463.238-0.001V109.71C24.381,89.545,40.787,73.139,60.952,73.139z"/><path fill="#ffe9ef" d="M299.723,268.742c-13.398,0-26.007,6.585-33.73,17.615c-2.281,3.258-6.009,5.199-9.986,5.199
		c-3.978,0-7.705-1.941-9.986-5.199c-7.723-11.03-20.332-17.615-33.73-17.615c-22.703,0-41.173,18.47-41.173,41.173
		c0,33.198,24.203,63.843,44.507,83.705c15.812,15.468,31.84,27.015,40.378,32.761c8.535-5.744,24.566-17.291,40.382-32.762
		c20.305-19.862,44.511-50.507,44.511-83.705C340.896,287.212,322.426,268.742,299.723,268.742z"/><path fill="#ff6e86" d="M346.076,263.561c-6.016-6.016-13.026-10.742-20.833-14.044c-8.089-3.422-16.676-5.157-25.52-5.157
		c-10.718,0-21.357,2.654-30.766,7.675c-4.658,2.486-9.013,5.546-12.95,9.079c-3.937-3.533-8.292-6.594-12.95-9.079
		c-9.409-5.021-20.048-7.675-30.766-7.675c-8.844,0-17.431,1.735-25.52,5.157c-7.808,3.302-14.817,8.027-20.833,14.044
		c-6.016,6.016-10.741,13.026-14.044,20.833c-3.422,8.09-5.157,16.676-5.157,25.52c0,18.773,5.657,38.045,16.813,57.279
		c8.609,14.842,20.521,29.722,35.407,44.228c25,24.362,49.736,39.303,50.776,39.927c1.93,1.157,4.099,1.736,6.269,1.736
		c2.169,0,4.34-0.578,6.269-1.735c1.041-0.624,25.778-15.565,50.78-39.927c14.887-14.506,26.8-29.386,35.41-44.228
		c11.158-19.235,16.815-38.506,16.815-57.28c0-8.844-1.735-17.431-5.157-25.52C356.817,276.587,352.093,269.578,346.076,263.561z
		 M296.385,393.62c-15.815,15.47-31.846,27.018-40.382,32.762c-8.538-5.746-24.567-17.294-40.378-32.761
		c-20.304-19.862-44.507-50.507-44.507-83.705c0-22.703,18.47-41.173,41.173-41.173c13.398,0,26.007,6.585,33.73,17.615
		c2.281,3.258,6.009,5.199,9.986,5.199c3.978,0,7.705-1.941,9.986-5.199c7.723-11.03,20.332-17.615,33.73-17.615
		c22.703,0,41.173,18.47,41.173,41.173C340.896,343.113,316.69,373.758,296.385,393.62z"/></svg>