<svg width="39" height="39" viewBox="0 0 39 39" fill="none" xmlns="http://www.w3.org/2000/svg">
<circle cx="19.5" cy="19.5" r="18.5" stroke="#86A7E7" stroke-linecap="round" stroke-dasharray="2 5"/>
<path d="M25.8445 14.1555C25.8445 14.1555 25.4119 16.4 22.9057 18.9061C20.3996 21.4123 18.1555 21.8445 18.1555 21.8445M28.4075 24.4075C26.2843 26.5308 22.8418 26.5308 20.7185 24.4075L15.5925 19.2815C13.4692 17.1582 13.4692 13.7157 15.5925 11.5925C17.7157 9.46918 21.1582 9.46918 23.2815 11.5925L28.4075 16.7185C30.5308 18.8418 30.5308 22.2843 28.4075 24.4075Z" stroke="#3D84D6" stroke-width="1.5"/>
<path d="M22.5 14.5L21 13" stroke="#3D84D6" stroke-width="1.5" stroke-linecap="round"/>
<path d="M14.7302 18.1345C12.0264 18.7171 10 21.1219 10 23.9999C10 27.3136 12.6863 29.9999 16 29.9999C18.8911 29.9999 21.3046 27.9551 21.8732 25.2328" stroke="#3D84D6" stroke-width="1.5"/>
</svg>
