<?xml version="1.0" encoding="UTF-8"?>
<svg version="1.1" xmlns="http://www.w3.org/2000/svg" width="512" height="512">
<path d="M0 0 C1.56519044 -0.00679667 1.56519044 -0.00679667 3.16200089 -0.01373065 C6.65787067 -0.02638909 10.15358494 -0.02475331 13.6494751 -0.02310181 C16.15627238 -0.02908617 18.66306783 -0.03589151 21.16986084 -0.04345703 C27.27249603 -0.05929801 33.37507428 -0.06556587 39.4777281 -0.06668179 C44.44031969 -0.0676331 49.40289857 -0.07174757 54.36548615 -0.07808304 C68.44579435 -0.09569182 82.5260721 -0.10492258 96.6063914 -0.10342209 C97.36504261 -0.10334218 98.12369383 -0.10326227 98.90533447 -0.10317993 C100.04470637 -0.10305729 100.04470637 -0.10305729 101.20709589 -0.10293217 C113.5122778 -0.10211958 125.81733721 -0.12125145 138.1224837 -0.14945666 C150.76756942 -0.17821154 163.41259546 -0.1919955 176.0577147 -0.19026911 C183.15284541 -0.18960606 190.24784772 -0.19506075 197.34294891 -0.21662521 C204.01770419 -0.23678256 210.69214382 -0.23613676 217.3669281 -0.22159195 C219.81382391 -0.21950183 222.26073665 -0.22421679 224.70760345 -0.23631287 C228.05408417 -0.25178186 231.39963266 -0.24244517 234.74609375 -0.22705078 C235.70895538 -0.23733791 236.67181701 -0.24762503 237.66385627 -0.25822389 C246.59235638 -0.16777857 254.49000252 2.39476844 261.09576416 8.56430054 C267.55879488 15.75277348 269.73401454 22.77357408 269.62701416 32.26742554 C270.66599854 32.22101929 271.70498291 32.17461304 272.77545166 32.12680054 C283.779552 31.78065162 292.68298902 32.70708602 301.09576416 40.56430054 C307.97194039 48.21229247 309.92869295 55.97331567 309.8944397 66.03971863 C309.89897081 67.01854765 309.90350192 67.99737667 309.90817034 69.00586718 C309.92082192 72.28296143 309.91919346 75.55988966 309.9175415 78.83700562 C309.92352627 81.18779209 309.93033169 83.5385766 309.93789673 85.88935852 C309.95556906 92.27371193 309.96025263 98.65801174 309.9615283 105.04238725 C309.96318825 109.70094047 309.96898743 114.35948175 309.97520126 119.01803076 C309.99180615 131.54863471 309.99928638 144.07921026 309.99786179 156.60982481 C309.99778188 157.32094682 309.99770196 158.03206883 309.99761963 158.76473999 C309.99753787 159.47673373 309.99745611 160.18872747 309.99737187 160.92229678 C309.99655913 172.4586411 310.01569509 183.9948548 310.04389636 195.53116135 C310.07264773 207.38636415 310.08643542 219.24150331 310.08470881 231.09674186 C310.08404568 237.74861906 310.08989464 244.40037588 310.11106491 251.05222511 C310.13043472 257.30919977 310.13058004 263.56588538 310.11603165 269.82287025 C310.11394093 272.11699343 310.11866004 274.41113464 310.13075256 276.7052269 C310.14621319 279.84188401 310.13689073 282.97754549 310.12149048 286.11418152 C310.1317776 287.01770082 310.14206473 287.92122012 310.15266359 288.85211879 C310.05053652 298.2928425 306.12050024 306.44628649 299.62701416 313.26742554 C291.74355463 319.47959165 284.18859528 320.56618474 274.38922119 320.58627319 C273.26668442 320.59631882 272.14414764 320.60636444 270.9875946 320.61671448 C267.28667704 320.64754216 263.58583181 320.66458076 259.88482666 320.68148804 C257.31506732 320.70019998 254.74531412 320.71977341 252.17556763 320.74017334 C246.10903852 320.78625506 240.04251303 320.82366429 233.97590148 320.85684621 C227.06652563 320.8951236 220.1572431 320.94451896 213.24794602 320.99483037 C199.04103918 321.09803261 184.83406913 321.18733092 170.62701416 321.26742554 C170.83999146 321.82674774 171.05296875 322.38606995 171.2723999 322.96234131 C173.48230092 328.76793729 175.68760014 334.57526581 177.89019775 340.38363647 C178.71355426 342.55303296 179.53809534 344.72198023 180.36383057 346.89047241 C181.54840548 350.00193689 182.7287538 353.11497573 183.90826416 356.22836304 C184.28011841 357.20236053 184.65197266 358.17635803 185.03509521 359.17987061 C185.54562439 360.53104477 185.54562439 360.53104477 186.06646729 361.90951538 C186.36847046 362.70449432 186.67047363 363.49947327 186.98162842 364.31854248 C187.62701416 366.26742554 187.62701416 366.26742554 187.62701416 368.26742554 C193.56701416 368.26742554 199.50701416 368.26742554 205.62701416 368.26742554 C205.62701416 373.54742554 205.62701416 378.82742554 205.62701416 384.26742554 C181.86701416 384.26742554 158.10701416 384.26742554 133.62701416 384.26742554 C133.62701416 394.82742554 133.62701416 405.38742554 133.62701416 416.26742554 C130.98701416 416.26742554 128.34701416 416.26742554 125.62701416 416.26742554 C125.62701416 421.54742554 125.62701416 426.82742554 125.62701416 432.26742554 C169.84701416 432.26742554 214.06701416 432.26742554 259.62701416 432.26742554 C259.864704 421.86493098 259.864704 421.86493098 255.62701416 418.26742554 C252.47267168 417.10946621 249.3700675 417.11472593 246.0322876 417.06210327 C244.91142761 417.04215805 243.79056763 417.02221283 242.63574219 417.00166321 C241.43145569 416.98495071 240.22716919 416.96823822 238.98638916 416.95101929 C237.13041107 416.91984764 237.13041107 416.91984764 235.23693848 416.88804626 C231.95562725 416.83376681 228.67428683 416.78350775 225.3928833 416.73519897 C222.04118312 416.68486461 218.68957696 416.62916193 215.33795166 416.57406616 C208.76770737 416.46698041 202.19739615 416.36568428 195.62701416 416.26742554 C195.62701416 410.98742554 195.62701416 405.70742554 195.62701416 400.26742554 C203.83342099 400.17680093 212.03943416 400.10352439 220.24620819 400.06017685 C224.05757851 400.03936474 227.86858662 400.01116557 231.67974854 399.96566772 C235.3626508 399.92197975 239.04520624 399.89824054 242.72834778 399.88791656 C244.12849888 399.88056604 245.52863252 399.86621256 246.92863464 399.84450531 C255.94423541 399.71036652 262.49871958 399.94514975 269.61529541 405.94320679 C276.66586191 414.65762378 277.0429279 421.16098838 276.62701416 432.26742554 C277.61701416 432.22101929 278.60701416 432.17461304 279.62701416 432.12680054 C288.10877208 431.84432588 294.83120919 431.82360625 301.33013916 437.84555054 C307.22416098 444.19736046 309.28514866 450.58647067 309.03717041 459.20101929 C308.02711048 466.75241969 304.31159711 472.37238654 298.47076416 477.11117554 C293.75345155 480.06949022 289.48547939 480.5589166 284.01397705 480.53485107 C282.87589096 480.54164774 282.87589096 480.54164774 281.71481323 480.54858172 C279.1763701 480.56122591 276.63814152 480.55960531 274.09967041 480.55795288 C272.27768173 480.56393839 270.45569558 480.570744 268.63371277 480.57830811 C263.68493314 480.59597974 258.73622268 480.60066417 253.78741455 480.60193968 C250.69186689 480.60336196 247.59633676 480.60763317 244.50079346 480.61293411 C233.69015387 480.63144304 222.8795636 480.63960424 212.06890869 480.63803101 C202.01187393 480.63683157 191.95505448 480.65789273 181.89807415 480.68951833 C173.25069774 480.71573628 164.60339135 480.72639589 155.95597553 480.72512019 C150.79734546 480.72461188 145.63890645 480.73022129 140.48031616 480.75147629 C135.62109723 480.77095 130.76224966 480.77092106 125.90301704 480.75644302 C124.1282045 480.75436463 122.35336817 480.75899739 120.57859612 480.77116394 C109.02852859 480.84515631 98.9809318 479.98915823 88.45010376 474.65962791 C85.34343509 473.12757895 83.23231606 472.84821322 79.79107666 472.75570679 C78.7276001 472.72025757 77.66412354 472.68480835 76.56842041 472.64828491 C75.47400635 472.62572632 74.37959229 472.60316772 73.25201416 472.57992554 C72.13439697 472.54576538 71.01677979 472.51160522 69.86529541 472.47640991 C67.11930194 472.39426481 64.37361434 472.32500425 61.62701416 472.26742554 C61.62701416 474.90742554 61.62701416 477.54742554 61.62701416 480.26742554 C34.66265336 480.36089558 7.69831686 480.43141793 -19.26617336 480.47467422 C-31.78645178 480.49529333 -44.30662949 480.52340165 -56.82684326 480.56918335 C-67.7403411 480.60907085 -78.653766 480.63486309 -89.56733471 480.64377952 C-95.34520279 480.64899097 -101.12286221 480.66122658 -106.90066338 480.69034576 C-112.34169194 480.71754487 -117.78242637 480.72586134 -123.22351646 480.71985626 C-125.21771087 480.72095448 -127.21191536 480.7288814 -129.20605087 480.74424744 C-131.93579521 480.7642457 -134.66443927 480.75932901 -137.39421082 480.7484436 C-138.17731249 480.76009497 -138.96041416 480.77174634 -139.76724619 480.78375077 C-148.78658417 480.6870032 -156.89648276 476.43283022 -163.37298584 470.26742554 C-168.02245966 464.36707805 -170.61918503 458.1369465 -170.63025475 450.55951309 C-170.63670364 449.43904721 -170.64315253 448.31858132 -170.64979684 447.16416192 C-170.64669964 445.94335671 -170.64360244 444.7225515 -170.64041138 443.4647522 C-170.64494249 442.15994455 -170.6494736 440.8551369 -170.65414202 439.51078963 C-170.66636317 435.89512273 -170.66611261 432.27954841 -170.66375327 428.66386557 C-170.66334488 424.76188834 -170.67438645 420.85994071 -170.68386841 416.95797729 C-170.70047481 409.31528815 -170.7059778 401.67262986 -170.70709316 394.02992418 C-170.70804386 387.81638003 -170.71215526 381.60284605 -170.71849442 375.38930511 C-170.73610629 357.76739638 -170.74533344 340.145512 -170.74383347 322.52359441 C-170.74375355 321.57377548 -170.74367364 320.62395655 -170.74359131 319.64535522 C-170.74350955 318.69437461 -170.74342779 317.743394 -170.74334355 316.76359579 C-170.74253079 301.3544918 -170.76166598 285.94548559 -170.78986804 270.53640988 C-170.81860644 254.70921099 -170.83240779 238.88205977 -170.83068049 223.05483413 C-170.83001689 214.1711907 -170.83549592 205.28764976 -170.85703659 196.40402985 C-170.87526103 188.83965005 -170.87958542 181.2754192 -170.86601774 173.71102694 C-170.85949426 169.85353451 -170.85934816 165.99632774 -170.87672424 162.13886261 C-170.89539098 157.95170413 -170.88288429 153.76520504 -170.86746216 149.57803345 C-170.87774928 148.36615113 -170.88803641 147.1542688 -170.89863527 145.90566278 C-170.81993677 136.22922877 -168.81706347 128.01626118 -162.07611084 120.79867554 C-155.07186527 114.50128044 -147.73869022 111.94742938 -138.3480835 112.04037476 C-137.56692169 112.0400827 -136.78575989 112.03979065 -135.98092651 112.03948975 C-133.41618481 112.04087562 -130.85173887 112.05640156 -128.28704834 112.07211304 C-126.5020056 112.07584581 -124.71696081 112.07869154 -122.93191528 112.08068848 C-118.24656461 112.0883041 -113.56133904 112.10793474 -108.8760376 112.13009644 C-104.08988131 112.15059954 -99.30370469 112.15969973 -94.51751709 112.16976929 C-85.13594302 112.19118266 -75.75449444 112.22634786 -66.37298584 112.26742554 C-66.37298584 106.98742554 -66.37298584 101.70742554 -66.37298584 96.26742554 C-69.01298584 96.26742554 -71.65298584 96.26742554 -74.37298584 96.26742554 C-74.47260354 90.75396873 -74.54480494 85.24104725 -74.5927124 79.72689819 C-74.61270447 77.85506044 -74.63990752 75.98328416 -74.67474365 74.11166382 C-75.10354709 50.46441536 -75.10354709 50.46441536 -66.07611084 40.79867554 C-58.91311379 34.35854974 -51.50563753 31.91891835 -41.99798584 32.14242554 C-40.89390381 32.15596069 -40.89390381 32.15596069 -39.76751709 32.16976929 C-37.96919704 32.19312409 -36.17104673 32.22898718 -34.37298584 32.26742554 C-34.40650146 31.0518396 -34.44001709 29.83625366 -34.47454834 28.58383179 C-34.46449009 20.96806009 -31.24129432 14.32907402 -26.07611084 8.79867554 C-18.21970734 1.73512009 -10.31657186 -0.03288026 0 0 Z " fill="#000000" transform="translate(186.37298583984375,15.732574462890625)"/>
<path d="M0 0 C1.56519044 -0.00679667 1.56519044 -0.00679667 3.16200089 -0.01373065 C6.65787067 -0.02638909 10.15358494 -0.02475331 13.6494751 -0.02310181 C16.15627238 -0.02908617 18.66306783 -0.03589151 21.16986084 -0.04345703 C27.27249603 -0.05929801 33.37507428 -0.06556587 39.4777281 -0.06668179 C44.44031969 -0.0676331 49.40289857 -0.07174757 54.36548615 -0.07808304 C68.44579435 -0.09569182 82.5260721 -0.10492258 96.6063914 -0.10342209 C97.36504261 -0.10334218 98.12369383 -0.10326227 98.90533447 -0.10317993 C100.04470637 -0.10305729 100.04470637 -0.10305729 101.20709589 -0.10293217 C113.5122778 -0.10211958 125.81733721 -0.12125145 138.1224837 -0.14945666 C150.76756942 -0.17821154 163.41259546 -0.1919955 176.0577147 -0.19026911 C183.15284541 -0.18960606 190.24784772 -0.19506075 197.34294891 -0.21662521 C204.01770419 -0.23678256 210.69214382 -0.23613676 217.3669281 -0.22159195 C219.81382391 -0.21950183 222.26073665 -0.22421679 224.70760345 -0.23631287 C228.05408417 -0.25178186 231.39963266 -0.24244517 234.74609375 -0.22705078 C235.70895538 -0.23733791 236.67181701 -0.24762503 237.66385627 -0.25822389 C246.59235638 -0.16777857 254.49000252 2.39476844 261.09576416 8.56430054 C267.55879488 15.75277348 269.73401454 22.77357408 269.62701416 32.26742554 C270.66599854 32.22101929 271.70498291 32.17461304 272.77545166 32.12680054 C283.779552 31.78065162 292.68298902 32.70708602 301.09576416 40.56430054 C307.97194039 48.21229247 309.92869295 55.97331567 309.8944397 66.03971863 C309.89897081 67.01854765 309.90350192 67.99737667 309.90817034 69.00586718 C309.92082192 72.28296143 309.91919346 75.55988966 309.9175415 78.83700562 C309.92352627 81.18779209 309.93033169 83.5385766 309.93789673 85.88935852 C309.95556906 92.27371193 309.96025263 98.65801174 309.9615283 105.04238725 C309.96318825 109.70094047 309.96898743 114.35948175 309.97520126 119.01803076 C309.99180615 131.54863471 309.99928638 144.07921026 309.99786179 156.60982481 C309.99778188 157.32094682 309.99770196 158.03206883 309.99761963 158.76473999 C309.99753787 159.47673373 309.99745611 160.18872747 309.99737187 160.92229678 C309.99655913 172.4586411 310.01569509 183.9948548 310.04389636 195.53116135 C310.07264773 207.38636415 310.08643542 219.24150331 310.08470881 231.09674186 C310.08404568 237.74861906 310.08989464 244.40037588 310.11106491 251.05222511 C310.13043472 257.30919977 310.13058004 263.56588538 310.11603165 269.82287025 C310.11394093 272.11699343 310.11866004 274.41113464 310.13075256 276.7052269 C310.14621319 279.84188401 310.13689073 282.97754549 310.12149048 286.11418152 C310.1317776 287.01770082 310.14206473 287.92122012 310.15266359 288.85211879 C310.05053652 298.2928425 306.12050024 306.44628649 299.62701416 313.26742554 C291.74355463 319.47959165 284.18859528 320.56618474 274.38922119 320.58627319 C273.26668442 320.59631882 272.14414764 320.60636444 270.9875946 320.61671448 C267.28667704 320.64754216 263.58583181 320.66458076 259.88482666 320.68148804 C257.31506732 320.70019998 254.74531412 320.71977341 252.17556763 320.74017334 C246.10903852 320.78625506 240.04251303 320.82366429 233.97590148 320.85684621 C227.06652563 320.8951236 220.1572431 320.94451896 213.24794602 320.99483037 C199.04103918 321.09803261 184.83406913 321.18733092 170.62701416 321.26742554 C170.83999146 321.82674774 171.05296875 322.38606995 171.2723999 322.96234131 C173.48230092 328.76793729 175.68760014 334.57526581 177.89019775 340.38363647 C178.71355426 342.55303296 179.53809534 344.72198023 180.36383057 346.89047241 C181.54840548 350.00193689 182.7287538 353.11497573 183.90826416 356.22836304 C184.28011841 357.20236053 184.65197266 358.17635803 185.03509521 359.17987061 C185.54562439 360.53104477 185.54562439 360.53104477 186.06646729 361.90951538 C186.36847046 362.70449432 186.67047363 363.49947327 186.98162842 364.31854248 C187.62701416 366.26742554 187.62701416 366.26742554 187.62701416 368.26742554 C193.56701416 368.26742554 199.50701416 368.26742554 205.62701416 368.26742554 C205.62701416 373.54742554 205.62701416 378.82742554 205.62701416 384.26742554 C181.86701416 384.26742554 158.10701416 384.26742554 133.62701416 384.26742554 C133.61766846 376.8321936 133.60832275 369.39696167 133.59869385 361.73641968 C133.56597078 337.93356032 133.51367437 314.13078515 133.44909321 290.32799274 C133.43907602 286.62933727 133.42923184 282.93068136 133.41949463 279.23202515 C133.41755326 278.49570409 133.41561188 277.75938304 133.41361168 277.00074922 C133.38260927 265.08579228 133.36561595 253.17085459 133.35381994 241.25586493 C133.34139925 229.0256424 133.31387717 216.79552075 133.27240109 204.56536192 C133.24729188 197.02156624 133.23389499 189.4779379 133.23558459 181.93409985 C133.23561792 176.14481676 133.21461793 170.35575575 133.18584633 164.56655121 C133.17733467 162.19504943 133.17560595 159.823512 133.18121147 157.45200157 C133.18785345 154.20989335 133.16992451 150.96879769 133.14599609 147.72679138 C133.15375651 146.79194273 133.16151693 145.85709407 133.16951251 144.89391667 C133.05663296 136.23321467 129.91801641 128.95267907 124.60748291 122.12680054 C117.37538638 115.3369032 108.22035207 113.12549822 98.65753174 113.06210327 C97.74025803 113.05220367 96.82298431 113.04230408 95.87791443 113.03210449 C92.84248445 113.00048774 89.80703881 112.9757313 86.77154541 112.95101929 C84.66832571 112.93044992 82.56511014 112.90945345 80.4618988 112.88804626 C74.92336372 112.83282387 69.38479132 112.78341529 63.84619141 112.73519897 C58.19562454 112.68498521 52.54511193 112.62929849 46.89459229 112.57406616 C35.80544592 112.46648252 24.71625246 112.36503796 13.62701416 112.26742554 C13.50366699 111.59485718 13.38031982 110.92228882 13.25323486 110.2293396 C13.08396484 109.33956421 12.91469482 108.44978882 12.74029541 107.53305054 C12.57569824 106.65423218 12.41110107 105.77541382 12.24151611 104.8699646 C10.79799849 98.75637785 7.51972756 92.30119592 2.62701416 88.26742554 C-7.14364907 82.61420982 -16.56625115 78.92876306 -27.94720459 81.95101929 C-37.92249452 86.14656008 -44.53584857 92.31643922 -48.62298584 102.32992554 C-49.4550521 105.58885171 -49.89731928 108.93775959 -50.37298584 112.26742554 C-55.65298584 112.26742554 -60.93298584 112.26742554 -66.37298584 112.26742554 C-66.37298584 106.98742554 -66.37298584 101.70742554 -66.37298584 96.26742554 C-69.01298584 96.26742554 -71.65298584 96.26742554 -74.37298584 96.26742554 C-74.47260354 90.75396873 -74.54480494 85.24104725 -74.5927124 79.72689819 C-74.61270447 77.85506044 -74.63990752 75.98328416 -74.67474365 74.11166382 C-75.10354709 50.46441536 -75.10354709 50.46441536 -66.07611084 40.79867554 C-58.91311379 34.35854974 -51.50563753 31.91891835 -41.99798584 32.14242554 C-40.89390381 32.15596069 -40.89390381 32.15596069 -39.76751709 32.16976929 C-37.96919704 32.19312409 -36.17104673 32.22898718 -34.37298584 32.26742554 C-34.42325928 30.44404663 -34.42325928 30.44404663 -34.47454834 28.58383179 C-34.46449009 20.96806009 -31.24129432 14.32907402 -26.07611084 8.79867554 C-18.21970734 1.73512009 -10.31657186 -0.03288026 0 0 Z " fill="#59C5D3" transform="translate(186.37298583984375,15.732574462890625)"/>
<path d="M0 0 C5.28 0 10.56 0 16 0 C16.42317708 3.3203125 16.84635417 6.640625 17.26953125 9.9609375 C17.70699334 13.29532084 17.70699334 13.29532084 21 15 C24.0521774 15.30353983 24.0521774 15.30353983 27.59788513 15.25396729 C28.27141228 15.25708727 28.94493943 15.26020725 29.6388765 15.26342177 C31.90053413 15.27141254 34.16192425 15.26507402 36.42358398 15.25878906 C38.04313311 15.26149848 39.66268101 15.26505913 41.28222656 15.26940918 C45.68510026 15.2785421 50.08788043 15.27498502 54.4907558 15.26865101 C59.09467497 15.26359482 63.69858602 15.26828148 68.30250549 15.27142334 C76.03575074 15.27506446 83.76895781 15.27026044 91.50219727 15.26074219 C100.44595763 15.2498612 109.38962679 15.25338004 118.33338493 15.264395 C126.00733771 15.27346829 133.68126301 15.27475283 141.35521942 15.26951766 C145.94064425 15.2663977 150.5260262 15.26598926 155.11144829 15.27259064 C159.4230794 15.27836394 163.73459285 15.27436747 168.04621124 15.26280212 C169.62967547 15.26015529 171.21314957 15.26092103 172.79660988 15.26532745 C174.95625113 15.27078357 177.11551414 15.26394817 179.27513123 15.25396729 C180.48431434 15.25321323 181.69349745 15.25245918 182.93932247 15.25168228 C185.89841697 15.00835326 187.60156269 14.72602501 190 13 C190.92499783 9.9017122 190.92499783 9.9017122 191.25 6.375 C191.62125 3.219375 191.62125 3.219375 192 0 C197.28 0 202.56 0 208 0 C208 60.72 208 121.44 208 184 C182.755 184.495 182.755 184.495 157 185 C143.98291721 198.01708279 152.36089014 221.59460277 152 240 C101.84 240 51.68 240 0 240 C0 160.8 0 81.6 0 0 Z " fill="#5FD0DF" transform="translate(64,176)"/>
<path d="M0 0 C0.90720795 0.00141495 1.81441589 0.0028299 2.74911499 0.00428772 C5.65308905 0.00989529 8.55698665 0.02244907 11.4609375 0.03515625 C13.42708222 0.04017027 15.39322815 0.04473335 17.359375 0.04882812 C22.1849254 0.05986719 27.01041847 0.0771369 31.8359375 0.09765625 C30.5159375 5.37765625 29.1959375 10.65765625 27.8359375 16.09765625 C24.98195313 16.13632813 24.98195313 16.13632813 22.0703125 16.17578125 C19.57549767 16.23205527 17.08070689 16.28940275 14.5859375 16.34765625 C12.70455078 16.36892578 12.70455078 16.36892578 10.78515625 16.390625 C9.57988281 16.42285156 8.37460937 16.45507812 7.1328125 16.48828125 C6.02260742 16.50922852 4.91240234 16.53017578 3.76855469 16.55175781 C0.13903907 17.22738193 -0.86513437 18.25863276 -3.1640625 21.09765625 C-3.75557169 23.50282367 -3.75557169 23.50282367 -3.66184044 26.1545639 C-3.67103803 27.18069621 -3.68023562 28.20682851 -3.68971193 29.26405573 C-3.6794248 30.38972373 -3.66913768 31.51539174 -3.65853882 32.6751709 C-3.66336765 33.87224718 -3.66819648 35.06932345 -3.67317164 36.30267477 C-3.68250513 39.62691081 -3.67385547 42.95022649 -3.65764308 46.27437854 C-3.64449636 49.85861958 -3.65438442 53.44280589 -3.66140747 57.02705383 C-3.67149633 64.04910358 -3.66020225 71.07096511 -3.64170687 78.09299147 C-3.62095026 86.26700657 -3.62107895 94.44098085 -3.62205203 102.61501735 C-3.62305358 117.197649 -3.60472187 131.78019297 -3.57568359 146.36279297 C-3.54750813 160.51938474 -3.53334203 174.67589933 -3.53466797 188.83251953 C-3.53474788 189.70439673 -3.53482779 190.57627393 -3.53491013 191.47457165 C-3.53499084 192.34492772 -3.53507155 193.21528379 -3.5351547 194.11201429 C-3.53653392 210.21918637 -3.5247569 226.32632559 -3.50684827 242.43348703 C-3.50081173 248.13385631 -3.49868869 253.83421955 -3.49778366 259.53459167 C-3.49642024 266.47957152 -3.48750281 273.42449601 -3.46911804 280.36945236 C-3.45987555 283.91421145 -3.45379344 287.45889968 -3.45630646 291.00367165 C-3.45889604 294.84255076 -3.44601868 298.68128697 -3.43148804 302.5201416 C-3.43458524 303.64580961 -3.43768245 304.77147761 -3.4408735 305.93125677 C-3.43442461 306.95738907 -3.42797572 307.98352138 -3.42133141 309.0407486 C-3.41992256 309.92712588 -3.41851371 310.81350316 -3.41706216 311.72674036 C-3.14197671 314.30462707 -2.5492275 315.91615481 -1.1640625 318.09765625 C1.82674813 319.59306157 4.8950507 319.25142895 8.1756897 319.25587463 C9.32368941 319.2632816 9.32368941 319.2632816 10.49488103 319.2708382 C13.07291973 319.28626085 15.65093343 319.29458668 18.22900391 319.30297852 C20.07164227 319.3125533 21.91427842 319.32256314 23.75691223 319.33297729 C28.77108256 319.36007577 33.78526236 319.38105852 38.79946566 319.40097928 C44.03522254 319.42280841 49.2709501 319.4502121 54.50668335 319.47703552 C64.42661316 319.52700406 74.34655921 319.57192742 84.26652086 319.61505789 C95.55778651 319.66439475 106.84902276 319.71932602 118.14025998 319.77473748 C141.37212526 319.88862139 164.60401905 319.99524798 187.8359375 320.09765625 C187.8359375 314.81765625 187.8359375 309.53765625 187.8359375 304.09765625 C129.7559375 304.09765625 71.6759375 304.09765625 11.8359375 304.09765625 C11.8359375 298.81765625 11.8359375 293.53765625 11.8359375 288.09765625 C14.86360542 288.08885689 14.86360542 288.08885689 17.95243835 288.07987976 C36.94950636 288.02325186 55.94646019 287.95019228 74.94340801 287.86194134 C84.71055205 287.81696404 94.47765948 287.77755384 104.24487305 287.7512207 C112.75736994 287.72825629 121.26975113 287.6948757 129.78215629 287.64895469 C134.28997094 287.62500145 138.79767085 287.60628646 143.30554771 287.60004234 C147.54828766 287.59400097 151.79073394 287.57403558 156.03336525 287.54338074 C157.59058723 287.53458528 159.14784757 287.53088105 160.70509338 287.53264809 C162.83190828 287.53429948 164.95782653 287.51761465 167.08451843 287.49638367 C168.27455317 287.4917747 169.46458792 287.48716574 170.69068432 287.48241711 C176.12295824 286.81788352 179.31865219 283.86617858 183.05957031 280.08520508 C183.85679504 279.28460159 184.65401978 278.48399811 185.47540283 277.65913391 C186.32141052 276.7996666 187.16741821 275.94019928 188.0390625 275.0546875 C188.91745789 274.17109055 189.79585327 273.28749359 190.7008667 272.37712097 C193.02526892 270.03794731 195.34553852 267.69478278 197.66345215 265.34918213 C200.9424601 262.03204618 204.22681091 258.72022823 207.51385498 255.41105652 C209.26272944 253.64986731 211.008925 251.88601335 212.7522583 250.11933899 C213.53687439 249.32819199 214.32149048 248.53704498 215.12988281 247.72192383 C215.82317688 247.02037674 216.51647095 246.31882965 217.23077393 245.59602356 C218.8359375 244.09765625 218.8359375 244.09765625 219.8359375 244.09765625 C219.8359375 258.61765625 219.8359375 273.13765625 219.8359375 288.09765625 C225.1159375 288.09765625 230.3959375 288.09765625 235.8359375 288.09765625 C235.73127568 254.13447938 235.62157842 220.17132345 235.50482056 186.20818607 C235.49105047 182.20137222 235.47732345 178.19455823 235.46362305 174.18774414 C235.46089474 173.39003693 235.45816644 172.59232972 235.45535546 171.77044956 C235.41124287 158.84266462 235.37062218 145.91487095 235.33128489 132.9870707 C235.29086397 119.72860731 235.24670697 106.47016018 235.19905895 93.21172076 C235.16976011 85.02612813 235.14339898 76.84053674 235.12075853 68.65492294 C235.1031059 62.38531908 235.08026311 56.11574407 235.05544662 49.8461647 C235.0460672 47.26895143 235.03839514 44.69173132 235.03251839 42.11450768 C235.02427237 38.60789483 235.00999986 35.10135784 234.99415588 31.59477234 C234.99317778 30.56462767 234.99219967 29.534483 234.99119192 28.47312182 C234.98571748 27.53708206 234.98024304 26.60104229 234.9746027 25.63663769 C234.97194466 24.82669422 234.96928661 24.01675076 234.96654803 23.18226355 C234.91306407 20.9018931 234.91306407 20.9018931 233.8359375 18.09765625 C230.6123393 16.81841349 227.19042018 16.89903556 223.7578125 16.78125 C222.59765625 16.73935547 221.4375 16.69746094 220.2421875 16.65429688 C219.035625 16.61498047 217.8290625 16.57566406 216.5859375 16.53515625 C215.36390625 16.49197266 214.141875 16.44878906 212.8828125 16.40429688 C209.8672983 16.2982827 206.85170302 16.19621689 203.8359375 16.09765625 C202.50260417 10.76432292 201.16927083 5.43098958 199.8359375 0.09765625 C205.42265944 0.02329374 211.00909089 -0.03104629 216.59619141 -0.06713867 C218.49533103 -0.08219066 220.39443609 -0.10263691 222.29345703 -0.12866211 C225.02905831 -0.16520367 227.7641985 -0.18210613 230.5 -0.1953125 C231.34398346 -0.21079636 232.18796692 -0.22628021 233.05752563 -0.24223328 C238.76807459 -0.24384998 243.1330601 0.57454267 247.48046875 4.6328125 C250.54640038 8.64210771 251.96124606 10.66450706 251.95898533 15.66976357 C251.96097638 16.63864624 251.96296743 17.60752891 251.96501881 18.60577166 C251.96210597 19.67773866 251.95919313 20.74970565 251.95619202 21.85415649 C251.95747365 23.55343577 251.95747365 23.55343577 251.95878118 25.28704393 C251.96043721 29.10885883 251.95491258 32.9306305 251.94946289 36.75244141 C251.9486252 39.48176603 251.94929465 42.21108979 251.9499054 44.94041443 C251.95043054 50.82974323 251.94728475 56.71906097 251.94166756 62.60838699 C251.93355125 71.12343353 251.9309372 79.6384747 251.92967957 88.15352468 C251.92748925 101.9675872 251.92082972 115.78164381 251.91137695 129.59570312 C251.9022023 143.0172523 251.89512173 156.43879988 251.89086914 169.86035156 C251.89047506 171.10066005 251.89047506 171.10066005 251.89007301 172.36602528 C251.888768 176.51407174 251.88750429 180.66211821 251.88626111 184.81016469 C251.87588914 219.23933279 251.85827138 253.66849388 251.8359375 288.09765625 C254.4759375 288.09765625 257.1159375 288.09765625 259.8359375 288.09765625 C259.8359375 293.37765625 259.8359375 298.65765625 259.8359375 304.09765625 C304.0559375 304.09765625 348.2759375 304.09765625 393.8359375 304.09765625 C394.07362734 293.69516169 394.07362734 293.69516169 389.8359375 290.09765625 C386.68159502 288.93969693 383.57899084 288.94495664 380.24121094 288.89233398 C379.12035095 288.87238876 377.99949097 288.85244354 376.84466553 288.83189392 C375.64037903 288.81518143 374.43609253 288.79846893 373.1953125 288.78125 C371.33933441 288.75007835 371.33933441 288.75007835 369.44586182 288.71827698 C366.16455059 288.66399753 362.88321017 288.61373846 359.60180664 288.56542969 C356.25010646 288.51509533 352.8985003 288.45939265 349.546875 288.40429688 C342.97663071 288.29721112 336.40631949 288.19591499 329.8359375 288.09765625 C329.8359375 282.81765625 329.8359375 277.53765625 329.8359375 272.09765625 C338.04234433 272.00703164 346.2483575 271.9337551 354.45513153 271.89040756 C358.26650185 271.86959546 362.07750996 271.84139628 365.88867188 271.79589844 C369.57157414 271.75221046 373.25412958 271.72847126 376.93727112 271.71814728 C378.33742222 271.71079675 379.73755586 271.69644327 381.13755798 271.67473602 C390.15315875 271.54059724 396.70764292 271.77538047 403.82421875 277.7734375 C410.87478525 286.4878545 411.25185124 292.9912191 410.8359375 304.09765625 C411.8259375 304.05125 412.8159375 304.00484375 413.8359375 303.95703125 C422.31769542 303.6745566 429.04013253 303.65383697 435.5390625 309.67578125 C441.43308432 316.02759117 443.494072 322.41670139 443.24609375 331.03125 C442.23603382 338.5826504 438.52052045 344.20261726 432.6796875 348.94140625 C427.96237489 351.89972094 423.69440273 352.38914732 418.22290039 352.36508179 C417.0848143 352.37187846 417.0848143 352.37187846 415.92373657 352.37881243 C413.38529344 352.39145662 410.84706486 352.38983602 408.30859375 352.38818359 C406.48660507 352.39416911 404.66461892 352.40097471 402.84263611 352.40853882 C397.89385648 352.42621045 392.94514602 352.43089488 387.99633789 352.43217039 C384.90079023 352.43359267 381.8052601 352.43786388 378.7097168 352.44316483 C367.89907721 352.46167375 357.08848694 352.46983496 346.27783203 352.46826172 C336.22079727 352.46706229 326.16397781 352.48812345 316.10699749 352.51974905 C307.45962108 352.545967 298.81231469 352.5566266 290.16489887 352.5553509 C285.0062688 352.55484259 279.84782979 352.56045201 274.6892395 352.581707 C269.83002057 352.60118071 264.971173 352.60115178 260.11194038 352.58667374 C258.33712784 352.58459535 256.56229151 352.5892281 254.78751945 352.60139465 C243.23745193 352.67538702 233.18985514 351.81938894 222.6590271 346.48985863 C219.55235843 344.95780966 217.4412394 344.67844394 214 344.5859375 C212.93652344 344.55048828 211.87304688 344.51503906 210.77734375 344.47851562 C209.68292969 344.45595703 208.58851563 344.43339844 207.4609375 344.41015625 C206.34332031 344.37599609 205.22570312 344.34183594 204.07421875 344.30664062 C201.32822528 344.22449552 198.58253768 344.15523497 195.8359375 344.09765625 C195.8359375 341.45765625 195.8359375 338.81765625 195.8359375 336.09765625 C194.78495314 336.10134342 193.73396877 336.10503059 192.6511364 336.1088295 C167.08771403 336.19759653 141.52431164 336.26334445 115.96076775 336.30490494 C103.59846395 336.32553708 91.23626192 336.35367028 78.87402344 336.39941406 C68.1000897 336.43926169 57.32622966 336.46508432 46.55222428 336.47401023 C40.84655074 336.47922845 35.14108804 336.491507 29.43548203 336.52057648 C24.06586926 336.54771263 18.69655433 336.5561048 13.3268795 336.55008698 C11.35561314 336.55118801 9.3843369 336.55915248 7.41312981 336.57447815 C4.72173942 336.59437783 2.03147374 336.58959554 -0.65994263 336.57867432 C-1.44010998 336.59032568 -2.22027733 336.60197705 -3.02408612 336.61398149 C-8.22959706 336.55688055 -11.14784173 335.37161126 -15.1640625 332.09765625 C-19.11304035 327.72176187 -20.28726097 324.68968483 -20.29828358 318.85703564 C-20.30274142 317.76445987 -20.30719926 316.6718841 -20.31179219 315.54619998 C-20.31160783 314.3411644 -20.31142347 313.13612883 -20.31123352 311.89457703 C-20.31674855 309.97985437 -20.31674855 309.97985437 -20.322375 308.02645046 C-20.33239874 304.47611801 -20.33611238 300.92580247 -20.33876431 297.37545788 C-20.34266618 293.54917693 -20.3522445 289.72290937 -20.36097717 285.89663696 C-20.38074348 276.65343722 -20.39080737 267.41023637 -20.39970496 258.16702077 C-20.40408703 253.81590896 -20.409454 249.46479836 -20.41469383 245.11368752 C-20.43170523 230.65304028 -20.4462004 216.1923938 -20.45344257 201.73173809 C-20.45535251 197.97879218 -20.45727284 194.22584628 -20.45922852 190.47290039 C-20.45971226 189.54010833 -20.460196 188.60731628 -20.4606944 187.6462578 C-20.46899847 172.52849194 -20.49434215 157.41080512 -20.52680919 142.2930738 C-20.55985871 126.77787799 -20.57788937 111.26272238 -20.58108681 95.74749118 C-20.58325372 87.03383249 -20.59202884 78.32028909 -20.61754799 69.60666466 C-20.63922611 62.18739812 -20.64731965 54.76827488 -20.63758121 47.34898027 C-20.63302825 43.56288088 -20.63498011 39.77707734 -20.65434265 35.9910183 C-20.67514674 31.8876982 -20.66501584 27.78503774 -20.65180969 23.6816864 C-20.66277894 22.48334299 -20.67374818 21.28499958 -20.68504983 20.05034274 C-20.63600955 13.76150044 -20.45674994 9.84193164 -16.1640625 5.09765625 C-10.65469875 0.24416914 -7.18753505 -0.04184638 0 0 Z " fill="#000000" transform="translate(52.1640625,143.90234375)"/>
<path d="M0 0 C1.56519044 -0.00679667 1.56519044 -0.00679667 3.16200089 -0.01373065 C6.65787067 -0.02638909 10.15358494 -0.02475331 13.6494751 -0.02310181 C16.15627238 -0.02908617 18.66306783 -0.03589151 21.16986084 -0.04345703 C27.27249603 -0.05929801 33.37507428 -0.06556587 39.4777281 -0.06668179 C44.44031969 -0.0676331 49.40289857 -0.07174757 54.36548615 -0.07808304 C68.44579435 -0.09569182 82.5260721 -0.10492258 96.6063914 -0.10342209 C97.36504261 -0.10334218 98.12369383 -0.10326227 98.90533447 -0.10317993 C100.04470637 -0.10305729 100.04470637 -0.10305729 101.20709589 -0.10293217 C113.5122778 -0.10211958 125.81733721 -0.12125145 138.1224837 -0.14945666 C150.76756942 -0.17821154 163.41259546 -0.1919955 176.0577147 -0.19026911 C183.15284541 -0.18960606 190.24784772 -0.19506075 197.34294891 -0.21662521 C204.01770419 -0.23678256 210.69214382 -0.23613676 217.3669281 -0.22159195 C219.81382391 -0.21950183 222.26073665 -0.22421679 224.70760345 -0.23631287 C228.05408417 -0.25178186 231.39963266 -0.24244517 234.74609375 -0.22705078 C235.70895538 -0.23733791 236.67181701 -0.24762503 237.66385627 -0.25822389 C246.59235638 -0.16777857 254.49000252 2.39476844 261.09576416 8.56430054 C267.55879488 15.75277348 269.73401454 22.77357408 269.62701416 32.26742554 C270.66599854 32.22101929 271.70498291 32.17461304 272.77545166 32.12680054 C283.779552 31.78065162 292.68298902 32.70708602 301.09576416 40.56430054 C307.97194039 48.21229247 309.92869295 55.97331567 309.8944397 66.03971863 C309.89897081 67.01854765 309.90350192 67.99737667 309.90817034 69.00586718 C309.92082192 72.28296143 309.91919346 75.55988966 309.9175415 78.83700562 C309.92352627 81.18779209 309.93033169 83.5385766 309.93789673 85.88935852 C309.95556906 92.27371193 309.96025263 98.65801174 309.9615283 105.04238725 C309.96318825 109.70094047 309.96898743 114.35948175 309.97520126 119.01803076 C309.99180615 131.54863471 309.99928638 144.07921026 309.99786179 156.60982481 C309.99778188 157.32094682 309.99770196 158.03206883 309.99761963 158.76473999 C309.99753787 159.47673373 309.99745611 160.18872747 309.99737187 160.92229678 C309.99655913 172.4586411 310.01569509 183.9948548 310.04389636 195.53116135 C310.07264773 207.38636415 310.08643542 219.24150331 310.08470881 231.09674186 C310.08404568 237.74861906 310.08989464 244.40037588 310.11106491 251.05222511 C310.13043472 257.30919977 310.13058004 263.56588538 310.11603165 269.82287025 C310.11394093 272.11699343 310.11866004 274.41113464 310.13075256 276.7052269 C310.14621319 279.84188401 310.13689073 282.97754549 310.12149048 286.11418152 C310.1317776 287.01770082 310.14206473 287.92122012 310.15266359 288.85211879 C310.05053652 298.2928425 306.12050024 306.44628649 299.62701416 313.26742554 C291.74355463 319.47959165 284.18859528 320.56618474 274.38922119 320.58627319 C273.26668442 320.59631882 272.14414764 320.60636444 270.9875946 320.61671448 C267.28667704 320.64754216 263.58583181 320.66458076 259.88482666 320.68148804 C257.31506732 320.70019998 254.74531412 320.71977341 252.17556763 320.74017334 C246.10903852 320.78625506 240.04251303 320.82366429 233.97590148 320.85684621 C227.06652563 320.8951236 220.1572431 320.94451896 213.24794602 320.99483037 C199.04103918 321.09803261 184.83406913 321.18733092 170.62701416 321.26742554 C170.83999146 321.82674774 171.05296875 322.38606995 171.2723999 322.96234131 C173.48230092 328.76793729 175.68760014 334.57526581 177.89019775 340.38363647 C178.71355426 342.55303296 179.53809534 344.72198023 180.36383057 346.89047241 C181.54840548 350.00193689 182.7287538 353.11497573 183.90826416 356.22836304 C184.28011841 357.20236053 184.65197266 358.17635803 185.03509521 359.17987061 C185.54562439 360.53104477 185.54562439 360.53104477 186.06646729 361.90951538 C186.36847046 362.70449432 186.67047363 363.49947327 186.98162842 364.31854248 C187.62701416 366.26742554 187.62701416 366.26742554 187.62701416 368.26742554 C193.56701416 368.26742554 199.50701416 368.26742554 205.62701416 368.26742554 C205.62701416 373.54742554 205.62701416 378.82742554 205.62701416 384.26742554 C187.14701416 384.26742554 168.66701416 384.26742554 149.62701416 384.26742554 C149.62701416 378.98742554 149.62701416 373.70742554 149.62701416 368.26742554 C156.22701416 368.26742554 162.82701416 368.26742554 169.62701416 368.26742554 C168.85454346 366.19292114 168.85454346 366.19292114 168.06646729 364.07650757 C166.16231381 358.96020786 164.2624202 353.84233521 162.36383057 348.72396851 C161.54045449 346.50608655 160.71591331 344.28863679 159.89019775 342.07162476 C158.70567423 338.8906174 157.52530672 335.70809517 156.34576416 332.52523804 C155.97390991 331.52936676 155.60205566 330.53349548 155.21893311 329.50744629 C154.87858032 328.58664276 154.53822754 327.66583923 154.18756104 326.71713257 C153.73455627 325.49801682 153.73455627 325.49801682 153.2723999 324.25427246 C152.62701416 322.26742554 152.62701416 322.26742554 152.62701416 320.26742554 C151.63701416 320.26742554 150.64701416 320.26742554 149.62701416 320.26742554 C149.62701416 314.98742554 149.62701416 309.70742554 149.62701416 304.26742554 C151.26739655 304.2615593 152.90777893 304.25569305 154.59786987 304.24964905 C170.04805618 304.19246536 185.49809 304.11990372 200.94812965 304.03171062 C208.89137062 303.98676298 216.83456686 303.94734596 224.77789307 303.92098999 C231.70205777 303.89800152 238.62608079 303.86459408 245.55013311 303.81872398 C249.21570073 303.79480307 252.88112813 303.77606694 256.546772 303.76981163 C260.64094251 303.7626297 264.73462558 303.73218512 268.82867432 303.69979858 C270.04140015 303.70123367 271.25412598 303.70266876 272.50360107 303.70414734 C280.49363975 303.6472463 280.49363975 303.6472463 287.62701416 300.26742554 C295.54867657 291.70346617 292.94424559 285.92279695 293.62701416 272.26742554 C246.10701416 272.26742554 198.58701416 272.26742554 149.62701416 272.26742554 C149.62701416 266.98742554 149.62701416 261.70742554 149.62701416 256.26742554 C197.14701416 256.26742554 244.66701416 256.26742554 293.62701416 256.26742554 C293.56564164 221.40016092 293.56564164 221.40016092 293.46685791 186.53305054 C293.41826913 172.31788266 293.37384471 158.10278691 293.35601807 143.88754272 C293.34301716 133.53543518 293.31609236 123.18347387 293.27240109 112.83144867 C293.24975126 107.34939013 293.2341056 101.86751217 293.23513031 96.38540268 C293.23587483 91.2258194 293.21800743 86.06663587 293.18584633 80.90715599 C293.17732538 79.01332738 293.17561225 77.11945405 293.18121147 75.22561455 C293.18783989 72.63921962 293.16995924 70.05410089 293.14599609 67.46783447 C293.15375651 66.71879471 293.16151693 65.96975494 293.16951251 65.198017 C293.08581508 60.09340766 291.81114658 57.21747061 288.62701416 53.26742554 C282.71981426 48.07624987 278.14427622 48.97719738 269.62701416 48.26742554 C269.62701416 111.62742554 269.62701416 174.98742554 269.62701416 240.26742554 C264.34701416 240.26742554 259.06701416 240.26742554 253.62701416 240.26742554 C253.6255476 239.17521132 253.62408104 238.08299709 253.62257004 236.95768547 C253.58598966 210.39272811 253.52655925 183.82789697 253.44311142 157.26304436 C253.40328687 144.41652082 253.37091171 131.57005885 253.35601807 118.72348022 C253.34301929 107.52757499 253.31609994 96.33180502 253.27240109 85.13597596 C253.24974649 79.2067898 253.23410588 73.27777072 253.23513031 67.34853745 C253.23587455 61.76872946 253.2180185 56.18929139 253.18584633 50.60957909 C253.1773218 48.56094359 253.17561464 46.51226673 253.18121147 44.46362114 C253.18783438 41.66706557 253.16997165 38.87169281 253.14599609 36.07525635 C253.15375651 35.26396141 253.16151693 34.45266647 253.16951251 33.61678684 C253.09002051 28.38164271 252.04632246 25.44729735 248.62701416 21.26742554 C245.07902229 18.14949328 242.06796888 17.1443402 237.38590527 17.13320446 C236.51626682 17.12874662 235.64662836 17.12428877 234.75063723 17.11969584 C233.79462235 17.1198802 232.83860747 17.12006457 231.85362244 17.12025452 C230.83848802 17.11657783 229.8233536 17.11290114 228.77745754 17.10911304 C225.35971029 17.09805803 221.94199342 17.0942293 218.52423096 17.09042358 C216.0803518 17.0841604 213.63647359 17.07751373 211.19259644 17.07051086 C203.84781652 17.05127207 196.50304468 17.04068173 189.15824696 17.03178307 C185.69972835 17.02739968 182.24121127 17.02203305 178.78269386 17.0167942 C167.28672828 16.99978366 155.79076364 16.98528883 144.29478741 16.97804546 C141.31186103 16.97613557 138.32893465 16.97421523 135.3460083 16.97225952 C134.60461559 16.97177578 133.86322288 16.97129204 133.09936372 16.97079364 C121.08552077 16.96249082 109.07177731 16.93714891 97.05797782 16.90467884 C84.72489652 16.87161741 72.39186581 16.85359759 60.05873996 16.85040122 C53.1335917 16.84823542 46.20858859 16.83947654 39.28348351 16.81394005 C32.77051448 16.78997874 26.25775995 16.78640159 19.74473953 16.79670143 C17.3526008 16.79719836 14.96044946 16.79083194 12.56834984 16.77714539 C9.30570266 16.7595204 6.04400373 16.76648697 2.78135681 16.77967834 C1.35737273 16.76322448 1.35737273 16.76322448 -0.0953787 16.74643821 C-5.69627513 16.80121061 -8.94695148 17.49818223 -13.37298584 21.26742554 C-17.53167619 26.08563239 -17.97275223 29.85990217 -17.98236084 35.94711304 C-17.99889709 36.75987701 -18.01543335 37.57264099 -18.0324707 38.41003418 C-18.08077539 40.98757617 -18.10228178 43.56452897 -18.12298584 46.14242554 C-18.15116032 47.89766323 -18.18108981 49.65287369 -18.21282959 51.40805054 C-18.28981236 55.69477524 -18.33049072 59.9796676 -18.37298584 64.26742554 C-23.65298584 64.26742554 -28.93298584 64.26742554 -34.37298584 64.26742554 C-34.37298584 58.98742554 -34.37298584 53.70742554 -34.37298584 48.26742554 C-44.73949933 48.30049252 -44.73949933 48.30049252 -53.37298584 53.26742554 C-57.41274796 58.23922516 -57.9726572 61.79969756 -57.98236084 67.94711304 C-57.99889709 68.75987701 -58.01543335 69.57264099 -58.0324707 70.41003418 C-58.08077539 72.98757617 -58.10228178 75.56452897 -58.12298584 78.14242554 C-58.15116032 79.89766323 -58.18108981 81.65287369 -58.21282959 83.40805054 C-58.28981236 87.69477524 -58.33049072 91.9796676 -58.37298584 96.26742554 C-63.65298584 96.26742554 -68.93298584 96.26742554 -74.37298584 96.26742554 C-74.47260354 90.75396873 -74.54480494 85.24104725 -74.5927124 79.72689819 C-74.61270447 77.85506044 -74.63990752 75.98328416 -74.67474365 74.11166382 C-75.10354709 50.46441536 -75.10354709 50.46441536 -66.07611084 40.79867554 C-58.91311379 34.35854974 -51.50563753 31.91891835 -41.99798584 32.14242554 C-40.89390381 32.15596069 -40.89390381 32.15596069 -39.76751709 32.16976929 C-37.96919704 32.19312409 -36.17104673 32.22898718 -34.37298584 32.26742554 C-34.42325928 30.44404663 -34.42325928 30.44404663 -34.47454834 28.58383179 C-34.46449009 20.96806009 -31.24129432 14.32907402 -26.07611084 8.79867554 C-18.21970734 1.73512009 -10.31657186 -0.03288026 0 0 Z " fill="#000000" transform="translate(186.37298583984375,15.732574462890625)"/>
<path d="M0 0 C0.90009037 -0.00085442 1.80018074 -0.00170885 2.72754657 -0.00258917 C5.76165207 -0.00424413 8.79570301 0.00127769 11.82980347 0.00672913 C13.99755858 0.00701102 16.16531379 0.00685322 18.33306885 0.00628662 C24.23359699 0.00599873 30.13410496 0.01189407 36.03462839 0.01886058 C42.19526474 0.02509555 48.35590151 0.02569803 54.51654053 0.02688599 C66.18958122 0.02999888 77.8626126 0.0382117 89.53564918 0.04823548 C102.82201967 0.05939792 116.10838991 0.0649074 129.39476418 0.06993091 C156.73232803 0.08039434 184.06988359 0.09799297 211.40744019 0.12025452 C210.16757445 3.30642206 208.94909106 6.0299724 206.93869019 8.79994202 C206.45569458 9.47283264 205.97269897 10.14572327 205.47506714 10.83900452 C204.95775024 11.55056702 204.44043335 12.26212952 203.90744019 12.99525452 C202.80563982 14.53321495 201.70540201 16.07229591 200.60665894 17.61244202 C200.06057983 18.37782288 199.51450073 19.14320374 198.95187378 19.93177795 C196.81674147 22.95728001 194.75898409 26.02947939 192.71994019 29.12025452 C184.14685745 42.08888102 175.3325854 54.89672828 166.57540894 67.74134827 C165.9663269 68.63474915 165.35724487 69.52815002 164.72970581 70.44862366 C163.51943599 72.22300504 162.30850339 73.99693453 161.09689331 75.770401 C158.05348568 80.2273402 155.01958156 84.69029856 152.00598145 89.16743469 C150.45722374 91.46778059 148.90528452 93.7659724 147.35324097 96.06410217 C146.2457375 97.70698647 145.14293737 99.35303829 144.04025269 100.99916077 C143.02511597 102.50156311 143.02511597 102.50156311 141.98947144 104.03431702 C141.09578857 105.36390442 141.09578857 105.36390442 140.18405151 106.72035217 C138.42831812 109.09205195 136.54709297 111.09383422 134.40744019 113.12025452 C134.07744019 112.79025452 133.74744019 112.46025452 133.40744019 112.12025452 C133.07744019 115.09025452 132.74744019 118.06025452 132.40744019 121.12025452 C130.87096194 118.81553714 129.74517259 116.78931975 128.59494019 114.30775452 C123.66958362 104.58150888 116.69302588 100.54878308 106.40744019 97.12025452 C103.41074265 96.99959065 100.43561663 96.93480468 97.43795776 96.91493225 C96.52068405 96.90503265 95.60341034 96.89513306 94.65834045 96.88493347 C91.62291048 96.85331672 88.58746484 96.82856028 85.55197144 96.80384827 C83.44875173 96.7832789 81.34553617 96.76228243 79.24232483 96.74087524 C73.70378975 96.68565285 68.16521735 96.63624427 62.62661743 96.58802795 C56.97605056 96.53781419 51.32553796 96.48212747 45.67501831 96.42689514 C34.58587195 96.3193115 23.49667849 96.21786694 12.40744019 96.12025452 C12.28409302 95.44768616 12.16074585 94.7751178 12.03366089 94.08216858 C11.86439087 93.19239319 11.69512085 92.3026178 11.52072144 91.38587952 C11.35612427 90.50706116 11.1915271 89.6282428 11.02194214 88.72279358 C9.57842452 82.60920683 6.30015359 76.1540249 1.40744019 72.12025452 C-8.36322304 66.4670388 -17.78582512 62.78159204 -29.16677856 65.80384827 C-39.14206849 69.99938906 -45.75542254 76.1692682 -49.84255981 86.18275452 C-50.67462607 89.44168069 -51.11689325 92.79058857 -51.59255981 96.12025452 C-56.87255981 96.12025452 -62.15255981 96.12025452 -67.59255981 96.12025452 C-67.59255981 90.84025452 -67.59255981 85.56025452 -67.59255981 80.12025452 C-64.95255981 80.12025452 -62.31255981 80.12025452 -59.59255981 80.12025452 C-59.61350708 79.03083557 -59.63445435 77.94141663 -59.65603638 76.81898499 C-59.72867846 72.76003774 -59.774447 68.70114746 -59.81228638 64.64173889 C-59.83234691 62.88805972 -59.85960232 61.13444699 -59.89431763 59.3809967 C-59.94308284 56.85381134 -59.96558373 54.32751361 -59.98318481 51.79994202 C-60.00382996 51.0215799 -60.0244751 50.24321777 -60.04574585 49.44126892 C-60.04788706 44.19451571 -59.03003009 41.30060119 -55.59255981 37.12025452 C-48.90186663 31.22607242 -44.41650257 32.03374527 -35.59255981 32.12025452 C-35.59255981 37.40025452 -35.59255981 42.68025452 -35.59255981 48.12025452 C-30.31255981 48.12025452 -25.03255981 48.12025452 -19.59255981 48.12025452 C-19.63896606 45.51892639 -19.68537231 42.91759827 -19.73318481 40.23744202 C-19.76441959 37.7055608 -19.78868494 35.17370142 -19.81228638 32.64173889 C-19.83234691 30.88805972 -19.85960232 29.13444699 -19.89431763 27.3809967 C-19.94308284 24.85381134 -19.96558373 22.32751361 -19.98318481 19.79994202 C-20.00382996 19.0215799 -20.0244751 18.24321777 -20.04574585 17.44126892 C-20.04788706 12.19451571 -19.03003009 9.30060119 -15.59255981 5.12025452 C-10.24390693 0.40834603 -6.9732505 -0.0238913 0 0 Z " fill="#5FD0DF" transform="translate(187.59255981445313,31.879745483398438)"/>
<path d="M0 0 C0.90720795 0.00141495 1.81441589 0.0028299 2.74911499 0.00428772 C5.65308905 0.00989529 8.55698665 0.02244907 11.4609375 0.03515625 C13.42708222 0.04017027 15.39322815 0.04473335 17.359375 0.04882812 C22.1849254 0.05986719 27.01041847 0.0771369 31.8359375 0.09765625 C30.5159375 5.37765625 29.1959375 10.65765625 27.8359375 16.09765625 C24.98195313 16.13632813 24.98195313 16.13632813 22.0703125 16.17578125 C19.57549767 16.23205527 17.08070689 16.28940275 14.5859375 16.34765625 C12.70455078 16.36892578 12.70455078 16.36892578 10.78515625 16.390625 C9.57988281 16.42285156 8.37460937 16.45507812 7.1328125 16.48828125 C6.02260742 16.50922852 4.91240234 16.53017578 3.76855469 16.55175781 C0.13903907 17.22738193 -0.86513437 18.25863276 -3.1640625 21.09765625 C-3.75557169 23.50282367 -3.75557169 23.50282367 -3.66184044 26.1545639 C-3.67103803 27.18069621 -3.68023562 28.20682851 -3.68971193 29.26405573 C-3.6794248 30.38972373 -3.66913768 31.51539174 -3.65853882 32.6751709 C-3.66336765 33.87224718 -3.66819648 35.06932345 -3.67317164 36.30267477 C-3.68250513 39.62691081 -3.67385547 42.95022649 -3.65764308 46.27437854 C-3.64449636 49.85861958 -3.65438442 53.44280589 -3.66140747 57.02705383 C-3.67149633 64.04910358 -3.66020225 71.07096511 -3.64170687 78.09299147 C-3.62095026 86.26700657 -3.62107895 94.44098085 -3.62205203 102.61501735 C-3.62305358 117.197649 -3.60472187 131.78019297 -3.57568359 146.36279297 C-3.54750813 160.51938474 -3.53334203 174.67589933 -3.53466797 188.83251953 C-3.53474788 189.70439673 -3.53482779 190.57627393 -3.53491013 191.47457165 C-3.53499084 192.34492772 -3.53507155 193.21528379 -3.5351547 194.11201429 C-3.53653392 210.21918637 -3.5247569 226.32632559 -3.50684827 242.43348703 C-3.50081173 248.13385631 -3.49868869 253.83421955 -3.49778366 259.53459167 C-3.49642024 266.47957152 -3.48750281 273.42449601 -3.46911804 280.36945236 C-3.45987555 283.91421145 -3.45379344 287.45889968 -3.45630646 291.00367165 C-3.45889604 294.84255076 -3.44601868 298.68128697 -3.43148804 302.5201416 C-3.43458524 303.64580961 -3.43768245 304.77147761 -3.4408735 305.93125677 C-3.43442461 306.95738907 -3.42797572 307.98352138 -3.42133141 309.0407486 C-3.41992256 309.92712588 -3.41851371 310.81350316 -3.41706216 311.72674036 C-3.14197671 314.30462707 -2.5492275 315.91615481 -1.1640625 318.09765625 C1.82674813 319.59306157 4.8950507 319.25142895 8.1756897 319.25587463 C9.32368941 319.2632816 9.32368941 319.2632816 10.49488103 319.2708382 C13.07291973 319.28626085 15.65093343 319.29458668 18.22900391 319.30297852 C20.07164227 319.3125533 21.91427842 319.32256314 23.75691223 319.33297729 C28.77108256 319.36007577 33.78526236 319.38105852 38.79946566 319.40097928 C44.03522254 319.42280841 49.2709501 319.4502121 54.50668335 319.47703552 C64.42661316 319.52700406 74.34655921 319.57192742 84.26652086 319.61505789 C95.55778651 319.66439475 106.84902276 319.71932602 118.14025998 319.77473748 C141.37212506 319.88862138 164.60401834 319.99544643 187.8359375 320.09765625 C187.8359375 317.45765625 187.8359375 314.81765625 187.8359375 312.09765625 C198.0659375 312.09765625 208.2959375 312.09765625 218.8359375 312.09765625 C215.29329966 315.64029409 211.74732106 318.52414779 207.76171875 321.51171875 C205.20425945 323.6178617 204.89042546 324.6072646 204.5234375 327.91015625 C204.93157232 332.07313146 205.83327778 333.16648843 208.8359375 336.09765625 C211.44562806 338.01606514 214.09171305 339.85149549 216.7890625 341.64453125 C217.46453125 342.1240625 218.14 342.60359375 218.8359375 343.09765625 C218.8359375 343.42765625 218.8359375 343.75765625 218.8359375 344.09765625 C211.2459375 344.09765625 203.6559375 344.09765625 195.8359375 344.09765625 C195.8359375 341.45765625 195.8359375 338.81765625 195.8359375 336.09765625 C194.78495314 336.10134342 193.73396877 336.10503059 192.6511364 336.1088295 C167.08771403 336.19759653 141.52431164 336.26334445 115.96076775 336.30490494 C103.59846395 336.32553708 91.23626192 336.35367028 78.87402344 336.39941406 C68.1000897 336.43926169 57.32622966 336.46508432 46.55222428 336.47401023 C40.84655074 336.47922845 35.14108804 336.491507 29.43548203 336.52057648 C24.06586926 336.54771263 18.69655433 336.5561048 13.3268795 336.55008698 C11.35561314 336.55118801 9.3843369 336.55915248 7.41312981 336.57447815 C4.72173942 336.59437783 2.03147374 336.58959554 -0.65994263 336.57867432 C-1.44010998 336.59032568 -2.22027733 336.60197705 -3.02408612 336.61398149 C-8.22959706 336.55688055 -11.14784173 335.37161126 -15.1640625 332.09765625 C-19.11304035 327.72176187 -20.28726097 324.68968483 -20.29828358 318.85703564 C-20.30274142 317.76445987 -20.30719926 316.6718841 -20.31179219 315.54619998 C-20.31160783 314.3411644 -20.31142347 313.13612883 -20.31123352 311.89457703 C-20.31674855 309.97985437 -20.31674855 309.97985437 -20.322375 308.02645046 C-20.33239874 304.47611801 -20.33611238 300.92580247 -20.33876431 297.37545788 C-20.34266618 293.54917693 -20.3522445 289.72290937 -20.36097717 285.89663696 C-20.38074348 276.65343722 -20.39080737 267.41023637 -20.39970496 258.16702077 C-20.40408703 253.81590896 -20.409454 249.46479836 -20.41469383 245.11368752 C-20.43170523 230.65304028 -20.4462004 216.1923938 -20.45344257 201.73173809 C-20.45535251 197.97879218 -20.45727284 194.22584628 -20.45922852 190.47290039 C-20.45971226 189.54010833 -20.460196 188.60731628 -20.4606944 187.6462578 C-20.46899847 172.52849194 -20.49434215 157.41080512 -20.52680919 142.2930738 C-20.55985871 126.77787799 -20.57788937 111.26272238 -20.58108681 95.74749118 C-20.58325372 87.03383249 -20.59202884 78.32028909 -20.61754799 69.60666466 C-20.63922611 62.18739812 -20.64731965 54.76827488 -20.63758121 47.34898027 C-20.63302825 43.56288088 -20.63498011 39.77707734 -20.65434265 35.9910183 C-20.67514674 31.8876982 -20.66501584 27.78503774 -20.65180969 23.6816864 C-20.66277894 22.48334299 -20.67374818 21.28499958 -20.68504983 20.05034274 C-20.63600955 13.76150044 -20.45674994 9.84193164 -16.1640625 5.09765625 C-10.65469875 0.24416914 -7.18753505 -0.04184638 0 0 Z " fill="#F25143" transform="translate(52.1640625,143.90234375)"/>
<path d="M0 0 C5.28 0 10.56 0 16 0 C16 2.64 16 5.28 16 8 C63.52 8 111.04 8 160 8 C160 30.7109375 160 30.7109375 155.5 35.64453125 C151.0457752 39.11279483 148.19688038 40.1255431 142.62800598 40.12025452 C141.51321365 40.12162918 140.39842133 40.12300385 139.24984741 40.12442017 C137.41457993 40.11902725 137.41457993 40.11902725 135.54223633 40.11352539 C133.61037224 40.11374443 133.61037224 40.11374443 131.63948059 40.1139679 C128.10669914 40.11425513 124.57395156 40.10837032 121.04117799 40.10139394 C117.34961255 40.09514812 113.65804635 40.09455563 109.96647644 40.09336853 C102.97545691 40.09025884 95.98445299 40.08205033 88.99344033 40.07201904 C81.0346368 40.06084667 73.07583253 40.05534461 65.11702311 40.05032361 C48.74467267 40.03986743 32.37233894 40.02207385 16 40 C16 45.28 16 50.56 16 56 C16.99 56 17.98 56 19 56 C21.42800557 62.35112664 23.84829126 68.70515512 26.26318359 75.0612793 C27.0859432 77.22406843 27.91048028 79.38618224 28.73681641 81.54760742 C29.92295675 84.65108026 31.10272357 87.75691042 32.28125 90.86328125 C32.65310425 91.83211746 33.0249585 92.80095367 33.40808105 93.79914856 C33.74843384 94.6998558 34.08878662 95.60056305 34.43945312 96.52856445 C34.7414563 97.32132278 35.04345947 98.11408112 35.35461426 98.93086243 C36 101 36 101 36 104 C29.4 104 22.8 104 16 104 C16 109.28 16 114.56 16 120 C10.72 120 5.44 120 0 120 C0 80.4 0 40.8 0 0 Z " fill="#DFDFDD" transform="translate(320,280)"/>
<path d="M0 0 C5.28 0 10.56 0 16 0 C16 52.8 16 105.6 16 160 C-10.4 160 -36.8 160 -64 160 C-64 123.04 -64 86.08 -64 48 C-58.72 48 -53.44 48 -48 48 C-48 79.68 -48 111.36 -48 144 C-42.72 144 -37.44 144 -32 144 C-32 107.04 -32 70.08 -32 32 C-26.72 32 -21.44 32 -16 32 C-16 68.96 -16 105.92 -16 144 C-10.72 144 -5.44 144 0 144 C0 96.48 0 48.96 0 0 Z " fill="#000000" transform="translate(400,96)"/>
<path d="M0 0 C5.58672194 -0.07436251 11.17315339 -0.12870254 16.76025391 -0.16479492 C18.65939353 -0.17984691 20.55849859 -0.20029316 22.45751953 -0.22631836 C25.19312081 -0.26285992 27.928261 -0.27976238 30.6640625 -0.29296875 C31.50804596 -0.30845261 32.35202942 -0.32393646 33.22158813 -0.33988953 C38.93213709 -0.34150623 43.2971226 0.47688642 47.64453125 4.53515625 C50.71046288 8.54445146 52.12530856 10.56685081 52.12304783 15.57210732 C52.12503888 16.54098999 52.12702993 17.50987266 52.12908131 18.50811541 C52.12471205 20.1160659 52.12471205 20.1160659 52.12025452 21.75650024 C52.12110894 22.8893531 52.12196337 24.02220595 52.12284368 25.18938768 C52.12449971 29.01120258 52.11897508 32.83297425 52.11352539 36.65478516 C52.1126877 39.38410978 52.11335715 42.11343354 52.1139679 44.84275818 C52.11449304 50.73208698 52.11134725 56.62140472 52.10573006 62.51073074 C52.09761375 71.02577728 52.0949997 79.54081845 52.09374207 88.05586843 C52.09155175 101.86993095 52.08489222 115.68398756 52.07543945 129.49804688 C52.0662648 142.91959605 52.05918423 156.34114363 52.05493164 169.76269531 C52.05466892 170.58956764 52.05440619 171.41643997 52.05413551 172.26836903 C52.0528305 176.41641549 52.05156679 180.56446196 52.05032361 184.71250844 C52.03995164 219.14167654 52.02233388 253.57083763 52 288 C54.64 288 57.28 288 60 288 C60 293.28 60 298.56 60 304 C57.69 304.103125 55.38 304.20625 53 304.3125 C44.46835037 304.77260987 36.36635627 306.28190898 28 308 C28 301.4 28 294.8 28 288 C30.64 288 33.28 288 36 288 C35.89541334 254.03682293 35.78564092 220.07366716 35.66888306 186.11052982 C35.65511297 182.10371597 35.64138595 178.09690198 35.62768555 174.09008789 C35.62495724 173.29238068 35.62222894 172.49467347 35.61941796 171.67279331 C35.57530537 158.74500837 35.53468468 145.8172147 35.49534739 132.88941445 C35.45492647 119.63095106 35.41076947 106.37250393 35.36312145 93.11406451 C35.33382261 84.92847188 35.30746148 76.74288049 35.28482103 68.55726669 C35.2671684 62.28766283 35.24432561 56.01808782 35.21950912 49.74850845 C35.2101297 47.17129518 35.20245764 44.59407507 35.19658089 42.01685143 C35.18833487 38.51023858 35.17406236 35.00370159 35.15821838 31.49711609 C35.15724028 30.46697142 35.15626217 29.43682675 35.15525442 28.37546557 C35.14977998 27.43942581 35.14430554 26.50338604 35.1386652 25.53898144 C35.13600716 24.72903797 35.13334911 23.91909451 35.13061053 23.0846073 C35.07712657 20.80423685 35.07712657 20.80423685 34 18 C30.7764018 16.72075724 27.35448268 16.80137931 23.921875 16.68359375 C22.76171875 16.64169922 21.6015625 16.59980469 20.40625 16.55664062 C19.1996875 16.51732422 17.993125 16.47800781 16.75 16.4375 C14.91695313 16.37272461 14.91695313 16.37272461 13.046875 16.30664062 C10.0313608 16.20062645 7.01576552 16.09856064 4 16 C2.66666667 10.66666667 1.33333333 5.33333333 0 0 Z " fill="#F25143" transform="translate(252,144)"/>
<path d="M0 0 C5.67476113 1.96434039 9.31400331 5.62800662 12 11 C12.2315321 14.13854629 12.39409881 17.26985751 12.51757812 20.4140625 C12.70666564 24.0388344 12.9128125 26.96273074 15 30 C18.27664437 31.63832219 21.91233758 31.17900674 25.515625 31.2109375 C27.25912382 31.23901573 29.00261327 31.26768026 30.74609375 31.296875 C33.49560184 31.33806613 36.24493697 31.37495136 38.99462891 31.40136719 C41.64782917 31.42906937 44.30023383 31.47495067 46.953125 31.5234375 C47.76896057 31.52669037 48.58479614 31.52994324 49.425354 31.53329468 C55.0161958 31.65297475 59.39634023 32.56950525 63.64453125 36.53515625 C71.23185807 46.45704517 68 45.45816079 68 64 C20.48 64 -27.04 64 -76 64 C-76 43 -76 43 -72 37 C-66.68313936 32.31609896 -63.34972544 31.84110999 -56.4140625 31.75390625 C-54.66145335 31.72096713 -52.90884931 31.6877555 -51.15625 31.65429688 C-48.38903324 31.60688274 -45.62183709 31.56245513 -42.85449219 31.52319336 C-40.18662833 31.48345618 -37.51919104 31.43191454 -34.8515625 31.37890625 C-34.02540436 31.3704921 -33.19924622 31.36207794 -32.34805298 31.35340881 C-26.84260922 31.34571822 -26.84260922 31.34571822 -22 29 C-20.45717819 24.37153458 -20.7142958 19.61611302 -20.57421875 14.76171875 C-19.74642188 9.33880456 -17.43480778 6.26399733 -13.375 2.6875 C-8.92314854 -0.47565762 -5.3540278 -0.48837416 0 0 Z " fill="#FDB430" transform="translate(172,112)"/>
<path d="M0 0 C13.9 0 13.9 0 18 3 C23.04956714 8.17373683 24.14734598 11.64443 24.12025452 18.71939087 C24.12110894 19.52555953 24.12196337 20.3317282 24.12284368 21.16232622 C24.12449804 23.87858474 24.11897781 26.59478227 24.11352539 29.31103516 C24.11324348 31.25219216 24.11340132 33.19334928 24.1139679 35.13450623 C24.11425573 40.41728644 24.10836121 45.70004412 24.10139394 50.98281908 C24.09515812 56.49882933 24.09455642 62.01484004 24.09336853 67.53085327 C24.09025589 77.98204362 24.0820434 88.43322355 24.07201904 98.88440931 C24.06085582 110.78023763 24.05534693 122.67606644 24.05032361 134.5718987 C24.03986074 159.04793844 24.02206202 183.5239682 24 208 C13.44 208 2.88 208 -8 208 C-8 202.72 -8 197.44 -8 192 C-5.36 192 -2.72 192 0 192 C0 128.64 0 65.28 0 0 Z " fill="#338ED8" transform="translate(456,64)"/>
<path d="M0 0 C0 14.52 0 29.04 0 44 C2.64 44 5.28 44 8 44 C8 50.6 8 57.2 8 64 C1.89279348 67.4898323 -0.45822969 68.58464358 -6.90234375 68.390625 C-7.98619102 68.38213531 -7.98619102 68.38213531 -9.0919342 68.37347412 C-11.37449586 68.35128257 -13.65542198 68.30112549 -15.9375 68.25 C-17.49541986 68.22991244 -19.0533646 68.21166564 -20.61132812 68.1953125 C-24.4081715 68.1514753 -28.20380957 68.08257421 -32 68 C-32 65.36 -32 62.72 -32 60 C-90.08 60 -148.16 60 -208 60 C-208 54.72 -208 49.44 -208 44 C-205.98155472 43.99413376 -203.96310944 43.98826752 -201.88349915 43.98222351 C-182.88643114 43.92559561 -163.88947731 43.85253603 -144.89252949 43.76428509 C-135.12538545 43.71930779 -125.35827802 43.67989759 -115.59106445 43.65356445 C-107.07856756 43.63060004 -98.56618637 43.59721945 -90.05378121 43.55129844 C-85.54596656 43.5273452 -81.03826665 43.50863021 -76.53038979 43.50238609 C-72.28764984 43.49634472 -68.04520356 43.47637933 -63.80257225 43.44572449 C-62.24535027 43.43692903 -60.68808993 43.4332248 -59.13084412 43.43499184 C-57.00402922 43.43664323 -54.87811097 43.4199584 -52.75141907 43.39872742 C-51.56138433 43.39411845 -50.37134958 43.38950949 -49.14525318 43.38476086 C-43.71297926 42.72022727 -40.51728531 39.76852233 -36.77636719 35.98754883 C-35.97914246 35.18694534 -35.18191772 34.38634186 -34.36053467 33.56147766 C-33.51452698 32.70201035 -32.66851929 31.84254303 -31.796875 30.95703125 C-30.47928192 29.63163582 -30.47928192 29.63163582 -29.1350708 28.27946472 C-26.81066858 25.94029106 -24.49039898 23.59712653 -22.17248535 21.25152588 C-18.8934774 17.93438993 -15.60912659 14.62257198 -12.32208252 11.31340027 C-10.57320806 9.55221106 -8.8270125 7.7883571 -7.0836792 6.02168274 C-6.29906311 5.23053574 -5.51444702 4.43938873 -4.70605469 3.62426758 C-4.01276062 2.92272049 -3.31946655 2.2211734 -2.60516357 1.49836731 C-1 0 -1 0 0 0 Z " fill="#56BECB" transform="translate(272,388)"/>
<path d="M0 0 C1.29698822 -0.00274933 2.59397644 -0.00549866 3.93026733 -0.0083313 C5.34996127 -0.00125481 6.76965425 0.00601478 8.18934631 0.01345825 C9.69774874 0.01402294 11.20615172 0.01370468 12.71455383 0.01257324 C16.79463628 0.01200098 20.87460039 0.02373472 24.95465541 0.03772116 C29.22408744 0.05024968 33.49352239 0.05140069 37.76296997 0.05377197 C45.84114507 0.05998051 53.91926583 0.07638284 61.99741703 0.09647095 C71.19691302 0.11884946 80.39641163 0.12982829 89.59592807 0.13986182 C108.51389924 0.16074963 127.43181661 0.19631774 146.3497467 0.24050903 C146.3497467 5.52050903 146.3497467 10.80050903 146.3497467 16.24050903 C126.60830968 16.33328072 106.86693464 16.40457726 87.12532425 16.44775772 C77.95803129 16.46834403 68.79087664 16.49638907 59.62367249 16.54226685 C51.62939759 16.58225541 43.63522292 16.60797039 35.64085078 16.61686301 C31.4116021 16.62205751 27.18264001 16.6341835 22.95348358 16.66342926 C18.96437 16.69078885 14.97565824 16.69891306 10.98645973 16.69293976 C9.53050101 16.69403089 8.07452739 16.70186179 6.61865044 16.71733093 C-4.35218364 16.82807962 -14.40418799 15.60216769 -23.6502533 9.24050903 C-23.6502533 8.58050903 -23.6502533 7.92050903 -23.6502533 7.24050903 C-22.13354966 6.44095903 -20.61163331 5.65129515 -19.0877533 4.86550903 C-18.24083923 4.42464966 -17.39392517 3.98379028 -16.52134705 3.52957153 C-11.03821271 1.06775612 -5.99782088 -0.00985673 0 0 Z " fill="#338DD7" transform="translate(300.65025329589844,463.7594909667969)"/>
<path d="M0 0 C2.86492384 -0.15137562 3.93960923 0.95261981 6.17578125 2.70703125 C6.88089844 3.40183594 7.58601563 4.09664063 8.3125 4.8125 C9.03050781 5.49957031 9.74851563 6.18664062 10.48828125 6.89453125 C12 9 12 9 12.07421875 11.0234375 C11 13 11 13 8.53125 14.70703125 C4.64220265 17.40831542 1.95447799 19.61720484 0 24 C-1.08970022 30.66689865 -1.05333358 37.35728319 -0.93945312 44.09301758 C-0.93030884 44.76884384 -0.92116455 45.4446701 -0.91174316 46.14097595 C-0.87690138 48.0149226 -0.81045272 49.88820355 -0.7421875 51.76123047 C-1.02977715 55.37407539 -1.76957503 57.16852737 -4 60 C-7.7696881 61.2565627 -11.31717743 61.18175362 -15.24609375 61.203125 C-16.45737694 61.21167511 -16.45737694 61.21167511 -17.69313049 61.22039795 C-19.40030612 61.22983834 -21.10749989 61.23637812 -22.81469727 61.24023438 C-25.42431375 61.2499509 -28.03314607 61.2809869 -30.64257812 61.3125 C-32.30207866 61.31902933 -33.96158482 61.32428007 -35.62109375 61.328125 C-36.40036728 61.3404718 -37.17964081 61.3528186 -37.98252869 61.36553955 C-41.22277164 61.35223287 -43.58383795 61.22539875 -46.46118164 59.66699219 C-50.91417454 54.84309317 -49.3065461 45.47870058 -49.35009766 39.24023438 C-49.36666642 37.50018955 -49.39396889 35.76021305 -49.43212891 34.02050781 C-49.48696881 31.50550214 -49.5087786 28.99208593 -49.5234375 26.4765625 C-49.54610687 25.70245026 -49.56877625 24.92833801 -49.59213257 24.13076782 C-49.57702019 20.25617877 -49.13579427 18.19559765 -46.90893555 14.98803711 C-43.2548714 12.49076104 -41.32409121 12.49970452 -36.93359375 12.71484375 C-35.5518371 12.75104847 -34.16999149 12.78397707 -32.78808594 12.81396484 C-32.07551636 12.83593933 -31.36294678 12.85791382 -30.62878418 12.8805542 C-18.35667403 13.5869552 -18.35667403 13.5869552 -7.36328125 9.24609375 C-5.2252051 7.17438122 -3.55116841 4.95525952 -1.890625 2.4921875 C-1.26671875 1.66976563 -0.6428125 0.84734375 0 0 Z " fill="#000101" transform="translate(129,267)"/>
<path d="M0 0 C2.86492384 -0.15137562 3.93960923 0.95261981 6.17578125 2.70703125 C6.88089844 3.40183594 7.58601563 4.09664062 8.3125 4.8125 C9.03050781 5.49957031 9.74851563 6.18664062 10.48828125 6.89453125 C12 9 12 9 12.07421875 11.0234375 C11 13 11 13 8.53125 14.70703125 C4.64220265 17.40831542 1.95447799 19.61720484 0 24 C-1.08970022 30.66689865 -1.05333358 37.35728319 -0.93945312 44.09301758 C-0.93030884 44.76884384 -0.92116455 45.4446701 -0.91174316 46.14097595 C-0.87690138 48.0149226 -0.81045272 49.88820355 -0.7421875 51.76123047 C-1.02977715 55.37407539 -1.76957503 57.16852737 -4 60 C-7.7696881 61.2565627 -11.31717743 61.18175362 -15.24609375 61.203125 C-16.45737694 61.21167511 -16.45737694 61.21167511 -17.69313049 61.22039795 C-19.40030612 61.22983834 -21.10749989 61.23637812 -22.81469727 61.24023438 C-25.42431375 61.2499509 -28.03314607 61.2809869 -30.64257812 61.3125 C-32.30207866 61.31902933 -33.96158482 61.32428007 -35.62109375 61.328125 C-36.40036728 61.3404718 -37.17964081 61.3528186 -37.98252869 61.36553955 C-41.22277164 61.35223287 -43.58383795 61.22539875 -46.46118164 59.66699219 C-50.91417454 54.84309317 -49.3065461 45.47870058 -49.35009766 39.24023438 C-49.36666642 37.50018955 -49.39396889 35.76021305 -49.43212891 34.02050781 C-49.48696881 31.50550214 -49.5087786 28.99208593 -49.5234375 26.4765625 C-49.54610687 25.70245026 -49.56877625 24.92833801 -49.59213257 24.13076782 C-49.57702019 20.25617877 -49.13579427 18.19559765 -46.90893555 14.98803711 C-43.2548714 12.49076104 -41.32409121 12.49970452 -36.93359375 12.71484375 C-35.5518371 12.75104847 -34.16999149 12.78397707 -32.78808594 12.81396484 C-32.07551636 12.83593933 -31.36294678 12.85791382 -30.62878418 12.8805542 C-18.35667403 13.5869552 -18.35667403 13.5869552 -7.36328125 9.24609375 C-5.2252051 7.17438122 -3.55116841 4.95525952 -1.890625 2.4921875 C-1.26671875 1.66976562 -0.6428125 0.84734375 0 0 Z " fill="#000101" transform="translate(129,203)"/>
<path d="M0 0 C0.80232056 -0.00004028 1.60464111 -0.00008057 2.43127441 -0.00012207 C4.12239443 0.00522359 5.8135146 0.02276578 7.50439453 0.05175781 C10.08573724 0.09362006 12.66446867 0.09282315 15.24609375 0.0859375 C16.89324721 0.09643096 18.54038728 0.10936992 20.1875 0.125 C21.3392572 0.12530212 21.3392572 0.12530212 22.51428223 0.12561035 C27.02599744 0.22473308 30.01087988 0.78722566 33.59375 3.59375 C35.18381531 6.77388063 34.77792077 10.21345657 34.796875 13.70703125 C34.80257507 14.51359665 34.80827515 15.32016205 34.81414795 16.15116882 C34.82360195 17.86012458 34.83013352 19.5690986 34.83398438 21.27807617 C34.8436732 23.88558041 34.874685 26.49229078 34.90625 29.09960938 C34.91278185 30.76041199 34.91803161 32.42122024 34.921875 34.08203125 C34.9342218 34.85928055 34.9465686 35.63652985 34.95928955 36.43733215 C34.94069428 40.98490483 34.51725081 44.03271364 31.59375 47.59375 C27.8240619 48.8503127 24.27657257 48.77550362 20.34765625 48.796875 C19.13637306 48.80542511 19.13637306 48.80542511 17.90061951 48.81414795 C16.19344388 48.82358834 14.48625011 48.83012812 12.77905273 48.83398438 C10.16943625 48.8437009 7.56060393 48.8747369 4.95117188 48.90625 C3.29167134 48.91277933 1.63216518 48.91803007 -0.02734375 48.921875 C-0.80661728 48.9342218 -1.58589081 48.9465686 -2.38877869 48.95928955 C-5.62902164 48.94598287 -7.99008795 48.81914875 -10.86743164 47.26074219 C-15.32042454 42.43684317 -13.7127961 33.07245058 -13.75634766 26.83398438 C-13.77291642 25.09393955 -13.80021889 23.35396305 -13.83837891 21.61425781 C-13.89321881 19.09925214 -13.9150286 16.58583593 -13.9296875 14.0703125 C-13.95235687 13.29620026 -13.97502625 12.52208801 -13.99838257 11.72451782 C-13.98351021 7.91146608 -13.53704249 5.78874566 -11.39892578 2.60107422 C-7.57414985 0.03562245 -4.45403041 -0.09510468 0 0 Z " fill="#000000" transform="translate(93.40625,343.40625)"/>
<path d="M0 0 C36.96 0 73.92 0 112 0 C112 5.28 112 10.56 112 16 C75.04 16 38.08 16 0 16 C0 10.72 0 5.44 0 0 Z " fill="#000000" transform="translate(144,280)"/>
<path d="M0 0 C36.96 0 73.92 0 112 0 C112 5.28 112 10.56 112 16 C75.04 16 38.08 16 0 16 C0 10.72 0 5.44 0 0 Z " fill="#000000" transform="translate(144,216)"/>
<path d="M0 0 C5.28 0 10.56 0 16 0 C16 2.64 16 5.28 16 8 C16.99 8 17.98 8 19 8 C21.42800557 14.35112664 23.84829126 20.70515512 26.26318359 27.0612793 C27.0859432 29.22406843 27.91048028 31.38618224 28.73681641 33.54760742 C29.92295675 36.65108026 31.10272357 39.75691042 32.28125 42.86328125 C32.65310425 43.83211746 33.0249585 44.80095367 33.40808105 45.79914856 C33.74843384 46.6998558 34.08878662 47.60056305 34.43945312 48.52856445 C34.7414563 49.32132278 35.04345947 50.11408112 35.35461426 50.93086243 C36 53 36 53 36 56 C29.4 56 22.8 56 16 56 C16 61.28 16 66.56 16 72 C10.72 72 5.44 72 0 72 C0 48.24 0 24.48 0 0 Z " fill="#D3D3D1" transform="translate(320,328)"/>
<path d="M0 0 C0 5.28 0 10.56 0 16 C2.64 16 5.28 16 8 16 C8 21.61 8 27.22 8 33 C6.47375 33.721875 4.9475 34.44375 3.375 35.1875 C-5.3408058 39.58842874 -10.53578648 44.96267686 -14.25 54.0625 C-15.08206626 57.32142617 -15.52433344 60.67033405 -16 64 C-21.28 64 -26.56 64 -32 64 C-32 58.72 -32 53.44 -32 48 C-29.36 48 -26.72 48 -24 48 C-24.02094727 46.91058105 -24.04189453 45.82116211 -24.06347656 44.69873047 C-24.13611865 40.63978322 -24.18188718 36.58089294 -24.21972656 32.52148438 C-24.2397871 30.76780521 -24.26704251 29.01419247 -24.30175781 27.26074219 C-24.35052302 24.73355682 -24.37302392 22.20725909 -24.390625 19.6796875 C-24.41127014 18.90132538 -24.43191528 18.12296326 -24.45318604 17.3210144 C-24.45532725 12.07426119 -23.43747028 9.18034667 -20 5 C-13.30930681 -0.89418209 -8.82394275 -0.08650924 0 0 Z " fill="#338ED7" transform="translate(152,64)"/>
<path d="M0 0 C21.12 0 42.24 0 64 0 C64 5.28 64 10.56 64 16 C42.88 16 21.76 16 0 16 C0 10.72 0 5.44 0 0 Z " fill="#000000" transform="translate(144,248)"/>
<path d="M0 0 C2.3632051 0.04519083 4.72649309 0.0862473 7.08984375 0.12304688 C12.85362284 0.22175498 18.61339442 0.37679536 24.375 0.5625 C24.375 5.8425 24.375 11.1225 24.375 16.5625 C2.595 16.5625 -19.185 16.5625 -41.625 16.5625 C-39.645 14.2525 -37.665 11.9425 -35.625 9.5625 C-35.00705566 8.69375244 -34.38911133 7.82500488 -33.75244141 6.92993164 C-25.34120799 -3.11363849 -11.89194731 -0.39474314 0 0 Z " fill="#2F85CB" transform="translate(422.625,463.4375)"/>
<path d="M0 0 C18.48 0 36.96 0 56 0 C56 5.28 56 10.56 56 16 C37.52 16 19.04 16 0 16 C0 10.72 0 5.44 0 0 Z " fill="#000000" transform="translate(144,376)"/>
<path d="M0 0 C18.48 0 36.96 0 56 0 C56 5.28 56 10.56 56 16 C37.52 16 19.04 16 0 16 C0 10.72 0 5.44 0 0 Z " fill="#000000" transform="translate(144,344)"/>
<path d="M0 0 C7.92 0 15.84 0 24 0 C24.061875 3.17625 24.12375 6.3525 24.1875 9.625 C24.21481201 10.6145166 24.24212402 11.6040332 24.27026367 12.62353516 C24.32674429 18.63234406 23.71632298 23.02194798 19.5 27.64453125 C15.51596898 30.74668041 12.79022541 32.13326401 7.76953125 32.09765625 C6.96708984 32.09443359 6.16464844 32.09121094 5.33789062 32.08789062 C4.50451172 32.07951172 3.67113281 32.07113281 2.8125 32.0625 C1.5450293 32.05573242 1.5450293 32.05573242 0.25195312 32.04882812 C-1.83206155 32.03705403 -3.91603977 32.0191189 -6 32 C-5.72285156 31.45730469 -5.44570313 30.91460937 -5.16015625 30.35546875 C-4.79792969 29.64003906 -4.43570312 28.92460937 -4.0625 28.1875 C-3.52302734 27.12595703 -3.52302734 27.12595703 -2.97265625 26.04296875 C-1.35621574 22.6477945 -0.84118949 19.82803797 -0.68359375 16.11328125 C-0.64548584 15.26805908 -0.60737793 14.42283691 -0.56811523 13.55200195 C-0.52501221 12.48296631 -0.48190918 11.41393066 -0.4375 10.3125 C-0.293125 6.909375 -0.14875 3.50625 0 0 Z " fill="#D4D4D2" transform="translate(456,288)"/>
<path d="M0 0 C5.28 0 10.56 0 16 0 C16 2.64 16 5.28 16 8 C16.99 8 17.98 8 19 8 C19.8394882 10.10171867 20.67139656 12.20646625 21.5 14.3125 C21.9640625 15.48425781 22.428125 16.65601563 22.90625 17.86328125 C24 21 24 21 24 24 C18.72 24 13.44 24 8 24 C8 34.56 8 45.12 8 56 C5.36 56 2.72 56 0 56 C0 37.52 0 19.04 0 0 Z " fill="#C6C6C4" transform="translate(320,328)"/>
<path d="M0 0 C13.2 0 26.4 0 40 0 C40 5.28 40 10.56 40 16 C26.8 16 13.6 16 0 16 C0 10.72 0 5.44 0 0 Z " fill="#000000" transform="translate(144,312)"/>
<path d="M0 0 C9.24 0 18.48 0 28 0 C24.32750234 4.2845806 20.81271048 8.31480095 16.85546875 12.27734375 C15.93185547 13.20224609 15.00824219 14.12714844 14.05664062 15.08007812 C13.58589111 15.54873291 13.1151416 16.0173877 12.63012695 16.50024414 C11.16953741 17.95539571 9.71446797 19.41591857 8.25976562 20.87695312 C7.34259766 21.79283203 6.42542969 22.70871094 5.48046875 23.65234375 C4.64410889 24.48757568 3.80774902 25.32280762 2.94604492 26.18334961 C1 28 1 28 0 28 C0 18.76 0 9.52 0 0 Z " fill="#9EE3EC" transform="translate(232,376)"/>
<path d="M0 0 C2.64 0 5.28 0 8 0 C8 15.84 8 31.68 8 48 C5.36 48 2.72 48 0 48 C0 32.16 0 16.32 0 0 Z " fill="#D6D6D4" transform="translate(320,280)"/>
<path d="M0 0 C5.28 0 10.56 0 16 0 C16 10.89 16 21.78 16 33 C14.46352175 30.69528263 13.33773241 28.66906524 12.1875 26.1875 C8.7683007 19.3365308 4.73081664 15.43139672 -2 12 C-1.34 11.67 -0.68 11.34 0 11 C0 7.37 0 3.74 0 0 Z " fill="#338ED7" transform="translate(304,120)"/>
<path d="M0 0 C5.28 0 10.56 0 16 0 C16 5.28 16 10.56 16 16 C10.72 16 5.44 16 0 16 C0 10.72 0 5.44 0 0 Z " fill="#E0E0DE" transform="translate(320,384)"/>
<path d="M0 0 C5.28 0 10.56 0 16 0 C16 5.28 16 10.56 16 16 C10.72 16 5.44 16 0 16 C0 10.72 0 5.44 0 0 Z " fill="#60D1E0" transform="translate(96,360)"/>
<path d="M0 0 C5.28 0 10.56 0 16 0 C16 5.28 16 10.56 16 16 C10.72 16 5.44 16 0 16 C0 10.72 0 5.44 0 0 Z " fill="#348FD9" transform="translate(272,112)"/>
<path d="M0 0 C5.28 0 10.56 0 16 0 C16 5.28 16 10.56 16 16 C10.72 16 5.44 16 0 16 C0 10.72 0 5.44 0 0 Z " fill="#000000" transform="translate(240,104)"/>
<path d="M0 0 C5.28 0 10.56 0 16 0 C16 5.28 16 10.56 16 16 C10.72 16 5.44 16 0 16 C0 10.72 0 5.44 0 0 Z " fill="#000000" transform="translate(208,96)"/>
<path d="M0 0 C5.28 0 10.56 0 16 0 C16 5.28 16 10.56 16 16 C10.72 16 5.44 16 0 16 C0 10.72 0 5.44 0 0 Z " fill="#000000" transform="translate(248,48)"/>
<path d="M0 0 C5.28 0 10.56 0 16 0 C16 5.28 16 10.56 16 16 C10.72 16 5.44 16 0 16 C0 10.72 0 5.44 0 0 Z " fill="#000000" transform="translate(216,48)"/>
<path d="M0 0 C5.28 0 10.56 0 16 0 C16 5.28 16 10.56 16 16 C10.72 16 5.44 16 0 16 C0 10.72 0 5.44 0 0 Z " fill="#000000" transform="translate(184,48)"/>
<path d="M0 0 C9.08667288 -0.48462255 9.08667288 -0.48462255 13.0625 1.625 C15.46674753 4.57214213 16.07770141 6.19263092 16 10 C14.22960551 12.74716387 12.93708156 14.53145922 10 16 C8.29297265 16.06996014 6.58331997 16.08440154 4.875 16.0625 C3.26625 16.041875 1.6575 16.02125 0 16 C0 10.72 0 5.44 0 0 Z " fill="#2F83C9" transform="translate(463,464)"/>
<path d="M0 0 C1.32 0.33 2.64 0.66 4 1 C5.03515625 2.828125 5.03515625 2.828125 6 5 C7.60267119 6.9529296 7.60267119 6.9529296 9.4375 8.75 C10.03433594 9.36359375 10.63117188 9.9771875 11.24609375 10.609375 C13.01874136 12.31064194 13.01874136 12.31064194 16 12 C16 13.32 16 14.64 16 16 C10.72 16 5.44 16 0 16 C0 10.72 0 5.44 0 0 Z " fill="#5CC8D7" transform="translate(96,296)"/>
<path d="M0 0 C1.32 0.33 2.64 0.66 4 1 C5.03515625 2.828125 5.03515625 2.828125 6 5 C7.60267119 6.9529296 7.60267119 6.9529296 9.4375 8.75 C10.03433594 9.36359375 10.63117188 9.9771875 11.24609375 10.609375 C13.01874136 12.31064194 13.01874136 12.31064194 16 12 C16 13.32 16 14.64 16 16 C10.72 16 5.44 16 0 16 C0 10.72 0 5.44 0 0 Z " fill="#5CC8D7" transform="translate(96,232)"/>
<path d="M0 0 C2.64 0 5.28 0 8 0 C8 5.28 8 10.56 8 16 C5.36 16 2.72 16 0 16 C0 10.72 0 5.44 0 0 Z " fill="#D6D6D4" transform="translate(320,384)"/>
<path d="M0 0 C5.28 0 10.56 0 16 0 C16 2.64 16 5.28 16 8 C10.72 8 5.44 8 0 8 C0 5.36 0 2.72 0 0 Z " fill="#348FD9" transform="translate(240,120)"/>
</svg>
