<svg width="33" height="32" viewBox="0 0 33 32" fill="none" xmlns="http://www.w3.org/2000/svg">
    <path d="M10.337 15.506h-.75.75zm0 1.235-.562.497a.75.75 0 0 0 1.081.044l-.52-.541zm2.682-1.533a.75.75 0 1 0-1.038-1.082l1.038 1.082zM9.062 14.17a.75.75 0 1 0-1.123.994l1.123-.994zm11.53-2.327a.75.75 0 1 0 1.102-1.019l-1.101 1.019zm-4.034-3.26c-3.844 0-6.971 3.094-6.971 6.923h1.5c0-2.99 2.444-5.422 5.471-5.422v-1.5zm-6.971 6.923v1.235h1.5v-1.235h-1.5zm1.269 1.776 2.163-2.074-1.038-1.082L9.818 16.2l1.038 1.082zm.042-1.038L9.062 14.17l-1.123.994 1.836 2.074 1.123-.994zm10.796-5.42a6.977 6.977 0 0 0-5.136-2.24v1.5c1.598 0 3.034.677 4.035 1.759l1.1-1.019zM22.658 15.26l.561-.499a.75.75 0 0 0-1.08-.043l.52.541zm-2.677 1.531a.75.75 0 1 0 1.039 1.082l-1.04-1.082zm3.958 1.04a.75.75 0 1 0 1.122-.997l-1.122.996zM12.38 20.176a.75.75 0 0 0-1.094 1.027l1.094-1.027zm4.033 3.24c3.855 0 6.995-3.091 6.995-6.923h-1.5c0 2.987-2.452 5.423-5.495 5.423v1.5zm6.995-6.923v-1.235h-1.5v1.235h1.5zm-1.27-1.776-2.157 2.073 1.039 1.082 2.158-2.073-1.04-1.082zm-.04 1.04 1.841 2.072 1.122-.996-1.842-2.073-1.121.996zm-10.811 5.446a7.012 7.012 0 0 0 5.126 2.213v-1.5c-1.595 0-3.029-.67-4.033-1.74l-1.094 1.027z" fill="#fff"/>
</svg>
