<svg width="340" height="340" viewBox="0 0 340 340" fill="none" xmlns="http://www.w3.org/2000/svg">
<path d="M112.553 47.5319C112.553 47.5319 62.4035 73.0863 37.3999 112.465C12.3963 151.844 14.3479 202.463 44.7507 240.081C75.1535 277.698 133.246 272.721 181.893 296.555C230.54 320.389 284.24 315.472 307.217 265.01C330.194 214.547 295.535 195.69 289.537 137.292C283.539 78.8935 230.969 -6.62326 112.553 47.5319Z" fill="#4057A2"/>
<path opacity="0.7" d="M112.553 47.5319C112.553 47.5319 62.4035 73.0863 37.3999 112.465C12.3963 151.844 14.3479 202.463 44.7507 240.081C75.1535 277.698 133.246 272.721 181.893 296.555C230.54 320.389 284.24 315.472 307.217 265.01C330.194 214.547 295.535 195.69 289.537 137.292C283.539 78.8935 230.969 -6.62326 112.553 47.5319Z" fill="white"/>
<path d="M175.984 322.177C250.565 322.177 311.025 319.361 311.025 315.887C311.025 312.413 250.565 309.597 175.984 309.597C101.403 309.597 40.9429 312.413 40.9429 315.887C40.9429 319.361 101.403 322.177 175.984 322.177Z" fill="#263238"/>
<path d="M267.417 26.3431C268.383 27.9615 271.871 30.3347 271.871 30.3415C271.871 30.3483 272.742 27.5671 272.776 27.3835C273.143 25.2687 272.619 20.9643 270.498 19.8423C270.139 19.664 269.748 19.5633 269.348 19.5468C268.948 19.5304 268.549 19.5985 268.178 19.7468C267.806 19.8951 267.47 20.1201 267.191 20.4073C266.912 20.6944 266.697 21.0372 266.56 21.4131C265.928 22.9907 266.594 24.9695 267.417 26.3431Z" fill="#263238"/>
<path d="M301.607 51.9112C301.607 51.952 303.858 50.0752 303.987 49.9392C305.463 48.382 307.387 44.4992 306.252 42.398C306.051 42.0524 305.779 41.7531 305.455 41.5196C305.131 41.286 304.761 41.1235 304.369 41.0427C303.978 40.9618 303.574 40.9644 303.183 41.0503C302.793 41.1362 302.425 41.3035 302.104 41.5412C300.703 42.5 300.166 44.5196 300.064 46.1244C300.003 48.0012 301.607 51.9112 301.607 51.9112Z" fill="#263238"/>
<path d="M261.494 37.1415C262.8 38.3927 266.499 39.6915 266.792 39.7935C266.045 41.8993 265.44 44.053 264.983 46.2399C264.704 47.5115 264.466 48.8103 264.242 50.1091C264.242 49.5039 264.242 48.9531 264.242 48.8783C264.044 46.7431 262.406 42.7583 260.053 42.2075C259.659 42.1285 259.253 42.1336 258.861 42.2226C258.469 42.3116 258.101 42.4824 257.78 42.7239C257.459 42.9653 257.192 43.2719 256.998 43.6236C256.804 43.9753 256.686 44.364 256.653 44.7643C256.456 46.4507 257.618 48.1643 258.774 49.2931C259.93 50.4219 263.079 51.5915 263.915 51.8907C263.834 52.3939 263.745 52.8903 263.67 53.3935C263.296 55.7939 262.929 58.1535 262.501 60.5335C262.351 61.3563 262.174 62.1655 261.998 62.9679C261.998 62.4307 261.998 61.9751 261.998 61.9071C261.8 59.7651 260.162 55.7871 257.816 55.2295C257.422 55.1516 257.016 55.1576 256.625 55.247C256.233 55.3364 255.865 55.5073 255.544 55.7486C255.224 55.9898 254.957 56.296 254.763 56.6471C254.568 56.9982 254.45 57.3864 254.416 57.7863C254.218 59.4727 255.381 61.1863 256.537 62.3219C257.693 63.4575 260.542 64.5047 261.528 64.8651C261.324 65.6811 261.12 66.5107 260.882 67.2927C260.712 67.8299 260.583 68.3535 260.379 68.8839L259.808 70.4411C259.414 71.4203 259.012 72.4335 258.598 73.3787C258.319 74.0587 258.04 74.6639 257.761 75.2895C257.918 74.4735 258.196 72.8619 258.203 72.7259C258.332 70.5839 257.319 66.3679 255.075 65.4975C254.698 65.3637 254.296 65.3111 253.897 65.3433C253.498 65.3755 253.11 65.4917 252.758 65.6843C252.407 65.8769 252.101 66.1416 251.859 66.461C251.617 66.7804 251.446 67.1472 251.356 67.5375C250.9 69.1763 251.791 71.0667 252.763 72.3383C253.838 73.7391 257.156 75.5275 257.571 75.7383C257.102 76.7719 256.639 77.7783 256.211 78.7235C254.905 81.4435 253.695 83.7759 252.729 85.5235L254.042 86.4619C254.987 84.6327 256.197 82.2051 257.503 79.3083C257.986 78.2611 258.475 77.1255 258.965 75.9559C260.144 76.2479 261.338 76.4749 262.542 76.6359C262.766 78.4311 264.425 81.5319 264.643 81.9331C263.677 82.5451 262.739 83.1231 261.841 83.6603C259.284 85.1971 257.04 86.4347 255.279 87.3731L256.707 88.3931C258.353 87.4547 260.352 86.2851 262.582 84.8775C263.568 84.2587 264.622 83.5855 265.656 82.8783C265.969 83.2183 268.546 85.9791 270.171 86.6659C271.654 87.2915 273.707 87.6723 275.176 86.8223C275.528 86.6334 275.836 86.3725 276.08 86.0567C276.325 85.741 276.5 85.3773 276.595 84.9894C276.69 84.6015 276.702 84.198 276.631 83.805C276.56 83.412 276.407 83.0384 276.182 82.7083C274.775 80.7567 270.436 80.8451 268.396 81.5047C268.274 81.5455 267.036 82.1167 266.227 82.4907C266.662 82.2051 267.077 81.9263 267.519 81.6203C268.39 81.0287 269.246 80.4099 270.164 79.7435L271.477 78.7235C271.919 78.3971 272.347 77.9891 272.796 77.6219C273.802 76.7379 274.782 75.7995 275.747 74.8339C276.271 75.5955 278.168 78.2747 279.542 79.1179C280.915 79.9611 282.88 80.6411 284.458 80.0223C284.835 79.8906 285.18 79.6806 285.471 79.4062C285.761 79.1317 285.99 78.799 286.143 78.4298C286.296 78.0607 286.369 77.6634 286.357 77.264C286.346 76.8646 286.25 76.4721 286.076 76.1123C284.982 73.9771 280.684 73.3923 278.562 73.7459C278.433 73.7459 276.944 74.1879 276.128 74.4259C276.699 73.8343 277.277 73.2563 277.842 72.6443C279.467 70.8763 281.058 69.0335 282.656 67.2043L284.132 65.5383C284.315 65.8103 286.498 69.0471 288.035 69.9923C289.395 70.8287 291.38 71.5155 292.958 70.8967C293.334 70.7632 293.677 70.5522 293.967 70.2774C294.256 70.0027 294.484 69.6702 294.637 69.3016C294.789 68.9331 294.863 68.5366 294.852 68.1378C294.842 67.739 294.748 67.3469 294.576 66.9867C293.482 64.8447 289.184 64.2667 287.062 64.6203C286.906 64.6203 284.757 65.2527 284.22 65.4363C285.301 64.2123 286.396 63.0087 287.518 61.8595C289.05 60.3069 290.68 58.8554 292.4 57.5143C292.489 57.6435 294.753 61.0299 296.331 61.9955C297.691 62.8319 299.67 63.5187 301.254 62.8999C301.63 62.7673 301.975 62.5568 302.265 62.2822C302.554 62.0076 302.783 61.675 302.936 61.3061C303.088 60.9373 303.162 60.5404 303.151 60.1413C303.14 59.7422 303.045 59.3499 302.872 58.9899C301.771 56.8547 297.473 56.2699 295.358 56.6235C295.216 56.6235 293.584 57.1131 292.808 57.3511L292.747 57.2287C294.493 55.9186 296.352 54.767 298.303 53.7879C299.37 53.2303 300.418 52.7679 301.451 52.3327C301.812 53.0127 303.491 56.0659 304.797 57.0927C306.102 58.1195 307.952 58.9763 309.591 58.5343C309.98 58.445 310.346 58.2744 310.665 58.0338C310.983 57.7932 311.248 57.4879 311.44 57.138C311.633 56.7882 311.749 56.4016 311.782 56.0035C311.815 55.6055 311.763 55.205 311.631 54.8283C310.774 52.5775 306.565 51.5371 304.423 51.6527C304.307 51.6527 303.124 51.8499 302.267 52.0063C302.736 51.8159 303.219 51.6119 303.675 51.4419C305.368 50.7619 306.966 50.3063 308.38 49.8847C309.19 49.6535 309.924 49.4563 310.611 49.2795C311.291 49.7623 314.14 51.6527 315.752 51.9519C317.363 52.2511 319.417 52.1695 320.668 51.0203C320.971 50.761 321.217 50.4407 321.388 50.0802C321.559 49.7198 321.653 49.3273 321.663 48.9283C321.672 48.5293 321.598 48.1328 321.444 47.7645C321.29 47.3962 321.06 47.0644 320.77 46.7907C318.975 45.1927 314.759 46.2059 312.909 47.2939C312.753 47.3891 310.42 49.1435 310.454 49.1707H310.495C309.815 49.3271 309.135 49.5039 308.34 49.7079C306.912 50.0955 305.3 50.5511 303.58 51.1631C301.725 51.807 299.909 52.5563 298.14 53.4071C296.13 54.3605 294.209 55.4916 292.4 56.7867L292.339 56.8343C292.754 56.2699 293.876 54.6447 293.944 54.5087C294.957 52.6183 295.807 48.3887 294.134 46.6343C293.849 46.3559 293.508 46.1406 293.134 46.0023C292.76 45.8639 292.36 45.8057 291.962 45.8313C291.564 45.857 291.176 45.9659 290.823 46.1511C290.47 46.3363 290.159 46.5936 289.912 46.9063C288.817 48.2051 288.83 50.3063 289.177 51.8567C289.578 53.6247 291.945 56.7459 292.135 56.9975C290.344 58.3479 288.645 59.8153 287.049 61.3903C286.117 62.3015 285.206 63.2535 284.329 64.2123C284.676 63.7159 285.009 63.2603 285.009 63.1991C286.022 61.3019 286.872 57.0791 285.199 55.3179C284.913 55.0395 284.573 54.8242 284.198 54.6859C283.824 54.5475 283.425 54.4893 283.027 54.5149C282.629 54.5406 282.241 54.6495 281.888 54.8347C281.534 55.0199 281.224 55.2772 280.976 55.5899C279.875 56.8887 279.895 58.9899 280.242 60.5403C280.589 62.0907 282.568 64.8311 283.098 65.5451C282.751 65.9123 282.418 66.2863 282.064 66.6603C280.432 68.4555 278.807 70.2507 277.155 71.9711C276.577 72.5763 275.978 73.1475 275.387 73.7255C275.693 73.2767 275.951 72.9027 275.985 72.8415C276.998 70.9443 277.842 66.7215 276.169 64.9671C275.884 64.6874 275.544 64.4707 275.17 64.3312C274.796 64.1917 274.397 64.1325 273.998 64.1575C273.6 64.1825 273.211 64.2912 272.858 64.4764C272.504 64.6616 272.193 64.9191 271.946 65.2323C270.851 66.5311 270.865 68.6323 271.218 70.1827C271.572 71.7331 273.347 74.2151 273.938 75.0583C273.32 75.6295 272.694 76.2075 272.062 76.7311C271.62 77.0847 271.225 77.4519 270.763 77.7783L269.403 78.7643C268.532 79.3627 267.635 79.9883 266.771 80.5459C266.173 80.9403 265.595 81.3075 265.017 81.6815C265.602 81.0831 266.724 79.8931 266.805 79.7843C267.88 78.2311 268.54 76.4286 268.723 74.5483C268.85 74.3825 268.962 74.2049 269.056 74.0179C269.246 73.6662 269.36 73.2783 269.39 72.8796C269.421 72.4809 269.367 72.0802 269.232 71.7037C269.097 71.3272 268.885 70.9833 268.608 70.6943C268.332 70.4053 267.998 70.1777 267.628 70.0263C265.377 69.1831 261.814 71.6447 260.474 73.3243C260.393 73.4195 259.658 74.5959 259.21 75.3643C259.407 74.8815 259.604 74.4191 259.808 73.9227C260.202 72.9435 260.576 71.9575 260.978 70.8967C261.148 70.3799 261.331 69.8563 261.508 69.3259C261.685 68.7955 261.828 68.2311 261.998 67.6735C262.351 66.3883 262.678 65.0623 262.922 63.7227C263.779 64.0695 266.839 65.2595 268.451 65.2051C270.062 65.1507 272.136 64.5999 273.116 63.2399C273.356 62.9214 273.528 62.5557 273.618 62.1666C273.708 61.7776 273.715 61.3739 273.639 60.9819C273.562 60.5899 273.404 60.2184 273.175 59.8916C272.945 59.5647 272.649 59.29 272.306 59.0851C270.212 57.9019 266.309 59.7651 264.738 61.2543C264.636 61.3495 263.623 62.5191 263.079 63.1787C263.242 62.3695 263.398 61.5671 263.534 60.7443C263.915 58.3711 264.214 55.9843 264.548 53.5567C264.643 52.8155 264.752 52.0879 264.854 51.3535C265.16 51.4759 268.764 52.9719 270.572 52.9107C272.17 52.8563 274.197 52.3395 275.176 50.9523C275.416 50.6329 275.586 50.2666 275.676 49.8772C275.765 49.4878 275.772 49.084 275.696 48.6917C275.62 48.2995 275.462 47.9277 275.233 47.6002C275.004 47.2728 274.709 46.997 274.367 46.7907C272.272 45.6143 268.369 47.5115 266.798 48.9667C266.676 49.0755 265.221 50.7687 264.874 51.2175C265.105 49.5991 265.35 47.9875 265.656 46.4167C266.045 44.2853 266.574 42.1818 267.24 40.1199C267.383 40.1811 271.137 41.7519 272.986 41.6907C274.584 41.6363 276.611 41.1195 277.59 39.7323C277.831 39.4138 278.002 39.0481 278.092 38.659C278.182 38.27 278.189 37.8663 278.113 37.4743C278.037 37.0823 277.878 36.7108 277.649 36.3839C277.419 36.0571 277.124 35.7824 276.781 35.5775C274.686 34.4011 270.783 36.2915 269.212 37.7467C269.11 37.8419 267.995 39.1067 267.485 39.7867L267.363 39.7187C268.092 37.6635 269.002 35.6769 270.083 33.7823C270.668 32.7351 271.286 31.7423 271.905 30.8311C272.585 31.1983 275.659 32.8303 277.345 32.9595C279.032 33.0887 281.017 32.7895 282.139 31.5179C282.413 31.2273 282.623 30.8823 282.756 30.5052C282.888 30.1282 282.939 29.7275 282.907 29.3293C282.874 28.931 282.758 28.5442 282.566 28.1937C282.374 27.8433 282.11 27.5371 281.792 27.2951C279.841 25.8943 275.754 27.3495 274.027 28.6551C273.932 28.7231 273.054 29.5323 272.429 30.1375C272.714 29.7227 273.007 29.2875 273.286 28.8931C274.346 27.4175 275.407 26.1255 276.359 24.9967C276.903 24.3575 277.406 23.7863 277.882 23.2627C278.732 23.2627 282.132 23.2627 283.642 22.6507C285.152 22.0387 286.824 20.8079 287.232 19.1623C287.342 18.7785 287.37 18.3759 287.314 17.9806C287.258 17.5853 287.119 17.2063 286.907 16.8682C286.694 16.5301 286.413 16.2406 286.081 16.0184C285.75 15.7962 285.375 15.6464 284.982 15.5787C282.602 15.2387 279.644 18.4075 278.705 20.3387C278.624 20.5019 277.644 23.2559 277.692 23.2559H277.74C277.27 23.7523 276.774 24.2963 276.237 24.8947C275.264 26.0031 274.197 27.2747 273.075 28.7367C271.878 30.2968 270.772 31.9247 269.763 33.6123C268.623 35.498 267.656 37.4826 266.873 39.5419C266.869 39.5667 266.869 39.592 266.873 39.6167C266.914 38.9367 266.948 36.9443 266.934 36.7879C266.737 34.6527 265.098 30.6679 262.752 30.1171C262.358 30.0381 261.952 30.0432 261.561 30.1322C261.169 30.2212 260.8 30.392 260.479 30.6335C260.158 30.8749 259.892 31.1815 259.698 31.5332C259.503 31.8848 259.386 32.2736 259.352 32.6739C259.176 34.2923 260.338 36.0399 261.494 37.1415Z" fill="#263238"/>
<path d="M198.479 61.3358C200.247 60.6558 203.239 57.6978 203.239 57.6978C203.239 57.6978 200.675 56.3378 200.519 56.263C198.513 55.5082 194.188 55.2294 192.692 57.113C192.452 57.4318 192.283 57.7974 192.194 58.186C192.105 58.5747 192.099 58.9777 192.176 59.3689C192.252 59.7601 192.411 60.1307 192.64 60.4567C192.87 60.7827 193.165 61.0567 193.508 61.261C194.902 62.179 196.976 61.8798 198.479 61.3358Z" fill="#263238"/>
<path d="M229.915 32.4564C229.963 32.4564 228.555 29.8996 228.419 29.7364C227.161 27.9956 223.707 25.3776 221.422 26.1188C221.046 26.2527 220.702 26.4645 220.413 26.7402C220.124 27.0159 219.896 27.3494 219.745 27.7189C219.594 28.0884 219.522 28.4858 219.534 28.8849C219.547 29.2841 219.643 29.6762 219.817 30.0356C220.497 31.5928 222.387 32.4972 223.951 32.8644C225.76 33.32 229.915 32.4564 229.915 32.4564Z" fill="#263238"/>
<path d="M207.992 69.1491C209.467 68.0951 211.426 64.7019 211.582 64.4299C213.52 65.5547 215.53 66.5497 217.6 67.4083C218.804 67.9183 220.034 68.3875 221.272 68.8499C220.674 68.7207 220.136 68.6119 220.062 68.6051C217.926 68.4079 213.676 69.2851 212.731 71.4951C212.585 71.8665 212.519 72.2645 212.537 72.6632C212.554 73.0619 212.656 73.4524 212.834 73.8095C213.012 74.1666 213.263 74.4822 213.571 74.736C213.879 74.9898 214.237 75.1761 214.622 75.2827C216.24 75.7859 218.164 74.9631 219.47 74.0315C220.776 73.0999 222.523 70.2235 222.965 69.4619L224.393 69.9787C226.685 70.7879 228.976 71.5903 231.193 72.4403C231.975 72.7463 232.73 73.0659 233.492 73.3923C232.968 73.2767 232.519 73.1883 232.451 73.1815C230.309 72.9843 226.066 73.8615 225.121 76.0647C224.973 76.436 224.904 76.8344 224.92 77.2338C224.937 77.6333 225.037 78.0249 225.215 78.383C225.392 78.741 225.644 79.0576 225.952 79.312C226.26 79.5663 226.619 79.7528 227.004 79.8591C228.63 80.3623 230.547 79.5395 231.853 78.6079C233.158 77.6763 234.736 75.0787 235.253 74.1743C236.021 74.5279 236.796 74.8543 237.524 75.2555C238.014 75.5275 238.51 75.7519 238.993 76.0511L240.421 76.8943C241.312 77.4655 242.23 78.0435 243.08 78.6215C243.678 79.0227 244.242 79.4103 244.807 79.8047C244.032 79.4987 242.502 78.9275 242.366 78.8935C240.285 78.3699 235.953 78.5875 234.682 80.6343C234.481 80.9787 234.355 81.3616 234.311 81.758C234.268 82.1543 234.309 82.5554 234.43 82.9351C234.552 83.3147 234.753 83.6645 235.019 83.9617C235.284 84.2588 235.61 84.4967 235.974 84.6599C237.504 85.4079 239.523 84.8843 240.958 84.1635C242.529 83.3679 244.902 80.4371 245.194 80.0835C246.126 80.7635 247.03 81.3755 247.874 81.9943C250.328 83.7895 252.375 85.3943 253.932 86.6727L255.095 85.5643C253.47 84.2927 251.308 82.6539 248.703 80.8043C247.758 80.1243 246.731 79.4443 245.67 78.7643C246.173 77.6581 246.609 76.5227 246.976 75.3643C248.785 75.4731 252.137 74.4123 252.572 74.2763C252.994 75.3303 253.395 76.3639 253.756 77.3499C254.789 80.1447 255.592 82.5791 256.19 84.4831L257.455 83.2659C256.843 81.4775 256.054 79.2947 255.082 76.8399C254.66 75.7655 254.191 74.6231 253.688 73.4399C254.082 73.1951 257.271 71.1755 258.244 69.6999C259.128 68.3399 259.882 66.4087 259.318 64.8107C259.198 64.4298 258.999 64.0784 258.734 63.7795C258.469 63.4806 258.144 63.2409 257.78 63.076C257.417 62.9111 257.022 62.8247 256.623 62.8225C256.223 62.8203 255.828 62.9023 255.462 63.0631C253.286 64.0831 252.572 68.3603 252.851 70.4887C252.851 70.6179 253.191 71.9575 253.416 72.8007C253.212 72.3247 253.014 71.8623 252.797 71.3727C252.375 70.4071 251.92 69.4551 251.437 68.4283C251.192 67.9387 250.934 67.4491 250.682 66.9527C250.43 66.4563 250.118 65.9599 249.839 65.4499C249.159 64.3007 248.418 63.1651 247.642 62.0499C248.492 61.6759 251.478 60.3091 252.559 59.1123C253.64 57.9155 254.674 56.1135 254.354 54.4475C254.294 54.0525 254.151 53.6746 253.935 53.3385C253.719 53.0024 253.435 52.7156 253.101 52.4968C252.766 52.278 252.39 52.1321 251.995 52.0687C251.601 52.0053 251.197 52.0257 250.811 52.1287C248.506 52.8087 247.146 56.9295 247.098 59.0783C247.098 59.2143 247.234 60.7579 247.323 61.6011C246.854 60.9211 246.391 60.2411 245.895 59.5611C244.453 57.6367 242.944 55.7327 241.441 53.8287C240.978 53.2439 240.523 52.6591 240.081 52.0675C240.38 51.9383 243.964 50.3879 245.174 49.0551C246.248 47.8651 247.289 46.0495 246.976 44.3835C246.915 43.9884 246.772 43.6105 246.555 43.2746C246.338 42.9387 246.053 42.6523 245.718 42.4341C245.383 42.2159 245.006 42.0708 244.611 42.0083C244.216 41.9459 243.812 41.9674 243.426 42.0715C241.128 42.7515 239.768 46.8723 239.72 49.0211C239.72 49.1775 239.918 51.4011 239.992 51.9655C238.993 50.6735 238.007 49.3747 237.089 48.0623C235.837 46.2906 234.701 44.4393 233.689 42.5203C233.825 42.4591 237.578 40.8611 238.816 39.4875C239.89 38.3043 240.931 36.4887 240.618 34.8227C240.556 34.4279 240.412 34.0506 240.195 33.715C239.978 33.3794 239.693 33.0931 239.359 32.8745C239.024 32.656 238.647 32.51 238.253 32.4462C237.858 32.3824 237.455 32.402 237.068 32.5039C234.763 33.1839 233.41 37.3115 233.362 39.4535C233.362 39.5963 233.505 41.2895 233.6 42.0919L233.464 42.1327C232.501 40.1662 231.714 38.1182 231.112 36.0127C230.765 34.8635 230.5 33.7483 230.262 32.6535C230.996 32.4223 234.308 31.3479 235.566 30.2395C236.824 29.1311 238 27.5195 237.864 25.7991C237.85 25.3976 237.752 25.0036 237.575 24.6429C237.398 24.2821 237.147 23.9629 236.838 23.706C236.529 23.4492 236.17 23.2605 235.783 23.1525C235.396 23.0444 234.991 23.0194 234.593 23.0791C232.227 23.5075 230.432 27.4515 230.146 29.5799C230.146 29.6955 230.098 30.8923 230.092 31.7627C229.996 31.2663 229.881 30.7563 229.799 30.2803C229.473 28.4851 229.289 26.8327 229.119 25.3639C229.038 24.5207 228.983 23.7659 228.936 23.0587C229.534 22.4603 231.921 20.0327 232.506 18.4959C233.09 16.9591 233.403 14.9327 232.506 13.4911C232.306 13.1449 232.037 12.8446 231.714 12.6097C231.391 12.3748 231.022 12.2106 230.631 12.1279C230.24 12.0451 229.836 12.0456 229.446 12.1294C229.055 12.2131 228.687 12.3782 228.364 12.6139C226.46 14.0827 226.678 18.4143 227.406 20.4339C227.467 20.6039 228.766 23.2219 228.8 23.1947L228.834 23.1539C228.834 23.8339 228.902 24.5751 228.963 25.3707C229.085 26.8463 229.235 28.5191 229.52 30.3211C229.804 32.2677 230.203 34.1956 230.717 36.0943C231.276 38.2241 232.025 40.2996 232.954 42.2959L232.995 42.3639C232.512 41.8471 231.125 40.4531 231.01 40.3239C229.337 38.9639 225.311 37.3591 223.305 38.6851C222.977 38.9134 222.701 39.2082 222.495 39.5504C222.289 39.8925 222.157 40.2744 222.108 40.6709C222.059 41.0674 222.095 41.4698 222.212 41.8517C222.329 42.2337 222.526 42.5866 222.788 42.8875C223.863 44.1999 225.916 44.5739 227.548 44.5127C229.357 44.4515 232.866 42.7039 233.145 42.5611C234.145 44.5718 235.281 46.512 236.545 48.3683C237.266 49.4563 238.034 50.5239 238.809 51.5915C238.381 51.1563 238 50.7755 237.939 50.7279C236.266 49.3679 232.24 47.7631 230.234 49.0891C229.907 49.3174 229.631 49.6122 229.424 49.9544C229.218 50.2965 229.086 50.6783 229.037 51.0749C228.989 51.4714 229.024 51.8738 229.141 52.2557C229.258 52.6377 229.455 52.9906 229.718 53.2915C230.792 54.6039 232.846 54.9779 234.478 54.9235C236.11 54.8691 239.122 53.4343 239.918 53.0399C240.224 53.4479 240.516 53.8559 240.822 54.2571C242.284 56.2019 243.753 58.1331 245.133 60.0643C245.623 60.7443 246.078 61.4243 246.534 62.1043L245.779 61.3495C244.106 59.9895 240.081 58.3915 238.075 59.7107C237.747 59.939 237.471 60.2338 237.265 60.576C237.058 60.9182 236.927 61.2999 236.878 61.6965C236.829 62.093 236.864 62.4954 236.982 62.8773C237.099 63.2593 237.295 63.6122 237.558 63.9131C238.626 65.2323 240.686 65.6063 242.318 65.5451C243.95 65.4839 246.67 64.1851 247.615 63.7363C248.064 64.4571 248.513 65.1779 248.914 65.8919C249.172 66.3883 249.458 66.8507 249.696 67.3607C249.934 67.8707 250.186 68.3603 250.424 68.8567C250.852 69.8223 251.294 70.8151 251.688 71.7671C251.967 72.4471 252.219 73.0659 252.477 73.7051C252.001 73.0251 251.036 71.6651 250.947 71.5971C249.619 70.2523 247.968 69.2692 246.153 68.7411C246.014 68.5849 245.859 68.4436 245.691 68.3195C245.38 68.0681 245.019 67.8852 244.633 67.7827C244.246 67.6801 243.843 67.6603 243.448 67.7245C243.053 67.7887 242.676 67.9354 242.342 68.1551C242.008 68.3748 241.724 68.6626 241.509 68.9995C240.264 71.0395 242.019 75.0175 243.426 76.6359C243.508 76.7311 244.528 77.6695 245.174 78.2543C244.739 77.9687 244.324 77.6899 243.875 77.4043C242.984 76.8331 242.08 76.2823 241.114 75.6975L239.666 74.8815C239.19 74.5959 238.646 74.3579 238.136 74.0995C236.932 73.5079 235.688 72.9707 234.423 72.4539C234.92 71.6787 236.654 68.8907 236.898 67.2995C237.143 65.7083 237.007 63.6275 235.824 62.4103C235.557 62.1133 235.23 61.8758 234.865 61.7133C234.5 61.5507 234.105 61.4667 233.706 61.4667C233.306 61.4667 232.911 61.5507 232.546 61.7133C232.182 61.8758 231.855 62.1133 231.588 62.4103C230.044 64.2531 231.186 68.4351 232.329 70.2507C232.397 70.3663 233.369 71.6107 233.913 72.2295C233.145 71.9303 232.383 71.6243 231.601 71.3387C229.344 70.5295 227.032 69.7747 224.726 69.0131L222.618 68.3331C222.795 68.0611 224.93 64.7903 225.202 63.0019C225.44 61.4175 225.311 59.3299 224.128 58.1195C223.861 57.8225 223.534 57.585 223.169 57.4225C222.804 57.2599 222.409 57.1759 222.01 57.1759C221.61 57.1759 221.215 57.2599 220.85 57.4225C220.485 57.585 220.159 57.8225 219.892 58.1195C218.348 59.9623 219.49 64.1511 220.633 65.9667C220.714 66.1027 222.108 67.8435 222.489 68.2719C220.939 67.7415 219.402 67.2111 217.913 66.6195C215.895 65.8377 213.928 64.9292 212.024 63.8995C212.106 63.7703 214.35 60.3635 214.628 58.5411C214.873 56.9567 214.737 54.8691 213.554 53.6519C213.287 53.3549 212.96 53.1174 212.595 52.9549C212.23 52.7923 211.835 52.7083 211.436 52.7083C211.036 52.7083 210.641 52.7923 210.276 52.9549C209.912 53.1174 209.585 53.3549 209.318 53.6519C207.774 55.4947 208.916 59.6767 210.059 61.4923C210.134 61.6147 211.194 62.9407 211.711 63.5323L211.623 63.6411C209.739 62.5393 207.957 61.2718 206.298 59.8535C205.374 59.0851 204.53 58.2963 203.735 57.5143C204.218 56.9227 206.394 54.1959 206.822 52.5843C207.25 50.9727 207.339 48.9463 206.292 47.6067C206.058 47.2832 205.758 47.0127 205.412 46.8127C205.067 46.6127 204.683 46.4878 204.286 46.4461C203.889 46.4044 203.487 46.4469 203.108 46.5707C202.728 46.6945 202.379 46.8969 202.082 47.1647C200.342 48.8307 201.022 53.1147 201.953 55.0459C202.008 55.1479 202.633 56.1611 203.116 56.8887C202.762 56.5283 202.388 56.1679 202.055 55.8143C200.797 54.5019 199.723 53.2235 198.791 52.0811C198.261 51.4011 197.798 50.8231 197.363 50.2587C197.54 49.4291 198.186 46.0903 197.832 44.4855C197.479 42.8807 196.608 41.0175 195.065 40.3103C194.694 40.1279 194.287 40.0284 193.874 40.0188C193.461 40.0092 193.05 40.0897 192.671 40.2547C192.292 40.4197 191.953 40.6652 191.678 40.9743C191.404 41.2833 191.199 41.6484 191.08 42.0443C190.305 44.3223 192.875 47.8107 194.596 49.0959C194.745 49.2047 197.268 50.6735 197.282 50.6327C197.295 50.5919 197.282 50.5919 197.282 50.5783C197.683 51.1359 198.118 51.7275 198.642 52.3599C199.553 53.5227 200.6 54.8283 201.831 56.1747C203.142 57.6424 204.539 59.032 206.013 60.3363C207.657 61.8025 209.427 63.12 211.303 64.2735H211.378C210.698 64.1103 208.76 63.7023 208.61 63.6887C206.475 63.4915 202.225 64.3687 201.28 66.5719C201.133 66.9437 201.066 67.3423 201.083 67.7418C201.1 68.1413 201.201 68.5327 201.379 68.8906C201.558 69.2485 201.809 69.5649 202.118 69.8191C202.426 70.0734 202.785 70.2598 203.17 70.3663C204.768 70.9035 206.72 70.0807 207.992 69.1491Z" fill="#263238"/>
<path d="M97.8113 264.758C99.0761 265.193 101.211 267.281 101.211 267.281C101.211 267.281 99.4025 268.294 99.2801 268.341C97.8589 268.913 94.7785 269.178 93.6837 267.859C93.51 267.634 93.3852 267.375 93.3172 267.1C93.2491 266.824 93.2395 266.537 93.2888 266.257C93.3381 265.977 93.4452 265.711 93.6034 265.475C93.7616 265.239 93.9673 265.039 94.2073 264.887C95.2477 264.207 96.7301 264.384 97.8113 264.758Z" fill="#263238"/>
<path d="M120.653 284.879C120.653 284.879 119.701 286.722 119.626 286.831C118.755 288.089 116.328 290.006 114.689 289.51C114.42 289.418 114.173 289.272 113.964 289.079C113.755 288.887 113.589 288.653 113.475 288.392C113.362 288.132 113.304 287.85 113.306 287.566C113.308 287.282 113.369 287.001 113.485 286.742C113.955 285.627 115.281 284.954 116.389 284.668C117.688 284.335 120.653 284.879 120.653 284.879Z" fill="#263238"/>
<path d="M104.475 259.08C105.543 259.807 106.991 262.201 107.107 262.391C108.473 261.558 109.892 260.818 111.357 260.175C112.207 259.801 113.077 259.44 113.948 259.1C113.526 259.195 113.145 259.284 113.091 259.284C111.575 259.461 108.535 258.903 107.821 257.339C107.714 257.077 107.663 256.795 107.671 256.512C107.679 256.229 107.746 255.95 107.868 255.694C107.989 255.438 108.163 255.211 108.377 255.026C108.591 254.84 108.842 254.702 109.113 254.619C110.262 254.231 111.643 254.789 112.588 255.435C113.533 256.081 114.825 258.107 115.151 258.645L116.165 258.25C117.783 257.638 119.401 257.033 120.972 256.394C121.53 256.169 122.067 255.925 122.604 255.714L121.863 255.877C120.34 256.047 117.3 255.489 116.593 253.925C116.486 253.663 116.435 253.381 116.443 253.098C116.451 252.815 116.518 252.537 116.64 252.281C116.761 252.025 116.935 251.797 117.149 251.612C117.363 251.427 117.614 251.288 117.885 251.205C119.027 250.818 120.408 251.382 121.353 252.021C122.298 252.661 123.461 254.497 123.862 255.136C124.399 254.871 124.95 254.605 125.46 254.327C125.807 254.129 126.14 253.959 126.494 253.742L127.5 253.116C128.126 252.701 128.779 252.266 129.377 251.845L130.56 250.92C130.009 251.151 128.928 251.6 128.833 251.6C127.357 252.001 124.263 251.906 123.332 250.471C123.184 250.228 123.089 249.956 123.053 249.673C123.017 249.391 123.04 249.104 123.122 248.831C123.203 248.558 123.341 248.306 123.525 248.089C123.71 247.873 123.939 247.697 124.195 247.574C125.27 247.023 126.718 247.363 127.752 247.86C128.785 248.356 130.615 250.457 130.832 250.716C131.512 250.24 132.124 249.764 132.716 249.315C134.436 247.996 135.871 246.813 136.966 245.915L137.809 246.69C136.667 247.615 135.15 248.819 133.321 250.151C132.641 250.641 131.961 251.151 131.193 251.661C131.565 252.441 131.892 253.243 132.172 254.061C133.532 254.103 134.879 254.332 136.177 254.741C136.463 253.98 136.735 253.239 136.973 252.531C137.653 250.525 138.21 248.778 138.605 247.411L139.523 248.254C139.115 249.539 138.584 251.11 137.931 252.878C137.646 253.647 137.326 254.469 136.986 255.313C137.272 255.476 139.577 256.87 140.291 257.91C141.005 258.951 141.508 260.229 141.127 261.378C141.046 261.65 140.909 261.902 140.724 262.118C140.54 262.334 140.312 262.509 140.056 262.632C139.8 262.755 139.521 262.823 139.237 262.832C138.953 262.841 138.671 262.79 138.407 262.684C136.843 262.004 136.265 258.944 136.429 257.421C136.429 257.332 136.653 256.373 136.803 255.768C136.66 256.108 136.531 256.448 136.381 256.795C136.095 257.475 135.783 258.155 135.456 258.917C135.286 259.263 135.116 259.597 134.939 259.977C134.763 260.358 134.552 260.698 134.361 261.059C133.892 261.895 133.382 262.711 132.845 263.527C133.457 263.785 135.606 264.717 136.395 265.567C137.183 266.417 137.945 267.675 137.755 268.872C137.715 269.153 137.617 269.422 137.467 269.663C137.318 269.904 137.119 270.111 136.885 270.271C136.651 270.431 136.386 270.54 136.107 270.592C135.828 270.644 135.542 270.637 135.266 270.572C133.613 270.123 132.58 267.206 132.546 265.676C132.546 265.581 132.614 264.479 132.668 263.874C132.342 264.363 131.988 264.846 131.675 265.329C130.676 266.723 129.635 268.103 128.581 269.484C128.262 269.905 127.949 270.334 127.636 270.755C127.854 270.844 130.431 271.898 131.315 272.836C132.097 273.666 132.865 274.944 132.675 276.134C132.635 276.416 132.537 276.686 132.387 276.927C132.237 277.169 132.038 277.376 131.803 277.536C131.568 277.696 131.302 277.806 131.023 277.857C130.743 277.908 130.456 277.9 130.179 277.834C128.527 277.385 127.5 274.468 127.459 272.938C127.459 272.823 127.561 271.238 127.609 270.837C126.929 271.769 126.249 272.707 125.569 273.659C124.707 274.942 123.925 276.277 123.23 277.657C123.332 277.698 126.031 278.786 126.936 279.745C127.718 280.575 128.486 281.853 128.296 283.05C128.256 283.331 128.158 283.602 128.008 283.843C127.858 284.084 127.659 284.292 127.424 284.452C127.189 284.612 126.923 284.721 126.644 284.773C126.364 284.824 126.077 284.816 125.8 284.75C124.148 284.294 123.121 281.35 123.08 279.854C123.08 279.752 123.155 278.541 123.209 277.97H123.114C122.456 279.38 121.926 280.845 121.53 282.349C121.299 283.172 121.122 283.975 120.972 284.763C121.496 284.913 123.876 285.627 124.787 286.402C125.698 287.177 126.562 288.327 126.494 289.53C126.486 289.814 126.418 290.094 126.296 290.35C126.173 290.607 125.998 290.835 125.783 291.02C125.567 291.205 125.315 291.343 125.043 291.425C124.771 291.506 124.484 291.531 124.202 291.495C122.509 291.23 121.169 288.442 120.931 286.933C120.931 286.851 120.884 286.001 120.863 285.375C120.802 285.736 120.727 286.096 120.68 286.436C120.476 287.721 120.367 288.905 120.279 289.952C120.231 290.55 120.204 291.094 120.183 291.597C120.619 292.019 122.353 293.712 122.795 294.8C123.237 295.888 123.475 297.323 122.869 298.363C122.73 298.611 122.541 298.827 122.314 298.997C122.087 299.167 121.827 299.288 121.551 299.352C121.274 299.416 120.987 299.422 120.709 299.368C120.43 299.315 120.165 299.205 119.932 299.043C118.572 298.03 118.64 294.963 119.129 293.488C119.177 293.359 120.061 291.448 120.081 291.495C120.081 291.006 120.081 290.482 120.143 289.911C120.204 288.857 120.285 287.667 120.462 286.382C120.64 284.99 120.897 283.61 121.231 282.247C121.599 280.719 122.102 279.226 122.733 277.787C122.736 277.771 122.736 277.755 122.733 277.739C122.4 278.113 121.435 279.133 121.373 279.201C120.197 280.187 117.355 281.397 115.899 280.486C115.664 280.327 115.464 280.12 115.313 279.879C115.161 279.637 115.063 279.367 115.022 279.085C114.982 278.803 115.001 278.516 115.078 278.242C115.156 277.968 115.289 277.713 115.471 277.494C116.219 276.542 117.674 276.25 118.823 276.263C120.109 276.263 122.638 277.481 122.835 277.576C123.504 276.122 124.267 274.714 125.12 273.36C125.623 272.571 126.154 271.796 126.691 271.027C126.392 271.34 126.12 271.619 126.079 271.653C124.909 272.639 122.06 273.849 120.639 272.938C120.403 272.779 120.203 272.572 120.052 272.331C119.901 272.089 119.802 271.819 119.762 271.537C119.721 271.255 119.741 270.968 119.818 270.694C119.895 270.42 120.029 270.165 120.211 269.946C120.952 268.994 122.414 268.702 123.556 268.715C124.699 268.729 126.895 269.708 127.466 269.973L128.092 269.096C129.105 267.689 130.132 266.288 131.084 264.887C131.417 264.397 131.764 263.894 132.049 263.398C131.784 263.677 131.56 263.915 131.519 263.942C130.343 264.928 127.5 266.138 126.079 265.227C125.844 265.068 125.645 264.861 125.495 264.62C125.344 264.379 125.246 264.11 125.206 263.829C125.165 263.548 125.184 263.262 125.261 262.988C125.337 262.715 125.47 262.461 125.651 262.242C126.392 261.283 127.854 260.991 128.996 261.004C130.139 261.018 132.117 261.902 132.797 262.215C133.11 261.698 133.416 261.181 133.695 260.664C133.872 260.304 134.069 259.984 134.232 259.603C134.395 259.223 134.565 258.883 134.729 258.529C135.014 257.849 135.32 257.115 135.585 256.435C135.776 255.959 135.946 255.503 136.116 255.041C135.789 255.537 135.123 256.489 135.055 256.564C134.134 257.545 132.974 258.271 131.689 258.672C131.589 258.782 131.479 258.885 131.363 258.978C131.145 259.161 130.891 259.296 130.618 259.374C130.345 259.453 130.058 259.474 129.776 259.436C129.495 259.397 129.224 259.301 128.982 259.151C128.74 259.002 128.532 258.804 128.371 258.57C127.453 257.121 128.649 254.272 129.622 253.089C129.683 253.021 130.39 252.341 130.846 251.913C130.54 252.123 130.247 252.327 129.928 252.538C129.309 252.96 128.67 253.361 127.99 253.796L126.97 254.401C126.637 254.612 126.249 254.789 125.889 254.979C125.045 255.421 124.161 255.823 123.264 256.203C123.631 256.754 124.909 258.719 125.107 259.848C125.304 260.977 125.243 262.466 124.427 263.35C124.238 263.563 124.007 263.734 123.749 263.853C123.491 263.972 123.21 264.035 122.926 264.039C122.642 264.042 122.36 263.987 122.098 263.875C121.837 263.764 121.601 263.599 121.407 263.391C120.285 262.099 121.033 259.1 121.822 257.788C121.87 257.706 122.543 256.829 122.917 256.353C122.38 256.584 121.843 256.809 121.285 257.033C119.687 257.645 118.048 258.216 116.416 258.794C115.92 258.964 115.423 259.148 114.927 259.331C115.056 259.522 116.627 261.82 116.845 263.092C117.042 264.214 116.981 265.703 116.165 266.587C115.977 266.799 115.747 266.97 115.489 267.089C115.232 267.207 114.952 267.271 114.669 267.275C114.385 267.28 114.104 267.225 113.843 267.115C113.582 267.004 113.347 266.841 113.152 266.635C112.023 265.343 112.771 262.344 113.56 261.031C113.615 260.929 114.587 259.671 114.845 259.359C113.751 259.76 112.663 260.161 111.609 260.61C110.179 261.195 108.791 261.877 107.454 262.65C107.515 262.738 109.161 265.132 109.392 266.431C109.582 267.553 109.521 269.042 108.712 269.926C108.524 270.139 108.294 270.311 108.035 270.43C107.777 270.549 107.497 270.613 107.213 270.618C106.928 270.622 106.646 270.567 106.385 270.456C106.123 270.345 105.887 270.181 105.693 269.973C104.564 268.681 105.312 265.683 106.101 264.37C106.155 264.282 106.889 263.323 107.25 262.874L107.182 262.799C105.855 263.611 104.603 264.54 103.442 265.574C102.796 266.138 102.211 266.709 101.653 267.281C102 267.695 103.591 269.606 103.925 270.749C104.258 271.891 104.346 273.339 103.625 274.305C103.462 274.538 103.251 274.734 103.007 274.881C102.763 275.027 102.491 275.121 102.209 275.156C101.926 275.192 101.64 275.167 101.367 275.085C101.095 275.003 100.842 274.865 100.627 274.679C99.3618 273.523 99.7766 270.463 100.416 269.069C100.45 268.994 100.892 268.267 101.218 267.709C100.973 267.967 100.708 268.233 100.477 268.491C99.5998 269.443 98.8586 270.375 98.2058 271.211C97.8386 271.68 97.5258 272.122 97.2198 272.53C97.3558 273.115 97.8658 275.488 97.6346 276.61C97.4034 277.732 96.8186 279.099 95.7238 279.623C95.472 279.753 95.1958 279.83 94.9128 279.848C94.6297 279.866 94.346 279.825 94.0798 279.727C93.8136 279.629 93.5708 279.476 93.3668 279.279C93.1627 279.082 93.0021 278.845 92.895 278.582C92.3102 276.971 94.0918 274.441 95.2954 273.503C95.4042 273.421 97.179 272.34 97.1858 272.367C97.4646 271.966 97.7706 271.537 98.1106 271.082C98.743 270.239 99.4706 269.287 100.327 268.314C101.243 267.25 102.219 266.24 103.251 265.288C104.383 264.248 105.602 263.309 106.896 262.48H106.944C106.461 262.609 105.087 262.929 104.985 262.942C103.462 263.112 100.423 262.555 99.7154 260.991C99.6084 260.729 99.5571 260.447 99.5647 260.165C99.5723 259.882 99.6386 259.604 99.7595 259.348C99.8804 259.092 100.053 258.864 100.267 258.679C100.48 258.493 100.73 258.354 101.001 258.271C102.15 257.842 103.53 258.4 104.475 259.08Z" fill="#263238"/>
<path d="M139.006 274.482C140.257 273.986 143.263 274.162 143.263 274.162C143.263 274.162 142.542 276.107 142.481 276.202C141.801 277.562 139.604 279.759 137.911 279.466C137.633 279.408 137.371 279.293 137.141 279.127C136.91 278.962 136.717 278.75 136.573 278.505C136.429 278.261 136.337 277.989 136.304 277.707C136.271 277.426 136.298 277.14 136.381 276.869C136.68 275.726 137.945 274.897 139.006 274.482Z" fill="#263238"/>
<path d="M169.443 274.924C169.443 274.924 169.919 276.964 169.932 277.073C170.089 278.596 169.497 281.629 167.892 282.315C167.628 282.422 167.345 282.472 167.06 282.462C166.775 282.452 166.496 282.383 166.24 282.259C165.984 282.134 165.756 281.958 165.572 281.74C165.388 281.523 165.252 281.27 165.172 280.996C164.798 279.847 165.376 278.467 166.029 277.535C166.838 276.433 169.443 274.924 169.443 274.924Z" fill="#263238"/>
<path d="M140.359 265.805C141.644 265.669 144.296 266.546 144.507 266.614C145.006 265.094 145.606 263.608 146.302 262.167C146.697 261.331 147.132 260.494 147.567 259.665C147.315 260.011 147.077 260.345 147.043 260.345C145.996 261.46 143.324 263.017 141.773 262.289C141.519 262.16 141.295 261.98 141.115 261.759C140.936 261.538 140.804 261.282 140.729 261.007C140.654 260.732 140.637 260.445 140.68 260.163C140.723 259.882 140.825 259.612 140.978 259.372C141.597 258.339 143.018 257.863 144.147 257.74C145.275 257.618 147.581 258.311 148.186 258.509L148.696 257.557C149.532 256.033 150.369 254.524 151.144 253.014C151.423 252.484 151.667 251.953 151.919 251.416C151.695 251.729 151.497 251.987 151.463 252.021C150.423 253.143 147.744 254.694 146.193 253.966C145.94 253.837 145.717 253.657 145.538 253.436C145.359 253.216 145.227 252.961 145.152 252.687C145.078 252.413 145.061 252.126 145.103 251.845C145.145 251.565 145.246 251.296 145.398 251.056C146.023 250.015 147.438 249.546 148.573 249.424C149.709 249.301 151.783 249.927 152.497 250.158C152.735 249.601 152.98 249.05 153.177 248.499C153.313 248.125 153.469 247.771 153.578 247.384C153.687 246.996 153.823 246.629 153.939 246.255C154.143 245.527 154.353 244.786 154.537 244.072C154.666 243.576 154.775 243.1 154.891 242.624C154.625 243.154 154.081 244.188 154.027 244.269C153.163 245.534 150.756 247.472 149.111 246.989C148.841 246.9 148.593 246.755 148.382 246.564C148.171 246.373 148.003 246.14 147.888 245.88C147.772 245.62 147.713 245.339 147.713 245.054C147.712 244.77 147.772 244.489 147.887 244.229C148.342 243.113 149.668 242.427 150.777 242.134C151.994 241.808 154.639 242.243 154.972 242.297C155.163 241.509 155.339 240.74 155.489 240.013C155.945 237.891 156.264 236.062 156.495 234.641L157.638 234.688C157.379 236.13 157.005 238.027 156.482 240.23C156.291 241.033 156.081 241.889 155.849 242.767C156.639 243.113 157.407 243.509 158.148 243.95C159.213 243.112 160.389 242.425 161.643 241.91C161.364 241.141 161.085 240.407 160.813 239.713C160.038 237.735 159.311 236.055 158.719 234.756L159.97 234.804C160.494 236.048 161.113 237.578 161.759 239.353C162.051 240.121 162.337 240.958 162.629 241.815C162.955 241.76 165.607 241.318 166.825 241.638C167.933 241.93 169.259 242.61 169.721 243.732C169.836 243.992 169.896 244.274 169.895 244.558C169.895 244.842 169.836 245.124 169.72 245.383C169.605 245.643 169.437 245.876 169.226 246.068C169.016 246.259 168.767 246.404 168.497 246.493C166.852 246.983 164.417 245.045 163.581 243.773C163.527 243.698 163.064 242.828 162.785 242.277C162.901 242.624 163.017 242.957 163.132 243.331C163.363 244.045 163.581 244.766 163.812 245.541C163.907 245.922 164.009 246.303 164.105 246.683C164.2 247.064 164.281 247.486 164.37 247.887C164.553 248.819 164.703 249.777 164.825 250.743C165.451 250.539 167.688 249.852 168.831 249.975C169.973 250.097 171.381 250.566 172.006 251.607C172.159 251.846 172.26 252.115 172.302 252.395C172.345 252.676 172.329 252.962 172.254 253.236C172.18 253.51 172.05 253.765 171.871 253.986C171.693 254.206 171.47 254.387 171.217 254.517C169.667 255.251 166.988 253.701 165.947 252.586C165.879 252.511 165.22 251.627 164.866 251.131C164.934 251.715 165.009 252.293 165.063 252.885C165.213 254.592 165.308 256.326 165.417 258.053C165.417 258.583 165.485 259.107 165.519 259.637C165.743 259.563 168.389 258.685 169.667 258.821C170.803 258.944 172.217 259.413 172.843 260.447C172.996 260.686 173.098 260.955 173.141 261.237C173.185 261.518 173.169 261.805 173.094 262.08C173.02 262.355 172.889 262.611 172.71 262.832C172.531 263.053 172.307 263.234 172.054 263.364C170.503 264.091 167.824 262.548 166.777 261.426C166.702 261.344 165.75 260.066 165.526 259.733C165.607 260.895 165.696 262.051 165.832 263.187C166.011 264.721 166.286 266.243 166.655 267.743C166.763 267.709 169.517 266.784 170.823 266.927C171.959 267.043 173.373 267.519 173.999 268.552C174.152 268.792 174.254 269.061 174.297 269.342C174.341 269.624 174.325 269.911 174.25 270.186C174.176 270.46 174.045 270.716 173.866 270.938C173.687 271.159 173.463 271.34 173.21 271.469C171.659 272.197 168.98 270.653 167.94 269.531C167.872 269.457 167.144 268.484 166.811 268.015L166.723 268.056C167.138 269.558 167.688 271.019 168.368 272.421C168.729 273.197 169.116 273.917 169.511 274.611C170.007 274.387 172.285 273.38 173.475 273.38C174.665 273.38 176.079 273.686 176.807 274.652C176.985 274.873 177.114 275.129 177.188 275.403C177.261 275.677 177.277 275.963 177.233 276.243C177.19 276.523 177.088 276.791 176.935 277.03C176.782 277.269 176.581 277.473 176.345 277.63C174.883 278.528 172.054 277.283 170.905 276.27C170.843 276.216 170.225 275.59 169.844 275.135C170.027 275.441 170.211 275.767 170.395 276.059C171.075 277.168 171.755 278.133 172.373 278.99C172.727 279.473 173.053 279.901 173.373 280.303C173.971 280.303 176.392 280.493 177.453 281.03C178.514 281.567 179.615 282.506 179.826 283.696C179.883 283.975 179.88 284.262 179.819 284.54C179.758 284.818 179.639 285.08 179.471 285.309C179.303 285.538 179.088 285.73 178.841 285.871C178.594 286.013 178.321 286.101 178.038 286.13C176.331 286.253 174.386 283.845 173.815 282.424C173.767 282.302 173.217 280.296 173.251 280.296H173.285C172.972 279.922 172.645 279.514 172.299 279.058C171.659 278.215 170.939 277.256 170.259 276.161C169.488 274.991 168.786 273.776 168.157 272.523C167.444 271.123 166.857 269.662 166.403 268.158C166.403 268.158 166.403 268.117 166.403 268.103C166.403 268.607 166.321 270.007 166.301 270.143C166.049 271.653 164.676 274.421 162.983 274.672C162.7 274.705 162.414 274.677 162.142 274.592C161.871 274.507 161.62 274.367 161.406 274.179C161.192 273.991 161.02 273.761 160.9 273.503C160.781 273.245 160.716 272.964 160.711 272.68C160.657 271.469 161.575 270.293 162.452 269.565C163.445 268.743 166.145 268.008 166.362 267.947C165.938 266.406 165.617 264.839 165.403 263.255C165.274 262.33 165.172 261.399 165.077 260.46C165.077 260.895 165.036 261.283 165.023 261.337C164.771 262.847 163.397 265.615 161.704 265.866C161.416 265.905 161.122 265.882 160.843 265.798C160.564 265.713 160.307 265.571 160.088 265.379C159.869 265.187 159.693 264.95 159.573 264.685C159.453 264.419 159.392 264.131 159.392 263.84C159.338 262.636 160.256 261.46 161.133 260.725C162.01 259.991 164.315 259.318 164.921 259.148C164.921 258.787 164.859 258.427 164.825 258.067C164.683 256.339 164.547 254.619 164.363 252.933C164.302 252.334 164.213 251.749 164.132 251.171C164.132 251.552 164.091 251.851 164.084 251.926C163.833 253.436 162.459 256.21 160.759 256.455C160.477 256.486 160.191 256.458 159.921 256.373C159.65 256.288 159.4 256.147 159.187 255.959C158.974 255.771 158.802 255.541 158.683 255.284C158.564 255.026 158.5 254.746 158.495 254.463C158.44 253.259 159.358 252.083 160.235 251.355C161.113 250.627 163.193 249.995 163.914 249.798C163.812 249.206 163.71 248.608 163.581 248.037C163.486 247.649 163.418 247.268 163.302 246.881L162.976 245.745C162.745 245.024 162.513 244.283 162.296 243.589C162.133 243.107 161.963 242.651 161.799 242.189C161.867 242.78 161.983 243.943 161.983 244.038C161.916 245.383 161.503 246.687 160.786 247.826C160.787 247.976 160.773 248.127 160.745 248.275C160.698 248.555 160.593 248.823 160.436 249.061C160.28 249.298 160.075 249.5 159.835 249.654C159.596 249.808 159.327 249.91 159.046 249.953C158.764 249.997 158.477 249.981 158.202 249.907C156.563 249.403 155.618 246.459 155.598 244.929C155.598 244.841 155.686 243.861 155.761 243.243C155.659 243.596 155.571 243.923 155.469 244.31C155.271 245.038 155.047 245.759 154.789 246.534C154.666 246.901 154.537 247.275 154.408 247.649C154.279 248.023 154.115 248.411 153.966 248.791C153.605 249.675 153.197 250.553 152.769 251.43C153.401 251.607 155.652 252.266 156.536 253.001C157.42 253.735 158.338 254.898 158.284 256.108C158.28 256.393 158.217 256.673 158.098 256.932C157.979 257.19 157.807 257.421 157.594 257.609C157.381 257.797 157.131 257.939 156.86 258.025C156.588 258.111 156.302 258.139 156.019 258.107C154.319 257.856 152.946 255.095 152.687 253.585C152.687 253.49 152.613 252.382 152.592 251.777C152.327 252.3 152.069 252.824 151.783 253.347C150.967 254.85 150.097 256.353 149.226 257.849L148.444 259.209C148.669 259.27 151.361 259.998 152.347 260.814C153.333 261.63 154.149 262.718 154.102 263.928C154.097 264.213 154.033 264.493 153.913 264.751C153.794 265.009 153.621 265.24 153.407 265.427C153.194 265.615 152.943 265.756 152.671 265.841C152.4 265.926 152.113 265.953 151.831 265.921C150.137 265.676 148.757 262.908 148.505 261.399C148.505 261.283 148.397 259.699 148.397 259.291C147.825 260.304 147.261 261.331 146.744 262.344C146.048 263.724 145.437 265.145 144.915 266.601C145.024 266.601 147.832 267.376 148.845 268.212C149.729 268.947 150.647 270.116 150.593 271.327C150.588 271.61 150.524 271.89 150.405 272.148C150.286 272.405 150.114 272.635 149.901 272.823C149.688 273.011 149.438 273.151 149.167 273.237C148.896 273.322 148.611 273.35 148.329 273.319C146.635 273.074 145.255 270.307 144.997 268.797C144.997 268.702 144.915 267.491 144.901 266.913H144.799C144.321 268.394 143.975 269.914 143.766 271.456C143.637 272.306 143.562 273.122 143.514 273.917C144.051 274.006 146.499 274.421 147.499 275.073C148.499 275.726 149.498 276.767 149.58 277.977C149.606 278.26 149.573 278.546 149.483 278.816C149.392 279.086 149.246 279.334 149.054 279.544C148.862 279.754 148.628 279.922 148.367 280.036C148.106 280.15 147.825 280.209 147.54 280.207C145.826 280.146 144.14 277.549 143.732 276.08C143.732 275.998 143.569 275.155 143.473 274.543C143.473 274.903 143.426 275.277 143.419 275.617C143.371 276.916 143.419 278.106 143.453 279.16C143.453 279.759 143.521 280.296 143.562 280.799C144.045 281.159 145.976 282.628 146.547 283.655C147.118 284.682 147.547 286.076 147.057 287.184C146.951 287.447 146.79 287.686 146.587 287.883C146.383 288.081 146.14 288.234 145.874 288.333C145.608 288.431 145.324 288.473 145.04 288.456C144.757 288.438 144.48 288.362 144.228 288.231C142.732 287.388 142.447 284.308 142.753 282.791C142.753 282.662 143.433 280.683 143.433 280.697C143.385 280.207 143.337 279.684 143.297 279.119C143.229 278.065 143.161 276.869 143.181 275.57C143.182 274.168 143.266 272.767 143.433 271.374C143.614 269.813 143.93 268.27 144.378 266.764V266.709C144.092 267.124 143.256 268.253 143.181 268.335C142.141 269.457 139.468 271.007 137.918 270.279C137.665 270.15 137.442 269.97 137.262 269.75C137.083 269.529 136.952 269.274 136.877 269C136.802 268.726 136.785 268.439 136.827 268.159C136.87 267.878 136.97 267.609 137.122 267.369C137.809 266.403 139.223 265.934 140.359 265.805Z" fill="#263238"/>
<path d="M295.229 66.1165H105.325C102.745 66.1165 100.654 68.208 100.654 70.7881V255.401C100.654 257.981 102.745 260.073 105.325 260.073H295.229C297.809 260.073 299.901 257.981 299.901 255.401V70.7881C299.901 68.208 297.809 66.1165 295.229 66.1165Z" fill="white" stroke="#263238" stroke-linecap="round" stroke-linejoin="round"/>
<path d="M295.358 66.1165H105.21C104.003 66.1165 102.845 66.5955 101.991 67.4485C101.136 68.3014 100.656 69.4585 100.654 70.6657V78.6965H299.88V70.6657C299.878 69.4644 299.402 68.3124 298.555 67.4604C297.709 66.6084 296.559 66.1254 295.358 66.1165Z" fill="#4057A2" stroke="#263238" stroke-linecap="round" stroke-linejoin="round"/>
<path d="M110.215 72.1888C110.216 72.5603 110.107 72.9239 109.902 73.2334C109.696 73.5429 109.403 73.7845 109.061 73.9276C108.718 74.0707 108.34 74.1089 107.976 74.0372C107.611 73.9656 107.276 73.7874 107.013 73.5251C106.75 73.2629 106.57 72.9285 106.498 72.5643C106.425 72.2 106.461 71.8223 106.603 71.479C106.745 71.1357 106.986 70.8421 107.294 70.6356C107.603 70.4291 107.966 70.3189 108.338 70.3188C108.834 70.3206 109.309 70.518 109.66 70.8681C110.012 71.2182 110.211 71.6928 110.215 72.1888Z" fill="white" stroke="#263238" stroke-linecap="round" stroke-linejoin="round"/>
<path d="M118.082 72.1888C118.084 72.5603 117.975 72.9239 117.769 73.2334C117.564 73.5429 117.271 73.7845 116.928 73.9276C116.586 74.0707 116.208 74.1089 115.843 74.0372C115.479 73.9656 115.144 73.7874 114.881 73.5251C114.618 73.2629 114.438 72.9285 114.365 72.5643C114.292 72.2 114.329 71.8223 114.471 71.479C114.613 71.1357 114.853 70.8421 115.162 70.6356C115.471 70.4291 115.834 70.3189 116.205 70.3188C116.702 70.3188 117.178 70.5156 117.53 70.8661C117.882 71.2166 118.08 71.6923 118.082 72.1888Z" fill="white" stroke="#263238" stroke-linecap="round" stroke-linejoin="round"/>
<path d="M125.95 72.1889C125.951 72.5606 125.842 72.9244 125.636 73.2341C125.431 73.5438 125.138 73.7854 124.794 73.9283C124.451 74.0712 124.073 74.1089 123.709 74.0367C123.344 73.9645 123.009 73.7856 122.746 73.5227C122.483 73.2599 122.304 72.9248 122.232 72.5601C122.16 72.1954 122.198 71.8175 122.34 71.4743C122.483 71.1311 122.725 70.838 123.035 70.6323C123.344 70.4266 123.708 70.3175 124.08 70.3189C124.575 70.3207 125.05 70.5182 125.4 70.8685C125.75 71.2189 125.948 71.6935 125.95 72.1889Z" fill="white" stroke="#263238" stroke-linecap="round" stroke-linejoin="round"/>
<path d="M203.32 101.599V88.8625H200.709V87.4277H207.509V88.8625H204.898V101.599H203.32Z" fill="#263238"/>
<path d="M208.488 90.8481C208.488 88.6789 209.563 87.2849 211.725 87.2849C213.887 87.2849 214.989 88.6449 214.989 90.8481V98.1717C214.989 100.321 213.915 101.735 211.725 101.735C209.535 101.735 208.488 100.321 208.488 98.1717V90.8481ZM210.045 98.2533C210.045 99.5521 210.596 100.293 211.725 100.293C212.854 100.293 213.405 99.5453 213.405 98.2533V90.7733C213.405 89.4949 212.881 88.7333 211.725 88.7333C210.569 88.7333 210.045 89.5017 210.045 90.7733V98.2533Z" fill="#263238"/>
<path d="M219.803 87.4277C222.006 87.4277 223.02 88.7877 223.02 90.9501V98.0969C223.02 100.259 222.006 101.599 219.803 101.599H216.485V87.4277H219.803ZM219.803 100.157C220.939 100.157 221.483 99.4773 221.483 98.1581V90.8685C221.483 89.5697 220.939 88.8625 219.783 88.8625H218.083V100.157H219.803Z" fill="#263238"/>
<path d="M226.073 98.7429L225.529 101.599H224.074L226.794 87.4277H229.079L231.799 101.599H230.221L229.67 98.7429H226.073ZM226.277 97.3829H229.439L227.834 89.2229L226.277 97.3829Z" fill="#263238"/>
<path d="M234.539 96.5125L231.54 87.4277H233.179L235.389 94.3909L237.612 87.4277H239.108L236.096 96.5125V101.599H234.539V96.5125Z" fill="#263238"/>
<path d="M113.084 87.8152V88.0192H112.289V87.7676C112.289 87.0876 112.03 86.6932 111.425 86.6932C110.82 86.6932 110.568 87.0944 110.568 87.7608C110.568 89.4472 113.091 89.6104 113.091 91.7252C113.091 92.8608 112.547 93.602 111.398 93.602C110.249 93.602 109.705 92.8608 109.705 91.7252V91.2968H110.493V91.8C110.493 92.48 110.772 92.8744 111.371 92.8744C111.969 92.8744 112.255 92.48 112.255 91.8C112.255 90.1272 109.739 89.964 109.739 87.8492C109.739 86.6864 110.276 85.9656 111.405 85.9656C112.533 85.9656 113.084 86.6728 113.084 87.8152Z" fill="#263238"/>
<path d="M117.144 87.822V88.502H116.348V87.7812C116.348 87.1012 116.083 86.6932 115.471 86.6932C114.859 86.6932 114.587 87.1012 114.587 87.7812V91.7592C114.587 92.4392 114.866 92.8404 115.471 92.8404C116.076 92.8404 116.348 92.4324 116.348 91.7592V90.78H117.144V91.7116C117.144 92.854 116.607 93.602 115.451 93.602C114.295 93.602 113.757 92.854 113.757 91.7116V87.822C113.757 86.6864 114.295 85.9316 115.451 85.9316C116.607 85.9316 117.144 86.6864 117.144 87.822Z" fill="#263238"/>
<path d="M118.749 90.1476V93.5476H117.912V86.0063H118.749V89.4063H120.598V86.0063H121.435V93.5271H120.598V90.1271L118.749 90.1476Z" fill="#263238"/>
<path d="M124.971 89.3383V90.0931H123.135V92.7655H125.392V93.5271H122.298V86.0063H125.392V86.7679H123.135V89.3383H124.971Z" fill="#263238"/>
<path d="M127.929 86.0063C129.098 86.0063 129.635 86.6863 129.635 87.8763V91.6707C129.635 92.8199 129.098 93.5271 127.929 93.5271H126.167V86.0063H127.929ZM127.929 92.7655C128.534 92.7655 128.819 92.3915 128.819 91.7047V87.8355C128.819 87.1555 128.534 86.7679 127.922 86.7679H127.017V92.7655H127.929Z" fill="#263238"/>
<path d="M131.24 91.7591C131.24 92.4391 131.505 92.8403 132.117 92.8403C132.729 92.8403 132.988 92.4323 132.988 91.7591V86.0063H133.777V91.7115C133.777 92.8539 133.246 93.6155 132.09 93.6155C130.934 93.6155 130.411 92.8539 130.411 91.7115V86.0063H131.24V91.7591Z" fill="#263238"/>
<path d="M134.579 93.5271V86.0063H135.422V92.7655H137.571V93.5271H134.579Z" fill="#263238"/>
<path d="M140.883 89.3383V90.0931H139.04V92.7655H141.298V93.5271H138.204V86.0063H141.298V86.7679H139.04V89.3383H140.883Z" fill="#263238"/>
<path d="M161.568 110.391V110.616C161.607 110.916 161.549 111.222 161.403 111.487C161.256 111.753 161.028 111.965 160.752 112.091C161.031 112.223 161.261 112.441 161.408 112.712C161.555 112.984 161.611 113.295 161.568 113.601V114.131C161.568 114.582 161.389 115.014 161.07 115.333C160.751 115.652 160.319 115.831 159.868 115.831C159.417 115.831 158.985 115.652 158.666 115.333C158.347 115.014 158.168 114.582 158.168 114.131V113.601C158.124 113.293 158.182 112.98 158.331 112.708C158.481 112.435 158.715 112.219 158.998 112.091C158.717 111.969 158.485 111.759 158.335 111.493C158.185 111.226 158.126 110.918 158.168 110.616V110.391C158.168 109.94 158.347 109.508 158.666 109.189C158.985 108.87 159.417 108.691 159.868 108.691C160.319 108.691 160.751 108.87 161.07 109.189C161.389 109.508 161.568 109.94 161.568 110.391ZM158.984 110.391V110.738C158.984 111.418 159.317 111.744 159.882 111.744C160.446 111.744 160.779 111.432 160.779 110.738V110.391C160.779 109.657 160.446 109.324 159.882 109.324C159.317 109.324 158.984 109.677 158.984 110.412V110.391ZM158.984 113.485V114.09C158.984 114.825 159.311 115.172 159.882 115.172C160.453 115.172 160.773 114.825 160.779 114.09V113.485C160.779 112.805 160.473 112.458 159.882 112.458C159.29 112.458 158.984 112.812 158.984 113.506V113.485Z" fill="#263238"/>
<path d="M163.057 110.962V111.955H162.289V110.962H163.057ZM163.057 114.859V115.845H162.289V114.859H163.057Z" fill="#263238"/>
<path d="M163.812 110.425C163.812 109.33 164.356 108.623 165.451 108.623C166.546 108.623 167.09 109.303 167.09 110.425V114.111C167.09 115.206 166.552 115.92 165.451 115.92C164.349 115.92 163.812 115.206 163.812 114.111V110.425ZM164.601 114.158C164.601 114.838 164.873 115.192 165.451 115.192C166.029 115.192 166.294 114.804 166.294 114.158V110.384C166.294 109.704 166.029 109.344 165.451 109.344C164.873 109.344 164.601 109.732 164.601 110.384V114.158Z" fill="#263238"/>
<path d="M167.783 110.425C167.783 109.33 168.327 108.623 169.422 108.623C170.517 108.623 171.061 109.303 171.061 110.425V114.111C171.061 115.206 170.524 115.92 169.422 115.92C168.32 115.92 167.783 115.206 167.783 114.111V110.425ZM168.572 114.158C168.572 114.838 168.844 115.192 169.422 115.192C170 115.192 170.265 114.804 170.265 114.158V110.384C170.265 109.704 170 109.344 169.422 109.344C168.844 109.344 168.572 109.732 168.572 110.384V114.158Z" fill="#263238"/>
<path d="M179.391 109.997C179.091 110.179 178.75 110.284 178.398 110.303V109.623C178.681 109.63 178.957 109.539 179.18 109.365C179.404 109.192 179.56 108.947 179.622 108.671H180.2V115.818H179.412L179.391 109.997Z" fill="#263238"/>
<path d="M181.322 110.425C181.322 109.33 181.859 108.623 182.954 108.623C184.049 108.623 184.6 109.303 184.6 110.425V114.111C184.6 115.206 184.056 115.92 182.954 115.92C181.853 115.92 181.322 115.206 181.322 114.111V110.425ZM182.104 114.158C182.104 114.838 182.383 115.192 182.954 115.192C183.525 115.192 183.804 114.804 183.804 114.158V110.384C183.804 109.704 183.539 109.344 182.954 109.344C182.369 109.344 182.104 109.732 182.104 110.384V114.158Z" fill="#263238"/>
<path d="M186.116 110.962V111.955H185.354V110.962H186.116ZM186.116 114.859V115.845H185.354V114.859H186.116Z" fill="#263238"/>
<path d="M186.878 110.425C186.878 109.33 187.415 108.623 188.51 108.623C189.605 108.623 190.156 109.303 190.156 110.425V114.111C190.156 115.206 189.612 115.92 188.51 115.92C187.408 115.92 186.878 115.206 186.878 114.111V110.425ZM187.66 114.158C187.66 114.838 187.939 115.192 188.51 115.192C189.081 115.192 189.36 114.804 189.36 114.158V110.384C189.36 109.704 189.088 109.344 188.51 109.344C187.932 109.344 187.66 109.732 187.66 110.384V114.158Z" fill="#263238"/>
<path d="M190.849 110.425C190.849 109.33 191.386 108.623 192.481 108.623C193.576 108.623 194.127 109.303 194.127 110.425V114.111C194.127 115.206 193.583 115.92 192.481 115.92C191.38 115.92 190.849 115.206 190.849 114.111V110.425ZM191.631 114.158C191.631 114.838 191.91 115.192 192.481 115.192C193.052 115.192 193.331 114.804 193.331 114.158V110.384C193.331 109.704 193.066 109.344 192.481 109.344C191.896 109.344 191.631 109.732 191.631 110.384V114.158Z" fill="#263238"/>
<path d="M202.96 109.997C202.659 110.179 202.318 110.284 201.967 110.303V109.623C202.249 109.63 202.526 109.539 202.749 109.365C202.972 109.192 203.128 108.947 203.191 108.671H203.748V115.818H202.96V109.997Z" fill="#263238"/>
<path d="M208.169 110.432C208.169 112.588 205.748 113.363 205.734 115.009V115.124H208.08V115.845H204.952V115.233C204.952 112.928 207.373 112.479 207.373 110.473C207.373 109.739 207.128 109.351 206.53 109.351C205.931 109.351 205.693 109.766 205.693 110.398V111.031H204.952V110.453C204.952 109.358 205.449 108.63 206.557 108.63C207.665 108.63 208.169 109.344 208.169 110.432Z" fill="#263238"/>
<path d="M209.671 110.962V111.955H208.903V110.962H209.671ZM209.671 114.859V115.845H208.903V114.859H209.671Z" fill="#263238"/>
<path d="M210.426 110.425C210.426 109.33 210.963 108.623 212.058 108.623C213.153 108.623 213.704 109.303 213.704 110.425V114.111C213.704 115.206 213.16 115.92 212.058 115.92C210.957 115.92 210.426 115.206 210.426 114.111V110.425ZM211.208 114.158C211.208 114.838 211.487 115.192 212.058 115.192C212.629 115.192 212.908 114.804 212.908 114.158V110.384C212.908 109.704 212.636 109.344 212.058 109.344C211.48 109.344 211.208 109.732 211.208 110.384V114.158Z" fill="#263238"/>
<path d="M214.397 110.425C214.397 109.33 214.935 108.623 216.029 108.623C217.124 108.623 217.675 109.303 217.675 110.425V114.111C217.675 115.206 217.131 115.92 216.029 115.92C214.928 115.92 214.397 115.206 214.397 114.111V110.425ZM215.179 114.158C215.179 114.838 215.458 115.192 216.029 115.192C216.601 115.192 216.879 114.804 216.879 114.158V110.384C216.879 109.704 216.614 109.344 216.029 109.344C215.445 109.344 215.179 109.732 215.179 110.384V114.158Z" fill="#263238"/>
<path d="M229.16 110.432C229.16 112.588 226.739 113.363 226.726 115.009V115.124H229.079V115.845H225.944V115.233C225.944 112.928 228.358 112.479 228.358 110.473C228.358 109.739 228.113 109.351 227.521 109.351C226.93 109.351 226.685 109.766 226.685 110.398V111.031H225.944V110.453C225.944 109.358 226.44 108.63 227.542 108.63C228.643 108.63 229.16 109.344 229.16 110.432Z" fill="#263238"/>
<path d="M230.656 110.962V111.955H229.895V110.962H230.656ZM230.656 114.859V115.845H229.895V114.859H230.656Z" fill="#263238"/>
<path d="M231.411 110.425C231.411 109.33 231.955 108.623 233.05 108.623C234.145 108.623 234.689 109.303 234.689 110.425V114.111C234.689 115.206 234.152 115.92 233.05 115.92C231.948 115.92 231.411 115.206 231.411 114.111V110.425ZM232.2 114.158C232.2 114.838 232.479 115.192 233.05 115.192C233.621 115.192 233.893 114.804 233.893 114.158V110.384C233.893 109.704 233.628 109.344 233.05 109.344C232.472 109.344 232.2 109.732 232.2 110.384V114.158Z" fill="#263238"/>
<path d="M235.382 110.425C235.382 109.33 235.926 108.623 237.021 108.623C238.116 108.623 238.667 109.303 238.667 110.425V114.111C238.667 115.206 238.123 115.92 237.021 115.92C235.92 115.92 235.382 115.206 235.382 114.111V110.425ZM236.171 114.158C236.171 114.838 236.45 115.192 237.021 115.192C237.592 115.192 237.864 114.804 237.864 114.158V110.384C237.864 109.704 237.599 109.344 237.021 109.344C236.443 109.344 236.171 109.732 236.171 110.384V114.158Z" fill="#263238"/>
<path d="M251.539 114.403V115.845H250.757V114.403H248.452V113.682L250.668 108.698H251.539V113.682H252.11V114.403H251.539ZM249.186 113.682H250.757V110.16L249.186 113.682Z" fill="#263238"/>
<path d="M253.484 110.962V111.955H252.722V110.962H253.484ZM253.484 114.859V115.845H252.722V114.859H253.484Z" fill="#263238"/>
<path d="M254.239 110.425C254.239 109.33 254.783 108.623 255.878 108.623C256.972 108.623 257.516 109.303 257.516 110.425V114.111C257.516 115.206 256.979 115.92 255.878 115.92C254.776 115.92 254.239 115.206 254.239 114.111V110.425ZM255.028 114.158C255.028 114.838 255.306 115.192 255.878 115.192C256.449 115.192 256.721 114.804 256.721 114.158V110.384C256.721 109.704 256.456 109.344 255.878 109.344C255.3 109.344 255.028 109.732 255.028 110.384V114.158Z" fill="#263238"/>
<path d="M258.217 110.425C258.217 109.33 258.754 108.623 259.849 108.623C260.944 108.623 261.494 109.303 261.494 110.425V114.111C261.494 115.206 260.95 115.92 259.849 115.92C258.747 115.92 258.217 115.206 258.217 114.111V110.425ZM258.999 114.158C258.999 114.838 259.278 115.192 259.849 115.192C260.42 115.192 260.699 114.804 260.699 114.158V110.384C260.699 109.704 260.427 109.344 259.849 109.344C259.271 109.344 258.999 109.732 258.999 110.384V114.158Z" fill="#263238"/>
<path d="M275.849 110.412V110.548H275.101V110.364C275.101 109.684 274.836 109.344 274.258 109.344C273.68 109.344 273.387 109.732 273.387 110.493V112.098C273.47 111.861 273.628 111.658 273.836 111.52C274.045 111.381 274.293 111.314 274.543 111.33C275.461 111.33 275.869 112.01 275.869 113.03V114.111C275.869 115.206 275.325 115.92 274.231 115.92C273.136 115.92 272.592 115.206 272.592 114.111V110.466C272.592 109.33 273.102 108.623 274.231 108.623C275.359 108.623 275.849 109.324 275.849 110.412ZM273.36 113.091V114.158C273.36 114.838 273.625 115.192 274.203 115.192C274.781 115.192 275.053 114.804 275.053 114.158V113.091C275.053 112.445 274.781 112.057 274.203 112.057C273.625 112.057 273.36 112.445 273.36 113.091Z" fill="#263238"/>
<path d="M277.379 110.962V111.955H276.611V110.962H277.379ZM277.379 114.859V115.845H276.611V114.859H277.379Z" fill="#263238"/>
<path d="M278.12 110.425C278.12 109.33 278.664 108.623 279.752 108.623C280.84 108.623 281.398 109.303 281.398 110.425V114.111C281.398 115.206 280.861 115.92 279.752 115.92C278.644 115.92 278.12 115.206 278.12 114.111V110.425ZM278.909 114.158C278.909 114.838 279.181 115.192 279.752 115.192C280.323 115.192 280.602 114.804 280.602 114.158V110.384C280.602 109.704 280.337 109.344 279.752 109.344C279.167 109.344 278.909 109.732 278.909 110.384V114.158Z" fill="#263238"/>
<path d="M282.105 110.425C282.105 109.33 282.649 108.623 283.744 108.623C284.839 108.623 285.383 109.303 285.383 110.425V114.111C285.383 115.206 284.845 115.92 283.744 115.92C282.642 115.92 282.105 115.206 282.105 114.111V110.425ZM282.894 114.158C282.894 114.838 283.166 115.192 283.744 115.192C284.322 115.192 284.587 114.804 284.587 114.158V110.384C284.587 109.704 284.322 109.344 283.744 109.344C283.166 109.344 282.894 109.732 282.894 110.384V114.158Z" fill="#263238"/>
<path d="M176.467 195.534H154.693V216.05H176.467V195.534Z" stroke="#ADADAD" stroke-miterlimit="10"/>
<path d="M198.873 195.534H177.1V216.05H198.873V195.534Z" stroke="#ADADAD" stroke-miterlimit="10"/>
<path d="M221.279 195.534H199.505V216.05H221.279V195.534Z" stroke="#ADADAD" stroke-miterlimit="10"/>
<path d="M243.692 195.534H221.918V216.05H243.692V195.534Z" stroke="#ADADAD" stroke-miterlimit="10"/>
<path d="M266.098 195.534H244.324V216.05H266.098V195.534Z" stroke="#ADADAD" stroke-miterlimit="10"/>
<path d="M288.599 195.534H266.825V216.05H288.599V195.534Z" stroke="#ADADAD" stroke-miterlimit="10"/>
<path d="M109.922 120.156H145.18" stroke="#ADADAD" stroke-miterlimit="10"/>
<path d="M109.922 124.025H145.18" stroke="#ADADAD" stroke-miterlimit="10"/>
<path d="M109.922 127.888H145.18" stroke="#ADADAD" stroke-miterlimit="10"/>
<path d="M109.922 131.75H145.18" stroke="#ADADAD" stroke-miterlimit="10"/>
<path d="M109.922 135.613H145.18" stroke="#ADADAD" stroke-miterlimit="10"/>
<path d="M109.922 139.482H145.18" stroke="#ADADAD" stroke-miterlimit="10"/>
<path d="M109.922 143.344H145.18" stroke="#ADADAD" stroke-miterlimit="10"/>
<path d="M109.922 147.207H145.18" stroke="#ADADAD" stroke-miterlimit="10"/>
<path d="M109.922 206.217H145.18" stroke="#ADADAD" stroke-miterlimit="10"/>
<path d="M109.922 210.079H145.18" stroke="#ADADAD" stroke-miterlimit="10"/>
<path d="M109.922 213.942H145.18" stroke="#ADADAD" stroke-miterlimit="10"/>
<path d="M109.922 217.804H145.18" stroke="#ADADAD" stroke-miterlimit="10"/>
<path d="M109.922 221.673H145.18" stroke="#ADADAD" stroke-miterlimit="10"/>
<path d="M109.922 225.536H145.18" stroke="#ADADAD" stroke-miterlimit="10"/>
<path d="M109.922 229.398H145.18" stroke="#ADADAD" stroke-miterlimit="10"/>
<path d="M109.922 233.26H145.18" stroke="#ADADAD" stroke-miterlimit="10"/>
<path d="M176.467 120.177H154.693V140.692H176.467V120.177Z" stroke="#ADADAD" stroke-miterlimit="10"/>
<path d="M198.873 120.177H177.1V140.692H198.873V120.177Z" fill="#4057A2" stroke="#ADADAD" stroke-miterlimit="10"/>
<path d="M221.279 120.177H199.505V140.692H221.279V120.177Z" fill="#4057A2" stroke="#ADADAD" stroke-miterlimit="10"/>
<path d="M243.692 120.177H221.918V140.692H243.692V120.177Z" stroke="#ADADAD" stroke-miterlimit="10"/>
<path d="M266.098 120.177H244.324V140.692H266.098V120.177Z" stroke="#ADADAD" stroke-miterlimit="10"/>
<path d="M288.599 120.177H266.825V140.692H288.599V120.177Z" stroke="#ADADAD" stroke-miterlimit="10"/>
<path d="M180.921 126.024H196.146" stroke="#ADADAD" stroke-miterlimit="10"/>
<path d="M180.921 128.343H196.146" stroke="#ADADAD" stroke-miterlimit="10"/>
<path d="M180.921 130.662H196.146" stroke="#ADADAD" stroke-miterlimit="10"/>
<path d="M180.921 132.974H196.146" stroke="#ADADAD" stroke-miterlimit="10"/>
<path d="M180.921 135.293H196.146" stroke="#ADADAD" stroke-miterlimit="10"/>
<path d="M176.467 145.275H154.693V165.791H176.467V145.275Z" stroke="#ADADAD" stroke-miterlimit="10"/>
<path d="M198.873 145.275H177.1V165.791H198.873V145.275Z" fill="#4057A2" stroke="#ADADAD" stroke-miterlimit="10"/>
<path d="M221.279 145.275H199.505V165.791H221.279V145.275Z" stroke="#ADADAD" stroke-miterlimit="10"/>
<path d="M243.692 145.275H221.918V165.791H243.692V145.275Z" stroke="#ADADAD" stroke-miterlimit="10"/>
<path d="M266.098 145.275H244.324V165.791H266.098V145.275Z" stroke="#ADADAD" stroke-miterlimit="10"/>
<path d="M288.599 145.275H266.825V165.791H288.599V145.275Z" stroke="#ADADAD" stroke-miterlimit="10"/>
<path d="M180.921 150.851H196.146" stroke="#ADADAD" stroke-miterlimit="10"/>
<path d="M180.921 153.163H196.146" stroke="#ADADAD" stroke-miterlimit="10"/>
<path d="M180.921 155.482H196.146" stroke="#ADADAD" stroke-miterlimit="10"/>
<path d="M180.921 157.801H196.146" stroke="#ADADAD" stroke-miterlimit="10"/>
<path d="M180.921 160.12H196.146" stroke="#ADADAD" stroke-miterlimit="10"/>
<path d="M176.467 170.367H154.693V190.883H176.467V170.367Z" stroke="#ADADAD" stroke-miterlimit="10"/>
<path d="M198.873 170.367H177.1V190.883H198.873V170.367Z" stroke="#ADADAD" stroke-miterlimit="10"/>
<path d="M221.279 170.367H199.505V190.883H221.279V170.367Z" stroke="#ADADAD" stroke-miterlimit="10"/>
<path d="M243.692 170.367H221.918V190.883H243.692V170.367Z" stroke="#ADADAD" stroke-miterlimit="10"/>
<path d="M266.098 170.367H244.324V190.883H266.098V170.367Z" fill="#4057A2" stroke="#ADADAD" stroke-miterlimit="10"/>
<path d="M288.599 170.367H266.825V190.883H288.599V170.367Z" stroke="#ADADAD" stroke-miterlimit="10"/>
<path d="M248.438 176.004H263.663" stroke="#ADADAD" stroke-miterlimit="10"/>
<path d="M248.438 178.323H263.663" stroke="#ADADAD" stroke-miterlimit="10"/>
<path d="M248.438 180.635H263.663" stroke="#ADADAD" stroke-miterlimit="10"/>
<path d="M248.438 182.954H263.663" stroke="#ADADAD" stroke-miterlimit="10"/>
<path d="M248.438 185.273H263.663" stroke="#ADADAD" stroke-miterlimit="10"/>
<path d="M176.467 220.694H154.693V241.21H176.467V220.694Z" stroke="#ADADAD" stroke-miterlimit="10"/>
<path d="M198.873 220.694H177.1V241.21H198.873V220.694Z" stroke="#ADADAD" stroke-miterlimit="10"/>
<path d="M221.279 220.694H199.505V241.21H221.279V220.694Z" fill="#4057A2" stroke="#ADADAD" stroke-miterlimit="10"/>
<path d="M243.692 220.694H221.918V241.21H243.692V220.694Z" fill="#4057A2" stroke="#ADADAD" stroke-miterlimit="10"/>
<path d="M266.098 220.694H244.324V241.21H266.098V220.694Z" fill="#4057A2" stroke="#ADADAD" stroke-miterlimit="10"/>
<path d="M288.599 220.694H266.825V241.21H288.599V220.694Z" stroke="#ADADAD" stroke-miterlimit="10"/>
<path d="M203.096 226.311H218.321" stroke="#ADADAD" stroke-miterlimit="10"/>
<path d="M203.096 228.63H218.321" stroke="#ADADAD" stroke-miterlimit="10"/>
<path d="M203.096 230.948H218.321" stroke="#ADADAD" stroke-miterlimit="10"/>
<path d="M203.096 233.26H218.321" stroke="#ADADAD" stroke-miterlimit="10"/>
<path d="M203.096 235.579H218.321" stroke="#ADADAD" stroke-miterlimit="10"/>
<path d="M225.271 226.311H240.496" stroke="#ADADAD" stroke-miterlimit="10"/>
<path d="M225.271 228.63H240.496" stroke="#ADADAD" stroke-miterlimit="10"/>
<path d="M225.271 230.948H240.496" stroke="#ADADAD" stroke-miterlimit="10"/>
<path d="M225.271 233.26H240.496" stroke="#ADADAD" stroke-miterlimit="10"/>
<path d="M225.271 235.579H240.496" stroke="#ADADAD" stroke-miterlimit="10"/>
<path d="M247.445 226.311H262.671" stroke="#ADADAD" stroke-miterlimit="10"/>
<path d="M247.445 228.63H262.671" stroke="#ADADAD" stroke-miterlimit="10"/>
<path d="M247.445 230.948H262.671" stroke="#ADADAD" stroke-miterlimit="10"/>
<path d="M247.445 233.26H262.671" stroke="#ADADAD" stroke-miterlimit="10"/>
<path d="M247.445 235.579H262.671" stroke="#ADADAD" stroke-miterlimit="10"/>
<path d="M94.4382 77.2139C88.2774 72.6511 80.1582 73.1339 75.2826 76.1871C70.407 79.2403 68.8974 84.7347 67.5306 88.4951C64.8106 95.9751 58.9694 100.422 52.6454 104.74C46.5254 108.936 38.5762 115.083 42.7718 123.467C44.669 127.269 47.0422 129.88 43.4518 136.054C39.8614 142.229 36.0874 145.085 38.6918 151.014C41.2962 156.944 44.6282 166.219 58.643 162.894C72.6578 159.569 76.935 143.65 78.363 137.734C79.791 131.818 86.6522 129.39 91.6638 125.14C96.6754 120.89 96.179 114.213 94.751 109.942C93.663 106.665 92.439 102 96.1858 98.2871L96.6754 98.4367C96.6754 98.4367 104.203 95.0367 105.454 92.9627C106.705 90.8887 100.592 81.7699 94.4382 77.2139Z" fill="#263238" stroke="#263238" stroke-linecap="round" stroke-linejoin="round"/>
<path d="M105.4 117.307C105.4 117.307 120.061 128.629 123.882 131.015C127.704 133.402 136.959 137.87 139.026 139.468C141.093 141.066 137.911 147.913 133.45 150.463C128.989 153.013 124.841 150.144 122.454 148.865C120.067 147.587 104.094 137.231 104.094 137.231L105.4 117.307Z" fill="#919191" stroke="#263238" stroke-linecap="round" stroke-linejoin="round"/>
<path d="M108.67 124.045L106.182 138.319L111.846 126.99" stroke="#263238" stroke-linecap="round" stroke-linejoin="round"/>
<path d="M110.323 191.76C110.323 191.76 106.502 191.916 102.163 187.932C97.8248 183.947 96.7232 182.192 96.7232 182.192C96.7232 182.192 94.52 160.024 94.52 157.95C94.52 155.876 96.3016 145.52 97.92 140.42C99.5384 135.32 102.544 141.379 102.544 141.379C102.544 141.379 106.209 177.079 106.848 180.588C107.488 184.096 110.323 191.76 110.323 191.76Z" fill="#787878" stroke="#263238" stroke-linecap="round" stroke-linejoin="round"/>
<path d="M97.5255 230.88C97.5255 230.88 93.1735 241.706 93.0035 246.935C92.8335 252.164 93.9079 260.052 89.8755 268.899C85.8431 277.746 82.0623 290.714 81.4299 294.678C80.7975 298.642 84.4219 309.495 86.2987 313.038C88.1755 316.581 87.4411 316.316 85.4487 316.248C83.9599 316.251 82.4967 315.861 81.2071 315.117C79.9175 314.373 78.8473 313.302 78.1047 312.011C75.9831 308.448 76.7991 306.231 75.3847 304.939L73.9295 303.64L72.6783 311.331L70.9375 311.025L72.5219 301.104C72.5219 301.104 72.3451 298.853 73.3719 297.888C74.3987 296.922 75.9967 293.984 75.9967 293.984C75.9967 293.984 77.7103 280.078 77.2819 270.586C76.8535 261.093 76.5543 255.102 77.6831 251.151C78.8119 247.2 78.8527 245.949 78.9887 241.964C79.1247 237.98 79.0295 233.24 79.0499 232.492C79.0703 231.744 97.5255 230.88 97.5255 230.88Z" fill="white"/>
<mask id="mask0_857_2081" style="mask-type:luminance" maskUnits="userSpaceOnUse" x="70" y="230" width="28" height="87">
<path d="M97.5255 230.88C97.5255 230.88 93.1735 241.706 93.0035 246.935C92.8335 252.164 93.9079 260.052 89.8755 268.899C85.8431 277.746 82.0623 290.714 81.4299 294.678C80.7975 298.642 84.4219 309.495 86.2987 313.038C88.1755 316.581 87.4411 316.316 85.4487 316.248C83.9599 316.251 82.4967 315.861 81.2071 315.117C79.9175 314.373 78.8473 313.302 78.1047 312.011C75.9831 308.448 76.7991 306.231 75.3847 304.939L73.9295 303.64L72.6783 311.331L70.9375 311.025L72.5219 301.104C72.5219 301.104 72.3451 298.853 73.3719 297.888C74.3987 296.922 75.9967 293.984 75.9967 293.984C75.9967 293.984 77.7103 280.078 77.2819 270.586C76.8535 261.093 76.5543 255.102 77.6831 251.151C78.8119 247.2 78.8527 245.949 78.9887 241.964C79.1247 237.98 79.0295 233.24 79.0499 232.492C79.0703 231.744 97.5255 230.88 97.5255 230.88Z" fill="white"/>
</mask>
<g mask="url(#mask0_857_2081)">
<path opacity="0.2" d="M79.0161 232.506C79.0161 233.05 79.0161 235.742 79.0161 238.707C81.1853 239.156 86.4961 239.754 95.1117 237.606C96.2949 233.947 97.5257 230.88 97.5257 230.88C97.5257 230.88 79.0433 231.758 79.0161 232.506Z" fill="black"/>
</g>
<path d="M97.5255 230.88C97.5255 230.88 93.1735 241.706 93.0035 246.935C92.8335 252.164 93.9079 260.052 89.8755 268.899C85.8431 277.746 82.0623 290.714 81.4299 294.678C80.7975 298.642 84.4219 309.495 86.2987 313.038C88.1755 316.581 87.4411 316.316 85.4487 316.248C83.9599 316.251 82.4967 315.861 81.2071 315.117C79.9175 314.373 78.8473 313.302 78.1047 312.011C75.9831 308.448 76.7991 306.231 75.3847 304.939L73.9295 303.64L72.6783 311.331L70.9375 311.025L72.5219 301.104C72.5219 301.104 72.3451 298.853 73.3719 297.888C74.3987 296.922 75.9967 293.984 75.9967 293.984C75.9967 293.984 77.7103 280.078 77.2819 270.586C76.8535 261.093 76.5543 255.102 77.6831 251.151C78.8119 247.2 78.8527 245.949 78.9887 241.964C79.1247 237.98 79.0295 233.24 79.0499 232.492C79.0703 231.744 97.5255 230.88 97.5255 230.88Z" stroke="#263238" stroke-linecap="round" stroke-linejoin="round"/>
<path d="M86.2985 313.051L86.1013 312.657C81.8309 313.935 79.9813 309.624 77.7713 304.497C76.7155 302.035 75.2992 299.743 73.5689 297.697C73.4873 297.779 73.4125 297.86 73.3377 297.928C72.3109 298.894 72.4877 301.145 72.4877 301.145L70.9033 311.066L72.6441 311.372L73.8953 303.681L75.3505 304.98C76.7989 306.272 75.9829 308.489 78.0705 312.052C78.8131 313.342 79.8833 314.413 81.1729 315.157C82.4625 315.901 83.9257 316.291 85.4145 316.288C87.4409 316.329 88.1753 316.601 86.2985 313.051Z" fill="#4057A2" stroke="#263238" stroke-linecap="round" stroke-linejoin="round"/>
<path d="M70.5498 306.789L70.8082 315.785L72.0526 315.826L72.719 309.101L70.5498 306.789Z" fill="#4057A2" stroke="#263238" stroke-linecap="round" stroke-linejoin="round"/>
<path d="M63.4168 229.241C63.4168 229.241 66.2048 235.314 63.8996 244.718C61.5944 254.123 63.8384 268.906 67.2996 278.249C70.7608 287.592 70.4412 296.058 70.8764 298.064C71.3116 300.07 70.4276 304.035 70.584 306.789C70.7404 309.543 75.344 314.18 76.2688 315.703C77.1936 317.227 84.1908 317.465 85.9384 317.526C87.686 317.587 87.9784 315.846 86.768 315.057C85.5576 314.269 82.9532 309.692 82.9532 309.692C82.9532 309.692 79.016 300.852 78.6148 297.826C78.2136 294.8 76.8128 277.066 77.4384 273.346C78.064 269.627 80.2468 249.002 80.9268 243.542C81.6068 238.081 82.1168 230.363 82.1168 230.363L63.4168 229.241Z" fill="white"/>
<mask id="mask1_857_2081" style="mask-type:luminance" maskUnits="userSpaceOnUse" x="62" y="229" width="26" height="89">
<path d="M63.4168 229.241C63.4168 229.241 66.2048 235.314 63.8996 244.718C61.5944 254.123 63.8384 268.906 67.2996 278.249C70.7608 287.592 70.4412 296.058 70.8764 298.064C71.3116 300.07 70.4276 304.035 70.584 306.789C70.7404 309.543 75.344 314.18 76.2688 315.703C77.1936 317.227 84.1908 317.465 85.9384 317.526C87.686 317.587 87.9784 315.846 86.768 315.057C85.5576 314.269 82.9532 309.692 82.9532 309.692C82.9532 309.692 79.016 300.852 78.6148 297.826C78.2136 294.8 76.8128 277.066 77.4384 273.346C78.064 269.627 80.2468 249.002 80.9268 243.542C81.6068 238.081 82.1168 230.363 82.1168 230.363L63.4168 229.241Z" fill="white"/>
</mask>
<g mask="url(#mask1_857_2081)">
<path opacity="0.2" d="M81.4778 238.041C81.845 233.995 82.083 230.363 82.083 230.363L63.417 229.241C64.2497 231.382 64.7097 233.65 64.777 235.946C67.8506 237.041 73.3178 238.34 81.4778 238.041Z" fill="black"/>
</g>
<path d="M63.4168 229.241C63.4168 229.241 66.2048 235.314 63.8996 244.718C61.5944 254.123 63.8384 268.906 67.2996 278.249C70.7608 287.592 70.4412 296.058 70.8764 298.064C71.3116 300.07 70.4276 304.035 70.584 306.789C70.7404 309.543 75.344 314.18 76.2688 315.703C77.1936 317.227 84.1908 317.465 85.9384 317.526C87.686 317.587 87.9784 315.846 86.768 315.057C85.5576 314.269 82.9532 309.692 82.9532 309.692C82.9532 309.692 79.016 300.852 78.6148 297.826C78.2136 294.8 76.8128 277.066 77.4384 273.346C78.064 269.627 80.2468 249.002 80.9268 243.542C81.6068 238.081 82.1168 230.363 82.1168 230.363L63.4168 229.241Z" stroke="#263238" stroke-linecap="round" stroke-linejoin="round"/>
<path d="M86.7339 315.058C86.1906 314.613 85.7183 314.088 85.3331 313.5C81.9875 313.337 77.9619 312.956 76.6223 311.726C75.0515 310.291 71.3251 303.457 70.7743 302.437C70.5962 303.88 70.5212 305.335 70.5499 306.789C70.7063 309.509 75.3099 314.18 76.2347 315.704C77.1595 317.227 84.1567 317.465 85.9043 317.526C87.6519 317.587 87.9511 315.846 86.7339 315.058Z" fill="#4057A2" stroke="#263238" stroke-linecap="round" stroke-linejoin="round"/>
<path d="M60.2748 160.82C60.2748 160.82 51.6728 186.66 52.3052 197.798C52.9376 208.937 59.3228 230.955 59.3228 230.955C59.3228 230.955 73.664 234.777 83.864 234.777C90.3653 234.694 96.8159 233.618 102.992 231.587C102.992 231.587 108.092 195.547 105.862 182.818C104.458 175.046 101.414 167.663 96.9336 161.16L60.2748 160.82Z" fill="#263238" stroke="#263238" stroke-linecap="round" stroke-linejoin="round"/>
<path d="M67.6123 116.355C67.6123 116.355 75.8947 112.689 80.0427 112.689C84.1907 112.689 93.2687 119.7 94.7035 120.979C96.1383 122.257 101.238 136.755 102.034 140.739C102.83 144.724 96.9339 162.255 96.9339 162.255C96.9339 162.255 86.2579 164.485 78.2883 164.172C70.3187 163.859 66.8099 162.894 66.8099 162.894C66.8099 162.894 63.6275 146.955 62.0499 137.55C60.4723 128.146 58.7043 121.91 60.1391 119.544C61.5739 117.177 67.6123 116.355 67.6123 116.355Z" fill="white"/>
<mask id="mask2_857_2081" style="mask-type:luminance" maskUnits="userSpaceOnUse" x="59" y="112" width="44" height="53">
<path d="M67.6123 116.355C67.6123 116.355 75.8947 112.689 80.0427 112.689C84.1907 112.689 93.2687 119.7 94.7035 120.979C96.1383 122.257 101.238 136.755 102.034 140.739C102.83 144.724 96.9339 162.255 96.9339 162.255C96.9339 162.255 86.2579 164.485 78.2883 164.172C70.3187 163.859 66.8099 162.894 66.8099 162.894C66.8099 162.894 63.6275 146.955 62.0499 137.55C60.4723 128.146 58.7043 121.91 60.1391 119.544C61.5739 117.177 67.6123 116.355 67.6123 116.355Z" fill="white"/>
</mask>
<g mask="url(#mask2_857_2081)">
<path opacity="0.3" d="M96.9337 162.255C96.9337 162.255 102.836 144.724 102.034 140.739C101.231 136.755 96.1381 122.25 94.7033 120.979C94.2681 120.584 93.1121 119.659 91.6025 118.565L90.5757 120.054C90.5757 120.054 95.8797 135.32 96.0565 141.243C96.2265 146.771 91.2965 161.439 90.6165 163.329C94.2885 162.812 96.9337 162.255 96.9337 162.255Z" fill="black"/>
</g>
<path d="M67.6123 116.355C67.6123 116.355 75.8947 112.689 80.0427 112.689C84.1907 112.689 93.2687 119.7 94.7035 120.979C96.1383 122.257 101.238 136.755 102.034 140.739C102.83 144.724 96.9339 162.255 96.9339 162.255C96.9339 162.255 86.2579 164.485 78.2883 164.172C70.3187 163.859 66.8099 162.894 66.8099 162.894C66.8099 162.894 63.6275 146.955 62.0499 137.55C60.4723 128.146 58.7043 121.91 60.1391 119.544C61.5739 117.177 67.6123 116.355 67.6123 116.355Z" stroke="#263238" stroke-linecap="round" stroke-linejoin="round"/>
<path d="M87.5293 115.076C87.5293 115.076 95.8185 129.9 98.2121 139.148C100.606 148.396 104.584 187.122 106.338 188.877C107.526 190.014 108.868 190.98 110.323 191.746C110.323 191.746 105.563 165.607 105.563 157.794C105.563 149.981 106.841 119.381 106.039 117.626C105.236 115.872 102.537 116.831 96.9541 116.191C91.3713 115.552 87.5293 115.076 87.5293 115.076Z" fill="#919191" stroke="#263238" stroke-linecap="round" stroke-linejoin="round"/>
<path d="M73.909 111.874L47.389 121.931C47.389 121.931 48.341 152.85 48.6606 156.835C48.9802 160.82 50.5782 162.894 52.8086 164.485C55.039 166.076 55.8346 164.172 55.8346 164.172C55.8346 164.172 51.3738 180.907 48.6606 186.612C45.9474 192.318 47.389 192.671 47.389 192.671C47.389 192.671 57.7454 197.132 65.239 194.745C72.7326 192.358 74.963 186.932 74.963 186.932L70.7946 138.04C70.7946 138.04 70.7946 124.012 71.5902 120.822C72.3858 117.633 73.909 111.874 73.909 111.874Z" fill="#919191" stroke="#263238" stroke-linecap="round" stroke-linejoin="round"/>
<path d="M55.2158 172.523C55.2158 172.523 63.1446 172.747 67.8978 170.938V173.883C64.3708 174.358 60.8147 174.586 57.2558 174.563" stroke="#263238" stroke-linecap="round" stroke-linejoin="round"/>
<path d="M52.9517 122.005C52.9517 122.005 59.9761 126.765 62.2405 134.245" stroke="#263238" stroke-linecap="round" stroke-linejoin="round"/>
<path d="M73.9089 111.873C73.199 112.455 72.5497 113.106 71.9709 113.818C71.0597 114.954 68.5709 120.203 67.0681 121.795C65.5653 123.386 66.3881 123.733 66.9593 123.624C67.5305 123.515 72.9977 121.584 74.0245 121.115C74.8819 120.762 75.7582 120.458 76.6493 120.203L84.8569 128.295L87.1417 120.088C87.1417 120.088 95.6893 120.768 96.7161 120.883C97.7429 120.999 98.5385 120.428 97.7429 120.428C96.9473 120.428 90.3309 117.123 89.4197 116.667C88.5085 116.212 87.2505 113.471 84.5169 111.649C81.7833 109.827 75.8537 109.255 73.9089 111.873Z" fill="white" stroke="#263238" stroke-linecap="round" stroke-linejoin="round"/>
<path d="M85.4284 114.614L84.8572 128.296C84.8572 128.296 76.534 117.803 75.48 116.552C74.7557 115.484 74.2518 114.281 73.9976 113.016L74.9088 101.157C74.9088 101.157 80.2672 109.827 81.6408 110.738C83.0144 111.649 85.3128 113.472 85.4284 114.614Z" fill="white" stroke="#263238" stroke-linecap="round" stroke-linejoin="round"/>
<path d="M81.6679 110.738C80.3079 109.827 74.9359 101.157 74.9359 101.157L74.2559 110.038C75.3031 112.152 83.3475 116.885 84.6871 117.103C84.8958 117.141 85.1072 117.164 85.3195 117.171L85.4283 114.614C85.3127 113.472 83.0347 111.649 81.6679 110.738Z" fill="#263238" stroke="#263238" stroke-linecap="round" stroke-linejoin="round"/>
<path d="M95.2338 86.7883C95.2338 86.7883 83.0346 93.9759 79.383 95.6827L77.343 96.2539C77.343 96.2539 74.7182 92.4935 73.4602 93.2891C72.2022 94.0847 71.5222 96.1383 72.209 97.9675C72.8184 99.2519 73.7569 100.352 74.929 101.157C74.929 101.157 75.0446 106.631 75.847 108.684C76.6494 110.738 84.9998 115.641 86.3598 115.865C87.7198 116.09 88.9846 115.865 89.6714 114.614C90.3582 113.363 94.683 108.229 96.621 101.157C98.559 94.0847 97.403 87.9307 95.2338 86.7883Z" fill="white" stroke="#263238" stroke-linecap="round" stroke-linejoin="round"/>
<path d="M92.5001 98.3074L92.8401 104.924L89.1885 104.121" stroke="#263238" stroke-linecap="round" stroke-linejoin="round"/>
<path d="M84.6328 104.924C84.6328 104.924 85.4284 105.944 88.7128 107.086" stroke="#263238" stroke-linecap="round" stroke-linejoin="round"/>
<path d="M84.0615 97.512C84.0615 97.512 84.9727 99.45 88.2775 98.7632" stroke="#263238" stroke-linecap="round" stroke-linejoin="round"/>
<path d="M93.7515 100.13C93.9946 100.521 94.3667 100.816 94.8037 100.962C95.2407 101.109 95.7151 101.098 96.1451 100.932" stroke="#263238" stroke-linecap="round" stroke-linejoin="round"/>
<path d="M85 94.3158C85.8472 93.9552 86.7585 93.7693 87.6792 93.7693C88.5999 93.7693 89.5112 93.9552 90.3584 94.3158" stroke="#263238" stroke-linecap="round" stroke-linejoin="round"/>
<path d="M97.0561 96.9407C96.6005 95.6827 94.5537 95.2271 94.5537 95.2271" stroke="#263238" stroke-linecap="round" stroke-linejoin="round"/>
<path d="M117.796 146.336L107.596 148.628C107.596 148.628 94.9414 148.077 93.9962 148.444C93.051 148.811 93.9078 152.572 93.9078 152.572C92.5338 152.671 91.1543 152.671 89.7802 152.572C88.223 152.388 87.4886 152.667 87.8558 153.673C88.223 154.68 89.7802 155.598 91.2558 155.598C92.7653 155.493 94.2652 155.279 95.7438 154.958C95.7438 154.958 99.5042 156.318 100.885 156.318C102.265 156.318 104.285 155.128 104.285 155.128C104.285 155.128 106.76 155.217 108.045 155.312C109.33 155.407 110.976 153.748 110.976 153.748L120.972 153.476L117.796 146.336Z" fill="white" stroke="#263238" stroke-linecap="round" stroke-linejoin="round"/>
<path d="M92.3028 147.805C92.3028 147.805 89.916 147.988 89.916 148.723C89.916 149.457 91.8472 154.958 91.8472 154.958L95.696 155.325C95.696 155.325 96.2468 155.142 95.7844 154.407C95.2505 153.724 94.6364 153.108 93.9552 152.571L94.0436 148.444L92.3028 147.805Z" fill="white" stroke="#263238" stroke-linecap="round" stroke-linejoin="round"/>
<path d="M96.2335 147.159C96.2335 147.159 92.0787 146.798 91.9223 147.267C91.7659 147.737 92.6023 154.747 92.6023 154.747C92.6023 154.747 96.8047 155.652 97.3623 155.611C97.5062 155.594 97.6424 155.537 97.7555 155.446C97.8686 155.356 97.9541 155.235 98.0022 155.099C98.0504 154.962 98.0592 154.815 98.0279 154.673C97.9965 154.532 97.9261 154.402 97.8247 154.299C97.145 153.773 96.4054 153.331 95.6215 152.979L96.2335 147.159Z" fill="white" stroke="#263238" stroke-linecap="round" stroke-linejoin="round"/>
<path d="M98.6336 146.703C98.6336 146.703 94.506 146.023 94.3224 146.519C94.1388 147.016 94.506 154.04 94.506 154.04C94.506 154.04 98.6336 155.23 99.1776 155.23C99.3225 155.222 99.462 155.173 99.5807 155.089C99.6994 155.006 99.7926 154.891 99.8498 154.758C99.9069 154.624 99.9258 154.478 99.9044 154.334C99.883 154.191 99.822 154.056 99.7284 153.945C99.0855 153.377 98.3779 152.886 97.6204 152.483L98.6336 146.703Z" fill="white" stroke="#263238" stroke-linecap="round" stroke-linejoin="round"/>
<path d="M109.269 149.45C109.269 149.45 98.9944 145.601 98.4504 145.418C97.9064 145.234 97.5324 145.513 97.5324 145.88C97.5324 146.247 95.88 153 96.4308 153.489C96.9816 153.979 100.28 154.958 100.28 154.958C100.28 154.958 101.198 154.312 101.293 154.04C101.388 153.768 100.28 153.027 100.28 153.027L100.463 150.987L102.85 151.81" fill="white"/>
<path d="M109.269 149.45C109.269 149.45 98.9944 145.601 98.4504 145.418C97.9064 145.234 97.5324 145.513 97.5324 145.88C97.5324 146.247 95.88 153 96.4308 153.489C96.9816 153.979 100.28 154.958 100.28 154.958C100.28 154.958 101.198 154.312 101.293 154.04C101.388 153.768 100.28 153.027 100.28 153.027L100.463 150.987L102.85 151.81" stroke="#263238" stroke-linecap="round" stroke-linejoin="round"/>
<path d="M110.275 147.893C110.275 147.893 112.574 150.613 111.472 153.489H113.852C113.852 153.489 114.77 148.906 112.662 147.621L110.275 147.893Z" fill="#263238" stroke="#263238" stroke-linecap="round" stroke-linejoin="round"/>
<path d="M113.852 146.52C113.852 146.52 115.477 148.641 115.892 155.761C115.974 157.08 133.089 154.775 137.856 153.857C142.623 152.939 144.459 151.137 144.826 147.159C145.193 143.181 140.787 139.182 137.489 137.809C134.191 136.435 113.852 146.52 113.852 146.52Z" fill="#919191" stroke="#263238" stroke-linecap="round" stroke-linejoin="round"/>
<path d="M70.3311 89.7718L64.3358 92.7584C63.6803 93.0849 63.4136 93.881 63.7402 94.5365L71.6083 110.331C71.9348 110.987 72.7309 111.253 73.3864 110.927L79.3817 107.94C80.0372 107.614 80.3039 106.818 79.9774 106.162L72.1093 90.3675C71.7827 89.712 70.9866 89.4453 70.3311 89.7718Z" fill="#4057A2" stroke="#263238" stroke-linecap="round" stroke-linejoin="round"/>
<path d="M65.5857 121.795L67.1837 115.301L63.7837 104.577C63.7837 104.577 66.8641 96.7094 67.4353 95.9138C68.0065 95.1182 69.4753 94.3158 70.0533 94.5538C70.6313 94.7918 70.6245 95.5806 69.8289 96.0362C69.2672 96.4366 68.8309 96.9884 68.5709 97.6274L66.8641 103.448L67.6393 104.72L69.8085 98.1034C69.8085 98.1034 76.0781 97.3078 76.4181 97.3078C76.7581 97.3078 78.1317 97.4234 77.4449 98.3346C77.0635 98.8659 76.4949 99.2328 75.8537 99.3614H78.4717C78.4717 99.3614 79.3829 99.817 78.8117 100.504C78.2405 101.191 74.3713 102.211 74.3713 102.211L72.8889 106.889L75.7381 103.577L78.5873 103.122C78.5873 103.122 80.5253 103.577 80.1853 104.38C79.8453 105.182 78.1453 104.72 78.1453 104.72L76.4317 105.631L73.8137 110.391V116.321C73.8137 117.803 71.1889 123.168 71.1889 123.168L65.5857 121.795Z" fill="white" stroke="#263238" stroke-linecap="round" stroke-linejoin="round"/>
<path d="M75.8539 99.3342L71.9711 100.245L69.9243 106.862" stroke="#263238" stroke-linecap="round" stroke-linejoin="round"/>
<path d="M64.2599 119.68L74.6231 123.189C74.6231 123.189 66.4087 159.446 65.1031 162.765C63.0223 168.123 55.6443 167.015 52.6115 166.063C49.5787 165.111 47.8515 159.208 48.6267 156.815C49.4019 154.421 64.2599 119.68 64.2599 119.68Z" fill="#919191" stroke="#263238" stroke-linecap="round" stroke-linejoin="round"/>
</svg>
