<svg width="56" height="56" viewBox="0 0 56 56" fill="none" xmlns="http://www.w3.org/2000/svg">
    <path opacity=".5" d="M9.333 24.5V6.417h37.334V24.5c0 7.15 0 10.724-2.343 12.946-2.344 2.22-6.115 2.22-13.657 2.22h-5.334c-7.542 0-11.313 0-13.656-2.22C9.333 35.225 9.333 31.65 9.333 24.5z" fill="#8EEBF9"/>
    <path d="M36.237 21.07a1.75 1.75 0 1 0-2.474-2.474l-3.017 3.017c-.164.163-.296.296-.413.408a37.96 37.96 0 0 1-.412-.408l-1.424-1.424c-.338-.339-.704-.705-1.054-.972-.41-.313-.998-.65-1.776-.65s-1.366.337-1.776.65c-.35.267-.717.633-1.055.972l-3.073 3.073a1.75 1.75 0 1 0 2.474 2.475l3.017-3.016c.164-.164.296-.296.413-.41.116.114.249.246.412.41l1.424 1.423c.338.339.704.705 1.054.972.41.314.998.65 1.776.65s1.366-.336 1.776-.65c.35-.267.717-.633 1.055-.972l3.073-3.073zM4.667 2.917a1.75 1.75 0 1 0 0 3.5h46.666a1.75 1.75 0 1 0 0-3.5H4.667zM26.25 39.667v8.252l-3.699 1.85a1.75 1.75 0 1 0 1.565 3.13L28 50.957l3.884 1.942a1.75 1.75 0 0 0 1.566-3.13l-3.7-1.85v-8.252h-3.5z" fill="#8EEBF9"/>
</svg>
