<svg width="22" height="21" viewBox="0 0 22 21" fill="none" xmlns="http://www.w3.org/2000/svg">
<path d="M16.0491 5.0504C15.6877 5.16971 15.3053 5.21202 14.9265 5.17459C14.5478 5.13716 14.181 5.02083 13.85 4.83309C13.52 4.64387 13.2335 4.38749 13.0089 4.08054C12.7843 3.77358 12.6266 3.4229 12.5461 3.05117C12.514 2.88093 12.4313 2.72433 12.3088 2.60183C12.1863 2.47933 12.0297 2.39661 11.8594 2.36447C10.9781 2.22396 10.0799 2.22689 9.19957 2.37317C9.03102 2.40709 8.87644 2.49057 8.75564 2.61291C8.63485 2.73526 8.55334 2.89089 8.52157 3.05986C8.44317 3.43354 8.28743 3.78667 8.06438 4.09655C7.84132 4.40644 7.55588 4.66621 7.22642 4.85917C6.89732 5.05163 6.53112 5.17207 6.15203 5.21253C5.77293 5.25299 5.38957 5.21254 5.02726 5.09386C4.86548 5.03844 4.69095 5.03197 4.52551 5.07526C4.36008 5.11855 4.21108 5.20968 4.09719 5.33724C3.53772 6.03237 3.09447 6.81348 2.78465 7.65027C2.72991 7.81221 2.72553 7.98694 2.77208 8.15142C2.81863 8.3159 2.91393 8.46242 3.04542 8.57165C3.3265 8.82954 3.55174 9.14232 3.70722 9.49066C3.86271 9.839 3.94514 10.2155 3.94942 10.597C3.94955 10.9783 3.86997 11.3554 3.71579 11.7042C3.56161 12.053 3.33623 12.3657 3.05411 12.6223C2.92453 12.7328 2.8312 12.8798 2.78624 13.0442C2.74129 13.2085 2.74679 13.3825 2.80203 13.5437C2.96122 13.9608 3.15305 14.3648 3.37572 14.7519C3.6005 15.1371 3.85633 15.5034 4.14065 15.8471C4.25454 15.9747 4.40354 16.0658 4.56898 16.1091C4.73441 16.1524 4.90895 16.1459 5.07072 16.0905C5.43179 15.97 5.81419 15.9271 6.19298 15.9645C6.57176 16.0018 6.93841 16.1186 7.26899 16.3073C7.59956 16.496 7.88663 16.7522 8.11145 17.0594C8.33627 17.3665 8.49379 17.7176 8.57372 18.0897C8.60574 18.2577 8.6875 18.4121 8.8084 18.5331C8.92931 18.654 9.08376 18.7357 9.25172 18.7677C10.133 18.9083 11.0312 18.9053 11.9116 18.759C12.0801 18.7251 12.2347 18.6416 12.3555 18.5193C12.4763 18.3969 12.5578 18.2413 12.5896 18.0723C12.668 17.6987 12.8237 17.3455 13.0468 17.0357C13.2698 16.7258 13.5553 16.466 13.8847 16.273C14.2138 16.0806 14.58 15.9601 14.9591 15.9197C15.3382 15.8792 15.7216 15.9197 16.0839 16.0383C16.2461 16.0959 16.4221 16.1026 16.5883 16.0575C16.7545 16.0125 16.9029 15.9179 17.014 15.7863C17.5729 15.0896 18.0187 14.3093 18.3352 13.4741C18.3899 13.3122 18.3943 13.1374 18.3478 12.973C18.3012 12.8085 18.2059 12.662 18.0744 12.5527C17.7889 12.2997 17.5601 11.9892 17.4028 11.6416C17.2456 11.294 17.1634 10.9172 17.1618 10.5357C17.1601 10.1542 17.239 9.7766 17.3933 9.42768C17.5476 9.07876 17.7737 8.76633 18.057 8.51081C18.1866 8.40022 18.2799 8.25323 18.3249 8.08891C18.3699 7.9246 18.3644 7.75057 18.3091 7.58942C18.1499 7.17223 17.9581 6.76824 17.7354 6.38119C17.5166 5.99697 17.2635 5.63332 16.9792 5.29465C16.8654 5.16694 16.7164 5.07565 16.551 5.0322C16.3856 4.98875 16.211 4.99508 16.0491 5.0504Z" stroke="#BBBFD0" stroke-width="2" stroke-miterlimit="10" stroke-linecap="round" stroke-linejoin="round"/>
<path d="M10.564 13.1424C10.0551 13.1424 9.55769 12.9915 9.13457 12.7088C8.71146 12.4261 8.38168 12.0243 8.18694 11.5541C7.9922 11.084 7.94125 10.5667 8.04053 10.0676C8.1398 9.56846 8.38485 9.11 8.74468 8.75017C9.10451 8.39035 9.56296 8.1453 10.0621 8.04602C10.5612 7.94674 11.0785 7.9977 11.5486 8.19244C12.0188 8.38717 12.4206 8.71695 12.7033 9.14007C12.986 9.56318 13.1369 10.0606 13.1369 10.5695C13.1369 11.2519 12.8659 11.9063 12.3833 12.3888C11.9008 12.8714 11.2464 13.1424 10.564 13.1424V13.1424Z" stroke="#BBBFD0" stroke-width="2" stroke-miterlimit="10" stroke-linecap="round" stroke-linejoin="round"/>
</svg>
