<svg width="21" height="21" viewBox="0 0 21 21" fill="none" xmlns="http://www.w3.org/2000/svg">
<path d="M15.5769 5.0504C15.2155 5.16971 14.8331 5.21202 14.4543 5.17459C14.0755 5.13716 13.7088 5.02083 13.3777 4.83309C13.0478 4.64387 12.7612 4.38749 12.5366 4.08054C12.312 3.77358 12.1544 3.4229 12.0739 3.05117C12.0417 2.88093 11.959 2.72433 11.8365 2.60183C11.714 2.47933 11.5574 2.39661 11.3872 2.36447C10.5059 2.22396 9.60769 2.22689 8.72734 2.37317C8.55879 2.40709 8.40421 2.49057 8.28341 2.61291C8.16262 2.73526 8.08111 2.89089 8.04934 3.05986C7.97094 3.43354 7.8152 3.78667 7.59215 4.09655C7.36909 4.40644 7.08365 4.66621 6.75419 4.85917C6.42509 5.05163 6.05889 5.17207 5.6798 5.21253C5.3007 5.25299 4.91734 5.21254 4.55503 5.09386C4.39326 5.03844 4.21872 5.03197 4.05328 5.07526C3.88785 5.11855 3.73885 5.20968 3.62496 5.33724C3.06549 6.03237 2.62224 6.81348 2.31242 7.65027C2.25768 7.81221 2.2533 7.98694 2.29985 8.15142C2.3464 8.3159 2.4417 8.46242 2.57319 8.57165C2.85427 8.82954 3.07951 9.14232 3.235 9.49066C3.39048 9.839 3.47291 10.2155 3.47719 10.597C3.47732 10.9783 3.39774 11.3554 3.24356 11.7042C3.08938 12.053 2.864 12.3657 2.58188 12.6223C2.4523 12.7328 2.35897 12.8798 2.31401 13.0442C2.26906 13.2085 2.27456 13.3825 2.3298 13.5437C2.489 13.9608 2.68082 14.3648 2.9035 14.7519C3.12828 15.1371 3.3841 15.5034 3.66842 15.8471C3.78232 15.9747 3.93131 16.0658 4.09675 16.1091C4.26218 16.1524 4.43672 16.1459 4.5985 16.0905C4.95956 15.97 5.34196 15.9271 5.72075 15.9645C6.09954 16.0018 6.46618 16.1186 6.79676 16.3073C7.12733 16.496 7.4144 16.7522 7.63922 17.0594C7.86404 17.3665 8.02156 17.7176 8.1015 18.0897C8.13351 18.2577 8.21527 18.4121 8.33617 18.5331C8.45708 18.654 8.61154 18.7357 8.7795 18.7677C9.66078 18.9083 10.559 18.9053 11.4393 18.759C11.6079 18.7251 11.7625 18.6416 11.8833 18.5193C12.0041 18.3969 12.0856 18.2413 12.1173 18.0723C12.1957 17.6987 12.3515 17.3455 12.5745 17.0357C12.7976 16.7258 13.083 16.466 13.4125 16.273C13.7416 16.0806 14.1078 15.9601 14.4869 15.9197C14.866 15.8792 15.2493 15.9197 15.6116 16.0383C15.7739 16.0959 15.9499 16.1026 16.116 16.0575C16.2822 16.0125 16.4307 15.9179 16.5417 15.7863C17.1006 15.0896 17.5465 14.3093 17.863 13.4741C17.9177 13.3122 17.9221 13.1374 17.8755 12.973C17.829 12.8085 17.7337 12.662 17.6022 12.5527C17.3167 12.2997 17.0879 11.9892 16.9306 11.6416C16.7733 11.294 16.6912 10.9172 16.6895 10.5357C16.6879 10.1542 16.7668 9.7766 16.9211 9.42768C17.0753 9.07876 17.3015 8.76633 17.5848 8.51081C17.7144 8.40022 17.8077 8.25323 17.8527 8.08891C17.8976 7.9246 17.8921 7.75057 17.8369 7.58942C17.6777 7.17223 17.4859 6.76824 17.2632 6.38119C17.0443 5.99697 16.7912 5.63332 16.507 5.29465C16.3932 5.16694 16.2442 5.07565 16.0788 5.0322C15.9133 4.98875 15.7387 4.99508 15.5769 5.0504Z" fill="url(#paint0_linear_931_12801)" stroke="url(#paint1_linear_931_12801)" stroke-width="2" stroke-miterlimit="10" stroke-linecap="round" stroke-linejoin="round"/>
<path d="M10.0918 13.1424C9.58291 13.1424 9.08546 12.9915 8.66234 12.7088C8.23923 12.4261 7.90945 12.0243 7.71471 11.5541C7.51997 11.084 7.46902 10.5667 7.5683 10.0676C7.66758 9.56846 7.91262 9.11 8.27245 8.75017C8.63228 8.39035 9.09073 8.1453 9.58983 8.04602C10.0889 7.94674 10.6063 7.9977 11.0764 8.19244C11.5465 8.38717 11.9484 8.71695 12.2311 9.14007C12.5138 9.56318 12.6647 10.0606 12.6647 10.5695C12.6647 11.2519 12.3936 11.9063 11.9111 12.3888C11.4286 12.8714 10.7742 13.1424 10.0918 13.1424V13.1424Z" fill="url(#paint2_linear_931_12801)" stroke="white" stroke-width="2" stroke-miterlimit="10" stroke-linecap="round" stroke-linejoin="round"/>
<defs>
<linearGradient id="paint0_linear_931_12801" x1="10.0877" y1="2.26123" x2="10.0877" y2="18.871" gradientUnits="userSpaceOnUse">
<stop stop-color="#3073FE"/>
<stop offset="0.515625" stop-color="#1F255E"/>
<stop offset="1" stop-color="#6A798D"/>
</linearGradient>
<linearGradient id="paint1_linear_931_12801" x1="10.0877" y1="2.26123" x2="10.0877" y2="18.871" gradientUnits="userSpaceOnUse">
<stop stop-color="#3073FE"/>
<stop offset="0.515625" stop-color="#1F255E"/>
<stop offset="1" stop-color="#6A798D"/>
</linearGradient>
<linearGradient id="paint2_linear_931_12801" x1="10.0918" y1="7.99658" x2="10.0918" y2="13.1424" gradientUnits="userSpaceOnUse">
<stop stop-color="#3073FE"/>
<stop offset="0.515625" stop-color="#1F255E"/>
<stop offset="1" stop-color="#6A798D"/>
</linearGradient>
</defs>
</svg>
