<?xml version="1.0" standalone="no"?>
<!DOCTYPE svg PUBLIC "-//W3C//DTD SVG 20010904//EN"
 "http://www.w3.org/TR/2001/REC-SVG-20010904/DTD/svg10.dtd">
<svg version="1.0" xmlns="http://www.w3.org/2000/svg"
 width="500.000000pt" height="500.000000pt" viewBox="0 0 500.000000 500.000000"
 preserveAspectRatio="xMidYMid meet">

<g transform="translate(0.000000,500.000000) scale(0.100000,-0.100000)"
fill="#000000" stroke="none">
<path d="M1575 4121 c-104 -26 -176 -109 -195 -224 -21 -133 82 -264 222 -283
97 -13 213 49 261 140 28 53 31 174 5 222 -39 72 -124 144 -150 128 -6 -4 -8
-3 -5 3 12 19 -80 28 -138 14z"/>
<path d="M1270 3617 c-14 -6 -28 -15 -31 -20 -3 -5 -8 -7 -10 -6 -12 10 -67
-56 -267 -323 -122 -163 -222 -299 -222 -303 0 -3 5 -3 12 1 7 4 8 3 4 -5 -4
-6 -11 -9 -16 -6 -5 3 -21 -11 -35 -32 -30 -45 -53 -76 -122 -164 -29 -37 -49
-69 -46 -73 4 -3 2 -6 -4 -6 -30 0 -37 -59 -58 -450 -15 -306 -17 -326 -35
-370 -17 -42 -227 -667 -235 -700 -2 -8 -11 -35 -19 -59 -9 -24 -16 -63 -16
-88 0 -37 5 -49 32 -73 17 -16 34 -28 36 -26 2 2 16 1 31 -4 62 -17 115 30
154 135 57 156 201 543 219 590 11 28 23 61 28 75 4 14 14 39 21 55 15 36 14
32 24 70 4 17 10 35 14 40 3 6 6 12 6 15 1 3 5 23 9 45 6 36 10 136 17 408 1
48 5 90 9 92 8 5 111 -151 125 -188 4 -9 11 -14 16 -11 5 3 8 2 7 -3 -4 -17
14 -53 24 -47 6 4 8 2 5 -3 -4 -6 2 -22 13 -36 11 -14 20 -28 20 -32 0 -3 42
-77 94 -163 l94 -157 -8 -150 c-30 -551 -33 -669 -17 -708 9 -20 24 -40 34
-43 10 -3 25 -9 33 -13 19 -10 91 -2 107 11 7 6 10 15 6 21 -3 6 -1 7 5 3 16
-10 42 47 48 102 2 26 11 139 19 252 9 113 17 230 20 260 26 312 18 386 -56
514 -28 47 -55 86 -60 86 -6 0 -8 4 -5 9 3 5 -2 19 -12 32 -10 13 -23 35 -30
49 -16 31 -16 31 -135 222 l-98 158 33 47 c18 26 43 58 55 72 11 13 27 35 35
49 7 14 26 40 41 57 33 37 149 195 204 277 21 31 44 59 51 62 15 6 35 -11 223
-183 162 -148 154 -145 439 -149 129 -2 277 1 329 6 103 11 126 24 137 79 5
25 1 37 -18 56 -30 30 -78 39 -396 73 l-254 27 -38 41 c-21 22 -54 61 -75 86
-31 37 -160 181 -225 250 -8 9 -35 38 -60 66 -57 63 -94 88 -152 102 -26 7
-48 12 -50 11 -2 0 -14 -6 -28 -12z m71 -554 c13 -16 12 -17 -3 -4 -10 7 -18
15 -18 17 0 8 8 3 21 -13z"/>
<path d="M3400 3115 c-110 -31 -190 -99 -238 -204 -44 -95 -41 -253 6 -311
l17 -21 131 103 c71 57 191 151 265 209 170 135 171 135 139 162 -78 63 -217
90 -320 62z"/>
<path d="M4185 2950 c-24 -12 -50 -37 -66 -62 -23 -36 -191 -336 -227 -404
-11 -20 -1 -27 174 -124 102 -56 186 -101 188 -99 2 2 59 103 126 223 137 245
147 274 111 344 -22 43 -54 68 -148 116 -62 31 -104 33 -158 6z"/>
<path d="M3679 2838 c-68 -55 -191 -152 -272 -216 -115 -90 -147 -120 -145
-136 2 -14 25 -32 72 -56 63 -32 76 -35 155 -35 223 0 374 151 372 372 0 71
-24 158 -45 166 -8 3 -69 -40 -137 -95z"/>
<path d="M2693 2823 l-31 -62 56 -16 c32 -9 87 -25 123 -36 l67 -20 6 -62 c3
-34 24 -298 47 -587 38 -488 42 -527 62 -547 l20 -23 763 0 c718 0 763 1 784
18 18 15 27 45 51 182 29 161 182 993 195 1057 5 26 1 37 -20 58 -33 32 -72
30 -97 -5 -12 -17 -47 -182 -114 -545 -53 -286 -101 -544 -106 -572 l-10 -53
-680 0 c-536 0 -679 3 -679 13 -2 93 -91 1141 -99 1155 -7 12 -32 27 -63 36
-29 8 -96 28 -148 43 l-95 29 -32 -63z"/>
<path d="M3846 2397 c-28 -44 -97 -172 -99 -181 -1 -6 -7 -16 -14 -23 -29 -32
-125 -227 -125 -256 -2 -81 24 -118 123 -174 82 -48 122 -59 159 -45 14 5 28
10 33 11 15 2 48 42 42 51 -3 5 0 7 8 4 8 -3 18 6 26 23 7 15 28 56 47 90 19
35 33 64 32 66 -2 1 3 9 10 17 28 33 137 229 130 235 -33 28 -163 95 -181 94
-5 0 -14 6 -20 15 -12 14 -38 30 -119 75 l-38 21 -14 -23z"/>
<path d="M3166 1366 c-112 -42 -189 -167 -170 -275 36 -196 252 -285 406 -168
145 111 126 346 -35 428 -51 27 -151 34 -201 15z"/>
<path d="M4250 1371 c-231 -75 -253 -376 -35 -477 165 -77 355 46 355 230 0
140 -97 242 -237 252 -32 2 -69 0 -83 -5z"/>
</g>
</svg>
