<svg xmlns="http://www.w3.org/2000/svg" viewBox="0 0 64 64"><g data-name="Filled outline"><path fill="#f98c96" d="M22,35V61H42V57H34a2,2,0,0,1-2-2h0a2,2,0,0,1,2-2h8V35Z"/><path fill="#394d5c" d="M45,23V11a8,8,0,0,0-8-8H27a8,8,0,0,0-8,8V23H15v2a4,4,0,0,0,4,4h0a4,4,0,0,0,4-4V15c4.971,0,9-4,9-8,0,4,4.029,8,9,8V25a4,4,0,0,0,4,4h0a4,4,0,0,0,4-4V23Z"/><path fill="#ffd782" d="M23,15V31H41V15c-4.971,0-9-4-9-8C32,11,27.971,15,23,15Z"/><path fill="#f9bb4b" d="M44,15h1a0,0,0,0,1,0,0v6a0,0,0,0,1,0,0H44a3,3,0,0,1-3-3v0a3,3,0,0,1,3-3Z" transform="rotate(-180 43 18)"/><path fill="#f9bb4b" d="M22,15h1a0,0,0,0,1,0,0v6a0,0,0,0,1,0,0H22a3,3,0,0,1-3-3v0A3,3,0,0,1,22,15Z"/><path fill="#2d75bb" d="M38,35a6,6,0,0,1-12,0Z"/><rect width="2" height="2" x="31" y="44" fill="#f4f4e6"/><rect width="2" height="2" x="31" y="48" fill="#f4f4e6"/><path fill="#2d75bb" d="M20,35h2a0,0,0,0,1,0,0V47a0,0,0,0,1,0,0H16a0,0,0,0,1,0,0V39A4,4,0,0,1,20,35Z"/><rect width="4" height="14" x="18" y="47" fill="#ffd782"/><path fill="#2d75bb" d="M42,35h6a0,0,0,0,1,0,0V47a0,0,0,0,1,0,0H46a4,4,0,0,1-4-4V35A0,0,0,0,1,42,35Z" transform="rotate(-180 45 41)"/><path fill="#ffd782" d="M42,47v6H34a2,2,0,0,0-2,2h0a2,2,0,0,0,2,2H44a2,2,0,0,0,2-2V47Z"/><rect width="2" height="2" x="27" y="17"/><rect width="2" height="2" x="35" y="17"/><rect width="2" height="2" x="31" y="44"/><rect width="2" height="2" x="31" y="48"/><path d="M49 47V39a5.006 5.006 0 00-5-5H20a5.006 5.006 0 00-5 5v8a1 1 0 001 1h1V61a1 1 0 001 1H42a1 1 0 001-1V58h1a3 3 0 003-3V48h1A1 1 0 0049 47zM21 60H19V48h2zm0-14H17V39a3 3 0 013-3h1zM36.9 36a5 5 0 01-9.8 0zM41 60H23V36h2.08a6.991 6.991 0 0013.84 0H41V52H34a3 3 0 000 6h7zm4-5a1 1 0 01-1 1H34a1 1 0 010-2h8a1 1 0 001-1V48h2zm2-9H43V36h1a3 3 0 013 3zM33 22.09V19H31v3.09A6.006 6.006 0 0026 28h2a4 4 0 018 0h2A6.006 6.006 0 0033 22.09z"/><path d="M19 30a4.948 4.948 0 003-1.026V31a1 1 0 001 1H41a1 1 0 001-1V28.974A4.948 4.948 0 0045 30a5.006 5.006 0 005-5V23a1 1 0 00-1-1H46V11a9.01 9.01 0 00-9-9H27a9.01 9.01 0 00-9 9V22H15a1 1 0 00-1 1v2A5.006 5.006 0 0019 30zm21 0H24V15.95a10.383 10.383 0 008-5.16 10.383 10.383 0 008 5.16zm5-6h3v1a3 3 0 01-6 0V22a3.959 3.959 0 002-.556V23A1 1 0 0045 24zm-3-4V16a2 2 0 010 4zM20 11a7.008 7.008 0 017-7H37a7.008 7.008 0 017 7v3.556A3.959 3.959 0 0042 14H41c-4.579 0-8-3.695-8-7a1 1 0 00-2 0c0 3.305-3.421 7-8 7H22a3.959 3.959 0 00-2 .556zm2 5v4a2 2 0 010-4zm-6 8h3a1 1 0 001-1V21.444A3.959 3.959 0 0022 22v3a3 3 0 01-6 0zM12 2H10a4.128 4.128 0 01-.419 1.938A6.061 6.061 0 009 6.664a6.067 6.067 0 00.581 2.728A4.134 4.134 0 0110 11.332a4.134 4.134 0 01-.419 1.94A6.067 6.067 0 009 16h2a4.134 4.134 0 01.419-1.94A6.067 6.067 0 0012 11.332 6.067 6.067 0 0011.419 8.6 4.134 4.134 0 0111 6.664a4.12 4.12 0 01.419-1.937A6.069 6.069 0 0012 2zM13 18h2a4.134 4.134 0 01.419-1.94A6.067 6.067 0 0016 13.332a6.067 6.067 0 00-.581-2.728A4.134 4.134 0 0115 8.664a4.12 4.12 0 01.419-1.937A6.069 6.069 0 0016 4H14a4.128 4.128 0 01-.419 1.938A6.061 6.061 0 0013 8.664a6.067 6.067 0 00.581 2.728A4.134 4.134 0 0114 13.332a4.134 4.134 0 01-.419 1.94A6.067 6.067 0 0013 18z"/><rect width="5.385" height="2.001" x="48.807" y="50" transform="rotate(-21.801 51.5 51)"/><rect width="6" height="2" x="49" y="54"/><rect width="2.001" height="5.385" x="50.5" y="56.307" transform="rotate(-68.199 51.499 59)"/></g></svg>