<svg width="56" height="56" viewBox="0 0 56 56" fill="none" xmlns="http://www.w3.org/2000/svg">
    <g opacity=".5">
        <path d="m41.544 21.257-6.8-6.8c-1.866-1.866-2.799-2.799-3.86-3.185a5.091 5.091 0 0 0-3.482 0c-1.06.386-1.993 1.319-3.859 3.184l-10.6 10.6c-4.97 4.971-4.97 13.03 0 18.001 4.97 4.97 13.03 4.97 18 0l10.6-10.6c1.866-1.866 2.799-2.798 3.185-3.859a5.091 5.091 0 0 0 0-3.482c-.386-1.061-1.319-1.994-3.184-3.86z" fill="#3073FE"/>
        <path fill-rule="evenodd" clip-rule="evenodd" d="M38.63 7.544a1.856 1.856 0 0 1 2.626 0l7.2 7.2a1.856 1.856 0 0 1-2.625 2.625l-7.2-7.2a1.856 1.856 0 0 1 0-2.625z" fill="#BCC3FF"/>
    </g>
    <path d="m41.368 32.632-18-18-2.625 2.625 18 18 2.625-2.625zM11.727 41.65a12.828 12.828 0 0 0 2.625 2.624l-4.183 4.183a1.856 1.856 0 0 1-2.625-2.625l4.183-4.183zM39.455 19.168l-2.625-2.625 4.087-4.087 2.625 2.625-4.087 4.087zM35.857 38.145l-7.142-7.142a1.856 1.856 0 0 0-2.625 2.626l7.141 7.141 2.626-2.625zM31.806 42.195l-4.073-4.074a1.856 1.856 0 0 0-2.625 2.625l3.9 3.902a12.793 12.793 0 0 0 1.936-1.59l.863-.863z" fill="#BCC3FF"/>
</svg>
