<svg width="24" height="25" viewBox="0 0 24 25" fill="none" xmlns="http://www.w3.org/2000/svg">
    <path fill-rule="evenodd" clip-rule="evenodd" d="M18.25 7.5a3.75 3.75 0 1 1-7.5 0 3.75 3.75 0 0 1 7.5 0zM14.5 9.75a2.25 2.25 0 1 0 0-4.5 2.25 2.25 0 0 0 0 4.5zM5.75 17.5a3.75 3.75 0 1 0 7.5 0 3.75 3.75 0 0 0-7.5 0zm3.75 2.25a2.25 2.25 0 1 1 0-4.5 2.25 2.25 0 0 1 0 4.5z" fill="#fff"/>
    <path d="M14.25 17.459a.75.75 0 0 1 .75-.75h7a.75.75 0 0 1 0 1.5h-7a.75.75 0 0 1-.75-.75zM9 6.709a.75.75 0 0 1 0 1.5H2a.75.75 0 0 1 0-1.5h7zM1.25 17.459a.75.75 0 0 1 .75-.75h2a.75.75 0 0 1 0 1.5H2a.75.75 0 0 1-.75-.75zM22 6.709a.75.75 0 0 1 0 1.5h-2a.75.75 0 0 1 0-1.5h2z" fill="#fff"/>
</svg>
